<svg xmlns="http://www.w3.org/2000/svg">
<defs>
<font id="TofinoProPersonal-RegularItalic" horiz-adv-x="0" >
  <font-face 
    font-family="Tofino Pro Personal"
    font-weight="435"
    font-style="italic"
    font-stretch="normal"
    units-per-em="1000"
    panose-1="0 0 5 0 0 0 0 0 0 0"
    ascent="760"
    descent="-240"
    x-height="534"
    cap-height="711"
    bbox="-739 -257 1192 1109"
    underline-thickness="50"
    underline-position="-225"
    slope="-10"
    unicode-range="U+000D-2661"
  />
<missing-glyph horiz-adv-x="616" 
d="M501 521q13 -9 15 -30t-11 -32q-10 -7 -24 -7q-15 0 -46 9q60 -63 60 -152q0 -87 -58 -149t-140 -62q-81 0 -139 62t-58 149q0 94 63 155q-22 31 -8 64q13 31 53 51.5t89 20.5q50 0 91.5 -21.5t55.5 -54.5l1 -2q38 12 56 -1zM297 576q-41 0 -75.5 -16.5t-44.5 -40.5
q-9 -19 4 -39q51 40 112 41q0 12 3 20q9 21 25 25q21 5 63 -33l2 -2q8 3 15 3q3 0 9 -2q-17 20 -49 32t-64 12zM319 532q-3 -8 -1 -12q5 -9 43 -14q1 -1 3 -1q1 1 1 3l3 7q-33 30 -42 28q-4 -2 -7 -11zM402 484q11 0 13 9q2 6 -1 10q-3 5 -9 6q-1 1 -4 1q-10 0 -13 -9
q-1 -3 1 -9q4 -6 9 -7zM440 485q43 -13 50 -7q4 2 2 12q0 8 -4 12q-8 6 -45 -5q-1 -1 -4 -1q0 -7 -1 -10q1 -1 2 -1zM228 482q-16 -18 -5 -41q16 -34 79.5 -61t162.5 -22q-17 65 -66 103q-5 0 -8 1q-15 5 -22 18h-1l-10 2q-35 4 -49 14q-4 1 -12 1q-36 0 -69 -15zM202 431
q-7 14 -7 30q-54 -44 -67 -112q29 -1 61 10t52 27q-27 20 -39 45zM447 318q9 12 14 16h-24q-105 0 -175 39q-46 -44 -124 -48l8 -7q16 9 57 9q50 0 71 -10q23 -11 46 0q20 10 71 10q43 0 56 -9zM124 309q0 -77 51 -132.5t122 -55.5q72 0 123 55.5t51 132.5q0 3 -0.5 8.5
t-0.5 8.5q-7 -6 -16 -18v-1q3 -28 -7 -50t-32 -25q-16 -2 -32 -2q-35 0 -47 7q-21 12 -28 45q-1 2 -1 5q-3 10 -11 10q-6 0 -9 -10q-1 -1 -1 -5q-7 -33 -29 -45q-12 -7 -47 -7q-17 0 -31 2q-22 3 -32.5 25.5t-7.5 49.5v1l-15 14v-13zM252 247q17 10 22 37q3 13 -2 20l-2 2

<glyph glyph-name="f_f" unicode="ff" horiz-adv-x="613" 
d="M411 761l-15 -81h-33q-61 0 -90 -30t-40 -94l-5 -26h201l8 46q16 88 59.5 137t139.5 49l66 -1l-15 -81h-34q-61 0 -89.5 -30t-39.5 -94l-5 -26h139l-14 -77h-138l-80 -453h-90l79 453h-200l-80 -453h-90l80 453h-73l14 77h73l8 46q16 88 59 137t139 49z" />
    <glyph glyph-name="f_f_i" unicode="ffi" horiz-adv-x="868" 
d="M702 761l-15 -81h-34q-61 0 -89.5 -30t-39.5 -94l-5 -26h139l-14 -77h-138l-80 -453h-90l79 453h-200l-80 -453h-90l80 453h-73l14 77h73l8 46q16 88 59 137t139 49l66 -1l-15 -81h-33q-61 0 -90 -30t-40 -94l-5 -26h201l8 46q16 88 59.5 137t139.5 49zM759 637l21 122
h91l-21 -122h-91zM647 0l95 538h90l-95 -538h-90z" />
    <glyph glyph-name="f_f_l" unicode="ffl" horiz-adv-x="868" 
d="M702 761l-15 -81h-34q-61 0 -89.5 -30t-39.5 -94l-5 -26h139l-14 -77h-138l-80 -453h-90l79 453h-200l-80 -453h-90l80 453h-73l14 77h73l8 46q16 88 59 137t139 49l66 -1l-15 -81h-33q-61 0 -90 -30t-40 -94l-5 -26h201l8 46q16 88 59.5 137t139.5 49zM648 0l133 753h90
l-134 -753h-89z" />
    <glyph glyph-name=".notdef" horiz-adv-x="616" 
d="M501 521q13 -9 15 -30t-11 -32q-10 -7 -24 -7q-15 0 -46 9q60 -63 60 -152q0 -87 -58 -149t-140 -62q-81 0 -139 62t-58 149q0 94 63 155q-22 31 -8 64q13 31 53 51.5t89 20.5q50 0 91.5 -21.5t55.5 -54.5l1 -2q38 12 56 -1zM297 576q-41 0 -75.5 -16.5t-44.5 -40.5
q-9 -19 4 -39q51 40 112 41q0 12 3 20q9 21 25 25q21 5 63 -33l2 -2q8 3 15 3q3 0 9 -2q-17 20 -49 32t-64 12zM319 532q-3 -8 -1 -12q5 -9 43 -14q1 -1 3 -1q1 1 1 3l3 7q-33 30 -42 28q-4 -2 -7 -11zM402 484q11 0 13 9q2 6 -1 10q-3 5 -9 6q-1 1 -4 1q-10 0 -13 -9
q-1 -3 1 -9q4 -6 9 -7zM440 485q43 -13 50 -7q4 2 2 12q0 8 -4 12q-8 6 -45 -5q-1 -1 -4 -1q0 -7 -1 -10q1 -1 2 -1zM228 482q-16 -18 -5 -41q16 -34 79.5 -61t162.5 -22q-17 65 -66 103q-5 0 -8 1q-15 5 -22 18h-1l-10 2q-35 4 -49 14q-4 1 -12 1q-36 0 -69 -15zM202 431
q-7 14 -7 30q-54 -44 -67 -112q29 -1 61 10t52 27q-27 20 -39 45zM447 318q9 12 14 16h-24q-105 0 -175 39q-46 -44 -124 -48l8 -7q16 9 57 9q50 0 71 -10q23 -11 46 0q20 10 71 10q43 0 56 -9zM124 309q0 -77 51 -132.5t122 -55.5q72 0 123 55.5t51 132.5q0 3 -0.5 8.5
t-0.5 8.5q-7 -6 -16 -18v-1q3 -28 -7 -50t-32 -25q-16 -2 -32 -2q-35 0 -47 7q-21 12 -28 45q-1 2 -1 5q-3 10 -11 10q-6 0 -9 -10q-1 -1 -1 -5q-7 -33 -29 -45q-12 -7 -47 -7q-17 0 -31 2q-22 3 -32.5 25.5t-7.5 49.5v1l-15 14v-13zM252 247q17 10 22 37q3 13 -2 20l-2 2
h-1q-18 10 -66 10q-18 0 -30.5 -2t-17 -4.5t-4.5 -3.5q-2 -21 5 -40.5t24 -21.5q16 -2 30 -2q32 0 42 5zM383 242q15 0 31 2q17 2 24 22t5 40q-5 10 -52 10q-48 0 -66 -10q-1 0 -1 -1l-2 -1q-5 -7 -2 -20q3 -26 22 -37q10 -5 41 -5zM226 294q11 -6 11 -21q0 -10 -7 -17
t-17 -7t-17 7t-7 17q0 5 1 8l-11 9q-3 2 0 5q2 2 5 0l9 -8l3 4l-6 11q-1 1 -0.5 2.5t1.5 2.5q3 2 5 -2l6 -10l4 2l-2 12q0 4 4 4q2 0 4 -3l1 -12q1 0 3 -0.5t3 -0.5l3 13q2 3 5 3q4 -2 2 -5zM414 295q1 1 2.5 1t2.5 -1q2 -4 -1 -5l-10 -10q0 -1 0.5 -3t0.5 -4
q0 -10 -7.5 -17t-17.5 -7t-17 7t-7 17q0 14 12 21l-4 14q0 4 3 5q4 0 4 -3l3 -13q2 1 6 1l2 12q0 3 4 3q3 0 3 -4l-2 -12l5 -2l6 10q2 4 4 2q1 -1 2 -2.5t0 -2.5l-7 -11q3 -1 3 -4zM296 143q23 0 38.5 10.5t15.5 26.5q0 15 -16 25.5t-38 10.5t-38 -10.5t-16 -25.5
q0 -16 15.5 -26.5t38.5 -10.5z" />
    <glyph glyph-name=".null" 
 />
    <glyph glyph-name="nonmarkingreturn" horiz-adv-x="333" 
 />
    <glyph glyph-name="NULL" 
 />
    <glyph glyph-name="NULL" 
 />
    <glyph glyph-name="CR" unicode="&#xd;" horiz-adv-x="250" 
 />
    <glyph glyph-name="space" unicode=" " horiz-adv-x="210" 
 />
    <glyph glyph-name="exclam" unicode="!" horiz-adv-x="289" 
d="M67 169l92 542h90l-99 -542h-83zM33 0l21 117h90l-21 -117h-90z" />
    <glyph glyph-name="quotedbl" unicode="&#x22;" horiz-adv-x="333" 
d="M87 553l21 204h98l-50 -204h-69zM227 553l22 204h97l-50 -204h-69z" />
    <glyph glyph-name="numbersign" unicode="#" horiz-adv-x="733" 
d="M55 0l73 196h-98l12 68h112l72 192h-103l11 68h118l67 178h71l-67 -178h171l67 178h71l-67 -178h101l-12 -68h-115l-72 -192h107l-13 -68h-119l-74 -196h-71l73 196h-170l-74 -196h-71zM225 264h171l72 192h-171z" />
    <glyph glyph-name="dollar" unicode="$" horiz-adv-x="574" 
d="M172 -48l15 88q-191 22 -159 207h78q-21 -119 94 -136l41 236q-41 11 -67.5 22.5t-53 31.5t-35.5 52t-1 75q13 74 68 118t150 49l13 71h80l-13 -73q97 -10 131 -58.5t20 -131.5h-79q9 47 -6.5 78.5t-77.5 40.5l-41 -229q18 -5 31 -9t30 -10.5t28.5 -12.5t25.5 -14.5
t21.5 -18t17 -22.5t11 -27t4.5 -32t-3 -38q-28 -160 -228 -171l-15 -86h-80zM162 519q-7 -42 17 -65.5t74 -39.5l37 209q-113 -15 -128 -104zM416 217q8 44 -18.5 68t-80.5 40l-38 -215q120 10 137 107z" />
    <glyph glyph-name="percent" unicode="%" horiz-adv-x="800" 
d="M387 533q-15 -84 -58.5 -126.5t-128.5 -42.5q-169 0 -138 181q15 85 59.5 129t129.5 44q169 0 136 -185zM48 0l584 702h89l-584 -702h-89zM128 533q-11 -55 6 -82.5t66 -27.5q53 0 82 30.5t40 91.5q9 57 -6.5 85.5t-64.5 28.5q-101 0 -123 -126zM704 153
q-15 -84 -58.5 -126.5t-128.5 -42.5q-169 0 -138 181q15 85 59.5 129t129.5 44q169 0 136 -185zM444 153q-10 -56 6.5 -83t66.5 -27q53 0 82 30.5t40 91.5q9 57 -6.5 85.5t-65.5 28.5q-100 0 -123 -126z" />
    <glyph glyph-name="ampersand" unicode="&#x26;" horiz-adv-x="645" 
d="M381 729q101 0 142 -49t25 -138h-83q23 119 -86 119q-123 0 -143 -115q-3 -15 -3 -28.5t2.5 -26.5t6 -24t10.5 -24.5t13.5 -24t18 -26t20.5 -27t24 -30.5t26 -34q60 -78 104 -132q41 71 65 202h76q-30 -166 -97 -259l75 -94l-2 -21h-85l-43 56q-87 -71 -231 -71
q-249 0 -210 226q8 48 29.5 86t49.5 61t51 35.5t47 20.5q-42 70 -28 152q29 166 226 166zM275 288q-36 44 -58 74q-112 -52 -132 -165q-13 -73 19.5 -111.5t126.5 -38.5q111 0 177 59q-56 74 -133 182z" />
    <glyph glyph-name="quotesingle" unicode="'" horiz-adv-x="193" 
d="M87 553l21 204h98l-50 -204h-69z" />
    <glyph glyph-name="parenleft" unicode="(" horiz-adv-x="398" 
d="M93 284q23 130 70 249t82 173l35 55h88q-6 -8 -16 -23.5t-37 -66t-50.5 -104t-49.5 -134.5t-40 -161q-21 -142 -15 -246t24 -164l17 -59h-85q-3 8 -8 22t-15 62t-15 100t-2.5 133t17.5 164z" />
    <glyph glyph-name="parenright" unicode=")" horiz-adv-x="401" 
d="M289 760q3 -8 7 -22.5t13 -63.5t13 -102t0.5 -135t-18.5 -165q-14 -81 -39 -159.5t-50.5 -132t-49 -95.5t-38.5 -62l-15 -20h-88q6 8 16.5 23t38.5 64t52.5 101.5t51 132.5t40.5 160q21 143 17 248.5t-20 166.5l-16 61h85z" />
    <glyph glyph-name="asterisk" unicode="*" horiz-adv-x="348" 
d="M67 609l29 56l84 -33l14 94h61l-19 -94l94 33l11 -57l-96 -28l51 -76l-55 -39l-45 80l-76 -80l-45 40l78 76z" />
    <glyph glyph-name="plus" unicode="+" horiz-adv-x="487" 
d="M41 355h161l28 160h81l-29 -160h161l-14 -80h-161l-28 -161h-80l28 161h-161z" />
    <glyph glyph-name="comma" unicode="," horiz-adv-x="224" 
d="M-36 -108q33 56 64 134q13 33 21.5 60t10.5 37l2 10l85 -1q-8 -46 -43 -124q-16 -35 -33.5 -64.5t-27.5 -41.5l-10 -11z" />
    <glyph glyph-name="hyphen" unicode="-" horiz-adv-x="382" 
d="M58 283l12 71h238l-12 -71h-238z" />
    <glyph glyph-name="period" unicode="." horiz-adv-x="207" 
d="M9 0l23 129h93l-23 -129h-93z" />
    <glyph glyph-name="slash" unicode="/" horiz-adv-x="623" 
d="M47 -40l458 840h84l-458 -840h-84z" />
    <glyph glyph-name="zero" unicode="0" horiz-adv-x="663" 
d="M597 345q-34 -192 -108.5 -274t-214.5 -82q-146 0 -194.5 86t-13.5 283q34 193 108.5 275t215.5 82q146 0 194 -86.5t13 -283.5zM156 345q-27 -153 2 -213t120 -60q94 0 148 64t82 222q26 153 -2.5 214t-119.5 61q-94 0 -148 -65t-82 -223z" />
    <glyph glyph-name="one" unicode="1" horiz-adv-x="321" 
d="M68 0l105 598l-138 -55l16 92l173 72h58l-125 -707h-89z" />
    <glyph glyph-name="two" unicode="2" horiz-adv-x="560" 
d="M-22 4l5 26l8 54q104 72 219 160q58 43 88 67.5t66 59.5t54 69t25 73q9 54 -19 86t-95 32t-115 -38t-59 -98h-89q16 97 85.5 158.5t180.5 61.5q122 0 170.5 -58.5t32.5 -147.5q-7 -39 -23 -75.5t-32 -61.5t-50 -59t-54 -51.5t-66 -56.5q-9 -7 -13 -11q-124 -92 -153 -113
l323 6l-15 -83h-474z" />
    <glyph glyph-name="three" unicode="3" horiz-adv-x="591" 
d="M334 449q104 -11 147 -70t25 -160q-40 -231 -288 -231q-128 0 -179 60t-35 150h90q-10 -56 22 -92t105 -36q162 0 192 167q12 70 -26 107.5t-115 37.5l-91 -7l8 63l243 178h-322l15 84h453l-15 -83z" />
    <glyph glyph-name="four" unicode="4" horiz-adv-x="552" 
d="M308 0l26 148h-361l13 78l399 478h136l-85 -478h83l-14 -78h-82l-26 -148h-89zM347 226l75 422l-338 -422h263z" />
    <glyph glyph-name="five" unicode="5" horiz-adv-x="597" 
d="M249 613l-66 -191q63 42 165 42q111 0 156.5 -69t26.5 -177q-42 -230 -287 -230q-70 0 -119.5 17t-74.5 46t-33.5 63t-1.5 72h94q-8 -50 26.5 -84t112.5 -34q80 0 129.5 42.5t63.5 120.5q13 75 -20 116t-103 41q-48 0 -87 -13.5t-55.5 -26t-26.5 -25.5l-88 1l125 373h391
l-14 -81z" />
    <glyph glyph-name="six" unicode="6" horiz-adv-x="633" 
d="M567 220q-42 -232 -295 -232q-145 -1 -194 79.5t-18 250.5q39 221 113 310t215 89q65 0 110.5 -18.5t66.5 -49.5t28 -64t1 -67h-91q9 49 -18.5 84.5t-99.5 35.5q-79 0 -129 -53t-85 -188q77 73 199 73t169 -69t28 -181zM347 391q-122 0 -199 -104q-18 -119 12 -169.5
t114 -50.5q170 0 199 167q28 157 -126 157z" />
    <glyph glyph-name="seven" unicode="7" horiz-adv-x="469" 
d="M43 0q17 95 60.5 193.5t93 171t96.5 131.5t78 90l31 30l-371 -1l15 85h475l-15 -85q-13 -12 -34.5 -33.5t-78.5 -89t-103.5 -136.5t-92.5 -167t-62 -189h-92z" />
    <glyph glyph-name="eight" unicode="8" horiz-adv-x="632" 
d="M262 -11q-141 0 -195 55.5t-36 155.5q8 46 28.5 82t45.5 55.5t46 29t36 10.5q-9 1 -22.5 10.5t-29 26t-23 47.5t-0.5 68q34 188 266 188q129 0 178 -53.5t32 -146.5q-12 -67 -54 -103t-72 -38q13 -2 30 -13t35 -31.5t26 -58.5t0 -85q-17 -96 -85.5 -147.5t-205.5 -51.5z
M376 646q-151 0 -175 -136q-8 -48 23 -74.5t102 -26.5q73 0 117.5 30.5t53.5 82.5q12 65 -17.5 94.5t-103.5 29.5zM321 337q-81 0 -130.5 -37t-61.5 -102q-12 -67 21.5 -98t115.5 -31q168 0 193 141q11 61 -23.5 94t-114.5 33z" />
    <glyph glyph-name="nine" unicode="9" horiz-adv-x="643" 
d="M579 370q-39 -217 -110.5 -299.5t-216.5 -82.5q-69 0 -118 18.5t-72 49t-31 63.5t-2 67h90q-8 -48 24 -83.5t111 -35.5q80 0 128.5 46t82.5 174q-78 -72 -194 -72q-244 0 -196 269q18 106 93 169.5t202 63.5q146 0 194 -81t15 -266zM290 295q123 0 200 103
q22 133 -7.5 186.5t-114.5 53.5q-78 0 -132 -45t-68 -123q-30 -175 122 -175z" />
    <glyph glyph-name="colon" unicode=":" horiz-adv-x="296" 
d="M105 388l23 129h93l-23 -129h-93zM42 30l24 133h93l-24 -133h-93z" />
    <glyph glyph-name="semicolon" unicode=";" horiz-adv-x="275" 
d="M79 358l23 129h93l-23 -129h-93zM-53 -108q33 56 64 134q13 33 21.5 60t10.5 37l2 10l85 -1q-7 -46 -43 -124q-16 -35 -33.5 -64.5t-27.5 -41.5l-10 -11z" />
    <glyph glyph-name="less" unicode="&#x3c;" horiz-adv-x="554" 
d="M410 143l-363 132l17 96l410 132l-15 -82l-339 -100l304 -99z" />
    <glyph glyph-name="equal" unicode="=" horiz-adv-x="549" 
d="M74 341l14 79h397l-13 -79h-398zM47 189l14 80h397l-13 -80h-398z" />
    <glyph glyph-name="greater" unicode="&#x3e;" horiz-adv-x="548" 
d="M60 139l15 83l339 99l-303 100l13 79l364 -132l-17 -97z" />
    <glyph glyph-name="question" unicode="?" horiz-adv-x="510" 
d="M239 163h-90l7 40q9 51 32.5 87.5t51 57.5t55 41t50 52t30.5 77q21 123 -93 123q-124 0 -151 -142h-85q38 221 239 221q113 0 157 -55.5t27 -152.5q-8 -43 -26 -76t-39 -52t-46 -38.5t-46.5 -36.5t-39.5 -46t-26 -67zM119 0l20 112h90l-20 -112h-90z" />
    <glyph glyph-name="at" unicode="@" horiz-adv-x="863" 
d="M625 70q36 1 62.5 47t47.5 167q30 170 -27 260.5t-224 90.5q-165 0 -259 -97.5t-123 -263.5q-61 -343 247 -343q114 0 190 34l-7 -69q-78 -27 -183 -27q-104 0 -175.5 31.5t-104.5 87.5t-43 132t9 166q16 89 49 161t86 130t132.5 89.5t180.5 31.5q85 0 149 -20.5
t101.5 -58.5t58.5 -90.5t21.5 -116t-10.5 -135.5q-26 -145 -69 -203.5t-123 -58.5q-95 0 -102 100q-56 -60 -151 -60q-182 0 -140 229q38 220 207 220q88 0 134 -62l14 54h65l-53 -305q-22 -121 40 -121zM370 118q98 0 144 74q0 4 1 6l30 177q-26 66 -109 66
q-57 0 -94.5 -44.5t-51.5 -122.5q-27 -156 80 -156z" />
    <glyph glyph-name="A" unicode="A" horiz-adv-x="650" 
d="M-60 0l397 711h100l146 -711h-99l-30 168h-324l-89 -168h-101zM175 252h264l-66 373z" />
    <glyph glyph-name="B" unicode="B" horiz-adv-x="664" 
d="M152 714h237q155 0 207 -46.5t35 -139.5q-21 -122 -126 -158q111 -42 87 -181q-9 -54 -25 -86.5t-51.5 -58.5t-95.5 -36.5t-154 -10.5h-241zM230 638l-41 -228h179q83 0 123 29t51 90q11 58 -23.5 83.5t-131.5 25.5h-157zM176 331l-46 -259h151q115 0 162.5 29.5
t61.5 104.5q11 63 -23.5 94t-120.5 31h-185z" />
    <glyph glyph-name="C" unicode="C" horiz-adv-x="682" 
d="M602 241q-26 -134 -101 -196.5t-206 -62.5q-160 0 -214 93.5t-19 285.5q33 188 115.5 278t237.5 90q272 0 228 -266l-89 1q13 93 -22.5 137t-121.5 44q-107 0 -168 -70.5t-88 -220.5q-28 -151 5 -219.5t141 -68.5q173 0 213 176z" />
    <glyph glyph-name="D" unicode="D" horiz-adv-x="706" 
d="M25 -3l127 717h218q136 0 203.5 -40t78.5 -121.5t-11 -203.5q-13 -77 -30 -129.5t-46 -97.5t-70.5 -71t-102 -40t-143.5 -14h-224zM229 630l-97 -550h142q127 -1 187 62t87 218q27 152 -9.5 211t-161.5 59h-148z" />
    <glyph glyph-name="E" unicode="E" horiz-adv-x="587" 
d="M25 0l126 711h457l-14 -84h-366l-39 -218h316l-14 -81h-316l-43 -244h371l-15 -84h-463z" />
    <glyph glyph-name="F" unicode="F" horiz-adv-x="563" 
d="M25 0l126 711h452l-15 -84h-360l-42 -235h310l-14 -82h-310l-55 -310h-92z" />
    <glyph glyph-name="G" unicode="G" horiz-adv-x="681" 
d="M568 84q-1 -4 -11.5 -14.5t-34 -25.5t-54 -29t-77.5 -23.5t-98 -9.5q-159 0 -212.5 93t-18.5 285q33 189 115 279t236 90q132 0 189 -66.5t37 -179.5l-86 2q11 72 -26.5 116t-118.5 44q-106 0 -166.5 -71t-87.5 -221q-28 -151 5.5 -220.5t141.5 -69.5q52 0 98.5 14
t69 29.5t23.5 24.5l24 139h-144l13 80h230z" />
    <glyph glyph-name="H" unicode="H" horiz-adv-x="712" 
d="M25 0l126 711h92l-53 -300h350l53 300h92l-126 -711h-92l57 325h-350l-57 -325h-92z" />
    <glyph glyph-name="I" unicode="I" horiz-adv-x="270" 
d="M25 0l126 711h92l-126 -711h-92z" />
    <glyph glyph-name="J" unicode="J" horiz-adv-x="403" 
d="M317 276q-12 -68 -23.5 -108.5t-31.5 -76.5t-50.5 -54t-76 -27.5t-112.5 -9.5h-56l16 89h50q96 0 134.5 41t57.5 153l77 428h92z" />
    <glyph glyph-name="K" unicode="K" horiz-adv-x="654" 
d="M25 0l126 711h92l-73 -413l407 413h119l-298 -296l173 -415h-103l-142 343l-180 -179l-29 -164h-92z" />
    <glyph glyph-name="L" unicode="L" horiz-adv-x="486" 
d="M25 0l126 711h92l-111 -625h319l-16 -86h-410z" />
    <glyph glyph-name="M" unicode="M" horiz-adv-x="926" 
d="M25 0l126 711h124l135 -621l357 621h132l-127 -711h-90l112 599l-353 -599h-91l-137 602l-100 -602h-88z" />
    <glyph glyph-name="N" unicode="N" horiz-adv-x="741" 
d="M215 597l-103 -597h-87l129 711h99l274 -593l99 593h88l-126 -711h-96z" />
    <glyph glyph-name="O" unicode="O" horiz-adv-x="717" 
d="M655 349q-34 -188 -117 -277.5t-240 -89.5q-162 0 -216.5 93.5t-19.5 285.5q33 188 116 278t240 90q162 0 216.5 -94t20.5 -286zM154 354q-28 -151 5.5 -219.5t143.5 -68.5q111 0 172 69.5t88 219.5q28 151 -6 220.5t-143 69.5q-110 0 -171.5 -70.5t-88.5 -220.5z" />
    <glyph glyph-name="P" unicode="P" horiz-adv-x="650" 
d="M25 0l127 714h225q167 0 228.5 -52t37.5 -188q-23 -133 -99 -181t-244 -48h-140l-43 -245h-92zM229 634l-54 -307h148q102 0 156.5 31t71.5 127q7 29 4 50.5t-6.5 37.5t-16.5 27t-25.5 17.5t-34 10.5t-41.5 5t-48 1h-154z" />
    <glyph glyph-name="Q" unicode="Q" horiz-adv-x="711" 
d="M655 349q-40 -220 -143 -302l94 -97l-76 -59l-94 113q-63 -22 -138 -22q-162 0 -216.5 93.5t-19.5 285.5q33 188 116 278t240 90q162 0 216.5 -94t20.5 -286zM154 354q-28 -151 5.5 -219.5t143.5 -68.5q111 0 172 69.5t88 219.5q28 151 -6 220.5t-143 69.5
q-110 0 -171.5 -70.5t-88.5 -220.5z" />
    <glyph glyph-name="R" unicode="R" horiz-adv-x="673" 
d="M25 0l127 714h250q153 0 210.5 -49t33.5 -181q-17 -95 -58.5 -142t-118.5 -63l100 -279h-97l-90 269q-18 -1 -56 -1h-162l-47 -268h-92zM229 631l-50 -281h149q41 0 68.5 2.5t56.5 11t47 24t32.5 42.5t21.5 65q2 23 4 41.5t-4.5 32.5t-11.5 24t-19 17t-26 11t-32 6.5
t-38 3t-43 0.5h-155z" />
    <glyph glyph-name="S" unicode="S" horiz-adv-x="644" 
d="M560 178q-33 -198 -298 -196q-132 1 -193 60.5t-40 178.5l90 -1q-28 -154 151 -157q87 -1 138 31t62 92q6 35 -8.5 59.5t-43 38t-66 26t-77.5 21t-76.5 25t-63.5 37.5t-39.5 58t-3.5 86q17 92 88.5 142.5t197.5 49.5q141 -1 192 -57.5t32 -162.5l-89 1q7 25 3.5 49.5
t-14.5 44t-43.5 31.5t-84.5 12q-90 1 -136.5 -33t-55.5 -86q-6 -34 8.5 -58.5t43 -38t66 -25.5t77 -21t76.5 -25.5t64 -37.5t39.5 -58t3.5 -86z" />
    <glyph glyph-name="T" unicode="T" horiz-adv-x="504" 
d="M140 0l113 626h-225l15 85h542l-15 -85h-225l-113 -626h-92z" />
    <glyph glyph-name="U" unicode="U" horiz-adv-x="684" 
d="M610 342q-13 -75 -28 -126.5t-39.5 -99t-59 -75t-85.5 -43.5t-119 -16q-70 0 -117 16.5t-72.5 45.5t-34.5 77t-6 101t16 127l64 362h92l-64 -362q-30 -145 -3.5 -212.5t130.5 -67.5q106 0 156.5 66t77.5 218l64 358h93z" />
    <glyph glyph-name="V" unicode="V" horiz-adv-x="592" 
d="M46 711h101l94 -636l318 636h101l-377 -711h-109z" />
    <glyph glyph-name="W" unicode="W" horiz-adv-x="953" 
d="M518 613l-265 -613h-109l-83 711h100l53 -623l266 623h107l50 -626l271 626h101l-333 -711h-109z" />
    <glyph glyph-name="X" unicode="X" horiz-adv-x="636" 
d="M303 292l-247 -292h-110l309 357l-178 354h98l146 -297l250 297h110l-313 -359l176 -352h-98z" />
    <glyph glyph-name="Y" unicode="Y" horiz-adv-x="572" 
d="M174 0l40 229l-164 482h102l120 -405l254 405h111l-332 -482l-40 -229h-91z" />
    <glyph glyph-name="Z" unicode="Z" horiz-adv-x="567" 
d="M-38 3l13 79l487 547h-371l13 79h486l-12 -79l-490 -547h396l-14 -79h-508z" />
    <glyph glyph-name="bracketleft" unicode="[" horiz-adv-x="534" 
d="M100 -197l168 957h236l-13 -71h-155l-144 -815h155l-12 -71h-235z" />
    <glyph glyph-name="backslash" unicode="\" horiz-adv-x="336" 
d="M289 -40h-81l-161 840h80z" />
    <glyph glyph-name="bracketright" unicode="]" horiz-adv-x="491" 
d="M236 -197h-236l13 71h154l144 815h-154l12 71h235z" />
    <glyph glyph-name="asciicircum" unicode="^" horiz-adv-x="419" 
d="M365 465h-64l-54 211l-128 -211h-69l177 276h59z" />
    <glyph glyph-name="underscore" unicode="_" horiz-adv-x="586" 
d="M81 0l12 68h413l-12 -68h-413z" />
    <glyph glyph-name="grave" unicode="`" horiz-adv-x="308" 
d="M198 631h-72l-65 144h86z" />
    <glyph glyph-name="a" unicode="a" horiz-adv-x="600" 
d="M401 1v59q-84 -73 -198 -73q-196 0 -166 173q16 94 79 132.5t171 38.5q95 0 151 -10q10 55 7.5 89t-26.5 49t-80 15q-80 0 -116.5 -31t-43.5 -73l-82 1q32 176 240 176q109 0 155.5 -36.5t42.5 -100t-17 -147.5l-22 -124l-14 -138h-81zM223 63q63 0 113.5 26.5t71.5 60.5
l18 103q-48 4 -115 4q-83 0 -127.5 -21.5t-53.5 -74.5q-18 -98 93 -98z" />
    <glyph glyph-name="b" unicode="b" horiz-adv-x="605" 
d="M22 0l35 144l108 609h90l-48 -274q72 69 180 69q110 0 149 -75.5t15 -212.5q-48 -270 -254 -270q-132 0 -172 84l-25 -74h-78zM361 467q-98 0 -171 -81l-42 -240q33 -74 134 -74q146 0 181 197q17 99 -7 148.5t-95 49.5z" />
    <glyph glyph-name="c" unicode="c" horiz-adv-x="580" 
d="M507 179q-40 -191 -257 -191q-133 0 -177 72.5t-19 213.5q25 136 90 205.5t193 69.5q231 0 198 -209h-87q21 135 -113 135q-82 0 -126.5 -52t-63.5 -158t5 -154t103 -48q143 0 165 116h89z" />
    <glyph glyph-name="d" unicode="d" horiz-adv-x="608" 
d="M412 0l1 72q-64 -82 -191 -82q-218 0 -168 282q49 276 251 276q113 0 167 -79l50 284h90l-108 -609l-15 -144h-77zM246 72q105 0 172 82l41 237q-41 76 -134 76q-147 0 -183 -203q-17 -97 7.5 -144.5t96.5 -47.5z" />
    <glyph glyph-name="e" unicode="e" horiz-adv-x="587" 
d="M512 163q-6 -28 -20 -54.5t-42 -56t-79 -47.5t-119 -18q-133 0 -178 73t-20 214q25 137 91 206t195 69q130 0 174 -71.5t16 -232.5h-389q-14 -96 12 -138.5t103 -42.5t117 31.5t48 67.5h91zM336 476q-72 0 -114.5 -38.5t-64.5 -117.5h292q6 84 -21 120t-92 36z" />
    <glyph glyph-name="f" unicode="f" horiz-adv-x="322" 
d="M411 761l-15 -81h-33q-61 0 -90 -30t-40 -94l-5 -26h139l-14 -77h-138l-80 -453h-90l80 453h-73l14 77h73l8 46q16 88 59 137t139 49z" />
    <glyph glyph-name="g" unicode="g" horiz-adv-x="650" 
d="M510 -5q-6 -32 -9.5 -48t-13 -45.5t-20.5 -45.5t-31.5 -37t-46 -32t-64 -19t-86.5 -8t-84.5 10.5t-56.5 27.5t-33 37.5t-16.5 40.5t-4 37t1.5 27l2 11h95q-1 -6 -2.5 -14.5t0.5 -28.5t10.5 -35.5t32 -28t59.5 -12.5q50 0 84 13t52 40t26.5 53t15.5 67l9 50
q-63 -65 -176 -65q-218 0 -168 282q47 276 251 276q51 0 91.5 -18.5t56.5 -35.5t25 -34l27 78h78l-34 -140zM278 72q103 0 168 78l43 242q-39 75 -134 75q-146 0 -181 -203q-18 -97 7 -144.5t97 -47.5z" />
    <glyph glyph-name="h" unicode="h" horiz-adv-x="614" 
d="M39 0l133 753h90l-50 -284q75 77 196 77q95 0 129 -55t13 -180l-56 -311h-89l57 321q13 73 -6.5 107t-85.5 34q-103 0 -176 -94l-65 -368h-90z" />
    <glyph glyph-name="i" unicode="i" horiz-adv-x="255" 
d="M146 637l21 122h91l-21 -122h-91zM34 0l95 538h90l-95 -538h-90z" />
    <glyph glyph-name="j" unicode="j" horiz-adv-x="269" 
d="M153 637l21 122h91l-21 -122h-91zM141 49q-21 -115 -42 -153q-37 -69 -137 -82q-30 -4 -67 -4l9 85q35 0 59 7t38.5 16.5t24.5 33t14.5 43t11.5 59.5l85 484h90z" />
    <glyph glyph-name="k" unicode="k" horiz-adv-x="538" 
d="M35 0l133 753h87l-88 -495l275 280h105l-209 -206l136 -332h-99l-104 266l-124 -121l-25 -145h-87z" />
    <glyph glyph-name="l" unicode="l" horiz-adv-x="255" 
d="M35 0l133 753h90l-134 -753h-89z" />
    <glyph glyph-name="m" unicode="m" horiz-adv-x="943" 
d="M39 0l70 397l15 141h77l-2 -74q72 82 194 82q118 0 139 -94q26 35 77.5 64.5t129.5 29.5q93 0 127 -55t12 -180l-55 -311h-86l57 321q13 73 -6 107t-81 34q-97 0 -169 -87q-1 -25 -8 -64l-56 -311h-83l57 321q13 73 -5.5 107t-80.5 34q-95 0 -169 -89l-64 -373h-90z" />
    <glyph glyph-name="n" unicode="n" horiz-adv-x="613" 
d="M39 0l70 397l15 141h77l-3 -82q74 90 209 90q95 0 129 -55.5t12 -182.5l-55 -308h-89l56 318q13 75 -6 109.5t-85 34.5q-102 0 -177 -94l-63 -368h-90z" />
    <glyph glyph-name="o" unicode="o" horiz-adv-x="595" 
d="M540 261q-24 -138 -89 -206t-197 -68q-136 0 -180 72.5t-19 214.5q24 138 89.5 206.5t197.5 69.5q136 1 180 -72.5t18 -216.5zM145 265q-19 -107 5.5 -154.5t106.5 -47.5q86 0 130 49.5t63 157.5q19 107 -5 156t-106 49q-85 0 -129.5 -51t-64.5 -159z" />
    <glyph glyph-name="p" unicode="p" horiz-adv-x="603" 
d="M-13 -240l113 638l15 140h76l-1 -73q75 83 194 83q110 0 149.5 -76t14.5 -212q-46 -270 -254 -270q-121 0 -165 71l-52 -301h-90zM358 467q-98 0 -172 -83l-42 -238q33 -74 136 -74q146 0 180 197q17 99 -7 148.5t-95 49.5z" />
    <glyph glyph-name="q" unicode="q" horiz-adv-x="601" 
d="M347 -240l52 296q-64 -66 -177 -66q-218 0 -168 282q49 276 251 276q39 0 71 -9.5t52.5 -25.5t31.5 -28t18 -24l28 77h78l-32 -124l-115 -654h-90zM245 72q103 0 171 79l42 241q-41 75 -134 75q-146 0 -182 -203q-17 -97 7.5 -144.5t95.5 -47.5z" />
    <glyph glyph-name="r" unicode="r" horiz-adv-x="388" 
d="M39 0l68 384l17 154h77l-4 -97q24 40 75.5 74t135.5 34l-9 -84q-48 0 -87.5 -16t-64.5 -41t-38.5 -44.5t-22.5 -38.5l-57 -325h-90z" />
    <glyph glyph-name="s" unicode="s" horiz-adv-x="544" 
d="M476 138q-25 -152 -249 -151q-112 2 -164.5 51t-36.5 139l89 -2q-10 -54 19 -82t97 -29q140 -1 157 89q6 32 -16.5 51.5t-60.5 26.5t-82.5 18t-81.5 24t-58 46.5t-13 83.5q26 150 240 147q108 -1 155.5 -47t32.5 -131l-88 2q8 47 -15.5 74t-90.5 28q-130 1 -146 -87
q-5 -29 18.5 -47t61.5 -24.5t82.5 -17.5t81.5 -25.5t57 -49t11 -87.5z" />
    <glyph glyph-name="t" unicode="t" horiz-adv-x="325" 
d="M259 -3h-43q-49 0 -81.5 11.5t-48.5 29.5t-21.5 49t-3.5 59.5t9 71.5l43 243h-69l14 77h68l28 156l93 16l-30 -172h134l-14 -77h-134l-43 -247q-16 -66 -2.5 -100t73.5 -34h43z" />
    <glyph glyph-name="u" unicode="u" horiz-adv-x="612" 
d="M415 0l3 92q-10 -14 -25 -28.5t-40.5 -32t-64 -28.5t-82.5 -11q-96 0 -130 55t-12 180l55 310h90l-57 -319q-13 -74 6.5 -108t83.5 -34t110.5 34.5t72.5 74.5l62 353h90l-69 -389l-16 -149h-77z" />
    <glyph glyph-name="v" unicode="v" horiz-adv-x="511" 
d="M45 538h99l72 -456l235 456h101l-302 -538h-95z" />
    <glyph glyph-name="w" unicode="w" horiz-adv-x="808" 
d="M432 448l-204 -448h-102l-75 538h95l44 -450l204 450h105l51 -452l199 452h98l-259 -538h-105z" />
    <glyph glyph-name="x" unicode="x" horiz-adv-x="547" 
d="M258 206l-177 -206h-107l241 270l-145 268h100l108 -211l182 211h107l-245 -275l141 -263h-100z" />
    <glyph glyph-name="y" unicode="y" horiz-adv-x="509" 
d="M67 -225l113 225h-33l-102 538h95l75 -470l238 470h97l-397 -763h-86z" />
    <glyph glyph-name="z" unicode="z" horiz-adv-x="479" 
d="M-14 3l6 35l7 45l367 372h-291l15 79h395l-6 -32l-7 -46l-367 -373h300l-14 -80h-405z" />
    <glyph glyph-name="braceleft" unicode="{" horiz-adv-x="469" 
d="M219 598q10 55 21 83.5t38.5 48t68.5 25.5t115 6l-5 -67q-84 0 -114 -26t-43 -102l-36 -202q-5 -31 -22.5 -51t-30.5 -24.5t-17 -3.5l2 -1q2 -2 7 -4.5t10 -7t10.5 -11.5t9 -16t4.5 -21.5t-2 -27.5l-36 -205q-13 -74 5.5 -96t101.5 -22l-6 -67q-96 0 -139.5 15
t-54.5 53.5t4 104.5l39 220q6 32 -7.5 42.5t-67.5 10.5l5 63q54 0 74 13.5t26 45.5z" />
    <glyph glyph-name="bar" unicode="|" horiz-adv-x="340" 
d="M33 -180l177 1000h66l-177 -1000h-66z" />
    <glyph glyph-name="braceright" unicode="}" horiz-adv-x="473" 
d="M254 -31q-8 -44 -16.5 -69.5t-24 -46t-42 -29.5t-63.5 -13.5t-97 -4.5l6 67q83 0 113 26t44 102l36 202q5 31 22.5 51t30 24.5t16.5 3.5l-2 2q-2 1 -6.5 3.5t-10 7t-10.5 11.5t-8.5 16.5t-4.5 21.5t2 28l35 204q14 74 -4.5 96t-101.5 22l5 67q96 0 139.5 -15t54.5 -53.5
t-4 -104.5l-39 -220q-6 -32 7.5 -42.5t67.5 -10.5l-5 -63q-54 0 -74.5 -13.5t-26.5 -45.5z" />
    <glyph glyph-name="asciitilde" unicode="~" horiz-adv-x="541" 
d="M34 245q23 127 136 127q52 0 99.5 -27.5t79.5 -27.5q36 0 59.5 21t25.5 38l56 -7q-9 -55 -41 -91t-95 -36q-51 0 -99 27.5t-80 27.5q-35 0 -58.5 -21t-26.5 -38z" />
    <glyph glyph-name="exclamdown" unicode="&#xa1;" horiz-adv-x="262" 
d="M93 421l21 117h90l-21 -117h-90zM-12 -173l99 542h83l-92 -542h-90z" />
    <glyph glyph-name="cent" unicode="&#xa2;" horiz-adv-x="581" 
d="M187 -20l15 87q-104 13 -137 84.5t-11 198.5q23 127 80 196t166 78l15 86h80l-15 -86q185 -18 156 -207h-88q18 118 -81 133l-72 -407q103 15 123 113h89q-38 -178 -225 -190l-15 -86h-80zM145 341q-17 -89 -1 -138.5t72 -59.5l70 403q-58 -14 -92 -65t-49 -140z" />
    <glyph glyph-name="sterling" unicode="&#xa3;" horiz-adv-x="594" 
d="M238 254q-1 -25 -6 -55q-17 -88 -81 -127l334 2l-13 -78h-472l13 74l-1 1q4 1 11.5 3t27.5 11.5t36.5 22.5t32 37.5t21.5 55.5q5 29 6 53h-108l12 70h93q-2 17 -7 46.5t-8 48t-3 47t5 57.5q15 85 79 135t169 50q113 0 160 -55.5t29 -154.5h-88q11 62 -16.5 96.5
t-84.5 34.5q-61 0 -103.5 -35.5t-52.5 -98.5q-4 -44 -3.5 -58t7.5 -54.5t9 -58.5h161l-13 -70h-146z" />
    <glyph glyph-name="currency" unicode="&#xa4;" horiz-adv-x="732" 
d="M602 482q26 -63 9 -165q-17 -95 -59 -152l59 -70l-62 -54l-58 67q-64 -40 -163 -40q-102 0 -155 43l-81 -70l-47 54l85 75q-25 62 -7 159q17 94 58 151l-59 69l62 55l55 -67q64 44 168 45q99 0 152 -42l81 70l47 -55zM211 319q-30 -172 120 -172q159 0 191 181
q32 175 -119 175q-85 0 -131 -50t-61 -134z" />
    <glyph glyph-name="yen" unicode="&#xa5;" horiz-adv-x="540" 
d="M159 0l32 178h-111l11 65h111l10 53h-112l12 65h87l-149 347h101l120 -323l226 323h108l-269 -347h84l-11 -65h-109l-9 -53h109l-12 -65h-109l-31 -178h-89z" />
    <glyph glyph-name="brokenbar" unicode="&#xa6;" horiz-adv-x="339" 
d="M134 395l75 425h66l-75 -425h-66zM173 245l-74 -425h-66l74 425h66z" />
    <glyph glyph-name="section" unicode="&#xa7;" horiz-adv-x="587" 
d="M518 368q-14 -76 -82 -117q50 -38 36 -116q-25 -150 -248 -150q-120 0 -167 43t-31 133h81q-11 -55 17.5 -84.5t99.5 -29.5q74 0 114.5 25t48.5 68q7 37 -16 59.5t-61.5 30.5t-83 19t-82 23.5t-58 45.5t-11.5 85q14 79 85 120q-53 36 -39 114q24 142 234 142
q118 0 162 -40.5t29 -124.5h-80q9 50 -13 77t-97 27q-135 0 -151 -92q-5 -27 7.5 -45t36 -26.5t54.5 -16t63.5 -12t63 -16t53 -27t32.5 -45t3 -70.5zM160 391q-4 -21 3.5 -36.5t21 -24.5t37 -16t45 -11t51 -9.5t49.5 -11.5q54 36 65 93q4 26 -5 44t-33 29t-46 17t-59.5 13.5
t-58.5 13.5q-60 -39 -70 -101z" />
    <glyph glyph-name="dieresis" unicode="&#xa8;" horiz-adv-x="418" 
d="M61 630l22 129h85l-23 -129h-84zM229 630l23 129h84l-22 -129h-85z" />
    <glyph glyph-name="copyright" unicode="&#xa9;" horiz-adv-x="828" 
d="M770 342q-10 -63 -29.5 -116.5t-53 -101.5t-78.5 -81t-110 -52.5t-144 -19.5t-138.5 20t-93.5 55t-54 83.5t-20 105t8 119.5q13 80 42 145t77 118.5t123.5 83t172.5 29.5q81 0 140.5 -20.5t93.5 -56.5t53.5 -85t19.5 -106t-9 -120zM117 342q-51 -315 239 -315
q83 0 147.5 25.5t105.5 72t65.5 103t35.5 126.5q13 65 6 123t-31 102t-78.5 69.5t-135.5 25.5q-83 0 -147 -26.5t-105 -73.5t-66 -104.5t-36 -127.5zM562 287q-29 -155 -178 -155q-94 0 -128 55.5t-13 168.5q19 109 67.5 160.5t138.5 51.5q162 0 136 -157h-62
q15 103 -74 103q-59 0 -94 -41.5t-50 -128.5q-14 -84 4 -120.5t75 -36.5q95 0 116 100h62z" />
    <glyph glyph-name="ordfeminine" unicode="&#xaa;" horiz-adv-x="423" 
d="M287 361v37q-58 -47 -133 -47q-140 0 -118 123q11 65 54.5 91t119.5 26q61 0 101 -6q13 55 0.5 79t-63.5 24q-54 0 -79 -21.5t-30 -48.5l-61 1q4 22 11.5 40t24.5 39t50 33t80 12q33 0 58 -5.5t40.5 -13.5t24.5 -24t12.5 -29.5t2.5 -38t-3.5 -41.5t-7.5 -48l-15 -86
l-9 -96h-60zM167 408q43 0 77 19t48 42l11 65q-51 3 -74 3q-59 0 -89 -14.5t-37 -49.5q-11 -65 64 -65z" />
    <glyph glyph-name="guillemotleft" unicode="&#xab;" horiz-adv-x="574" 
d="M151 101l-90 154l1 20l146 161h105l-162 -173l102 -162h-102zM329 101l-90 154l1 20l146 161h105l-162 -173l102 -162h-102z" />
    <glyph glyph-name="registered" unicode="&#xae;" horiz-adv-x="828" 
d="M770 342q-10 -63 -29.5 -116.5t-53 -101.5t-78.5 -81t-110 -52.5t-144 -19.5t-138.5 20t-93.5 55t-54 83.5t-20 105t8 119.5q13 80 42 145t77 118.5t123.5 83t172.5 29.5q81 0 140.5 -20.5t93.5 -56.5t53.5 -85t19.5 -106t-9 -120zM117 342q-51 -315 239 -315
q83 0 147.5 25.5t105.5 72t65.5 103t35.5 126.5q13 65 6 123t-31 102t-78.5 69.5t-135.5 25.5q-83 0 -147 -26.5t-105 -73.5t-66 -104.5t-36 -127.5zM231 141l73 414h157q81 0 113 -30t18 -106q-10 -57 -34.5 -84t-68.5 -35l50 -159h-65l-44 154h-111l-27 -154h-61zM356 505
l-28 -159h90q48 0 76 16.5t37 66.5q8 47 -12.5 61.5t-66.5 14.5h-96z" />
    <glyph glyph-name="macron" unicode="&#xaf;" horiz-adv-x="418" 
d="M72 723h253l-12 -66h-253z" />
    <glyph glyph-name="degree" unicode="&#xb0;" horiz-adv-x="283" 
d="M276 603q-18 -108 -120 -108q-56 0 -79.5 31t-13.5 89q20 110 121 110q114 0 92 -122zM116 605q-12 -62 39 -62q57 0 69 71q9 63 -39 63q-31 0 -48 -21t-21 -51z" />
    <glyph glyph-name="plusminus" unicode="&#xb1;" horiz-adv-x="564" 
d="M225 213l20 115h-154l14 80h154l20 114h81l-21 -114h154l-13 -80h-155l-20 -115h-80zM50 96l14 80h388l-13 -80h-389z" />
    <glyph glyph-name="uni00B2" unicode="&#xb2;" horiz-adv-x="427" 
d="M43 324l11 62l159 122q44 33 64.5 49.5t47 42.5t39 50.5t17.5 54.5q6 37 -12.5 59t-65.5 22q-48 0 -82 -27.5t-42 -68.5h-74q13 74 63.5 119t134.5 45q94 0 130 -43.5t24 -111.5q-7 -38 -20.5 -68.5t-42 -61t-46.5 -47t-63 -53.5l-108 -81l226 4l-12 -68h-348z" />
    <glyph glyph-name="uni00B3" unicode="&#xb3;" horiz-adv-x="441" 
d="M312 648q146 -21 119 -175q-29 -163 -211 -163q-96 0 -134 45t-26 113h74q-7 -38 15 -63.5t72 -25.5q56 0 90 29.5t43 82.5q9 49 -16.5 76t-80.5 27l-66 -5l7 52h1l168 123l-233 -3l13 69h336l-12 -65z" />
    <glyph glyph-name="acute" unicode="&#xb4;" horiz-adv-x="363" 
d="M63 631l102 144h91l-117 -144h-76z" />
    <glyph glyph-name="paragraph" unicode="&#xb6;" horiz-adv-x="582" 
d="M213 0l52 298q-146 3 -196 53.5t-26 183.5q23 130 88.5 176.5t215.5 48.5h225l-134 -760h-66l121 690h-93l-121 -690h-66zM127 525q-16 -94 18 -123.5t133 -30.5l56 318q-97 -2 -144 -35.5t-63 -128.5z" />
    <glyph glyph-name="periodcentered" unicode="&#xb7;" horiz-adv-x="239" 
d="M49 234l22 129h93l-22 -129h-93z" />
    <glyph glyph-name="cedilla" unicode="&#xb8;" horiz-adv-x="372" 
d="M276 -143q-7 -47 -40 -66t-104 -19q-21 0 -39 2t-25 4l-8 3l6 50q0 -3 42 -3q39 0 59 11t25 38q4 22 -15.5 30t-59.5 8h-9l56 88h84l-39 -61q35 -5 54.5 -26t12.5 -59z" />
    <glyph glyph-name="uni00B9" unicode="&#xb9;" horiz-adv-x="268" 
d="M121 320l74 428l-100 -43l13 79l129 53h48l-91 -517h-73z" />
    <glyph glyph-name="ordmasculine" unicode="&#xba;" horiz-adv-x="412" 
d="M374 541q-17 -96 -61 -142.5t-136 -46.5q-95 0 -126 51t-14 151q17 95 61.5 142.5t135.5 47.5q97 0 127.5 -51.5t12.5 -151.5zM103 546q-13 -72 3 -105t72 -33q57 0 87 33.5t43 107.5q13 73 -3 106t-72 33t-86.5 -34.5t-43.5 -107.5z" />
    <glyph glyph-name="guillemotright" unicode="&#xbb;" horiz-adv-x="563" 
d="M170 101h-106l159 166l-98 169h100l90 -161l-1 -20zM348 101h-106l159 166l-98 169h100l90 -161l-1 -20z" />
    <glyph glyph-name="onequarter" unicode="&#xbc;" horiz-adv-x="952" 
d="M51 -40l658 821h85l-658 -821h-85zM65 245l74 428l-100 -43l13 79l129 53h48l-91 -517h-73zM745 0l18 105h-262l10 65l284 345h114l-61 -345h61l-13 -65h-60l-18 -105h-73zM775 170l51 292l-229 -292h178z" />
    <glyph glyph-name="onehalf" unicode="&#xbd;" horiz-adv-x="1004" 
d="M51 -40l658 821h85l-658 -821h-85zM65 245l74 428l-100 -43l13 79l129 53h48l-91 -517h-73zM564 4l11 62l159 122q44 33 64.5 49.5t47 42.5t39 50.5t17.5 54.5q6 37 -12.5 59t-65.5 22q-48 0 -82 -27.5t-42 -68.5h-74q13 74 63.5 119t134.5 45q94 0 130 -43.5t24 -111.5
q-7 -38 -20.5 -68.5t-42 -61t-46.5 -47t-63 -53.5l-108 -81l226 4l-12 -68h-348z" />
    <glyph glyph-name="threequarters" unicode="&#xbe;" horiz-adv-x="1109" 
d="M208 -40l658 821h85l-658 -821h-85zM256 573q146 -21 119 -175q-29 -163 -211 -163q-96 0 -134 45t-26 113h74q-7 -38 15 -63.5t72 -25.5q56 0 90 29.5t43 82.5q9 49 -16.5 76t-80.5 27l-66 -5l7 52h1l168 123l-233 -3l13 69h336l-12 -65zM902 0l18 105h-262l10 65
l284 345h114l-61 -345h61l-13 -65h-60l-18 -105h-73zM932 170l51 292l-229 -292h178z" />
    <glyph glyph-name="questiondown" unicode="&#xbf;" horiz-adv-x="474" 
d="M314 538l-20 -112h-90l20 112h90zM194 375h90l-7 -40q-8 -43 -26 -76.5t-39 -52t-46 -38t-46 -36t-38 -45.5t-24 -67q-21 -124 93 -124q124 0 151 142h85q-38 -221 -239 -221q-113 0 -157 56t-27 152q9 51 32.5 87.5t51.5 58t55.5 42t51 52.5t32.5 77z" />
    <glyph glyph-name="Agrave" unicode="&#xc0;" horiz-adv-x="650" 
d="M437 767h-78l-71 121h94zM-60 0l397 711h100l146 -711h-99l-30 168h-324l-89 -168h-101zM175 252h264l-66 373z" />
    <glyph glyph-name="Aacute" unicode="&#xc1;" horiz-adv-x="650" 
d="M354 766l98 121h98l-112 -121h-84zM-60 0l397 711h100l146 -711h-99l-30 168h-324l-89 -168h-101zM175 252h264l-66 373z" />
    <glyph glyph-name="Acircumflex" unicode="&#xc2;" horiz-adv-x="650" 
d="M555 766h-88l-56 68l-77 -68h-92l127 121h97zM-60 0l397 711h100l146 -711h-99l-30 168h-324l-89 -168h-101zM175 252h264l-66 373z" />
    <glyph glyph-name="Atilde" unicode="&#xc3;" horiz-adv-x="650" 
d="M570 877q-9 -51 -31.5 -81.5t-73.5 -30.5q-24 0 -40.5 7t-23 16t-17 16t-25.5 7q-24 0 -36.5 -16.5t-16.5 -32.5l-61 7q4 24 10 41t17.5 34.5t31 27t46.5 9.5q32 0 49 -11.5t28 -23t29 -11.5q25 0 38.5 16.5t15.5 32.5zM-60 0l397 711h100l146 -711h-99l-30 168h-324
l-89 -168h-101zM175 252h264l-66 373z" />
    <glyph glyph-name="Adieresis" unicode="&#xc4;" horiz-adv-x="650" 
d="M265 766l23 129h91l-23 -129h-91zM439 766l23 129h91l-24 -129h-90zM-60 0l397 711h100l146 -711h-99l-30 168h-324l-89 -168h-101zM175 252h264l-66 373z" />
    <glyph glyph-name="Aring" unicode="&#xc5;" horiz-adv-x="650" 
d="M512 844q-8 -41 -37 -64t-72 -23q-48 0 -72.5 27.5t-16.5 72.5q7 41 36 64t73 23q49 0 73 -27t16 -73zM374 847q-6 -35 28 -35q19 0 32.5 11.5t16.5 31.5q4 16 -4 25t-23 9q-19 0 -33 -11.5t-17 -30.5zM-60 0l397 711h100l146 -711h-99l-30 168h-324l-89 -168h-101z
M175 252h264l-66 373z" />
    <glyph glyph-name="AE" unicode="&#xc6;" horiz-adv-x="932" 
d="M-60 0l501 711h512l-14 -84h-366l-38 -218h315l-14 -81h-315l-43 -244h370l-15 -84h-462l31 179h-233l-123 -179h-106zM416 257l66 375l-259 -375h193z" />
    <glyph glyph-name="Ccedilla" unicode="&#xc7;" horiz-adv-x="682" 
d="M374 -150q-7 -47 -40 -66t-104 -19q-21 0 -39 2.5t-25 4.5l-8 2l6 50q0 -3 42 -3q39 0 59 11t25 38q4 22 -15.5 30t-59.5 8h-9l48 76q-136 12 -180 105t-12 272q33 188 115.5 278t237.5 90q272 0 228 -266l-89 1q13 93 -22.5 137t-121.5 44q-107 0 -168 -70.5t-88 -220.5
q-28 -151 5 -219.5t141 -68.5q173 0 213 176l89 -1q-24 -122 -88.5 -184.5t-175.5 -72.5l-31 -49q35 -5 54.5 -26t12.5 -59z" />
    <glyph glyph-name="Egrave" unicode="&#xc8;" horiz-adv-x="587" 
d="M427 767h-78l-71 121h94zM25 0l126 711h457l-14 -84h-366l-39 -218h316l-14 -81h-316l-43 -244h371l-15 -84h-463z" />
    <glyph glyph-name="Eacute" unicode="&#xc9;" horiz-adv-x="587" 
d="M344 766l98 121h98l-112 -121h-84zM25 0l126 711h457l-14 -84h-366l-39 -218h316l-14 -81h-316l-43 -244h371l-15 -84h-463z" />
    <glyph glyph-name="Ecircumflex" unicode="&#xca;" horiz-adv-x="587" 
d="M545 766h-88l-56 68l-77 -68h-92l127 121h97zM25 0l126 711h457l-14 -84h-366l-39 -218h316l-14 -81h-316l-43 -244h371l-15 -84h-463z" />
    <glyph glyph-name="Edieresis" unicode="&#xcb;" horiz-adv-x="587" 
d="M255 766l23 129h91l-23 -129h-91zM429 766l23 129h91l-24 -129h-90zM25 0l126 711h457l-14 -84h-366l-39 -218h316l-14 -81h-316l-43 -244h371l-15 -84h-463z" />
    <glyph glyph-name="Igrave" unicode="&#xcc;" horiz-adv-x="270" 
d="M248 767h-78l-71 121h94zM25 0l126 711h92l-126 -711h-92z" />
    <glyph glyph-name="Iacute" unicode="&#xcd;" horiz-adv-x="270" 
d="M165 766l98 121h98l-112 -121h-84zM25 0l126 711h92l-126 -711h-92z" />
    <glyph glyph-name="Icircumflex" unicode="&#xce;" horiz-adv-x="270" 
d="M366 766h-88l-56 68l-77 -68h-92l127 121h97zM25 0l126 711h92l-126 -711h-92z" />
    <glyph glyph-name="Idieresis" unicode="&#xcf;" horiz-adv-x="270" 
d="M76 766l23 129h91l-23 -129h-91zM250 766l23 129h91l-24 -129h-90zM25 0l126 711h92l-126 -711h-92z" />
    <glyph glyph-name="Eth" unicode="&#xd0;" horiz-adv-x="706" 
d="M25 -3l57 326h-70l11 64h71l58 327h218q136 0 203.5 -40t78.5 -121.5t-11 -203.5q-13 -77 -30 -129.5t-46 -97.5t-70.5 -71t-102 -40t-143.5 -14h-224zM175 323l-43 -243h142q127 -1 187 62t87 218q27 152 -9.5 211t-161.5 59h-148l-43 -243h126l-11 -64h-126z" />
    <glyph glyph-name="Ntilde" unicode="&#xd1;" horiz-adv-x="741" 
d="M616 877q-9 -51 -31.5 -81.5t-73.5 -30.5q-24 0 -40.5 7t-23 16t-17 16t-25.5 7q-24 0 -36.5 -16.5t-16.5 -32.5l-61 7q4 24 10 41t17.5 34.5t31 27t46.5 9.5q32 0 49 -11.5t28 -23t29 -11.5q25 0 38.5 16.5t15.5 32.5zM215 597l-103 -597h-87l129 711h99l274 -593
l99 593h88l-126 -711h-96z" />
    <glyph glyph-name="Ograve" unicode="&#xd2;" horiz-adv-x="717" 
d="M467 770h-78l-71 121h94zM655 349q-34 -188 -117 -277.5t-240 -89.5q-162 0 -216.5 93.5t-19.5 285.5q33 188 116 278t240 90q162 0 216.5 -94t20.5 -286zM154 354q-28 -151 5.5 -219.5t143.5 -68.5q111 0 172 69.5t88 219.5q28 151 -6 220.5t-143 69.5
q-110 0 -171.5 -70.5t-88.5 -220.5z" />
    <glyph glyph-name="Oacute" unicode="&#xd3;" horiz-adv-x="717" 
d="M384 769l98 121h98l-112 -121h-84zM655 349q-34 -188 -117 -277.5t-240 -89.5q-162 0 -216.5 93.5t-19.5 285.5q33 188 116 278t240 90q162 0 216.5 -94t20.5 -286zM154 354q-28 -151 5.5 -219.5t143.5 -68.5q111 0 172 69.5t88 219.5q28 151 -6 220.5t-143 69.5
q-110 0 -171.5 -70.5t-88.5 -220.5z" />
    <glyph glyph-name="Ocircumflex" unicode="&#xd4;" horiz-adv-x="717" 
d="M585 769h-88l-56 68l-77 -68h-92l127 121h97zM655 349q-34 -188 -117 -277.5t-240 -89.5q-162 0 -216.5 93.5t-19.5 285.5q33 188 116 278t240 90q162 0 216.5 -94t20.5 -286zM154 354q-28 -151 5.5 -219.5t143.5 -68.5q111 0 172 69.5t88 219.5q28 151 -6 220.5
t-143 69.5q-110 0 -171.5 -70.5t-88.5 -220.5z" />
    <glyph glyph-name="Otilde" unicode="&#xd5;" horiz-adv-x="717" 
d="M600 880q-9 -51 -31.5 -81.5t-73.5 -30.5q-24 0 -40.5 7t-23 16t-17 16t-25.5 7q-24 0 -36.5 -16.5t-16.5 -32.5l-61 7q4 24 10 41t17.5 34.5t31 27t46.5 9.5q32 0 49 -11.5t28 -23t29 -11.5q25 0 38.5 16.5t15.5 32.5zM655 349q-34 -188 -117 -277.5t-240 -89.5
q-162 0 -216.5 93.5t-19.5 285.5q33 188 116 278t240 90q162 0 216.5 -94t20.5 -286zM154 354q-28 -151 5.5 -219.5t143.5 -68.5q111 0 172 69.5t88 219.5q28 151 -6 220.5t-143 69.5q-110 0 -171.5 -70.5t-88.5 -220.5z" />
    <glyph glyph-name="Odieresis" unicode="&#xd6;" horiz-adv-x="717" 
d="M295 769l23 129h91l-23 -129h-91zM469 769l23 129h91l-24 -129h-90zM655 349q-34 -188 -117 -277.5t-240 -89.5q-162 0 -216.5 93.5t-19.5 285.5q33 188 116 278t240 90q162 0 216.5 -94t20.5 -286zM154 354q-28 -151 5.5 -219.5t143.5 -68.5q111 0 172 69.5t88 219.5
q28 151 -6 220.5t-143 69.5q-110 0 -171.5 -70.5t-88.5 -220.5z" />
    <glyph glyph-name="multiply" unicode="&#xd7;" horiz-adv-x="530" 
d="M355 119l-106 133l-152 -133l-47 52l155 136l-106 134l59 50l106 -133l152 134l47 -51l-156 -137l108 -134z" />
    <glyph glyph-name="Oslash" unicode="&#xd8;" horiz-adv-x="717" 
d="M-18 -9l89 104q-41 92 -9 266q33 188 116 278t240 90q102 0 164 -40l27 32h117l-85 -99q46 -92 14 -273q-34 -188 -117 -277.5t-240 -89.5q-108 0 -169 43l-29 -34h-118zM154 354q-20 -112 -9 -173l375 437q-38 27 -106 27q-110 0 -171.5 -70.5t-88.5 -220.5zM563 355
q22 118 6 183l-379 -442q39 -30 113 -30q111 0 172 69.5t88 219.5z" />
    <glyph glyph-name="Ugrave" unicode="&#xd9;" horiz-adv-x="684" 
d="M445 767h-78l-71 121h94zM610 342q-13 -75 -28 -126.5t-39.5 -99t-59 -75t-85.5 -43.5t-119 -16q-70 0 -117 16.5t-72.5 45.5t-34.5 77t-6 101t16 127l64 362h92l-64 -362q-30 -145 -3.5 -212.5t130.5 -67.5q106 0 156.5 66t77.5 218l64 358h93z" />
    <glyph glyph-name="Uacute" unicode="&#xda;" horiz-adv-x="684" 
d="M362 766l98 121h98l-112 -121h-84zM610 342q-13 -75 -28 -126.5t-39.5 -99t-59 -75t-85.5 -43.5t-119 -16q-70 0 -117 16.5t-72.5 45.5t-34.5 77t-6 101t16 127l64 362h92l-64 -362q-30 -145 -3.5 -212.5t130.5 -67.5q106 0 156.5 66t77.5 218l64 358h93z" />
    <glyph glyph-name="Ucircumflex" unicode="&#xdb;" horiz-adv-x="684" 
d="M563 766h-88l-56 68l-77 -68h-92l127 121h97zM610 342q-13 -75 -28 -126.5t-39.5 -99t-59 -75t-85.5 -43.5t-119 -16q-70 0 -117 16.5t-72.5 45.5t-34.5 77t-6 101t16 127l64 362h92l-64 -362q-30 -145 -3.5 -212.5t130.5 -67.5q106 0 156.5 66t77.5 218l64 358h93z" />
    <glyph glyph-name="Udieresis" unicode="&#xdc;" horiz-adv-x="684" 
d="M273 766l23 129h91l-23 -129h-91zM447 766l23 129h91l-24 -129h-90zM610 342q-13 -75 -28 -126.5t-39.5 -99t-59 -75t-85.5 -43.5t-119 -16q-70 0 -117 16.5t-72.5 45.5t-34.5 77t-6 101t16 127l64 362h92l-64 -362q-30 -145 -3.5 -212.5t130.5 -67.5q106 0 156.5 66
t77.5 218l64 358h93z" />
    <glyph glyph-name="Yacute" unicode="&#xdd;" horiz-adv-x="572" 
d="M305 766l98 121h98l-112 -121h-84zM174 0l40 229l-164 482h102l120 -405l254 405h111l-332 -482l-40 -229h-91z" />
    <glyph glyph-name="Thorn" unicode="&#xde;" horiz-adv-x="640" 
d="M25 0l126 711h94l-22 -121h157q146 0 201.5 -51.5t30.5 -187.5q-23 -132 -92 -178.5t-218 -46.5h-161l-22 -126h-94zM209 509l-53 -302l159 -1q43 0 72.5 5.5t59 21t48.5 48t28 82.5q7 28 4.5 49.5t-6 37t-15.5 26t-23.5 17t-30.5 10.5t-36.5 5t-41.5 1h-165z" />
    <glyph glyph-name="germandbls" unicode="&#xdf;" horiz-adv-x="570" 
d="M26 0l96 545q9 51 23.5 86.5t42.5 66.5t74.5 47t112.5 16q222 -1 187 -204q-8 -43 -28 -76t-43 -49t-45 -24.5t-36 -10.5t-15 -1l8 -1q8 -1 21.5 -4.5t29 -11.5t30 -21t25 -34t14 -51.5t-3.5 -71.5q-19 -113 -91.5 -157t-251.5 -44l11 75q123 0 177 31.5t68 111.5
q8 43 -2.5 70.5t-40.5 40t-59.5 17t-80.5 5.5l13 80q82 0 139 29.5t68 93.5q12 66 -10.5 98.5t-91.5 32.5q-131 0 -154 -138l-97 -547h-90z" />
    <glyph glyph-name="agrave" unicode="&#xe0;" horiz-adv-x="600" 
d="M394 631h-72l-65 144h86zM401 1v59q-84 -73 -198 -73q-196 0 -166 173q16 94 79 132.5t171 38.5q95 0 151 -10q10 55 7.5 89t-26.5 49t-80 15q-80 0 -116.5 -31t-43.5 -73l-82 1q32 176 240 176q109 0 155.5 -36.5t42.5 -100t-17 -147.5l-22 -124l-14 -138h-81zM223 63
q63 0 113.5 26.5t71.5 60.5l18 103q-48 4 -115 4q-83 0 -127.5 -21.5t-53.5 -74.5q-18 -98 93 -98z" />
    <glyph glyph-name="aacute" unicode="&#xe1;" horiz-adv-x="600" 
d="M319 631l102 144h91l-117 -144h-76zM401 1v59q-84 -73 -198 -73q-196 0 -166 173q16 94 79 132.5t171 38.5q95 0 151 -10q10 55 7.5 89t-26.5 49t-80 15q-80 0 -116.5 -31t-43.5 -73l-82 1q32 176 240 176q109 0 155.5 -36.5t42.5 -100t-17 -147.5l-22 -124l-14 -138h-81
zM223 63q63 0 113.5 26.5t71.5 60.5l18 103q-48 4 -115 4q-83 0 -127.5 -21.5t-53.5 -74.5q-18 -98 93 -98z" />
    <glyph glyph-name="acircumflex" unicode="&#xe2;" horiz-adv-x="600" 
d="M517 630h-84l-55 83l-83 -83h-89l136 143h87zM401 1v59q-84 -73 -198 -73q-196 0 -166 173q16 94 79 132.5t171 38.5q95 0 151 -10q10 55 7.5 89t-26.5 49t-80 15q-80 0 -116.5 -31t-43.5 -73l-82 1q32 176 240 176q109 0 155.5 -36.5t42.5 -100t-17 -147.5l-22 -124
l-14 -138h-81zM223 63q63 0 113.5 26.5t71.5 60.5l18 103q-48 4 -115 4q-83 0 -127.5 -21.5t-53.5 -74.5q-18 -98 93 -98z" />
    <glyph glyph-name="atilde" unicode="&#xe3;" horiz-adv-x="600" 
d="M536 743q-9 -51 -31 -81.5t-72 -30.5q-30 0 -48.5 12t-31.5 24t-29 12q-23 0 -36.5 -16.5t-16.5 -33.5l-60 7q9 51 31.5 81.5t72.5 30.5q30 0 48.5 -12t31 -24t28.5 -12q24 0 37 17t17 33zM401 1v59q-84 -73 -198 -73q-196 0 -166 173q16 94 79 132.5t171 38.5
q95 0 151 -10q10 55 7.5 89t-26.5 49t-80 15q-80 0 -116.5 -31t-43.5 -73l-82 1q32 176 240 176q109 0 155.5 -36.5t42.5 -100t-17 -147.5l-22 -124l-14 -138h-81zM223 63q63 0 113.5 26.5t71.5 60.5l18 103q-48 4 -115 4q-83 0 -127.5 -21.5t-53.5 -74.5q-18 -98 93 -98z
" />
    <glyph glyph-name="adieresis" unicode="&#xe4;" horiz-adv-x="600" 
d="M237 630l22 129h85l-23 -129h-84zM405 630l23 129h84l-22 -129h-85zM401 1v59q-84 -73 -198 -73q-196 0 -166 173q16 94 79 132.5t171 38.5q95 0 151 -10q10 55 7.5 89t-26.5 49t-80 15q-80 0 -116.5 -31t-43.5 -73l-82 1q32 176 240 176q109 0 155.5 -36.5t42.5 -100
t-17 -147.5l-22 -124l-14 -138h-81zM223 63q63 0 113.5 26.5t71.5 60.5l18 103q-48 4 -115 4q-83 0 -127.5 -21.5t-53.5 -74.5q-18 -98 93 -98z" />
    <glyph glyph-name="aring" unicode="&#xe5;" horiz-adv-x="600" 
d="M476 705q-7 -41 -36 -64t-73 -23q-48 0 -71.5 27.5t-15.5 72.5q7 41 36 64t73 23q48 0 71.5 -27t15.5 -73zM339 707q-6 -34 29 -34q19 0 32 11.5t17 30.5q5 35 -29 35q-18 0 -31.5 -12t-17.5 -31zM401 1v59q-84 -73 -198 -73q-196 0 -166 173q16 94 79 132.5t171 38.5
q95 0 151 -10q10 55 7.5 89t-26.5 49t-80 15q-80 0 -116.5 -31t-43.5 -73l-82 1q32 176 240 176q109 0 155.5 -36.5t42.5 -100t-17 -147.5l-22 -124l-14 -138h-81zM223 63q63 0 113.5 26.5t71.5 60.5l18 103q-48 4 -115 4q-83 0 -127.5 -21.5t-53.5 -74.5q-18 -98 93 -98z
" />
    <glyph glyph-name="ae" unicode="&#xe6;" horiz-adv-x="947" 
d="M871 162q-6 -28 -20 -55t-42 -56t-79 -46.5t-118 -17.5q-145 0 -189 92q-87 -91 -220 -91q-196 0 -166 172q8 49 29.5 82t55 50.5t72.5 25t92 7.5h139q6 28 20 63q1 47 -23 66.5t-83 19.5q-80 0 -116.5 -31t-43.5 -73l-82 1q32 176 240 176q133 0 166 -68q70 70 196 70
q131 0 175 -71.5t16 -232.5h-390q-14 -96 12 -138.5t103 -42.5q78 0 118 31t47 67h91zM696 476q-72 0 -115 -38.5t-65 -117.5h293q6 84 -21 120t-92 36zM405 154q-3 43 5 98h-101q-85 0 -127.5 -19.5t-51.5 -72.5q-16 -97 93 -97q65 0 114.5 28t67.5 63z" />
    <glyph glyph-name="ccedilla" unicode="&#xe7;" horiz-adv-x="580" 
d="M331 -144q-7 -47 -40 -66t-104 -19q-21 0 -39 2.5t-26 4.5l-7 2l6 50q0 -3 42 -3q39 0 59 11t25 38q4 22 -15.5 30t-59.5 8h-9l48 76q-109 10 -144.5 82t-12.5 202q25 136 90 205.5t193 69.5q231 0 198 -209h-87q21 135 -113 135q-82 0 -126.5 -52t-63.5 -158t5 -154
t103 -48q143 0 165 116h89q-36 -171 -212 -189l-31 -49q35 -5 54.5 -26t12.5 -59z" />
    <glyph glyph-name="egrave" unicode="&#xe8;" horiz-adv-x="587" 
d="M392 631h-72l-65 144h86zM512 163q-6 -28 -20 -54.5t-42 -56t-79 -47.5t-119 -18q-133 0 -178 73t-20 214q25 137 91 206t195 69q130 0 174 -71.5t16 -232.5h-389q-14 -96 12 -138.5t103 -42.5t117 31.5t48 67.5h91zM336 476q-72 0 -114.5 -38.5t-64.5 -117.5h292
q6 84 -21 120t-92 36z" />
    <glyph glyph-name="eacute" unicode="&#xe9;" horiz-adv-x="587" 
d="M317 631l102 144h91l-117 -144h-76zM512 163q-6 -28 -20 -54.5t-42 -56t-79 -47.5t-119 -18q-133 0 -178 73t-20 214q25 137 91 206t195 69q130 0 174 -71.5t16 -232.5h-389q-14 -96 12 -138.5t103 -42.5t117 31.5t48 67.5h91zM336 476q-72 0 -114.5 -38.5t-64.5 -117.5
h292q6 84 -21 120t-92 36z" />
    <glyph glyph-name="ecircumflex" unicode="&#xea;" horiz-adv-x="587" 
d="M515 630h-84l-55 83l-83 -83h-89l136 143h87zM512 163q-6 -28 -20 -54.5t-42 -56t-79 -47.5t-119 -18q-133 0 -178 73t-20 214q25 137 91 206t195 69q130 0 174 -71.5t16 -232.5h-389q-14 -96 12 -138.5t103 -42.5t117 31.5t48 67.5h91zM336 476q-72 0 -114.5 -38.5
t-64.5 -117.5h292q6 84 -21 120t-92 36z" />
    <glyph glyph-name="edieresis" unicode="&#xeb;" horiz-adv-x="587" 
d="M235 630l22 129h85l-23 -129h-84zM403 630l23 129h84l-22 -129h-85zM512 163q-6 -28 -20 -54.5t-42 -56t-79 -47.5t-119 -18q-133 0 -178 73t-20 214q25 137 91 206t195 69q130 0 174 -71.5t16 -232.5h-389q-14 -96 12 -138.5t103 -42.5t117 31.5t48 67.5h91zM336 476
q-72 0 -114.5 -38.5t-64.5 -117.5h292q6 84 -21 120t-92 36z" />
    <glyph glyph-name="igrave" unicode="&#xec;" horiz-adv-x="255" 
d="M221 631h-72l-65 144h86zM34 0l95 538h90l-95 -538h-90z" />
    <glyph glyph-name="iacute" unicode="&#xed;" horiz-adv-x="255" 
d="M146 631l102 144h91l-117 -144h-76zM34 0l95 538h90l-95 -538h-90z" />
    <glyph glyph-name="icircumflex" unicode="&#xee;" horiz-adv-x="255" 
d="M344 630h-84l-55 83l-83 -83h-89l136 143h87zM34 0l95 538h90l-95 -538h-90z" />
    <glyph glyph-name="idieresis" unicode="&#xef;" horiz-adv-x="255" 
d="M64 630l22 129h85l-23 -129h-84zM232 630l23 129h84l-22 -129h-85zM34 0l95 538h90l-95 -538h-90z" />
    <glyph glyph-name="eth" unicode="&#xf0;" horiz-adv-x="602" 
d="M478 657q98 -196 62 -398q-13 -68 -32.5 -116t-52.5 -84.5t-83 -54t-118 -17.5q-137 0 -180.5 72t-18.5 215q23 134 88 202t198 68q54 0 97 -31q-13 51 -39 107l-98 -46l-30 55l99 46q-15 24 -30.5 46t-23.5 31l-8 10l106 -2q14 -18 34 -49l85 40l34 -52zM450 271
q10 55 8 104q-9 40 -38.5 70t-80.5 30q-86 0 -130.5 -52t-63.5 -162q-18 -105 6.5 -151.5t105.5 -46.5q87 0 130.5 50t62.5 158z" />
    <glyph glyph-name="ntilde" unicode="&#xf1;" horiz-adv-x="613" 
d="M551 743q-9 -51 -31 -81.5t-72 -30.5q-30 0 -48.5 12t-31.5 24t-29 12q-23 0 -36.5 -16.5t-16.5 -33.5l-60 7q9 51 31.5 81.5t72.5 30.5q30 0 48.5 -12t31 -24t28.5 -12q24 0 37 17t17 33zM39 0l70 397l15 141h77l-3 -82q74 90 209 90q95 0 129 -55.5t12 -182.5l-55 -308
h-89l56 318q13 75 -6 109.5t-85 34.5q-102 0 -177 -94l-63 -368h-90z" />
    <glyph glyph-name="ograve" unicode="&#xf2;" horiz-adv-x="595" 
d="M391 625h-72l-65 144h86zM540 261q-24 -138 -89 -206t-197 -68q-136 0 -180 72.5t-19 214.5q24 138 89.5 206.5t197.5 69.5q136 1 180 -72.5t18 -216.5zM145 265q-19 -107 5.5 -154.5t106.5 -47.5q86 0 130 49.5t63 157.5q19 107 -5 156t-106 49q-85 0 -129.5 -51
t-64.5 -159z" />
    <glyph glyph-name="oacute" unicode="&#xf3;" horiz-adv-x="595" 
d="M316 625l102 144h91l-117 -144h-76zM540 261q-24 -138 -89 -206t-197 -68q-136 0 -180 72.5t-19 214.5q24 138 89.5 206.5t197.5 69.5q136 1 180 -72.5t18 -216.5zM145 265q-19 -107 5.5 -154.5t106.5 -47.5q86 0 130 49.5t63 157.5q19 107 -5 156t-106 49
q-85 0 -129.5 -51t-64.5 -159z" />
    <glyph glyph-name="ocircumflex" unicode="&#xf4;" horiz-adv-x="595" 
d="M514 624h-84l-55 83l-83 -83h-89l136 143h87zM540 261q-24 -138 -89 -206t-197 -68q-136 0 -180 72.5t-19 214.5q24 138 89.5 206.5t197.5 69.5q136 1 180 -72.5t18 -216.5zM145 265q-19 -107 5.5 -154.5t106.5 -47.5q86 0 130 49.5t63 157.5q19 107 -5 156t-106 49
q-85 0 -129.5 -51t-64.5 -159z" />
    <glyph glyph-name="otilde" unicode="&#xf5;" horiz-adv-x="595" 
d="M533 737q-9 -51 -31 -81.5t-72 -30.5q-30 0 -48.5 12t-31.5 24t-29 12q-23 0 -36.5 -16.5t-16.5 -33.5l-60 7q9 51 31.5 81.5t72.5 30.5q30 0 48.5 -12t31 -24t28.5 -12q24 0 37 17t17 33zM540 261q-24 -138 -89 -206t-197 -68q-136 0 -180 72.5t-19 214.5
q24 138 89.5 206.5t197.5 69.5q136 1 180 -72.5t18 -216.5zM145 265q-19 -107 5.5 -154.5t106.5 -47.5q86 0 130 49.5t63 157.5q19 107 -5 156t-106 49q-85 0 -129.5 -51t-64.5 -159z" />
    <glyph glyph-name="odieresis" unicode="&#xf6;" horiz-adv-x="595" 
d="M234 624l22 129h85l-23 -129h-84zM402 624l23 129h84l-22 -129h-85zM540 261q-24 -138 -89 -206t-197 -68q-136 0 -180 72.5t-19 214.5q24 138 89.5 206.5t197.5 69.5q136 1 180 -72.5t18 -216.5zM145 265q-19 -107 5.5 -154.5t106.5 -47.5q86 0 130 49.5t63 157.5
q19 107 -5 156t-106 49q-85 0 -129.5 -51t-64.5 -159z" />
    <glyph glyph-name="divide" unicode="&#xf7;" horiz-adv-x="493" 
d="M214 413l20 115h84l-21 -115h-83zM27 275l14 80h409l-15 -80h-408zM159 102l20 115h84l-20 -115h-84z" />
    <glyph glyph-name="oslash" unicode="&#xf8;" horiz-adv-x="595" 
d="M-32 -29l96 106q-33 68 -9 197q24 138 89.5 206.5t197.5 69.5q81 0 128 -26l40 44h113l-94 -104q35 -70 11 -203q-24 -138 -89 -206t-197 -68q-82 0 -133 27l-39 -43h-114zM145 265q-12 -66 -8 -107l275 302q-28 15 -73 15q-85 0 -129.5 -51t-64.5 -159zM450 270
q13 72 7 115l-277 -306q28 -16 77 -16q86 0 130 49.5t63 157.5z" />
    <glyph glyph-name="ugrave" unicode="&#xf9;" horiz-adv-x="612" 
d="M400 631h-72l-65 144h86zM415 0l3 92q-10 -14 -25 -28.5t-40.5 -32t-64 -28.5t-82.5 -11q-96 0 -130 55t-12 180l55 310h90l-57 -319q-13 -74 6.5 -108t83.5 -34t110.5 34.5t72.5 74.5l62 353h90l-69 -389l-16 -149h-77z" />
    <glyph glyph-name="uacute" unicode="&#xfa;" horiz-adv-x="612" 
d="M325 631l102 144h91l-117 -144h-76zM415 0l3 92q-10 -14 -25 -28.5t-40.5 -32t-64 -28.5t-82.5 -11q-96 0 -130 55t-12 180l55 310h90l-57 -319q-13 -74 6.5 -108t83.5 -34t110.5 34.5t72.5 74.5l62 353h90l-69 -389l-16 -149h-77z" />
    <glyph glyph-name="ucircumflex" unicode="&#xfb;" horiz-adv-x="612" 
d="M523 630h-84l-55 83l-83 -83h-89l136 143h87zM415 0l3 92q-10 -14 -25 -28.5t-40.5 -32t-64 -28.5t-82.5 -11q-96 0 -130 55t-12 180l55 310h90l-57 -319q-13 -74 6.5 -108t83.5 -34t110.5 34.5t72.5 74.5l62 353h90l-69 -389l-16 -149h-77z" />
    <glyph glyph-name="udieresis" unicode="&#xfc;" horiz-adv-x="612" 
d="M243 630l22 129h85l-23 -129h-84zM411 630l23 129h84l-22 -129h-85zM415 0l3 92q-10 -14 -25 -28.5t-40.5 -32t-64 -28.5t-82.5 -11q-96 0 -130 55t-12 180l55 310h90l-57 -319q-13 -74 6.5 -108t83.5 -34t110.5 34.5t72.5 74.5l62 353h90l-69 -389l-16 -149h-77z" />
    <glyph glyph-name="yacute" unicode="&#xfd;" horiz-adv-x="509" 
d="M269 631l102 144h91l-117 -144h-76zM67 -225l113 225h-33l-102 538h95l75 -470l238 470h97l-397 -763h-86z" />
    <glyph glyph-name="thorn" unicode="&#xfe;" horiz-adv-x="604" 
d="M-12 -240l175 993h90l-49 -276q74 71 182 71q110 0 149 -75.5t15 -212.5q-48 -270 -254 -270q-122 0 -166 72l-53 -302h-89zM360 467q-100 0 -173 -85l-41 -233q31 -77 136 -77q144 0 180 197q17 99 -7 148.5t-95 49.5z" />
    <glyph glyph-name="ydieresis" unicode="&#xff;" horiz-adv-x="509" 
d="M187 630l22 129h85l-23 -129h-84zM355 630l23 129h84l-22 -129h-85zM67 -225l113 225h-33l-102 538h95l75 -470l238 470h97l-397 -763h-86z" />
    <glyph glyph-name="Amacron" unicode="&#x100;" horiz-adv-x="650" 
d="M287 857h253l-13 -71h-253zM-60 0l397 711h100l146 -711h-99l-30 168h-324l-89 -168h-101zM175 252h264l-66 373z" />
    <glyph glyph-name="amacron" unicode="&#x101;" horiz-adv-x="600" 
d="M253 723h253l-12 -66h-253zM401 1v59q-84 -73 -198 -73q-196 0 -166 173q16 94 79 132.5t171 38.5q95 0 151 -10q10 55 7.5 89t-26.5 49t-80 15q-80 0 -116.5 -31t-43.5 -73l-82 1q32 176 240 176q109 0 155.5 -36.5t42.5 -100t-17 -147.5l-22 -124l-14 -138h-81zM223 63
q63 0 113.5 26.5t71.5 60.5l18 103q-48 4 -115 4q-83 0 -127.5 -21.5t-53.5 -74.5q-18 -98 93 -98z" />
    <glyph glyph-name="Abreve" unicode="&#x102;" horiz-adv-x="650" 
d="M563 874q-7 -42 -48 -77t-112 -35q-76 0 -108.5 35t-25.5 77h75q-3 -20 13.5 -36.5t44.5 -16.5q31 0 56.5 16.5t28.5 36.5h76zM-60 0l397 711h100l146 -711h-99l-30 168h-324l-89 -168h-101zM175 252h264l-66 373z" />
    <glyph glyph-name="abreve" unicode="&#x103;" horiz-adv-x="600" 
d="M533 752q-8 -45 -50.5 -84t-114.5 -39q-76 0 -107.5 39.5t-24.5 83.5h76q-4 -21 11.5 -42t45.5 -21q31 0 57.5 21t29.5 42h77zM401 1v59q-84 -73 -198 -73q-196 0 -166 173q16 94 79 132.5t171 38.5q95 0 151 -10q10 55 7.5 89t-26.5 49t-80 15q-80 0 -116.5 -31
t-43.5 -73l-82 1q32 176 240 176q109 0 155.5 -36.5t42.5 -100t-17 -147.5l-22 -124l-14 -138h-81zM223 63q63 0 113.5 26.5t71.5 60.5l18 103q-48 4 -115 4q-83 0 -127.5 -21.5t-53.5 -74.5q-18 -98 93 -98z" />
    <glyph glyph-name="Aogonek" unicode="&#x104;" horiz-adv-x="650" 
d="M381 -109q5 28 27.5 54t40.5 38t34 20l-29 165h-324l-89 -168h-101l397 711h100l146 -711h-13q-89 -49 -97 -99q-7 -35 27 -35q11 0 23.5 4t20.5 8l7 3l-7 -53q-25 -23 -81 -23q-49 0 -69 24.5t-13 61.5zM175 252h264l-66 373z" />
    <glyph glyph-name="aogonek" unicode="&#x105;" horiz-adv-x="600" 
d="M291 -109q6 32 33.5 61t49 41t27.5 14v53q-84 -73 -198 -73q-196 0 -166 173q16 94 79 132.5t171 38.5q95 0 151 -10q10 55 7.5 89t-26.5 49t-80 15q-80 0 -116.5 -31t-43.5 -73l-82 1q32 176 240 176q109 0 155.5 -36.5t42.5 -100t-17 -147.5l-22 -124l-14 -138h1
q-10 -5 -25.5 -14t-43 -35.5t-31.5 -50.5q-7 -35 27 -35q11 0 23.5 4t20.5 8l7 3l-7 -53q-25 -23 -81 -23q-49 0 -69 24.5t-13 61.5zM223 63q63 0 113.5 26.5t71.5 60.5l18 103q-48 4 -115 4q-83 0 -127.5 -21.5t-53.5 -74.5q-18 -98 93 -98z" />
    <glyph glyph-name="Cacute" unicode="&#x106;" horiz-adv-x="682" 
d="M380 769l98 121h98l-112 -121h-84zM602 241q-26 -134 -101 -196.5t-206 -62.5q-160 0 -214 93.5t-19 285.5q33 188 115.5 278t237.5 90q272 0 228 -266l-89 1q13 93 -22.5 137t-121.5 44q-107 0 -168 -70.5t-88 -220.5q-28 -151 5 -219.5t141 -68.5q173 0 213 176z" />
    <glyph glyph-name="cacute" unicode="&#x107;" horiz-adv-x="580" 
d="M308 631l102 144h91l-117 -144h-76zM507 179q-40 -191 -257 -191q-133 0 -177 72.5t-19 213.5q25 136 90 205.5t193 69.5q231 0 198 -209h-87q21 135 -113 135q-82 0 -126.5 -52t-63.5 -158t5 -154t103 -48q143 0 165 116h89z" />
    <glyph glyph-name="Ccircumflex" unicode="&#x108;" horiz-adv-x="682" 
d="M581 769h-88l-56 68l-77 -68h-92l127 121h97zM602 241q-26 -134 -101 -196.5t-206 -62.5q-160 0 -214 93.5t-19 285.5q33 188 115.5 278t237.5 90q272 0 228 -266l-89 1q13 93 -22.5 137t-121.5 44q-107 0 -168 -70.5t-88 -220.5q-28 -151 5 -219.5t141 -68.5
q173 0 213 176z" />
    <glyph glyph-name="ccircumflex" unicode="&#x109;" horiz-adv-x="580" 
d="M506 630h-84l-55 83l-83 -83h-89l136 143h87zM507 179q-40 -191 -257 -191q-133 0 -177 72.5t-19 213.5q25 136 90 205.5t193 69.5q231 0 198 -209h-87q21 135 -113 135q-82 0 -126.5 -52t-63.5 -158t5 -154t103 -48q143 0 165 116h89z" />
    <glyph glyph-name="Cdotaccent" unicode="&#x10a;" horiz-adv-x="682" 
d="M378 769l23 129h91l-23 -129h-91zM602 241q-26 -134 -101 -196.5t-206 -62.5q-160 0 -214 93.5t-19 285.5q33 188 115.5 278t237.5 90q272 0 228 -266l-89 1q13 93 -22.5 137t-121.5 44q-107 0 -168 -70.5t-88 -220.5q-28 -151 5 -219.5t141 -68.5q173 0 213 176z" />
    <glyph glyph-name="cdotaccent" unicode="&#x10b;" horiz-adv-x="580" 
d="M308 637l21 122h91l-21 -122h-91zM507 179q-40 -191 -257 -191q-133 0 -177 72.5t-19 213.5q25 136 90 205.5t193 69.5q231 0 198 -209h-87q21 135 -113 135q-82 0 -126.5 -52t-63.5 -158t5 -154t103 -48q143 0 165 116h89z" />
    <glyph glyph-name="Ccaron" unicode="&#x10c;" horiz-adv-x="682" 
d="M604 890l-131 -121h-97l-85 121h85l55 -69l79 69h94zM602 241q-26 -134 -101 -196.5t-206 -62.5q-160 0 -214 93.5t-19 285.5q33 188 115.5 278t237.5 90q272 0 228 -266l-89 1q13 93 -22.5 137t-121.5 44q-107 0 -168 -70.5t-88 -220.5q-28 -151 5 -219.5t141 -68.5
q173 0 213 176z" />
    <glyph glyph-name="ccaron" unicode="&#x10d;" horiz-adv-x="580" 
d="M533 773l-138 -143h-87l-84 143h81l55 -81l83 81h90zM507 179q-40 -191 -257 -191q-133 0 -177 72.5t-19 213.5q25 136 90 205.5t193 69.5q231 0 198 -209h-87q21 135 -113 135q-82 0 -126.5 -52t-63.5 -158t5 -154t103 -48q143 0 165 116h89z" />
    <glyph glyph-name="Dcaron" unicode="&#x10e;" horiz-adv-x="706" 
d="M581 887l-131 -121h-97l-85 121h85l55 -69l79 69h94zM25 -3l127 717h218q136 0 203.5 -40t78.5 -121.5t-11 -203.5q-13 -77 -30 -129.5t-46 -97.5t-70.5 -71t-102 -40t-143.5 -14h-224zM229 630l-97 -550h142q127 -1 187 62t87 218q27 152 -9.5 211t-161.5 59h-148z" />
    <glyph glyph-name="dcaron" unicode="&#x10f;" horiz-adv-x="608" 
d="M611 606l77 154h78l-99 -154h-56zM412 0l1 72q-64 -82 -191 -82q-218 0 -168 282q49 276 251 276q113 0 167 -79l50 284h90l-108 -609l-15 -144h-77zM246 72q105 0 172 82l41 237q-41 76 -134 76q-147 0 -183 -203q-17 -97 7.5 -144.5t96.5 -47.5z" />
    <glyph glyph-name="Dcroat" unicode="&#x110;" horiz-adv-x="706" 
d="M82 323h-70l11 64h71l58 327h218q136 0 203.5 -40t78.5 -121.5t-11 -203.5q-13 -77 -30 -129.5t-46 -97.5t-70.5 -71t-102 -40t-143.5 -14h-224zM175 323l-43 -243h142q127 -1 187 62t87 218q27 152 -9.5 211t-161.5 59h-148l-43 -243h126l-11 -64h-126z" />
    <glyph glyph-name="dcroat" unicode="&#x111;" horiz-adv-x="608" 
d="M582 586l-78 -442l-15 -144h-77l1 72q-64 -82 -191 -82q-218 0 -168 282q49 276 251 276q113 0 167 -79l20 117h-130l11 64h131l18 103h90l-18 -103h68l-11 -64h-69zM246 72q105 0 172 82l41 237q-41 76 -134 76q-147 0 -183 -203q-17 -97 7.5 -144.5t96.5 -47.5z" />
    <glyph glyph-name="Emacron" unicode="&#x112;" horiz-adv-x="587" 
d="M277 857h253l-13 -71h-253zM25 0l126 711h457l-14 -84h-366l-39 -218h316l-14 -81h-316l-43 -244h371l-15 -84h-463z" />
    <glyph glyph-name="emacron" unicode="&#x113;" horiz-adv-x="587" 
d="M251 723h253l-12 -66h-253zM512 163q-6 -28 -20 -54.5t-42 -56t-79 -47.5t-119 -18q-133 0 -178 73t-20 214q25 137 91 206t195 69q130 0 174 -71.5t16 -232.5h-389q-14 -96 12 -138.5t103 -42.5t117 31.5t48 67.5h91zM336 476q-72 0 -114.5 -38.5t-64.5 -117.5h292
q6 84 -21 120t-92 36z" />
    <glyph glyph-name="Ebreve" unicode="&#x114;" horiz-adv-x="587" 
d="M553 874q-7 -42 -48 -77t-112 -35q-76 0 -108.5 35t-25.5 77h75q-3 -20 13.5 -36.5t44.5 -16.5q31 0 56.5 16.5t28.5 36.5h76zM25 0l126 711h457l-14 -84h-366l-39 -218h316l-14 -81h-316l-43 -244h371l-15 -84h-463z" />
    <glyph glyph-name="ebreve" unicode="&#x115;" horiz-adv-x="587" 
d="M531 752q-8 -45 -50.5 -84t-114.5 -39q-76 0 -107.5 39.5t-24.5 83.5h76q-4 -21 11.5 -42t45.5 -21q31 0 57.5 21t29.5 42h77zM512 163q-6 -28 -20 -54.5t-42 -56t-79 -47.5t-119 -18q-133 0 -178 73t-20 214q25 137 91 206t195 69q130 0 174 -71.5t16 -232.5h-389
q-14 -96 12 -138.5t103 -42.5t117 31.5t48 67.5h91zM336 476q-72 0 -114.5 -38.5t-64.5 -117.5h292q6 84 -21 120t-92 36z" />
    <glyph glyph-name="Edotaccent" unicode="&#x116;" horiz-adv-x="587" 
d="M342 766l23 129h91l-23 -129h-91zM25 0l126 711h457l-14 -84h-366l-39 -218h316l-14 -81h-316l-43 -244h371l-15 -84h-463z" />
    <glyph glyph-name="edotaccent" unicode="&#x117;" horiz-adv-x="587" 
d="M317 637l21 122h91l-21 -122h-91zM512 163q-6 -28 -20 -54.5t-42 -56t-79 -47.5t-119 -18q-133 0 -178 73t-20 214q25 137 91 206t195 69q130 0 174 -71.5t16 -232.5h-389q-14 -96 12 -138.5t103 -42.5t117 31.5t48 67.5h91zM336 476q-72 0 -114.5 -38.5t-64.5 -117.5
h292q6 84 -21 120t-92 36z" />
    <glyph glyph-name="Eogonek" unicode="&#x118;" horiz-adv-x="587" 
d="M297 -110q12 64 97 110h-369l126 711h457l-14 -84h-366l-39 -218h316l-14 -81h-316l-43 -244h371l-15 -84q-12 -6 -28 -16t-41.5 -35t-29.5 -49q-7 -35 27 -35q11 0 23.5 3.5t20.5 7.5l7 4l-7 -53q-25 -23 -81 -23q-49 0 -69 24.5t-13 61.5z" />
    <glyph glyph-name="eogonek" unicode="&#x119;" horiz-adv-x="587" 
d="M219 -85q7 38 44 72h-11q-133 0 -178 73t-20 214q25 137 91 206t195 69q130 0 174 -71.5t16 -232.5h-389q-14 -96 12 -138.5t103 -42.5t117 31.5t48 67.5h91q-9 -43 -38.5 -85t-86.5 -67q-69 -39 -76 -86q-7 -35 27 -35q11 0 23.5 4t20.5 8l7 3l-7 -53q-25 -23 -81 -23
q-49 0 -69 24.5t-13 61.5zM336 476q-72 0 -114.5 -38.5t-64.5 -117.5h292q6 84 -21 120t-92 36z" />
    <glyph glyph-name="Ecaron" unicode="&#x11a;" horiz-adv-x="587" 
d="M568 887l-131 -121h-97l-85 121h85l55 -69l79 69h94zM25 0l126 711h457l-14 -84h-366l-39 -218h316l-14 -81h-316l-43 -244h371l-15 -84h-463z" />
    <glyph glyph-name="ecaron" unicode="&#x11b;" horiz-adv-x="587" 
d="M542 773l-138 -143h-87l-84 143h81l55 -81l83 81h90zM512 163q-6 -28 -20 -54.5t-42 -56t-79 -47.5t-119 -18q-133 0 -178 73t-20 214q25 137 91 206t195 69q130 0 174 -71.5t16 -232.5h-389q-14 -96 12 -138.5t103 -42.5t117 31.5t48 67.5h91zM336 476
q-72 0 -114.5 -38.5t-64.5 -117.5h292q6 84 -21 120t-92 36z" />
    <glyph glyph-name="Gcircumflex" unicode="&#x11c;" horiz-adv-x="681" 
d="M581 769h-88l-56 68l-77 -68h-92l127 121h97zM568 84q-1 -4 -11.5 -14.5t-34 -25.5t-54 -29t-77.5 -23.5t-98 -9.5q-159 0 -212.5 93t-18.5 285q33 189 115 279t236 90q132 0 189 -66.5t37 -179.5l-86 2q11 72 -26.5 116t-118.5 44q-106 0 -166.5 -71t-87.5 -221
q-28 -151 5.5 -220.5t141.5 -69.5q52 0 98.5 14t69 29.5t23.5 24.5l24 139h-144l13 80h230z" />
    <glyph glyph-name="gcircumflex" unicode="&#x11d;" horiz-adv-x="650" 
d="M546 630h-84l-55 83l-83 -83h-89l136 143h87zM510 -5q-6 -32 -9.5 -48t-13 -45.5t-20.5 -45.5t-31.5 -37t-46 -32t-64 -19t-86.5 -8t-84.5 10.5t-56.5 27.5t-33 37.5t-16.5 40.5t-4 37t1.5 27l2 11h95q-1 -6 -2.5 -14.5t0.5 -28.5t10.5 -35.5t32 -28t59.5 -12.5
q50 0 84 13t52 40t26.5 53t15.5 67l9 50q-63 -65 -176 -65q-218 0 -168 282q47 276 251 276q51 0 91.5 -18.5t56.5 -35.5t25 -34l27 78h78l-34 -140zM278 72q103 0 168 78l43 242q-39 75 -134 75q-146 0 -181 -203q-18 -97 7 -144.5t97 -47.5z" />
    <glyph glyph-name="Gbreve" unicode="&#x11e;" horiz-adv-x="681" 
d="M589 877q-7 -42 -48 -77t-112 -35q-76 0 -108.5 35t-25.5 77h75q-3 -20 13.5 -36.5t44.5 -16.5q31 0 56.5 16.5t28.5 36.5h76zM568 84q-1 -4 -11.5 -14.5t-34 -25.5t-54 -29t-77.5 -23.5t-98 -9.5q-159 0 -212.5 93t-18.5 285q33 189 115 279t236 90q132 0 189 -66.5
t37 -179.5l-86 2q11 72 -26.5 116t-118.5 44q-106 0 -166.5 -71t-87.5 -221q-28 -151 5.5 -220.5t141.5 -69.5q52 0 98.5 14t69 29.5t23.5 24.5l24 139h-144l13 80h230z" />
    <glyph glyph-name="gbreve" unicode="&#x11f;" horiz-adv-x="650" 
d="M562 752q-8 -45 -50.5 -84t-114.5 -39q-76 0 -107.5 39.5t-24.5 83.5h76q-4 -21 11.5 -42t45.5 -21q31 0 57.5 21t29.5 42h77zM510 -5q-6 -32 -9.5 -48t-13 -45.5t-20.5 -45.5t-31.5 -37t-46 -32t-64 -19t-86.5 -8t-84.5 10.5t-56.5 27.5t-33 37.5t-16.5 40.5t-4 37
t1.5 27l2 11h95q-1 -6 -2.5 -14.5t0.5 -28.5t10.5 -35.5t32 -28t59.5 -12.5q50 0 84 13t52 40t26.5 53t15.5 67l9 50q-63 -65 -176 -65q-218 0 -168 282q47 276 251 276q51 0 91.5 -18.5t56.5 -35.5t25 -34l27 78h78l-34 -140zM278 72q103 0 168 78l43 242q-39 75 -134 75
q-146 0 -181 -203q-18 -97 7 -144.5t97 -47.5z" />
    <glyph glyph-name="Gdotaccent" unicode="&#x120;" horiz-adv-x="681" 
d="M378 769l23 129h91l-23 -129h-91zM568 84q-1 -4 -11.5 -14.5t-34 -25.5t-54 -29t-77.5 -23.5t-98 -9.5q-159 0 -212.5 93t-18.5 285q33 189 115 279t236 90q132 0 189 -66.5t37 -179.5l-86 2q11 72 -26.5 116t-118.5 44q-106 0 -166.5 -71t-87.5 -221
q-28 -151 5.5 -220.5t141.5 -69.5q52 0 98.5 14t69 29.5t23.5 24.5l24 139h-144l13 80h230z" />
    <glyph glyph-name="gdotaccent" unicode="&#x121;" horiz-adv-x="650" 
d="M348 637l21 122h91l-21 -122h-91zM510 -5q-6 -32 -9.5 -48t-13 -45.5t-20.5 -45.5t-31.5 -37t-46 -32t-64 -19t-86.5 -8t-84.5 10.5t-56.5 27.5t-33 37.5t-16.5 40.5t-4 37t1.5 27l2 11h95q-1 -6 -2.5 -14.5t0.5 -28.5t10.5 -35.5t32 -28t59.5 -12.5q50 0 84 13t52 40
t26.5 53t15.5 67l9 50q-63 -65 -176 -65q-218 0 -168 282q47 276 251 276q51 0 91.5 -18.5t56.5 -35.5t25 -34l27 78h78l-34 -140zM278 72q103 0 168 78l43 242q-39 75 -134 75q-146 0 -181 -203q-18 -97 7 -144.5t97 -47.5z" />
    <glyph glyph-name="Gcommaaccent" unicode="&#x122;" horiz-adv-x="681" 
d="M568 84q-1 -4 -11.5 -14.5t-34 -25.5t-54 -29t-77.5 -23.5t-98 -9.5q-159 0 -212.5 93t-18.5 285q33 189 115 279t236 90q132 0 189 -66.5t37 -179.5l-86 2q11 72 -26.5 116t-118.5 44q-106 0 -166.5 -71t-87.5 -221q-28 -151 5.5 -220.5t141.5 -69.5q52 0 98.5 14
t69 29.5t23.5 24.5l24 139h-144l13 80h230zM180 -256q26 44 50 105q9 23 17 46.5t11 35.5l4 12l82 -1q-15 -55 -41 -110q-13 -27 -27 -49t-22 -31l-7 -9z" />
    <glyph glyph-name="gcommaaccent" unicode="&#x123;" horiz-adv-x="650" 
d="M502 799q-30 -48 -58 -120q-12 -29 -20.5 -55t-11.5 -38l-2 -11l-82 2q10 51 42 120q16 32 32 57.5t24 35.5l9 10zM510 -5q-6 -32 -9.5 -48t-13 -45.5t-20.5 -45.5t-31.5 -37t-46 -32t-64 -19t-86.5 -8t-84.5 10.5t-56.5 27.5t-33 37.5t-16.5 40.5t-4 37t1.5 27l2 11h95
q-1 -6 -2.5 -14.5t0.5 -28.5t10.5 -35.5t32 -28t59.5 -12.5q50 0 84 13t52 40t26.5 53t15.5 67l9 50q-63 -65 -176 -65q-218 0 -168 282q47 276 251 276q51 0 91.5 -18.5t56.5 -35.5t25 -34l27 78h78l-34 -140zM278 72q103 0 168 78l43 242q-39 75 -134 75q-146 0 -181 -203
q-18 -97 7 -144.5t97 -47.5z" />
    <glyph glyph-name="Hcircumflex" unicode="&#x124;" horiz-adv-x="712" 
d="M584 766h-88l-56 68l-77 -68h-92l127 121h97zM25 0l126 711h92l-53 -300h350l53 300h92l-126 -711h-92l57 325h-350l-57 -325h-92z" />
    <glyph glyph-name="hcircumflex" unicode="&#x125;" horiz-adv-x="614" 
d="M381 784h-88l-56 68l-77 -68h-92l127 121h97zM39 0l133 753h90l-50 -284q75 77 196 77q95 0 129 -55t13 -180l-56 -311h-89l57 321q13 73 -6.5 107t-85.5 34q-103 0 -176 -94l-65 -368h-90z" />
    <glyph glyph-name="Hbar" unicode="&#x126;" horiz-adv-x="712" 
d="M651 522l-92 -522h-92l57 325h-350l-57 -325h-92l92 522h-58l12 71h59l21 118h92l-21 -118h350l21 118h92l-21 -118h57l-12 -71h-58zM540 411l19 111h-350l-19 -111h350z" />
    <glyph glyph-name="hbar" unicode="&#x127;" horiz-adv-x="614" 
d="M233 588l-21 -119q75 77 196 77q95 0 129 -55t13 -180l-56 -311h-89l57 321q13 73 -6.5 107t-85.5 34q-103 0 -176 -94l-65 -368h-90l104 588h-73l11 64h73l18 101h90l-18 -101h126l-11 -64h-126z" />
    <glyph glyph-name="Itilde" unicode="&#x128;" horiz-adv-x="270" 
d="M381 877q-9 -51 -31.5 -81.5t-73.5 -30.5q-24 0 -40.5 7t-23 16t-17 16t-25.5 7q-24 0 -36.5 -16.5t-16.5 -32.5l-61 7q4 24 10 41t17.5 34.5t31 27t46.5 9.5q32 0 49 -11.5t28 -23t29 -11.5q25 0 38.5 16.5t15.5 32.5zM25 0l126 711h92l-126 -711h-92z" />
    <glyph glyph-name="itilde" unicode="&#x129;" horiz-adv-x="255" 
d="M363 743q-9 -51 -31 -81.5t-72 -30.5q-30 0 -48.5 12t-31.5 24t-29 12q-23 0 -36.5 -16.5t-16.5 -33.5l-60 7q9 51 31.5 81.5t72.5 30.5q30 0 48.5 -12t31 -24t28.5 -12q24 0 37 17t17 33zM34 0l95 538h90l-95 -538h-90z" />
    <glyph glyph-name="Imacron" unicode="&#x12a;" horiz-adv-x="270" 
d="M98 857h253l-13 -71h-253zM25 0l126 711h92l-126 -711h-92z" />
    <glyph glyph-name="imacron" unicode="&#x12b;" horiz-adv-x="255" 
d="M80 723h253l-12 -66h-253zM34 0l95 538h90l-95 -538h-90z" />
    <glyph glyph-name="Ibreve" unicode="&#x12c;" horiz-adv-x="270" 
d="M374 874q-7 -42 -48 -77t-112 -35q-76 0 -108.5 35t-25.5 77h75q-3 -20 13.5 -36.5t44.5 -16.5q31 0 56.5 16.5t28.5 36.5h76zM25 0l126 711h92l-126 -711h-92z" />
    <glyph glyph-name="ibreve" unicode="&#x12d;" horiz-adv-x="255" 
d="M360 752q-8 -45 -50.5 -84t-114.5 -39q-76 0 -107.5 39.5t-24.5 83.5h76q-4 -21 11.5 -42t45.5 -21q31 0 57.5 21t29.5 42h77zM34 0l95 538h90l-95 -538h-90z" />
    <glyph glyph-name="Iogonek" unicode="&#x12e;" horiz-adv-x="270" 
d="M-85 -109q6 32 33.5 61t52.5 42l25 14l125 703h92l-126 -711h-13q-89 -49 -97 -99q-7 -35 27 -35q11 0 23.5 4t20.5 8l7 3l-7 -53q-25 -23 -81 -23q-49 0 -69 24.5t-13 61.5z" />
    <glyph glyph-name="iogonek" unicode="&#x12f;" horiz-adv-x="255" 
d="M146 637l21 122h91l-21 -122h-91zM-76 -109q6 32 33.5 61t52.5 42l25 14l94 530h90l-95 -538h-11q-89 -49 -97 -99q-7 -35 27 -35q11 0 23.5 4t19.5 8l8 3l-7 -53q-25 -23 -81 -23q-49 0 -69 24.5t-13 61.5z" />
    <glyph glyph-name="Idotaccent" unicode="&#x130;" horiz-adv-x="270" 
d="M163 766l23 129h91l-23 -129h-91zM25 0l126 711h92l-126 -711h-92z" />
    <glyph glyph-name="dotlessi" unicode="&#x131;" horiz-adv-x="255" 
d="M34 0l95 538h90l-95 -538h-90z" />
    <glyph glyph-name="IJ" unicode="&#x132;" horiz-adv-x="673" 
d="M25 0l126 711h92l-126 -711h-92zM587 276q-12 -68 -23.5 -108.5t-31.5 -76.5t-50.5 -54t-76 -27.5t-112.5 -9.5h-56l16 89h50q96 0 134.5 41t57.5 153l77 428h92z" />
    <glyph glyph-name="ij" unicode="&#x133;" horiz-adv-x="550" 
d="M146 637l21 122h91l-21 -122h-91zM434 636l21 122h91l-21 -122h-91zM34 0l95 538h90l-95 -538h-90zM422 48q-21 -115 -42 -153q-37 -69 -137 -82q-30 -4 -67 -4l9 85q35 0 59 7t38.5 16.5t24.5 33t14.5 43t11.5 59.5l85 484h90z" />
    <glyph glyph-name="Jcircumflex" unicode="&#x134;" horiz-adv-x="403" 
d="M514 766h-88l-56 68l-77 -68h-92l127 121h97zM317 276q-12 -68 -23.5 -108.5t-31.5 -76.5t-50.5 -54t-76 -27.5t-112.5 -9.5h-56l16 89h50q96 0 134.5 41t57.5 153l77 428h92z" />
    <glyph glyph-name="jcircumflex" unicode="&#x135;" horiz-adv-x="269" 
d="M351 630h-84l-55 83l-83 -83h-89l136 143h87zM141 49q-21 -115 -42 -153q-37 -69 -137 -82q-30 -4 -67 -4l9 85q35 0 59 7t38.5 16.5t24.5 33t14.5 43t11.5 59.5l85 484h90z" />
    <glyph glyph-name="Kcommaaccent" unicode="&#x136;" horiz-adv-x="654" 
d="M25 0l126 711h92l-73 -413l407 413h119l-298 -296l173 -415h-103l-142 343l-180 -179l-29 -164h-92zM145 -239q26 44 50 105q9 23 17 46.5t12 35.5l3 12l82 -1q-15 -55 -41 -110q-13 -27 -27 -49t-21 -31l-8 -9z" />
    <glyph glyph-name="kcommaaccent" unicode="&#x137;" horiz-adv-x="538" 
d="M35 0l133 753h87l-88 -495l275 280h105l-209 -206l136 -332h-99l-104 266l-124 -121l-25 -145h-87zM118 -239q26 44 50 105q9 23 17 46.5t11 35.5l4 12l82 -1q-15 -55 -41 -110q-13 -27 -27 -49t-22 -31l-7 -9z" />
    <glyph glyph-name="kgreenlandic" unicode="&#x138;" horiz-adv-x="538" 
d="M35 0l95 538h87l-50 -280l275 280h105l-209 -206l136 -332h-99l-104 266l-124 -121l-25 -145h-87z" />
    <glyph glyph-name="Lacute" unicode="&#x139;" horiz-adv-x="486" 
d="M171 766l98 121h98l-112 -121h-84zM25 0l126 711h92l-111 -625h319l-16 -86h-410z" />
    <glyph glyph-name="lacute" unicode="&#x13a;" horiz-adv-x="255" 
d="M178 812l98 121h98l-112 -121h-84zM35 0l133 753h90l-134 -753h-89z" />
    <glyph glyph-name="Lcommaaccent" unicode="&#x13b;" horiz-adv-x="486" 
d="M25 0l126 711h92l-111 -625h319l-16 -86h-410zM101 -239q26 44 50 105q9 23 17 46.5t12 35.5l3 12l82 -1q-15 -55 -41 -110q-13 -27 -27 -49t-21 -31l-8 -9z" />
    <glyph glyph-name="lcommaaccent" unicode="&#x13c;" horiz-adv-x="255" 
d="M35 0l133 753h90l-134 -753h-89zM-49 -239q26 44 50 105q9 23 17 46.5t12 35.5l3 12l82 -1q-15 -55 -41 -110q-13 -27 -27 -49t-21 -31l-8 -9z" />
    <glyph glyph-name="Lcaron" unicode="&#x13d;" horiz-adv-x="486" 
d="M315 612l80 151h82l-95 -151h-67zM25 0l126 711h92l-111 -625h319l-16 -86h-410z" />
    <glyph glyph-name="lcaron" unicode="&#x13e;" horiz-adv-x="255" 
d="M267 606l77 154h78l-99 -154h-56zM35 0l133 753h90l-134 -753h-89z" />
    <glyph glyph-name="Ldot" unicode="&#x13f;" horiz-adv-x="488" 
d="M25 0l126 711h92l-111 -625h319l-16 -86h-410zM268 302l22 129h93l-23 -129h-92z" />
    <glyph glyph-name="ldot" unicode="&#x140;" horiz-adv-x="255" 
d="M35 0l133 753h90l-134 -753h-89zM220 314l22 129h93l-22 -129h-93z" />
    <glyph glyph-name="Lslash" unicode="&#x141;" horiz-adv-x="486" 
d="M180 357l-48 -271h319l-16 -86h-410l54 305l-82 -43l-20 58l115 60l59 331h92l-49 -278l85 45l21 -58z" />
    <glyph glyph-name="lslash" unicode="&#x142;" horiz-adv-x="255" 
d="M35 0l56 316l-81 -42l-20 58l114 60l64 361h90l-55 -310l89 47l21 -58l-124 -65l-65 -367h-89z" />
    <glyph glyph-name="Nacute" unicode="&#x143;" horiz-adv-x="741" 
d="M400 766l98 121h98l-112 -121h-84zM215 597l-103 -597h-87l129 711h99l274 -593l99 593h88l-126 -711h-96z" />
    <glyph glyph-name="nacute" unicode="&#x144;" horiz-adv-x="613" 
d="M334 631l102 144h91l-117 -144h-76zM39 0l70 397l15 141h77l-3 -82q74 90 209 90q95 0 129 -55.5t12 -182.5l-55 -308h-89l56 318q13 75 -6 109.5t-85 34.5q-102 0 -177 -94l-63 -368h-90z" />
    <glyph glyph-name="Ncommaaccent" unicode="&#x145;" horiz-adv-x="741" 
d="M215 597l-103 -597h-87l129 711h99l274 -593l99 593h88l-126 -711h-96zM196 -239q26 44 50 105q9 23 17 46.5t11 35.5l4 12l82 -1q-15 -55 -41 -110q-13 -27 -27 -49t-22 -31l-7 -9z" />
    <glyph glyph-name="ncommaaccent" unicode="&#x146;" horiz-adv-x="613" 
d="M39 0l70 397l15 141h77l-3 -82q74 90 209 90q95 0 129 -55.5t12 -182.5l-55 -308h-89l56 318q13 75 -6 109.5t-85 34.5q-102 0 -177 -94l-63 -368h-90zM145 -239q26 44 50 105q9 23 17 46.5t12 35.5l3 12l82 -1q-15 -55 -41 -110q-13 -27 -27 -49t-21 -31l-8 -9z" />
    <glyph glyph-name="Ncaron" unicode="&#x147;" horiz-adv-x="741" 
d="M624 887l-131 -121h-97l-85 121h85l55 -69l79 69h94zM215 597l-103 -597h-87l129 711h99l274 -593l99 593h88l-126 -711h-96z" />
    <glyph glyph-name="ncaron" unicode="&#x148;" horiz-adv-x="613" 
d="M559 773l-138 -143h-87l-84 143h81l55 -81l83 81h90zM39 0l70 397l15 141h77l-3 -82q74 90 209 90q95 0 129 -55.5t12 -182.5l-55 -308h-89l56 318q13 75 -6 109.5t-85 34.5q-102 0 -177 -94l-63 -368h-90z" />
    <glyph glyph-name="Eng" unicode="&#x14a;" horiz-adv-x="741" 
d="M714 711l-126 -711q-10 -56 -24 -93.5t-40.5 -69t-70 -46.5t-105.5 -15h-53l13 72h47q69 0 104 35t49 117l-294 590l-102 -590h-87l129 711h96l281 -572l97 572h86z" />
    <glyph glyph-name="eng" unicode="&#x14b;" horiz-adv-x="614" 
d="M39 0l70 397l16 141h76l-3 -84q28 35 79.5 63.5t130.5 28.5q95 0 129 -55.5t12 -182.5l-1 -4l-43 -245q-6 -32 -9 -49t-9.5 -42.5t-12.5 -38.5t-16 -31.5t-22 -28t-29.5 -20.5t-38.5 -16t-48.5 -8.5t-60.5 -3.5l9 85q72 0 99.5 26.5t40.5 92.5l53 293q13 75 -6.5 109.5
t-84.5 34.5q-102 0 -178 -95l-63 -367h-90z" />
    <glyph glyph-name="Omacron" unicode="&#x14c;" horiz-adv-x="717" 
d="M317 860h253l-13 -71h-253zM655 349q-34 -188 -117 -277.5t-240 -89.5q-162 0 -216.5 93.5t-19.5 285.5q33 188 116 278t240 90q162 0 216.5 -94t20.5 -286zM154 354q-28 -151 5.5 -219.5t143.5 -68.5q111 0 172 69.5t88 219.5q28 151 -6 220.5t-143 69.5
q-110 0 -171.5 -70.5t-88.5 -220.5z" />
    <glyph glyph-name="omacron" unicode="&#x14d;" horiz-adv-x="595" 
d="M250 717h253l-12 -66h-253zM540 261q-24 -138 -89 -206t-197 -68q-136 0 -180 72.5t-19 214.5q24 138 89.5 206.5t197.5 69.5q136 1 180 -72.5t18 -216.5zM145 265q-19 -107 5.5 -154.5t106.5 -47.5q86 0 130 49.5t63 157.5q19 107 -5 156t-106 49q-85 0 -129.5 -51
t-64.5 -159z" />
    <glyph glyph-name="Obreve" unicode="&#x14e;" horiz-adv-x="717" 
d="M593 877q-7 -42 -48 -77t-112 -35q-76 0 -108.5 35t-25.5 77h75q-3 -20 13.5 -36.5t44.5 -16.5q31 0 56.5 16.5t28.5 36.5h76zM655 349q-34 -188 -117 -277.5t-240 -89.5q-162 0 -216.5 93.5t-19.5 285.5q33 188 116 278t240 90q162 0 216.5 -94t20.5 -286zM154 354
q-28 -151 5.5 -219.5t143.5 -68.5q111 0 172 69.5t88 219.5q28 151 -6 220.5t-143 69.5q-110 0 -171.5 -70.5t-88.5 -220.5z" />
    <glyph glyph-name="obreve" unicode="&#x14f;" horiz-adv-x="595" 
d="M530 746q-8 -45 -50.5 -84t-114.5 -39q-76 0 -107.5 39.5t-24.5 83.5h76q-4 -21 11.5 -42t45.5 -21q31 0 57.5 21t29.5 42h77zM540 261q-24 -138 -89 -206t-197 -68q-136 0 -180 72.5t-19 214.5q24 138 89.5 206.5t197.5 69.5q136 1 180 -72.5t18 -216.5zM145 265
q-19 -107 5.5 -154.5t106.5 -47.5q86 0 130 49.5t63 157.5q19 107 -5 156t-106 49q-85 0 -129.5 -51t-64.5 -159z" />
    <glyph glyph-name="Ohungarumlaut" unicode="&#x150;" horiz-adv-x="717" 
d="M294 770l93 121h98l-107 -121h-84zM447 770l107 121h98l-122 -121h-83zM655 349q-34 -188 -117 -277.5t-240 -89.5q-162 0 -216.5 93.5t-19.5 285.5q33 188 116 278t240 90q162 0 216.5 -94t20.5 -286zM154 354q-28 -151 5.5 -219.5t143.5 -68.5q111 0 172 69.5t88 219.5
q28 151 -6 220.5t-143 69.5q-110 0 -171.5 -70.5t-88.5 -220.5z" />
    <glyph glyph-name="ohungarumlaut" unicode="&#x151;" horiz-adv-x="595" 
d="M225 625l97 144h97l-111 -144h-83zM378 625l111 144h98l-127 -144h-82zM540 261q-24 -138 -89 -206t-197 -68q-136 0 -180 72.5t-19 214.5q24 138 89.5 206.5t197.5 69.5q136 1 180 -72.5t18 -216.5zM145 265q-19 -107 5.5 -154.5t106.5 -47.5q86 0 130 49.5t63 157.5
q19 107 -5 156t-106 49q-85 0 -129.5 -51t-64.5 -159z" />
    <glyph glyph-name="OE" unicode="&#x152;" horiz-adv-x="979" 
d="M297 0q-161 0 -215 89t-22 272q32 179 114.5 264.5t241.5 85.5h584l-14 -84h-366l-39 -218h316l-14 -81h-316l-43 -244h371l-15 -84h-583zM153 349q-25 -141 9 -206.5t143 -65.5h125l99 557h-120q-109 0 -170 -70.5t-86 -214.5z" />
    <glyph glyph-name="oe" unicode="&#x153;" horiz-adv-x="984" 
d="M909 164q-6 -29 -20 -55.5t-42 -56t-79 -47.5t-119 -18q-152 0 -181 104q-62 -104 -214 -104q-136 0 -180 72.5t-19 214.5q24 138 89.5 206.5t197.5 69.5q154 0 183 -104q62 103 212 103q130 0 174 -72t16 -233l-45 1h-344q-14 -96 12 -138.5t103 -42.5q78 0 117.5 31
t47.5 68zM733 476q-71 0 -114 -38.5t-65 -117.5h292q6 84 -21 120t-92 36zM145 261q-19 -105 5 -151.5t106 -46.5q87 0 131.5 50t63.5 161q19 105 -5 153t-106 48q-87 0 -131 -51t-64 -163z" />
    <glyph glyph-name="Racute" unicode="&#x154;" horiz-adv-x="673" 
d="M360 766l98 121h98l-112 -121h-84zM25 0l127 714h250q153 0 210.5 -49t33.5 -181q-17 -95 -58.5 -142t-118.5 -63l100 -279h-97l-90 269q-18 -1 -56 -1h-162l-47 -268h-92zM229 631l-50 -281h149q41 0 68.5 2.5t56.5 11t47 24t32.5 42.5t21.5 65q2 23 4 41.5t-4.5 32.5
t-11.5 24t-19 17t-26 11t-32 6.5t-38 3t-43 0.5h-155z" />
    <glyph glyph-name="racute" unicode="&#x155;" horiz-adv-x="388" 
d="M227 631l102 144h91l-117 -144h-76zM39 0l68 384l17 154h77l-4 -97q24 40 75.5 74t135.5 34l-9 -84q-48 0 -87.5 -16t-64.5 -41t-38.5 -44.5t-22.5 -38.5l-57 -325h-90z" />
    <glyph glyph-name="Rcommaaccent" unicode="&#x156;" horiz-adv-x="673" 
d="M25 0l127 714h250q153 0 210.5 -49t33.5 -181q-17 -95 -58.5 -142t-118.5 -63l100 -279h-97l-90 269q-18 -1 -56 -1h-162l-47 -268h-92zM229 631l-50 -281h149q41 0 68.5 2.5t56.5 11t47 24t32.5 42.5t21.5 65q2 23 4 41.5t-4.5 32.5t-11.5 24t-19 17t-26 11t-32 6.5
t-38 3t-43 0.5h-155zM153 -239q26 44 50 105q9 23 17 46.5t12 35.5l3 12l82 -1q-15 -55 -41 -110q-13 -27 -27 -49t-21 -31l-8 -9z" />
    <glyph glyph-name="rcommaaccent" unicode="&#x157;" horiz-adv-x="388" 
d="M39 0l68 384l17 154h77l-4 -97q24 40 75.5 74t135.5 34l-9 -84q-48 0 -87.5 -16t-64.5 -41t-38.5 -44.5t-22.5 -38.5l-57 -325h-90zM-47 -239q26 44 50 105q9 23 17 46.5t12 35.5l3 12l82 -1q-15 -55 -41 -110q-13 -27 -27 -49t-21 -31l-8 -9z" />
    <glyph glyph-name="Rcaron" unicode="&#x158;" horiz-adv-x="673" 
d="M584 887l-131 -121h-97l-85 121h85l55 -69l79 69h94zM25 0l127 714h250q153 0 210.5 -49t33.5 -181q-17 -95 -58.5 -142t-118.5 -63l100 -279h-97l-90 269q-18 -1 -56 -1h-162l-47 -268h-92zM229 631l-50 -281h149q41 0 68.5 2.5t56.5 11t47 24t32.5 42.5t21.5 65
q2 23 4 41.5t-4.5 32.5t-11.5 24t-19 17t-26 11t-32 6.5t-38 3t-43 0.5h-155z" />
    <glyph glyph-name="rcaron" unicode="&#x159;" horiz-adv-x="388" 
d="M452 773l-138 -143h-87l-84 143h81l55 -81l83 81h90zM39 0l68 384l17 154h77l-4 -97q24 40 75.5 74t135.5 34l-9 -84q-48 0 -87.5 -16t-64.5 -41t-38.5 -44.5t-22.5 -38.5l-57 -325h-90z" />
    <glyph glyph-name="Sacute" unicode="&#x15a;" horiz-adv-x="644" 
d="M348 769l98 121h98l-112 -121h-84zM560 178q-33 -198 -298 -196q-132 1 -193 60.5t-40 178.5l90 -1q-28 -154 151 -157q87 -1 138 31t62 92q6 35 -8.5 59.5t-43 38t-66 26t-77.5 21t-76.5 25t-63.5 37.5t-39.5 58t-3.5 86q17 92 88.5 142.5t197.5 49.5q141 -1 192 -57.5
t32 -162.5l-89 1q7 25 3.5 49.5t-14.5 44t-43.5 31.5t-84.5 12q-90 1 -136.5 -33t-55.5 -86q-6 -34 8.5 -58.5t43 -38t66 -25.5t77 -21t76.5 -25.5t64 -37.5t39.5 -58t3.5 -86z" />
    <glyph glyph-name="sacute" unicode="&#x15b;" horiz-adv-x="544" 
d="M291 631l102 144h91l-117 -144h-76zM476 138q-25 -152 -249 -151q-112 2 -164.5 51t-36.5 139l89 -2q-10 -54 19 -82t97 -29q140 -1 157 89q6 32 -16.5 51.5t-60.5 26.5t-82.5 18t-81.5 24t-58 46.5t-13 83.5q26 150 240 147q108 -1 155.5 -47t32.5 -131l-88 2
q8 47 -15.5 74t-90.5 28q-130 1 -146 -87q-5 -29 18.5 -47t61.5 -24.5t82.5 -17.5t81.5 -25.5t57 -49t11 -87.5z" />
    <glyph glyph-name="Scircumflex" unicode="&#x15c;" horiz-adv-x="644" 
d="M549 769h-88l-56 68l-77 -68h-92l127 121h97zM560 178q-33 -198 -298 -196q-132 1 -193 60.5t-40 178.5l90 -1q-28 -154 151 -157q87 -1 138 31t62 92q6 35 -8.5 59.5t-43 38t-66 26t-77.5 21t-76.5 25t-63.5 37.5t-39.5 58t-3.5 86q17 92 88.5 142.5t197.5 49.5
q141 -1 192 -57.5t32 -162.5l-89 1q7 25 3.5 49.5t-14.5 44t-43.5 31.5t-84.5 12q-90 1 -136.5 -33t-55.5 -86q-6 -34 8.5 -58.5t43 -38t66 -25.5t77 -21t76.5 -25.5t64 -37.5t39.5 -58t3.5 -86z" />
    <glyph glyph-name="scircumflex" unicode="&#x15d;" horiz-adv-x="544" 
d="M489 630h-84l-55 83l-83 -83h-89l136 143h87zM476 138q-25 -152 -249 -151q-112 2 -164.5 51t-36.5 139l89 -2q-10 -54 19 -82t97 -29q140 -1 157 89q6 32 -16.5 51.5t-60.5 26.5t-82.5 18t-81.5 24t-58 46.5t-13 83.5q26 150 240 147q108 -1 155.5 -47t32.5 -131l-88 2
q8 47 -15.5 74t-90.5 28q-130 1 -146 -87q-5 -29 18.5 -47t61.5 -24.5t82.5 -17.5t81.5 -25.5t57 -49t11 -87.5z" />
    <glyph glyph-name="Scedilla" unicode="&#x15e;" horiz-adv-x="644" 
d="M337 -158q-7 -47 -40 -66t-104 -19q-21 0 -39 2.5t-26 4.5l-7 2l6 50q0 -3 42 -3q39 0 59 11t25 38q4 22 -15.5 30t-59.5 8h-9l53 84q-112 9 -162 68t-31 169l90 -1q-28 -154 151 -157q87 -1 138 31t62 92q6 35 -8.5 59.5t-43 38t-66 26t-77.5 21t-76.5 25t-63.5 37.5
t-39.5 58t-3.5 86q17 92 88.5 142.5t197.5 49.5q141 -1 192 -57.5t32 -162.5l-89 1q7 25 3.5 49.5t-14.5 44t-43.5 31.5t-84.5 12q-90 1 -136.5 -33t-55.5 -86q-6 -34 8.5 -58.5t43 -38t66 -25.5t77 -21t76.5 -25.5t64 -37.5t39.5 -58t3.5 -86q-30 -180 -254 -194l-36 -57
q35 -5 54.5 -26t12.5 -59z" />
    <glyph glyph-name="scedilla" unicode="&#x15f;" horiz-adv-x="544" 
d="M306 -143q-7 -47 -40 -66t-104 -19q-21 0 -39 2t-25 4l-8 3l6 50q0 -3 42 -3q39 0 59 11t25 38q4 22 -15.5 30t-59.5 8h-9l47 75q-91 10 -132 58t-27 129l89 -2q-10 -54 19 -82t97 -29q140 -1 157 89q6 32 -16.5 51.5t-60.5 26.5t-82.5 18t-81.5 24t-58 46.5t-13 83.5
q26 150 240 147q108 -1 155.5 -47t32.5 -131l-88 2q8 47 -15.5 74t-90.5 28q-130 1 -146 -87q-5 -29 18.5 -47t61.5 -24.5t82.5 -17.5t81.5 -25.5t57 -49t11 -87.5q-23 -137 -208 -150l-29 -46q35 -5 54.5 -26t12.5 -59z" />
    <glyph glyph-name="Scaron" unicode="&#x160;" horiz-adv-x="644" 
d="M572 890l-131 -121h-97l-85 121h85l55 -69l79 69h94zM560 178q-33 -198 -298 -196q-132 1 -193 60.5t-40 178.5l90 -1q-28 -154 151 -157q87 -1 138 31t62 92q6 35 -8.5 59.5t-43 38t-66 26t-77.5 21t-76.5 25t-63.5 37.5t-39.5 58t-3.5 86q17 92 88.5 142.5t197.5 49.5
q141 -1 192 -57.5t32 -162.5l-89 1q7 25 3.5 49.5t-14.5 44t-43.5 31.5t-84.5 12q-90 1 -136.5 -33t-55.5 -86q-6 -34 8.5 -58.5t43 -38t66 -25.5t77 -21t76.5 -25.5t64 -37.5t39.5 -58t3.5 -86z" />
    <glyph glyph-name="scaron" unicode="&#x161;" horiz-adv-x="544" 
d="M516 773l-138 -143h-87l-84 143h81l55 -81l83 81h90zM476 138q-25 -152 -249 -151q-112 2 -164.5 51t-36.5 139l89 -2q-10 -54 19 -82t97 -29q140 -1 157 89q6 32 -16.5 51.5t-60.5 26.5t-82.5 18t-81.5 24t-58 46.5t-13 83.5q26 150 240 147q108 -1 155.5 -47t32.5 -131
l-88 2q8 47 -15.5 74t-90.5 28q-130 1 -146 -87q-5 -29 18.5 -47t61.5 -24.5t82.5 -17.5t81.5 -25.5t57 -49t11 -87.5z" />
    <glyph glyph-name="uni0162" unicode="&#x162;" horiz-adv-x="504" 
d="M252 -145q-7 -47 -40 -66t-104 -19q-21 0 -39 2t-25 4l-8 3l6 50q0 -3 42 -3q39 0 59 11t25 38q4 22 -15.5 30t-59.5 8h-9l56 88l113 625h-225l15 85h542l-15 -85h-225l-113 -626h-9l-38 -60q35 -5 54.5 -26t12.5 -59z" />
    <glyph glyph-name="uni0163" unicode="&#x163;" horiz-adv-x="325" 
d="M233 -132q-7 -47 -40 -66t-104 -19q-21 0 -39 2.5t-26 4.5l-7 2l6 50q0 -3 42 -3q39 0 59 11t25 38q4 22 -15.5 30t-59.5 8h-9l55 87q-25 12 -39.5 32t-18 48.5t-1.5 56.5t9 68l43 243h-69l14 77h68l28 156l93 16l-30 -172h134l-14 -77h-134l-43 -247q-16 -66 -2.5 -100
t73.5 -34h43l-15 -83h-43q-15 0 -22 1l-28 -45q35 -5 54.5 -26t12.5 -59z" />
    <glyph glyph-name="Tcaron" unicode="&#x164;" horiz-adv-x="504" 
d="M504 887l-131 -121h-97l-85 121h85l55 -69l79 69h94zM140 0l113 626h-225l15 85h542l-15 -85h-225l-113 -626h-92z" />
    <glyph glyph-name="tcaron" unicode="&#x165;" horiz-adv-x="325" 
d="M277 599l77 154h78l-99 -154h-56zM259 -3h-43q-49 0 -81.5 11.5t-48.5 29.5t-21.5 49t-3.5 59.5t9 71.5l43 243h-69l14 77h68l28 156l93 16l-30 -172h134l-14 -77h-134l-43 -247q-16 -66 -2.5 -100t73.5 -34h43z" />
    <glyph glyph-name="Tbar" unicode="&#x166;" horiz-adv-x="504" 
d="M140 0l54 300h-96l11 64h96l48 262h-225l15 85h542l-15 -85h-225l-48 -262h101l-11 -64h-101l-54 -300h-92z" />
    <glyph glyph-name="tbar" unicode="&#x167;" horiz-adv-x="325" 
d="M166 250l-6 -36q-16 -66 -2.5 -100t73.5 -34h43l-15 -83h-43q-49 0 -81.5 11.5t-48.5 29.5t-21.5 49t-3.5 59.5t9 71.5l5 32h-66l11 64h67l26 147h-69l14 77h68l28 156l93 16l-30 -172h134l-14 -77h-134l-26 -147h132l-11 -64h-132z" />
    <glyph glyph-name="Utilde" unicode="&#x168;" horiz-adv-x="684" 
d="M578 877q-9 -51 -31.5 -81.5t-73.5 -30.5q-24 0 -40.5 7t-23 16t-17 16t-25.5 7q-24 0 -36.5 -16.5t-16.5 -32.5l-61 7q4 24 10 41t17.5 34.5t31 27t46.5 9.5q32 0 49 -11.5t28 -23t29 -11.5q25 0 38.5 16.5t15.5 32.5zM610 342q-13 -75 -28 -126.5t-39.5 -99t-59 -75
t-85.5 -43.5t-119 -16q-70 0 -117 16.5t-72.5 45.5t-34.5 77t-6 101t16 127l64 362h92l-64 -362q-30 -145 -3.5 -212.5t130.5 -67.5q106 0 156.5 66t77.5 218l64 358h93z" />
    <glyph glyph-name="utilde" unicode="&#x169;" horiz-adv-x="612" 
d="M542 743q-9 -51 -31 -81.5t-72 -30.5q-30 0 -48.5 12t-31.5 24t-29 12q-23 0 -36.5 -16.5t-16.5 -33.5l-60 7q9 51 31.5 81.5t72.5 30.5q30 0 48.5 -12t31 -24t28.5 -12q24 0 37 17t17 33zM415 0l3 92q-10 -14 -25 -28.5t-40.5 -32t-64 -28.5t-82.5 -11q-96 0 -130 55
t-12 180l55 310h90l-57 -319q-13 -74 6.5 -108t83.5 -34t110.5 34.5t72.5 74.5l62 353h90l-69 -389l-16 -149h-77z" />
    <glyph glyph-name="Umacron" unicode="&#x16a;" horiz-adv-x="684" 
d="M295 857h253l-13 -71h-253zM610 342q-13 -75 -28 -126.5t-39.5 -99t-59 -75t-85.5 -43.5t-119 -16q-70 0 -117 16.5t-72.5 45.5t-34.5 77t-6 101t16 127l64 362h92l-64 -362q-30 -145 -3.5 -212.5t130.5 -67.5q106 0 156.5 66t77.5 218l64 358h93z" />
    <glyph glyph-name="umacron" unicode="&#x16b;" horiz-adv-x="612" 
d="M259 723h253l-12 -66h-253zM415 0l3 92q-10 -14 -25 -28.5t-40.5 -32t-64 -28.5t-82.5 -11q-96 0 -130 55t-12 180l55 310h90l-57 -319q-13 -74 6.5 -108t83.5 -34t110.5 34.5t72.5 74.5l62 353h90l-69 -389l-16 -149h-77z" />
    <glyph glyph-name="Ubreve" unicode="&#x16c;" horiz-adv-x="684" 
d="M571 874q-7 -42 -48 -77t-112 -35q-76 0 -108.5 35t-25.5 77h75q-3 -20 13.5 -36.5t44.5 -16.5q31 0 56.5 16.5t28.5 36.5h76zM610 342q-13 -75 -28 -126.5t-39.5 -99t-59 -75t-85.5 -43.5t-119 -16q-70 0 -117 16.5t-72.5 45.5t-34.5 77t-6 101t16 127l64 362h92
l-64 -362q-30 -145 -3.5 -212.5t130.5 -67.5q106 0 156.5 66t77.5 218l64 358h93z" />
    <glyph glyph-name="ubreve" unicode="&#x16d;" horiz-adv-x="612" 
d="M539 752q-8 -45 -50.5 -84t-114.5 -39q-76 0 -107.5 39.5t-24.5 83.5h76q-4 -21 11.5 -42t45.5 -21q31 0 57.5 21t29.5 42h77zM415 0l3 92q-10 -14 -25 -28.5t-40.5 -32t-64 -28.5t-82.5 -11q-96 0 -130 55t-12 180l55 310h90l-57 -319q-13 -74 6.5 -108t83.5 -34
t110.5 34.5t72.5 74.5l62 353h90l-69 -389l-16 -149h-77z" />
    <glyph glyph-name="Uring" unicode="&#x16e;" horiz-adv-x="684" 
d="M520 844q-8 -41 -37 -64t-72 -23q-48 0 -72.5 27.5t-16.5 72.5q7 41 36 64t73 23q49 0 73 -27t16 -73zM382 847q-6 -35 28 -35q19 0 32.5 11.5t16.5 31.5q4 16 -4 25t-23 9q-19 0 -33 -11.5t-17 -30.5zM610 342q-13 -75 -28 -126.5t-39.5 -99t-59 -75t-85.5 -43.5
t-119 -16q-70 0 -117 16.5t-72.5 45.5t-34.5 77t-6 101t16 127l64 362h92l-64 -362q-30 -145 -3.5 -212.5t130.5 -67.5q106 0 156.5 66t77.5 218l64 358h93z" />
    <glyph glyph-name="uring" unicode="&#x16f;" horiz-adv-x="612" 
d="M482 705q-7 -41 -36 -64t-73 -23q-48 0 -71.5 27.5t-15.5 72.5q7 41 36 64t73 23q48 0 71.5 -27t15.5 -73zM345 707q-6 -34 29 -34q19 0 32 11.5t17 30.5q5 35 -29 35q-18 0 -31.5 -12t-17.5 -31zM415 0l3 92q-10 -14 -25 -28.5t-40.5 -32t-64 -28.5t-82.5 -11
q-96 0 -130 55t-12 180l55 310h90l-57 -319q-13 -74 6.5 -108t83.5 -34t110.5 34.5t72.5 74.5l62 353h90l-69 -389l-16 -149h-77z" />
    <glyph glyph-name="Uhungarumlaut" unicode="&#x170;" horiz-adv-x="684" 
d="M272 767l93 121h98l-107 -121h-84zM425 767l107 121h98l-122 -121h-83zM610 342q-13 -75 -28 -126.5t-39.5 -99t-59 -75t-85.5 -43.5t-119 -16q-70 0 -117 16.5t-72.5 45.5t-34.5 77t-6 101t16 127l64 362h92l-64 -362q-30 -145 -3.5 -212.5t130.5 -67.5q106 0 156.5 66
t77.5 218l64 358h93z" />
    <glyph glyph-name="uhungarumlaut" unicode="&#x171;" horiz-adv-x="612" 
d="M234 631l97 144h97l-111 -144h-83zM387 631l111 144h98l-127 -144h-82zM415 0l3 92q-10 -14 -25 -28.5t-40.5 -32t-64 -28.5t-82.5 -11q-96 0 -130 55t-12 180l55 310h90l-57 -319q-13 -74 6.5 -108t83.5 -34t110.5 34.5t72.5 74.5l62 353h90l-69 -389l-16 -149h-77z" />
    <glyph glyph-name="Uogonek" unicode="&#x172;" horiz-adv-x="684" 
d="M265 -85q6 33 39 68q-8 -1 -25 -1q-70 0 -117 16.5t-72.5 45.5t-34.5 77t-6 101t16 127l64 362h92l-64 -362q-30 -145 -3.5 -212.5t130.5 -67.5q106 0 156.5 66t77.5 218l64 358h93l-65 -369q-12 -69 -25.5 -118t-34.5 -93.5t-51 -74.5t-71 -48q-64 -40 -71 -83
q-7 -35 27 -35q11 0 23.5 4t20.5 8l7 3l-7 -53q-25 -23 -81 -23q-49 0 -69 24.5t-13 61.5z" />
    <glyph glyph-name="uogonek" unicode="&#x173;" horiz-adv-x="612" 
d="M305 -107q12 67 110 116l3 83q-10 -14 -25 -28.5t-40.5 -32t-64 -28.5t-82.5 -11q-96 0 -130 55t-12 180l55 310h90l-57 -319q-13 -74 6.5 -108t83.5 -34t110.5 34.5t72.5 74.5l62 353h90l-69 -389l-16 -149q-14 -7 -31.5 -18.5t-38.5 -34t-25 -44.5q-7 -35 27 -35
q11 0 23.5 4t20.5 8l7 3l-7 -53q-25 -23 -81 -23q-49 0 -69 24.5t-13 61.5z" />
    <glyph glyph-name="Wcircumflex" unicode="&#x174;" horiz-adv-x="953" 
d="M704 766h-88l-56 68l-77 -68h-92l127 121h97zM518 613l-265 -613h-109l-83 711h100l53 -623l266 623h107l50 -626l271 626h101l-333 -711h-109z" />
    <glyph glyph-name="wcircumflex" unicode="&#x175;" horiz-adv-x="808" 
d="M621 630h-84l-55 83l-83 -83h-89l136 143h87zM432 448l-204 -448h-102l-75 538h95l44 -450l204 450h105l51 -452l199 452h98l-259 -538h-105z" />
    <glyph glyph-name="Ycircumflex" unicode="&#x176;" horiz-adv-x="572" 
d="M506 766h-88l-56 68l-77 -68h-92l127 121h97zM174 0l40 229l-164 482h102l120 -405l254 405h111l-332 -482l-40 -229h-91z" />
    <glyph glyph-name="ycircumflex" unicode="&#x177;" horiz-adv-x="509" 
d="M467 630h-84l-55 83l-83 -83h-89l136 143h87zM67 -225l113 225h-33l-102 538h95l75 -470l238 470h97l-397 -763h-86z" />
    <glyph glyph-name="Ydieresis" unicode="&#x178;" horiz-adv-x="572" 
d="M216 766l23 129h91l-23 -129h-91zM390 766l23 129h91l-24 -129h-90zM174 0l40 229l-164 482h102l120 -405l254 405h111l-332 -482l-40 -229h-91z" />
    <glyph glyph-name="Zacute" unicode="&#x179;" horiz-adv-x="567" 
d="M314 766l98 121h98l-112 -121h-84zM-38 3l13 79l487 547h-371l13 79h486l-12 -79l-490 -547h396l-14 -79h-508z" />
    <glyph glyph-name="zacute" unicode="&#x17a;" horiz-adv-x="479" 
d="M262 631l102 144h91l-117 -144h-76zM-14 3l6 35l7 45l367 372h-291l15 79h395l-6 -32l-7 -46l-367 -373h300l-14 -80h-405z" />
    <glyph glyph-name="Zdotaccent" unicode="&#x17b;" horiz-adv-x="567" 
d="M312 766l23 129h91l-23 -129h-91zM-38 3l13 79l487 547h-371l13 79h486l-12 -79l-490 -547h396l-14 -79h-508z" />
    <glyph glyph-name="zdotaccent" unicode="&#x17c;" horiz-adv-x="479" 
d="M262 637l21 122h91l-21 -122h-91zM-14 3l6 35l7 45l367 372h-291l15 79h395l-6 -32l-7 -46l-367 -373h300l-14 -80h-405z" />
    <glyph glyph-name="Zcaron" unicode="&#x17d;" horiz-adv-x="567" 
d="M538 887l-131 -121h-97l-85 121h85l55 -69l79 69h94zM-38 3l13 79l487 547h-371l13 79h486l-12 -79l-490 -547h396l-14 -79h-508z" />
    <glyph glyph-name="zcaron" unicode="&#x17e;" horiz-adv-x="479" 
d="M487 773l-138 -143h-87l-84 143h81l55 -81l83 81h90zM-14 3l6 35l7 45l367 372h-291l15 79h395l-6 -32l-7 -46l-367 -373h300l-14 -80h-405z" />
    <glyph glyph-name="uni018F" unicode="&#x18f;" horiz-adv-x="715" 
d="M652 349q-33 -189 -115.5 -278t-239.5 -89q-163 0 -216.5 94t-18.5 291h500q25 145 -9 212t-141 67q-164 0 -226 -158l-94 1q40 122 117.5 181t207.5 59q161 0 215 -94t20 -286zM302 68q97 0 155 52.5t88 165.5h-402q-11 -113 26.5 -165.5t132.5 -52.5z" />
    <glyph glyph-name="uni019D" unicode="&#x19d;" horiz-adv-x="751" 
d="M226 597l-106 -597q-10 -59 -23.5 -96.5t-39 -68t-67 -44.5t-103.5 -14h-53l13 72h47q67 0 97.5 32.5t45.5 118.5l129 711h98l273 -593l99 593h88l-126 -711h-96z" />
    <glyph glyph-name="Gcaron" unicode="&#x1e6;" horiz-adv-x="681" 
d="M604 890l-131 -121h-97l-85 121h85l55 -69l79 69h94zM568 84q-1 -4 -11.5 -14.5t-34 -25.5t-54 -29t-77.5 -23.5t-98 -9.5q-159 0 -212.5 93t-18.5 285q33 189 115 279t236 90q132 0 189 -66.5t37 -179.5l-86 2q11 72 -26.5 116t-118.5 44q-106 0 -166.5 -71t-87.5 -221
q-28 -151 5.5 -220.5t141.5 -69.5q52 0 98.5 14t69 29.5t23.5 24.5l24 139h-144l13 80h230z" />
    <glyph glyph-name="gcaron" unicode="&#x1e7;" horiz-adv-x="650" 
d="M573 773l-138 -143h-87l-84 143h81l55 -81l83 81h90zM510 -5q-6 -32 -9.5 -48t-13 -45.5t-20.5 -45.5t-31.5 -37t-46 -32t-64 -19t-86.5 -8t-84.5 10.5t-56.5 27.5t-33 37.5t-16.5 40.5t-4 37t1.5 27l2 11h95q-1 -6 -2.5 -14.5t0.5 -28.5t10.5 -35.5t32 -28t59.5 -12.5
q50 0 84 13t52 40t26.5 53t15.5 67l9 50q-63 -65 -176 -65q-218 0 -168 282q47 276 251 276q51 0 91.5 -18.5t56.5 -35.5t25 -34l27 78h78l-34 -140zM278 72q103 0 168 78l43 242q-39 75 -134 75q-146 0 -181 -203q-18 -97 7 -144.5t97 -47.5z" />
    <glyph glyph-name="uni01EA" unicode="&#x1ea;" horiz-adv-x="717" 
d="M290 -82q5 33 37 65q-5 0 -14.5 -0.5t-14.5 -0.5q-162 0 -216.5 93.5t-19.5 285.5q33 188 116 278t240 90q162 0 216.5 -94t20.5 -286q-25 -135 -73 -218t-129 -120q-64 -39 -71 -83q-7 -35 27 -35q11 0 23.5 3.5t19.5 7.5l8 4l-7 -53q-25 -23 -81 -23q-49 0 -69 24.5
t-13 61.5zM154 354q-28 -151 5.5 -219.5t143.5 -68.5q111 0 172 69.5t88 219.5q28 151 -6 220.5t-143 69.5q-110 0 -171.5 -70.5t-88.5 -220.5z" />
    <glyph glyph-name="uni01EB" unicode="&#x1eb;" horiz-adv-x="595" 
d="M206 -91q6 41 51 78h-3q-136 0 -180 72.5t-19 214.5q24 138 89.5 206.5t197.5 69.5q136 1 180 -72.5t18 -216.5q-17 -101 -55.5 -164t-107.5 -90q-72 -43 -79 -88q-7 -35 27 -35q11 0 23.5 4t19.5 8l8 3l-7 -53q-25 -23 -81 -23q-49 0 -69 24.5t-13 61.5zM145 265
q-19 -107 5.5 -154.5t106.5 -47.5q86 0 130 49.5t63 157.5q19 107 -5 156t-106 49q-85 0 -129.5 -51t-64.5 -159z" />
    <glyph glyph-name="Aringacute" unicode="&#x1fa;" horiz-adv-x="650" 
d="M393 988l98 121h98l-112 -121h-84zM512 844q-8 -41 -37 -64t-72 -23q-48 0 -72.5 27.5t-16.5 72.5q7 41 36 64t73 23q49 0 73 -27t16 -73zM374 847q-6 -35 28 -35q19 0 32.5 11.5t16.5 31.5q4 16 -4 25t-23 9q-19 0 -33 -11.5t-17 -30.5zM-60 0l397 711h100l146 -711h-99
l-30 168h-324l-89 -168h-101zM175 252h264l-66 373z" />
    <glyph glyph-name="aringacute" unicode="&#x1fb;" horiz-adv-x="600" 
d="M362 839l102 144h91l-117 -144h-76zM476 705q-7 -41 -36 -64t-73 -23q-48 0 -71.5 27.5t-15.5 72.5q7 41 36 64t73 23q48 0 71.5 -27t15.5 -73zM339 707q-6 -34 29 -34q19 0 32 11.5t17 30.5q5 35 -29 35q-18 0 -31.5 -12t-17.5 -31zM401 1v59q-84 -73 -198 -73
q-196 0 -166 173q16 94 79 132.5t171 38.5q95 0 151 -10q10 55 7.5 89t-26.5 49t-80 15q-80 0 -116.5 -31t-43.5 -73l-82 1q32 176 240 176q109 0 155.5 -36.5t42.5 -100t-17 -147.5l-22 -124l-14 -138h-81zM223 63q63 0 113.5 26.5t71.5 60.5l18 103q-48 4 -115 4
q-83 0 -127.5 -21.5t-53.5 -74.5q-18 -98 93 -98z" />
    <glyph glyph-name="AEacute" unicode="&#x1fc;" horiz-adv-x="932" 
d="M478 766l98 121h98l-112 -121h-84zM-60 0l501 711h512l-14 -84h-366l-38 -218h315l-14 -81h-315l-43 -244h370l-15 -84h-462l31 179h-233l-123 -179h-106zM416 257l66 375l-259 -375h193z" />
    <glyph glyph-name="aeacute" unicode="&#x1fd;" horiz-adv-x="947" 
d="M516 631l102 144h91l-117 -144h-76zM871 162q-6 -28 -20 -55t-42 -56t-79 -46.5t-118 -17.5q-145 0 -189 92q-87 -91 -220 -91q-196 0 -166 172q8 49 29.5 82t55 50.5t72.5 25t92 7.5h139q6 28 20 63q1 47 -23 66.5t-83 19.5q-80 0 -116.5 -31t-43.5 -73l-82 1
q32 176 240 176q133 0 166 -68q70 70 196 70q131 0 175 -71.5t16 -232.5h-390q-14 -96 12 -138.5t103 -42.5q78 0 118 31t47 67h91zM696 476q-72 0 -115 -38.5t-65 -117.5h293q6 84 -21 120t-92 36zM405 154q-3 43 5 98h-101q-85 0 -127.5 -19.5t-51.5 -72.5q-16 -97 93 -97
q65 0 114.5 28t67.5 63z" />
    <glyph glyph-name="Oslashacute" unicode="&#x1fe;" horiz-adv-x="717" 
d="M409 766l98 121h98l-112 -121h-84zM-18 -9l89 104q-41 92 -9 266q33 188 116 278t240 90q102 0 164 -40l27 32h117l-85 -99q46 -92 14 -273q-34 -188 -117 -277.5t-240 -89.5q-108 0 -169 43l-29 -34h-118zM154 354q-20 -112 -9 -173l375 437q-38 27 -106 27
q-110 0 -171.5 -70.5t-88.5 -220.5zM563 355q22 118 6 183l-379 -442q39 -30 113 -30q111 0 172 69.5t88 219.5z" />
    <glyph glyph-name="oslashacute" unicode="&#x1ff;" horiz-adv-x="595" 
d="M316 625l102 144h91l-117 -144h-76zM-32 -29l96 106q-33 68 -9 197q24 138 89.5 206.5t197.5 69.5q81 0 128 -26l40 44h113l-94 -104q35 -70 11 -203q-24 -138 -89 -206t-197 -68q-82 0 -133 27l-39 -43h-114zM145 265q-12 -66 -8 -107l275 302q-28 15 -73 15
q-85 0 -129.5 -51t-64.5 -159zM450 270q13 72 7 115l-277 -306q28 -16 77 -16q86 0 130 49.5t63 157.5z" />
    <glyph glyph-name="Scommaaccent" unicode="&#x218;" horiz-adv-x="644" 
d="M560 178q-33 -198 -298 -196q-132 1 -193 60.5t-40 178.5l90 -1q-28 -154 151 -157q87 -1 138 31t62 92q6 35 -8.5 59.5t-43 38t-66 26t-77.5 21t-76.5 25t-63.5 37.5t-39.5 58t-3.5 86q17 92 88.5 142.5t197.5 49.5q141 -1 192 -57.5t32 -162.5l-89 1q7 25 3.5 49.5
t-14.5 44t-43.5 31.5t-84.5 12q-90 1 -136.5 -33t-55.5 -86q-6 -34 8.5 -58.5t43 -38t66 -25.5t77 -21t76.5 -25.5t64 -37.5t39.5 -58t3.5 -86zM152 -254q26 44 50 105q9 23 17 46.5t11 35.5l4 12l82 -1q-15 -55 -41 -110q-13 -27 -27 -49t-22 -31l-7 -9z" />
    <glyph glyph-name="scommaaccent" unicode="&#x219;" horiz-adv-x="544" 
d="M476 138q-25 -152 -249 -151q-112 2 -164.5 51t-36.5 139l89 -2q-10 -54 19 -82t97 -29q140 -1 157 89q6 32 -16.5 51.5t-60.5 26.5t-82.5 18t-81.5 24t-58 46.5t-13 83.5q26 150 240 147q108 -1 155.5 -47t32.5 -131l-88 2q8 47 -15.5 74t-90.5 28q-130 1 -146 -87
q-5 -29 18.5 -47t61.5 -24.5t82.5 -17.5t81.5 -25.5t57 -49t11 -87.5zM121 -239q26 44 50 105q9 23 17 46.5t12 35.5l3 12l82 -1q-15 -55 -41 -110q-13 -27 -27 -49t-21 -31l-8 -9z" />
    <glyph glyph-name="uni021A" unicode="&#x21a;" horiz-adv-x="503" 
d="M139 0l113 626h-225l15 85h542l-15 -85h-225l-113 -626h-92zM55 -241q25 44 49 105q9 23 17 46.5t11 35.5l4 12l83 -1q-14 -55 -41 -110q-13 -27 -27 -49t-21 -31l-8 -9z" />
    <glyph glyph-name="uni021B" unicode="&#x21b;" horiz-adv-x="325" 
d="M259 -3h-43q-49 0 -81.5 11.5t-48.5 29.5t-21.5 49t-3.5 59.5t9 71.5l43 243h-69l14 77h68l28 156l93 16l-30 -172h134l-14 -77h-134l-43 -247q-16 -66 -2.5 -100t73.5 -34h43zM48 -228q26 44 50 105q9 23 17 46.5t11 35.5l4 12l82 -1q-15 -55 -41 -110q-13 -27 -27 -49
t-22 -31l-7 -9z" />
    <glyph glyph-name="uni0232" unicode="&#x232;" horiz-adv-x="572" 
d="M238 857h253l-13 -71h-253zM174 0l40 229l-164 482h102l120 -405l254 405h111l-332 -482l-40 -229h-91z" />
    <glyph glyph-name="uni0233" unicode="&#x233;" horiz-adv-x="509" 
d="M203 723h253l-12 -66h-253zM67 -225l113 225h-33l-102 538h95l75 -470l238 470h97l-397 -763h-86z" />
    <glyph glyph-name="uni0237" unicode="&#x237;" horiz-adv-x="269" 
d="M141 49q-21 -115 -42 -153q-37 -69 -137 -82q-30 -4 -67 -4l9 85q35 0 59 7t38.5 16.5t24.5 33t14.5 43t11.5 59.5l85 484h90z" />
    <glyph glyph-name="uni0259" unicode="&#x259;" horiz-adv-x="588" 
d="M534 264q-24 -137 -90.5 -207t-195.5 -70q-131 0 -174.5 70.5t-16.5 229.5h388q16 99 -9.5 143t-102.5 44t-117.5 -32t-48.5 -68h-91q5 22 13.5 43t28 46t47 43.5t72 31t99.5 12.5q132 0 177 -73t21 -213zM252 62q70 0 112 36.5t64 113.5h-291q-4 -81 23 -115.5t92 -34.5
z" />
    <glyph glyph-name="uni0272" unicode="&#x272;" horiz-adv-x="614" 
d="M141 59q-6 -33 -9 -49t-10 -42.5t-12.5 -39t-16 -31.5t-22 -27.5t-29 -20t-38.5 -16.5t-48.5 -8.5t-60.5 -3.5l8 79q72 0 99 27t42 98l66 372l15 141h77l-2 -82q28 35 79.5 62.5t128.5 27.5q95 0 129 -55.5t12 -182.5l-55 -308h-89l56 318q13 75 -6 109.5t-85 34.5
q-101 0 -175 -92z" />
    <glyph glyph-name="circumflex" unicode="&#x2c6;" horiz-adv-x="426" 
d="M378 630h-84l-55 83l-83 -83h-89l136 143h87z" />
    <glyph glyph-name="caron" unicode="&#x2c7;" horiz-adv-x="427" 
d="M379 773l-138 -143h-87l-84 143h81l55 -81l83 81h90z" />
    <glyph glyph-name="breve" unicode="&#x2d8;" horiz-adv-x="420" 
d="M349 752q-8 -45 -50.5 -84t-114.5 -39q-76 0 -107.5 39.5t-24.5 83.5h76q-4 -21 11.5 -42t45.5 -21q31 0 57.5 21t29.5 42h77z" />
    <glyph glyph-name="dotaccent" unicode="&#x2d9;" horiz-adv-x="308" 
d="M55 637l21 122h91l-21 -122h-91z" />
    <glyph glyph-name="ring" unicode="&#x2da;" horiz-adv-x="380" 
d="M261 705q-7 -41 -36 -64t-73 -23q-48 0 -71.5 27.5t-15.5 72.5q7 41 36 64t73 23q48 0 71.5 -27t15.5 -73zM124 707q-6 -34 29 -34q19 0 32 11.5t17 30.5q5 35 -29 35q-18 0 -31.5 -12t-17.5 -31z" />
    <glyph glyph-name="ogonek" unicode="&#x2db;" horiz-adv-x="386" 
d="M34 -106q6 32 33.5 61t52.5 43l25 13l81 -7q-10 -5 -25.5 -14t-43 -35.5t-31.5 -50.5q-7 -35 27 -35q11 0 23.5 3.5t19.5 7.5l8 4l-7 -53q-25 -23 -81 -23q-49 0 -69 24.5t-13 61.5z" />
    <glyph glyph-name="tilde" unicode="&#x2dc;" horiz-adv-x="450" 
d="M390 743q-9 -51 -31 -81.5t-72 -30.5q-30 0 -48.5 12t-31.5 24t-29 12q-23 0 -36.5 -16.5t-16.5 -33.5l-60 7q9 51 31.5 81.5t72.5 30.5q30 0 48.5 -12t31 -24t28.5 -12q24 0 37 17t17 33z" />
    <glyph glyph-name="hungarumlaut" unicode="&#x2dd;" horiz-adv-x="433" 
d="M57 631l97 144h97l-111 -144h-83zM210 631l111 144h98l-127 -144h-82z" />
    <glyph glyph-name="gravecomb" unicode="&#x300;" 
d="M-54 631h-72l-65 144h86z" />
    <glyph glyph-name="acutecomb" unicode="&#x301;" 
d="M-245 631l102 144h91l-117 -144h-76z" />
    <glyph glyph-name="uni0302" unicode="&#x302;" 
d="M-70 630h-84l-55 83l-83 -83h-89l136 143h87z" />
    <glyph glyph-name="tildecomb" unicode="&#x303;" 
d="M-66 743q-9 -51 -31 -81.5t-72 -30.5q-30 0 -48.5 12t-31.5 24t-29 12q-23 0 -36.5 -16.5t-16.5 -33.5l-60 7q9 51 31.5 81.5t72.5 30.5q30 0 48.5 -12t31 -24t28.5 -12q24 0 37 17t17 33z" />
    <glyph glyph-name="uni0304" unicode="&#x304;" 
d="M-313 723h253l-12 -66h-253z" />
    <glyph glyph-name="uni0306" unicode="&#x306;" 
d="M-50 752q-8 -45 -50.5 -84t-114.5 -39q-76 0 -107.5 39.5t-24.5 83.5h76q-4 -21 11.5 -42t45.5 -21q31 0 57.5 21t29.5 42h77z" />
    <glyph glyph-name="uni0307" unicode="&#x307;" 
d="M-167 637l21 122h91l-21 -122h-91z" />
    <glyph glyph-name="uni0308" unicode="&#x308;" 
d="M-336 630l22 129h85l-23 -129h-84zM-168 630l23 129h84l-22 -129h-85z" />
    <glyph glyph-name="uni030A" unicode="&#x30a;" 
d="M-61 705q-7 -41 -36 -64t-73 -23q-48 0 -71.5 27.5t-15.5 72.5q7 41 36 64t73 23q48 0 71.5 -27t15.5 -73zM-198 707q-6 -34 29 -34q19 0 32 11.5t17 30.5q5 35 -29 35q-18 0 -31.5 -12t-17.5 -31z" />
    <glyph glyph-name="uni030B" unicode="&#x30b;" 
d="M-419 631l97 144h97l-111 -144h-83zM-266 631l111 144h98l-127 -144h-82z" />
    <glyph glyph-name="uni030C" unicode="&#x30c;" 
d="M-70 773l-138 -143h-87l-84 143h81l55 -81l83 81h90z" />
    <glyph glyph-name="uni0312" unicode="&#x312;" 
d="M-52 799q-30 -48 -58 -120q-12 -29 -20.5 -55t-11.5 -38l-2 -11l-82 2q10 51 42 120q16 32 32 57.5t24 35.5l9 10z" />
    <glyph glyph-name="dotbelowcomb" unicode="&#x323;" 
d="M-166 -183l21 115h90l-21 -115h-90z" />
    <glyph glyph-name="uni0326" unicode="&#x326;" 
d="M-243 -239q26 44 50 105q9 23 17 46.5t12 35.5l3 12l82 -1q-15 -55 -41 -110q-13 -27 -27 -49t-21 -31l-8 -9z" />
    <glyph glyph-name="uni0327" unicode="&#x327;" 
d="M-56 -143q-7 -47 -40 -66t-104 -19q-21 0 -39 2t-25 4l-8 3l6 50q0 -3 42 -3q39 0 59 11t25 38q4 22 -15.5 30t-59.5 8h-9l56 88h84l-39 -61q35 -5 54.5 -26t12.5 -59z" />
    <glyph glyph-name="uni0328" unicode="&#x328;" 
d="M-290 -106q6 32 33.5 61t52.5 43l25 13l81 -7q-10 -5 -25.5 -14t-43 -35.5t-31.5 -50.5q-7 -35 27 -35q11 0 23.5 3.5t19.5 7.5l8 4l-7 -53q-25 -23 -81 -23q-49 0 -69 24.5t-13 61.5z" />
    <glyph glyph-name="uni0335" unicode="&#x335;" 
d="M-344 304l11 64h289l-11 -64h-289z" />
    <glyph glyph-name="uni0336" unicode="&#x336;" 
d="M-739 300l12 71h650l-12 -71h-650z" />
    <glyph glyph-name="uni0337" unicode="&#x337;" 
d="M-351 209l-20 58l302 158l21 -58z" />
    <glyph glyph-name="uni0338" unicode="&#x338;" 
d="M-590 82l542 597h113l-541 -597h-114z" />
    <glyph glyph-name="pi" unicode="&#x3c0;" horiz-adv-x="642" 
d="M493 473v-286q0 -58 12.5 -87t54.5 -29h17v-71h-20q-37 0 -63 9.5t-40.5 24t-22.5 40.5t-10 50.5t-2 62.5v286h-210v-473h-74v473h-85v75h528v-75h-85z" />
    <glyph glyph-name="Wgrave" unicode="&#x1e80;" horiz-adv-x="953" 
d="M586 767h-78l-71 121h94zM518 613l-265 -613h-109l-83 711h100l53 -623l266 623h107l50 -626l271 626h101l-333 -711h-109z" />
    <glyph glyph-name="wgrave" unicode="&#x1e81;" horiz-adv-x="808" 
d="M498 631h-72l-65 144h86zM432 448l-204 -448h-102l-75 538h95l44 -450l204 450h105l51 -452l199 452h98l-259 -538h-105z" />
    <glyph glyph-name="Wacute" unicode="&#x1e82;" horiz-adv-x="953" 
d="M503 766l98 121h98l-112 -121h-84zM518 613l-265 -613h-109l-83 711h100l53 -623l266 623h107l50 -626l271 626h101l-333 -711h-109z" />
    <glyph glyph-name="wacute" unicode="&#x1e83;" horiz-adv-x="808" 
d="M423 631l102 144h91l-117 -144h-76zM432 448l-204 -448h-102l-75 538h95l44 -450l204 450h105l51 -452l199 452h98l-259 -538h-105z" />
    <glyph glyph-name="Wdieresis" unicode="&#x1e84;" horiz-adv-x="953" 
d="M414 766l23 129h91l-23 -129h-91zM588 766l23 129h91l-24 -129h-90zM518 613l-265 -613h-109l-83 711h100l53 -623l266 623h107l50 -626l271 626h101l-333 -711h-109z" />
    <glyph glyph-name="wdieresis" unicode="&#x1e85;" horiz-adv-x="808" 
d="M341 630l22 129h85l-23 -129h-84zM509 630l23 129h84l-22 -129h-85zM432 448l-204 -448h-102l-75 538h95l44 -450l204 450h105l51 -452l199 452h98l-259 -538h-105z" />
    <glyph glyph-name="uni1E9E" unicode="&#x1e9e;" horiz-adv-x="682" 
d="M619 219q-17 -99 -86.5 -159t-201.5 -60h-152l14 78h139q166 0 196 164q13 72 -23.5 110.5t-113.5 38.5q-20 0 -42.5 -2.5t-34.5 -5.5l-12 -3l8 60l245 193h-200q-137 0 -164 -152l-85 -481h-90l87 494q9 51 24 87t42.5 67t74 47t112.5 16h325l-13 -78l-231 -181
q109 -9 155 -68.5t27 -164.5z" />
    <glyph glyph-name="uni1EA0" unicode="&#x1ea0;" horiz-adv-x="650" 
d="M-60 0l397 711h100l146 -711h-99l-30 168h-324l-89 -168h-101zM175 252h264l-66 373zM184 -183l21 115h90l-21 -115h-90z" />
    <glyph glyph-name="uni1EA1" unicode="&#x1ea1;" horiz-adv-x="600" 
d="M401 1v59q-84 -73 -198 -73q-196 0 -166 173q16 94 79 132.5t171 38.5q95 0 151 -10q10 55 7.5 89t-26.5 49t-80 15q-80 0 -116.5 -31t-43.5 -73l-82 1q32 176 240 176q109 0 155.5 -36.5t42.5 -100t-17 -147.5l-22 -124l-14 -138h-81zM223 63q63 0 113.5 26.5t71.5 60.5
l18 103q-48 4 -115 4q-83 0 -127.5 -21.5t-53.5 -74.5q-18 -98 93 -98zM170 -189l21 115h90l-21 -115h-90z" />
    <glyph glyph-name="uni1EB8" unicode="&#x1eb8;" horiz-adv-x="587" 
d="M25 0l126 711h457l-14 -84h-366l-39 -218h316l-14 -81h-316l-43 -244h371l-15 -84h-463zM180 -183l21 115h90l-21 -115h-90z" />
    <glyph glyph-name="uni1EB9" unicode="&#x1eb9;" horiz-adv-x="587" 
d="M512 163q-6 -28 -20 -54.5t-42 -56t-79 -47.5t-119 -18q-133 0 -178 73t-20 214q25 137 91 206t195 69q130 0 174 -71.5t16 -232.5h-389q-14 -96 12 -138.5t103 -42.5t117 31.5t48 67.5h91zM336 476q-72 0 -114.5 -38.5t-64.5 -117.5h292q6 84 -21 120t-92 36zM173 -188
l21 115h90l-21 -115h-90z" />
    <glyph glyph-name="uni1EBC" unicode="&#x1ebc;" horiz-adv-x="587" 
d="M560 877q-9 -51 -31.5 -81.5t-73.5 -30.5q-24 0 -40.5 7t-23 16t-17 16t-25.5 7q-24 0 -36.5 -16.5t-16.5 -32.5l-61 7q4 24 10 41t17.5 34.5t31 27t46.5 9.5q32 0 49 -11.5t28 -23t29 -11.5q25 0 38.5 16.5t15.5 32.5zM25 0l126 711h457l-14 -84h-366l-39 -218h316
l-14 -81h-316l-43 -244h371l-15 -84h-463z" />
    <glyph glyph-name="uni1EBD" unicode="&#x1ebd;" horiz-adv-x="587" 
d="M534 743q-9 -51 -31 -81.5t-72 -30.5q-30 0 -48.5 12t-31.5 24t-29 12q-23 0 -36.5 -16.5t-16.5 -33.5l-60 7q9 51 31.5 81.5t72.5 30.5q30 0 48.5 -12t31 -24t28.5 -12q24 0 37 17t17 33zM512 163q-6 -28 -20 -54.5t-42 -56t-79 -47.5t-119 -18q-133 0 -178 73t-20 214
q25 137 91 206t195 69q130 0 174 -71.5t16 -232.5h-389q-14 -96 12 -138.5t103 -42.5t117 31.5t48 67.5h91zM336 476q-72 0 -114.5 -38.5t-64.5 -117.5h292q6 84 -21 120t-92 36z" />
    <glyph glyph-name="uni1ECA" unicode="&#x1eca;" horiz-adv-x="270" 
d="M25 0l126 711h92l-126 -711h-92zM-6 -186l21 115h90l-21 -115h-90z" />
    <glyph glyph-name="uni1ECB" unicode="&#x1ecb;" horiz-adv-x="255" 
d="M146 637l21 122h91l-21 -122h-91zM34 0l95 538h90l-95 -538h-90zM2 -183l21 115h90l-21 -115h-90z" />
    <glyph glyph-name="uni1ECC" unicode="&#x1ecc;" horiz-adv-x="717" 
d="M655 349q-34 -188 -117 -277.5t-240 -89.5q-162 0 -216.5 93.5t-19.5 285.5q33 188 116 278t240 90q162 0 216.5 -94t20.5 -286zM154 354q-28 -151 5.5 -219.5t143.5 -68.5q111 0 172 69.5t88 219.5q28 151 -6 220.5t-143 69.5q-110 0 -171.5 -70.5t-88.5 -220.5z
M218 -189l21 115h90l-21 -115h-90z" />
    <glyph glyph-name="uni1ECD" unicode="&#x1ecd;" horiz-adv-x="595" 
d="M540 261q-24 -138 -89 -206t-197 -68q-136 0 -180 72.5t-19 214.5q24 138 89.5 206.5t197.5 69.5q136 1 180 -72.5t18 -216.5zM145 265q-19 -107 5.5 -154.5t106.5 -47.5q86 0 130 49.5t63 157.5q19 107 -5 156t-106 49q-85 0 -129.5 -51t-64.5 -159zM173 -189l21 115h90
l-21 -115h-90z" />
    <glyph glyph-name="uni1EE4" unicode="&#x1ee4;" horiz-adv-x="684" 
d="M610 342q-13 -75 -28 -126.5t-39.5 -99t-59 -75t-85.5 -43.5t-119 -16q-70 0 -117 16.5t-72.5 45.5t-34.5 77t-6 101t16 127l64 362h92l-64 -362q-30 -145 -3.5 -212.5t130.5 -67.5q106 0 156.5 66t77.5 218l64 358h93zM199 -189l21 115h90l-21 -115h-90z" />
    <glyph glyph-name="uni1EE5" unicode="&#x1ee5;" horiz-adv-x="612" 
d="M415 0l3 92q-10 -14 -25 -28.5t-40.5 -32t-64 -28.5t-82.5 -11q-96 0 -130 55t-12 180l55 310h90l-57 -319q-13 -74 6.5 -108t83.5 -34t110.5 34.5t72.5 74.5l62 353h90l-69 -389l-16 -149h-77zM179 -189l21 115h90l-21 -115h-90z" />
    <glyph glyph-name="Ygrave" unicode="&#x1ef2;" horiz-adv-x="572" 
d="M388 767h-78l-71 121h94zM174 0l40 229l-164 482h102l120 -405l254 405h111l-332 -482l-40 -229h-91z" />
    <glyph glyph-name="ygrave" unicode="&#x1ef3;" horiz-adv-x="509" 
d="M344 631h-72l-65 144h86zM67 -225l113 225h-33l-102 538h95l75 -470l238 470h97l-397 -763h-86z" />
    <glyph glyph-name="uni1EF8" unicode="&#x1ef8;" horiz-adv-x="572" 
d="M521 877q-9 -51 -31.5 -81.5t-73.5 -30.5q-24 0 -40.5 7t-23 16t-17 16t-25.5 7q-24 0 -36.5 -16.5t-16.5 -32.5l-61 7q4 24 10 41t17.5 34.5t31 27t46.5 9.5q32 0 49 -11.5t28 -23t29 -11.5q25 0 38.5 16.5t15.5 32.5zM174 0l40 229l-164 482h102l120 -405l254 405h111
l-332 -482l-40 -229h-91z" />
    <glyph glyph-name="uni1EF9" unicode="&#x1ef9;" horiz-adv-x="509" 
d="M486 743q-9 -51 -31 -81.5t-72 -30.5q-30 0 -48.5 12t-31.5 24t-29 12q-23 0 -36.5 -16.5t-16.5 -33.5l-60 7q9 51 31.5 81.5t72.5 30.5q30 0 48.5 -12t31 -24t28.5 -12q24 0 37 17t17 33zM67 -225l113 225h-33l-102 538h95l75 -470l238 470h97l-397 -763h-86z" />
    <glyph glyph-name="uni2009" unicode="&#x2009;" horiz-adv-x="70" 
 />
    <glyph glyph-name="endash" unicode="&#x2013;" horiz-adv-x="592" 
d="M57 286l12 68h459l-11 -68h-460z" />
    <glyph glyph-name="emdash" unicode="&#x2014;" horiz-adv-x="935" 
d="M74 286l12 68h769l-12 -68h-769z" />
    <glyph glyph-name="uni2016" unicode="&#x2016;" horiz-adv-x="519" 
d="M33 -180l176 1000h66l-176 -1000h-66zM213 -180l176 1000h66l-176 -1000h-66z" />
    <glyph glyph-name="quoteleft" unicode="&#x2018;" horiz-adv-x="217" 
d="M64 522q7 46 43 124q16 35 34 64t27 40l10 11l69 -1q-33 -54 -63 -132q-13 -33 -22 -60t-11 -37l-2 -10z" />
    <glyph glyph-name="quoteright" unicode="&#x2019;" horiz-adv-x="224" 
d="M57 523q33 56 63 134q13 33 21.5 59t10.5 36l2 9l87 -1q-8 -43 -44 -121q-16 -35 -33.5 -64.5t-27.5 -40.5l-9 -12z" />
    <glyph glyph-name="quotesinglbase" unicode="&#x201a;" horiz-adv-x="177" 
d="M-80 -108q33 56 64 134q13 33 21.5 60t10.5 37l2 10l85 -1q-8 -46 -43 -124q-16 -35 -33.5 -64.5t-27.5 -41.5l-10 -11z" />
    <glyph glyph-name="quotedblleft" unicode="&#x201c;" horiz-adv-x="358" 
d="M64 522q8 46 43 124q16 35 33.5 64t27.5 40l10 11l69 -1q-33 -54 -63 -132q-13 -33 -22 -60t-11 -37l-2 -10zM205 522q8 46 43 124q16 35 33.5 64t27.5 40l10 11l69 -1q-33 -54 -63 -132q-13 -33 -22 -60t-11 -37l-2 -10z" />
    <glyph glyph-name="quotedblright" unicode="&#x201d;" horiz-adv-x="365" 
d="M57 523q33 56 63 134q14 33 22.5 59t9.5 36l2 9l87 -1q-9 -43 -44 -121q-16 -35 -33.5 -64.5t-27.5 -40.5l-9 -12zM198 523q33 56 63 134q13 33 21.5 59t10.5 36l2 9l87 -1q-9 -43 -44 -121q-16 -35 -33.5 -64.5t-26.5 -40.5l-10 -12z" />
    <glyph glyph-name="quotedblbase" unicode="&#x201e;" horiz-adv-x="397" 
d="M-4 -123q33 55 64 134q13 33 21.5 60t10.5 37l2 10l85 -1q-7 -47 -43 -124q-16 -35 -33.5 -64t-27.5 -41l-10 -12zM137 -123q33 55 64 134q12 33 20.5 60t10.5 37l2 10l86 -1q-7 -47 -43 -124q-16 -35 -33.5 -64t-27.5 -41l-10 -12z" />
    <glyph glyph-name="dagger" unicode="&#x2020;" horiz-adv-x="500" 
d="M80 574h162l35 199h66l-36 -199h163l-10 -57h-163l-91 -517h-65l91 517h-162z" />
    <glyph glyph-name="daggerdbl" unicode="&#x2021;" horiz-adv-x="581" 
d="M131 574h161l35 199h66l-35 -199h162l-10 -57h-162l-46 -261h162l-11 -58h-161l-35 -198h-66l35 198h-162l11 58h161l46 261h-161z" />
    <glyph glyph-name="bullet" unicode="&#x2022;" horiz-adv-x="453" 
d="M139 226l26 144h119l-26 -144h-119z" />
    <glyph glyph-name="ellipsis" unicode="&#x2026;" horiz-adv-x="560" 
d="M8 0l24 132h93l-24 -132h-93zM182 0l23 132h93l-24 -132h-92zM355 0l24 132h93l-24 -132h-93z" />
    <glyph glyph-name="perthousand" unicode="&#x2030;" horiz-adv-x="1115" 
d="M387 533q-15 -84 -58.5 -126.5t-128.5 -42.5q-169 0 -138 181q15 85 59.5 129t129.5 44q169 0 136 -185zM48 0l584 702h89l-584 -702h-89zM128 533q-11 -55 6 -82.5t66 -27.5q53 0 82 30.5t40 91.5q9 57 -6.5 85.5t-64.5 28.5q-101 0 -123 -126zM704 153
q-15 -84 -58.5 -126.5t-128.5 -42.5q-169 0 -138 181q15 85 59.5 129t129.5 44q169 0 136 -185zM1064 153q-15 -84 -58.5 -126.5t-128.5 -42.5q-171 0 -138 181q15 85 59.5 129t129.5 44q169 0 136 -185zM444 153q-10 -56 6.5 -83t66.5 -27q53 0 82 30.5t40 91.5
q9 57 -6.5 85.5t-65.5 28.5q-100 0 -123 -126zM804 153q-10 -56 6.5 -83t66.5 -27q100 0 121 122q10 57 -5.5 85.5t-65.5 28.5q-101 0 -123 -126z" />
    <glyph glyph-name="guilsinglleft" unicode="&#x2039;" horiz-adv-x="396" 
d="M151 101l-90 154l1 20l146 161h105l-162 -173l102 -162h-102z" />
    <glyph glyph-name="guilsinglright" unicode="&#x203a;" horiz-adv-x="384" 
d="M169 101h-105l159 166l-98 169h100l89 -161l-1 -20z" />
    <glyph glyph-name="fraction" unicode="&#x2044;" horiz-adv-x="309" 
d="M-217 -40l658 821h85l-658 -821h-85z" />
    <glyph glyph-name="uni2070" unicode="&#x2070;" horiz-adv-x="519" 
d="M513 571q-25 -142 -79.5 -201t-159.5 -59q-109 0 -145.5 63t-11.5 209q25 142 79.5 201t159.5 59q110 0 146.5 -63.5t10.5 -208.5zM191 571q-20 -107 0.5 -149.5t84.5 -42.5q67 0 105 45.5t59 158.5q19 108 -1 150.5t-84 42.5q-67 0 -105 -46t-59 -159z" />
    <glyph glyph-name="uni2074" unicode="&#x2074;" horiz-adv-x="442" 
d="M291 320l18 105h-262l10 65l284 345h114l-61 -345h61l-13 -65h-60l-18 -105h-73zM321 490l51 292l-229 -292h178z" />
    <glyph glyph-name="uni2075" unicode="&#x2075;" horiz-adv-x="467" 
d="M255 766l-46 -134q44 28 111 28q85 0 120 -51t21 -130q-30 -169 -212 -169q-100 0 -140.5 43.5t-30.5 104.5h78q-7 -35 16.5 -59.5t77.5 -24.5q114 0 135 117q9 52 -13.5 79.5t-74.5 27.5q-77 0 -115 -45h-72l92 277h292l-12 -66z" />
    <glyph glyph-name="uni2076" unicode="&#x2076;" horiz-adv-x="501" 
d="M490 479q-30 -168 -217 -169q-108 0 -144 59.5t-14 185.5q28 160 82 225t159 65q48 0 82 -14t50 -36.5t21.5 -47t0.5 -50.5h-74q6 33 -12.5 57.5t-68.5 24.5q-55 0 -90.5 -36.5t-59.5 -127.5q55 49 140 49q90 0 125 -51.5t20 -133.5zM328 600q-85 0 -141 -71
q-13 -84 7.5 -119t78.5 -35q119 0 140 117q19 108 -85 108z" />
    <glyph glyph-name="uni2077" unicode="&#x2077;" horiz-adv-x="379" 
d="M99 320q12 68 43 139t66.5 123.5t69.5 95.5t56 65l23 22l-267 -5l13 72h351l-12 -68l-24.5 -24.5t-56.5 -65t-74.5 -99t-66.5 -120t-44 -135.5h-77z" />
    <glyph glyph-name="uni2078" unicode="&#x2078;" horiz-adv-x="494" 
d="M262 311q-105 0 -145.5 41.5t-26.5 115.5q11 63 45.5 94.5t65.5 33.5q-20 2 -40.5 31.5t-11.5 81.5q24 136 196 136q97 0 133 -40t24 -109q-9 -49 -37 -74t-52 -27q26 -2 50 -38t13 -101q-12 -70 -62 -107.5t-152 -37.5zM345 786q-106 0 -124 -96q-5 -35 14.5 -51.5
t71.5 -16.5q107 0 121 80q7 45 -12.5 64.5t-70.5 19.5zM306 563q-117 0 -136 -99q-7 -46 15 -67t78 -21q119 0 136 101q8 44 -14 65t-79 21z" />
    <glyph glyph-name="uni2079" unicode="&#x2079;" horiz-adv-x="511" 
d="M506 589q-28 -159 -80.5 -219t-160.5 -60q-98 0 -137 45.5t-29 101.5h74q-5 -32 16.5 -56.5t75.5 -24.5q57 0 91.5 31.5t57.5 117.5q-56 -48 -136 -48q-95 0 -128.5 53.5t-16.5 144.5q30 169 216 170q109 0 145 -60.5t12 -195.5zM293 542q85 0 140 70q15 94 -5 130.5
t-79 36.5q-120 0 -139 -117q-22 -120 83 -120z" />
    <glyph glyph-name="Euro" unicode="&#x20ac;" horiz-adv-x="659" 
d="M197 235q-3 -85 27.5 -124t101.5 -39q63 0 105 29t55 85h78q-42 -188 -244 -188q-120 0 -169 58.5t-44 178.5h-83l11 63h77q1 6 4 26t5 32l6 35h-76l11 64h80q35 127 102 188t188 61q109 0 157 -52t34 -149h-79q9 61 -20 94t-91 33q-73 0 -120.5 -43t-76.5 -132h221
l-11 -64h-227l-9 -47q-2 -10 -7 -46h227l-11 -63h-222z" />
    <glyph glyph-name="uni20BD" unicode="&#x20bd;" horiz-adv-x="673" 
d="M87 0l30 173h-93l12 67h93l14 78h-93l12 72l94 -1l57 323h207q151 0 209.5 -45t38.5 -159q-19 -109 -89.5 -149.5t-221.5 -40.5h-122l-14 -78h181l-13 -67h-180l-30 -173h-92zM292 641l-44 -252h126q85 0 136.5 27.5t65.5 103.5q12 73 -27 97t-125 24h-132z" />
    <glyph glyph-name="uni2116" unicode="&#x2116;" horiz-adv-x="1273" 
d="M1167 473q-20 -116 -75 -174.5t-169 -58.5q-117 0 -155 63t-16 182q19 116 74.5 175t168.5 60q119 1 156.5 -63t15.5 -184zM25 0l129 711h93l279 -582l100 582h84l-126 -711h-93l-280 585l-104 -585h-82zM834 473q-14 -86 5.5 -125t85.5 -39q70 0 107 43.5t53 132.5
q15 84 -5 125t-86 41q-69 0 -106.5 -44.5t-53.5 -133.5zM681 101l14 77h423l-14 -77h-423z" />
    <glyph glyph-name="uni2117" unicode="&#x2117;" horiz-adv-x="828" 
d="M770 342q-10 -63 -29.5 -116.5t-53 -101.5t-78.5 -81t-110 -52.5t-144 -19.5t-138.5 20t-93.5 55t-54 83.5t-20 105t8 119.5q13 80 42 145t77 118.5t123.5 83t172.5 29.5q81 0 140.5 -20.5t93.5 -56.5t53.5 -85t19.5 -106t-9 -120zM117 342q-51 -315 239 -315
q83 0 147.5 25.5t105.5 72t65.5 103t35.5 126.5q13 65 6 123t-31 102t-78.5 69.5t-135.5 25.5q-83 0 -147 -26.5t-105 -73.5t-66 -104.5t-36 -127.5zM240 141l73 414h157q82 0 113.5 -31.5t16.5 -113.5q-13 -80 -51.5 -106t-122.5 -26h-100l-24 -137h-62zM366 505l-31 -177
h90q48 0 76 17.5t38 74.5q10 53 -10 69t-67 16h-96z" />
    <glyph glyph-name="uni2120" unicode="&#x2120;" horiz-adv-x="807" 
d="M310 462q-17 -92 -141 -92q-68 1 -96.5 29t-18.5 85h49q-12 -72 64 -72q80 -2 91 58q4 25 -14 39.5t-46.5 21.5t-57 17t-45 34t-9.5 63q15 88 133 87q71 -1 96 -27t16 -76h-48q5 29 -6.5 45t-52.5 17q-77 1 -88 -57q-4 -24 14.5 -38t47 -21.5t57 -17.5t45.5 -33.5
t10 -61.5zM351 379l62 347h74l46 -301l156 301h75l-62 -347h-49l56 292l-157 -292h-53l-50 298l-49 -298h-49z" />
    <glyph glyph-name="trademark" unicode="&#x2122;" horiz-adv-x="727" 
d="M133 379l52 300h-102l8 47h259l-8 -47h-104l-52 -300h-53zM320 379l62 347h73l47 -301l155 301h76l-62 -347h-49l56 292l-157 -292h-53l-51 301l-48 -301h-49z" />
    <glyph glyph-name="oneeighth" unicode="&#x215b;" horiz-adv-x="1051" 
d="M51 -40l658 821h85l-658 -821h-85zM65 245l74 428l-100 -43l13 79l129 53h48l-91 -517h-73zM763 -9q-105 0 -145.5 41.5t-26.5 115.5q11 63 45.5 94.5t65.5 33.5q-20 2 -40.5 31.5t-11.5 81.5q24 136 196 136q97 0 133 -40t24 -109q-9 -49 -37 -74t-52 -27q26 -2 50 -38
t13 -101q-12 -70 -62 -107.5t-152 -37.5zM846 466q-106 0 -124 -96q-5 -35 14.5 -51.5t71.5 -16.5q107 0 121 80q7 45 -12.5 64.5t-70.5 19.5zM807 243q-117 0 -136 -99q-7 -46 15 -67t78 -21q119 0 136 101q8 44 -14 65t-79 21z" />
    <glyph glyph-name="threeeighths" unicode="&#x215c;" horiz-adv-x="1208" 
d="M208 -40l658 821h85l-658 -821h-85zM256 573q146 -21 119 -175q-29 -163 -211 -163q-96 0 -134 45t-26 113h74q-7 -38 15 -63.5t72 -25.5q56 0 90 29.5t43 82.5q9 49 -16.5 76t-80.5 27l-66 -5l7 52h1l168 123l-233 -3l13 69h336l-12 -65zM920 -9q-105 0 -145.5 41.5
t-26.5 115.5q11 63 45.5 94.5t65.5 33.5q-20 2 -40.5 31.5t-11.5 81.5q24 136 196 136q97 0 133 -40t24 -109q-9 -49 -37 -74t-52 -27q26 -2 50 -38t13 -101q-12 -70 -62 -107.5t-152 -37.5zM1003 466q-106 0 -124 -96q-5 -35 14.5 -51.5t71.5 -16.5q107 0 121 80
q7 45 -12.5 64.5t-70.5 19.5zM964 243q-117 0 -136 -99q-7 -46 15 -67t78 -21q119 0 136 101q8 44 -14 65t-79 21z" />
    <glyph glyph-name="fiveeighths" unicode="&#x215d;" horiz-adv-x="1237" 
d="M237 -40l658 821h85l-658 -821h-85zM199 691l-46 -134q44 28 111 28q85 0 120 -51t21 -130q-30 -169 -212 -169q-100 0 -140.5 43.5t-30.5 104.5h78q-7 -35 16.5 -59.5t77.5 -24.5q114 0 135 117q9 52 -13.5 79.5t-74.5 27.5q-77 0 -115 -45h-72l92 277h292l-12 -66z
M949 -9q-105 0 -145.5 41.5t-26.5 115.5q11 63 45.5 94.5t65.5 33.5q-20 2 -40.5 31.5t-11.5 81.5q24 136 196 136q97 0 133 -40t24 -109q-9 -49 -37 -74t-52 -27q26 -2 50 -38t13 -101q-12 -70 -62 -107.5t-152 -37.5zM1032 466q-106 0 -124 -96q-5 -35 14.5 -51.5
t71.5 -16.5q107 0 121 80q7 45 -12.5 64.5t-70.5 19.5zM993 243q-117 0 -136 -99q-7 -46 15 -67t78 -21q119 0 136 101q8 44 -14 65t-79 21z" />
    <glyph glyph-name="seveneighths" unicode="&#x215e;" horiz-adv-x="1099" 
d="M99 -40l658 821h85l-658 -821h-85zM43 245q12 68 43 139t66.5 123.5t69.5 95.5t56 65l23 22l-267 -5l13 72h351l-12 -68l-24.5 -24.5t-56.5 -65t-74.5 -99t-66.5 -120t-44 -135.5h-77zM811 -9q-105 0 -145.5 41.5t-26.5 115.5q11 63 45.5 94.5t65.5 33.5
q-20 2 -40.5 31.5t-11.5 81.5q24 136 196 136q97 0 133 -40t24 -109q-9 -49 -37 -74t-52 -27q26 -2 50 -38t13 -101q-12 -70 -62 -107.5t-152 -37.5zM894 466q-106 0 -124 -96q-5 -35 14.5 -51.5t71.5 -16.5q107 0 121 80q7 45 -12.5 64.5t-70.5 19.5zM855 243
q-117 0 -136 -99q-7 -46 15 -67t78 -21q119 0 136 101q8 44 -14 65t-79 21z" />
    <glyph glyph-name="arrowleft" unicode="&#x2190;" horiz-adv-x="680" 
d="M644 245l-474 13l201 -160l-49 -54l-262 217v59l262 217l49 -55l-201 -159l474 12v-90z" />
    <glyph glyph-name="arrowup" unicode="&#x2191;" horiz-adv-x="574" 
d="M242 1l13 475l-160 -202l-55 49l218 263h58l218 -263l-55 -49l-160 200l13 -473h-90z" />
    <glyph glyph-name="arrowright" unicode="&#x2192;" horiz-adv-x="680" 
d="M36 333l474 -12l-200 159l49 55l262 -217v-59l-262 -218l-49 55l201 160l-475 -13v90z" />
    <glyph glyph-name="arrowdown" unicode="&#x2193;" horiz-adv-x="561" 
d="M326 578l-13 -474l160 201l54 -49l-217 -262h-59l-217 262l55 49l159 -201l-12 474h90z" />
    <glyph glyph-name="arrowboth" unicode="&#x2194;" horiz-adv-x="943" 
d="M623 517l260 -218v-59l-260 -217l-49 55l194 155l-594 -1l197 -156l-49 -55l-262 217v59l262 217l49 -54l-200 -158l601 2l-197 158z" />
    <glyph glyph-name="arrowupdn" unicode="&#x2195;" horiz-adv-x="577" 
d="M319 -148h-59l-217 260l55 49l155 -194l-2 606l-155 -196l-56 49l218 262h59l217 -262l-54 -49l-156 196l1 -609l157 196l54 -48z" />
    <glyph glyph-name="uni2196" unicode="&#x2196;" horiz-adv-x="558" 
d="M459 55l-326 344l29 -255l-73 -4l-32 339l41 42l340 -32l-5 -73l-255 29l344 -327z" />
    <glyph glyph-name="uni2197" unicode="&#x2197;" horiz-adv-x="558" 
d="M35 119l345 326l-256 -29l-3 73l339 32l41 -41l-31 -340l-74 5l30 255l-327 -345z" />
    <glyph glyph-name="uni2198" unicode="&#x2198;" horiz-adv-x="558" 
d="M100 527l326 -346l-30 257l74 3l31 -339l-41 -41l-339 31l3 74l255 -29l-344 326z" />
    <glyph glyph-name="uni2199" unicode="&#x2199;" horiz-adv-x="558" 
d="M523 463l-344 -326l255 29l4 -74l-339 -31l-42 41l32 339l73 -3l-29 -257l327 345z" />
    <glyph glyph-name="minus" unicode="&#x2212;" horiz-adv-x="446" 
d="M30 275l15 80h354l-14 -80h-355z" />
    <glyph glyph-name="infinity" unicode="&#x221e;" horiz-adv-x="780" 
d="M31 310q30 164 194 164q60 -1 96 -32.5t66 -88.5q50 57 97 88.5t108 32.5q85 0 119.5 -47t20.5 -129q-30 -164 -193 -164q-61 0 -97 31.5t-66 88.5q-51 -57 -98 -88.5t-107 -31.5q-86 0 -120 47t-20 129zM99 300q-18 -100 82 -100q46 0 83 27.5t84 80.5q-25 48 -52.5 74
t-71.5 26q-53 -1 -84.5 -30t-40.5 -78zM582 408q-46 -1 -84.5 -28.5t-83.5 -80.5q26 -48 53.5 -73.5t71.5 -25.5q53 0 85 29.5t41 78.5q18 100 -83 100z" />
    <glyph glyph-name="approxequal" unicode="&#x2248;" horiz-adv-x="596" 
d="M76 331q23 127 136 127q51 0 99 -27.5t80 -27.5q35 0 58.5 20.5t26.5 37.5l56 -7q-23 -127 -137 -127q-51 0 -98 27.5t-80 27.5q-36 0 -59.5 -21t-25.5 -37zM47 166q9 55 41 91t95 36q51 0 99 -27.5t80 -27.5q35 0 58.5 21t26.5 38l56 -7q-23 -127 -136 -127
q-52 0 -99.5 27.5t-79.5 27.5q-36 0 -59.5 -21t-25.5 -38z" />
    <glyph glyph-name="notequal" unicode="&#x2260;" horiz-adv-x="555" 
d="M75 108l64 85h-85l14 79h130l53 70h-170l14 80h216l60 79h74l-60 -79h104l-15 -80h-149l-53 -70h190l-14 -79h-235l-64 -85h-74z" />
    <glyph glyph-name="lessequal" unicode="&#x2264;" horiz-adv-x="619" 
d="M469 182l-363 139l17 94l409 126l-15 -81l-337 -94l302 -105zM64 89l14 79h388l-14 -79h-388z" />
    <glyph glyph-name="greaterequal" unicode="&#x2265;" horiz-adv-x="589" 
d="M84 180l14 81l337 105l-302 94l14 79l364 -125l-16 -95zM67 89l15 79h388l-15 -79h-388z" />
    <glyph glyph-name="uni2661" unicode="&#x2661;" horiz-adv-x="652" 
d="M472 559q60 0 95 -43t21 -119q-9 -52 -45.5 -107t-82 -96.5t-91 -75.5t-75 -52t-31.5 -18t-25 18.5t-56.5 54t-64 78.5t-47 99.5t-6.5 110.5q14 73 58.5 111.5t99.5 38.5q24 0 45.5 -5.5t35 -13t23 -15t14.5 -13.5l5 -5l6 5q6 6 16.5 13.5t25 15t35.5 13t44 5.5zM502 384
q8 49 -11 73.5t-50 24.5q-28 0 -55.5 -14.5t-40.5 -29.5l-13 -14l-4 -1l-2 3q-1 4 -4 9t-7.5 11t-11 12.5t-14.5 11.5t-18.5 8.5t-22.5 3.5q-33 0 -64.5 -27t-41.5 -78q-9 -50 27 -111t61 -84t49 -42l1 -1l11 7q11 8 29.5 21t40.5 30.5t45 39.5t43 45.5t34.5 50t18.5 51.5z
" />
    <glyph glyph-name="Euro.sc" horiz-adv-x="575" 
d="M177 195q-2 -68 22.5 -99.5t82.5 -31.5q51 0 86 23.5t45 67.5l73 1q-36 -160 -209 -160q-104 0 -147 49t-39 150h-69l10 56h64q5 34 7 48q1 9 5 27h-63l9 56h67q30 108 87 159t162 51q94 0 135 -44t30 -126h-74q14 100 -90 100q-60 0 -98.5 -34.5t-62.5 -105.5h187
l-10 -56h-192q-3 -13 -7 -39q-1 -4 -3 -17t-3 -19h193l-10 -56h-188z" />
    <glyph glyph-name="a.sc" horiz-adv-x="547" 
d="M-53 0l331 592h95l123 -592h-94l-23 135h-267l-70 -135h-95zM152 210h214l-52 310z" />
    <glyph glyph-name="aacute.sc" horiz-adv-x="547" 
d="M299 685l102 144h91l-117 -144h-76zM-53 0l331 592h95l123 -592h-94l-23 135h-267l-70 -135h-95zM152 210h214l-52 310z" />
    <glyph glyph-name="abreve.sc" horiz-adv-x="547" 
d="M513 806q-8 -45 -50.5 -84t-114.5 -39q-76 0 -107.5 39.5t-24.5 83.5h76q-4 -21 11.5 -42t45.5 -21q31 0 57.5 21t29.5 42h77zM-53 0l331 592h95l123 -592h-94l-23 135h-267l-70 -135h-95zM152 210h214l-52 310z" />
    <glyph glyph-name="acircumflex.sc" horiz-adv-x="547" 
d="M497 684h-84l-55 83l-83 -83h-89l136 143h87zM-53 0l331 592h95l123 -592h-94l-23 135h-267l-70 -135h-95zM152 210h214l-52 310z" />
    <glyph glyph-name="acutecomb.case" 
d="M-247 766l98 121h98l-112 -121h-84z" />
    <glyph glyph-name="adieresis.sc" horiz-adv-x="547" 
d="M217 684l22 129h85l-23 -129h-84zM385 684l23 129h84l-22 -129h-85zM-53 0l331 592h95l123 -592h-94l-23 135h-267l-70 -135h-95zM152 210h214l-52 310z" />
    <glyph glyph-name="ae.sc" horiz-adv-x="795" 
d="M-53 0l418 592h443l-13 -76h-305l-30 -175h262l-13 -71h-262l-34 -194h309l-14 -76h-395l25 144h-193l-99 -144h-99zM351 216l53 305l-210 -305h157z" />
    <glyph glyph-name="aeacute.sc" horiz-adv-x="795" 
d="M403 685l102 144h91l-117 -144h-76zM-53 0l418 592h443l-13 -76h-305l-30 -175h262l-13 -71h-262l-34 -194h309l-14 -76h-395l25 144h-193l-99 -144h-99zM351 216l53 305l-210 -305h157z" />
    <glyph glyph-name="agrave.sc" horiz-adv-x="547" 
d="M374 685h-72l-65 144h86zM-53 0l331 592h95l123 -592h-94l-23 135h-267l-70 -135h-95zM152 210h214l-52 310z" />
    <glyph glyph-name="amacron.sc" horiz-adv-x="547" 
d="M233 777h253l-12 -66h-253zM-53 0l331 592h95l123 -592h-94l-23 135h-267l-70 -135h-95zM152 210h214l-52 310z" />
    <glyph glyph-name="ampersand.sc" horiz-adv-x="540" 
d="M310 607q174 0 146 -159h-78q18 96 -69 96q-99 0 -116 -93q-2 -12 -2.5 -23t2 -21.5t5.5 -19.5t9.5 -20.5t12 -20t15.5 -21.5t17.5 -22.5t20.5 -25.5t22 -28l80 -100q34 61 52 163h72q-24 -138 -81 -216l64 -78l-2 -21h-81q-16 20 -34 45q-74 -58 -194 -58
q-105 0 -150.5 48.5t-28.5 142.5q13 73 56 112.5t91 55.5q-35 58 -23 125q25 139 194 139zM172 296q-89 -40 -106 -131q-10 -58 16.5 -89t103.5 -31q89 0 142 46q-43 56 -108 145z" />
    <glyph glyph-name="aogonek.sc" horiz-adv-x="547" 
d="M290 -109q2 12 7 23t12 20.5t15 18.5t17 16t17 13.5t16 11t13.5 7.5t8.5 5l4 2l-21 127h-267l-70 -135h-95l331 592h95l123 -592h-17q-89 -49 -97 -99q-7 -35 27 -35q11 0 23.5 4t19.5 8l8 3l-7 -53q-25 -23 -81 -23q-49 0 -69 24.5t-13 61.5zM152 210h214l-52 310z" />
    <glyph glyph-name="aring.sc" horiz-adv-x="547" 
d="M456 759q-7 -41 -36 -64t-73 -23q-48 0 -71.5 27.5t-15.5 72.5q7 41 36 64t73 23q48 0 71.5 -27t15.5 -73zM319 761q-6 -34 29 -34q19 0 32 11.5t17 30.5q5 35 -29 35q-18 0 -31.5 -12t-17.5 -31zM-53 0l331 592h95l123 -592h-94l-23 135h-267l-70 -135h-95zM152 210h214
l-52 310z" />
    <glyph glyph-name="aringacute.sc" horiz-adv-x="547" 
d="M342 893l102 144h91l-117 -144h-76zM456 759q-7 -41 -36 -64t-73 -23q-48 0 -71.5 27.5t-15.5 72.5q7 41 36 64t73 23q48 0 71.5 -27t15.5 -73zM319 761q-6 -34 29 -34q19 0 32 11.5t17 30.5q5 35 -29 35q-18 0 -31.5 -12t-17.5 -31zM-53 0l331 592h95l123 -592h-94
l-23 135h-267l-70 -135h-95zM152 210h214l-52 310z" />
    <glyph glyph-name="asterisk.sc" horiz-adv-x="338" 
d="M61 544l29 57l83 -34l15 94h61l-20 -94l94 34l11 -57l-96 -29l52 -76l-55 -39l-46 81l-75 -81l-46 41l79 76z" />
    <glyph glyph-name="at.case" horiz-adv-x="863" 
d="M532 -38q-78 -27 -184 -27q-104 0 -175 31.5t-104.5 87.5t-43 132.5t9.5 166.5q33 186 142.5 298.5t305.5 112.5q85 0 149 -20.5t101.5 -58t58.5 -90t21.5 -116t-10.5 -136.5q-26 -145 -69.5 -203.5t-123.5 -58.5q-93 0 -102 100q-56 -60 -151 -60q-180 0 -140 230
q19 106 68.5 163t139.5 57q85 0 134 -63l14 54h65l-54 -304q-11 -59 -2 -90.5t41 -31.5q36 0 63 46t49 168q30 170 -27 261t-224 91q-165 0 -259 -98t-124 -264q-59 -342 248 -342q117 0 189 33zM370 185q96 0 142 72l2 8l31 176q-27 66 -109 66q-58 0 -95 -44t-51 -123
q-27 -155 80 -155z" />
    <glyph glyph-name="atilde.sc" horiz-adv-x="547" 
d="M516 797q-9 -51 -31 -81.5t-72 -30.5q-30 0 -48.5 12t-31.5 24t-29 12q-23 0 -36.5 -16.5t-16.5 -33.5l-60 7q9 51 31.5 81.5t72.5 30.5q30 0 48.5 -12t31 -24t28.5 -12q24 0 37 17t17 33zM-53 0l331 592h95l123 -592h-94l-23 135h-267l-70 -135h-95zM152 210h214
l-52 310z" />
    <glyph glyph-name="b.sc" horiz-adv-x="582" 
d="M30 -2l105 596h202q133 0 177.5 -38.5t30.5 -117.5q-17 -101 -104 -132q92 -36 71 -149q-10 -61 -32.5 -92.5t-80 -49t-163.5 -17.5h-206zM210 526l-33 -185h141q69 0 102 22t41 69q8 50 -19.5 72t-105.5 22h-126zM165 274l-36 -209h119q93 0 132.5 24t50.5 84
q9 52 -19.5 76.5t-99.5 24.5h-147z" />
    <glyph glyph-name="backslash.sc" horiz-adv-x="304" 
d="M263 -57h-80l-142 718h80z" />
    <glyph glyph-name="bar.sc" horiz-adv-x="299" 
d="M46 -77l133 754h66l-134 -754h-65z" />
    <glyph glyph-name="bitcoin" horiz-adv-x="584" 
d="M126 -48l17 93h-118l113 645h118l16 89h55l-16 -89h57l16 89h54l-17 -92q85 -10 114.5 -52t16.5 -114q-10 -56 -37.5 -90.5t-85.5 -50.5q108 -33 86 -163q-15 -87 -56 -125.5t-150 -45.5l-17 -94h-55l17 93h-57l-17 -93h-54zM209 619l-34 -201h139q78 0 112.5 25t43.5 80
q9 51 -17.5 73.5t-96.5 22.5h-147zM161 344l-40 -228h140q88 0 125 25.5t50 92.5q9 57 -20 83.5t-109 26.5h-146z" />
    <glyph glyph-name="bitcoin.sc" horiz-adv-x="518" 
d="M116 -40l13 77h-99l95 541h100l13 74h50l-13 -74h47l13 74h51l-14 -77q71 -9 95.5 -44t14.5 -96q-8 -46 -31.5 -75t-71.5 -42q91 -29 72 -136q-13 -73 -47.5 -105.5t-126.5 -38.5l-13 -78h-51l13 77h-47l-13 -77h-50zM192 512l-28 -159h112q64 0 92.5 18t35.5 60
q8 42 -14.5 61.5t-79.5 19.5h-118zM152 285l-32 -182h113q72 -1 102.5 20t41.5 75q8 45 -16.5 66t-90.5 21h-118z" />
    <glyph glyph-name="braceleft.case" horiz-adv-x="477" 
d="M207 598q10 55 21 83.5t38.5 48t69 25.5t115.5 6l-6 -67q-82 0 -112 -24t-42 -88l-27 -155q-6 -31 -24 -51t-30.5 -24.5t-16.5 -3.5l5 -2q5 -3 12.5 -9t14 -16t10 -25t-0.5 -37l-27 -157q-12 -62 7 -82t102 -20l-5 -68q-96 0 -139.5 15t-54.5 53.5t4 104.5l28 158
q6 31 -7.5 41.5t-67.5 10.5l5 64q54 0 74 13t26 45z" />
    <glyph glyph-name="braceleft.sc" horiz-adv-x="459" 
d="M202 515q12 72 32 104t65 45.5t139 13.5l-5 -68q-83 0 -112.5 -23.5t-41.5 -88.5l-22 -121q-6 -31 -23.5 -50.5t-30 -24t-16.5 -3.5l5 -3q4 -2 12 -8t14.5 -16t10 -25.5t-0.5 -37.5l-22 -123q-11 -62 8 -82t102 -20l-6 -67q-93 0 -134.5 15t-52.5 53.5t4 104.5l21 123
q6 32 -7.5 42.5t-66.5 10.5l5 63q54 0 74 13.5t26 45.5z" />
    <glyph glyph-name="braceright.case" horiz-adv-x="485" 
d="M274 95q-7 -37 -13.5 -59.5t-18.5 -42.5t-27.5 -30.5t-42 -18t-59.5 -10t-83 -2.5l6 68q83 0 112.5 23.5t41.5 88.5l27 155q6 31 24 50.5t30.5 24t16.5 3.5l-5 3q-5 2 -12.5 8t-14 16t-10 25.5t0.5 37.5l27 157q12 62 -7 82t-102 20l5 67q96 0 139.5 -15t54.5 -53.5
t-4 -104.5l-28 -157q-6 -31 8 -42t67 -11l-5 -63q-54 0 -74 -13.5t-26 -45.5z" />
    <glyph glyph-name="braceright.sc" horiz-adv-x="459" 
d="M257 80q-12 -72 -32 -104t-65 -45.5t-140 -13.5l6 67q82 0 112 24t42 88l22 121q6 31 23 50.5t30.5 24.5t16.5 3q1 0 -3 3q-49 28 -38 87l22 123q11 62 -8 82t-102 20l6 68q93 0 134.5 -15t52.5 -54t-4 -105l-21 -123q-6 -32 7 -42t67 -10l-5 -64q-54 0 -74 -13t-26 -45z
" />
    <glyph glyph-name="bracketleft.case" horiz-adv-x="506" 
d="M100 -57l144 817h229l-11 -65h-150l-121 -687h149l-11 -65h-229z" />
    <glyph glyph-name="bracketleft.sc" horiz-adv-x="469" 
d="M90 -79l133 749h222l-12 -65h-148l-109 -620h148l-11 -64h-223z" />
    <glyph glyph-name="bracketright.case" horiz-adv-x="490" 
d="M262 -57h-229l11 65h149l120 687h-147l11 65h229z" />
    <glyph glyph-name="bracketright.sc" horiz-adv-x="462" 
d="M243 -79h-223l11 64h149l109 620h-148l12 65h222z" />
    <glyph glyph-name="brokenbar.sc" horiz-adv-x="299" 
d="M128 389l51 288h66l-51 -288h-66zM169 251l-58 -328h-65l58 328h65z" />
    <glyph glyph-name="c.sc" horiz-adv-x="598" 
d="M522 204q-22 -114 -86.5 -167t-175.5 -53q-136 0 -182.5 78t-18.5 239q28 158 98 232t201 74q234 0 197 -224l-85 1q10 75 -18 110.5t-97 35.5q-88 0 -137 -57t-71 -179t4.5 -177t112.5 -55q142 0 173 143z" />
    <glyph glyph-name="cacute.sc" horiz-adv-x="598" 
d="M328 688l102 144h91l-117 -144h-76zM522 204q-22 -114 -86.5 -167t-175.5 -53q-136 0 -182.5 78t-18.5 239q28 158 98 232t201 74q234 0 197 -224l-85 1q10 75 -18 110.5t-97 35.5q-88 0 -137 -57t-71 -179t4.5 -177t112.5 -55q142 0 173 143z" />
    <glyph glyph-name="caroncomb.alt" 
d="M-238 606l77 154h78l-99 -154h-56z" />
    <glyph glyph-name="caroncomb.alt.case" 
d="M-246 766l80 151h82l-95 -151h-67z" />
    <glyph glyph-name="ccaron.sc" horiz-adv-x="598" 
d="M553 830l-138 -143h-87l-84 143h81l55 -81l83 81h90zM522 204q-22 -114 -86.5 -167t-175.5 -53q-136 0 -182.5 78t-18.5 239q28 158 98 232t201 74q234 0 197 -224l-85 1q10 75 -18 110.5t-97 35.5q-88 0 -137 -57t-71 -179t4.5 -177t112.5 -55q142 0 173 143z" />
    <glyph glyph-name="ccedilla.sc" horiz-adv-x="598" 
d="M336 -148q-7 -47 -40 -66t-104 -19q-21 0 -39 2.5t-25 4.5l-8 2l6 50q0 -3 42 -3q39 0 59 11t25 38q4 22 -15.5 30t-59.5 8h-9l48 77q-110 12 -146.5 89t-10.5 225q28 158 98 232t201 74q234 0 197 -224l-85 1q10 75 -18 110.5t-97 35.5q-88 0 -137 -57t-71 -179
t4.5 -177t112.5 -55q142 0 173 143l85 -1q-20 -103 -74.5 -156t-147.5 -62l-31 -49q35 -5 54.5 -26t12.5 -59z" />
    <glyph glyph-name="ccircumflex.sc" horiz-adv-x="598" 
d="M526 687h-84l-55 83l-83 -83h-89l136 143h87zM522 204q-22 -114 -86.5 -167t-175.5 -53q-136 0 -182.5 78t-18.5 239q28 158 98 232t201 74q234 0 197 -224l-85 1q10 75 -18 110.5t-97 35.5q-88 0 -137 -57t-71 -179t4.5 -177t112.5 -55q142 0 173 143z" />
    <glyph glyph-name="cdotaccent.sc" horiz-adv-x="598" 
d="M328 694l21 122h91l-21 -122h-91zM522 204q-22 -114 -86.5 -167t-175.5 -53q-136 0 -182.5 78t-18.5 239q28 158 98 232t201 74q234 0 197 -224l-85 1q10 75 -18 110.5t-97 35.5q-88 0 -137 -57t-71 -179t4.5 -177t112.5 -55q142 0 173 143z" />
    <glyph glyph-name="cent.sc" horiz-adv-x="511" 
d="M169 -17l12 72q-87 12 -116 72.5t-10 166.5t67.5 163t141.5 66l12 71h74l-13 -71q157 -17 133 -176h-83q15 92 -62 106l-58 -327q81 14 96 91h84q-33 -152 -193 -163l-12 -71h-73zM141 284q-13 -71 -1 -110t54 -48l57 324q-86 -24 -110 -166z" />
    <glyph glyph-name="d.sc" horiz-adv-x="609" 
d="M30 -2l105 596h185q114 0 171 -33.5t66.5 -101t-8.5 -169.5q-14 -81 -33.5 -131.5t-56 -89t-94.5 -55t-145 -16.5h-190zM208 517l-78 -444h114q99 0 147 51t71 178q21 120 -8 167.5t-127 47.5h-119z" />
    <glyph glyph-name="dagger.sups" horiz-adv-x="230" 
d="M69 656h67l14 79h61l-14 -79h66l-9 -53h-67l-40 -230h-61l40 230h-66z" />
    <glyph glyph-name="daggerdbl.sups" horiz-adv-x="281" 
d="M96 656h68l14 79h60l-14 -79h66l-9 -53h-66l-18 -98h67l-10 -53h-66l-14 -79h-60l14 79h-68l10 53h67l18 98h-68z" />
    <glyph glyph-name="dcaron.sc" horiz-adv-x="609" 
d="M537 827l-138 -143h-87l-84 143h81l55 -81l83 81h90zM30 -2l105 596h185q114 0 171 -33.5t66.5 -101t-8.5 -169.5q-14 -81 -33.5 -131.5t-56 -89t-94.5 -55t-145 -16.5h-190zM208 517l-78 -444h114q99 0 147 51t71 178q21 120 -8 167.5t-127 47.5h-119z" />
    <glyph glyph-name="dcroat.sc" horiz-adv-x="609" 
d="M77 264h-66l10 64h67l47 266h185q114 0 171 -33.5t66.5 -101t-8.5 -169.5q-14 -81 -33.5 -131.5t-56 -89t-94.5 -55t-145 -16.5h-190zM164 264l-34 -191h114q99 0 147 51t71 178q21 120 -8 167.5t-127 47.5h-119l-33 -189h112l-9 -64h-114z" />
    <glyph glyph-name="degree.sc" horiz-adv-x="276" 
d="M276 520q-18 -108 -121 -108q-56 0 -79 31t-13 89q20 110 121 110q114 0 92 -122zM116 522q-12 -62 39 -62q59 0 69 71q9 63 -39 63q-58 0 -69 -72z" />
    <glyph glyph-name="dollar.sc" horiz-adv-x="502" 
d="M151 -38l12 71q-161 21 -133 176h72q-15 -94 73 -108l33 187q-34 9 -56.5 19t-44.5 27t-30 43.5t-1 63.5q24 132 184 142l10 58h74l-11 -60q82 -9 111 -50t17 -112h-75q3 21 2.5 40t-17 34.5t-49.5 20.5l-32 -183q36 -10 58.5 -19.5t46.5 -26.5t32.5 -44.5t2.5 -64.5
q-25 -134 -193 -145l-12 -69h-74zM149 432q-6 -32 12.5 -50t57.5 -31l29 163q-86 -12 -99 -82zM354 185q6 33 -14 51.5t-61 32.5l-30 -170q92 10 105 86z" />
    <glyph glyph-name="e.sc" horiz-adv-x="511" 
d="M30 0l104 592h390l-13 -76h-304l-30 -172h262l-14 -77h-261l-34 -191h309l-14 -76h-395z" />
    <glyph glyph-name="eacute.sc" horiz-adv-x="511" 
d="M299 685l102 144h91l-117 -144h-76zM30 0l104 592h390l-13 -76h-304l-30 -172h262l-14 -77h-261l-34 -191h309l-14 -76h-395z" />
    <glyph glyph-name="ebreve.sc" horiz-adv-x="511" 
d="M513 806q-8 -45 -50.5 -84t-114.5 -39q-76 0 -107.5 39.5t-24.5 83.5h76q-4 -21 11.5 -42t45.5 -21q31 0 57.5 21t29.5 42h77zM30 0l104 592h390l-13 -76h-304l-30 -172h262l-14 -77h-261l-34 -191h309l-14 -76h-395z" />
    <glyph glyph-name="ecaron.sc" horiz-adv-x="511" 
d="M524 827l-138 -143h-87l-84 143h81l55 -81l83 81h90zM30 0l104 592h390l-13 -76h-304l-30 -172h262l-14 -77h-261l-34 -191h309l-14 -76h-395z" />
    <glyph glyph-name="ecircumflex.sc" horiz-adv-x="511" 
d="M497 684h-84l-55 83l-83 -83h-89l136 143h87zM30 0l104 592h390l-13 -76h-304l-30 -172h262l-14 -77h-261l-34 -191h309l-14 -76h-395z" />
    <glyph glyph-name="edieresis.sc" horiz-adv-x="511" 
d="M217 684l22 129h85l-23 -129h-84zM385 684l23 129h84l-22 -129h-85zM30 0l104 592h390l-13 -76h-304l-30 -172h262l-14 -77h-261l-34 -191h309l-14 -76h-395z" />
    <glyph glyph-name="edotaccent.sc" horiz-adv-x="511" 
d="M299 691l21 122h91l-21 -122h-91zM30 0l104 592h390l-13 -76h-304l-30 -172h262l-14 -77h-261l-34 -191h309l-14 -76h-395z" />
    <glyph glyph-name="egrave.sc" horiz-adv-x="511" 
d="M374 685h-72l-65 144h86zM30 0l104 592h390l-13 -76h-304l-30 -172h262l-14 -77h-261l-34 -191h309l-14 -76h-395z" />
    <glyph glyph-name="eight.dnom" horiz-adv-x="494" 
d="M206 -9q-105 0 -145.5 41.5t-26.5 115.5q11 63 45.5 94.5t65.5 33.5q-20 2 -40.5 31.5t-11.5 81.5q24 136 196 136q97 0 133 -40t24 -109q-9 -49 -37 -74t-52 -27q26 -2 50 -38t13 -101q-12 -70 -62 -107.5t-152 -37.5zM289 466q-106 0 -124 -96q-5 -35 14.5 -51.5
t71.5 -16.5q107 0 121 80q7 45 -12.5 64.5t-70.5 19.5zM250 243q-117 0 -136 -99q-7 -46 15 -67t78 -21q119 0 136 101q8 44 -14 65t-79 21z" />
    <glyph glyph-name="eight.numr" horiz-adv-x="494" 
d="M249 236q-105 0 -145.5 41.5t-26.5 115.5q11 63 45.5 94.5t65.5 33.5q-20 2 -40.5 31.5t-11.5 81.5q24 136 196 136q97 0 133 -40t24 -109q-9 -49 -37 -74t-52 -27q26 -2 50 -38t13 -101q-12 -70 -62 -107.5t-152 -37.5zM332 711q-106 0 -124 -96q-5 -35 14.5 -51.5
t71.5 -16.5q107 0 121 80q7 45 -12.5 64.5t-70.5 19.5zM293 488q-117 0 -136 -99q-7 -46 15 -67t78 -21q119 0 136 101q8 44 -14 65t-79 21z" />
    <glyph glyph-name="eight.osf" horiz-adv-x="628" 
d="M268 -11q-136 0 -188.5 55.5t-34.5 155.5q8 46 28.5 82t45 55.5t45.5 29t36 10.5q-9 1 -22.5 10.5t-29 26t-23 47.5t-0.5 68q34 188 260 188q125 0 172 -53.5t31 -146.5q-7 -36 -24 -64.5t-37 -44t-37 -23.5t-28 -9q12 -2 29 -13t35 -31.5t26.5 -58.5t0.5 -85
q-36 -199 -285 -199zM382 646q-143 0 -168 -136q-8 -48 21.5 -74.5t96.5 -26.5q68 0 111.5 31t52.5 82q12 64 -16.5 94t-97.5 30zM328 337q-76 0 -125 -37t-61 -102q-11 -67 21 -98t109 -31q161 0 186 141q11 61 -22 94t-108 33z" />
    <glyph glyph-name="eight.sc" horiz-adv-x="541" 
d="M226 -9q-121 0 -167 46.5t-32 130.5q13 71 55 107.5t75 38.5q-7 1 -18.5 8.5t-24 22t-19 40t-0.5 56.5q27 156 226 156q112 0 154.5 -45t28.5 -123q-10 -55 -45 -84.5t-60 -30.5q10 -1 24 -10.5t29 -27.5t22 -49.5t0 -70.5q-14 -80 -72 -122.5t-176 -42.5zM321 531
q-125 0 -143 -103q-7 -40 18.5 -63t81.5 -23q60 0 96.5 24.5t44.5 65.5q9 52 -15 75.5t-83 23.5zM276 278q-67 0 -107 -28t-49 -77q-19 -109 109 -109q138 0 157 107q8 51 -19.5 79t-90.5 28z" />
    <glyph glyph-name="eight.subs" horiz-adv-x="494" 
d="M156 -203q-105 0 -145.5 41.5t-26.5 115.5q11 63 45.5 94.5t65.5 33.5q-20 2 -40.5 31.5t-11.5 81.5q24 136 196 136q97 0 133 -40t24 -109q-9 -49 -37 -74t-52 -27q26 -2 50 -38t13 -101q-12 -70 -62 -107.5t-152 -37.5zM239 272q-106 0 -124 -96q-5 -35 14.5 -51.5
t71.5 -16.5q107 0 121 80q7 45 -12.5 64.5t-70.5 19.5zM200 49q-117 0 -136 -99q-7 -46 15 -67t78 -21q119 0 136 101q8 44 -14 65t-79 21z" />
    <glyph glyph-name="eight.tf" horiz-adv-x="656" 
d="M273 -11q-141 0 -195 55.5t-36 155.5q8 46 28.5 82t45.5 55.5t46 29t36 10.5q-9 1 -22.5 10.5t-29 26t-23 47.5t-0.5 68q34 188 266 188q129 0 178 -53.5t32 -146.5q-12 -67 -54 -103t-72 -38q13 -2 30 -13t35 -31.5t26 -58.5t0 -85q-17 -96 -85.5 -147.5t-205.5 -51.5z
M387 646q-151 0 -175 -136q-8 -48 23 -74.5t102 -26.5q73 0 117.5 30.5t53.5 82.5q12 65 -18 94.5t-103 29.5zM332 337q-81 0 -130.5 -37t-61.5 -102q-12 -67 21.5 -98t115.5 -31q168 0 193 141q11 61 -23.5 94t-114.5 33z" />
    <glyph glyph-name="emacron.sc" horiz-adv-x="511" 
d="M233 777h253l-12 -66h-253zM30 0l104 592h390l-13 -76h-304l-30 -172h262l-14 -77h-261l-34 -191h309l-14 -76h-395z" />
    <glyph glyph-name="eng.sc" horiz-adv-x="645" 
d="M615 592l-104 -592q-8 -46 -20.5 -77t-35 -57.5t-60.5 -39.5t-92 -13h-46l12 65h40q57 0 86.5 28.5t40.5 93.5l-243 481l-81 -481h-82l107 592h90l230 -462l77 462h81z" />
    <glyph glyph-name="eogonek.sc" horiz-adv-x="511" 
d="M234 -110q12 64 97 110h-301l104 592h390l-13 -76h-304l-30 -172h262l-14 -77h-261l-34 -191h309l-14 -76q-12 -6 -28 -16t-41.5 -35t-29.5 -49q-7 -35 27 -35q11 0 23.5 3.5t19.5 7.5l8 4l-7 -53q-25 -23 -81 -23q-49 0 -69 24.5t-13 61.5z" />
    <glyph glyph-name="eth.sc" horiz-adv-x="609" 
d="M30 -2l47 266h-66l10 64h67l47 266h185q114 0 171 -33.5t66.5 -101t-8.5 -169.5q-14 -81 -33.5 -131.5t-56 -89t-94.5 -55t-145 -16.5h-190zM163 264l-33 -191h114q99 0 147 51t71 178q21 120 -8 167.5t-127 47.5h-119l-33 -189h112l-9 -64h-115z" />
    <glyph glyph-name="exclam.sc" horiz-adv-x="264" 
d="M68 169l71 424h90l-77 -424h-84zM35 0l21 117h90l-21 -117h-90z" />
    <glyph glyph-name="exclamdown.case" horiz-adv-x="323" 
d="M157 594l21 117h90l-21 -117h-90zM52 0l99 542h84l-93 -542h-90z" />
    <glyph glyph-name="exclamdown.sc" horiz-adv-x="261" 
d="M119 476l21 117h90l-21 -117h-90zM35 0l79 424h83l-72 -424h-90z" />
    <glyph glyph-name="f.sc" horiz-adv-x="486" 
d="M30 0l104 592h385l-13 -76h-299l-32 -186h255l-13 -79h-256l-44 -251h-87z" />
    <glyph glyph-name="five.dnom" horiz-adv-x="467" 
d="M199 446l-46 -134q44 28 111 28q85 0 120 -51t21 -130q-30 -169 -212 -169q-100 0 -140.5 43.5t-30.5 104.5h78q-7 -35 16.5 -59.5t77.5 -24.5q114 0 135 117q9 52 -13.5 79.5t-74.5 27.5q-77 0 -115 -45h-72l92 277h292l-12 -66z" />
    <glyph glyph-name="five.numr" horiz-adv-x="467" 
d="M242 691l-46 -134q44 28 111 28q85 0 120 -51t21 -130q-30 -169 -212 -169q-100 0 -140.5 43.5t-30.5 104.5h78q-7 -35 17 -59.5t77 -24.5q114 0 135 117q9 52 -13.5 79.5t-74.5 27.5q-77 0 -115 -45h-72l92 277h292l-12 -66z" />
    <glyph glyph-name="five.osf" horiz-adv-x="544" 
d="M208 476l-67 -194q61 42 159 42q106 0 150.5 -69t25.5 -177q-18 -106 -87 -168t-194 -62q-129 0 -181.5 58.5t-38.5 139.5h93q-9 -50 25 -84t106 -34q75 0 123.5 42.5t62.5 120.5q13 75 -18 116t-97 41t-107.5 -22t-55.5 -43l-86 1l125 376h376l-14 -81z" />
    <glyph glyph-name="five.sc" horiz-adv-x="523" 
d="M226 505l-53 -153q50 34 136 34q95 0 133 -58t23 -147q-34 -192 -244 -192q-116 0 -162.5 50.5t-34.5 119.5h88q-7 -41 21 -68.5t91 -27.5q66 0 105.5 33t50.5 94q11 63 -15 96t-83 33q-41 0 -74.5 -12t-45.5 -21.5t-18 -17.5h-84l107 312h336l-14 -74z" />
    <glyph glyph-name="five.subs" horiz-adv-x="467" 
d="M149 252l-46 -134q44 28 111 28q85 0 120 -51t21 -130q-30 -169 -212 -169q-100 0 -140.5 43.5t-30.5 104.5h78q-7 -35 16.5 -59.5t77.5 -24.5q114 0 135 117q9 52 -13.5 79.5t-74.5 27.5q-77 0 -115 -45h-72l92 277h292l-12 -66z" />
    <glyph glyph-name="five.tf" horiz-adv-x="656" 
d="M268 613l-66 -191q63 42 165 42q111 0 156.5 -69t26.5 -177q-42 -230 -287 -230q-70 0 -119.5 17t-74.5 46t-33.5 63t-1.5 72h94q-8 -50 26.5 -84t112.5 -34q80 0 129.5 42.5t63.5 120.5q13 75 -20 116t-103 41q-48 0 -87 -13.5t-55.5 -26t-26.5 -25.5l-88 1l125 373h391
l-14 -81z" />
    <glyph glyph-name="four.dnom" horiz-adv-x="442" 
d="M235 0l18 105h-262l10 65l284 345h114l-61 -345h61l-13 -65h-60l-18 -105h-73zM265 170l51 292l-229 -292h178z" />
    <glyph glyph-name="four.numr" horiz-adv-x="442" 
d="M278 245l18 105h-262l10 65l284 345h114l-61 -345h61l-13 -65h-60l-18 -105h-73zM308 415l51 292l-229 -292h178z" />
    <glyph glyph-name="four.osf" horiz-adv-x="529" 
d="M285 -168l29 168h-361l12 75l400 485h135l-86 -485h83l-14 -75h-82l-29 -168h-87zM327 75l76 428l-341 -428h265z" />
    <glyph glyph-name="four.sc" horiz-adv-x="511" 
d="M278 0l21 119h-303l11 72l330 394h128l-70 -394h69l-12 -72h-69l-21 -119h-84zM311 191l60 340l-273 -340h213z" />
    <glyph glyph-name="four.subs" horiz-adv-x="442" 
d="M185 -194l18 105h-262l10 65l284 345h114l-61 -345h61l-13 -65h-60l-18 -105h-73zM215 -24l51 292l-229 -292h178z" />
    <glyph glyph-name="four.tf" horiz-adv-x="657" 
d="M347 0l26 148h-361l13 78l399 478h136l-85 -478h83l-14 -78h-82l-26 -148h-89zM386 226l75 422l-338 -422h263z" />
    <glyph glyph-name="g.sc" horiz-adv-x="602" 
d="M493 71q0 -3 -9 -12t-29 -22t-46.5 -24.5t-66.5 -20t-84 -8.5q-135 0 -181 77.5t-18 239.5q28 158 97.5 232t199.5 74q114 0 163 -55.5t32 -152.5l-82 1q9 59 -21 94.5t-95 35.5q-87 0 -135.5 -57.5t-70.5 -179.5q-22 -123 4.5 -178.5t112.5 -55.5q43 0 81 11.5
t56.5 24.5t19.5 21l18 109h-116l12 67h196z" />
    <glyph glyph-name="gbreve.sc" horiz-adv-x="602" 
d="M544 809q-8 -45 -50.5 -84t-114.5 -39q-76 0 -107.5 39.5t-24.5 83.5h76q-4 -21 11.5 -42t45.5 -21q31 0 57.5 21t29.5 42h77zM493 71q0 -3 -9 -12t-29 -22t-46.5 -24.5t-66.5 -20t-84 -8.5q-135 0 -181 77.5t-18 239.5q28 158 97.5 232t199.5 74q114 0 163 -55.5
t32 -152.5l-82 1q9 59 -21 94.5t-95 35.5q-87 0 -135.5 -57.5t-70.5 -179.5q-22 -123 4.5 -178.5t112.5 -55.5q43 0 81 11.5t56.5 24.5t19.5 21l18 109h-116l12 67h196z" />
    <glyph glyph-name="gcaron.sc" horiz-adv-x="602" 
d="M555 830l-138 -143h-87l-84 143h81l55 -81l83 81h90zM493 71q0 -3 -9 -12t-29 -22t-46.5 -24.5t-66.5 -20t-84 -8.5q-135 0 -181 77.5t-18 239.5q28 158 97.5 232t199.5 74q114 0 163 -55.5t32 -152.5l-82 1q9 59 -21 94.5t-95 35.5q-87 0 -135.5 -57.5t-70.5 -179.5
q-22 -123 4.5 -178.5t112.5 -55.5q43 0 81 11.5t56.5 24.5t19.5 21l18 109h-116l12 67h196z" />
    <glyph glyph-name="gcircumflex.sc" horiz-adv-x="602" 
d="M528 687h-84l-55 83l-83 -83h-89l136 143h87zM493 71q0 -3 -9 -12t-29 -22t-46.5 -24.5t-66.5 -20t-84 -8.5q-135 0 -181 77.5t-18 239.5q28 158 97.5 232t199.5 74q114 0 163 -55.5t32 -152.5l-82 1q9 59 -21 94.5t-95 35.5q-87 0 -135.5 -57.5t-70.5 -179.5
q-22 -123 4.5 -178.5t112.5 -55.5q43 0 81 11.5t56.5 24.5t19.5 21l18 109h-116l12 67h196z" />
    <glyph glyph-name="gcommaaccent.sc" horiz-adv-x="602" 
d="M493 71q0 -3 -9 -12t-29 -22t-46.5 -24.5t-66.5 -20t-84 -8.5q-135 0 -181 77.5t-18 239.5q28 158 97.5 232t199.5 74q114 0 163 -55.5t32 -152.5l-82 1q9 59 -21 94.5t-95 35.5q-87 0 -135.5 -57.5t-70.5 -179.5q-22 -123 4.5 -178.5t112.5 -55.5q43 0 81 11.5
t56.5 24.5t19.5 21l18 109h-116l12 67h196zM146 -255q26 44 50 105q9 23 17 46.5t11 35.5l4 12l82 -1q-15 -55 -41 -110q-13 -27 -27 -49t-22 -31l-7 -9z" />
    <glyph glyph-name="gdotaccent.sc" horiz-adv-x="602" 
d="M330 694l21 122h91l-21 -122h-91zM493 71q0 -3 -9 -12t-29 -22t-46.5 -24.5t-66.5 -20t-84 -8.5q-135 0 -181 77.5t-18 239.5q28 158 97.5 232t199.5 74q114 0 163 -55.5t32 -152.5l-82 1q9 59 -21 94.5t-95 35.5q-87 0 -135.5 -57.5t-70.5 -179.5q-22 -123 4.5 -178.5
t112.5 -55.5q43 0 81 11.5t56.5 24.5t19.5 21l18 109h-116l12 67h196z" />
    <glyph glyph-name="germandbls.sc" horiz-adv-x="590" 
d="M541 180q-32 -180 -245 -180h-125l13 72h111q137 0 159 131q10 58 -19 88.5t-90 30.5q-18 0 -36.5 -2.5t-28.5 -5.5l-10 -2l8 54l199 156h-161q-113 -1 -135 -123l-70 -399h-85l72 409q15 89 61.5 135.5t157.5 47.5h275l-12 -70l-185 -146q177 -19 146 -196z" />
    <glyph glyph-name="gravecomb.case" 
d="M-57 767h-78l-71 121h94z" />
    <glyph glyph-name="guillemotleft.case" horiz-adv-x="574" 
d="M151 158l-90 154l2 20l145 161h105l-161 -172l101 -163h-102zM329 158l-90 154l2 20l145 161h105l-161 -172l101 -163h-102z" />
    <glyph glyph-name="guillemotright.case" horiz-adv-x="563" 
d="M170 158h-106l159 166l-98 169h100l90 -161l-1 -20zM348 158h-106l159 166l-98 169h100l90 -161l-1 -20z" />
    <glyph glyph-name="guilsinglleft.case" horiz-adv-x="396" 
d="M151 158l-90 154l2 20l145 161h105l-161 -172l101 -163h-102z" />
    <glyph glyph-name="guilsinglright.case" horiz-adv-x="387" 
d="M172 158h-108l160 166l-98 169h101l90 -161l-2 -20z" />
    <glyph glyph-name="h.sc" horiz-adv-x="619" 
d="M30 0l104 592h87l-44 -248h282l44 248h86l-104 -592h-86l47 267h-282l-47 -267h-87z" />
    <glyph glyph-name="hbar.sc" horiz-adv-x="619" 
d="M557 409l-72 -409h-86l47 267h-282l-47 -267h-87l72 409h-68l8 71h72l20 112h87l-20 -112h282l20 112h86l-20 -112h70l-8 -71h-74zM459 344l11 65h-282l-11 -65h282z" />
    <glyph glyph-name="hcircumflex.sc" horiz-adv-x="619" 
d="M532 684h-84l-55 83l-83 -83h-89l136 143h87zM30 0l104 592h87l-44 -248h282l44 248h86l-104 -592h-86l47 267h-282l-47 -267h-87z" />
    <glyph glyph-name="i.loclTRK" horiz-adv-x="255" 
d="M146 637l21 122h91l-21 -122h-91zM34 0l95 538h90l-95 -538h-90z" />
    <glyph glyph-name="i.sc" horiz-adv-x="251" 
d="M30 0l104 592h87l-104 -592h-87z" />
    <glyph glyph-name="i.sc.loclTRK" horiz-adv-x="251" 
d="M152 691l21 122h91l-21 -122h-91zM30 0l104 592h87l-104 -592h-87z" />
    <glyph glyph-name="iacute.sc" horiz-adv-x="251" 
d="M152 685l102 144h91l-117 -144h-76zM30 0l104 592h87l-104 -592h-87z" />
    <glyph glyph-name="ibreve.sc" horiz-adv-x="251" 
d="M366 806q-8 -45 -50.5 -84t-114.5 -39q-76 0 -107.5 39.5t-24.5 83.5h76q-4 -21 11.5 -42t45.5 -21q31 0 57.5 21t29.5 42h77zM30 0l104 592h87l-104 -592h-87z" />
    <glyph glyph-name="icircumflex.sc" horiz-adv-x="251" 
d="M350 684h-84l-55 83l-83 -83h-89l136 143h87zM30 0l104 592h87l-104 -592h-87z" />
    <glyph glyph-name="idieresis.sc" horiz-adv-x="251" 
d="M70 684l22 129h85l-23 -129h-84zM238 684l23 129h84l-22 -129h-85zM30 0l104 592h87l-104 -592h-87z" />
    <glyph glyph-name="igrave.sc" horiz-adv-x="251" 
d="M227 685h-72l-65 144h86zM30 0l104 592h87l-104 -592h-87z" />
    <glyph glyph-name="ij.sc" horiz-adv-x="528" 
d="M30 0l104 592h87l-104 -592h-87zM446 221q-9 -48 -14.5 -73.5t-16.5 -55t-24.5 -43.5t-36 -27t-53.5 -17.5t-74 -4.5h-31l14 76h26q63 0 86 31.5t38 119.5l64 364h87z" />
    <glyph glyph-name="imacron.sc" horiz-adv-x="251" 
d="M86 777h253l-12 -66h-253zM30 0l104 592h87l-104 -592h-87z" />
    <glyph glyph-name="iogonek.sc" horiz-adv-x="251" 
d="M-77 -110q6 31 33 59.5t45 39t30 16.5l103 587h87l-104 -592h-2q-10 -5 -25.5 -14t-43 -35.5t-31.5 -50.5q-7 -35 27 -35q11 0 23.5 3.5t20.5 7.5l7 4l-7 -53q-25 -23 -81 -23q-49 0 -69 24.5t-13 61.5z" />
    <glyph glyph-name="itilde.sc" horiz-adv-x="251" 
d="M369 797q-9 -51 -31 -81.5t-72 -30.5q-30 0 -48.5 12t-31.5 24t-29 12q-23 0 -36.5 -16.5t-16.5 -33.5l-60 7q9 51 31.5 81.5t72.5 30.5q30 0 48.5 -12t31 -24t28.5 -12q24 0 37 17t17 33zM30 0l104 592h87l-104 -592h-87z" />
    <glyph glyph-name="j.sc" horiz-adv-x="277" 
d="M195 221q-9 -48 -14.5 -73.5t-16.5 -55t-24.5 -43.5t-36 -27t-53.5 -17.5t-74 -4.5h-31l14 76h26q63 0 86 31.5t38 119.5l64 364h87z" />
    <glyph glyph-name="jcircumflex.sc" horiz-adv-x="277" 
d="M378 643h-84l-55 83l-83 -83h-89l136 143h87zM195 221q-9 -48 -14.5 -73.5t-16.5 -55t-24.5 -43.5t-36 -27t-53.5 -17.5t-74 -4.5h-31l14 76h26q63 0 86 31.5t38 119.5l64 364h87z" />
    <glyph glyph-name="k.sc" horiz-adv-x="561" 
d="M30 0l104 592h87l-59 -337l329 337h112l-248 -247l143 -345h-96l-115 278l-147 -146l-23 -132h-87z" />
    <glyph glyph-name="kcommaaccent.sc" horiz-adv-x="561" 
d="M30 0l104 592h87l-59 -337l329 337h112l-248 -247l143 -345h-96l-115 278l-147 -146l-23 -132h-87zM120 -239q26 44 50 105q9 23 17 46.5t11 35.5l4 12l82 -1q-15 -55 -41 -110q-13 -27 -27 -49t-22 -31l-7 -9z" />
    <glyph glyph-name="l.sc" horiz-adv-x="429" 
d="M30 0l104 592h87l-90 -511h263l-15 -81h-349z" />
    <glyph glyph-name="lacute.sc" horiz-adv-x="429" 
d="M156 685l102 144h91l-117 -144h-76zM30 0l104 592h87l-90 -511h263l-15 -81h-349z" />
    <glyph glyph-name="lcaron.sc" horiz-adv-x="429" 
d="M274 463l77 154h78l-99 -154h-56zM30 0l104 592h87l-90 -511h263l-15 -81h-349z" />
    <glyph glyph-name="lcommaaccent.sc" horiz-adv-x="429" 
d="M30 0l104 592h87l-90 -511h263l-15 -81h-349zM78 -238q26 44 50 105q9 23 17 46.5t11 35.5l4 12l82 -1q-15 -55 -41 -110q-13 -27 -27 -49t-22 -31l-7 -9z" />
    <glyph glyph-name="ldot.sc" horiz-adv-x="433" 
d="M30 0l104 592h87l-90 -511h263l-15 -81h-349zM221 249l22 129h93l-23 -129h-92z" />
    <glyph glyph-name="lslash.sc" horiz-adv-x="429" 
d="M168 292l-37 -211h263l-15 -81h-349l42 242l-85 -44l-20 58l119 62l48 274h87l-40 -224l88 46l21 -58z" />
    <glyph glyph-name="m.sc" horiz-adv-x="805" 
d="M30 0l104 592h118l108 -512l290 512h125l-106 -592h-84l92 489l-288 -489h-84l-112 494l-80 -494h-83z" />
    <glyph glyph-name="n.sc" horiz-adv-x="645" 
d="M194 491l-83 -491h-81l107 592h93l223 -485l80 485h82l-104 -592h-93z" />
    <glyph glyph-name="nacute.sc" horiz-adv-x="645" 
d="M348 685l102 144h91l-117 -144h-76zM194 491l-83 -491h-81l107 592h93l223 -485l80 485h82l-104 -592h-93z" />
    <glyph glyph-name="ncaron.sc" horiz-adv-x="645" 
d="M573 827l-138 -143h-87l-84 143h81l55 -81l83 81h90zM194 491l-83 -491h-81l107 592h93l223 -485l80 485h82l-104 -592h-93z" />
    <glyph glyph-name="ncommaaccent.sc" horiz-adv-x="645" 
d="M194 491l-83 -491h-81l107 592h93l223 -485l80 485h82l-104 -592h-93zM161 -239q26 44 50 105q9 23 17 46.5t12 35.5l3 12l82 -1q-15 -55 -41 -110q-13 -27 -27 -49t-21 -31l-8 -9z" />
    <glyph glyph-name="nine.dnom" horiz-adv-x="511" 
d="M450 269q-28 -159 -80.5 -219t-160.5 -60q-98 0 -137 45.5t-29 101.5h74q-5 -32 16.5 -56.5t75.5 -24.5q57 0 91.5 31.5t57.5 117.5q-56 -48 -136 -48q-95 0 -128.5 53.5t-16.5 144.5q30 169 216 170q109 0 145 -60.5t12 -195.5zM237 222q85 0 140 70q15 94 -5 130.5
t-79 36.5q-120 0 -139 -117q-22 -120 83 -120z" />
    <glyph glyph-name="nine.numr" horiz-adv-x="511" 
d="M493 514q-28 -159 -80.5 -219t-160.5 -60q-98 0 -137 45.5t-29 101.5h74q-5 -32 16.5 -56.5t75.5 -24.5q57 0 91.5 31.5t57.5 117.5q-56 -48 -136 -48q-95 0 -128.5 53.5t-16.5 144.5q30 169 216 170q109 0 145 -60.5t12 -195.5zM280 467q85 0 140 70q15 94 -5 130.5
t-79 36.5q-120 0 -139 -117q-23 -120 83 -120z" />
    <glyph glyph-name="nine.osf" horiz-adv-x="617" 
d="M543 222q-38 -217 -109.5 -300t-208.5 -83q-53 0 -94 12.5t-64 33t-38.5 46.5t-17 53t0.5 52h88q-9 -46 22.5 -82.5t104.5 -36.5q77 0 125.5 48t82.5 177q-77 -75 -191 -75q-121 0 -164.5 72.5t-21.5 196.5q19 105 92 169t194 65q138 0 184.5 -82.5t14.5 -265.5zM264 148
q118 0 194 106q20 130 -8.5 183t-107.5 53q-73 0 -126.5 -45t-66.5 -123q-31 -174 115 -174z" />
    <glyph glyph-name="nine.sc" horiz-adv-x="550" 
d="M493 307q-31 -181 -91.5 -249.5t-185.5 -68.5q-60 0 -102.5 16t-62 42t-26 54t-1.5 57l85 -2q-6 -38 19.5 -66.5t88.5 -28.5q65 0 105.5 37.5t67.5 138.5q-63 -57 -160 -57q-110 0 -148 60t-19 163q14 87 77 140t173 54q125 0 166.5 -68.5t13.5 -221.5zM248 250
q100 0 162 83q17 105 -7 147.5t-92 42.5q-64 0 -107.5 -33.5t-53.5 -94.5q-26 -145 98 -145z" />
    <glyph glyph-name="nine.subs" horiz-adv-x="511" 
d="M400 75q-28 -159 -80.5 -219t-160.5 -60q-98 0 -137 45.5t-29 101.5h74q-5 -32 16.5 -56.5t75.5 -24.5q57 0 91.5 31.5t57.5 117.5q-56 -48 -136 -48q-95 0 -128.5 53.5t-16.5 144.5q30 169 216 170q109 0 145 -60.5t12 -195.5zM187 28q85 0 140 70q15 94 -5 130.5
t-79 36.5q-120 0 -139 -117q-22 -120 83 -120z" />
    <glyph glyph-name="nine.tf" horiz-adv-x="657" 
d="M585 370q-39 -217 -110.5 -299.5t-216.5 -82.5q-69 0 -118 18.5t-72 49t-31 63.5t-2 67h90q-8 -48 24 -83.5t111 -35.5q80 0 128.5 46t82.5 174q-78 -72 -194 -72q-244 0 -196 269q18 106 93 169.5t202 63.5q146 0 194 -81t15 -266zM296 295q123 0 200 103
q22 133 -7.5 186.5t-114.5 53.5q-78 0 -132 -45t-68 -123q-30 -175 122 -175z" />
    <glyph glyph-name="ntilde.sc" horiz-adv-x="645" 
d="M565 797q-9 -51 -31 -81.5t-72 -30.5q-30 0 -48.5 12t-31.5 24t-29 12q-23 0 -36.5 -16.5t-16.5 -33.5l-60 7q9 51 31.5 81.5t72.5 30.5q30 0 48.5 -12t31 -24t28.5 -12q24 0 37 17t17 33zM194 491l-83 -491h-81l107 592h93l223 -485l80 485h82l-104 -592h-93z" />
    <glyph glyph-name="numbersign.sc" horiz-adv-x="608" 
d="M49 0l60 160h-82l11 63h95l58 152h-87l12 64h99l55 144h66l-55 -144h138l55 144h67l-55 -144h85l-12 -64h-97l-58 -152h88l-11 -63h-101l-60 -160h-67l60 160h-138l-60 -160h-66zM199 223h138l58 152h-138z" />
    <glyph glyph-name="o.sc" horiz-adv-x="623" 
d="M564 289q-28 -158 -98.5 -231.5t-202.5 -73.5q-138 0 -185 77.5t-19 239.5q28 159 98.5 232.5t202.5 73.5q138 0 185 -78t19 -240zM147 294q-23 -125 3.5 -180t115.5 -55q90 0 139 56.5t71 181.5q23 125 -3.5 180.5t-114.5 55.5q-90 0 -139.5 -57.5t-71.5 -181.5z" />
    <glyph glyph-name="oacute.sc" horiz-adv-x="623" 
d="M336 688l102 144h91l-117 -144h-76zM564 289q-28 -158 -98.5 -231.5t-202.5 -73.5q-138 0 -185 77.5t-19 239.5q28 159 98.5 232.5t202.5 73.5q138 0 185 -78t19 -240zM147 294q-23 -125 3.5 -180t115.5 -55q90 0 139 56.5t71 181.5q23 125 -3.5 180.5t-114.5 55.5
q-90 0 -139.5 -57.5t-71.5 -181.5z" />
    <glyph glyph-name="obreve.sc" horiz-adv-x="623" 
d="M550 809q-8 -45 -50.5 -84t-114.5 -39q-76 0 -107.5 39.5t-24.5 83.5h76q-4 -21 11.5 -42t45.5 -21q31 0 57.5 21t29.5 42h77zM564 289q-28 -158 -98.5 -231.5t-202.5 -73.5q-138 0 -185 77.5t-19 239.5q28 159 98.5 232.5t202.5 73.5q138 0 185 -78t19 -240zM147 294
q-23 -125 3.5 -180t115.5 -55q90 0 139 56.5t71 181.5q23 125 -3.5 180.5t-114.5 55.5q-90 0 -139.5 -57.5t-71.5 -181.5z" />
    <glyph glyph-name="ocircumflex.sc" horiz-adv-x="623" 
d="M534 687h-84l-55 83l-83 -83h-89l136 143h87zM564 289q-28 -158 -98.5 -231.5t-202.5 -73.5q-138 0 -185 77.5t-19 239.5q28 159 98.5 232.5t202.5 73.5q138 0 185 -78t19 -240zM147 294q-23 -125 3.5 -180t115.5 -55q90 0 139 56.5t71 181.5q23 125 -3.5 180.5
t-114.5 55.5q-90 0 -139.5 -57.5t-71.5 -181.5z" />
    <glyph glyph-name="odieresis.sc" horiz-adv-x="623" 
d="M254 687l22 129h85l-23 -129h-84zM422 687l23 129h84l-22 -129h-85zM564 289q-28 -158 -98.5 -231.5t-202.5 -73.5q-138 0 -185 77.5t-19 239.5q28 159 98.5 232.5t202.5 73.5q138 0 185 -78t19 -240zM147 294q-23 -125 3.5 -180t115.5 -55q90 0 139 56.5t71 181.5
q23 125 -3.5 180.5t-114.5 55.5q-90 0 -139.5 -57.5t-71.5 -181.5z" />
    <glyph glyph-name="oe.sc" horiz-adv-x="838" 
d="M261 0q-136 0 -183 74t-20 227q27 151 96.5 221t204.5 70h492l-13 -76h-304l-30 -175h261l-13 -71h-261l-34 -194h309l-14 -76h-491zM145 289q-19 -113 8.5 -165t114.5 -52h101l79 448h-95q-87 0 -137 -56.5t-71 -174.5z" />
    <glyph glyph-name="ograve.sc" horiz-adv-x="623" 
d="M411 688h-72l-65 144h86zM564 289q-28 -158 -98.5 -231.5t-202.5 -73.5q-138 0 -185 77.5t-19 239.5q28 159 98.5 232.5t202.5 73.5q138 0 185 -78t19 -240zM147 294q-23 -125 3.5 -180t115.5 -55q90 0 139 56.5t71 181.5q23 125 -3.5 180.5t-114.5 55.5
q-90 0 -139.5 -57.5t-71.5 -181.5z" />
    <glyph glyph-name="ohungarumlaut.sc" horiz-adv-x="623" 
d="M245 688l97 144h97l-111 -144h-83zM398 688l111 144h98l-127 -144h-82zM564 289q-28 -158 -98.5 -231.5t-202.5 -73.5q-138 0 -185 77.5t-19 239.5q28 159 98.5 232.5t202.5 73.5q138 0 185 -78t19 -240zM147 294q-23 -125 3.5 -180t115.5 -55q90 0 139 56.5t71 181.5
q23 125 -3.5 180.5t-114.5 55.5q-90 0 -139.5 -57.5t-71.5 -181.5z" />
    <glyph glyph-name="omacron.sc" horiz-adv-x="623" 
d="M270 780h253l-12 -66h-253zM564 289q-28 -158 -98.5 -231.5t-202.5 -73.5q-138 0 -185 77.5t-19 239.5q28 159 98.5 232.5t202.5 73.5q138 0 185 -78t19 -240zM147 294q-23 -125 3.5 -180t115.5 -55q90 0 139 56.5t71 181.5q23 125 -3.5 180.5t-114.5 55.5
q-90 0 -139.5 -57.5t-71.5 -181.5z" />
    <glyph glyph-name="one.dnom" horiz-adv-x="268" 
d="M65 0l74 428l-100 -43l13 79l129 53h48l-91 -517h-73z" />
    <glyph glyph-name="one.numr" horiz-adv-x="268" 
d="M108 245l74 428l-100 -43l13 79l129 53h48l-91 -517h-73z" />
    <glyph glyph-name="one.osf" horiz-adv-x="330" 
d="M-26 0l14 76h101l65 376l-98 -37l15 92l133 53h58l-86 -484h106l-14 -76h-294z" />
    <glyph glyph-name="one.sc" horiz-adv-x="299" 
d="M68 0l86 487l-115 -42l14 83l149 60h54l-104 -588h-84z" />
    <glyph glyph-name="one.subs" horiz-adv-x="268" 
d="M15 -194l74 428l-100 -43l13 79l129 53h48l-91 -517h-73z" />
    <glyph glyph-name="one.tf" horiz-adv-x="658" 
d="M116 0l10 72h121l93 526l-138 -55l16 92l173 72h58l-113 -635h125l-10 -72h-335z" />
    <glyph glyph-name="ordfeminine.sc" horiz-adv-x="423" 
d="M287 273v36q-57 -46 -133 -46q-138 0 -118 123q11 65 54.5 91t119.5 26q61 0 101 -6q10 59 -1 81t-62 22q-54 0 -79 -21.5t-30 -48.5l-61 1q4 22 11.5 39.5t24.5 38.5t50 33t80 12q33 0 58 -5.5t40.5 -13.5t24.5 -24t13 -29.5t3 -38t-4 -42t-8 -47.5l-15 -85l-9 -96h-60z
M167 319q43 0 77 19t48 42l10 65q-26 3 -73 3q-59 0 -89.5 -14t-36.5 -49q-11 -66 64 -66z" />
    <glyph glyph-name="ordmasculine.sc" horiz-adv-x="412" 
d="M374 453q-17 -96 -61 -142.5t-136 -46.5q-95 0 -126 50.5t-14 150.5q17 96 61.5 143.5t135.5 47.5q96 0 127 -51.5t13 -151.5zM103 458q-13 -72 3 -105t72 -33q57 0 87.5 33.5t42.5 106.5q13 73 -3 106.5t-72 33.5t-86.5 -34.5t-43.5 -107.5z" />
    <glyph glyph-name="oslash.sc" horiz-adv-x="623" 
d="M-22 -15l89 98q-34 77 -8 218q28 159 98.5 232.5t202.5 73.5q95 0 148 -38l12 13h113l-74 -82q28 -72 5 -211q-28 -158 -98.5 -231.5t-202.5 -73.5q-91 0 -142 33l-29 -32h-114zM147 294q-15 -82 -9 -133l313 345q-31 27 -93 27q-90 0 -139.5 -57.5t-71.5 -181.5z
M476 297q14 77 10 123l-307 -339q29 -22 87 -22q90 0 139 56.5t71 181.5z" />
    <glyph glyph-name="oslashacute.sc" horiz-adv-x="623" 
d="M336 688l102 144h91l-117 -144h-76zM-22 -15l89 98q-34 77 -8 218q28 159 98.5 232.5t202.5 73.5q95 0 148 -38l12 13h113l-74 -82q28 -72 5 -211q-28 -158 -98.5 -231.5t-202.5 -73.5q-91 0 -142 33l-29 -32h-114zM147 294q-15 -82 -9 -133l313 345q-31 27 -93 27
q-90 0 -139.5 -57.5t-71.5 -181.5zM476 297q14 77 10 123l-307 -339q29 -22 87 -22q90 0 139 56.5t71 181.5z" />
    <glyph glyph-name="otilde.sc" horiz-adv-x="623" 
d="M553 800q-9 -51 -31 -81.5t-72 -30.5q-30 0 -48.5 12t-31.5 24t-29 12q-23 0 -36.5 -16.5t-16.5 -33.5l-60 7q9 51 31.5 81.5t72.5 30.5q30 0 48.5 -12t31 -24t28.5 -12q24 0 37 17t17 33zM564 289q-28 -158 -98.5 -231.5t-202.5 -73.5q-138 0 -185 77.5t-19 239.5
q28 159 98.5 232.5t202.5 73.5q138 0 185 -78t19 -240zM147 294q-23 -125 3.5 -180t115.5 -55q90 0 139 56.5t71 181.5q23 125 -3.5 180.5t-114.5 55.5q-90 0 -139.5 -57.5t-71.5 -181.5z" />
    <glyph glyph-name="p.sc" horiz-adv-x="568" 
d="M30 0l105 594h191q145 0 198 -44t32 -159q-20 -112 -84.5 -152t-209.5 -40h-110l-35 -199h-87zM209 520l-44 -245h118q84 0 128 24.5t58 102.5q13 74 -20 96t-117 22h-123z" />
    <glyph glyph-name="paragraph.alt" horiz-adv-x="581" 
d="M212 0l52 298q-146 4 -195.5 54t-25.5 183q23 130 88 176.5t215 48.5h225l-134 -760h-66l122 696h-93l-122 -696h-66z" />
    <glyph glyph-name="parenleft.case" horiz-adv-x="398" 
d="M123 351q14 82 34.5 154t39.5 117t36 78t27 47l11 14h98q-4 -6 -11.5 -16.5t-28 -49.5t-39 -84t-40 -118.5t-35.5 -153.5q-22 -139 -19.5 -228t16.5 -130l14 -41h-96q-2 5 -6 14.5t-11.5 45t-10.5 78.5t1.5 116.5t19.5 156.5z" />
    <glyph glyph-name="parenleft.sc" horiz-adv-x="363" 
d="M120 281q21 117 57 212.5t61 132.5l26 37h87q-11 -15 -29.5 -45t-58.5 -132t-60 -217q-19 -126 -16 -209t17 -123l14 -40h-85q-2 5 -6 14t-12 43.5t-11.5 75t0 108.5t16.5 143z" />
    <glyph glyph-name="parenright.case" horiz-adv-x="406" 
d="M279 760q2 -5 5.5 -15t9.5 -47.5t8 -82t-3 -119t-20 -157.5q-15 -81 -36 -152.5t-40.5 -114.5t-37.5 -74.5t-29 -44.5l-10 -13h-99q4 5 12 15.5t29.5 47.5t40.5 80.5t41 115.5t36 152q22 140 21 231t-13 134l-12 44h97z" />
    <glyph glyph-name="parenright.sc" horiz-adv-x="362" 
d="M243 663q2 -5 5.5 -15t10 -46t9 -78t-2 -111t-17.5 -144q-13 -74 -33 -139.5t-39.5 -106t-37 -71t-28.5 -42.5l-10 -13h-90l12 15t29 46t40 76.5t40 107.5t34 139q19 127 17.5 211.5t-12.5 127.5l-12 43h85z" />
    <glyph glyph-name="percent.sc" horiz-adv-x="689" 
d="M336 445q-13 -71 -50 -107t-110 -36q-146 0 -120 155q13 72 50.5 108.5t110.5 36.5q147 0 119 -157zM49 0l493 588h85l-494 -588h-84zM116 446q-8 -45 5.5 -67t53.5 -22q84 0 101 98q9 48 -4 71t-54 23q-83 0 -102 -103zM616 127q-12 -70 -49 -106t-110 -36
q-148 0 -120 154q13 72 50.5 109t111.5 37q145 0 117 -158zM397 129q-8 -46 5.5 -68t53.5 -22q83 0 101 99q8 47 -5 70t-53 23q-83 0 -102 -102z" />
    <glyph glyph-name="perthousand.sc" horiz-adv-x="963" 
d="M336 445q-13 -71 -50 -107t-110 -36q-146 0 -120 155q13 72 50.5 108.5t110.5 36.5q147 0 119 -157zM49 0l493 588h85l-494 -588h-84zM116 446q-8 -45 5.5 -67t53.5 -22q84 0 101 98q9 48 -4 71t-54 23q-83 0 -102 -103zM616 127q-12 -70 -49 -106t-110 -36
q-148 0 -120 154q13 72 50.5 109t111.5 37q145 0 117 -158zM926 127q-12 -70 -49 -106t-110 -36q-149 0 -121 154q13 72 51 109t111 37q146 0 118 -158zM397 129q-8 -46 5.5 -68t53.5 -22q83 0 101 99q8 47 -5 70t-53 23q-83 0 -102 -102zM706 129q-8 -46 6 -68t54 -22
q82 0 100 99q8 47 -5 70t-53 23q-83 0 -102 -102z" />
    <glyph glyph-name="q.sc" horiz-adv-x="618" 
d="M564 289q-32 -181 -120 -250l79 -79l-71 -54l-79 94q-47 -16 -110 -16q-138 0 -185 77.5t-19 239.5q28 159 98.5 232.5t202.5 73.5q138 0 185 -78t19 -240zM147 294q-23 -125 3.5 -180t115.5 -55q90 0 139 56.5t71 181.5q23 125 -3.5 180.5t-114.5 55.5
q-90 0 -139.5 -57.5t-71.5 -181.5z" />
    <glyph glyph-name="question.sc" horiz-adv-x="451" 
d="M221 154h-86l7 38q7 36 28 65.5t46 49.5t50.5 39.5t45 46t25.5 58.5q6 40 -16 65t-70 25q-53 0 -89 -29t-44 -77h-81q14 80 67.5 130.5t147.5 50.5q101 0 144 -48.5t30 -120.5q-7 -39 -28 -70t-46.5 -51.5t-51.5 -40t-46.5 -44.5t-26.5 -55zM108 0l18 105h86l-19 -105
h-85z" />
    <glyph glyph-name="questiondown.case" horiz-adv-x="477" 
d="M350 711l-19 -112h-90l19 112h90zM231 548h91l-8 -40q-9 -51 -32 -87.5t-50.5 -57.5t-55 -41t-50 -52t-30.5 -77q-23 -123 92 -123q125 0 150 142h87q-39 -222 -240 -222q-113 0 -157 56t-27 153q9 51 32 87.5t51 57.5t56 41.5t52 52.5t33 77z" />
    <glyph glyph-name="questiondown.sc" horiz-adv-x="446" 
d="M331 594l-19 -105h-85l18 105h86zM218 439h86l-7 -38q-7 -36 -28 -65t-46 -49t-50.5 -39.5t-45 -46.5t-25.5 -59q-7 -39 15 -64t71 -25q52 0 88 29.5t44 76.5h82q-14 -81 -67.5 -131t-147.5 -50q-101 0 -144 48.5t-31 120.5q8 47 38.5 84t62.5 57.5t62 51.5t38 68z" />
    <glyph glyph-name="quotedbl.sc" horiz-adv-x="307" 
d="M67 461l22 204h97l-50 -204h-69zM207 461l22 204h98l-51 -204h-69z" />
    <glyph glyph-name="quotedblleft.sc" horiz-adv-x="338" 
d="M57 428q8 46 43 124q16 35 33.5 64.5t27.5 41.5l10 11l69 -1q-33 -56 -63 -134q-13 -33 -21.5 -59.5t-10.5 -36.5l-2 -10h-86zM198 428q8 46 43 124q16 35 33.5 64.5t27.5 41.5l10 11l69 -1q-33 -56 -63 -134q-13 -33 -21.5 -59.5t-10.5 -36.5l-2 -10h-86z" />
    <glyph glyph-name="quotedblright.sc" horiz-adv-x="341" 
d="M44 426q32 56 63 134q13 33 21.5 60t10.5 37l2 10l86 -1q-8 -46 -43 -124q-16 -35 -33.5 -64t-27.5 -40l-10 -12h-69zM185 426q32 56 63 134q13 33 21.5 60t10.5 37l2 10l86 -1q-9 -46 -43 -124q-16 -35 -33.5 -64t-27.5 -40l-10 -12h-69z" />
    <glyph glyph-name="quoteleft.sc" horiz-adv-x="197" 
d="M57 425q8 46 43 124q16 35 33.5 64t26.5 41l10 11h70q-33 -56 -63 -134q-13 -33 -21.5 -60t-10.5 -37l-2 -10z" />
    <glyph glyph-name="quoteright.sc" horiz-adv-x="200" 
d="M44 426q33 56 63 134q13 33 21.5 60t10.5 37l2 10l86 -1q-8 -46 -43 -124q-16 -35 -33.5 -64t-27.5 -40l-10 -12h-69z" />
    <glyph glyph-name="quotesingle.sc" horiz-adv-x="193" 
d="M87 461l22 204h97l-50 -204h-69z" />
    <glyph glyph-name="r.sc" horiz-adv-x="587" 
d="M30 0l105 594h214q131 0 180.5 -42t29.5 -154q-14 -79 -48 -118t-98 -53l82 -227h-92l-72 218q-15 -1 -45 -1h-131l-38 -217h-87zM208 518l-39 -226h119q42 0 69 3.5t52.5 15t40.5 36t22 62.5q12 69 -21 89t-118 20h-125z" />
    <glyph glyph-name="racute.sc" horiz-adv-x="587" 
d="M313 685l102 144h91l-117 -144h-76zM30 0l105 594h214q131 0 180.5 -42t29.5 -154q-14 -79 -48 -118t-98 -53l82 -227h-92l-72 218q-15 -1 -45 -1h-131l-38 -217h-87zM208 518l-39 -226h119q42 0 69 3.5t52.5 15t40.5 36t22 62.5q12 69 -21 89t-118 20h-125z" />
    <glyph glyph-name="rcaron.sc" horiz-adv-x="587" 
d="M538 827l-138 -143h-87l-84 143h81l55 -81l83 81h90zM30 0l105 594h214q131 0 180.5 -42t29.5 -154q-14 -79 -48 -118t-98 -53l82 -227h-92l-72 218q-15 -1 -45 -1h-131l-38 -217h-87zM208 518l-39 -226h119q42 0 69 3.5t52.5 15t40.5 36t22 62.5q12 69 -21 89t-118 20
h-125z" />
    <glyph glyph-name="rcommaaccent.sc" horiz-adv-x="587" 
d="M30 0l105 594h214q131 0 180.5 -42t29.5 -154q-14 -79 -48 -118t-98 -53l82 -227h-92l-72 218q-15 -1 -45 -1h-131l-38 -217h-87zM208 518l-39 -226h119q42 0 69 3.5t52.5 15t40.5 36t22 62.5q12 69 -21 89t-118 20h-125zM125 -239q26 44 50 105q9 23 17 46.5t12 35.5
l3 12l82 -1q-15 -55 -41 -110q-13 -27 -27 -49t-21 -31l-8 -9z" />
    <glyph glyph-name="registered.alt" horiz-adv-x="491" 
d="M458 525q-17 -95 -73.5 -152t-163.5 -57q-110 0 -149 61t-22 160q16 95 73 153t162 58q111 0 150.5 -61.5t22.5 -161.5zM90 525q-29 -171 129 -171q166 0 198 183q30 174 -130 174q-88 0 -135.5 -51.5t-61.5 -134.5zM150 417l41 229h86q47 0 66 -18t11 -62
q-6 -31 -19 -45t-37 -19l26 -85h-39l-24 82h-57l-14 -82h-40zM224 614l-14 -83h44q25 0 40.5 8.5t20.5 35.5q4 25 -6 32t-35 7h-50z" />
    <glyph glyph-name="s.sc" horiz-adv-x="559" 
d="M484 150q-30 -168 -254 -166q-114 2 -166 52t-34 148l83 -2q-21 -123 123 -124q145 -1 162 99q5 28 -7.5 48t-36 30.5t-55 20.5t-65 17.5t-64 21t-53.5 31t-33 48t-3 71.5q14 77 75 120.5t168 42.5q121 -1 165.5 -49t28.5 -136l-84 2q9 48 -12 77.5t-100 30.5
q-139 1 -156 -96q-6 -35 17.5 -58.5t62.5 -33t84 -23.5t83.5 -30t59 -52t11.5 -90z" />
    <glyph glyph-name="sacute.sc" horiz-adv-x="559" 
d="M301 688l102 144h91l-117 -144h-76zM484 150q-30 -168 -254 -166q-114 2 -166 52t-34 148l83 -2q-21 -123 123 -124q145 -1 162 99q5 28 -7.5 48t-36 30.5t-55 20.5t-65 17.5t-64 21t-53.5 31t-33 48t-3 71.5q14 77 75 120.5t168 42.5q121 -1 165.5 -49t28.5 -136l-84 2
q9 48 -12 77.5t-100 30.5q-139 1 -156 -96q-6 -35 17.5 -58.5t62.5 -33t84 -23.5t83.5 -30t59 -52t11.5 -90z" />
    <glyph glyph-name="scaron.sc" horiz-adv-x="559" 
d="M526 830l-138 -143h-87l-84 143h81l55 -81l83 81h90zM484 150q-30 -168 -254 -166q-114 2 -166 52t-34 148l83 -2q-21 -123 123 -124q145 -1 162 99q5 28 -7.5 48t-36 30.5t-55 20.5t-65 17.5t-64 21t-53.5 31t-33 48t-3 71.5q14 77 75 120.5t168 42.5q121 -1 165.5 -49
t28.5 -136l-84 2q9 48 -12 77.5t-100 30.5q-139 1 -156 -96q-6 -35 17.5 -58.5t62.5 -33t84 -23.5t83.5 -30t59 -52t11.5 -90z" />
    <glyph glyph-name="scedilla.sc" horiz-adv-x="559" 
d="M306 -155q-7 -47 -40 -66t-104 -19q-21 0 -39 2t-25 4l-8 3l6 50q0 -3 42 -3q39 0 59 11t25 38q4 22 -15.5 30t-59.5 8h-9l53 83q-193 20 -161 198l83 -2q-21 -123 123 -124q145 -1 162 99q5 28 -7.5 48t-36 30.5t-55 20.5t-65 17.5t-64 21t-53.5 31t-33 48t-3 71.5
q14 77 75 120.5t168 42.5q121 -1 165.5 -49t28.5 -136l-84 2q9 48 -12 77.5t-100 30.5q-139 1 -156 -96q-6 -35 17.5 -58.5t62.5 -33t84 -23.5t83.5 -30t59 -52t11.5 -90q-27 -149 -210 -164l-35 -56q35 -5 54.5 -26t12.5 -59z" />
    <glyph glyph-name="scircumflex.sc" horiz-adv-x="559" 
d="M499 687h-84l-55 83l-83 -83h-89l136 143h87zM484 150q-30 -168 -254 -166q-114 2 -166 52t-34 148l83 -2q-21 -123 123 -124q145 -1 162 99q5 28 -7.5 48t-36 30.5t-55 20.5t-65 17.5t-64 21t-53.5 31t-33 48t-3 71.5q14 77 75 120.5t168 42.5q121 -1 165.5 -49
t28.5 -136l-84 2q9 48 -12 77.5t-100 30.5q-139 1 -156 -96q-6 -35 17.5 -58.5t62.5 -33t84 -23.5t83.5 -30t59 -52t11.5 -90z" />
    <glyph glyph-name="scommaaccent.sc" horiz-adv-x="559" 
d="M484 150q-30 -168 -254 -166q-114 2 -166 52t-34 148l83 -2q-21 -123 123 -124q145 -1 162 99q5 28 -7.5 48t-36 30.5t-55 20.5t-65 17.5t-64 21t-53.5 31t-33 48t-3 71.5q14 77 75 120.5t168 42.5q121 -1 165.5 -49t28.5 -136l-84 2q9 48 -12 77.5t-100 30.5
q-139 1 -156 -96q-6 -35 17.5 -58.5t62.5 -33t84 -23.5t83.5 -30t59 -52t11.5 -90zM121 -251q26 44 50 105q9 23 17 46.5t12 35.5l3 12l82 -1q-15 -55 -41 -110q-13 -27 -27 -49t-21 -31l-8 -9z" />
    <glyph glyph-name="section.sups" horiz-adv-x="304" 
d="M292 544q-6 -34 -35 -52q21 -17 15 -54q-12 -69 -114 -69q-57 0 -80.5 21.5t-16.5 62.5h49q-4 -21 8.5 -33.5t39.5 -12.5q25 0 42.5 11t19.5 27q4 21 -19 32t-51.5 15t-50 22.5t-15.5 52.5q5 33 36 53q-22 18 -15 53q12 66 107 66q56 0 78 -20.5t15 -58.5h-48
q3 20 -6.5 31t-36.5 11q-26 0 -41 -11.5t-17 -26.5q-4 -20 19 -30t51.5 -13t50 -22t15.5 -55zM136 558q-2 -9 1.5 -15.5t13 -11t17.5 -7t24 -6t24 -5.5q21 15 25 38q2 10 -1.5 17t-13.5 12t-17 7.5t-24.5 6.5t-23.5 6q-21 -19 -25 -42z" />
    <glyph glyph-name="seven.dnom" horiz-adv-x="379" 
d="M43 0q12 68 43 139t66.5 123.5t69.5 95.5t56 65l23 22l-267 -5l13 72h351l-12 -68l-24.5 -24.5t-56.5 -65t-74.5 -99t-66.5 -120t-44 -135.5h-77z" />
    <glyph glyph-name="seven.numr" horiz-adv-x="379" 
d="M86 245q12 68 43 139t66.5 123.5t69.5 95.5t57 65l22 22l-267 -5l13 72h351l-12 -68l-24.5 -24.5t-56.5 -65t-74.5 -99t-66.5 -120t-44 -135.5h-77z" />
    <glyph glyph-name="seven.osf" horiz-adv-x="471" 
d="M28 -145q17 97 60.5 196.5t93 172.5t96.5 132.5t78 89.5l31 31l-365 -1l15 85h466l-16 -85q-13 -12 -34.5 -33.5t-78.5 -89.5t-103.5 -137.5t-92.5 -169t-62 -191.5h-88z" />
    <glyph glyph-name="seven.sc" horiz-adv-x="426" 
d="M55 0q14 77 49.5 157.5t76.5 140t80 108.5t65 74l25 25l-309 -2l14 79h406l-14 -79q-11 -10 -28.5 -27.5t-64.5 -73.5t-85.5 -112.5t-76.5 -136.5t-51 -153h-87z" />
    <glyph glyph-name="seven.subs" horiz-adv-x="379" 
d="M-7 -194q12 68 43 139t66.5 123.5t69.5 95.5t56 65l23 22l-267 -5l13 72h351l-12 -68l-24.5 -24.5t-56.5 -65t-74.5 -99t-66.5 -120t-44 -135.5h-77z" />
    <glyph glyph-name="seven.tf" horiz-adv-x="658" 
d="M154 0q17 95 60.5 193.5t93 171t96.5 131.5t78 90l31 30l-371 -1l15 85h475l-15 -85q-13 -12 -34.5 -33.5t-78.5 -89t-103.5 -136.5t-92.5 -167t-62 -189h-92z" />
    <glyph glyph-name="six.dnom" horiz-adv-x="501" 
d="M434 159q-30 -168 -217 -169q-108 0 -144 59.5t-14 185.5q28 160 82 225t159 65q48 0 82 -14t50 -36.5t21.5 -47t0.5 -50.5h-74q6 33 -12.5 57.5t-68.5 24.5q-55 0 -90.5 -36.5t-59.5 -127.5q55 49 140 49q90 0 125 -51.5t20 -133.5zM272 280q-85 0 -141 -71
q-13 -84 7.5 -119t78.5 -35q119 0 140 117q19 108 -85 108z" />
    <glyph glyph-name="six.numr" horiz-adv-x="501" 
d="M477 404q-30 -168 -217 -169q-108 0 -144 59.5t-14 185.5q28 160 82 225t159 65q48 0 82 -14t50 -36.5t21.5 -47t0.5 -50.5h-74q6 33 -12.5 57.5t-68.5 24.5q-55 0 -90.5 -36.5t-59.5 -127.5q55 49 140 49q90 0 125 -51.5t20 -133.5zM315 525q-85 0 -141 -71
q-13 -84 7.5 -119t78.5 -35q119 0 140 117q19 108 -85 108z" />
    <glyph glyph-name="six.osf" horiz-adv-x="614" 
d="M560 220q-42 -232 -294 -232q-139 -1 -186.5 80t-16.5 250q39 220 111.5 309.5t208.5 89.5q64 0 109 -18.5t66 -49.5t28 -64t1 -67h-89q9 49 -18.5 84.5t-99.5 35.5q-75 0 -125 -53.5t-84 -187.5q77 73 194 73q121 0 168 -69t27 -181zM342 391q-118 0 -193 -105
q-18 -118 11.5 -168.5t107.5 -50.5q171 0 200 167q28 157 -126 157z" />
    <glyph glyph-name="six.sc" horiz-adv-x="548" 
d="M485 182q-34 -193 -250 -193q-124 0 -166 67.5t-17 209.5q32 183 94.5 257t183.5 74q57 0 96.5 -16t57.5 -42t24 -54t1 -57h-84q6 40 -16 69t-80 29q-63 0 -105 -43t-69 -150q63 57 163 57q103 0 143.5 -58t23.5 -150zM296 321q-99 0 -160 -81q-15 -95 9.5 -136t92.5 -41
q138 0 161 132q21 126 -103 126z" />
    <glyph glyph-name="six.subs" horiz-adv-x="501" 
d="M384 -35q-30 -168 -217 -169q-108 0 -144 59.5t-14 185.5q28 160 82 225t159 65q48 0 82 -14t50 -36.5t21.5 -47t0.5 -50.5h-74q6 33 -12.5 57.5t-68.5 24.5q-55 0 -90.5 -36.5t-59.5 -127.5q55 49 140 49q90 0 125 -51.5t20 -133.5zM222 86q-85 0 -141 -71
q-13 -84 7.5 -119t78.5 -35q119 0 140 117q19 108 -85 108z" />
    <glyph glyph-name="six.tf" horiz-adv-x="657" 
d="M573 220q-42 -232 -295 -232q-145 -1 -194 79.5t-18 250.5q39 221 113 310t215 89q65 0 110.5 -18.5t66.5 -49.5t28 -64t1 -67h-91q9 49 -18.5 84.5t-99.5 35.5q-79 0 -129 -53t-85 -188q77 73 199 73t169 -69t28 -181zM353 391q-122 0 -199 -104q-18 -119 12 -169.5
t114 -50.5q170 0 199 167q28 157 -126 157z" />
    <glyph glyph-name="slash.sc" horiz-adv-x="439" 
d="M-16 -69l386 717h84l-386 -717h-84z" />
    <glyph glyph-name="sterling.sc" horiz-adv-x="522" 
d="M216 213q0 -13 -4 -43q-13 -70 -66 -104l279 4l-12 -73h-406l12 67l-3 1q4 1 12 3.5t24 10.5t29.5 19t26.5 30.5t17 43.5q4 28 5 41h-91l10 60h78q-2 14 -7 38.5t-7 39.5t-2.5 39t4.5 49q12 70 66.5 112t146.5 42q98 0 139 -47t26 -133h-83q8 50 -14 78t-68 28
q-49 0 -84 -29t-44 -79q-2 -35 -1.5 -46.5t7 -44t8.5 -47.5h136l-11 -60h-123z" />
    <glyph glyph-name="t.sc" horiz-adv-x="430" 
d="M115 0l92 512h-185l13 80h460l-13 -80h-188l-92 -512h-87z" />
    <glyph glyph-name="tbar.sc" horiz-adv-x="430" 
d="M115 0l43 242h-85l10 64h87l37 206h-185l13 80h460l-13 -80h-188l-37 -206h92l-9 -64h-95l-43 -242h-87z" />
    <glyph glyph-name="tcaron.sc" horiz-adv-x="430" 
d="M463 827l-138 -143h-87l-84 143h81l55 -81l83 81h90zM115 0l92 512h-185l13 80h460l-13 -80h-188l-92 -512h-87z" />
    <glyph glyph-name="thorn.sc" horiz-adv-x="557" 
d="M30 0l104 592h89l-18 -98h126q126 0 173 -43.5t27 -158.5q-20 -112 -78.5 -151t-187.5 -39h-129l-18 -102h-88zM192 418l-43 -241h127q73 0 114.5 25t55.5 101q12 72 -18.5 93.5t-103.5 21.5h-132z" />
    <glyph glyph-name="three.dnom" horiz-adv-x="441" 
d="M256 328q146 -21 119 -175q-29 -163 -211 -163q-96 0 -134 45t-26 113h74q-7 -38 15 -63.5t72 -25.5q56 0 90 29.5t43 82.5q9 49 -16.5 76t-80.5 27l-66 -5l7 52h1l168 123l-233 -3l13 69h336l-12 -65z" />
    <glyph glyph-name="three.numr" horiz-adv-x="441" 
d="M299 573q146 -21 119 -175q-29 -163 -211 -163q-96 0 -134 45t-26 113h74q-7 -38 15 -63.5t72 -25.5q56 0 90 29.5t43 82.5q9 49 -16.5 76t-80.5 27l-66 -5l7 52h1l168 123l-233 -3l13 69h336l-12 -65z" />
    <glyph glyph-name="three.osf" horiz-adv-x="523" 
d="M279 307q205 -25 168 -229q-40 -231 -279 -231q-123 0 -172.5 60.5t-33.5 150.5h88q-10 -56 21 -92.5t98 -36.5q77 0 125 43.5t62 124.5q12 69 -25.5 106.5t-108.5 37.5l-92 -7l8 64l238 179h-308l15 84h436l-15 -83z" />
    <glyph glyph-name="three.sc" horiz-adv-x="504" 
d="M297 373q170 -21 139 -193q-34 -191 -244 -191q-111 0 -154.5 51t-30.5 127h83q-8 -44 19 -72.5t85 -28.5q132 0 154 133q9 56 -22 85.5t-92 29.5l-77 -5l7 55l203 144l-274 -5l13 79h389l-13 -72z" />
    <glyph glyph-name="three.subs" horiz-adv-x="441" 
d="M206 134q146 -21 119 -175q-29 -163 -211 -163q-96 0 -134 45t-26 113h74q-7 -38 15 -63.5t72 -25.5q56 0 90 29.5t43 82.5q9 49 -16.5 76t-80.5 27l-66 -5l7 52h1l168 123l-233 -3l13 69h336l-12 -65z" />
    <glyph glyph-name="three.tf" horiz-adv-x="658" 
d="M362 449q104 -11 147 -70t25 -160q-40 -231 -288 -231q-128 0 -179 60t-35 150h90q-10 -56 22 -92t105 -36q162 0 192 167q12 70 -26 107.5t-115 37.5l-91 -7l8 63l243 178h-322l15 84h453l-15 -83z" />
    <glyph glyph-name="tildecomb.case" 
d="M-66 877q-9 -51 -31.5 -81.5t-73.5 -30.5q-24 0 -40.5 7t-23 16t-17 16t-25.5 7q-24 0 -36.5 -16.5t-16.5 -32.5l-61 7q4 24 10 41t17.5 34.5t31 27t46.5 9.5q32 0 49 -11.5t28 -23t29 -11.5q25 0 38.5 16.5t15.5 32.5z" />
    <glyph glyph-name="two.dnom" horiz-adv-x="427" 
d="M-13 4l11 62l159 122q44 33 64.5 49.5t47 42.5t39 50.5t17.5 54.5q6 37 -12.5 59t-65.5 22q-48 0 -82 -27.5t-42 -68.5h-74q13 74 63.5 119t134.5 45q94 0 130 -43.5t24 -111.5q-7 -38 -20.5 -68.5t-42 -61t-46.5 -47t-63 -53.5l-108 -81l226 4l-12 -68h-348z" />
    <glyph glyph-name="two.numr" horiz-adv-x="427" 
d="M30 249l11 62l159 122q44 33 64.5 49.5t47 42.5t39 50.5t17.5 54.5q6 37 -12.5 59t-65.5 22q-48 0 -82 -27.5t-42 -68.5h-74q13 74 63.5 119t134.5 45q94 0 130 -43.5t24 -111.5q-7 -38 -20.5 -68.5t-42 -61t-46.5 -47t-63 -53.5l-108 -81l226 4l-12 -68h-348z" />
    <glyph glyph-name="two.osf" horiz-adv-x="513" 
d="M-16 0l12 67q98 65 193 131q114 78 144 106q47 47 57 102q7 41 -17.5 64.5t-85.5 23.5q-62 0 -102.5 -28.5t-48.5 -75.5h-83q14 83 72.5 131t163.5 48q115 0 157.5 -46.5t29.5 -121.5q-12 -67 -51.5 -112t-131.5 -117q-14 -11 -22 -17q-64 -44 -129 -85l280 5l-14 -75
h-424z" />
    <glyph glyph-name="two.sc" horiz-adv-x="494" 
d="M-11 3l6 32l7 41q87 57 181 128q52 39 74 56t54.5 47t47.5 57t21 58q8 44 -15.5 70t-78.5 26t-94 -31.5t-48 -80.5h-83q15 84 73.5 136.5t154.5 52.5q107 0 148.5 -50t27.5 -125q-9 -53 -38.5 -99.5t-60 -75t-86.5 -74.5q-3 -2 -5 -3.5t-5 -4t-5 -4.5q-59 -43 -118 -84
l263 5l-14 -77h-407z" />
    <glyph glyph-name="two.subs" horiz-adv-x="427" 
d="M-63 -190l11 62l159 122q44 33 64.5 49.5t47 42.5t39 50.5t17.5 54.5q6 37 -12.5 59t-65.5 22q-48 0 -82 -27.5t-42 -68.5h-74q13 74 63.5 119t134.5 45q94 0 130 -43.5t24 -111.5q-7 -38 -20.5 -68.5t-42 -61t-46.5 -47t-63 -53.5l-108 -81l226 4l-12 -68h-348z" />
    <glyph glyph-name="two.tf" horiz-adv-x="657" 
d="M24 4l5 26l8 54q104 72 219 160q58 43 88 67.5t66 59.5t54 69t25 73q9 54 -19 86t-95 32t-115 -38t-59 -98h-89q16 97 85.5 158.5t180.5 61.5q122 0 170.5 -58.5t32.5 -147.5q-7 -39 -23 -75.5t-32 -61.5t-50 -59t-54 -51.5t-66 -56.5q-9 -7 -13 -11q-124 -92 -153 -113
l323 6l-15 -83h-474z" />
    <glyph glyph-name="u.sc" horiz-adv-x="595" 
d="M524 283q-14 -79 -31 -129t-48 -91.5t-80 -60t-121 -18.5q-74 0 -118.5 21t-62 60t-18 96t13.5 129l54 302h87l-54 -308q-23 -111 -2 -164.5t104 -53.5q86 0 127 52t62 170l53 304h88z" />
    <glyph glyph-name="uacute.sc" horiz-adv-x="595" 
d="M318 685l102 144h91l-117 -144h-76zM524 283q-14 -79 -31 -129t-48 -91.5t-80 -60t-121 -18.5q-74 0 -118.5 21t-62 60t-18 96t13.5 129l54 302h87l-54 -308q-23 -111 -2 -164.5t104 -53.5q86 0 127 52t62 170l53 304h88z" />
    <glyph glyph-name="ubreve.sc" horiz-adv-x="595" 
d="M532 806q-8 -45 -50.5 -84t-114.5 -39q-76 0 -107.5 39.5t-24.5 83.5h76q-4 -21 11.5 -42t45.5 -21q31 0 57.5 21t29.5 42h77zM524 283q-14 -79 -31 -129t-48 -91.5t-80 -60t-121 -18.5q-74 0 -118.5 21t-62 60t-18 96t13.5 129l54 302h87l-54 -308q-23 -111 -2 -164.5
t104 -53.5q86 0 127 52t62 170l53 304h88z" />
    <glyph glyph-name="ucircumflex.sc" horiz-adv-x="595" 
d="M516 684h-84l-55 83l-83 -83h-89l136 143h87zM524 283q-14 -79 -31 -129t-48 -91.5t-80 -60t-121 -18.5q-74 0 -118.5 21t-62 60t-18 96t13.5 129l54 302h87l-54 -308q-23 -111 -2 -164.5t104 -53.5q86 0 127 52t62 170l53 304h88z" />
    <glyph glyph-name="udieresis.sc" horiz-adv-x="595" 
d="M236 684l22 129h85l-23 -129h-84zM404 684l23 129h84l-22 -129h-85zM524 283q-14 -79 -31 -129t-48 -91.5t-80 -60t-121 -18.5q-74 0 -118.5 21t-62 60t-18 96t13.5 129l54 302h87l-54 -308q-23 -111 -2 -164.5t104 -53.5q86 0 127 52t62 170l53 304h88z" />
    <glyph glyph-name="ugrave.sc" horiz-adv-x="595" 
d="M393 685h-72l-65 144h86zM524 283q-14 -79 -31 -129t-48 -91.5t-80 -60t-121 -18.5q-74 0 -118.5 21t-62 60t-18 96t13.5 129l54 302h87l-54 -308q-23 -111 -2 -164.5t104 -53.5q86 0 127 52t62 170l53 304h88z" />
    <glyph glyph-name="uhungarumlaut.sc" horiz-adv-x="595" 
d="M227 685l97 144h97l-111 -144h-83zM380 685l111 144h98l-127 -144h-82zM524 283q-14 -79 -31 -129t-48 -91.5t-80 -60t-121 -18.5q-74 0 -118.5 21t-62 60t-18 96t13.5 129l54 302h87l-54 -308q-23 -111 -2 -164.5t104 -53.5q86 0 127 52t62 170l53 304h88z" />
    <glyph glyph-name="umacron.sc" horiz-adv-x="595" 
d="M252 777h253l-12 -66h-253zM524 283q-14 -79 -31 -129t-48 -91.5t-80 -60t-121 -18.5q-74 0 -118.5 21t-62 60t-18 96t13.5 129l54 302h87l-54 -308q-23 -111 -2 -164.5t104 -53.5q86 0 127 52t62 170l53 304h88z" />
    <glyph glyph-name="uni0163.sc" horiz-adv-x="430" 
d="M228 -144q-7 -47 -40 -66t-104 -19q-21 0 -39 2.5t-25 4.5l-8 2l6 50q0 -3 42 -3q39 0 59 11t25 38q4 22 -15.5 30t-59.5 8h-9l55 86l92 512h-185l13 80h460l-13 -80h-188l-92 -512l-41 -59q35 -5 54.5 -26t12.5 -59z" />
    <glyph glyph-name="uni01EB.sc" horiz-adv-x="623" 
d="M223 -87q6 36 43 71h-3q-138 0 -185 77.5t-19 239.5q28 159 98.5 232.5t202.5 73.5q138 0 185 -78t19 -240q-22 -119 -65.5 -189.5t-118.5 -97.5q-59 -39 -65 -79q-7 -35 27 -35q11 0 23.5 4t20.5 8l7 3l-7 -53q-25 -23 -81 -23q-49 0 -69 24.5t-13 61.5zM147 294
q-23 -125 3.5 -180t115.5 -55q90 0 139 56.5t71 181.5q23 125 -3.5 180.5t-114.5 55.5q-90 0 -139.5 -57.5t-71.5 -181.5z" />
    <glyph glyph-name="uni021B.sc" horiz-adv-x="428" 
d="M114 0l92 512h-185l13 80h460l-13 -80h-188l-92 -512h-87zM28 -241q25 45 49 106q9 23 17 46t12 35l3 12h83q-15 -56 -42 -110q-13 -27 -27 -49.5t-21 -30.5l-8 -9h-66z" />
    <glyph glyph-name="uni0233.sc" horiz-adv-x="492" 
d="M204 777h253l-12 -66h-253zM154 0l33 186l-137 406h97l94 -334l206 334h105l-279 -405l-33 -187h-86z" />
    <glyph glyph-name="uni0259.sc" horiz-adv-x="621" 
d="M562 289q-28 -158 -98 -231.5t-203 -73.5q-138 0 -184.5 78t-16.5 244h415q20 118 -6.5 171.5t-113.5 53.5q-135 0 -182 -127l-89 1q33 104 99 153t176 49q137 0 184 -77.5t19 -240.5zM264 62q79 0 125.5 42t70.5 133h-323q-8 -92 22 -133.5t105 -41.5z" />
    <glyph glyph-name="uni0272.sc" horiz-adv-x="630" 
d="M180 489l-86 -489q-8 -48 -19.5 -79t-33.5 -57t-58 -38t-90 -12h-47l13 65h39q56 0 81.5 26.5t36.5 94.5l107 592h93l222 -479l79 479h83l-104 -592h-93z" />
    <glyph glyph-name="uni0302.case" 
d="M-69 766h-88l-56 68l-77 -68h-92l127 121h97z" />
    <glyph glyph-name="uni0304.case" 
d="M-313 857h253l-13 -71h-253z" />
    <glyph glyph-name="uni0306.case" 
d="M-54 874q-7 -42 -48 -77t-112 -35q-76 0 -108.5 35t-25.5 77h75q-3 -20 13.5 -36.5t44.5 -16.5q31 0 56.5 16.5t28.5 36.5h76z" />
    <glyph glyph-name="uni0307.case" 
d="M-169 766l23 129h91l-23 -129h-91z" />
    <glyph glyph-name="uni0308.case" 
d="M-336 766l23 129h91l-23 -129h-91zM-162 766l23 129h91l-24 -129h-90z" />
    <glyph glyph-name="uni030A.case" 
d="M-58 844q-8 -41 -37 -64t-72 -23q-48 0 -72.5 27.5t-16.5 72.5q7 41 36 64t73 23q49 0 73 -27t16 -73zM-196 847q-6 -35 28 -35q19 0 32.5 11.5t16.5 31.5q4 16 -4 25t-23 9q-19 0 -33 -11.5t-17 -30.5z" />
    <glyph glyph-name="uni030B.case" 
d="M-409 767l93 121h98l-107 -121h-84zM-256 767l107 121h98l-122 -121h-83z" />
    <glyph glyph-name="uni030C.case" 
d="M-47 887l-131 -121h-97l-85 121h85l55 -69l79 69h94z" />
    <glyph glyph-name="uni0335.sc" horiz-adv-x="358" 
d="M45 304l10 64h266l-9 -64h-267z" />
    <glyph glyph-name="uni0336.sc" horiz-adv-x="805" 
d="M97 300l8 71h597l-8 -71h-597z" />
    <glyph glyph-name="uni0338.case" 
d="M-655 17l627 730h117l-626 -730h-118z" />
    <glyph glyph-name="uni1EA1.sc" horiz-adv-x="547" 
d="M-53 0l331 592h95l123 -592h-94l-23 135h-267l-70 -135h-95zM152 210h214l-52 310zM144 -183l21 115h90l-21 -115h-90z" />
    <glyph glyph-name="uni1EB9.sc" horiz-adv-x="511" 
d="M30 0l104 592h390l-13 -76h-304l-30 -172h262l-14 -77h-261l-34 -191h309l-14 -76h-395zM150 -183l21 115h90l-21 -115h-90z" />
    <glyph glyph-name="uni1EBD.sc" horiz-adv-x="511" 
d="M516 797q-9 -51 -31 -81.5t-72 -30.5q-30 0 -48.5 12t-31.5 24t-29 12q-23 0 -36.5 -16.5t-16.5 -33.5l-60 7q9 51 31.5 81.5t72.5 30.5q30 0 48.5 -12t31 -24t28.5 -12q24 0 37 17t17 33zM30 0l104 592h390l-13 -76h-304l-30 -172h262l-14 -77h-261l-34 -191h309
l-14 -76h-395z" />
    <glyph glyph-name="uni1ECB.sc" horiz-adv-x="251" 
d="M30 0l104 592h87l-104 -592h-87zM-4 -186l21 115h90l-21 -115h-90z" />
    <glyph glyph-name="uni1ECD.sc" horiz-adv-x="623" 
d="M564 289q-28 -158 -98.5 -231.5t-202.5 -73.5q-138 0 -185 77.5t-19 239.5q28 159 98.5 232.5t202.5 73.5q138 0 185 -78t19 -240zM147 294q-23 -125 3.5 -180t115.5 -55q90 0 139 56.5t71 181.5q23 125 -3.5 180.5t-114.5 55.5q-90 0 -139.5 -57.5t-71.5 -181.5z
M182 -188l21 115h90l-21 -115h-90z" />
    <glyph glyph-name="uni1EE5.sc" horiz-adv-x="595" 
d="M524 283q-14 -79 -31 -129t-48 -91.5t-80 -60t-121 -18.5q-74 0 -118.5 21t-62 60t-18 96t13.5 129l54 302h87l-54 -308q-23 -111 -2 -164.5t104 -53.5q86 0 127 52t62 170l53 304h88zM163 -189l21 115h90l-21 -115h-90z" />
    <glyph glyph-name="uni1EF9.sc" horiz-adv-x="492" 
d="M487 797q-9 -51 -31 -81.5t-72 -30.5q-30 0 -48.5 12t-31.5 24t-29 12q-23 0 -36.5 -16.5t-16.5 -33.5l-60 7q9 51 31.5 81.5t72.5 30.5q30 0 48.5 -12t31 -24t28.5 -12q24 0 37 17t17 33zM154 0l33 186l-137 406h97l94 -334l206 334h105l-279 -405l-33 -187h-86z" />
    <glyph glyph-name="uni2016.sc" horiz-adv-x="479" 
d="M46 -77l133 754h66l-134 -754h-65zM225 -77l134 754h66l-134 -754h-66z" />
    <glyph glyph-name="uni20BD.sc" horiz-adv-x="586" 
d="M74 0l24 139h-78l11 61h78l12 64h-79l12 66l78 -1l48 268h177q133 0 184.5 -38t33.5 -136q-17 -93 -77 -126t-194 -33h-96l-12 -64h151l-10 -61h-152l-24 -139h-87zM255 531l-36 -202h101q72 0 114.5 22t53.5 84q10 58 -22.5 77t-103.5 19h-107z" />
    <glyph glyph-name="uogonek.sc" horiz-adv-x="595" 
d="M199 -90q7 40 46 74h-1q-74 0 -118.5 21t-62 60t-18 96t13.5 129l54 302h87l-54 -308q-23 -111 -2 -164.5t104 -53.5q86 0 127 52t62 170l53 304h88l-54 -309q-21 -121 -57 -188.5t-108 -93.5q-62 -40 -68 -81q-7 -35 27 -35q11 0 23.5 3.5t20.5 7.5l7 4l-7 -53
q-25 -23 -81 -23q-49 0 -69 24.5t-13 61.5z" />
    <glyph glyph-name="uring.sc" horiz-adv-x="595" 
d="M475 759q-7 -41 -36 -64t-73 -23q-48 0 -71.5 27.5t-15.5 72.5q7 41 36 64t73 23q48 0 71.5 -27t15.5 -73zM338 761q-6 -34 29 -34q19 0 32 11.5t17 30.5q5 35 -29 35q-18 0 -31.5 -12t-17.5 -31zM524 283q-14 -79 -31 -129t-48 -91.5t-80 -60t-121 -18.5
q-74 0 -118.5 21t-62 60t-18 96t13.5 129l54 302h87l-54 -308q-23 -111 -2 -164.5t104 -53.5q86 0 127 52t62 170l53 304h88z" />
    <glyph glyph-name="utilde.sc" horiz-adv-x="595" 
d="M535 797q-9 -51 -31 -81.5t-72 -30.5q-30 0 -48.5 12t-31.5 24t-29 12q-23 0 -36.5 -16.5t-16.5 -33.5l-60 7q9 51 31.5 81.5t72.5 30.5q30 0 48.5 -12t31 -24t28.5 -12q24 0 37 17t17 33zM524 283q-14 -79 -31 -129t-48 -91.5t-80 -60t-121 -18.5q-74 0 -118.5 21
t-62 60t-18 96t13.5 129l54 302h87l-54 -308q-23 -111 -2 -164.5t104 -53.5q86 0 127 52t62 170l53 304h88z" />
    <glyph glyph-name="v.sc" horiz-adv-x="536" 
d="M60 592h95l75 -522l257 522h97l-314 -592h-105z" />
    <glyph glyph-name="w.sc" horiz-adv-x="814" 
d="M451 504l-216 -504h-105l-69 592h99l38 -516l219 516h97l41 -516l221 516h95l-278 -592h-104z" />
    <glyph glyph-name="wacute.sc" horiz-adv-x="814" 
d="M439 685l102 144h91l-117 -144h-76zM451 504l-216 -504h-105l-69 592h99l38 -516l219 516h97l41 -516l221 516h95l-278 -592h-104z" />
    <glyph glyph-name="wcircumflex.sc" horiz-adv-x="814" 
d="M637 684h-84l-55 83l-83 -83h-89l136 143h87zM451 504l-216 -504h-105l-69 592h99l38 -516l219 516h97l41 -516l221 516h95l-278 -592h-104z" />
    <glyph glyph-name="wdieresis.sc" horiz-adv-x="814" 
d="M357 684l22 129h85l-23 -129h-84zM525 684l23 129h84l-22 -129h-85zM451 504l-216 -504h-105l-69 592h99l38 -516l219 516h97l41 -516l221 516h95l-278 -592h-104z" />
    <glyph glyph-name="wgrave.sc" horiz-adv-x="814" 
d="M514 685h-72l-65 144h86zM451 504l-216 -504h-105l-69 592h99l38 -516l219 516h97l41 -516l221 516h95l-278 -592h-104z" />
    <glyph glyph-name="x.sc" horiz-adv-x="526" 
d="M248 238l-199 -238h-103l256 296l-147 296h94l118 -242l201 242h103l-261 -299l147 -293h-95z" />
    <glyph glyph-name="y.sc" horiz-adv-x="492" 
d="M154 0l33 186l-137 406h97l94 -334l206 334h105l-279 -405l-33 -187h-86z" />
    <glyph glyph-name="yacute.sc" horiz-adv-x="492" 
d="M270 685l102 144h91l-117 -144h-76zM154 0l33 186l-137 406h97l94 -334l206 334h105l-279 -405l-33 -187h-86z" />
    <glyph glyph-name="ycircumflex.sc" horiz-adv-x="492" 
d="M468 684h-84l-55 83l-83 -83h-89l136 143h87zM154 0l33 186l-137 406h97l94 -334l206 334h105l-279 -405l-33 -187h-86z" />
    <glyph glyph-name="ydieresis.sc" horiz-adv-x="492" 
d="M188 684l22 129h85l-23 -129h-84zM356 684l23 129h84l-22 -129h-85zM154 0l33 186l-137 406h97l94 -334l206 334h105l-279 -405l-33 -187h-86z" />
    <glyph glyph-name="yen.sc" horiz-adv-x="469" 
d="M143 0l25 144h-94l10 58h94l7 43h-93l10 59h73l-125 289h94l97 -265l184 265h104l-227 -289h70l-10 -59h-94l-7 -43h93l-10 -58h-93l-25 -144h-83z" />
    <glyph glyph-name="ygrave.sc" horiz-adv-x="492" 
d="M345 685h-72l-65 144h86zM154 0l33 186l-137 406h97l94 -334l206 334h105l-279 -405l-33 -187h-86z" />
    <glyph glyph-name="z.sc" horiz-adv-x="472" 
d="M-38 2l9 48l3 26l405 439h-313l14 74h416l-5 -26l-7 -48l-409 -439h333l-13 -74h-433z" />
    <glyph glyph-name="zacute.sc" horiz-adv-x="472" 
d="M260 685l102 144h91l-117 -144h-76zM-38 2l9 48l3 26l405 439h-313l14 74h416l-5 -26l-7 -48l-409 -439h333l-13 -74h-433z" />
    <glyph glyph-name="zcaron.sc" horiz-adv-x="472" 
d="M485 827l-138 -143h-87l-84 143h81l55 -81l83 81h90zM-38 2l9 48l3 26l405 439h-313l14 74h416l-5 -26l-7 -48l-409 -439h333l-13 -74h-433z" />
    <glyph glyph-name="zdotaccent.sc" horiz-adv-x="472" 
d="M260 691l21 122h91l-21 -122h-91zM-38 2l9 48l3 26l405 439h-313l14 74h416l-5 -26l-7 -48l-409 -439h333l-13 -74h-433z" />
    <glyph glyph-name="zero.dnom" horiz-adv-x="519" 
d="M457 251q-25 -142 -79.5 -201t-159.5 -59q-109 0 -145.5 63t-11.5 209q25 142 79.5 201t159.5 59q110 0 146.5 -63.5t10.5 -208.5zM135 251q-20 -107 0.5 -149.5t84.5 -42.5q67 0 105 45.5t59 158.5q19 108 -1 150.5t-84 42.5q-67 0 -105 -46t-59 -159z" />
    <glyph glyph-name="zero.numr" horiz-adv-x="519" 
d="M500 496q-25 -142 -79.5 -201t-159.5 -59q-109 0 -145.5 63t-11.5 209q25 142 79.5 201t159.5 59q110 0 146.5 -63.5t10.5 -208.5zM178 496q-20 -107 0.5 -149.5t84.5 -42.5q67 0 105 45.5t59 158.5q19 108 -1 150.5t-84 42.5q-67 0 -105 -46t-59 -159z" />
    <glyph glyph-name="zero.osf" horiz-adv-x="620" 
d="M560 271q-25 -145 -91.5 -214.5t-203.5 -69.5q-142 0 -186.5 73.5t-17.5 223.5q25 145 91.5 215t203.5 71q141 1 185.5 -74t18.5 -225zM151 271q-20 -111 4.5 -159.5t112.5 -48.5q91 0 136 52t66 169q20 112 -4.5 161.5t-112.5 49.5q-90 0 -136 -53.5t-66 -170.5z" />
    <glyph glyph-name="zero.sc" horiz-adv-x="561" 
d="M508 286q-29 -161 -92 -228t-182 -67q-124 0 -166.5 71t-13.5 236q28 162 91.5 229.5t183.5 67.5q124 0 165.5 -71.5t13.5 -237.5zM140 289q-23 -124 0.5 -172.5t96.5 -48.5q76 0 119 50.5t65 176.5q23 125 0 174t-96 49q-76 0 -119.5 -51.5t-65.5 -177.5z" />
    <glyph glyph-name="zero.subs" horiz-adv-x="519" 
d="M407 57q-25 -142 -79.5 -201t-159.5 -59q-109 0 -145.5 63t-11.5 209q25 142 79.5 201t159.5 59q110 0 146.5 -63.5t10.5 -208.5zM85 57q-20 -107 0.5 -149.5t84.5 -42.5q67 0 105 45.5t59 158.5q19 108 -1 150.5t-84 42.5q-67 0 -105 -46t-59 -159z" />
    <glyph glyph-name="zero.tf" horiz-adv-x="656" 
d="M594 345q-34 -192 -108.5 -274t-214.5 -82q-146 0 -194.5 86t-13.5 283q34 193 108.5 275t215.5 82q146 0 194 -86.5t13 -283.5zM153 345q-27 -153 2 -213t120 -60q94 0 148 64t82 222q26 153 -2.5 214t-119.5 61q-94 0 -148 -65t-82 -223z" />
    </font>
</defs>
</svg>
