<svg xmlns="http://www.w3.org/2000/svg">
<defs>
<font id="TofinoProPersonalText-MediumItalic" horiz-adv-x="0" >
  <font-face 
    font-family="Tofino Pro Personal Text Md It"
    font-weight="425"
    font-style="italic"
    font-stretch="normal"
    units-per-em="1000"
    panose-1="0 0 5 0 0 0 0 0 0 0"
    ascent="760"
    descent="-240"
    x-height="541"
    cap-height="717"
    bbox="-788 -284 1356.27 1162"
    underline-thickness="50"
    underline-position="-225"
    slope="-10"
    unicode-range="U+0020-2661"
  />
<missing-glyph horiz-adv-x="636" 
d="M511 521q13 -9 15 -30t-11 -32q-10 -7 -24 -7q-15 0 -46 9q60 -63 60 -152q0 -87 -58 -149t-140 -62q-81 0 -139 62t-58 149q0 94 63 155q-22 31 -8 64q13 31 53 51.5t89 20.5q50 0 91.5 -21.5t55.5 -54.5l1 -2q38 12 56 -1zM307 576q-41 0 -75.5 -16.5t-44.5 -40.5
q-9 -19 4 -39q51 40 112 41q0 12 3 20q9 21 25 25q21 5 63 -33l2 -2q8 3 15 3q3 0 9 -2q-17 20 -49 32t-64 12zM329 532q-3 -8 -1 -12q5 -9 43 -14q1 -1 3 -1q1 1 1 3l3 7q-33 30 -42 28q-4 -2 -7 -11zM412 484q11 0 13 9q2 6 -1 10q-3 5 -9 6q-1 1 -4 1q-10 0 -13 -9
q-1 -3 1 -9q4 -6 9 -7zM450 485q43 -13 50 -7q4 2 2 12q0 8 -4 12q-8 6 -45 -5q-1 -1 -4 -1q0 -7 -1 -10q1 -1 2 -1zM238 482q-16 -18 -5 -41q16 -34 79.5 -61t162.5 -22q-17 65 -66 103q-5 0 -8 1q-15 5 -22 18h-1l-10 2q-35 4 -49 14q-4 1 -12 1q-36 0 -69 -15zM212 431
q-7 14 -7 30q-54 -44 -67 -112q29 -1 61 10t52 27q-27 20 -39 45zM457 318q9 12 14 16h-24q-105 0 -175 39q-46 -44 -124 -48l8 -7q16 9 57 9q50 0 71 -10q23 -11 46 0q20 10 71 10q42 0 56 -9zM134 309q0 -77 51 -132.5t122 -55.5q72 0 123 55.5t51 132.5q0 3 -0.5 8.5
t-0.5 8.5q-7 -6 -16 -18v-1q3 -28 -7 -50t-32 -25q-16 -2 -32 -2q-35 0 -47 7q-21 12 -28 45q-1 2 -1 5q-3 10 -11 10q-6 0 -9 -10q-1 -1 -1 -5q-7 -33 -29 -45q-12 -7 -47 -7q-17 0 -31 2q-22 3 -32.5 25.5t-7.5 49.5v1l-15 14v-13zM262 247q17 10 22 37q3 13 -2 20l-2 2

<glyph glyph-name="f_f" unicode="ff" horiz-adv-x="843" 
d="M71 0l74 421h-75l17 99h75l10 55q35 190 221 190h83l-20 -112h-32q-102 0 -121 -110l-4 -23h132l-17 -99h-133l-73 -421h-137zM493 0l74 421h-75l17 99h75l10 55q35 190 221 190h83l-19 -112h-32q-102 0 -121 -110l-4 -23h132l-17 -99h-133l-74 -421h-137z" />
    <glyph glyph-name="f_f_i" unicode="ffi" horiz-adv-x="1153" 
d="M71 0l74 421h-75l17 99h75l10 55q35 190 221 190h83l-20 -112h-32q-102 0 -121 -110l-4 -23h132l-17 -99h-133l-73 -421h-137zM493 0l74 421h-75l17 99h75l10 55q35 190 221 190h83l-19 -112h-32q-102 0 -121 -110l-4 -23h132l-17 -99h-133l-74 -421h-137zM991 631
l22 129h138l-22 -129h-138zM880 0l95 543h138l-96 -543h-137z" />
    <glyph glyph-name="f_f_l" unicode="ffl" horiz-adv-x="1154" 
d="M71 0l74 421h-75l17 99h75l10 55q35 190 221 190h83l-20 -112h-32q-102 0 -121 -110l-4 -23h132l-17 -99h-133l-73 -421h-137zM493 0l74 421h-75l17 99h75l10 55q35 190 221 190h83l-19 -112h-32q-102 0 -121 -110l-4 -23h132l-17 -99h-133l-74 -421h-137zM1055 -1
q-57 0 -92 17.5t-46 46t-13 64t7 72.5l98 560h138l-100 -565q-13 -78 31 -78h44l-20 -117h-47z" />
    <glyph glyph-name=".notdef" horiz-adv-x="636" 
d="M511 521q13 -9 15 -30t-11 -32q-10 -7 -24 -7q-15 0 -46 9q60 -63 60 -152q0 -87 -58 -149t-140 -62q-81 0 -139 62t-58 149q0 94 63 155q-22 31 -8 64q13 31 53 51.5t89 20.5q50 0 91.5 -21.5t55.5 -54.5l1 -2q38 12 56 -1zM307 576q-41 0 -75.5 -16.5t-44.5 -40.5
q-9 -19 4 -39q51 40 112 41q0 12 3 20q9 21 25 25q21 5 63 -33l2 -2q8 3 15 3q3 0 9 -2q-17 20 -49 32t-64 12zM329 532q-3 -8 -1 -12q5 -9 43 -14q1 -1 3 -1q1 1 1 3l3 7q-33 30 -42 28q-4 -2 -7 -11zM412 484q11 0 13 9q2 6 -1 10q-3 5 -9 6q-1 1 -4 1q-10 0 -13 -9
q-1 -3 1 -9q4 -6 9 -7zM450 485q43 -13 50 -7q4 2 2 12q0 8 -4 12q-8 6 -45 -5q-1 -1 -4 -1q0 -7 -1 -10q1 -1 2 -1zM238 482q-16 -18 -5 -41q16 -34 79.5 -61t162.5 -22q-17 65 -66 103q-5 0 -8 1q-15 5 -22 18h-1l-10 2q-35 4 -49 14q-4 1 -12 1q-36 0 -69 -15zM212 431
q-7 14 -7 30q-54 -44 -67 -112q29 -1 61 10t52 27q-27 20 -39 45zM457 318q9 12 14 16h-24q-105 0 -175 39q-46 -44 -124 -48l8 -7q16 9 57 9q50 0 71 -10q23 -11 46 0q20 10 71 10q42 0 56 -9zM134 309q0 -77 51 -132.5t122 -55.5q72 0 123 55.5t51 132.5q0 3 -0.5 8.5
t-0.5 8.5q-7 -6 -16 -18v-1q3 -28 -7 -50t-32 -25q-16 -2 -32 -2q-35 0 -47 7q-21 12 -28 45q-1 2 -1 5q-3 10 -11 10q-6 0 -9 -10q-1 -1 -1 -5q-7 -33 -29 -45q-12 -7 -47 -7q-17 0 -31 2q-22 3 -32.5 25.5t-7.5 49.5v1l-15 14v-13zM262 247q17 10 22 37q3 13 -2 20l-2 2
h-1q-18 10 -66 10q-18 0 -30.5 -2t-17 -4.5t-4.5 -3.5q-2 -21 5 -40.5t24 -21.5q16 -2 30 -2q32 0 42 5zM393 242q15 0 31 2q17 2 24 22t5 40q-5 10 -52 10q-48 0 -66 -10q-1 0 -1 -1l-2 -1q-5 -7 -2 -20q3 -26 22 -37q10 -5 41 -5zM236 294q11 -6 11 -21q0 -10 -7 -17
t-17 -7t-17 7t-7 17q0 5 1 8l-11 9q-3 2 0 5q2 2 5 0l9 -8l3 4l-6 11q-1 1 -0.5 2.5t1.5 2.5q3 2 5 -2l6 -10l4 2l-2 12q0 4 4 4q2 0 4 -3l1 -12q1 0 3 -0.5t3 -0.5l3 13q2 3 5 3q4 -2 2 -5zM424 295q1 1 2.5 1t2.5 -1q2 -4 -1 -5l-10 -10q0 -1 0.5 -3t0.5 -4
q0 -10 -7.5 -17t-17.5 -7t-17 7t-7 17q0 14 12 21l-4 14q0 4 3 5q4 0 4 -3l3 -13q2 1 6 1l2 12q0 3 4 3q3 0 3 -4l-2 -12l5 -2l6 10q2 4 4 2q1 -1 2 -2.5t0 -2.5l-7 -11q3 -1 3 -4zM306 143q23 0 38.5 10.5t15.5 26.5q0 15 -16 25.5t-38 10.5t-38 -10.5t-16 -25.5
q0 -16 15.5 -26.5t38.5 -10.5z" />
    <glyph glyph-name=".null" 
 />
    <glyph glyph-name="nonmarkingreturn" horiz-adv-x="333" 
 />
    <glyph glyph-name="space" unicode=" " horiz-adv-x="271" 
 />
    <glyph glyph-name="exclam" unicode="!" horiz-adv-x="323" 
d="M85 182l86 535h138l-104 -535h-120zM45 0l23 135h138l-24 -135h-137z" />
    <glyph glyph-name="quotedbl" unicode="&#x22;" horiz-adv-x="448" 
d="M122 515l22 240h146l-64 -240h-104zM308 515l23 240h145l-63 -240h-105z" />
    <glyph glyph-name="numbersign" unicode="#" horiz-adv-x="835" 
d="M106 0l69 180h-97l17 100h118l62 160h-103l18 100h123l63 162h108l-63 -162h142l63 162h108l-63 -162h102l-18 -100h-122l-62 -160h107l-18 -100h-127l-69 -180h-108l69 180h-142l-69 -180h-108zM321 280h142l62 160h-142z" />
    <glyph glyph-name="dollar" unicode="$" horiz-adv-x="638" 
d="M211 -41l15 83q-185 23 -171 190l116 7q-3 -52 26.5 -76t92.5 -26q66 -1 107 23t49 71q5 28 -13 46.5t-50.5 28.5t-72.5 18.5t-79 21.5t-70 32t-45.5 55t-5.5 86q31 164 231 177l12 66h97l-13 -69q180 -21 166 -177l-115 -6q2 41 -20 63.5t-88 23.5q-135 1 -152 -94
q-5 -28 13 -46.5t50.5 -28t72.5 -18t79 -21t70 -31.5t46 -55t6 -86q-30 -169 -243 -179l-14 -79h-97z" />
    <glyph glyph-name="percent" unicode="%" horiz-adv-x="933" 
d="M457 527q-14 -84 -60.5 -126.5t-139.5 -42.5q-190 0 -156 188q15 86 62.5 130t139.5 44q100 0 135.5 -50t18.5 -143zM107 0l603 702h132l-603 -702h-132zM190 527q-8 -48 6 -71t57 -23q95 0 114 113q9 51 -4 74.5t-56 23.5q-96 0 -117 -117zM845 151q-15 -84 -61.5 -127
t-139.5 -43q-191 0 -156 189q15 86 62.5 130t140.5 44q188 0 154 -193zM577 151q-8 -48 6.5 -71t56.5 -23q94 0 116 113q9 50 -5 74t-57 24q-96 0 -117 -117z" />
    <glyph glyph-name="ampersand" unicode="&#x26;" horiz-adv-x="807" 
d="M553 547q4 45 -12.5 67t-62.5 22q-58 0 -90.5 -28.5t-39.5 -73.5q-4 -23 -1 -43.5t17.5 -45t26.5 -41t40.5 -51.5t44.5 -56q13 -15 39.5 -44.5t39.5 -44.5q40 70 59 174l111 -25q-30 -143 -99 -231l84 -96l-3 -35h-128q-16 19 -39 50q-95 -64 -237 -64
q-131 0 -188.5 60.5t-37.5 174.5q15 83 65.5 130t109.5 69q-38 70 -25 148q30 173 252 173q110 0 159.5 -49t40.5 -136zM329 75q90 0 152 46q-43 55 -117 153q-52 59 -59 68q-95 -53 -111 -144q-10 -58 20 -90.5t115 -32.5z" />
    <glyph glyph-name="quotesingle" unicode="'" horiz-adv-x="262" 
d="M122 515l22 240h146l-64 -240h-104z" />
    <glyph glyph-name="parenleft" unicode="(" horiz-adv-x="403" 
d="M103 290q23 128 70.5 245.5t83.5 170.5l36 54h132q-6 -8 -16.5 -23.5t-39 -66t-52.5 -104t-50.5 -134.5t-40.5 -162q-21 -141 -14.5 -244.5t24.5 -162.5l19 -59h-128q-3 8 -8 22t-15.5 62.5t-15.5 101.5t-2.5 134.5t17.5 165.5z" />
    <glyph glyph-name="parenright" unicode=")" horiz-adv-x="403" 
d="M285 760q3 -8 7.5 -22.5t14 -63.5t13.5 -102.5t1 -135.5t-18 -166q-14 -81 -39.5 -158.5t-51.5 -131t-50 -95t-39 -61.5l-15 -20h-131q6 8 16.5 23t40 65t54 103t51.5 133.5t41 161.5q21 141 16 245.5t-22 164.5l-17 60h128z" />
    <glyph glyph-name="asterisk" unicode="*" horiz-adv-x="497" 
d="M139 582l40 84l93 -39l14 99h85l-22 -99l103 39l14 -84l-109 -25l64 -79l-81 -59l-46 88l-78 -88l-68 59l90 79z" />
    <glyph glyph-name="plus" unicode="+" horiz-adv-x="554" 
d="M75 369h168l29 164h103l-29 -164h168l-16 -95h-169l-29 -165h-103l29 165h-167z" />
    <glyph glyph-name="comma" unicode="," horiz-adv-x="317" 
d="M-25 -123q38 62 73 153q15 38 24 67t11 39l2 11h129q-9 -55 -54 -147q-20 -41 -40.5 -72t-31.5 -41l-10 -10h-103z" />
    <glyph glyph-name="hyphen" unicode="-" horiz-adv-x="462" 
d="M100 265l18 105h261l-18 -105h-261z" />
    <glyph glyph-name="period" unicode="." horiz-adv-x="313" 
d="M39 0l25 142h140l-25 -142h-140z" />
    <glyph glyph-name="slash" unicode="/" horiz-adv-x="562" 
d="M7 -40l473 843h125l-473 -843h-125z" />
    <glyph glyph-name="zero" unicode="0" horiz-adv-x="689" 
d="M623 271q-27 -147 -99.5 -216.5t-220.5 -69.5q-156 0 -208 76t-25 229q25 146 98 216.5t222 70.5q155 1 207.5 -76t25.5 -230zM208 271q-18 -99 2.5 -139t93.5 -40q80 0 121 46t60 152q17 99 -3.5 139.5t-93.5 40.5q-80 0 -121 -47t-59 -152z" />
    <glyph glyph-name="one" unicode="1" horiz-adv-x="438" 
d="M3 0l17 99h110l56 326l-103 -27l19 111l157 57h84l-82 -467h109l-17 -99h-350z" />
    <glyph glyph-name="two" unicode="2" horiz-adv-x="594" 
d="M75 415q49 161 256 161q71 0 119.5 -15.5t69 -42t28.5 -60t-1 -69.5q-3 -18 -8 -33.5t-14.5 -31t-15.5 -26.5t-22 -26.5t-23 -23.5t-29 -25t-29.5 -23t-35 -26.5t-35.5 -26.5l-73 -44l236 7l-19 -110h-478l17 96v1h2q136 74 176 98q58 34 84.5 51.5t62.5 45t53 53
t22 54.5q6 32 -14 51.5t-72 19.5t-87.5 -25t-47.5 -61z" />
    <glyph glyph-name="three" unicode="3" horiz-adv-x="617" 
d="M373 307q189 -38 156 -228q-18 -101 -90 -164.5t-210 -63.5q-126 0 -181.5 57t-50.5 144l135 8q-1 -41 23.5 -66t75.5 -25q67 0 108.5 38t52.5 102q10 57 -21.5 88.5t-101.5 31.5q-22 0 -45.5 -2.5t-35.5 -4.5l-12 -3l10 83l226 151l-316 -8l20 122h486l-19 -110z" />
    <glyph glyph-name="four" unicode="4" horiz-adv-x="648" 
d="M333 -158l27 158h-372l17 107l393 460h193l-81 -460h84l-19 -107h-84l-28 -158h-130zM379 107l61 346l-288 -346h227z" />
    <glyph glyph-name="five" unicode="5" horiz-adv-x="631" 
d="M276 454l-58 -170q61 40 151 40q60 0 102.5 -20.5t62.5 -55t27 -78.5t-4 -92q-18 -103 -90.5 -167t-211.5 -64q-128 0 -187.5 52.5t-59.5 126.5l140 11q3 -33 30.5 -54.5t78.5 -21.5q68 0 110 37t53 100q10 57 -14.5 91.5t-77.5 34.5q-44 0 -81 -13.5t-50.5 -24.5
t-18.5 -18h-129l131 398h422l-20 -116z" />
    <glyph glyph-name="six" unicode="6" horiz-adv-x="681" 
d="M519 534q-4 77 -99 77q-67 0 -111 -44.5t-75 -157.5q74 54 177 54q127 0 177.5 -69t31.5 -177q-18 -102 -93 -166t-220 -65q-151 -1 -205 83t-24 256q39 218 117 307t225 89q120 0 175 -52t56 -124zM378 365q-101 0 -170 -78q-16 -100 9 -145t93 -45q74 0 117 38.5
t55 106.5q23 123 -104 123z" />
    <glyph glyph-name="seven" unicode="7" horiz-adv-x="551" 
d="M65 -154q17 94 58.5 191t89.5 168.5t94 130t76 88.5l30 30l-358 -8l21 121h503l-20 -117q-12 -12 -33 -33.5t-76.5 -89t-100.5 -135t-89.5 -163.5t-59.5 -183h-135z" />
    <glyph glyph-name="eight" unicode="8" horiz-adv-x="690" 
d="M303 -12q-156 0 -213.5 57.5t-39.5 162.5q8 43 29.5 78t47 54.5t47.5 29.5t37 11q-8 1 -22 10.5t-30.5 27t-25.5 48.5t-2 68q33 186 285 186q142 0 195.5 -55t36.5 -151q-8 -44 -36 -76.5t-53 -45t-42 -13.5q13 -2 30.5 -14t36.5 -33.5t28.5 -59.5t1.5 -84
q-17 -98 -89 -149.5t-222 -51.5zM416 626q-128 0 -150 -123q-7 -39 17.5 -62.5t78.5 -23.5q61 0 100 29.5t48 75.5q18 104 -94 104zM364 332q-67 0 -110.5 -35.5t-53.5 -91.5q-18 -109 106 -109q69 0 110.5 33.5t52.5 94.5q9 49 -17 78.5t-88 29.5z" />
    <glyph glyph-name="nine" unicode="9" horiz-adv-x="685" 
d="M158 27q6 -80 113 -80q67 0 111 42t74 153q-75 -58 -173 -58q-252 0 -205 262q17 100 94.5 165t212.5 66q152 1 206 -84t22 -265q-39 -221 -115.5 -305.5t-228.5 -84.5q-128 0 -186 54t-55 127zM310 183q100 0 172 81q16 110 -7.5 157t-91.5 47q-64 0 -111 -41t-58 -106
q-24 -138 96 -138z" />
    <glyph glyph-name="colon" unicode=":" horiz-adv-x="334" 
d="M117 387l25 142h141l-26 -142h-140zM53 24l26 147h140l-26 -147h-140z" />
    <glyph glyph-name="semicolon" unicode=";" horiz-adv-x="337" 
d="M111 363l26 142h140l-26 -142h-140zM-28 -123q37 62 72 153q15 38 24.5 67t11.5 39l2 11h128q-9 -55 -53 -147q-20 -41 -40.5 -71.5t-31.5 -40.5l-11 -10z" />
    <glyph glyph-name="less" unicode="&#x3c;" horiz-adv-x="594" 
d="M476 138l-402 131l20 119l449 131l-18 -106l-352 -85l321 -85z" />
    <glyph glyph-name="equal" unicode="=" horiz-adv-x="602" 
d="M92 344l16 95h445l-16 -95h-445zM62 177l16 95h445l-16 -95h-445z" />
    <glyph glyph-name="greater" unicode="&#x3e;" horiz-adv-x="594" 
d="M71 137l18 106l351 85l-320 85l18 106l403 -132l-21 -119z" />
    <glyph glyph-name="question" unicode="?" horiz-adv-x="631" 
d="M105 525q25 101 88 154.5t178 53.5q133 0 185 -61.5t34 -164.5q-9 -50 -33 -85.5t-53 -57t-58 -42t-53.5 -52t-34.5 -74.5l-6 -25h-138l7 35q9 51 33 87.5t52.5 58.5t57 42t51.5 50t30 71q17 100 -76 100q-107 0 -136 -118zM184 0l22 126h137l-21 -126h-138z" />
    <glyph glyph-name="at" unicode="@" horiz-adv-x="951" 
d="M710 89q35 1 59.5 43t44.5 155q30 167 -29.5 253.5t-229.5 86.5q-169 0 -265 -95t-125 -259q-59 -335 252 -335q130 0 207 34l-7 -85q-81 -27 -198 -27q-111 0 -187 33t-112 91t-47 137t8 171q16 88 50.5 160.5t90.5 130.5t140 90t190 32q90 0 158.5 -21.5t109 -60
t64.5 -92t25.5 -117.5t-9.5 -137q-25 -140 -72 -198.5t-137 -59.5q-101 0 -120 84q-55 -53 -150 -53q-97 0 -132 62t-15 175q39 221 210 221q84 0 134 -57l16 50h88l-55 -308q-8 -53 1.5 -78.5t41.5 -25.5zM439 135q90 0 131 62q0 4 1 6l29 167q-24 51 -93 51q-53 0 -88 -41
t-48 -112q-22 -133 68 -133z" />
    <glyph glyph-name="A" unicode="A" horiz-adv-x="764" 
d="M-20 0l397 717h163l145 -717h-151l-23 142h-305l-73 -142h-153zM263 254h230l-55 340z" />
    <glyph glyph-name="B" unicode="B" horiz-adv-x="745" 
d="M175 719h261q170 0 227 -46.5t39 -148.5q-20 -118 -127 -156q112 -43 88 -179q-10 -56 -26.5 -89t-54 -58t-100.5 -34.5t-165 -9.5h-269zM295 614l-33 -193h146q75 -1 112 24.5t47 80.5q8 50 -22 69t-118 19h-132zM244 319l-38 -216h123q102 0 146 25.5t56 90.5
q10 54 -20.5 77t-111.5 23h-155z" />
    <glyph glyph-name="C" unicode="C" horiz-adv-x="744" 
d="M671 227q-33 -132 -112.5 -189t-216.5 -57q-169 0 -231.5 94t-27.5 292q34 192 123 280.5t252 88.5q281 0 259 -247l-137 -8q3 74 -27.5 103.5t-98.5 29.5q-96 0 -151 -63t-80 -203q-23 -133 5.5 -189t117.5 -56q74 0 120.5 34.5t70.5 111.5z" />
    <glyph glyph-name="D" unicode="D" horiz-adv-x="773" 
d="M175 719h235q152 0 227.5 -41t88.5 -123.5t-9 -206.5q-17 -97 -41 -157t-71 -106.5t-122.5 -66.5t-190.5 -20h-244zM296 597l-84 -479h118q111 -1 166 55t79 195q24 132 -8.5 180.5t-142.5 48.5h-128z" />
    <glyph glyph-name="E" unicode="E" horiz-adv-x="650" 
d="M48 0l126 717h499l-21 -118h-359l-31 -176h307l-19 -110h-307l-35 -195h365l-20 -118h-505z" />
    <glyph glyph-name="F" unicode="F" horiz-adv-x="617" 
d="M48 0l126 717h489l-20 -118h-350l-34 -197h297l-20 -113h-297l-51 -289h-140z" />
    <glyph glyph-name="G" unicode="G" horiz-adv-x="748" 
d="M641 91q-1 -3 -12 -14t-36.5 -27.5t-59 -31.5t-85 -26t-108.5 -11q-169 -1 -230.5 93t-26.5 293q34 193 122.5 281t251.5 88q140 0 204 -60.5t53 -176.5l-134 -9q3 66 -28 95t-100 29q-94 0 -149 -63t-80 -203q-24 -136 6 -193t120 -57q49 0 91 11t63 24.5t22 24.5
l18 108h-134l17 98h262z" />
    <glyph glyph-name="H" unicode="H" horiz-adv-x="777" 
d="M48 0l126 717h140l-50 -285h305l50 285h140l-126 -717h-140l53 305h-305l-53 -305h-140z" />
    <glyph glyph-name="I" unicode="I" horiz-adv-x="333" 
d="M48 0l126 717h141l-127 -717h-140z" />
    <glyph glyph-name="J" unicode="J" horiz-adv-x="457" 
d="M376 296q-11 -61 -20.5 -99t-26 -75t-38.5 -57t-56.5 -36.5t-81.5 -22.5t-112 -6h-62l21 127h55q88 0 126 38t56 140l73 412h140z" />
    <glyph glyph-name="K" unicode="K" horiz-adv-x="736" 
d="M48 0l126 717h140l-69 -390l373 390h164l-297 -298l171 -419h-150l-126 313l-166 -166l-26 -147h-140z" />
    <glyph glyph-name="L" unicode="L" horiz-adv-x="578" 
d="M48 0l126 717h140l-104 -591h308l-22 -126h-448z" />
    <glyph glyph-name="M" unicode="M" horiz-adv-x="1020" 
d="M48 0l126 717h203l101 -601l313 601h211l-127 -717h-135l115 585l-324 -585h-146l-112 592l-92 -592h-133z" />
    <glyph glyph-name="N" unicode="N" horiz-adv-x="809" 
d="M272 562l-93 -562h-131l129 717h157l236 -554l90 554h131l-126 -717h-158z" />
    <glyph glyph-name="O" unicode="O" horiz-adv-x="775" 
d="M721 348q-33 -192 -122 -279.5t-255 -87.5q-171 0 -233.5 94t-27.5 292q34 192 123.5 280.5t254.5 88.5q171 0 233 -94.5t27 -293.5zM223 348q-23 -133 6 -189t120 -56q97 0 152.5 62.5t79.5 201.5q24 134 -5 190.5t-120 56.5q-97 0 -152.5 -63t-80.5 -203z" />
    <glyph glyph-name="P" unicode="P" horiz-adv-x="739" 
d="M48 0l126 719h242q192 0 260 -55.5t42 -201.5q-24 -140 -106 -189.5t-276 -49.5h-109l-39 -223h-140zM294 605l-47 -265h120q95 0 145 28.5t65 113.5q4 21 4 37.5t-4 29t-10 22t-17.5 15.5t-23 10t-29 6t-34 2.5t-40.5 0.5h-129z" />
    <glyph glyph-name="Q" unicode="Q" horiz-adv-x="781" 
d="M721 348q-38 -216 -148 -302l90 -92l-104 -80l-98 121q-54 -14 -117 -14q-171 0 -233.5 94t-27.5 292q34 192 123.5 280.5t254.5 88.5q171 0 233 -94.5t27 -293.5zM223 349q-23 -134 6 -190t120 -56q97 0 152.5 62.5t79.5 201.5q24 134 -5 190.5t-120 56.5
q-97 0 -152.5 -62.5t-80.5 -202.5z" />
    <glyph glyph-name="R" unicode="R" horiz-adv-x="757" 
d="M48 0l126 719h280q171 0 233 -53.5t36 -197.5q-16 -93 -55 -141.5t-112 -68.5l89 -258h-147l-73 241q-16 -1 -51 -1h-144l-42 -240h-140zM293 601l-43 -244h125q97 0 145.5 26t62.5 106q13 73 -22 92.5t-134 19.5h-134z" />
    <glyph glyph-name="S" unicode="S" horiz-adv-x="718" 
d="M190 214q-5 -61 28.5 -89t107.5 -29q75 -1 121 26t55 81q6 32 -15 52.5t-58 32t-82.5 21t-90.5 24t-80 36.5t-52 63t-6 98q18 100 95 153.5t216 52.5q141 0 202 -53t52 -149l-134 -14q3 47 -22 73t-100 27q-80 1 -122.5 -28.5t-50.5 -76.5q-5 -28 11 -47t45.5 -29.5
t67.5 -20.5t78 -18.5t77 -25t64.5 -38t40 -59.5t3.5 -89q-36 -209 -324 -207q-137 1 -204.5 57.5t-57.5 164.5z" />
    <glyph glyph-name="T" unicode="T" horiz-adv-x="645" 
d="M202 0l106 591h-221l23 126h582l-22 -126h-222l-105 -591h-141z" />
    <glyph glyph-name="U" unicode="U" horiz-adv-x="758" 
d="M686 348q-17 -99 -38 -160.5t-59.5 -112t-100 -72.5t-152.5 -22q-124 0 -184 44t-66 128t15 205l63 359h140l-63 -358q-26 -139 -6 -195t105 -56q93 0 138 59t70 202l62 348h141z" />
    <glyph glyph-name="V" unicode="V" horiz-adv-x="721" 
d="M104 717h155l74 -600l288 600h155l-372 -717h-179z" />
    <glyph glyph-name="W" unicode="W" horiz-adv-x="1108" 
d="M610 583l-236 -583h-178l-79 717h159l32 -601l241 601h170l30 -599l249 599h152l-335 -717h-176z" />
    <glyph glyph-name="X" unicode="X" horiz-adv-x="724" 
d="M360 274l-219 -274h-162l304 359l-170 358h155l121 -276l219 276h163l-306 -358l169 -359h-155z" />
    <glyph glyph-name="Y" unicode="Y" horiz-adv-x="704" 
d="M236 0l37 215l-162 502h154l95 -392l225 392h168l-341 -504l-38 -213h-138z" />
    <glyph glyph-name="Z" unicode="Z" horiz-adv-x="641" 
d="M-4 3l11 65l8 53l456 475h-356l22 118h532l-8 -41h1l-13 -77l-459 -475h379l-21 -118h-552z" />
    <glyph glyph-name="bracketleft" unicode="[" horiz-adv-x="469" 
d="M44 -198l169 958h290l-19 -105h-169l-132 -748h169l-18 -105h-290z" />
    <glyph glyph-name="backslash" unicode="\" horiz-adv-x="571" 
d="M452 -40h-120l-175 843h120z" />
    <glyph glyph-name="bracketright" unicode="]" horiz-adv-x="469" 
d="M261 -198h-290l18 105h168l132 748h-168l19 105h290z" />
    <glyph glyph-name="asciicircum" unicode="^" horiz-adv-x="513" 
d="M470 460h-93l-48 197l-119 -197h-100l186 287h89z" />
    <glyph glyph-name="underscore" unicode="_" horiz-adv-x="654" 
d="M59 0l18 100h440l-18 -100h-440z" />
    <glyph glyph-name="grave" unicode="`" horiz-adv-x="424" 
d="M349 627h-121l-79 162h140z" />
    <glyph glyph-name="a" unicode="a" horiz-adv-x="673" 
d="M125 452q67 102 240 102q54 0 94.5 -8t66.5 -20t41.5 -34.5t22.5 -43.5t6.5 -56t-4 -62t-11.5 -71l-21 -113l-15 -146h-124l-3 49q-82 -64 -189 -64q-106 0 -152 45.5t-30 134.5q16 93 80.5 130.5t173.5 37.5q81 0 153 -9q13 78 -5 106t-89 28q-102 0 -153 -62zM267 84
q49 0 91 19.5t66 44.5l16 98q-69 3 -95 3q-143 0 -160 -95q-6 -33 13 -51.5t69 -18.5z" />
    <glyph glyph-name="b" unicode="b" horiz-adv-x="688" 
d="M35 0l38 152l108 605h136l-46 -260q73 57 172 57q116 0 158.5 -77t17.5 -218q-23 -133 -86.5 -201.5t-174.5 -68.5q-130 0 -176 83l-28 -72h-119zM399 445q-82 0 -149 -69l-38 -221q31 -57 110 -57q129 0 162 181q29 166 -85 166z" />
    <glyph glyph-name="c" unicode="c" horiz-adv-x="650" 
d="M556 133q-67 -147 -264 -147q-148 0 -199 74.5t-25 219.5q24 138 95.5 207.5t212.5 69.5q106 0 161 -44t64 -117l-119 -34q-13 89 -108 89q-72 0 -111.5 -46t-57.5 -144q-16 -92 3.5 -130.5t85.5 -38.5q50 0 90 23t61 62z" />
    <glyph glyph-name="d" unicode="d" horiz-adv-x="684" 
d="M440 0l-3 69q-64 -80 -190 -80q-230 0 -179 290q48 275 261 275q107 0 166 -69l48 272h137l-108 -605l-15 -152h-117zM288 98q89 0 151 72l38 216q-36 59 -109 59q-132 0 -164 -185q-29 -162 84 -162z" />
    <glyph glyph-name="e" unicode="e" horiz-adv-x="664" 
d="M564 101q-30 -52 -97.5 -84t-171.5 -32q-148 0 -200.5 75t-26.5 220q24 138 97 207.5t213 69.5q146 0 196 -74t21 -241h-393q-13 -85 8 -120.5t85 -35.5q57 0 100 18.5t60 42.5zM378 463q-61 0 -98.5 -32t-58.5 -102h250q4 74 -18.5 104t-74.5 30z" />
    <glyph glyph-name="f" unicode="f" horiz-adv-x="421" 
d="M476 765l-20 -112h-32q-102 0 -121 -110l-4 -23h132l-17 -99h-133l-73 -421h-137l74 421h-75l17 99h75l10 55q35 190 221 190h83z" />
    <glyph glyph-name="g" unicode="g" horiz-adv-x="683" 
d="M141 -82q2 -27 28 -47t83 -20q44 0 73 11t45.5 35t24 47t14.5 60l7 44q-63 -59 -169 -59q-231 0 -179 290q48 275 261 275q39 0 72 -9.5t54 -24.5t32 -26.5t18 -22.5l28 72h119l-37 -149l-71 -401q-15 -91 -38 -130q-62 -107 -256 -107q-114 0 -168 42.5t-61 96.5z
M287 98q86 0 150 70l39 220q-35 57 -108 57q-132 0 -165 -185q-29 -162 84 -162z" />
    <glyph glyph-name="h" unicode="h" horiz-adv-x="718" 
d="M73 0l133 757h138l-49 -277q78 71 191 71q103 0 139.5 -59t13.5 -189l-55 -303h-136l54 313q11 60 -4.5 87.5t-68.5 27.5q-87 0 -157 -78l-62 -350h-137z" />
    <glyph glyph-name="i" unicode="i" horiz-adv-x="320" 
d="M155 631l24 138h139l-25 -138h-138zM43 0l96 543h137l-95 -543h-138z" />
    <glyph glyph-name="j" unicode="j" horiz-adv-x="327" 
d="M163 631l24 138h139l-25 -138h-138zM199 64q-6 -35 -9.5 -52t-10.5 -46t-14 -43.5t-19.5 -36.5t-27 -32.5t-36 -24t-47.5 -19.5t-60.5 -10.5t-76.5 -4.5l13 121q45 0 72 8.5t43 32t22.5 46.5t15.5 71l83 469h137z" />
    <glyph glyph-name="k" unicode="k" horiz-adv-x="644" 
d="M73 0l133 757h133l-83 -466l242 252h154l-216 -211l138 -332h-151l-87 235l-108 -106l-23 -129h-132z" />
    <glyph glyph-name="l" unicode="l" horiz-adv-x="323" 
d="M271 -1h-46q-57 0 -92.5 17.5t-46.5 46t-13 64t7 72.5l99 560h137l-99 -565q-15 -78 30 -78h45z" />
    <glyph glyph-name="m" unicode="m" horiz-adv-x="1025" 
d="M47 0l70 397l15 146h116l2 -71q76 79 190 79q122 0 149 -91q26 32 79 61.5t127 29.5q100 0 137 -59.5t14 -188.5l-54 -303h-131l55 313q10 60 -4.5 87.5t-65.5 27.5q-80 0 -150 -72q-4 -38 -8 -57l-52 -299h-126l54 308q12 64 -3 92t-65 28q-81 0 -150 -74l-62 -354h-137
z" />
    <glyph glyph-name="n" unicode="n" horiz-adv-x="688" 
d="M47 0l70 397l15 146h116l2 -79q29 32 81.5 59.5t126.5 27.5q104 0 139 -60.5t11 -196.5l-52 -294h-137l54 304q12 67 -3.5 95.5t-68.5 28.5q-87 0 -156 -77l-61 -351h-137z" />
    <glyph glyph-name="o" unicode="o" horiz-adv-x="676" 
d="M608 261q-25 -139 -96.5 -207.5t-215.5 -68.5q-150 0 -202 74.5t-26 220.5q24 139 96.5 208t215.5 69q150 1 201.5 -74.5t26.5 -221.5zM206 261q-16 -92 3.5 -130.5t88.5 -38.5q75 0 114.5 45t57.5 143q16 92 -3.5 131t-88.5 39q-75 0 -115 -45.5t-57 -143.5z" />
    <glyph glyph-name="p" unicode="p" horiz-adv-x="687" 
d="M4 -243l113 637l15 149h116l2 -65q76 76 193 76q228 0 176 -295q-23 -133 -86.5 -201.5t-174.5 -68.5q-116 0 -165 66l-52 -298h-137zM399 445q-82 0 -151 -71l-38 -218q34 -58 112 -58q129 0 162 181q29 166 -85 166z" />
    <glyph glyph-name="q" unicode="q" horiz-adv-x="684" 
d="M366 -243l51 291q-65 -59 -170 -59q-230 0 -179 290q48 275 261 275q120 0 176 -82l29 71h119l-35 -138l-115 -648h-137zM288 98q86 0 150 70l38 220q-35 57 -108 57q-132 0 -164 -185q-29 -162 84 -162z" />
    <glyph glyph-name="r" unicode="r" horiz-adv-x="461" 
d="M47 0l68 384l17 159h118v-95q23 41 75 74.5t142 33.5l-13 -122q-47 0 -87 -14t-65.5 -36.5t-40 -40.5t-24.5 -36l-53 -307h-137z" />
    <glyph glyph-name="s" unicode="s" horiz-adv-x="627" 
d="M155 161q7 -75 115 -78q130 0 145 80q6 33 -29 49t-88 23t-105 19t-84 48.5t-21 99.5q27 158 267 155q212 0 222 -136l-116 -23q-5 33 -28 48t-74 16q-66 1 -99.5 -22t-39.5 -57q-4 -25 21 -39.5t65 -19t86.5 -14.5t85 -24.5t60 -50.5t11.5 -91q-15 -79 -80.5 -119.5
t-197.5 -39.5q-113 1 -172.5 42.5t-61.5 115.5z" />
    <glyph glyph-name="t" unicode="t" horiz-adv-x="421" 
d="M333 -1h-46q-73 0 -117 18t-58.5 50.5t-16 77t10.5 97.5l35 200h-73l18 101h72l27 151l142 22l-31 -173h130l-18 -101h-129l-36 -204q-14 -64 -1 -93t67 -29h45z" />
    <glyph glyph-name="u" unicode="u" horiz-adv-x="681" 
d="M437 0l-2 85q-28 -33 -81 -63.5t-128 -30.5q-103 0 -140 59t-14 189l55 303h136l-54 -312q-11 -60 4.5 -88t68.5 -28q89 0 159 86l60 343h138l-70 -392l-15 -151h-117z" />
    <glyph glyph-name="v" unicode="v" horiz-adv-x="629" 
d="M79 543h151l54 -444l209 444h155l-303 -543h-154z" />
    <glyph glyph-name="w" unicode="w" horiz-adv-x="929" 
d="M490 424l-177 -424h-162l-74 543h143l29 -441l183 441h157l34 -440l182 440h146l-262 -543h-165z" />
    <glyph glyph-name="x" unicode="x" horiz-adv-x="634" 
d="M299 186l-155 -186h-157l247 275l-151 268h157l94 -193l160 193h157l-251 -281l147 -262h-158z" />
    <glyph glyph-name="y" unicode="y" horiz-adv-x="626" 
d="M119 -230l113 230h-47l-106 543h144l63 -435l215 435h144l-400 -773h-126z" />
    <glyph glyph-name="z" unicode="z" horiz-adv-x="542" 
d="M-4 2l12 70l5 39l345 322h-275l19 108h440l-9 -49l-9 -58l-343 -323h284l-18 -109h-451z" />
    <glyph glyph-name="braceleft" unicode="{" horiz-adv-x="504" 
d="M241 580q7 42 15 68.5t22.5 48.5t32.5 33t51 19t71 10t99 2l-9 -101q-84 0 -115 -26t-45 -107l-28 -155q-6 -34 -26.5 -56t-37 -28t-19.5 -4q-1 0 2 -2.5t8 -6t11 -9.5t12.5 -14.5t10.5 -19t6 -24t-1 -29.5l-28 -160q-14 -77 4.5 -97.5t102.5 -20.5l-9 -100q-71 0 -115 5
t-74 18t-40 35t-12.5 56.5t8.5 81.5l32 186q6 31 -7.5 41t-69.5 10l8 94q56 0 78 14t28 46z" />
    <glyph glyph-name="bar" unicode="|" horiz-adv-x="291" 
d="M20 -190l179 1013h97l-179 -1013h-97z" />
    <glyph glyph-name="braceright" unicode="}" horiz-adv-x="504" 
d="M266 -18q-9 -51 -20 -80.5t-28 -51.5t-50.5 -31.5t-76.5 -13.5t-116 -4l8 100q83 0 114.5 26t46.5 107l28 155q6 34 27 56t36.5 28t19.5 5q1 0 -2 2t-8 6t-11.5 10t-12.5 14t-10.5 19t-6.5 24.5t1 29.5l28 159q14 77 -4.5 97.5t-101.5 20.5l9 101q71 0 115 -5t74 -18
t40 -35t12.5 -56.5t-8.5 -81.5l-32 -186q-6 -32 7 -41.5t69 -9.5l-8 -95q-56 0 -77.5 -14t-27.5 -46z" />
    <glyph glyph-name="asciitilde" unicode="~" horiz-adv-x="619" 
d="M57 238q13 73 50 115t114 42q52 0 104 -28t87 -28q38 0 63 22t27 39l74 -10q-13 -74 -49.5 -115.5t-113.5 -41.5q-53 0 -105 27.5t-86 27.5q-38 0 -63 -21.5t-28 -38.5z" />
    <glyph glyph-name="exclamdown" unicode="&#xa1;" horiz-adv-x="323" 
d="M117 408l23 135h138l-24 -135h-137zM14 -174l102 535h120l-85 -535h-137z" />
    <glyph glyph-name="cent" unicode="&#xa2;" horiz-adv-x="653" 
d="M219 -20l15 83q-113 14 -151 88t-15 204q21 126 84 195.5t182 79.5l14 80h95l-15 -81q184 -19 176 -190l-134 -9q2 51 -21.5 73t-73.5 22q-72 0 -112 -46t-57 -143q-17 -93 2.5 -131.5t85.5 -38.5q111 0 143 89l131 -25q-27 -79 -83.5 -121t-156.5 -48l-14 -81h-95z" />
    <glyph glyph-name="sterling" unicode="&#xa3;" horiz-adv-x="631" 
d="M286 245l-4 -28q-14 -79 -74 -118l332 7l-20 -110h-520l17 98l-3 1q5 1 12.5 4t28 13.5t37 23.5t32 35.5t19.5 48.5l3 25h-113l15 86h95q-3 17 -11 44.5t-11.5 43.5t-6.5 47.5t4 57.5q14 82 83.5 133t192.5 51q127 0 180 -53t44 -148l-135 -10q3 45 -20 69.5t-67 24.5
q-55 0 -93.5 -32t-46.5 -82q-4 -23 0 -45t13 -52t13 -49h162l-14 -86h-144z" />
    <glyph glyph-name="currency" unicode="&#xa4;" horiz-adv-x="813" 
d="M672 479q24 -66 6 -166q-16 -90 -56 -149l55 -64l-87 -77l-55 64q-66 -34 -167 -34q-105 0 -164 38l-78 -68l-67 77l82 72q-23 66 -5 161q15 90 55 149l-55 63l88 77l53 -62q66 36 169 37q103 0 163 -38l78 68l67 -76zM270 313q-25 -144 101 -144q76 0 118 45t55 119
q26 148 -101 148q-75 0 -117.5 -46.5t-55.5 -121.5z" />
    <glyph glyph-name="yen" unicode="&#xa5;" horiz-adv-x="681" 
d="M227 0l27 158h-116l14 77h116l9 52h-117l14 78h91l-154 343h152l101 -299l199 299h167l-276 -343h86l-14 -78h-115l-9 -52h115l-14 -77h-115l-27 -158h-134z" />
    <glyph glyph-name="brokenbar" unicode="&#xa6;" horiz-adv-x="289" 
d="M122 396l75 426h97l-75 -426h-97zM192 246l-75 -426h-97l75 426h97z" />
    <glyph glyph-name="section" unicode="&#xa7;" horiz-adv-x="645" 
d="M488 630q3 39 -16 56.5t-77 17.5q-120 0 -135 -82q-5 -26 12.5 -41t48 -22t68 -12t74.5 -14.5t66 -26t43.5 -50t5.5 -82.5q-14 -71 -81 -113q51 -41 36 -123q-14 -79 -78 -118.5t-193 -39.5q-126 0 -179 41t-45 124l121 6q-3 -46 21 -65.5t78 -19.5q130 0 146 83
q5 27 -12 44t-47.5 25t-68 14.5t-74.5 16.5t-66 26t-43 49t-6 81q12 74 85 113q-55 41 -40 123q27 149 258 149q123 0 174 -39.5t45 -115.5zM215 386q-2 -14 1 -24.5t13 -18t21.5 -13t30 -9.5t34 -6.5t38.5 -6t38 -6.5q49 34 57 83q3 15 0 26.5t-13 19.5t-20 13.5t-29 10.5
t-32 8t-37.5 7t-37.5 7q-55 -37 -64 -91z" />
    <glyph glyph-name="dieresis" unicode="&#xa8;" horiz-adv-x="470" 
d="M126 626l26 143h127l-26 -143h-127zM331 626l26 143h127l-25 -143h-128z" />
    <glyph glyph-name="copyright" unicode="&#xa9;" horiz-adv-x="886" 
d="M836 338q-14 -79 -44 -143t-81 -117t-131 -82.5t-182 -29.5q-84 0 -147 20.5t-100 57t-58.5 86t-22 107.5t8.5 121q14 78 45 143.5t82 119t130 84t180 30.5q71 0 128 -15t93.5 -41.5t62 -63.5t35 -81t11 -94t-9.5 -102zM152 338q-53 -306 240 -306q87 0 154.5 26
t110.5 73t68.5 103t37.5 124q14 61 7 117t-29.5 99t-78.5 69t-140 26q-86 0 -153.5 -27t-110.5 -74.5t-68.5 -104.5t-37.5 -125zM622 266q-20 -77 -67.5 -109.5t-125.5 -32.5q-103 0 -142 57.5t-18 178.5q20 114 73 165.5t150 51.5q83 0 124 -37.5t34 -113.5l-90 -6
q2 44 -14.5 61t-50.5 17q-54 0 -87 -37.5t-48 -120.5q-13 -75 2.5 -106t63.5 -31q84 0 109 86z" />
    <glyph glyph-name="ordfeminine" unicode="&#xaa;" horiz-adv-x="479" 
d="M137 647q32 103 172 103q52 0 86 -11t51 -27t22 -46t2.5 -55.5t-9.5 -68.5l-14 -77l-9 -101h-90l-2 30q-55 -41 -126 -41q-76 0 -109 32.5t-22 96.5q20 114 175 114q61 0 107 -6q11 51 2 71t-53 20q-80 0 -99 -56zM242 424q34 0 63 13.5t45 31.5l10 61q-25 5 -60 5
q-100 0 -113 -67q-3 -21 8.5 -32.5t46.5 -11.5z" />
    <glyph glyph-name="guillemotleft" unicode="&#xab;" horiz-adv-x="706" 
d="M195 90l-92 165l1 25l152 172h152l-177 -188l111 -174h-147zM424 90l-93 165l1 25l152 172h153l-177 -187l111 -175h-147z" />
    <glyph glyph-name="registered" unicode="&#xae;" horiz-adv-x="886" 
d="M836 338q-14 -79 -44 -143t-81 -117t-131 -82.5t-182 -29.5q-84 0 -147 20.5t-100 57t-58.5 86t-22 107.5t8.5 121q14 78 45 143.5t82 119t130 84t180 30.5q71 0 128 -15t93.5 -41.5t62 -63.5t35 -81t11 -94t-9.5 -102zM152 338q-53 -306 240 -306q87 0 154.5 26
t110.5 73t68.5 103t37.5 124q14 61 7 117t-29.5 99t-78.5 69t-140 26q-86 0 -153.5 -27t-110.5 -74.5t-68.5 -104.5t-37.5 -125zM255 137l74 426h174q94 0 130 -33.5t21 -119.5q-10 -56 -33 -84.5t-66 -39.5l46 -149h-93l-37 141h-102l-24 -141h-90zM406 490l-24 -139h74
q47 0 74 16t35 63q7 39 -11 49.5t-65 10.5h-83z" />
    <glyph glyph-name="macron" unicode="&#xaf;" horiz-adv-x="477" 
d="M144 738h300l-16 -87h-299z" />
    <glyph glyph-name="degree" unicode="&#xb0;" horiz-adv-x="424" 
d="M396 591q-21 -118 -140 -118q-66 0 -95 35.5t-17 101.5q20 120 140 120q136 0 112 -139zM217 591q-4 -25 2 -39t31 -14q60 0 72 72q7 20 0.5 37.5t-32.5 17.5q-59 0 -73 -74z" />
    <glyph glyph-name="plusminus" unicode="&#xb1;" horiz-adv-x="596" 
d="M238 221l20 115h-163l17 94h163l20 114h103l-20 -114h162l-16 -94h-163l-20 -115h-103zM51 88l17 95h429l-17 -95h-429z" />
    <glyph glyph-name="uni00B2" unicode="&#xb2;" horiz-adv-x="496" 
d="M120 700q44 157 220 157q111 0 152 -50.5t28 -126.5q-3 -16 -8.5 -31.5t-10.5 -27.5t-15 -26.5t-16 -23.5t-20.5 -23t-20.5 -20.5t-24.5 -21.5t-24 -19.5t-26.5 -21t-26 -20.5q-3 -2 -78 -51l218 7l-17 -99h-398l2 13l7 42l6 31v1h2q56 35 155 105q49 35 68 49.5t50 42
t45 52t19 52.5q5 29 -11 48t-55 19q-41 0 -71.5 -24.5t-41.5 -58.5z" />
    <glyph glyph-name="uni00B3" unicode="&#xb3;" horiz-adv-x="529" 
d="M383 635q143 -30 117 -179q-13 -73 -68 -120t-164 -47q-103 0 -146.5 43t-40.5 112l110 6q2 -65 74 -65q51 0 82 27t38 72q8 42 -13 66t-78 24q-17 0 -34 -2t-26 -4l-8 -2l8 66l164 110l-246 -7l18 99h388l-16 -88z" />
    <glyph glyph-name="acute" unicode="&#xb4;" horiz-adv-x="424" 
d="M107 627l117 162h145l-135 -162h-127z" />
    <glyph glyph-name="paragraph" unicode="&#xb6;" horiz-adv-x="737" 
d="M308 0l48 275q-168 5 -225 58t-32 195q25 141 99.5 188t253.5 47h279l-134 -763h-98l115 658h-93l-115 -658h-98zM226 511q-14 -79 18 -103t131 -25l48 273q-95 -3 -138.5 -32.5t-58.5 -112.5z" />
    <glyph glyph-name="periodcentered" unicode="&#xb7;" horiz-adv-x="332" 
d="M89 229l25 142h140l-24 -142h-141z" />
    <glyph glyph-name="cedilla" unicode="&#xb8;" horiz-adv-x="441" 
d="M242 -160q-9 -48 -46.5 -69.5t-126.5 -21.5q-28 0 -51.5 2.5t-32.5 5.5l-9 3l6 62q11 -2 45 -3q79 -1 88 52q4 23 -15.5 30.5t-62.5 7.5h-10l64 93h117l-44 -64q40 -4 63 -28.5t15 -69.5z" />
    <glyph glyph-name="uni00B9" unicode="&#xb9;" horiz-adv-x="325" 
d="M132 299l72 421l-102 -40l17 102l149 57h69l-95 -540h-110z" />
    <glyph glyph-name="ordmasculine" unicode="&#xba;" horiz-adv-x="477" 
d="M475 542q-17 -96 -66 -143t-148 -47q-105 0 -141.5 53.5t-18.5 155.5q17 96 65.5 143.5t147.5 47.5q106 0 142.5 -53.5t18.5 -156.5zM198 542q-11 -61 2 -86.5t57 -25.5q53 0 81.5 31.5t39.5 99.5q11 62 -2 88t-58 26q-52 0 -80 -32t-40 -101z" />
    <glyph glyph-name="guillemotright" unicode="&#xbb;" horiz-adv-x="706" 
d="M222 90h-153l176 178l-109 184h146l91 -172l-1 -25zM450 90h-152l176 178l-109 184h146l91 -172l-1 -25z" />
    <glyph glyph-name="onequarter" unicode="&#xbc;" horiz-adv-x="1125" 
d="M128 -40l647 808h115l-647 -808h-115zM79 227l72 421l-102 -40l17 102l149 57h69l-95 -540h-110zM868 0l17 96h-281l14 90l292 353h162l-62 -353h64l-17 -90h-63l-17 -96h-109zM901 186l45 260l-204 -260h159z" />
    <glyph glyph-name="onehalf" unicode="&#xbd;" horiz-adv-x="1149" 
d="M128 -40l647 808h115l-647 -808h-115zM79 227l72 421l-102 -40l17 102l149 57h69l-95 -540h-110zM720 401q44 157 220 157q111 0 152 -50.5t28 -126.5q-3 -16 -8.5 -31.5t-10.5 -27.5t-15 -26.5t-16 -23.5t-20.5 -23t-20.5 -20.5t-24.5 -21.5t-24 -19.5t-26.5 -21
t-26 -20.5q-3 -2 -78 -51l218 7l-17 -99h-398l2 13l7 42l6 31v1h2q56 35 155 105q49 35 68 49.5t50 42t45 52t19 52.5q5 29 -11 48t-55 19q-41 0 -71.5 -24.5t-41.5 -58.5z" />
    <glyph glyph-name="threequarters" unicode="&#xbe;" horiz-adv-x="1308" 
d="M311 -40l647 808h115l-647 -808h-115zM330 563q143 -30 117 -179q-13 -73 -68 -120t-164 -47q-103 0 -146.5 43t-40.5 112l110 6q2 -65 74 -65q51 0 82 27t38 72q8 42 -13 66t-78 24q-17 0 -34 -2t-25 -4l-9 -2l8 66q1 0 164 110l-246 -7l18 99h388l-16 -88zM1051 0
l17 96h-281l14 90l292 353h162l-62 -353h64l-17 -90h-63l-17 -96h-109zM1084 186l45 260l-204 -260h159z" />
    <glyph glyph-name="questiondown" unicode="&#xbf;" horiz-adv-x="620" 
d="M446 543l-22 -127h-137l22 127h137zM525 19q-25 -102 -88 -155.5t-177 -53.5q-133 0 -185 61t-34 164q7 42 25.5 74.5t40.5 51.5t48 38.5t48.5 36.5t41.5 45.5t28 65.5l6 24h137l-6 -34q-9 -51 -33 -87.5t-52.5 -58.5t-57.5 -42.5t-52 -50.5t-30 -71q-16 -99 76 -99
q106 0 137 117z" />
    <glyph glyph-name="Agrave" unicode="&#xc0;" horiz-adv-x="764" 
d="M527 772h-132l-84 135h152zM-20 0l397 717h163l145 -717h-151l-23 142h-305l-73 -142h-153zM263 254h230l-55 340z" />
    <glyph glyph-name="Aacute" unicode="&#xc1;" horiz-adv-x="764" 
d="M395 771l113 135h157l-131 -135h-139zM-20 0l397 717h163l145 -717h-151l-23 142h-305l-73 -142h-153zM263 254h230l-55 340z" />
    <glyph glyph-name="Acircumflex" unicode="&#xc2;" horiz-adv-x="764" 
d="M660 771h-127l-53 66l-76 -66h-130l142 138h146zM-20 0l397 717h163l145 -717h-151l-23 142h-305l-73 -142h-153zM263 254h230l-55 340z" />
    <glyph glyph-name="Atilde" unicode="&#xc3;" horiz-adv-x="764" 
d="M671 910q-11 -67 -38 -104t-84 -37q-35 0 -57.5 12t-38 24t-34.5 12q-27 0 -43.5 -18.5t-18.5 -34.5l-70 10q12 67 38.5 103.5t83.5 36.5q35 0 57.5 -12t37.5 -23.5t34 -11.5q27 0 44 19t19 34zM-20 0l397 717h163l145 -717h-151l-23 142h-305l-73 -142h-153zM263 254
h230l-55 340z" />
    <glyph glyph-name="Adieresis" unicode="&#xc4;" horiz-adv-x="764" 
d="M289 771l26 143h138l-26 -143h-138zM505 771l25 143h138l-26 -143h-137zM-20 0l397 717h163l145 -717h-151l-23 142h-305l-73 -142h-153zM263 254h230l-55 340z" />
    <glyph glyph-name="Aring" unicode="&#xc5;" horiz-adv-x="764" 
d="M604 863q-9 -49 -43.5 -76t-86.5 -27q-59 0 -88.5 32.5t-19.5 89.5q9 50 43 76t87 26q59 0 88.5 -32.5t19.5 -88.5zM447 863q-6 -28 23 -28q20 0 35 13t19 34q3 27 -24 27q-20 0 -35 -13t-18 -33zM-20 0l397 717h163l145 -717h-151l-23 142h-305l-73 -142h-153zM263 254
h230l-55 340z" />
    <glyph glyph-name="AE" unicode="&#xc6;" horiz-adv-x="1047" 
d="M-20 0l504 717h586l-20 -118h-359l-31 -176h306l-19 -110h-307l-34 -195h365l-21 -118h-505l27 155h-229l-104 -155h-159zM491 263l62 353l-238 -353h176z" />
    <glyph glyph-name="Ccedilla" unicode="&#xc7;" horiz-adv-x="744" 
d="M440 -165q-9 -48 -46.5 -69.5t-126.5 -21.5q-28 0 -51.5 3t-32.5 5l-9 3l6 62q11 -2 45 -3q79 -1 88 52q4 23 -15.5 30.5t-62.5 7.5h-10l55 81q-134 16 -181.5 109.5t-15.5 272.5q34 192 123 280.5t252 88.5q281 0 259 -247l-137 -8q3 74 -27.5 103.5t-98.5 29.5
q-96 0 -151 -63t-80 -203q-23 -133 5.5 -189t117.5 -56q74 0 120.5 34.5t70.5 111.5l134 -22q-29 -119 -96 -176t-179 -67l-34 -51q40 -4 63 -28.5t15 -69.5z" />
    <glyph glyph-name="Egrave" unicode="&#xc8;" horiz-adv-x="650" 
d="M492 772h-132l-84 135h152zM48 0l126 717h499l-21 -118h-359l-31 -176h307l-19 -110h-307l-35 -195h365l-20 -118h-505z" />
    <glyph glyph-name="Eacute" unicode="&#xc9;" horiz-adv-x="650" 
d="M360 771l113 135h157l-131 -135h-139zM48 0l126 717h499l-21 -118h-359l-31 -176h307l-19 -110h-307l-35 -195h365l-20 -118h-505z" />
    <glyph glyph-name="Ecircumflex" unicode="&#xca;" horiz-adv-x="650" 
d="M625 771h-127l-53 66l-76 -66h-130l142 138h146zM48 0l126 717h499l-21 -118h-359l-31 -176h307l-19 -110h-307l-35 -195h365l-20 -118h-505z" />
    <glyph glyph-name="Edieresis" unicode="&#xcb;" horiz-adv-x="650" 
d="M254 771l26 143h138l-26 -143h-138zM470 771l25 143h138l-26 -143h-137zM48 0l126 717h499l-21 -118h-359l-31 -176h307l-19 -110h-307l-35 -195h365l-20 -118h-505z" />
    <glyph glyph-name="Igrave" unicode="&#xcc;" horiz-adv-x="333" 
d="M315 772h-132l-84 135h152zM48 0l126 717h141l-127 -717h-140z" />
    <glyph glyph-name="Iacute" unicode="&#xcd;" horiz-adv-x="333" 
d="M183 771l113 135h157l-131 -135h-139zM48 0l126 717h141l-127 -717h-140z" />
    <glyph glyph-name="Icircumflex" unicode="&#xce;" horiz-adv-x="333" 
d="M448 771h-127l-53 66l-76 -66h-130l142 138h146zM48 0l126 717h141l-127 -717h-140z" />
    <glyph glyph-name="Idieresis" unicode="&#xcf;" horiz-adv-x="333" 
d="M77 771l26 143h138l-26 -143h-138zM293 771l25 143h138l-26 -143h-137zM48 0l126 717h141l-127 -717h-140z" />
    <glyph glyph-name="Eth" unicode="&#xd0;" horiz-adv-x="773" 
d="M105 321h-70l13 76h70l57 322h235q152 0 227.5 -41t88.5 -123.5t-9 -206.5q-17 -97 -41 -157t-71 -106.5t-122.5 -66.5t-190.5 -20h-244zM247 321l-35 -203h118q111 -1 166 55t79 195q24 132 -8.5 180.5t-142.5 48.5h-128l-35 -200h116l-13 -76h-117z" />
    <glyph glyph-name="Ntilde" unicode="&#xd1;" horiz-adv-x="809" 
d="M696 910q-11 -67 -38 -104t-84 -37q-35 0 -57.5 12t-38 24t-34.5 12q-27 0 -43.5 -18.5t-18.5 -34.5l-70 10q12 67 38.5 103.5t83.5 36.5q35 0 57.5 -12t37.5 -23.5t34 -11.5q27 0 44 19t19 34zM272 562l-93 -562h-131l129 717h157l236 -554l90 554h131l-126 -717h-158z
" />
    <glyph glyph-name="Ograve" unicode="&#xd2;" horiz-adv-x="775" 
d="M536 777h-132l-84 135h152zM721 348q-33 -192 -122 -279.5t-255 -87.5q-171 0 -233.5 94t-27.5 292q34 192 123.5 280.5t254.5 88.5q171 0 233 -94.5t27 -293.5zM223 348q-23 -133 6 -189t120 -56q97 0 152.5 62.5t79.5 201.5q24 134 -5 190.5t-120 56.5
q-97 0 -152.5 -63t-80.5 -203z" />
    <glyph glyph-name="Oacute" unicode="&#xd3;" horiz-adv-x="775" 
d="M404 776l113 135h157l-131 -135h-139zM721 348q-33 -192 -122 -279.5t-255 -87.5q-171 0 -233.5 94t-27.5 292q34 192 123.5 280.5t254.5 88.5q171 0 233 -94.5t27 -293.5zM223 348q-23 -133 6 -189t120 -56q97 0 152.5 62.5t79.5 201.5q24 134 -5 190.5t-120 56.5
q-97 0 -152.5 -63t-80.5 -203z" />
    <glyph glyph-name="Ocircumflex" unicode="&#xd4;" horiz-adv-x="775" 
d="M669 776h-127l-53 66l-76 -66h-130l142 138h146zM721 348q-33 -192 -122 -279.5t-255 -87.5q-171 0 -233.5 94t-27.5 292q34 192 123.5 280.5t254.5 88.5q171 0 233 -94.5t27 -293.5zM223 348q-23 -133 6 -189t120 -56q97 0 152.5 62.5t79.5 201.5q24 134 -5 190.5
t-120 56.5q-97 0 -152.5 -63t-80.5 -203z" />
    <glyph glyph-name="Otilde" unicode="&#xd5;" horiz-adv-x="775" 
d="M680 915q-11 -67 -38 -104t-84 -37q-35 0 -57.5 12t-38 24t-34.5 12q-27 0 -43.5 -18.5t-18.5 -34.5l-70 10q12 67 38.5 103.5t83.5 36.5q28 0 48 -7.5t29.5 -16t23 -16t28.5 -7.5q27 0 44 19t19 34zM721 348q-33 -192 -122 -279.5t-255 -87.5q-171 0 -233.5 94
t-27.5 292q34 192 123.5 280.5t254.5 88.5q171 0 233 -94.5t27 -293.5zM223 348q-23 -133 6 -189t120 -56q97 0 152.5 62.5t79.5 201.5q24 134 -5 190.5t-120 56.5q-97 0 -152.5 -63t-80.5 -203z" />
    <glyph glyph-name="Odieresis" unicode="&#xd6;" horiz-adv-x="775" 
d="M298 776l26 143h138l-26 -143h-138zM514 776l25 143h138l-26 -143h-137zM721 348q-33 -192 -122 -279.5t-255 -87.5q-171 0 -233.5 94t-27.5 292q34 192 123.5 280.5t254.5 88.5q171 0 233 -94.5t27 -293.5zM223 348q-23 -133 6 -189t120 -56q97 0 152.5 62.5t79.5 201.5
q24 134 -5 190.5t-120 56.5q-97 0 -152.5 -63t-80.5 -203z" />
    <glyph glyph-name="multiply" unicode="&#xd7;" horiz-adv-x="558" 
d="M388 109l-113 135l-158 -135l-56 62l160 137l-112 136l71 61l113 -135l158 135l58 -61l-162 -138l114 -135z" />
    <glyph glyph-name="Oslash" unicode="&#xd8;" horiz-adv-x="775" 
d="M22 -9l83 93q-55 93 -22 283q34 192 123.5 280.5t254.5 88.5q115 0 182 -44l32 37h99l-79 -89q61 -93 26 -292q-33 -192 -122 -279.5t-255 -87.5q-122 0 -190 48l-34 -38h-98zM223 348q-15 -87 -9 -140l336 380q-32 26 -94 26q-97 0 -152.5 -63t-80.5 -203zM581 367
q17 98 7 152l-341 -385q32 -31 102 -31q97 0 152.5 62.5t79.5 201.5z" />
    <glyph glyph-name="Ugrave" unicode="&#xd9;" horiz-adv-x="758" 
d="M528 772h-132l-84 135h152zM686 348q-17 -99 -38 -160.5t-59.5 -112t-100 -72.5t-152.5 -22q-124 0 -184 44t-66 128t15 205l63 359h140l-63 -358q-26 -139 -6 -195t105 -56q93 0 138 59t70 202l62 348h141z" />
    <glyph glyph-name="Uacute" unicode="&#xda;" horiz-adv-x="758" 
d="M396 771l113 135h157l-131 -135h-139zM686 348q-17 -99 -38 -160.5t-59.5 -112t-100 -72.5t-152.5 -22q-124 0 -184 44t-66 128t15 205l63 359h140l-63 -358q-26 -139 -6 -195t105 -56q93 0 138 59t70 202l62 348h141z" />
    <glyph glyph-name="Ucircumflex" unicode="&#xdb;" horiz-adv-x="758" 
d="M661 771h-127l-53 66l-76 -66h-130l142 138h146zM686 348q-17 -99 -38 -160.5t-59.5 -112t-100 -72.5t-152.5 -22q-124 0 -184 44t-66 128t15 205l63 359h140l-63 -358q-26 -139 -6 -195t105 -56q93 0 138 59t70 202l62 348h141z" />
    <glyph glyph-name="Udieresis" unicode="&#xdc;" horiz-adv-x="758" 
d="M290 771l26 143h138l-26 -143h-138zM506 771l25 143h138l-26 -143h-137zM686 348q-17 -99 -38 -160.5t-59.5 -112t-100 -72.5t-152.5 -22q-124 0 -184 44t-66 128t15 205l63 359h140l-63 -358q-26 -139 -6 -195t105 -56q93 0 138 59t70 202l62 348h141z" />
    <glyph glyph-name="Yacute" unicode="&#xdd;" horiz-adv-x="704" 
d="M369 771l113 135h157l-131 -135h-139zM236 0l37 215l-162 502h154l95 -392l225 392h168l-341 -504l-38 -213h-138z" />
    <glyph glyph-name="Thorn" unicode="&#xde;" horiz-adv-x="732" 
d="M48 0l126 717h142l-20 -109h139q162 0 222.5 -56t34.5 -202q-25 -139 -99 -187t-241 -48h-143l-20 -115h-141zM276 492l-46 -261h130q84 0 130.5 28.5t61.5 111.5q14 77 -19.5 99t-118.5 22h-138z" />
    <glyph glyph-name="germandbls" unicode="&#xdf;" horiz-adv-x="705" 
d="M73 0l93 529q8 45 18 76.5t30.5 63.5t50 51.5t77 32t111.5 12.5q138 -1 187.5 -56t31.5 -156q-8 -42 -27.5 -74.5t-41 -49t-44 -26.5t-36 -13t-16.5 -2l2 -1q89 -14 114 -88q14 -43 4 -102q-14 -77 -47 -118t-105.5 -60t-205.5 -19l18 105q105 0 150 26.5t57 95.5
q3 15 3 27.5t-3 22t-7 17.5t-11.5 13.5t-15 9.5t-19.5 7t-22 5t-25.5 3t-27 1.5t-29.5 0.5l17 102q70 0 118 28.5t59 87.5q10 54 -8.5 80.5t-79.5 27.5q-118 -1 -138 -124l-95 -536h-137z" />
    <glyph glyph-name="agrave" unicode="&#xe0;" horiz-adv-x="673" 
d="M454 627h-121l-79 162h140zM125 452q67 102 240 102q54 0 94.5 -8t66.5 -20t41.5 -34.5t22.5 -43.5t6.5 -56t-4 -62t-11.5 -71l-21 -113l-15 -146h-124l-3 49q-82 -64 -189 -64q-106 0 -152 45.5t-30 134.5q16 93 80.5 130.5t173.5 37.5q81 0 153 -9q13 78 -5 106t-89 28
q-102 0 -153 -62zM267 84q49 0 91 19.5t66 44.5l16 98q-69 3 -95 3q-143 0 -160 -95q-6 -33 13 -51.5t69 -18.5z" />
    <glyph glyph-name="aacute" unicode="&#xe1;" horiz-adv-x="673" 
d="M334 627l117 162h145l-135 -162h-127zM125 452q67 102 240 102q54 0 94.5 -8t66.5 -20t41.5 -34.5t22.5 -43.5t6.5 -56t-4 -62t-11.5 -71l-21 -113l-15 -146h-124l-3 49q-82 -64 -189 -64q-106 0 -152 45.5t-30 134.5q16 93 80.5 130.5t173.5 37.5q81 0 153 -9
q13 78 -5 106t-89 28q-102 0 -153 -62zM267 84q49 0 91 19.5t66 44.5l16 98q-69 3 -95 3q-143 0 -160 -95q-6 -33 13 -51.5t69 -18.5z" />
    <glyph glyph-name="acircumflex" unicode="&#xe2;" horiz-adv-x="673" 
d="M585 626h-122l-52 77l-80 -77h-127l153 159h128zM125 452q67 102 240 102q54 0 94.5 -8t66.5 -20t41.5 -34.5t22.5 -43.5t6.5 -56t-4 -62t-11.5 -71l-21 -113l-15 -146h-124l-3 49q-82 -64 -189 -64q-106 0 -152 45.5t-30 134.5q16 93 80.5 130.5t173.5 37.5q81 0 153 -9
q13 78 -5 106t-89 28q-102 0 -153 -62zM267 84q49 0 91 19.5t66 44.5l16 98q-69 3 -95 3q-143 0 -160 -95q-6 -33 13 -51.5t69 -18.5z" />
    <glyph glyph-name="atilde" unicode="&#xe3;" horiz-adv-x="673" 
d="M603 768q-12 -68 -38.5 -104.5t-82.5 -36.5q-34 0 -57.5 12.5t-39.5 25t-34 12.5q-27 0 -44 -19t-19 -34l-69 10q12 67 38.5 103t82.5 36q34 0 57.5 -12.5t39.5 -24.5t34 -12q26 0 43.5 19.5t19.5 34.5zM125 452q67 102 240 102q54 0 94.5 -8t66.5 -20t41.5 -34.5
t22.5 -43.5t6.5 -56t-4 -62t-11.5 -71l-21 -113l-15 -146h-124l-3 49q-82 -64 -189 -64q-106 0 -152 45.5t-30 134.5q16 93 80.5 130.5t173.5 37.5q81 0 153 -9q13 78 -5 106t-89 28q-102 0 -153 -62zM267 84q49 0 91 19.5t66 44.5l16 98q-69 3 -95 3q-143 0 -160 -95
q-6 -33 13 -51.5t69 -18.5z" />
    <glyph glyph-name="adieresis" unicode="&#xe4;" horiz-adv-x="673" 
d="M231 626l26 143h127l-26 -143h-127zM436 626l26 143h127l-25 -143h-128zM125 452q67 102 240 102q54 0 94.5 -8t66.5 -20t41.5 -34.5t22.5 -43.5t6.5 -56t-4 -62t-11.5 -71l-21 -113l-15 -146h-124l-3 49q-82 -64 -189 -64q-106 0 -152 45.5t-30 134.5q16 93 80.5 130.5
t173.5 37.5q81 0 153 -9q13 78 -5 106t-89 28q-102 0 -153 -62zM267 84q49 0 91 19.5t66 44.5l16 98q-69 3 -95 3q-143 0 -160 -95q-6 -33 13 -51.5t69 -18.5z" />
    <glyph glyph-name="aring" unicode="&#xe5;" horiz-adv-x="673" 
d="M530 713q-8 -49 -41 -73.5t-85 -24.5q-57 0 -85.5 31t-18.5 86q8 47 41 72t84 25q58 0 86.5 -31t18.5 -85zM378 716q-6 -32 26 -32q19 0 32 12.5t16 31.5q6 31 -26 31q-19 0 -32 -12t-16 -31zM125 452q67 102 240 102q54 0 94.5 -8t66.5 -20t41.5 -34.5t22.5 -43.5
t6.5 -56t-4 -62t-11.5 -71l-21 -113l-15 -146h-124l-3 49q-82 -64 -189 -64q-106 0 -152 45.5t-30 134.5q16 93 80.5 130.5t173.5 37.5q81 0 153 -9q13 78 -5 106t-89 28q-102 0 -153 -62zM267 84q49 0 91 19.5t66 44.5l16 98q-69 3 -95 3q-143 0 -160 -95q-6 -33 13 -51.5
t69 -18.5z" />
    <glyph glyph-name="ae" unicode="&#xe6;" horiz-adv-x="1028" 
d="M928 101q-30 -52 -97 -84t-172 -32q-160 0 -211 91q-88 -88 -219 -88q-107 0 -152.5 44t-29.5 133q16 92 79.5 128t173.5 36h142q5 20 19 56q3 73 -102 73q-101 0 -152 -62l-82 56q67 102 240 102q121 0 171 -60q75 63 206 63q147 0 196.5 -74t20.5 -241h-392
q-13 -85 7.5 -120.5t83.5 -35.5q58 0 101 18.5t59 42.5zM742 463q-60 0 -97.5 -32t-58.5 -102h249q4 74 -18.5 104t-74.5 30zM425 154q-4 39 2 92q-22 -1 -82 -1q-73 0 -112 -21t-48 -70q-6 -33 13 -51.5t69 -18.5q53 0 95 21.5t63 48.5z" />
    <glyph glyph-name="ccedilla" unicode="&#xe7;" horiz-adv-x="650" 
d="M390 -161q-9 -48 -46.5 -69.5t-126.5 -21.5q-28 0 -51.5 3t-32.5 5l-9 3l6 62q11 -2 45 -3q79 -1 88 52q4 23 -15.5 30.5t-62.5 7.5h-10l56 82q-112 14 -149 87.5t-14 202.5q24 138 95.5 207.5t212.5 69.5q106 0 161 -44t64 -117l-119 -34q-13 89 -108 89
q-72 0 -111.5 -46t-57.5 -144q-16 -92 3.5 -130.5t85.5 -38.5q50 0 90 23t61 62l111 -44q-58 -125 -208 -143l-36 -53q40 -4 63 -28.5t15 -69.5z" />
    <glyph glyph-name="egrave" unicode="&#xe8;" horiz-adv-x="664" 
d="M457 627h-121l-79 162h140zM564 101q-30 -52 -97.5 -84t-171.5 -32q-148 0 -200.5 75t-26.5 220q24 138 97 207.5t213 69.5q146 0 196 -74t21 -241h-393q-13 -85 8 -120.5t85 -35.5q57 0 100 18.5t60 42.5zM378 463q-61 0 -98.5 -32t-58.5 -102h250q4 74 -18.5 104
t-74.5 30z" />
    <glyph glyph-name="eacute" unicode="&#xe9;" horiz-adv-x="664" 
d="M337 627l117 162h145l-135 -162h-127zM564 101q-30 -52 -97.5 -84t-171.5 -32q-148 0 -200.5 75t-26.5 220q24 138 97 207.5t213 69.5q146 0 196 -74t21 -241h-393q-13 -85 8 -120.5t85 -35.5q57 0 100 18.5t60 42.5zM378 463q-61 0 -98.5 -32t-58.5 -102h250
q4 74 -18.5 104t-74.5 30z" />
    <glyph glyph-name="ecircumflex" unicode="&#xea;" horiz-adv-x="664" 
d="M588 626h-122l-52 77l-80 -77h-127l153 159h128zM564 101q-30 -52 -97.5 -84t-171.5 -32q-148 0 -200.5 75t-26.5 220q24 138 97 207.5t213 69.5q146 0 196 -74t21 -241h-393q-13 -85 8 -120.5t85 -35.5q57 0 100 18.5t60 42.5zM378 463q-61 0 -98.5 -32t-58.5 -102h250
q4 74 -18.5 104t-74.5 30z" />
    <glyph glyph-name="edieresis" unicode="&#xeb;" horiz-adv-x="664" 
d="M234 626l26 143h127l-26 -143h-127zM439 626l26 143h127l-25 -143h-128zM564 101q-30 -52 -97.5 -84t-171.5 -32q-148 0 -200.5 75t-26.5 220q24 138 97 207.5t213 69.5q146 0 196 -74t21 -241h-393q-13 -85 8 -120.5t85 -35.5q57 0 100 18.5t60 42.5zM378 463
q-61 0 -98.5 -32t-58.5 -102h250q4 74 -18.5 104t-74.5 30z" />
    <glyph glyph-name="igrave" unicode="&#xec;" horiz-adv-x="320" 
d="M279 627h-121l-79 162h140zM43 0l96 543h137l-95 -543h-138z" />
    <glyph glyph-name="iacute" unicode="&#xed;" horiz-adv-x="320" 
d="M182 627l88 162h143l-108 -162h-123zM66 0l96 543h137l-95 -543h-138z" />
    <glyph glyph-name="icircumflex" unicode="&#xee;" horiz-adv-x="320" 
d="M410 626h-122l-52 77l-80 -77h-127l153 159h128zM43 0l96 543h137l-95 -543h-138z" />
    <glyph glyph-name="idieresis" unicode="&#xef;" horiz-adv-x="320" 
d="M56 626l26 143h127l-26 -143h-127zM261 626l26 143h127l-25 -143h-128zM43 0l96 543h137l-95 -543h-138z" />
    <glyph glyph-name="eth" unicode="&#xf0;" horiz-adv-x="676" 
d="M527 669q117 -200 81 -408q-25 -142 -95.5 -209t-216.5 -67q-150 0 -202 74.5t-26 220.5q23 132 95 199.5t215 67.5q36 0 70 -17q-17 48 -38 87l-97 -44l-30 54l95 42q-18 28 -38 52t-30 35l-11 10l162 -3q14 -15 33 -43l83 37l31 -51zM469 271q9 52 7 104
q-6 30 -30.5 53t-67.5 23q-75 0 -115 -45.5t-57 -144.5q-16 -92 4 -130.5t88 -38.5q76 0 115 42t56 137z" />
    <glyph glyph-name="ntilde" unicode="&#xf1;" horiz-adv-x="688" 
d="M616 768q-12 -68 -38.5 -104.5t-82.5 -36.5q-34 0 -57.5 12.5t-39.5 25t-34 12.5q-27 0 -44 -19t-19 -34l-69 10q12 67 38.5 103t82.5 36q34 0 57.5 -12.5t39.5 -24.5t34 -12q26 0 43.5 19.5t19.5 34.5zM47 0l70 397l15 146h116l2 -79q29 32 81.5 59.5t126.5 27.5
q104 0 139 -60.5t11 -196.5l-52 -294h-137l54 304q12 67 -3.5 95.5t-68.5 28.5q-87 0 -156 -77l-61 -351h-137z" />
    <glyph glyph-name="ograve" unicode="&#xf2;" horiz-adv-x="676" 
d="M456 623h-121l-79 162h140zM608 261q-25 -139 -96.5 -207.5t-215.5 -68.5q-150 0 -202 74.5t-26 220.5q24 139 96.5 208t215.5 69q150 1 201.5 -74.5t26.5 -221.5zM206 261q-16 -92 3.5 -130.5t88.5 -38.5q75 0 114.5 45t57.5 143q16 92 -3.5 131t-88.5 39
q-75 0 -115 -45.5t-57 -143.5z" />
    <glyph glyph-name="oacute" unicode="&#xf3;" horiz-adv-x="676" 
d="M336 623l117 162h145l-135 -162h-127zM608 261q-25 -139 -96.5 -207.5t-215.5 -68.5q-150 0 -202 74.5t-26 220.5q24 139 96.5 208t215.5 69q150 1 201.5 -74.5t26.5 -221.5zM206 261q-16 -92 3.5 -130.5t88.5 -38.5q75 0 114.5 45t57.5 143q16 92 -3.5 131t-88.5 39
q-75 0 -115 -45.5t-57 -143.5z" />
    <glyph glyph-name="ocircumflex" unicode="&#xf4;" horiz-adv-x="676" 
d="M587 622h-122l-52 77l-80 -77h-127l153 159h128zM608 261q-25 -139 -96.5 -207.5t-215.5 -68.5q-150 0 -202 74.5t-26 220.5q24 139 96.5 208t215.5 69q150 1 201.5 -74.5t26.5 -221.5zM206 261q-16 -92 3.5 -130.5t88.5 -38.5q75 0 114.5 45t57.5 143q16 92 -3.5 131
t-88.5 39q-75 0 -115 -45.5t-57 -143.5z" />
    <glyph glyph-name="otilde" unicode="&#xf5;" horiz-adv-x="676" 
d="M605 764q-12 -68 -38.5 -104.5t-82.5 -36.5q-34 0 -57.5 12.5t-39.5 25t-34 12.5q-27 0 -44 -19t-19 -34l-69 10q12 67 38.5 103t82.5 36q34 0 57.5 -12.5t39.5 -24.5t34 -12q26 0 43.5 19.5t19.5 34.5zM608 261q-25 -139 -96.5 -207.5t-215.5 -68.5q-150 0 -202 74.5
t-26 220.5q24 139 96.5 208t215.5 69q150 1 201.5 -74.5t26.5 -221.5zM206 261q-16 -92 3.5 -130.5t88.5 -38.5q75 0 114.5 45t57.5 143q16 92 -3.5 131t-88.5 39q-75 0 -115 -45.5t-57 -143.5z" />
    <glyph glyph-name="odieresis" unicode="&#xf6;" horiz-adv-x="676" 
d="M233 622l26 143h127l-26 -143h-127zM438 622l26 143h127l-25 -143h-128zM608 261q-25 -139 -96.5 -207.5t-215.5 -68.5q-150 0 -202 74.5t-26 220.5q24 139 96.5 208t215.5 69q150 1 201.5 -74.5t26.5 -221.5zM206 261q-16 -92 3.5 -130.5t88.5 -38.5q75 0 114.5 45
t57.5 143q16 92 -3.5 131t-88.5 39q-75 0 -115 -45.5t-57 -143.5z" />
    <glyph glyph-name="divide" unicode="&#xf7;" horiz-adv-x="565" 
d="M246 422l23 132h127l-23 -132h-127zM59 274l16 95h450l-17 -95h-449zM187 89l23 133h127l-23 -133h-127z" />
    <glyph glyph-name="oslash" unicode="&#xf8;" horiz-adv-x="676" 
d="M25 -12l68 72q-52 70 -25 220q24 139 96.5 208t215.5 69q100 0 155 -33l28 29h90l-70 -73q50 -71 25 -219q-25 -139 -96.5 -207.5t-215.5 -68.5q-98 0 -154 32l-27 -29h-90zM206 261q-10 -52 -7 -90l249 261q-24 18 -70 18q-75 0 -115 -45.5t-57 -143.5zM470 280
q9 50 7 88l-248 -260q23 -16 69 -16q75 0 114.5 45t57.5 143z" />
    <glyph glyph-name="ugrave" unicode="&#xf9;" horiz-adv-x="681" 
d="M458 627h-121l-79 162h140zM437 0l-2 85q-28 -33 -81 -63.5t-128 -30.5q-103 0 -140 59t-14 189l55 303h136l-54 -312q-11 -60 4.5 -88t68.5 -28q89 0 159 86l60 343h138l-70 -392l-15 -151h-117z" />
    <glyph glyph-name="uacute" unicode="&#xfa;" horiz-adv-x="681" 
d="M338 627l117 162h145l-135 -162h-127zM437 0l-2 85q-28 -33 -81 -63.5t-128 -30.5q-103 0 -140 59t-14 189l55 303h136l-54 -312q-11 -60 4.5 -88t68.5 -28q89 0 159 86l60 343h138l-70 -392l-15 -151h-117z" />
    <glyph glyph-name="ucircumflex" unicode="&#xfb;" horiz-adv-x="681" 
d="M589 626h-122l-52 77l-80 -77h-127l153 159h128zM437 0l-2 85q-28 -33 -81 -63.5t-128 -30.5q-103 0 -140 59t-14 189l55 303h136l-54 -312q-11 -60 4.5 -88t68.5 -28q89 0 159 86l60 343h138l-70 -392l-15 -151h-117z" />
    <glyph glyph-name="udieresis" unicode="&#xfc;" horiz-adv-x="681" 
d="M235 626l26 143h127l-26 -143h-127zM440 626l26 143h127l-25 -143h-128zM437 0l-2 85q-28 -33 -81 -63.5t-128 -30.5q-103 0 -140 59t-14 189l55 303h136l-54 -312q-11 -60 4.5 -88t68.5 -28q89 0 159 86l60 343h138l-70 -392l-15 -151h-117z" />
    <glyph glyph-name="yacute" unicode="&#xfd;" horiz-adv-x="626" 
d="M313 627l117 162h145l-135 -162h-127zM119 -230l113 230h-47l-106 543h144l63 -435l215 435h144l-400 -773h-126z" />
    <glyph glyph-name="thorn" unicode="&#xfe;" horiz-adv-x="687" 
d="M2 -243l177 1000h136l-46 -262q73 59 173 59q229 0 177 -295q-24 -134 -87 -202t-173 -68q-118 0 -167 68l-53 -300h-137zM399 445q-85 0 -151 -71l-38 -216q32 -60 111 -60q132 0 163 181q29 166 -85 166z" />
    <glyph glyph-name="ydieresis" unicode="&#xff;" horiz-adv-x="626" 
d="M210 626l26 143h127l-26 -143h-127zM415 626l26 143h127l-25 -143h-128zM119 -230l113 230h-47l-106 543h144l63 -435l215 435h144l-400 -773h-126z" />
    <glyph glyph-name="Amacron" unicode="&#x100;" horiz-adv-x="764" 
d="M337 882h300l-18 -98h-299zM-20 0l397 717h163l145 -717h-151l-23 142h-305l-73 -142h-153zM263 254h230l-55 340z" />
    <glyph glyph-name="amacron" unicode="&#x101;" horiz-adv-x="673" 
d="M268 738h300l-16 -87h-299zM125 452q67 102 240 102q54 0 94.5 -8t66.5 -20t41.5 -34.5t22.5 -43.5t6.5 -56t-4 -62t-11.5 -71l-21 -113l-15 -146h-124l-3 49q-82 -64 -189 -64q-106 0 -152 45.5t-30 134.5q16 93 80.5 130.5t173.5 37.5q81 0 153 -9q13 78 -5 106t-89 28
q-102 0 -153 -62zM267 84q49 0 91 19.5t66 44.5l16 98q-69 3 -95 3q-143 0 -160 -95q-6 -33 13 -51.5t69 -18.5z" />
    <glyph glyph-name="Abreve" unicode="&#x102;" horiz-adv-x="764" 
d="M664 900q-9 -53 -57 -95t-133 -42q-92 0 -130 42t-29 95h100q-3 -20 15 -35.5t46 -15.5t53 15.5t29 35.5h106zM-20 0l397 717h163l145 -717h-151l-23 142h-305l-73 -142h-153zM263 254h230l-55 340z" />
    <glyph glyph-name="abreve" unicode="&#x103;" horiz-adv-x="673" 
d="M603 771q-9 -55 -59 -101t-137 -46q-94 0 -132.5 46.5t-28.5 100.5h103q-4 -21 13.5 -41t44.5 -20q34 0 58.5 19.5t27.5 41.5h110zM125 452q67 102 240 102q54 0 94.5 -8t66.5 -20t41.5 -34.5t22.5 -43.5t6.5 -56t-4 -62t-11.5 -71l-21 -113l-15 -146h-124l-3 49
q-82 -64 -189 -64q-106 0 -152 45.5t-30 134.5q16 93 80.5 130.5t173.5 37.5q81 0 153 -9q13 78 -5 106t-89 28q-102 0 -153 -62zM267 84q49 0 91 19.5t66 44.5l16 98q-69 3 -95 3q-143 0 -160 -95q-6 -33 13 -51.5t69 -18.5z" />
    <glyph glyph-name="Aogonek" unicode="&#x104;" horiz-adv-x="764" 
d="M422 -113q12 68 111 118l-22 137h-305l-73 -142h-153l397 717h163l145 -717h-40q-10 -5 -24.5 -14t-41 -35.5t-31.5 -52.5q-3 -28 24 -28q13 0 27 4t22 8l8 4l-8 -67q-29 -30 -98 -30q-62 0 -85.5 28.5t-15.5 69.5zM263 254h230l-55 340z" />
    <glyph glyph-name="aogonek" unicode="&#x105;" horiz-adv-x="673" 
d="M308 -113q13 69 112 119l-2 43q-82 -64 -189 -64q-106 0 -152 45.5t-30 134.5q16 93 80.5 130.5t173.5 37.5q81 0 153 -9q13 78 -5 106t-89 28q-102 0 -153 -62l-82 56q67 102 240 102q54 0 94.5 -8t66.5 -20t41.5 -34.5t22.5 -43.5t6.5 -56t-4 -62t-11.5 -71l-21 -113
l-15 -146h-14q-10 -5 -24.5 -14t-41 -35.5t-31.5 -52.5q-3 -28 24 -28q13 0 27 4t22 8l8 4l-8 -67q-29 -30 -98 -30q-62 0 -85.5 28.5t-15.5 69.5zM267 84q49 0 91 19.5t66 44.5l16 98q-69 3 -95 3q-143 0 -160 -95q-6 -33 13 -51.5t69 -18.5z" />
    <glyph glyph-name="Cacute" unicode="&#x106;" horiz-adv-x="744" 
d="M400 776l113 135h157l-131 -135h-139zM671 227q-33 -132 -112.5 -189t-216.5 -57q-169 0 -231.5 94t-27.5 292q34 192 123 280.5t252 88.5q281 0 259 -247l-137 -8q3 74 -27.5 103.5t-98.5 29.5q-96 0 -151 -63t-80 -203q-23 -133 5.5 -189t117.5 -56q74 0 120.5 34.5
t70.5 111.5z" />
    <glyph glyph-name="cacute" unicode="&#x107;" horiz-adv-x="650" 
d="M326 627l117 162h145l-135 -162h-127zM556 133q-67 -147 -264 -147q-148 0 -199 74.5t-25 219.5q24 138 95.5 207.5t212.5 69.5q106 0 161 -44t64 -117l-119 -34q-13 89 -108 89q-72 0 -111.5 -46t-57.5 -144q-16 -92 3.5 -130.5t85.5 -38.5q50 0 90 23t61 62z" />
    <glyph glyph-name="Ccircumflex" unicode="&#x108;" horiz-adv-x="744" 
d="M665 776h-127l-53 66l-76 -66h-130l142 138h146zM671 227q-33 -132 -112.5 -189t-216.5 -57q-169 0 -231.5 94t-27.5 292q34 192 123 280.5t252 88.5q281 0 259 -247l-137 -8q3 74 -27.5 103.5t-98.5 29.5q-96 0 -151 -63t-80 -203q-23 -133 5.5 -189t117.5 -56
q74 0 120.5 34.5t70.5 111.5z" />
    <glyph glyph-name="ccircumflex" unicode="&#x109;" horiz-adv-x="650" 
d="M577 626h-122l-52 77l-80 -77h-127l153 159h128zM556 133q-67 -147 -264 -147q-148 0 -199 74.5t-25 219.5q24 138 95.5 207.5t212.5 69.5q106 0 161 -44t64 -117l-119 -34q-13 89 -108 89q-72 0 -111.5 -46t-57.5 -144q-16 -92 3.5 -130.5t85.5 -38.5q50 0 90 23t61 62z
" />
    <glyph glyph-name="Cdotaccent" unicode="&#x10a;" horiz-adv-x="744" 
d="M403 776l25 143h138l-25 -143h-138zM671 227q-33 -132 -112.5 -189t-216.5 -57q-169 0 -231.5 94t-27.5 292q34 192 123 280.5t252 88.5q281 0 259 -247l-137 -8q3 74 -27.5 103.5t-98.5 29.5q-96 0 -151 -63t-80 -203q-23 -133 5.5 -189t117.5 -56q74 0 120.5 34.5
t70.5 111.5z" />
    <glyph glyph-name="cdotaccent" unicode="&#x10b;" horiz-adv-x="650" 
d="M322 631l24 138h139l-25 -138h-138zM556 133q-67 -147 -264 -147q-148 0 -199 74.5t-25 219.5q24 138 95.5 207.5t212.5 69.5q106 0 161 -44t64 -117l-119 -34q-13 89 -108 89q-72 0 -111.5 -46t-57.5 -144q-16 -92 3.5 -130.5t85.5 -38.5q50 0 90 23t61 62z" />
    <glyph glyph-name="Ccaron" unicode="&#x10c;" horiz-adv-x="744" 
d="M693 914l-147 -138h-147l-92 138h122l53 -66l76 66h135zM671 227q-33 -132 -112.5 -189t-216.5 -57q-169 0 -231.5 94t-27.5 292q34 192 123 280.5t252 88.5q281 0 259 -247l-137 -8q3 74 -27.5 103.5t-98.5 29.5q-96 0 -151 -63t-80 -203q-23 -133 5.5 -189t117.5 -56
q74 0 120.5 34.5t70.5 111.5z" />
    <glyph glyph-name="ccaron" unicode="&#x10d;" horiz-adv-x="650" 
d="M608 785l-156 -159h-128l-93 159h116l53 -73l79 73h129zM556 133q-67 -147 -264 -147q-148 0 -199 74.5t-25 219.5q24 138 95.5 207.5t212.5 69.5q106 0 161 -44t64 -117l-119 -34q-13 89 -108 89q-72 0 -111.5 -46t-57.5 -144q-16 -92 3.5 -130.5t85.5 -38.5q50 0 90 23
t61 62z" />
    <glyph glyph-name="Dcaron" unicode="&#x10e;" horiz-adv-x="773" 
d="M674 909l-147 -138h-147l-92 138h122l53 -66l76 66h135zM175 719h235q152 0 227.5 -41t88.5 -123.5t-9 -206.5q-17 -97 -41 -157t-71 -106.5t-122.5 -66.5t-190.5 -20h-244zM296 597l-84 -479h118q111 -1 166 55t79 195q24 132 -8.5 180.5t-142.5 48.5h-128z" />
    <glyph glyph-name="dcaron" unicode="&#x10f;" horiz-adv-x="684" 
d="M674 582l89 180h111l-118 -180h-82zM440 0l-3 69q-64 -80 -190 -80q-230 0 -179 290q48 275 261 275q107 0 166 -69l48 272h137l-108 -605l-15 -152h-117zM288 98q89 0 151 72l38 216q-36 59 -109 59q-132 0 -164 -185q-29 -162 84 -162z" />
    <glyph glyph-name="Dcroat" unicode="&#x110;" horiz-adv-x="773" 
d="M105 321h-70l13 76h70l57 322h235q152 0 227.5 -41t88.5 -123.5t-9 -206.5q-17 -97 -41 -157t-71 -106.5t-122.5 -66.5t-190.5 -20h-244zM247 321l-35 -203h118q111 -1 166 55t79 195q24 132 -8.5 180.5t-142.5 48.5h-128l-35 -200h116l-13 -76h-117z" />
    <glyph glyph-name="dcroat" unicode="&#x111;" horiz-adv-x="684" 
d="M440 0l-3 69q-64 -80 -190 -80q-230 0 -179 290q48 275 261 275q107 0 166 -69l18 104h-128l13 76h129l16 92h137l-17 -92h64l-13 -76h-64l-78 -437l-15 -152h-117zM288 98q89 0 151 72l38 216q-36 59 -109 59q-132 0 -164 -185q-29 -162 84 -162z" />
    <glyph glyph-name="Emacron" unicode="&#x112;" horiz-adv-x="650" 
d="M302 882h300l-18 -98h-299zM48 0l126 717h499l-21 -118h-359l-31 -176h307l-19 -110h-307l-35 -195h365l-20 -118h-505z" />
    <glyph glyph-name="emacron" unicode="&#x113;" horiz-adv-x="664" 
d="M271 738h300l-16 -87h-299zM564 101q-30 -52 -97.5 -84t-171.5 -32q-148 0 -200.5 75t-26.5 220q24 138 97 207.5t213 69.5q146 0 196 -74t21 -241h-393q-13 -85 8 -120.5t85 -35.5q57 0 100 18.5t60 42.5zM378 463q-61 0 -98.5 -32t-58.5 -102h250q4 74 -18.5 104
t-74.5 30z" />
    <glyph glyph-name="Ebreve" unicode="&#x114;" horiz-adv-x="650" 
d="M629 900q-9 -53 -57 -95t-133 -42q-92 0 -130 42t-29 95h100q-3 -20 15 -35.5t46 -15.5t53 15.5t29 35.5h106zM48 0l126 717h499l-21 -118h-359l-31 -176h307l-19 -110h-307l-35 -195h365l-20 -118h-505z" />
    <glyph glyph-name="ebreve" unicode="&#x115;" horiz-adv-x="664" 
d="M606 771q-9 -55 -59 -101t-137 -46q-94 0 -132.5 46.5t-28.5 100.5h103q-4 -21 13.5 -41t44.5 -20q34 0 58.5 19.5t27.5 41.5h110zM564 101q-30 -52 -97.5 -84t-171.5 -32q-148 0 -200.5 75t-26.5 220q24 138 97 207.5t213 69.5q146 0 196 -74t21 -241h-393
q-13 -85 8 -120.5t85 -35.5q57 0 100 18.5t60 42.5zM378 463q-61 0 -98.5 -32t-58.5 -102h250q4 74 -18.5 104t-74.5 30z" />
    <glyph glyph-name="Edotaccent" unicode="&#x116;" horiz-adv-x="650" 
d="M363 771l25 143h138l-25 -143h-138zM48 0l126 717h499l-21 -118h-359l-31 -176h307l-19 -110h-307l-35 -195h365l-20 -118h-505z" />
    <glyph glyph-name="edotaccent" unicode="&#x117;" horiz-adv-x="664" 
d="M333 631l24 138h139l-25 -138h-138zM564 101q-30 -52 -97.5 -84t-171.5 -32q-148 0 -200.5 75t-26.5 220q24 138 97 207.5t213 69.5q146 0 196 -74t21 -241h-393q-13 -85 8 -120.5t85 -35.5q57 0 100 18.5t60 42.5zM378 463q-61 0 -98.5 -32t-58.5 -102h250
q4 74 -18.5 104t-74.5 30z" />
    <glyph glyph-name="Eogonek" unicode="&#x118;" horiz-adv-x="650" 
d="M330 -113q7 38 38 67t63 46h-383l126 717h499l-21 -118h-359l-31 -176h307l-19 -110h-307l-35 -195h365l-20 -118q-10 -5 -24.5 -14t-41 -35.5t-31.5 -52.5q-3 -28 24 -28q13 0 27 4t22 8l8 4l-8 -67q-29 -30 -98 -30q-62 0 -85.5 28.5t-15.5 69.5z" />
    <glyph glyph-name="eogonek" unicode="&#x119;" horiz-adv-x="664" 
d="M257 -87q7 38 44 72h-6q-148 0 -200.5 75t-26.5 220q24 138 97 207.5t213 69.5q146 0 196 -74t21 -241h-393q-13 -85 8 -120.5t85 -35.5q57 0 100 18.5t60 42.5l109 -46q-33 -56 -103 -86q-69 -42 -78 -91q-3 -28 24 -28q13 0 27 4t22 8l8 4l-8 -67q-29 -30 -98 -30
q-62 0 -85.5 28.5t-15.5 69.5zM378 463q-61 0 -98.5 -32t-58.5 -102h250q4 74 -18.5 104t-74.5 30z" />
    <glyph glyph-name="Ecaron" unicode="&#x11a;" horiz-adv-x="650" 
d="M653 909l-147 -138h-147l-92 138h122l53 -66l76 66h135zM48 0l126 717h499l-21 -118h-359l-31 -176h307l-19 -110h-307l-35 -195h365l-20 -118h-505z" />
    <glyph glyph-name="ecaron" unicode="&#x11b;" horiz-adv-x="664" 
d="M619 785l-156 -159h-128l-93 159h116l53 -73l79 73h129zM564 101q-30 -52 -97.5 -84t-171.5 -32q-148 0 -200.5 75t-26.5 220q24 138 97 207.5t213 69.5q146 0 196 -74t21 -241h-393q-13 -85 8 -120.5t85 -35.5q57 0 100 18.5t60 42.5zM378 463q-61 0 -98.5 -32
t-58.5 -102h250q4 74 -18.5 104t-74.5 30z" />
    <glyph glyph-name="Gcircumflex" unicode="&#x11c;" horiz-adv-x="748" 
d="M664 776h-127l-53 66l-76 -66h-130l142 138h146zM641 91q-1 -3 -12 -14t-36.5 -27.5t-59 -31.5t-85 -26t-108.5 -11q-169 -1 -230.5 93t-26.5 293q34 193 122.5 281t251.5 88q140 0 204 -60.5t53 -176.5l-134 -9q3 66 -28 95t-100 29q-94 0 -149 -63t-80 -203
q-24 -136 6 -193t120 -57q49 0 91 11t63 24.5t22 24.5l18 108h-134l17 98h262z" />
    <glyph glyph-name="gcircumflex" unicode="&#x11d;" horiz-adv-x="683" 
d="M588 626h-122l-52 77l-80 -77h-127l153 159h128zM141 -82q2 -27 28 -47t83 -20q44 0 73 11t45.5 35t24 47t14.5 60l7 44q-63 -59 -169 -59q-231 0 -179 290q48 275 261 275q39 0 72 -9.5t54 -24.5t32 -26.5t18 -22.5l28 72h119l-37 -149l-71 -401q-15 -91 -38 -130
q-62 -107 -256 -107q-114 0 -168 42.5t-61 96.5zM287 98q86 0 150 70l39 220q-35 57 -108 57q-132 0 -165 -185q-29 -162 84 -162z" />
    <glyph glyph-name="Gbreve" unicode="&#x11e;" horiz-adv-x="748" 
d="M668 905q-9 -53 -57 -95t-133 -42q-92 0 -130 42t-29 95h100q-3 -20 15 -35.5t46 -15.5t53 15.5t29 35.5h106zM641 91q-1 -3 -12 -14t-36.5 -27.5t-59 -31.5t-85 -26t-108.5 -11q-169 -1 -230.5 93t-26.5 293q34 193 122.5 281t251.5 88q140 0 204 -60.5t53 -176.5
l-134 -9q3 66 -28 95t-100 29q-94 0 -149 -63t-80 -203q-24 -136 6 -193t120 -57q49 0 91 11t63 24.5t22 24.5l18 108h-134l17 98h262z" />
    <glyph glyph-name="gbreve" unicode="&#x11f;" horiz-adv-x="683" 
d="M606 771q-9 -55 -59 -101t-137 -46q-94 0 -132.5 46.5t-28.5 100.5h103q-4 -21 13.5 -41t44.5 -20q34 0 58.5 19.5t27.5 41.5h110zM141 -82q2 -27 28 -47t83 -20q44 0 73 11t45.5 35t24 47t14.5 60l7 44q-63 -59 -169 -59q-231 0 -179 290q48 275 261 275q39 0 72 -9.5
t54 -24.5t32 -26.5t18 -22.5l28 72h119l-37 -149l-71 -401q-15 -91 -38 -130q-62 -107 -256 -107q-114 0 -168 42.5t-61 96.5zM287 98q86 0 150 70l39 220q-35 57 -108 57q-132 0 -165 -185q-29 -162 84 -162z" />
    <glyph glyph-name="Gdotaccent" unicode="&#x120;" horiz-adv-x="748" 
d="M402 776l25 143h138l-25 -143h-138zM641 91q-1 -3 -12 -14t-36.5 -27.5t-59 -31.5t-85 -26t-108.5 -11q-169 -1 -230.5 93t-26.5 293q34 193 122.5 281t251.5 88q140 0 204 -60.5t53 -176.5l-134 -9q3 66 -28 95t-100 29q-94 0 -149 -63t-80 -203q-24 -136 6 -193
t120 -57q49 0 91 11t63 24.5t22 24.5l18 108h-134l17 98h262z" />
    <glyph glyph-name="gdotaccent" unicode="&#x121;" horiz-adv-x="683" 
d="M333 631l24 138h139l-25 -138h-138zM141 -82q2 -27 28 -47t83 -20q44 0 73 11t45.5 35t24 47t14.5 60l7 44q-63 -59 -169 -59q-231 0 -179 290q48 275 261 275q39 0 72 -9.5t54 -24.5t32 -26.5t18 -22.5l28 72h119l-37 -149l-71 -401q-15 -91 -38 -130
q-62 -107 -256 -107q-114 0 -168 42.5t-61 96.5zM287 98q86 0 150 70l39 220q-35 57 -108 57q-132 0 -165 -185q-29 -162 84 -162z" />
    <glyph glyph-name="Gcommaaccent" unicode="&#x122;" horiz-adv-x="748" 
d="M641 91q-1 -3 -12 -14t-36.5 -27.5t-59 -31.5t-85 -26t-108.5 -11q-169 -1 -230.5 93t-26.5 293q34 193 122.5 281t251.5 88q140 0 204 -60.5t53 -176.5l-134 -9q3 66 -28 95t-100 29q-94 0 -149 -63t-80 -203q-24 -136 6 -193t120 -57q49 0 91 11t63 24.5t22 24.5
l18 108h-134l17 98h262zM199 -278q28 52 57 123q11 26 20.5 52.5t13.5 40.5l3 13h122q-16 -69 -52 -136q-17 -32 -34 -55t-25 -30l-8 -8h-97z" />
    <glyph glyph-name="gcommaaccent" unicode="&#x123;" horiz-adv-x="683" 
d="M543 828q-32 -55 -63 -136l-37 -108l-122 1q13 61 52 137q18 36 36.5 63t28.5 35l9 9zM141 -82q2 -27 28 -47t83 -20q44 0 73 11t45.5 35t24 47t14.5 60l7 44q-63 -59 -169 -59q-231 0 -179 290q48 275 261 275q39 0 72 -9.5t54 -24.5t32 -26.5t18 -22.5l28 72h119
l-37 -149l-71 -401q-15 -91 -38 -130q-62 -107 -256 -107q-114 0 -168 42.5t-61 96.5zM287 98q86 0 150 70l39 220q-35 57 -108 57q-132 0 -165 -185q-29 -162 84 -162z" />
    <glyph glyph-name="Hcircumflex" unicode="&#x124;" horiz-adv-x="777" 
d="M667 771h-127l-53 66l-76 -66h-130l142 138h146zM48 0l126 717h140l-50 -285h305l50 285h140l-126 -717h-140l53 305h-305l-53 -305h-140z" />
    <glyph glyph-name="hcircumflex" unicode="&#x125;" horiz-adv-x="718" 
d="M473 790h-127l-53 66l-76 -66h-130l142 138h146zM73 0l133 757h138l-49 -277q78 71 191 71q103 0 139.5 -59t13.5 -189l-55 -303h-136l54 313q11 60 -4.5 87.5t-68.5 27.5q-87 0 -157 -78l-62 -350h-137z" />
    <glyph glyph-name="Hbar" unicode="&#x126;" horiz-adv-x="777" 
d="M48 0l94 536h-65l13 73h65l19 108h140l-19 -108h305l19 108h140l-19 -108h60l-13 -73h-60l-94 -536h-140l53 305h-305l-53 -305h-140zM264 432h305l18 104h-305z" />
    <glyph glyph-name="hbar" unicode="&#x127;" horiz-adv-x="718" 
d="M314 591l-19 -111q78 71 191 71q103 0 139.5 -59t13.5 -189l-55 -303h-136l54 313q11 60 -4.5 87.5t-68.5 27.5q-87 0 -157 -78l-62 -350h-137l104 591h-73l13 76h73l16 90h138l-16 -90h118l-13 -76h-119z" />
    <glyph glyph-name="Itilde" unicode="&#x128;" horiz-adv-x="333" 
d="M459 910q-11 -67 -38 -104t-84 -37q-35 0 -57.5 12t-38 24t-34.5 12q-27 0 -43.5 -18.5t-18.5 -34.5l-70 10q12 67 38.5 103.5t83.5 36.5q35 0 57.5 -12t37.5 -23.5t34 -11.5q27 0 44 19t19 34zM48 0l126 717h141l-127 -717h-140z" />
    <glyph glyph-name="itilde" unicode="&#x129;" horiz-adv-x="320" 
d="M428 768q-12 -68 -38.5 -104.5t-82.5 -36.5q-34 0 -57.5 12.5t-39.5 25t-34 12.5q-27 0 -44 -19t-19 -34l-69 10q12 67 38.5 103t82.5 36q34 0 57.5 -12.5t39.5 -24.5t34 -12q26 0 43.5 19.5t19.5 34.5zM43 0l96 543h137l-95 -543h-138z" />
    <glyph glyph-name="Imacron" unicode="&#x12a;" horiz-adv-x="333" 
d="M125 882h300l-18 -98h-299zM48 0l126 717h141l-127 -717h-140z" />
    <glyph glyph-name="imacron" unicode="&#x12b;" horiz-adv-x="320" 
d="M93 738h300l-16 -87h-299zM43 0l96 543h137l-95 -543h-138z" />
    <glyph glyph-name="Ibreve" unicode="&#x12c;" horiz-adv-x="333" 
d="M452 900q-9 -53 -57 -95t-133 -42q-92 0 -130 42t-29 95h100q-3 -20 15 -35.5t46 -15.5t53 15.5t29 35.5h106zM48 0l126 717h141l-127 -717h-140z" />
    <glyph glyph-name="ibreve" unicode="&#x12d;" horiz-adv-x="320" 
d="M428 771q-9 -55 -59 -101t-137 -46q-94 0 -132.5 46.5t-28.5 100.5h103q-4 -21 13.5 -41t44.5 -20q34 0 58.5 19.5t27.5 41.5h110zM43 0l96 543h137l-95 -543h-138z" />
    <glyph glyph-name="Iogonek" unicode="&#x12e;" horiz-adv-x="333" 
d="M-63 -113q6 32 34 61.5t49 41.5t29 15l125 712h141l-127 -717h-28q-10 -5 -24.5 -14t-41 -35.5t-31.5 -52.5q-3 -28 24 -28q13 0 27 4t22 8l8 4l-8 -67q-29 -30 -98 -30q-62 0 -85.5 28.5t-15.5 69.5z" />
    <glyph glyph-name="iogonek" unicode="&#x12f;" horiz-adv-x="320" 
d="M155 631l24 138h139l-25 -138h-138zM-67 -113q6 31 34 60.5t45 39.5t32 18l95 538h137l-95 -543h-25q-10 -5 -24.5 -14t-41 -35.5t-31.5 -52.5q-3 -28 24 -28q13 0 27 4t22 8l8 4l-8 -67q-29 -30 -98 -30q-62 0 -85.5 28.5t-15.5 69.5z" />
    <glyph glyph-name="Idotaccent" unicode="&#x130;" horiz-adv-x="333" 
d="M186 771l25 143h138l-25 -143h-138zM48 0l126 717h141l-127 -717h-140z" />
    <glyph glyph-name="dotlessi" unicode="&#x131;" horiz-adv-x="320" 
d="M43 0l96 543h137l-95 -543h-138z" />
    <glyph glyph-name="IJ" unicode="&#x132;" horiz-adv-x="790" 
d="M48 0l126 717h141l-127 -717h-140zM709 296q-11 -61 -20.5 -99t-26 -75t-38.5 -57t-56.5 -36.5t-81.5 -22.5t-112 -6h-62l21 127h55q88 0 126 38t56 140l73 412h140z" />
    <glyph glyph-name="ij" unicode="&#x133;" horiz-adv-x="658" 
d="M155 631l24 138h139l-25 -138h-138zM494 631l24 138h139l-25 -138h-138zM43 0l96 543h137l-95 -543h-138zM530 64q-6 -35 -9.5 -52t-10.5 -46t-14 -43.5t-19.5 -36.5t-27 -32.5t-36 -24t-47.5 -19.5t-60.5 -10.5t-76.5 -4.5l13 121q45 0 72 8.5t43 32t22.5 46.5t15.5 71
l83 469h137z" />
    <glyph glyph-name="Jcircumflex" unicode="&#x134;" horiz-adv-x="457" 
d="M582 771h-127l-53 66l-76 -66h-130l142 138h146zM376 296q-11 -61 -20.5 -99t-26 -75t-38.5 -57t-56.5 -36.5t-81.5 -22.5t-112 -6h-62l21 127h55q88 0 126 38t56 140l73 412h140z" />
    <glyph glyph-name="jcircumflex" unicode="&#x135;" horiz-adv-x="327" 
d="M418 626h-122l-52 77l-80 -77h-127l153 159h128zM199 64q-6 -35 -9.5 -52t-10.5 -46t-14 -43.5t-19.5 -36.5t-27 -32.5t-36 -24t-47.5 -19.5t-60.5 -10.5t-76.5 -4.5l13 121q45 0 72 8.5t43 32t22.5 46.5t15.5 71l83 469h137z" />
    <glyph glyph-name="Kcommaaccent" unicode="&#x136;" horiz-adv-x="736" 
d="M48 0l126 717h140l-69 -390l373 390h164l-297 -298l171 -419h-150l-126 313l-166 -166l-26 -147h-140zM183 -267q28 52 57 123q11 26 20.5 52.5t13.5 39.5l3 14h122q-16 -69 -52 -136q-17 -32 -34 -55t-25 -31l-8 -7h-97z" />
    <glyph glyph-name="kcommaaccent" unicode="&#x137;" horiz-adv-x="644" 
d="M73 0l133 757h133l-83 -466l242 252h154l-216 -211l138 -332h-151l-87 235l-108 -106l-23 -129h-132zM160 -267q28 52 57 123q11 26 20.5 52.5t12.5 39.5l4 14h122q-16 -69 -52 -136q-17 -32 -34 -55t-25 -31l-8 -7h-97z" />
    <glyph glyph-name="kgreenlandic" unicode="&#x138;" horiz-adv-x="637" 
d="M65 0l95 543h133l-45 -253l243 253h154l-217 -211l139 -332h-151l-87 235l-110 -107l-22 -128h-132z" />
    <glyph glyph-name="Lacute" unicode="&#x139;" horiz-adv-x="578" 
d="M189 771l113 135h157l-131 -135h-139zM48 0l126 717h140l-104 -591h308l-22 -126h-448z" />
    <glyph glyph-name="lacute" unicode="&#x13a;" horiz-adv-x="323" 
d="M184 812l113 135h157l-131 -135h-139zM271 -1h-46q-57 0 -92.5 17.5t-46.5 46t-13 64t7 72.5l99 560h137l-99 -565q-15 -78 30 -78h45z" />
    <glyph glyph-name="Lcommaaccent" unicode="&#x13b;" horiz-adv-x="578" 
d="M48 0l126 717h140l-104 -591h308l-22 -126h-448zM111 -267q28 52 57 123q11 26 20.5 52.5t13.5 39.5l3 14h122q-16 -69 -52 -136q-17 -32 -34 -55t-25 -31l-8 -7h-97z" />
    <glyph glyph-name="lcommaaccent" unicode="&#x13c;" horiz-adv-x="323" 
d="M271 -1h-46q-57 0 -92.5 17.5t-46.5 46t-13 64t7 72.5l99 560h137l-99 -565q-15 -78 30 -78h45zM22 -267q28 52 57 123q11 26 20.5 52.5t12.5 39.5l4 14h122q-16 -69 -52 -136q-17 -32 -34 -55t-25 -31l-8 -7h-97z" />
    <glyph glyph-name="Lcaron" unicode="&#x13d;" horiz-adv-x="578" 
d="M365 584l95 185h117l-114 -185h-98zM48 0l126 717h140l-104 -591h308l-22 -126h-448z" />
    <glyph glyph-name="lcaron" unicode="&#x13e;" horiz-adv-x="323" 
d="M318 582l89 180h111l-118 -180h-82zM271 -1h-46q-57 0 -92.5 17.5t-46.5 46t-13 64t7 72.5l99 560h137l-99 -565q-15 -78 30 -78h45z" />
    <glyph glyph-name="Ldot" unicode="&#x13f;" horiz-adv-x="574" 
d="M49 0l126 717h145l-103 -587h294l-24 -130h-438zM334 304l26 142h137l-25 -142h-138z" />
    <glyph glyph-name="ldot" unicode="&#x140;" horiz-adv-x="434" 
d="M280 -1h-46q-57 0 -92.5 17.5t-46.5 46t-13 64t7 72.5l99 560h137l-99 -565q-13 -78 30 -78h45zM290 302l25 142h138l-25 -142h-138z" />
    <glyph glyph-name="Lslash" unicode="&#x141;" horiz-adv-x="578" 
d="M48 0l52 297l-81 -39l-26 79l124 59l57 321h140l-44 -248l91 44l25 -79l-133 -64l-43 -244h308l-22 -126h-448z" />
    <glyph glyph-name="lslash" unicode="&#x142;" horiz-adv-x="323" 
d="M247 364l-30 -170q-15 -78 30 -78h45l-21 -117h-46q-57 0 -92.5 17.5t-46.5 46t-13 64t7 72.5l16 93l-80 -38l-26 79l124 59l65 367h137l-52 -295l94 45l25 -79z" />
    <glyph glyph-name="Nacute" unicode="&#x143;" horiz-adv-x="809" 
d="M420 771l113 135h157l-131 -135h-139zM272 562l-93 -562h-131l129 717h157l236 -554l90 554h131l-126 -717h-158z" />
    <glyph glyph-name="nacute" unicode="&#x144;" horiz-adv-x="688" 
d="M347 627l117 162h145l-135 -162h-127zM47 0l70 397l15 146h116l2 -79q29 32 81.5 59.5t126.5 27.5q104 0 139 -60.5t11 -196.5l-52 -294h-137l54 304q12 67 -3.5 95.5t-68.5 28.5q-87 0 -156 -77l-61 -351h-137z" />
    <glyph glyph-name="Ncommaaccent" unicode="&#x145;" horiz-adv-x="809" 
d="M272 562l-93 -562h-131l129 717h157l236 -554l90 554h131l-126 -717h-158zM219 -267q28 52 57 123q11 26 20.5 52.5t13.5 39.5l3 14h122q-16 -69 -52 -136q-17 -32 -34 -55t-25 -31l-8 -7h-97z" />
    <glyph glyph-name="ncommaaccent" unicode="&#x146;" horiz-adv-x="688" 
d="M47 0l70 397l15 146h116l2 -79q29 32 81.5 59.5t126.5 27.5q104 0 139 -60.5t11 -196.5l-52 -294h-137l54 304q12 67 -3.5 95.5t-68.5 28.5q-87 0 -156 -77l-61 -351h-137zM151 -267q28 52 57 123q11 26 20.5 52.5t13.5 39.5l3 14h122q-16 -69 -52 -136q-17 -32 -34 -55
t-25 -31l-8 -7h-97z" />
    <glyph glyph-name="Ncaron" unicode="&#x147;" horiz-adv-x="809" 
d="M713 909l-147 -138h-147l-92 138h122l53 -66l76 66h135zM272 562l-93 -562h-131l129 717h157l236 -554l90 554h131l-126 -717h-158z" />
    <glyph glyph-name="ncaron" unicode="&#x148;" horiz-adv-x="688" 
d="M629 785l-156 -159h-128l-93 159h116l53 -73l79 73h129zM47 0l70 397l15 146h116l2 -79q29 32 81.5 59.5t126.5 27.5q104 0 139 -60.5t11 -196.5l-52 -294h-137l54 304q12 67 -3.5 95.5t-68.5 28.5q-87 0 -156 -77l-61 -351h-137z" />
    <glyph glyph-name="Eng" unicode="&#x14a;" horiz-adv-x="809" 
d="M791 717l-126 -717q-10 -53 -25.5 -91t-46 -71t-83 -50t-126.5 -17h-58l19 107h50q67 0 103 28.5t47 93.5v1l-277 536l-89 -537h-131l129 717h144l257 -506l82 506h131z" />
    <glyph glyph-name="eng" unicode="&#x14b;" horiz-adv-x="691" 
d="M572 72q-6 -35 -9.5 -52.5t-10.5 -46.5t-14 -43.5t-19.5 -36.5t-27 -32.5t-36 -24t-48 -19.5t-61 -10.5t-76.5 -4.5l12 121q36 0 61 7t40 17t25.5 33.5t15.5 43t12 58.5l40 222q12 67 -3.5 95.5t-68.5 28.5q-88 0 -160 -80l-60 -348h-137l70 397l17 146h114l2 -82
q16 19 39 36.5t70.5 35.5t101.5 18q104 0 139 -60.5t11 -196.5z" />
    <glyph glyph-name="Omacron" unicode="&#x14c;" horiz-adv-x="775" 
d="M346 887h300l-18 -98h-299zM721 348q-33 -192 -122 -279.5t-255 -87.5q-171 0 -233.5 94t-27.5 292q34 192 123.5 280.5t254.5 88.5q171 0 233 -94.5t27 -293.5zM223 348q-23 -133 6 -189t120 -56q97 0 152.5 62.5t79.5 201.5q24 134 -5 190.5t-120 56.5
q-97 0 -152.5 -63t-80.5 -203z" />
    <glyph glyph-name="omacron" unicode="&#x14d;" horiz-adv-x="676" 
d="M270 734h300l-16 -87h-299zM608 261q-25 -139 -96.5 -207.5t-215.5 -68.5q-150 0 -202 74.5t-26 220.5q24 139 96.5 208t215.5 69q150 1 201.5 -74.5t26.5 -221.5zM206 261q-16 -92 3.5 -130.5t88.5 -38.5q75 0 114.5 45t57.5 143q16 92 -3.5 131t-88.5 39
q-75 0 -115 -45.5t-57 -143.5z" />
    <glyph glyph-name="Obreve" unicode="&#x14e;" horiz-adv-x="775" 
d="M673 905q-9 -53 -57 -95t-133 -42q-92 0 -130 42t-29 95h100q-3 -20 15 -35.5t46 -15.5t53 15.5t29 35.5h106zM721 348q-33 -192 -122 -279.5t-255 -87.5q-171 0 -233.5 94t-27.5 292q34 192 123.5 280.5t254.5 88.5q171 0 233 -94.5t27 -293.5zM223 348q-23 -133 6 -189
t120 -56q97 0 152.5 62.5t79.5 201.5q24 134 -5 190.5t-120 56.5q-97 0 -152.5 -63t-80.5 -203z" />
    <glyph glyph-name="obreve" unicode="&#x14f;" horiz-adv-x="676" 
d="M605 767q-9 -55 -59 -101t-137 -46q-94 0 -132.5 46.5t-28.5 100.5h103q-4 -21 13.5 -41t44.5 -20q34 0 58.5 19.5t27.5 41.5h110zM608 261q-25 -139 -96.5 -207.5t-215.5 -68.5q-150 0 -202 74.5t-26 220.5q24 139 96.5 208t215.5 69q150 1 201.5 -74.5t26.5 -221.5z
M206 261q-16 -92 3.5 -130.5t88.5 -38.5q75 0 114.5 45t57.5 143q16 92 -3.5 131t-88.5 39q-75 0 -115 -45.5t-57 -143.5z" />
    <glyph glyph-name="Ohungarumlaut" unicode="&#x150;" horiz-adv-x="775" 
d="M300 777l108 135h144l-126 -135h-126zM491 777l127 135h145l-147 -135h-125zM721 348q-33 -192 -122 -279.5t-255 -87.5q-171 0 -233.5 94t-27.5 292q34 192 123.5 280.5t254.5 88.5q171 0 233 -94.5t27 -293.5zM223 348q-23 -133 6 -189t120 -56q97 0 152.5 62.5
t79.5 201.5q24 134 -5 190.5t-120 56.5q-97 0 -152.5 -63t-80.5 -203z" />
    <glyph glyph-name="ohungarumlaut" unicode="&#x151;" horiz-adv-x="676" 
d="M220 623l113 162h144l-132 -162h-125zM411 623l132 162h144l-151 -162h-125zM608 261q-25 -139 -96.5 -207.5t-215.5 -68.5q-150 0 -202 74.5t-26 220.5q24 139 96.5 208t215.5 69q150 1 201.5 -74.5t26.5 -221.5zM206 261q-16 -92 3.5 -130.5t88.5 -38.5q75 0 114.5 45
t57.5 143q16 92 -3.5 131t-88.5 39q-75 0 -115 -45.5t-57 -143.5z" />
    <glyph glyph-name="OE" unicode="&#x152;" horiz-adv-x="1047" 
d="M342 0q-171 0 -232 86.5t-27 280.5q33 189 119.5 269.5t257.5 80.5h610l-20 -118h-359l-31 -176h306l-19 -110h-306l-35 -195h365l-21 -118h-608zM224 348q-23 -130 6.5 -183.5t124.5 -53.5h109l88 495h-101q-95 0 -149 -60.5t-78 -197.5z" />
    <glyph glyph-name="oe" unicode="&#x153;" horiz-adv-x="1068" 
d="M967 101q-30 -52 -97.5 -84t-171.5 -32q-147 0 -189 81q-64 -81 -213 -81q-150 0 -202 74.5t-26 220.5q24 139 96.5 208t215.5 69q149 0 192 -82q65 82 210 82q146 0 196 -74.5t20 -241.5l-67 1h-326q-13 -85 8.5 -120.5t84.5 -35.5q58 0 100.5 18.5t58.5 42.5zM782 463
q-61 0 -99 -32t-59 -102h250q4 75 -18 104.5t-74 29.5zM206 261q-17 -93 3 -131t89 -38q76 0 115.5 44t56.5 144q17 93 -3 131.5t-89 38.5q-76 0 -115.5 -44.5t-56.5 -144.5z" />
    <glyph glyph-name="Racute" unicode="&#x154;" horiz-adv-x="757" 
d="M379 771l113 135h157l-131 -135h-139zM48 0l126 719h280q171 0 233 -53.5t36 -197.5q-16 -93 -55 -141.5t-112 -68.5l89 -258h-147l-73 241q-16 -1 -51 -1h-144l-42 -240h-140zM293 601l-43 -244h125q97 0 145.5 26t62.5 106q13 73 -22 92.5t-134 19.5h-134z" />
    <glyph glyph-name="racute" unicode="&#x155;" horiz-adv-x="461" 
d="M240 627l117 162h145l-135 -162h-127zM47 0l68 384l17 159h118v-95q23 41 75 74.5t142 33.5l-13 -122q-47 0 -87 -14t-65.5 -36.5t-40 -40.5t-24.5 -36l-53 -307h-137z" />
    <glyph glyph-name="Rcommaaccent" unicode="&#x156;" horiz-adv-x="757" 
d="M48 0l126 719h280q171 0 233 -53.5t36 -197.5q-16 -93 -55 -141.5t-112 -68.5l89 -258h-147l-73 241q-16 -1 -51 -1h-144l-42 -240h-140zM293 601l-43 -244h125q97 0 145.5 26t62.5 106q13 73 -22 92.5t-134 19.5h-134zM174 -267q28 52 57 123q11 26 20.5 52.5t12.5 39.5
l4 14h122q-16 -69 -52 -136q-17 -32 -34 -55t-25 -31l-8 -7h-97z" />
    <glyph glyph-name="rcommaaccent" unicode="&#x157;" horiz-adv-x="461" 
d="M47 0l68 384l17 159h118v-95q23 41 75 74.5t142 33.5l-13 -122q-47 0 -87 -14t-65.5 -36.5t-40 -40.5t-24.5 -36l-53 -307h-137zM-47 -267q28 52 57 123q11 26 20.5 52.5t13.5 39.5l3 14h122q-16 -69 -52 -136q-17 -32 -34 -55t-25 -31l-8 -7h-97z" />
    <glyph glyph-name="Rcaron" unicode="&#x158;" horiz-adv-x="757" 
d="M672 909l-147 -138h-147l-92 138h122l53 -66l76 66h135zM48 0l126 719h280q171 0 233 -53.5t36 -197.5q-16 -93 -55 -141.5t-112 -68.5l89 -258h-147l-73 241q-16 -1 -51 -1h-144l-42 -240h-140zM293 601l-43 -244h125q97 0 145.5 26t62.5 106q13 73 -22 92.5t-134 19.5
h-134z" />
    <glyph glyph-name="rcaron" unicode="&#x159;" horiz-adv-x="461" 
d="M522 785l-156 -159h-128l-93 159h116l53 -73l79 73h129zM47 0l68 384l17 159h118v-95q23 41 75 74.5t142 33.5l-13 -122q-47 0 -87 -14t-65.5 -36.5t-40 -40.5t-24.5 -36l-53 -307h-137z" />
    <glyph glyph-name="Sacute" unicode="&#x15a;" horiz-adv-x="718" 
d="M369 776l113 135h157l-131 -135h-139zM190 214q-5 -61 28.5 -89t107.5 -29q75 -1 121 26t55 81q6 32 -15 52.5t-58 32t-82.5 21t-90.5 24t-80 36.5t-52 63t-6 98q18 100 95 153.5t216 52.5q141 0 202 -53t52 -149l-134 -14q3 47 -22 73t-100 27q-80 1 -122.5 -28.5
t-50.5 -76.5q-5 -28 11 -47t45.5 -29.5t67.5 -20.5t78 -18.5t77 -25t64.5 -38t40 -59.5t3.5 -89q-36 -209 -324 -207q-137 1 -204.5 57.5t-57.5 164.5z" />
    <glyph glyph-name="sacute" unicode="&#x15b;" horiz-adv-x="627" 
d="M313 627l117 162h145l-135 -162h-127zM155 161q7 -75 115 -78q130 0 145 80q6 33 -29 49t-88 23t-105 19t-84 48.5t-21 99.5q27 158 267 155q212 0 222 -136l-116 -23q-5 33 -28 48t-74 16q-66 1 -99.5 -22t-39.5 -57q-4 -25 21 -39.5t65 -19t86.5 -14.5t85 -24.5
t60 -50.5t11.5 -91q-15 -79 -80.5 -119.5t-197.5 -39.5q-113 1 -172.5 42.5t-61.5 115.5z" />
    <glyph glyph-name="Scircumflex" unicode="&#x15c;" horiz-adv-x="718" 
d="M634 776h-127l-53 66l-76 -66h-130l142 138h146zM190 214q-5 -61 28.5 -89t107.5 -29q75 -1 121 26t55 81q6 32 -15 52.5t-58 32t-82.5 21t-90.5 24t-80 36.5t-52 63t-6 98q18 100 95 153.5t216 52.5q141 0 202 -53t52 -149l-134 -14q3 47 -22 73t-100 27
q-80 1 -122.5 -28.5t-50.5 -76.5q-5 -28 11 -47t45.5 -29.5t67.5 -20.5t78 -18.5t77 -25t64.5 -38t40 -59.5t3.5 -89q-36 -209 -324 -207q-137 1 -204.5 57.5t-57.5 164.5z" />
    <glyph glyph-name="scircumflex" unicode="&#x15d;" horiz-adv-x="627" 
d="M564 626h-122l-52 77l-80 -77h-127l153 159h128zM155 161q7 -75 115 -78q130 0 145 80q6 33 -29 49t-88 23t-105 19t-84 48.5t-21 99.5q27 158 267 155q212 0 222 -136l-116 -23q-5 33 -28 48t-74 16q-66 1 -99.5 -22t-39.5 -57q-4 -25 21 -39.5t65 -19t86.5 -14.5
t85 -24.5t60 -50.5t11.5 -91q-15 -79 -80.5 -119.5t-197.5 -39.5q-113 1 -172.5 42.5t-61.5 115.5z" />
    <glyph glyph-name="Scedilla" unicode="&#x15e;" horiz-adv-x="718" 
d="M411 -174q-9 -48 -46.5 -69.5t-126.5 -21.5q-28 0 -51.5 2.5t-32.5 5.5l-9 3l6 62q11 -2 45 -3q79 -1 88 52q4 23 -15.5 30.5t-62.5 7.5h-10l61 90q-107 12 -159 67.5t-43 150.5l135 11q-5 -61 28.5 -89t107.5 -29q75 -1 121 26t55 81q6 32 -15 52.5t-58 32t-82.5 21
t-90.5 24t-80 36.5t-52 63t-6 98q18 100 95 153.5t216 52.5q141 0 202 -53t52 -149l-134 -14q3 47 -22 73t-100 27q-80 1 -122.5 -28.5t-50.5 -76.5q-5 -28 11 -47t45.5 -29.5t67.5 -20.5t78 -18.5t77 -25t64.5 -38t40 -59.5t3.5 -89q-33 -187 -268 -205l-40 -59
q40 -4 63 -28.5t15 -69.5z" />
    <glyph glyph-name="scedilla" unicode="&#x15f;" horiz-adv-x="627" 
d="M368 -159q-9 -48 -46.5 -69.5t-126.5 -21.5q-28 0 -51.5 3t-32.5 5l-9 3l6 62q11 -2 45 -3q79 -1 88 52q4 23 -15.5 30.5t-62.5 7.5h-10l54 80q-83 11 -126 50.5t-44 102.5l118 18q7 -75 115 -78q130 0 145 80q6 33 -29 49t-88 23t-105 19t-84 48.5t-21 99.5
q27 158 267 155q212 0 222 -136l-116 -23q-5 33 -28 48t-74 16q-66 1 -99.5 -22t-39.5 -57q-4 -25 21 -39.5t65 -19t86.5 -14.5t85 -24.5t60 -50.5t11.5 -91q-13 -71 -67 -110.5t-159 -46.5l-33 -48q40 -4 63 -28.5t15 -69.5z" />
    <glyph glyph-name="Scaron" unicode="&#x160;" horiz-adv-x="718" 
d="M662 914l-147 -138h-147l-92 138h122l53 -66l76 66h135zM190 214q-5 -61 28.5 -89t107.5 -29q75 -1 121 26t55 81q6 32 -15 52.5t-58 32t-82.5 21t-90.5 24t-80 36.5t-52 63t-6 98q18 100 95 153.5t216 52.5q141 0 202 -53t52 -149l-134 -14q3 47 -22 73t-100 27
q-80 1 -122.5 -28.5t-50.5 -76.5q-5 -28 11 -47t45.5 -29.5t67.5 -20.5t78 -18.5t77 -25t64.5 -38t40 -59.5t3.5 -89q-36 -209 -324 -207q-137 1 -204.5 57.5t-57.5 164.5z" />
    <glyph glyph-name="scaron" unicode="&#x161;" horiz-adv-x="627" 
d="M595 785l-156 -159h-128l-93 159h116l53 -73l79 73h129zM155 161q7 -75 115 -78q130 0 145 80q6 33 -29 49t-88 23t-105 19t-84 48.5t-21 99.5q27 158 267 155q212 0 222 -136l-116 -23q-5 33 -28 48t-74 16q-66 1 -99.5 -22t-39.5 -57q-4 -25 21 -39.5t65 -19
t86.5 -14.5t85 -24.5t60 -50.5t11.5 -91q-15 -79 -80.5 -119.5t-197.5 -39.5q-113 1 -172.5 42.5t-61.5 115.5z" />
    <glyph glyph-name="uni0162" unicode="&#x162;" horiz-adv-x="645" 
d="M353 -162q-9 -48 -46.5 -69.5t-126.5 -21.5q-28 0 -51.5 2.5t-32.5 5.5l-9 3l6 62q11 -2 45 -3q79 -1 88 52q4 23 -15.5 30.5t-62.5 7.5h-10l64 93l106 591h-221l23 126h582l-22 -126h-222l-105 -591h-24l-44 -64q40 -4 63 -28.5t15 -69.5z" />
    <glyph glyph-name="uni0163" unicode="&#x163;" horiz-adv-x="421" 
d="M322 -146q-9 -48 -46.5 -69.5t-126.5 -21.5q-28 0 -51.5 2.5t-32.5 5.5l-9 3l6 62q11 -2 45 -3q79 -1 88 52q4 21 -12 29t-49 9h-27l64 93h2q-42 16 -61 50t-17 77.5t11 98.5l35 200h-73l18 101h72l27 151l142 22l-31 -173h130l-18 -101h-129l-36 -204q-14 -64 -1 -93
t67 -29h45l-21 -117h-57l-32 -47q40 -4 63 -28.5t15 -69.5z" />
    <glyph glyph-name="Tcaron" unicode="&#x164;" horiz-adv-x="645" 
d="M632 909l-147 -138h-147l-92 138h122l53 -66l76 66h135zM202 0l106 591h-221l23 126h582l-22 -126h-222l-105 -591h-141z" />
    <glyph glyph-name="tcaron" unicode="&#x165;" horiz-adv-x="421" 
d="M348 591l89 180h111l-118 -180h-82zM333 -1h-46q-73 0 -117 18t-58.5 50.5t-16 77t10.5 97.5l35 200h-73l18 101h72l27 151l142 22l-31 -173h130l-18 -101h-129l-36 -204q-14 -64 -1 -93t67 -29h45z" />
    <glyph glyph-name="Tbar" unicode="&#x166;" horiz-adv-x="645" 
d="M202 0l51 284h-96l13 76h96l42 231h-221l23 126h582l-22 -126h-222l-41 -231h92l-13 -76h-93l-50 -284h-141z" />
    <glyph glyph-name="tbar" unicode="&#x167;" horiz-adv-x="421" 
d="M333 -1h-46q-73 0 -117 18t-58.5 50.5t-16 77t10.5 97.5l1 5h-69l13 76h69l21 119h-73l18 101h72l27 151l142 22l-31 -173h130l-18 -101h-129l-21 -119h122l-13 -76h-123l-1 -9q-14 -64 -1 -93t67 -29h45z" />
    <glyph glyph-name="Utilde" unicode="&#x168;" horiz-adv-x="758" 
d="M672 910q-11 -67 -38 -104t-84 -37q-35 0 -57.5 12t-38 24t-34.5 12q-27 0 -43.5 -18.5t-18.5 -34.5l-70 10q12 67 38.5 103.5t83.5 36.5q35 0 57.5 -12t37.5 -23.5t34 -11.5q27 0 44 19t19 34zM686 348q-17 -99 -38 -160.5t-59.5 -112t-100 -72.5t-152.5 -22
q-124 0 -184 44t-66 128t15 205l63 359h140l-63 -358q-26 -139 -6 -195t105 -56q93 0 138 59t70 202l62 348h141z" />
    <glyph glyph-name="utilde" unicode="&#x169;" horiz-adv-x="681" 
d="M607 768q-12 -68 -38.5 -104.5t-82.5 -36.5q-34 0 -57.5 12.5t-39.5 25t-34 12.5q-27 0 -44 -19t-19 -34l-69 10q12 67 38.5 103t82.5 36q34 0 57.5 -12.5t39.5 -24.5t34 -12q26 0 43.5 19.5t19.5 34.5zM437 0l-2 85q-28 -33 -81 -63.5t-128 -30.5q-103 0 -140 59
t-14 189l55 303h136l-54 -312q-11 -60 4.5 -88t68.5 -28q89 0 159 86l60 343h138l-70 -392l-15 -151h-117z" />
    <glyph glyph-name="Umacron" unicode="&#x16a;" horiz-adv-x="758" 
d="M338 882h300l-18 -98h-299zM686 348q-17 -99 -38 -160.5t-59.5 -112t-100 -72.5t-152.5 -22q-124 0 -184 44t-66 128t15 205l63 359h140l-63 -358q-26 -139 -6 -195t105 -56q93 0 138 59t70 202l62 348h141z" />
    <glyph glyph-name="umacron" unicode="&#x16b;" horiz-adv-x="681" 
d="M272 738h300l-16 -87h-299zM437 0l-2 85q-28 -33 -81 -63.5t-128 -30.5q-103 0 -140 59t-14 189l55 303h136l-54 -312q-11 -60 4.5 -88t68.5 -28q89 0 159 86l60 343h138l-70 -392l-15 -151h-117z" />
    <glyph glyph-name="Ubreve" unicode="&#x16c;" horiz-adv-x="758" 
d="M665 900q-9 -53 -57 -95t-133 -42q-92 0 -130 42t-29 95h100q-3 -20 15 -35.5t46 -15.5t53 15.5t29 35.5h106zM686 348q-17 -99 -38 -160.5t-59.5 -112t-100 -72.5t-152.5 -22q-124 0 -184 44t-66 128t15 205l63 359h140l-63 -358q-26 -139 -6 -195t105 -56q93 0 138 59
t70 202l62 348h141z" />
    <glyph glyph-name="ubreve" unicode="&#x16d;" horiz-adv-x="681" 
d="M607 771q-9 -55 -59 -101t-137 -46q-94 0 -132.5 46.5t-28.5 100.5h103q-4 -21 13.5 -41t44.5 -20q34 0 58.5 19.5t27.5 41.5h110zM437 0l-2 85q-28 -33 -81 -63.5t-128 -30.5q-103 0 -140 59t-14 189l55 303h136l-54 -312q-11 -60 4.5 -88t68.5 -28q89 0 159 86l60 343
h138l-70 -392l-15 -151h-117z" />
    <glyph glyph-name="Uring" unicode="&#x16e;" horiz-adv-x="758" 
d="M605 863q-9 -49 -43.5 -76t-86.5 -27q-59 0 -88.5 32.5t-19.5 89.5q9 50 43 76t87 26q59 0 88.5 -32.5t19.5 -88.5zM448 863q-6 -28 23 -28q20 0 35 13t19 34q3 27 -24 27q-20 0 -35 -13t-18 -33zM686 348q-17 -99 -38 -160.5t-59.5 -112t-100 -72.5t-152.5 -22
q-124 0 -184 44t-66 128t15 205l63 359h140l-63 -358q-26 -139 -6 -195t105 -56q93 0 138 59t70 202l62 348h141z" />
    <glyph glyph-name="uring" unicode="&#x16f;" horiz-adv-x="681" 
d="M534 713q-8 -49 -41 -73.5t-85 -24.5q-57 0 -85.5 31t-18.5 86q8 47 41 72t84 25q58 0 86.5 -31t18.5 -85zM382 716q-6 -32 26 -32q19 0 32 12.5t16 31.5q6 31 -26 31q-19 0 -32 -12t-16 -31zM437 0l-2 85q-28 -33 -81 -63.5t-128 -30.5q-103 0 -140 59t-14 189l55 303
h136l-54 -312q-11 -60 4.5 -88t68.5 -28q89 0 159 86l60 343h138l-70 -392l-15 -151h-117z" />
    <glyph glyph-name="Uhungarumlaut" unicode="&#x170;" horiz-adv-x="758" 
d="M292 772l108 135h144l-126 -135h-126zM483 772l127 135h145l-147 -135h-125zM686 348q-17 -99 -38 -160.5t-59.5 -112t-100 -72.5t-152.5 -22q-124 0 -184 44t-66 128t15 205l63 359h140l-63 -358q-26 -139 -6 -195t105 -56q93 0 138 59t70 202l62 348h141z" />
    <glyph glyph-name="uhungarumlaut" unicode="&#x171;" horiz-adv-x="681" 
d="M222 627l113 162h144l-132 -162h-125zM413 627l132 162h144l-151 -162h-125zM437 0l-2 85q-28 -33 -81 -63.5t-128 -30.5q-103 0 -140 59t-14 189l55 303h136l-54 -312q-11 -60 4.5 -88t68.5 -28q89 0 159 86l60 343h138l-70 -392l-15 -151h-117z" />
    <glyph glyph-name="Uogonek" unicode="&#x172;" horiz-adv-x="758" 
d="M313 -84q5 32 36 65h-13q-124 0 -184 44t-66 128t15 205l63 359h140l-63 -358q-26 -139 -6 -195t105 -56q93 0 138 59t70 202l62 348h141l-65 -369q-25 -141 -63 -220t-114 -115q-62 -40 -70 -86q-3 -28 24 -28q13 0 27 4t22 8l8 4l-8 -67q-29 -30 -98 -30
q-62 0 -85.5 28.5t-15.5 69.5z" />
    <glyph glyph-name="uogonek" unicode="&#x173;" horiz-adv-x="681" 
d="M546 0q-10 -5 -24 -13.5t-40.5 -35t-30.5 -52.5q-3 -28 24 -28q13 0 27 4t22 8l8 4l-8 -67q-29 -30 -98 -30q-62 0 -85.5 28.5t-15.5 69.5q5 32 33 61.5t49 41.5t30 15l-2 79q-28 -33 -81 -63.5t-128 -30.5q-103 0 -140 59t-14 189l55 303h136l-54 -312q-11 -60 4.5 -88
t68.5 -28q89 0 159 86l60 343h138l-70 -392l-15 -151h-8z" />
    <glyph glyph-name="Wcircumflex" unicode="&#x174;" horiz-adv-x="1108" 
d="M840 771h-127l-53 66l-76 -66h-130l142 138h146zM610 583l-236 -583h-178l-79 717h159l32 -601l241 601h170l30 -599l249 599h152l-335 -717h-176z" />
    <glyph glyph-name="wcircumflex" unicode="&#x175;" horiz-adv-x="929" 
d="M715 626h-122l-52 77l-80 -77h-127l153 159h128zM490 424l-177 -424h-162l-74 543h143l29 -441l183 441h157l34 -440l182 440h146l-262 -543h-165z" />
    <glyph glyph-name="Ycircumflex" unicode="&#x176;" horiz-adv-x="704" 
d="M634 771h-127l-53 66l-76 -66h-130l142 138h146zM236 0l37 215l-162 502h154l95 -392l225 392h168l-341 -504l-38 -213h-138z" />
    <glyph glyph-name="ycircumflex" unicode="&#x177;" horiz-adv-x="626" 
d="M564 626h-122l-52 77l-80 -77h-127l153 159h128zM119 -230l113 230h-47l-106 543h144l63 -435l215 435h144l-400 -773h-126z" />
    <glyph glyph-name="Ydieresis" unicode="&#x178;" horiz-adv-x="704" 
d="M263 771l26 143h138l-26 -143h-138zM479 771l25 143h138l-26 -143h-137zM236 0l37 215l-162 502h154l95 -392l225 392h168l-341 -504l-38 -213h-138z" />
    <glyph glyph-name="Zacute" unicode="&#x179;" horiz-adv-x="641" 
d="M341 771l113 135h157l-131 -135h-139zM-4 3l11 65l8 53l456 475h-356l22 118h532l-8 -41h1l-13 -77l-459 -475h379l-21 -118h-552z" />
    <glyph glyph-name="zacute" unicode="&#x17a;" horiz-adv-x="542" 
d="M273 627l117 162h145l-135 -162h-127zM-4 2l12 70l5 39l345 322h-275l19 108h440l-9 -49l-9 -58l-343 -323h284l-18 -109h-451z" />
    <glyph glyph-name="Zdotaccent" unicode="&#x17b;" horiz-adv-x="641" 
d="M344 771l25 143h138l-25 -143h-138zM-4 3l11 65l8 53l456 475h-356l22 118h532l-8 -41h1l-13 -77l-459 -475h379l-21 -118h-552z" />
    <glyph glyph-name="zdotaccent" unicode="&#x17c;" horiz-adv-x="542" 
d="M269 631l24 138h139l-25 -138h-138zM-4 2l12 70l5 39l345 322h-275l19 108h440l-9 -49l-9 -58l-343 -323h284l-18 -109h-451z" />
    <glyph glyph-name="Zcaron" unicode="&#x17d;" horiz-adv-x="641" 
d="M634 909l-147 -138h-147l-92 138h122l53 -66l76 66h135zM-4 3l11 65l8 53l456 475h-356l22 118h532l-8 -41h1l-13 -77l-459 -475h379l-21 -118h-552z" />
    <glyph glyph-name="zcaron" unicode="&#x17e;" horiz-adv-x="542" 
d="M555 785l-156 -159h-128l-93 159h116l53 -73l79 73h129zM-4 2l12 70l5 39l345 322h-275l19 108h440l-9 -49l-9 -58l-343 -323h284l-18 -109h-451z" />
    <glyph glyph-name="uni018F" unicode="&#x18f;" horiz-adv-x="771" 
d="M121 525q43 111 125 161t212 50q171 0 233 -94t26 -294q-33 -192 -121.5 -279.5t-254.5 -87.5q-172 0 -232.5 96t-24.5 305h495q20 123 -8.5 178t-116.5 55q-143 0 -196 -122zM346 104q82 0 132.5 44t79.5 139h-343q-7 -98 24 -140.5t107 -42.5z" />
    <glyph glyph-name="uni019D" unicode="&#x19d;" horiz-adv-x="808" 
d="M177 717h157l235 -553l89 553h132l-127 -717h-157l-235 563l-97 -563q-9 -55 -24.5 -93t-45 -70.5t-79.5 -48.5t-123 -16h-58l19 106h50q63 0 93 27t42 95z" />
    <glyph glyph-name="Gcaron" unicode="&#x1e6;" horiz-adv-x="748" 
d="M692 914l-147 -138h-147l-92 138h122l53 -66l76 66h135zM641 91q-1 -3 -12 -14t-36.5 -27.5t-59 -31.5t-85 -26t-108.5 -11q-169 -1 -230.5 93t-26.5 293q34 193 122.5 281t251.5 88q140 0 204 -60.5t53 -176.5l-134 -9q3 66 -28 95t-100 29q-94 0 -149 -63t-80 -203
q-24 -136 6 -193t120 -57q49 0 91 11t63 24.5t22 24.5l18 108h-134l17 98h262z" />
    <glyph glyph-name="gcaron" unicode="&#x1e7;" horiz-adv-x="683" 
d="M619 785l-156 -159h-128l-93 159h116l53 -73l79 73h129zM141 -82q2 -27 28 -47t83 -20q44 0 73 11t45.5 35t24 47t14.5 60l7 44q-63 -59 -169 -59q-231 0 -179 290q48 275 261 275q39 0 72 -9.5t54 -24.5t32 -26.5t18 -22.5l28 72h119l-37 -149l-71 -401
q-15 -91 -38 -130q-62 -107 -256 -107q-114 0 -168 42.5t-61 96.5zM287 98q86 0 150 70l39 220q-35 57 -108 57q-132 0 -165 -185q-29 -162 84 -162z" />
    <glyph glyph-name="uni01EA" unicode="&#x1ea;" horiz-adv-x="775" 
d="M328 -80q5 32 33 61h-17q-171 0 -233.5 94t-27.5 292q34 192 123.5 280.5t254.5 88.5q171 0 233 -94.5t27 -293.5q-45 -259 -197 -332q-61 -39 -70 -85q-3 -28 24 -28q13 0 27 4t22 8l8 4l-8 -67q-29 -30 -98 -30q-62 0 -85.5 28.5t-15.5 69.5zM223 348q-23 -133 6 -189
t120 -56q97 0 152.5 62.5t79.5 201.5q24 134 -5 190.5t-120 56.5q-97 0 -152.5 -63t-80.5 -203z" />
    <glyph glyph-name="uni01EB" unicode="&#x1eb;" horiz-adv-x="676" 
d="M241 -90q7 40 47 75q-146 2 -196 76.5t-24 218.5q24 139 96.5 208t215.5 69q150 1 201.5 -74.5t26.5 -221.5q-18 -99 -57.5 -161t-109.5 -91q-66 -40 -74 -88q-3 -28 24 -28q13 0 27 4t22 8l8 4l-8 -67q-29 -30 -98 -30q-62 0 -85.5 28.5t-15.5 69.5zM206 261
q-16 -92 3.5 -130.5t88.5 -38.5q75 0 114.5 45t57.5 143q16 92 -3.5 131t-88.5 39q-75 0 -115 -45.5t-57 -143.5z" />
    <glyph glyph-name="Aringacute" unicode="&#x1fa;" horiz-adv-x="764" 
d="M440 1027l113 135h157l-131 -135h-139zM604 863q-9 -49 -43.5 -76t-86.5 -27q-59 0 -88.5 32.5t-19.5 89.5q9 50 43 76t87 26q59 0 88.5 -32.5t19.5 -88.5zM447 863q-6 -28 23 -28q20 0 35 13t19 34q3 27 -24 27q-20 0 -35 -13t-18 -33zM-20 0l397 717h163l145 -717h-151
l-23 142h-305l-73 -142h-153zM263 254h230l-55 340z" />
    <glyph glyph-name="aringacute" unicode="&#x1fb;" horiz-adv-x="673" 
d="M381 865l117 162h145l-135 -162h-127zM530 713q-8 -49 -41 -73.5t-85 -24.5q-57 0 -85.5 31t-18.5 86q8 47 41 72t84 25q58 0 86.5 -31t18.5 -85zM378 716q-6 -32 26 -32q19 0 32 12.5t16 31.5q6 31 -26 31q-19 0 -32 -12t-16 -31zM125 452q67 102 240 102q54 0 94.5 -8
t66.5 -20t41.5 -34.5t22.5 -43.5t6.5 -56t-4 -62t-11.5 -71l-21 -113l-15 -146h-124l-3 49q-82 -64 -189 -64q-106 0 -152 45.5t-30 134.5q16 93 80.5 130.5t173.5 37.5q81 0 153 -9q13 78 -5 106t-89 28q-102 0 -153 -62zM267 84q49 0 91 19.5t66 44.5l16 98q-69 3 -95 3
q-143 0 -160 -95q-6 -33 13 -51.5t69 -18.5z" />
    <glyph glyph-name="AEacute" unicode="&#x1fc;" horiz-adv-x="1047" 
d="M519 771l113 135h157l-131 -135h-139zM-20 0l504 717h586l-20 -118h-359l-31 -176h306l-19 -110h-307l-34 -195h365l-21 -118h-505l27 155h-229l-104 -155h-159zM491 263l62 353l-238 -353h176z" />
    <glyph glyph-name="aeacute" unicode="&#x1fd;" horiz-adv-x="1028" 
d="M535 627l117 162h145l-135 -162h-127zM928 101q-30 -52 -97 -84t-172 -32q-160 0 -211 91q-88 -88 -219 -88q-107 0 -152.5 44t-29.5 133q16 92 79.5 128t173.5 36h142q5 20 19 56q3 73 -102 73q-101 0 -152 -62l-82 56q67 102 240 102q121 0 171 -60q75 63 206 63
q147 0 196.5 -74t20.5 -241h-392q-13 -85 7.5 -120.5t83.5 -35.5q58 0 101 18.5t59 42.5zM742 463q-60 0 -97.5 -32t-58.5 -102h249q4 74 -18.5 104t-74.5 30zM425 154q-4 39 2 92q-22 -1 -82 -1q-73 0 -112 -21t-48 -70q-6 -33 13 -51.5t69 -18.5q53 0 95 21.5t63 48.5z
" />
    <glyph glyph-name="Oslashacute" unicode="&#x1fe;" horiz-adv-x="775" 
d="M391 772l113 135h157l-131 -135h-139zM22 -9l83 93q-55 93 -22 283q34 192 123.5 280.5t254.5 88.5q115 0 182 -44l32 37h99l-79 -89q61 -93 26 -292q-33 -192 -122 -279.5t-255 -87.5q-122 0 -190 48l-34 -38h-98zM223 348q-15 -87 -9 -140l336 380q-32 26 -94 26
q-97 0 -152.5 -63t-80.5 -203zM581 367q17 98 7 152l-341 -385q32 -31 102 -31q97 0 152.5 62.5t79.5 201.5z" />
    <glyph glyph-name="oslashacute" unicode="&#x1ff;" horiz-adv-x="676" 
d="M336 623l117 162h145l-135 -162h-127zM25 -12l68 72q-52 70 -25 220q24 139 96.5 208t215.5 69q100 0 155 -33l28 29h90l-70 -73q50 -71 25 -219q-25 -139 -96.5 -207.5t-215.5 -68.5q-98 0 -154 32l-27 -29h-90zM206 261q-10 -52 -7 -90l249 261q-24 18 -70 18
q-75 0 -115 -45.5t-57 -143.5zM470 280q9 50 7 88l-248 -260q23 -16 69 -16q75 0 114.5 45t57.5 143z" />
    <glyph glyph-name="Scommaaccent" unicode="&#x218;" horiz-adv-x="718" 
d="M190 214q-5 -61 28.5 -89t107.5 -29q75 -1 121 26t55 81q6 32 -15 52.5t-58 32t-82.5 21t-90.5 24t-80 36.5t-52 63t-6 98q18 100 95 153.5t216 52.5q141 0 202 -53t52 -149l-134 -14q3 47 -22 73t-100 27q-80 1 -122.5 -28.5t-50.5 -76.5q-5 -28 11 -47t45.5 -29.5
t67.5 -20.5t78 -18.5t77 -25t64.5 -38t40 -59.5t3.5 -89q-36 -209 -324 -207q-137 1 -204.5 57.5t-57.5 164.5zM178 -281q28 52 57 123q11 26 20.5 52.5t12.5 39.5l4 14h122q-16 -69 -52 -136q-17 -32 -34 -55t-25 -31l-8 -7h-97z" />
    <glyph glyph-name="scommaaccent" unicode="&#x219;" horiz-adv-x="627" 
d="M155 161q7 -75 115 -78q130 0 145 80q6 33 -29 49t-88 23t-105 19t-84 48.5t-21 99.5q27 158 267 155q212 0 222 -136l-116 -23q-5 33 -28 48t-74 16q-66 1 -99.5 -22t-39.5 -57q-4 -25 21 -39.5t65 -19t86.5 -14.5t85 -24.5t60 -50.5t11.5 -91q-15 -79 -80.5 -119.5
t-197.5 -39.5q-113 1 -172.5 42.5t-61.5 115.5zM135 -266q28 52 57 123q11 26 20.5 52.5t13.5 40.5l3 13h122q-16 -69 -52 -136q-17 -32 -34 -55t-25 -30l-8 -8h-97z" />
    <glyph glyph-name="uni021A" unicode="&#x21a;" horiz-adv-x="647" 
d="M201 0l105 587h-214l23 130h574l-23 -130h-215l-105 -587h-145zM111 -268q26 50 56 123q11 26 20 52.5t13 40.5l3 13h122q-15 -69 -51 -136q-17 -32 -34 -55t-26 -30l-8 -8h-95z" />
    <glyph glyph-name="uni021B" unicode="&#x21b;" horiz-adv-x="421" 
d="M333 -1h-46q-73 0 -117 18t-58.5 50.5t-16 77t10.5 97.5l35 200h-73l18 101h72l27 151l142 22l-31 -173h130l-18 -101h-129l-36 -204q-14 -64 -1 -93t67 -29h45zM89 -253q28 52 57 123q11 26 20.5 52.5t13.5 39.5l3 14h122q-16 -69 -52 -136q-17 -32 -34 -55t-25 -31
l-8 -7h-97z" />
    <glyph glyph-name="uni0232" unicode="&#x232;" horiz-adv-x="704" 
d="M311 882h300l-18 -98h-299zM236 0l37 215l-162 502h154l95 -392l225 392h168l-341 -504l-38 -213h-138z" />
    <glyph glyph-name="uni0233" unicode="&#x233;" horiz-adv-x="626" 
d="M247 738h300l-16 -87h-299zM119 -230l113 230h-47l-106 543h144l63 -435l215 435h144l-400 -773h-126z" />
    <glyph glyph-name="uni0237" unicode="&#x237;" horiz-adv-x="327" 
d="M199 64q-6 -35 -9.5 -52t-10.5 -46t-14 -43.5t-19.5 -36.5t-27 -32.5t-36 -24t-47.5 -19.5t-60.5 -10.5t-76.5 -4.5l13 121q45 0 72 8.5t43 32t22.5 46.5t15.5 71l83 469h137z" />
    <glyph glyph-name="uni0259" unicode="&#x259;" horiz-adv-x="668" 
d="M600 262q-24 -137 -97 -207t-214 -70q-146 0 -196 73.5t-21 236.5l67 -1h326q14 89 -7 126.5t-85 36.5q-57 -1 -100 -19.5t-61 -42.5l-108 46q29 52 96.5 84t172.5 33q148 0 200.5 -75.5t26.5 -220.5zM290 80q59 0 95.5 30t58.5 96l-248 -1q-3 -70 19.5 -97.5t74.5 -27.5
z" />
    <glyph glyph-name="uni0272" unicode="&#x272;" horiz-adv-x="691" 
d="M199 72q-6 -36 -9.5 -52.5t-11 -46.5t-14 -44t-19 -36t-27 -32.5t-36 -24t-47.5 -19.5t-60.5 -10.5t-76.5 -4.5l12 118q45 0 72 8.5t43 32.5t22.5 47.5t15.5 73.5l57 315l15 146h117l1 -80q29 32 81.5 60t125.5 28q104 0 139.5 -60t11.5 -197l-52 -294h-137l54 304
q12 67 -3 95.5t-68 28.5q-87 0 -157 -83z" />
    <glyph glyph-name="circumflex" unicode="&#x2c6;" horiz-adv-x="490" 
d="M513 626h-122l-52 77l-80 -77h-127l153 159h128z" />
    <glyph glyph-name="caron" unicode="&#x2c7;" horiz-adv-x="491" 
d="M545 785l-156 -159h-128l-93 159h116l53 -73l79 73h129z" />
    <glyph glyph-name="breve" unicode="&#x2d8;" horiz-adv-x="484" 
d="M493 771q-9 -55 -59 -101t-137 -46q-94 0 -132.5 46.5t-28.5 100.5h103q-4 -21 13.5 -41t44.5 -20q34 0 58.5 19.5t27.5 41.5h110z" />
    <glyph glyph-name="dotaccent" unicode="&#x2d9;" horiz-adv-x="387" 
d="M117 631l24 138h139l-25 -138h-138z" />
    <glyph glyph-name="ring" unicode="&#x2da;" horiz-adv-x="453" 
d="M376 713q-8 -49 -41 -73.5t-85 -24.5q-57 0 -85.5 31t-18.5 86q8 47 41 72t84 25q58 0 86.5 -31t18.5 -85zM224 716q-6 -32 26 -32q19 0 32 12.5t16 31.5q6 31 -26 31q-19 0 -32 -12t-16 -31z" />
    <glyph glyph-name="ogonek" unicode="&#x2db;" horiz-adv-x="447" 
d="M-24 -107q6 32 34 62t54 43l25 14l110 -6q-10 -5 -24.5 -14t-41 -35.5t-31.5 -52.5q-3 -28 24 -28q13 0 27 4t22 8l8 4l-8 -67q-29 -30 -98 -30q-62 0 -85.5 28.5t-15.5 69.5z" />
    <glyph glyph-name="tilde" unicode="&#x2dc;" horiz-adv-x="492" 
d="M519 768q-12 -68 -38.5 -104.5t-82.5 -36.5q-34 0 -57.5 12.5t-39.5 25t-34 12.5q-27 0 -44 -19t-19 -34l-69 10q12 67 38.5 103t82.5 36q34 0 57.5 -12.5t39.5 -24.5t34 -12q26 0 43.5 19.5t19.5 34.5z" />
    <glyph glyph-name="hungarumlaut" unicode="&#x2dd;" horiz-adv-x="477" 
d="M120 627l113 162h144l-132 -162h-125zM311 627l132 162h144l-151 -162h-125z" />
    <glyph glyph-name="gravecomb" unicode="&#x300;" 
d="M16 627h-121l-79 162h140z" />
    <glyph glyph-name="acutecomb" unicode="&#x301;" 
d="M-226 627l117 162h145l-135 -162h-127z" />
    <glyph glyph-name="uni0302" unicode="&#x302;" 
d="M-14 626h-122l-52 77l-80 -77h-127l153 159h128z" />
    <glyph glyph-name="tildecomb" unicode="&#x303;" 
d="M16 768q-12 -68 -38.5 -104.5t-82.5 -36.5q-34 0 -57.5 12.5t-39.5 25t-34 12.5q-27 0 -44 -19t-19 -34l-69 10q12 67 38.5 103t82.5 36q34 0 57.5 -12.5t39.5 -24.5t34 -12q26 0 43.5 19.5t19.5 34.5z" />
    <glyph glyph-name="uni0304" unicode="&#x304;" 
d="M-279 738h300l-16 -87h-299z" />
    <glyph glyph-name="uni0306" unicode="&#x306;" 
d="M41 771q-9 -55 -59 -101t-137 -46q-94 0 -132.5 46.5t-28.5 100.5h103q-4 -21 13.5 -41t44.5 -20q34 0 58.5 19.5t27.5 41.5h110z" />
    <glyph glyph-name="uni0307" unicode="&#x307;" 
d="M-127 631l24 138h139l-25 -138h-138z" />
    <glyph glyph-name="uni0308" unicode="&#x308;" 
d="M-334 626l26 143h127l-26 -143h-127zM-129 626l26 143h127l-25 -143h-128z" />
    <glyph glyph-name="uni030A" unicode="&#x30a;" 
d="M17 713q-8 -49 -41 -73.5t-85 -24.5q-57 0 -85.5 31t-18.5 86q8 47 41 72t84 25q58 0 86.5 -31t18.5 -85zM-135 716q-6 -32 26 -32q19 0 32 12.5t16 31.5q6 31 -26 31q-19 0 -32 -12t-16 -31z" />
    <glyph glyph-name="uni030B" unicode="&#x30b;" 
d="M-430 627l113 162h144l-132 -162h-125zM-239 627l132 162h144l-151 -162h-125z" />
    <glyph glyph-name="uni030C" unicode="&#x30c;" 
d="M17 785l-156 -159h-128l-93 159h116l53 -73l79 73h129z" />
    <glyph glyph-name="uni0312" unicode="&#x312;" 
d="M54 828q-32 -55 -63 -136l-37 -108l-122 1q13 61 52 137q18 36 36.5 63t27.5 35l10 9z" />
    <glyph glyph-name="dotbelowcomb" unicode="&#x323;" 
d="M-272 -193l23 132h137l-23 -132h-137z" />
    <glyph glyph-name="uni0326" unicode="&#x326;" 
d="M-330 -267q28 52 57 123q11 26 20.5 52.5t12.5 39.5l4 14h122q-16 -69 -52 -136q-17 -32 -34 -55t-25 -31l-8 -7h-97z" />
    <glyph glyph-name="uni0327" unicode="&#x327;" 
d="M-132 -160q-9 -48 -46.5 -69.5t-126.5 -21.5q-28 0 -51.5 2.5t-32.5 5.5l-9 3l6 62q11 -2 45 -3q79 -1 88 52q4 23 -15.5 30.5t-62.5 7.5h-10l64 93h117l-44 -64q40 -4 63 -28.5t15 -69.5z" />
    <glyph glyph-name="uni0328" unicode="&#x328;" 
d="M-369 -107q6 32 34 62t53 43l26 14l110 -6q-10 -5 -24.5 -14t-41 -35.5t-31.5 -52.5q-3 -28 24 -28q13 0 27 4t22 8l8 4l-8 -67q-29 -30 -98 -30q-62 0 -85.5 28.5t-15.5 69.5z" />
    <glyph glyph-name="uni0335" unicode="&#x335;" 
d="M-369 309l13 76h329l-13 -76h-329z" />
    <glyph glyph-name="uni0336" unicode="&#x336;" 
d="M-788 310l13 73h710l-13 -73h-710z" />
    <glyph glyph-name="uni0337" unicode="&#x337;" 
d="M-395 195l-26 79l368 176l25 -79z" />
    <glyph glyph-name="uni0338" unicode="&#x338;" 
d="M-516 98l538 565h90l-538 -565h-90z" />
    <glyph glyph-name="pi" unicode="&#x3c0;" horiz-adv-x="733" 
d="M592 463l-45 -259q-13 -48 -6.5 -75t44.5 -27h26l-18 -102h-23q-73 0 -107 26t-35 73.5t10 114.5l44 249h-177l-81 -463h-112l81 463h-85l17 97h571l-17 -97h-87z" />
    <glyph glyph-name="Wgrave" unicode="&#x1e80;" horiz-adv-x="1108" 
d="M707 772h-132l-84 135h152zM610 583l-236 -583h-178l-79 717h159l32 -601l241 601h170l30 -599l249 599h152l-335 -717h-176z" />
    <glyph glyph-name="wgrave" unicode="&#x1e81;" horiz-adv-x="929" 
d="M584 627h-121l-79 162h140zM490 424l-177 -424h-162l-74 543h143l29 -441l183 441h157l34 -440l182 440h146l-262 -543h-165z" />
    <glyph glyph-name="Wacute" unicode="&#x1e82;" horiz-adv-x="1108" 
d="M575 771l113 135h157l-131 -135h-139zM610 583l-236 -583h-178l-79 717h159l32 -601l241 601h170l30 -599l249 599h152l-335 -717h-176z" />
    <glyph glyph-name="wacute" unicode="&#x1e83;" horiz-adv-x="929" 
d="M464 627l117 162h145l-135 -162h-127zM490 424l-177 -424h-162l-74 543h143l29 -441l183 441h157l34 -440l182 440h146l-262 -543h-165z" />
    <glyph glyph-name="Wdieresis" unicode="&#x1e84;" horiz-adv-x="1108" 
d="M469 771l26 143h138l-26 -143h-138zM685 771l25 143h138l-26 -143h-137zM610 583l-236 -583h-178l-79 717h159l32 -601l241 601h170l30 -599l249 599h152l-335 -717h-176z" />
    <glyph glyph-name="wdieresis" unicode="&#x1e85;" horiz-adv-x="929" 
d="M361 626l26 143h127l-26 -143h-127zM566 626l26 143h127l-25 -143h-128zM490 424l-177 -424h-162l-74 543h143l29 -441l183 441h157l34 -440l182 440h146l-262 -543h-165z" />
    <glyph glyph-name="uni1E9E" unicode="&#x1e9e;" horiz-adv-x="772" 
d="M711 214q-7 -42 -27 -78t-55 -67.5t-94 -49.5t-135 -18h-149l21 116h137q67 0 109 37t53 101q10 55 -20.5 85t-98.5 30q-23 0 -46 -3t-34 -6l-12 -3l11 88l222 165h-173q-65 -1 -102.5 -37.5t-49.5 -100.5l-83 -473h-137l84 481q8 45 18 76t30.5 63.5t50.5 52t77.5 32
t111.5 12.5h353l-19 -106l-205 -159q199 -35 162 -238z" />
    <glyph glyph-name="uni1EA0" unicode="&#x1ea0;" horiz-adv-x="764" 
d="M-20 0l397 717h163l145 -717h-151l-23 142h-305l-73 -142h-153zM263 254h230l-55 340zM229 -195l23 132h137l-23 -132h-137z" />
    <glyph glyph-name="uni1EA1" unicode="&#x1ea1;" horiz-adv-x="673" 
d="M125 452q67 102 240 102q54 0 94.5 -8t66.5 -20t41.5 -34.5t22.5 -43.5t6.5 -56t-4 -62t-11.5 -71l-21 -113l-15 -146h-124l-3 49q-82 -64 -189 -64q-106 0 -152 45.5t-30 134.5q16 93 80.5 130.5t173.5 37.5q81 0 153 -9q13 78 -5 106t-89 28q-102 0 -153 -62zM267 84
q49 0 91 19.5t66 44.5l16 98q-69 3 -95 3q-143 0 -160 -95q-6 -33 13 -51.5t69 -18.5zM180 -203l23 132h137l-23 -132h-137z" />
    <glyph glyph-name="uni1EB8" unicode="&#x1eb8;" horiz-adv-x="650" 
d="M48 0l126 717h499l-21 -118h-359l-31 -176h307l-19 -110h-307l-35 -195h365l-20 -118h-505zM199 -193l23 132h137l-23 -132h-137z" />
    <glyph glyph-name="uni1EB9" unicode="&#x1eb9;" horiz-adv-x="664" 
d="M564 101q-30 -52 -97.5 -84t-171.5 -32q-148 0 -200.5 75t-26.5 220q24 138 97 207.5t213 69.5q146 0 196 -74t21 -241h-393q-13 -85 8 -120.5t85 -35.5q57 0 100 18.5t60 42.5zM378 463q-61 0 -98.5 -32t-58.5 -102h250q4 74 -18.5 104t-74.5 30zM188 -201l23 132h137
l-23 -132h-137z" />
    <glyph glyph-name="uni1EBC" unicode="&#x1ebc;" horiz-adv-x="650" 
d="M636 910q-11 -67 -38 -104t-84 -37q-35 0 -57.5 12t-38 24t-34.5 12q-27 0 -43.5 -18.5t-18.5 -34.5l-70 10q12 67 38.5 103.5t83.5 36.5q35 0 57.5 -12t37.5 -23.5t34 -11.5q27 0 44 19t19 34zM48 0l126 717h499l-21 -118h-359l-31 -176h307l-19 -110h-307l-35 -195h365
l-20 -118h-505z" />
    <glyph glyph-name="uni1EBD" unicode="&#x1ebd;" horiz-adv-x="664" 
d="M606 768q-12 -68 -38.5 -104.5t-82.5 -36.5q-34 0 -57.5 12.5t-39.5 25t-34 12.5q-27 0 -44 -19t-19 -34l-69 10q12 67 38.5 103t82.5 36q34 0 57.5 -12.5t39.5 -24.5t34 -12q26 0 43.5 19.5t19.5 34.5zM564 101q-30 -52 -97.5 -84t-171.5 -32q-148 0 -200.5 75
t-26.5 220q24 138 97 207.5t213 69.5q146 0 196 -74t21 -241h-393q-13 -85 8 -120.5t85 -35.5q57 0 100 18.5t60 42.5zM378 463q-61 0 -98.5 -32t-58.5 -102h250q4 74 -18.5 104t-74.5 30z" />
    <glyph glyph-name="uni1ECA" unicode="&#x1eca;" horiz-adv-x="333" 
d="M48 0l126 717h141l-127 -717h-140zM14 -198l23 132h137l-23 -132h-137z" />
    <glyph glyph-name="uni1ECB" unicode="&#x1ecb;" horiz-adv-x="320" 
d="M155 631l24 138h139l-25 -138h-138zM43 0l96 543h137l-95 -543h-138zM7 -193l23 132h137l-23 -132h-137z" />
    <glyph glyph-name="uni1ECC" unicode="&#x1ecc;" horiz-adv-x="775" 
d="M721 348q-33 -192 -122 -279.5t-255 -87.5q-171 0 -233.5 94t-27.5 292q34 192 123.5 280.5t254.5 88.5q171 0 233 -94.5t27 -293.5zM223 348q-23 -133 6 -189t120 -56q97 0 152.5 62.5t79.5 201.5q24 134 -5 190.5t-120 56.5q-97 0 -152.5 -63t-80.5 -203zM235 -204
l23 132h137l-23 -132h-137z" />
    <glyph glyph-name="uni1ECD" unicode="&#x1ecd;" horiz-adv-x="676" 
d="M608 261q-25 -139 -96.5 -207.5t-215.5 -68.5q-150 0 -202 74.5t-26 220.5q24 139 96.5 208t215.5 69q150 1 201.5 -74.5t26.5 -221.5zM206 261q-16 -92 3.5 -130.5t88.5 -38.5q75 0 114.5 45t57.5 143q16 92 -3.5 131t-88.5 39q-75 0 -115 -45.5t-57 -143.5zM185 -204
l23 132h137l-23 -132h-137z" />
    <glyph glyph-name="uni1EE4" unicode="&#x1ee4;" horiz-adv-x="758" 
d="M686 348q-17 -99 -38 -160.5t-59.5 -112t-100 -72.5t-152.5 -22q-124 0 -184 44t-66 128t15 205l63 359h140l-63 -358q-26 -139 -6 -195t105 -56q93 0 138 59t70 202l62 348h141zM226 -204l23 132h137l-23 -132h-137z" />
    <glyph glyph-name="uni1EE5" unicode="&#x1ee5;" horiz-adv-x="681" 
d="M437 0l-2 85q-28 -33 -81 -63.5t-128 -30.5q-103 0 -140 59t-14 189l55 303h136l-54 -312q-11 -60 4.5 -88t68.5 -28q89 0 159 86l60 343h138l-70 -392l-15 -151h-117zM186 -204l23 132h137l-23 -132h-137z" />
    <glyph glyph-name="Ygrave" unicode="&#x1ef2;" horiz-adv-x="704" 
d="M501 772h-132l-84 135h152zM236 0l37 215l-162 502h154l95 -392l225 392h168l-341 -504l-38 -213h-138z" />
    <glyph glyph-name="ygrave" unicode="&#x1ef3;" horiz-adv-x="626" 
d="M433 627h-121l-79 162h140zM119 -230l113 230h-47l-106 543h144l63 -435l215 435h144l-400 -773h-126z" />
    <glyph glyph-name="uni1EF8" unicode="&#x1ef8;" horiz-adv-x="704" 
d="M645 910q-11 -67 -38 -104t-84 -37q-35 0 -57.5 12t-38 24t-34.5 12q-27 0 -43.5 -18.5t-18.5 -34.5l-70 10q12 67 38.5 103.5t83.5 36.5q35 0 57.5 -12t37.5 -23.5t34 -11.5q27 0 44 19t19 34zM236 0l37 215l-162 502h154l95 -392l225 392h168l-341 -504l-38 -213h-138z
" />
    <glyph glyph-name="uni1EF9" unicode="&#x1ef9;" horiz-adv-x="626" 
d="M582 768q-12 -68 -38.5 -104.5t-82.5 -36.5q-34 0 -57.5 12.5t-39.5 25t-34 12.5q-27 0 -44 -19t-19 -34l-69 10q12 67 38.5 103t82.5 36q34 0 57.5 -12.5t39.5 -24.5t34 -12q26 0 43.5 19.5t19.5 34.5zM119 -230l113 230h-47l-106 543h144l63 -435l215 435h144
l-400 -773h-126z" />
    <glyph glyph-name="uni2009" unicode="&#x2009;" horiz-adv-x="126" 
 />
    <glyph glyph-name="endash" unicode="&#x2013;" horiz-adv-x="674" 
d="M90 270l18 100h492l-17 -100h-493z" />
    <glyph glyph-name="emdash" unicode="&#x2014;" horiz-adv-x="1034" 
d="M105 270l18 100h822l-18 -100h-822z" />
    <glyph glyph-name="uni2016" unicode="&#x2016;" horiz-adv-x="495" 
d="M20 -180l177 1003h97l-177 -1003h-97zM226 -180l177 1003h97l-177 -1003h-97z" />
    <glyph glyph-name="quoteleft" unicode="&#x2018;" horiz-adv-x="308" 
d="M109 489q8 56 53 148q20 41 40.5 71.5t31.5 41.5l11 10h101q-37 -62 -71 -153q-15 -38 -24.5 -67.5t-12.5 -39.5l-2 -11h-127z" />
    <glyph glyph-name="quoteright" unicode="&#x2019;" horiz-adv-x="309" 
d="M88 491q37 66 72 155q15 38 24.5 66.5t11.5 37.5l2 10h128q-9 -52 -54 -144q-20 -40 -41 -71.5t-31 -42.5l-11 -11h-101z" />
    <glyph glyph-name="quotesinglbase" unicode="&#x201a;" horiz-adv-x="319" 
d="M32 -123q38 62 73 153q15 38 24 67t11 39l2 11h129q-9 -55 -54 -147q-20 -41 -40.5 -72t-30.5 -41l-11 -10h-103z" />
    <glyph glyph-name="quotedblleft" unicode="&#x201c;" horiz-adv-x="487" 
d="M109 489q8 56 53 148q20 41 40.5 71.5t31.5 41.5l11 10h101q-37 -62 -71 -153q-15 -38 -24.5 -67.5t-12.5 -39.5l-2 -11h-127zM288 489q8 56 52 148q20 41 41 72t31 41l11 10h102q-38 -62 -72 -153q-14 -38 -23.5 -67.5t-11.5 -39.5l-2 -11h-128z" />
    <glyph glyph-name="quotedblright" unicode="&#x201d;" horiz-adv-x="487" 
d="M88 491q37 66 71 155q15 38 24.5 66.5l12.5 37.5l2 10h128q-8 -52 -54 -144q-20 -40 -41 -71.5t-31 -42.5l-11 -11h-101zM267 491q36 66 71 155q15 38 24.5 66.5t11.5 37.5l2 10h128q-8 -52 -54 -144q-20 -40 -40.5 -71.5t-31.5 -42.5l-10 -11h-101z" />
    <glyph glyph-name="quotedblbase" unicode="&#x201e;" horiz-adv-x="484" 
d="M-23 -134q36 63 71 153q15 38 24.5 67.5t11.5 39.5l3 11h128q-9 -55 -54 -148q-20 -41 -40.5 -71.5t-30.5 -41.5l-11 -10h-102zM153 -134q35 63 71 153q15 38 24.5 67.5t11.5 39.5l3 11h128q-10 -55 -54 -148q-20 -41 -41 -71.5t-32 -41.5l-10 -10h-101z" />
    <glyph glyph-name="dagger" unicode="&#x2020;" horiz-adv-x="617" 
d="M156 592h160l34 192h97l-34 -192h160l-14 -84h-161l-89 -508h-97l89 508h-160z" />
    <glyph glyph-name="daggerdbl" unicode="&#x2021;" horiz-adv-x="654" 
d="M156 592h160l34 192h97l-34 -192h160l-14 -84h-161l-41 -235h160l-15 -83h-160l-33 -190h-97l33 190h-160l15 83h160l41 235h-160z" />
    <glyph glyph-name="bullet" unicode="&#x2022;" horiz-adv-x="553" 
d="M180 209l31 181h172l-32 -181h-171z" />
    <glyph glyph-name="ellipsis" unicode="&#x2026;" horiz-adv-x="794" 
d="M59 0l26 148h139l-26 -148h-139zM279 0l26 148h140l-26 -148h-140zM500 0l26 148h140l-26 -148h-140z" />
    <glyph glyph-name="perthousand" unicode="&#x2030;" horiz-adv-x="1317" 
d="M457 527q-14 -84 -60.5 -126.5t-139.5 -42.5q-190 0 -156 188q15 86 62.5 130t139.5 44q100 0 135.5 -50t18.5 -143zM107 0l603 702h132l-603 -702h-132zM190 527q-8 -48 6 -71t57 -23q95 0 114 113q9 51 -4 74.5t-56 23.5q-96 0 -117 -117zM845 151q-15 -84 -61.5 -127
t-139.5 -43q-191 0 -156 189q15 86 62.5 130t140.5 44q188 0 154 -193zM1239 151q-15 -84 -61 -127t-139 -43q-191 0 -156 189q14 86 61.5 130t140.5 44q188 0 154 -193zM577 151q-8 -48 6.5 -71t56.5 -23q94 0 116 113q9 50 -5 74t-57 24q-96 0 -117 -117zM972 151
q-9 -48 5.5 -71t57.5 -23q93 0 115 113q9 50 -4.5 74t-56.5 24q-98 0 -117 -117z" />
    <glyph glyph-name="guilsinglleft" unicode="&#x2039;" horiz-adv-x="477" 
d="M195 90l-92 165l1 25l152 172h152l-177 -188l111 -174h-147z" />
    <glyph glyph-name="guilsinglright" unicode="&#x203a;" horiz-adv-x="477" 
d="M222 90h-153l176 178l-109 184h146l91 -172l-1 -25z" />
    <glyph glyph-name="fraction" unicode="&#x2044;" horiz-adv-x="328" 
d="M-197 -40l647 808h115l-647 -808h-115z" />
    <glyph glyph-name="uni2070" unicode="&#x2070;" horiz-adv-x="588" 
d="M569 559q-26 -150 -87 -210t-176 -60q-123 0 -166.5 66t-16.5 223q27 149 87.5 209.5t176.5 60.5q122 0 166 -66.5t16 -222.5zM233 559q-14 -69 -7.5 -107.5t25 -52t55.5 -13.5q61 0 97.5 42t55.5 150q17 102 0 137.5t-72 35.5q-62 0 -98.5 -42t-55.5 -150z" />
    <glyph glyph-name="uni2074" unicode="&#x2074;" horiz-adv-x="537" 
d="M333 299l17 96h-281l14 90l292 353h162l-62 -353h64l-17 -90h-63l-17 -96h-109zM366 485l45 260l-204 -260h159z" />
    <glyph glyph-name="uni2075" unicode="&#x2075;" horiz-adv-x="542" 
d="M302 746l-42 -122q44 29 110 29q95 0 131.5 -54.5t21.5 -135.5q-13 -78 -69 -126t-165 -48q-104 0 -151 40.5t-47 98.5l116 6q6 -54 81 -54q51 0 82 27.5t40 74.5q8 41 -9.5 65.5t-60.5 24.5q-32 0 -59 -10t-38 -18.5t-15 -13.5h-108l100 304h338l-18 -93z" />
    <glyph glyph-name="uni2076" unicode="&#x2076;" horiz-adv-x="570" 
d="M457 705q-2 54 -69 54q-51 0 -84.5 -32.5t-56.5 -113.5q55 39 132 39q101 0 140.5 -53.5t24.5 -136.5q-32 -173 -241 -173q-125 -1 -167 63t-18 197q29 167 88.5 233.5t177.5 66.5q96 0 139.5 -40t43.5 -96zM356 573q-75 0 -129 -56q-11 -75 6 -107t68 -32q54 0 86 29
t41 79q15 87 -72 87z" />
    <glyph glyph-name="uni2077" unicode="&#x2077;" horiz-adv-x="462" 
d="M133 298q12 67 43 137.5t66 123.5t69 96.5t56 66.5l22 23l-272 -8l17 98h397l-17 -93q-9 -9 -24.5 -25.5t-56.5 -67t-74.5 -100.5t-66 -119.5t-43.5 -131.5h-116z" />
    <glyph glyph-name="uni2078" unicode="&#x2078;" horiz-adv-x="567" 
d="M300 289q-124 0 -169.5 44t-30.5 126q11 62 49 94.5t70 35.5q-7 1 -17.5 8.5t-22 21t-17.5 37.5t-1 52q12 67 63 104t157 37q212 0 184 -160q-9 -48 -40 -73.5t-57 -27.5q27 -3 55 -42.5t16 -105.5q-13 -74 -67.5 -112.5t-171.5 -38.5zM385 772q-98 0 -115 -94
q-5 -29 11 -44t59 -15q98 0 112 78q7 39 -9 57t-58 18zM346 550q-108 0 -125 -96q-14 -79 76 -79q107 0 125 98q6 38 -10.5 57.5t-65.5 19.5z" />
    <glyph glyph-name="uni2079" unicode="&#x2079;" horiz-adv-x="570" 
d="M213 431q4 -53 82 -53q50 0 82.5 28.5t54.5 105.5q-53 -39 -126 -39q-203 0 -166 201q14 78 70.5 126.5t169.5 48.5q126 0 167.5 -64.5t16.5 -204.5q-29 -167 -86 -229t-181 -62q-105 0 -150.5 40.5t-44.5 97.5zM325 553q73 0 129 56q13 82 -3.5 116t-68.5 34
q-54 0 -86 -29.5t-41 -78.5q-18 -98 70 -98z" />
    <glyph glyph-name="Euro" unicode="&#x20ac;" horiz-adv-x="712" 
d="M617 150q-53 -163 -257 -163q-135 0 -191 60t-52 184h-82l13 75h76q4 36 8 54l4 26h-74l13 75h79q37 131 109.5 192.5t206.5 61.5q114 0 167.5 -49t49.5 -139l-117 -6q-2 83 -96 83q-65 0 -107.5 -35.5t-69.5 -107.5h227l-13 -75h-235q-1 -5 -9 -46l-6 -34h236l-13 -75
h-229q-1 -69 25 -101t87 -32q50 0 86.5 21t51.5 57z" />
    <glyph glyph-name="uni20BD" unicode="&#x20bd;" horiz-adv-x="746" 
d="M82 0l25 145h-91l15 87h92l12 71h-91l17 99l92 -1l55 313h228q181 0 247 -46t44 -170q-20 -117 -96.5 -156t-258.5 -39h-97l-12 -71h180l-16 -87h-180l-25 -145h-140zM331 616l-38 -215h105q81 0 128.5 24.5t59.5 92.5q11 61 -24 79.5t-118 18.5h-113z" />
    <glyph glyph-name="uni2116" unicode="&#x2116;" horiz-adv-x="1367" 
d="M1279 479q-20 -113 -78 -169t-179 -56q-127 0 -169.5 62.5t-21.5 181.5q20 113 78 169t179 57q127 1 170 -62t21 -183zM48 0l129 717h143l248 -530l93 530h119l-126 -717h-144l-249 531l-94 -531h-119zM949 479q-13 -74 2.5 -104.5t69.5 -30.5q61 0 94 36.5t47 117.5
q12 73 -3.5 104t-69.5 31q-61 0 -93.5 -37t-46.5 -117zM759 73l20 108h446l-20 -108h-446z" />
    <glyph glyph-name="uni2117" unicode="&#x2117;" horiz-adv-x="886" 
d="M836 338q-14 -79 -44 -143t-81 -117t-131 -82.5t-182 -29.5q-84 0 -147 20.5t-100 57t-58.5 86t-22 107.5t8.5 121q14 78 45 143.5t82 119t130 84t180 30.5q71 0 128 -15t93.5 -41.5t62 -63.5t35 -81t11 -94t-9.5 -102zM152 338q-53 -306 240 -306q87 0 154.5 26
t110.5 73t68.5 103t37.5 124q14 61 7 117t-29.5 99t-78.5 69t-140 26q-86 0 -153.5 -27t-110.5 -74.5t-68.5 -104.5t-37.5 -125zM268 137l75 426h173q94 0 129.5 -35.5t20.5 -124.5q-14 -86 -56.5 -113.5t-141.5 -27.5h-88l-22 -125h-90zM420 490l-27 -155h74q47 0 74 17.5
t36 69.5q8 45 -9.5 56.5t-64.5 11.5h-83z" />
    <glyph glyph-name="uni2120" unicode="&#x2120;" horiz-adv-x="905" 
d="M185 476q-2 -28 10.5 -38.5t41.5 -11.5q78 0 88 55q4 21 -15 31.5t-48.5 16t-58 14.5t-45 34.5t-9.5 67.5q16 90 144 90q72 -1 101.5 -26t25.5 -72l-68 -1q1 22 -9 31.5t-41 10.5q-73 0 -83 -55q-3 -19 16.5 -29.5t49 -16.5t58.5 -15t46 -33.5t10 -64.5q-17 -95 -152 -94
q-74 0 -105.5 26.5t-25.5 81.5zM437 378l62 349h105l37 -289l141 289h109l-61 -349h-70l56 278l-146 -278h-75l-45 291l-45 -291h-68z" />
    <glyph glyph-name="trademark" unicode="&#x2122;" horiz-adv-x="867" 
d="M184 379l49 282h-101l12 66h277l-11 -66h-102l-49 -282h-75zM392 378l62 349h106l37 -290l141 290h109l-62 -349h-69l54 275l-144 -275h-76l-45 290l-44 -290h-69z" />
    <glyph glyph-name="oneeighth" unicode="&#x215b;" horiz-adv-x="1206" 
d="M128 -40l647 808h115l-647 -808h-115zM79 227l72 421l-102 -40l17 102l149 57h69l-95 -540h-110zM886 -10q-124 0 -169.5 44t-30.5 126q11 62 49 94.5t70 35.5q-7 1 -17.5 8.5t-22 21t-17.5 37.5t-1 52q12 67 63 104t157 37q212 0 184 -160q-9 -48 -40 -73.5t-57 -27.5
q27 -3 55 -42.5t16 -105.5q-13 -74 -67.5 -112.5t-171.5 -38.5zM971 473q-98 0 -115 -94q-5 -29 11 -44t59 -15q98 0 112 78q7 39 -9 57t-58 18zM932 251q-108 0 -125 -96q-14 -79 76 -79q107 0 125 98q6 38 -10.5 57.5t-65.5 19.5z" />
    <glyph glyph-name="threeeighths" unicode="&#x215c;" horiz-adv-x="1389" 
d="M311 -40l647 808h115l-647 -808h-115zM330 563q143 -30 117 -179q-13 -73 -68 -120t-164 -47q-103 0 -146.5 43t-40.5 112l110 6q2 -65 74 -65q51 0 82 27t38 72q8 42 -13 66t-78 24q-17 0 -34 -2t-25 -4l-9 -2l8 66q1 0 164 110l-246 -7l18 99h388l-16 -88zM1069 -10
q-124 0 -169.5 44t-30.5 126q11 62 49 94.5t70 35.5q-7 1 -17.5 8.5t-22 21t-17.5 37.5t-1 52q12 67 63 104t157 37q212 0 184 -160q-9 -48 -40 -73.5t-57 -27.5q27 -3 55 -42.5t16 -105.5q-13 -74 -67.5 -112.5t-171.5 -38.5zM1154 473q-98 0 -115 -94q-5 -29 11 -44
t59 -15q98 0 112 78q7 39 -9 57t-58 18zM1115 251q-108 0 -125 -96q-14 -79 76 -79q107 0 125 98q6 38 -10.5 57.5t-65.5 19.5z" />
    <glyph glyph-name="fiveeighths" unicode="&#x215d;" horiz-adv-x="1408" 
d="M330 -40l647 808h115l-647 -808h-115zM249 674l-42 -122q43 29 110 29q95 0 131.5 -54.5t21.5 -135.5q-13 -78 -69 -126t-165 -48q-104 0 -151 40.5t-47 98.5l116 6q6 -54 81 -54q51 0 82 27.5t40 74.5q8 41 -9.5 65.5t-60.5 24.5q-32 0 -59 -10t-38 -18.5t-15 -13.5
h-108l100 304h338l-18 -93zM1088 -10q-124 0 -169.5 44t-30.5 126q11 62 49 94.5t70 35.5q-7 1 -17.5 8.5t-22 21t-17.5 37.5t-1 52q12 67 63 104t157 37q212 0 184 -160q-9 -48 -40 -73.5t-57 -27.5q27 -3 55 -42.5t16 -105.5q-13 -74 -67.5 -112.5t-171.5 -38.5zM1173 473
q-98 0 -115 -94q-5 -29 11 -44t59 -15q98 0 112 78q7 39 -9 57t-58 18zM1134 251q-108 0 -125 -96q-14 -79 76 -79q107 0 125 98q6 38 -10.5 57.5t-65.5 19.5z" />
    <glyph glyph-name="seveneighths" unicode="&#x215e;" horiz-adv-x="1278" 
d="M200 -40l647 808h115l-647 -808h-115zM80 226q12 67 43 137.5t66 123.5t69 96.5t56 66.5l22 23l-272 -8l17 98h397l-17 -93q-9 -9 -24.5 -25.5t-56.5 -67t-74.5 -100.5t-66 -119.5t-43.5 -131.5h-116zM958 -10q-124 0 -169.5 44t-30.5 126q11 62 49 94.5t70 35.5
q-7 1 -17.5 8.5t-22 21t-17.5 37.5t-1 52q12 67 63 104t157 37q212 0 184 -160q-9 -48 -40 -73.5t-57 -27.5q27 -3 55 -42.5t16 -105.5q-13 -74 -67.5 -112.5t-171.5 -38.5zM1043 473q-98 0 -115 -94q-5 -29 11 -44t59 -15q98 0 112 78q7 39 -9 57t-58 18zM1004 251
q-108 0 -125 -96q-14 -79 76 -79q107 0 125 98q6 38 -10.5 57.5t-65.5 19.5z" />
    <glyph glyph-name="arrowleft" unicode="&#x2190;" horiz-adv-x="741" 
d="M678 216l-433 18l182 -151l-74 -81l-274 239v86l274 240l74 -82l-182 -151l433 19v-137z" />
    <glyph glyph-name="arrowup" unicode="&#x2191;" horiz-adv-x="681" 
d="M271 -7l19 433l-151 -182l-81 73l239 275h86l240 -275l-82 -73l-151 181l19 -432h-138z" />
    <glyph glyph-name="arrowright" unicode="&#x2192;" horiz-adv-x="741" 
d="M63 352l431 -19l-181 151l73 81l275 -239v-86l-275 -240l-73 83l181 150l-431 -18v137z" />
    <glyph glyph-name="arrowdown" unicode="&#x2193;" horiz-adv-x="670" 
d="M404 578l-19 -432l151 181l81 -73l-239 -275h-86l-240 275l82 73l150 -181l-18 432h138z" />
    <glyph glyph-name="arrowboth" unicode="&#x2194;" horiz-adv-x="1028" 
d="M676 558l273 -240v-86l-273 -240l-73 83l174 145l-527 -3l178 -146l-74 -83l-275 240v87l275 239l73 -82l-181 -150l539 1l-182 153z" />
    <glyph glyph-name="arrowupdn" unicode="&#x2195;" horiz-adv-x="684" 
d="M387 -165h-86l-239 272l82 74l144 -174l-1 528l-147 -177l-82 73l239 276h86l240 -276l-82 -73l-146 176l1 -530l149 176l81 -73z" />
    <glyph glyph-name="uni2196" unicode="&#x2196;" horiz-adv-x="637" 
d="M483 32l-293 318l22 -234l-110 -6l-25 364l61 61l364 -25l-6 -109l-236 22l320 -294z" />
    <glyph glyph-name="uni2197" unicode="&#x2197;" horiz-adv-x="637" 
d="M57 131l320 294l-236 -22l-6 109l364 25l61 -61l-26 -364l-109 7l21 234l-292 -318z" />
    <glyph glyph-name="uni2198" unicode="&#x2198;" horiz-adv-x="637" 
d="M155 543l291 -319l-21 235l109 6l26 -364l-61 -61l-364 25l6 110l234 -22l-318 293z" />
    <glyph glyph-name="uni2199" unicode="&#x2199;" horiz-adv-x="637" 
d="M580 445l-319 -292l235 22l6 -110l-363 -24l-62 60l25 364l110 -6l-22 -235l293 318z" />
    <glyph glyph-name="minus" unicode="&#x2212;" horiz-adv-x="518" 
d="M59 274l16 95h403l-17 -95h-402z" />
    <glyph glyph-name="infinity" unicode="&#x221e;" horiz-adv-x="886" 
d="M226 125q-96 0 -136 50t-24 139q30 168 214 169q63 0 102 -31.5t73 -87.5q54 57 104 88t113 31q95 -1 135 -51t25 -138q-30 -169 -216 -169q-62 0 -101 31t-73 87q-53 -56 -103 -87t-113 -31zM156 294q-15 -86 78 -86q45 0 84.5 26t85.5 75q-27 44 -56 67.5t-71 23.5
q-49 0 -81 -29.5t-40 -76.5zM741 314q16 85 -79 86q-46 0 -84.5 -26t-84.5 -76q26 -43 55 -66.5t72 -23.5q49 0 81 29.5t40 76.5z" />
    <glyph glyph-name="approxequal" unicode="&#x2248;" horiz-adv-x="651" 
d="M91 340q13 73 50 115t114 42q53 0 104.5 -27.5t85.5 -27.5q39 0 64 21.5t28 38.5l74 -10q-14 -73 -51 -115t-113 -42q-53 0 -105 27.5t-86 27.5q-39 0 -63.5 -21t-26.5 -38zM57 145q13 73 50 115t114 42q53 0 104 -27.5t86 -27.5q39 0 63.5 21.5t27.5 38.5l74 -10
q-13 -73 -50 -115t-114 -42q-52 0 -104 28t-86 28q-39 0 -63.5 -22t-27.5 -39z" />
    <glyph glyph-name="notequal" unicode="&#x2260;" horiz-adv-x="605" 
d="M85 91l68 89h-87l17 95h143l53 70h-184l17 95h240l63 82h90l-63 -82h112l-17 -95h-168l-54 -70h210l-17 -95h-266l-68 -89h-89z" />
    <glyph glyph-name="lessequal" unicode="&#x2264;" horiz-adv-x="617" 
d="M503 190l-402 135l21 119l448 126l-18 -105l-350 -82l319 -88zM54 73l17 96h429l-17 -96h-429z" />
    <glyph glyph-name="greaterequal" unicode="&#x2265;" horiz-adv-x="617" 
d="M85 190l18 105l350 89l-319 81l17 105l405 -126l-20 -119zM64 73l17 96h429l-17 -96h-429z" />
    <glyph glyph-name="uni2661" unicode="&#x2661;" horiz-adv-x="836" 
d="M628 617q77 0 122 -53.5t29 -144.5q-11 -66 -57.5 -134.5t-104 -119.5t-115 -93t-95 -64t-40.5 -22t-32 23t-71.5 67t-81.5 97.5t-60.5 125t-8.5 139.5q16 84 73 131.5t127 47.5q30 0 56.5 -7.5t43 -18.5t29 -22t18.5 -18.5t7 -7.5l7 7q8 8 22 19t32 22t45 18.5t55 7.5z
M628 394q8 43 -11 65t-50 22t-60 -16t-43 -32l-13 -16l-14 3q-1 2 -2.5 6.5t-7.5 15t-13.5 18.5t-21.5 14.5t-30 6.5q-38 0 -71 -28t-42 -79q-8 -40 12.5 -85t49.5 -75t55 -54l27 -23l19 13q18 12 41 29t52 42.5t54 52t44.5 58.5t24.5 62z" />
    <glyph glyph-name="i.loclTRK" horiz-adv-x="320" 
d="M155 631l24 138h139l-25 -138h-138zM43 0l96 543h137l-95 -543h-138z" />
    <glyph glyph-name="a.sc" horiz-adv-x="661" 
d="M-21 0l332 592h154l119 -592h-142l-16 112h-247l-56 -112h-144zM228 210h184l-41 286z" />
    <glyph glyph-name="aacute.sc" horiz-adv-x="661" 
d="M339 676l117 162h145l-135 -162h-127zM-21 0l332 592h154l119 -592h-142l-16 112h-247l-56 -112h-144zM228 210h184l-41 286z" />
    <glyph glyph-name="abreve.sc" horiz-adv-x="661" 
d="M608 820q-9 -55 -59 -101t-137 -46q-94 0 -132.5 46.5t-28.5 100.5h103q-4 -21 13.5 -41t44.5 -20q34 0 58.5 19.5t27.5 41.5h110zM-21 0l332 592h154l119 -592h-142l-16 112h-247l-56 -112h-144zM228 210h184l-41 286z" />
    <glyph glyph-name="acircumflex.sc" horiz-adv-x="661" 
d="M590 675h-122l-52 77l-80 -77h-127l153 159h128zM-21 0l332 592h154l119 -592h-142l-16 112h-247l-56 -112h-144zM228 210h184l-41 286z" />
    <glyph glyph-name="adieresis.sc" horiz-adv-x="661" 
d="M236 675l26 143h127l-26 -143h-127zM441 675l26 143h127l-25 -143h-128zM-21 0l332 592h154l119 -592h-142l-16 112h-247l-56 -112h-144zM228 210h184l-41 286z" />
    <glyph glyph-name="uni1EA1.sc" horiz-adv-x="661" 
d="M-21 0l332 592h154l119 -592h-142l-16 112h-247l-56 -112h-144zM228 210h184l-41 286zM178 -194l23 132h137l-23 -132h-137z" />
    <glyph glyph-name="agrave.sc" horiz-adv-x="661" 
d="M459 676h-121l-79 162h140zM-21 0l332 592h154l119 -592h-142l-16 112h-247l-56 -112h-144zM228 210h184l-41 286z" />
    <glyph glyph-name="amacron.sc" horiz-adv-x="661" 
d="M273 787h300l-16 -87h-299zM-21 0l332 592h154l119 -592h-142l-16 112h-247l-56 -112h-144zM228 210h184l-41 286z" />
    <glyph glyph-name="aogonek.sc" horiz-adv-x="661" 
d="M330 -113q12 68 111 118l-15 107h-247l-56 -112h-144l332 592h154l119 -592h-31q-10 -5 -24.5 -14t-41 -35.5t-31.5 -52.5q-3 -28 24 -28q13 0 27 4t22 8l8 4l-8 -67q-29 -30 -98 -30q-62 0 -85.5 28.5t-15.5 69.5zM228 210h184l-41 286z" />
    <glyph glyph-name="aring.sc" horiz-adv-x="661" 
d="M535 762q-8 -49 -41 -73.5t-85 -24.5q-57 0 -85.5 31t-18.5 86q8 47 41 72t84 25q58 0 86.5 -31t18.5 -85zM383 765q-6 -32 26 -32q19 0 32 12.5t16 31.5q6 31 -26 31q-19 0 -32 -12t-16 -31zM-21 0l332 592h154l119 -592h-142l-16 112h-247l-56 -112h-144zM228 210h184
l-41 286z" />
    <glyph glyph-name="aringacute.sc" horiz-adv-x="661" 
d="M386 914l117 162h145l-135 -162h-127zM535 762q-8 -49 -41 -73.5t-85 -24.5q-57 0 -85.5 31t-18.5 86q8 47 41 72t84 25q58 0 86.5 -31t18.5 -85zM383 765q-6 -32 26 -32q19 0 32 12.5t16 31.5q6 31 -26 31q-19 0 -32 -12t-16 -31zM-21 0l332 592h154l119 -592h-142
l-16 112h-247l-56 -112h-144zM228 210h184l-41 286z" />
    <glyph glyph-name="atilde.sc" horiz-adv-x="661" 
d="M608 817q-12 -68 -38.5 -104.5t-82.5 -36.5q-34 0 -57.5 12.5t-39.5 25t-34 12.5q-27 0 -44 -19t-19 -34l-69 10q12 67 38.5 103t82.5 36q27 0 48 -7.5t31 -17t23.5 -17t28.5 -7.5q26 0 43.5 19.5t19.5 34.5zM-21 0l332 592h154l119 -592h-142l-16 112h-247l-56 -112
h-144zM228 210h184l-41 286z" />
    <glyph glyph-name="ae.sc" horiz-adv-x="901" 
d="M-21 0l418 592h511l-18 -104h-296l-25 -139h252l-16 -93h-252l-27 -151h302l-18 -105h-434l21 120h-189l-80 -120h-149zM415 221l49 280l-188 -280h139z" />
    <glyph glyph-name="aeacute.sc" horiz-adv-x="901" 
d="M437 676l117 162h145l-135 -162h-127zM-21 0l418 592h511l-18 -104h-296l-25 -139h252l-16 -93h-252l-27 -151h302l-18 -105h-434l21 120h-189l-80 -120h-149zM415 221l49 280l-188 -280h139z" />
    <glyph glyph-name="b.sc" horiz-adv-x="636" 
d="M139 594h223q147 0 197 -38.5t34 -125.5q-18 -95 -104 -127q92 -37 73 -147q-11 -63 -35 -94t-85 -47t-177 -16h-231zM254 503l-28 -159h111q60 0 90.5 21.5t38.5 67.5q7 41 -16 55.5t-93 14.5h-103zM212 265l-31 -175h94q82 0 117.5 21t45.5 74q7 45 -17 62.5t-90 17.5
h-119z" />
    <glyph glyph-name="ordfeminine.sc" horiz-adv-x="445" 
d="M116 553q29 93 158 93q49 0 81 -10t48 -25t21 -42t3.5 -51t-8.5 -62l-12 -70l-11 -93h-88l-2 25q-50 -36 -114 -36q-141 0 -120 120q10 58 50 81.5t108 23.5q57 0 99 -6q9 43 1 60t-45 17q-70 0 -86 -47zM214 353q59 0 96 39l8 51q-26 4 -51 4q-87 0 -98 -59
q-3 -16 7 -25.5t38 -9.5z" />
    <glyph glyph-name="ordmasculine.sc" horiz-adv-x="445" 
d="M431 456q-16 -88 -61 -130.5t-137 -42.5q-98 0 -132 48.5t-18 143.5q16 88 61 130.5t137 42.5q98 0 132.5 -49t17.5 -143zM179 456q-9 -54 2 -75.5t49 -21.5q45 0 69.5 27.5t35.5 88.5q9 54 -1.5 75.5t-49.5 21.5q-45 0 -69.5 -28t-35.5 -88z" />
    <glyph glyph-name="c.sc" horiz-adv-x="640" 
d="M567 179q-29 -106 -96.5 -150.5t-182.5 -44.5q-145 0 -199 77.5t-25 244.5q28 161 103 232t214 71q120 0 177 -50.5t48 -157.5l-129 -10q4 60 -19.5 81.5t-79.5 21.5q-76 0 -119.5 -48t-63.5 -159q-18 -105 4 -146.5t92 -41.5q61 0 97.5 23.5t55.5 83.5z" />
    <glyph glyph-name="cacute.sc" horiz-adv-x="640" 
d="M339 682l117 162h145l-135 -162h-127zM567 179q-29 -106 -96.5 -150.5t-182.5 -44.5q-145 0 -199 77.5t-25 244.5q28 161 103 232t214 71q120 0 177 -50.5t48 -157.5l-129 -10q4 60 -19.5 81.5t-79.5 21.5q-76 0 -119.5 -48t-63.5 -159q-18 -105 4 -146.5t92 -41.5
q61 0 97.5 23.5t55.5 83.5z" />
    <glyph glyph-name="ccaron.sc" horiz-adv-x="640" 
d="M621 840l-156 -159h-128l-93 159h116l53 -73l79 73h129zM567 179q-29 -106 -96.5 -150.5t-182.5 -44.5q-145 0 -199 77.5t-25 244.5q28 161 103 232t214 71q120 0 177 -50.5t48 -157.5l-129 -10q4 60 -19.5 81.5t-79.5 21.5q-76 0 -119.5 -48t-63.5 -159
q-18 -105 4 -146.5t92 -41.5q61 0 97.5 23.5t55.5 83.5z" />
    <glyph glyph-name="ccedilla.sc" horiz-adv-x="640" 
d="M385 -163q-9 -48 -46.5 -69.5t-126.5 -21.5q-28 0 -51.5 3t-32.5 5l-9 3l6 62q11 -2 45 -3q79 -1 88 52q4 23 -15.5 30.5t-62.5 7.5h-10l56 82q-109 15 -148.5 92.5t-13.5 225.5q28 161 103 232t214 71q120 0 177 -50.5t48 -157.5l-129 -10q4 60 -19.5 81.5t-79.5 21.5
q-76 0 -119.5 -48t-63.5 -159q-18 -105 4 -146.5t92 -41.5q61 0 97.5 23.5t55.5 83.5l123 -27q-26 -93 -80.5 -138t-144.5 -54l-35 -52q40 -4 63 -28.5t15 -69.5z" />
    <glyph glyph-name="ccircumflex.sc" horiz-adv-x="640" 
d="M590 681h-122l-52 77l-80 -77h-127l153 159h128zM567 179q-29 -106 -96.5 -150.5t-182.5 -44.5q-145 0 -199 77.5t-25 244.5q28 161 103 232t214 71q120 0 177 -50.5t48 -157.5l-129 -10q4 60 -19.5 81.5t-79.5 21.5q-76 0 -119.5 -48t-63.5 -159q-18 -105 4 -146.5
t92 -41.5q61 0 97.5 23.5t55.5 83.5z" />
    <glyph glyph-name="cdotaccent.sc" horiz-adv-x="640" 
d="M335 686l24 138h139l-25 -138h-138zM567 179q-29 -106 -96.5 -150.5t-182.5 -44.5q-145 0 -199 77.5t-25 244.5q28 161 103 232t214 71q120 0 177 -50.5t48 -157.5l-129 -10q4 60 -19.5 81.5t-79.5 21.5q-76 0 -119.5 -48t-63.5 -159q-18 -105 4 -146.5t92 -41.5
q61 0 97.5 23.5t55.5 83.5z" />
    <glyph glyph-name="d.sc" horiz-adv-x="659" 
d="M139 594h199q130 0 194.5 -33.5t76 -102t-6.5 -172.5q-15 -81 -34.5 -130t-59 -87t-103.5 -54t-163 -16h-208zM253 485l-66 -378h92q84 -1 127 43t63 156q18 104 -6.5 141t-108.5 37z" />
    <glyph glyph-name="eth.sc" horiz-adv-x="659" 
d="M80 259h-63l10 76h66l46 259h199q130 0 194.5 -33.5t76 -102t-6.5 -172.5q-15 -81 -34.5 -130t-59 -87t-103.5 -54t-163 -16h-208zM214 259l-27 -152h92q84 -1 127 43t63 156q18 104 -6.5 141t-108.5 37l-100 1l-27 -150h97l-10 -76h-100z" />
    <glyph glyph-name="dcaron.sc" horiz-adv-x="659" 
d="M602 834l-156 -159h-128l-93 159h116l53 -73l79 73h129zM139 594h199q130 0 194.5 -33.5t76 -102t-6.5 -172.5q-15 -81 -34.5 -130t-59 -87t-103.5 -54t-163 -16h-208zM253 485l-66 -378h92q84 -1 127 43t63 156q18 104 -6.5 141t-108.5 37z" />
    <glyph glyph-name="dcroat.sc" horiz-adv-x="659" 
d="M80 259h-63l10 76h66l46 259h199q130 0 194.5 -33.5t76 -102t-6.5 -172.5q-15 -81 -34.5 -130t-59 -87t-103.5 -54t-163 -16h-208zM214 259l-27 -152h92q84 -1 127 43t63 156q18 104 -6.5 141t-108.5 37l-100 1l-27 -150h97l-10 -76h-100z" />
    <glyph glyph-name="e.sc" horiz-adv-x="559" 
d="M34 0l104 592h428l-18 -104h-298l-24 -137h254l-18 -97h-253l-26 -149h303l-18 -105h-434z" />
    <glyph glyph-name="eacute.sc" horiz-adv-x="559" 
d="M300 676l117 162h145l-135 -162h-127zM34 0l104 592h428l-18 -104h-298l-24 -137h254l-18 -97h-253l-26 -149h303l-18 -105h-434z" />
    <glyph glyph-name="ebreve.sc" horiz-adv-x="559" 
d="M569 820q-9 -55 -59 -101t-137 -46q-94 0 -132.5 46.5t-28.5 100.5h103q-4 -21 13.5 -41t44.5 -20q34 0 58.5 19.5t27.5 41.5h110zM34 0l104 592h428l-18 -104h-298l-24 -137h254l-18 -97h-253l-26 -149h303l-18 -105h-434z" />
    <glyph glyph-name="ecaron.sc" horiz-adv-x="559" 
d="M582 834l-156 -159h-128l-93 159h116l53 -73l79 73h129zM34 0l104 592h428l-18 -104h-298l-24 -137h254l-18 -97h-253l-26 -149h303l-18 -105h-434z" />
    <glyph glyph-name="ecircumflex.sc" horiz-adv-x="559" 
d="M551 675h-122l-52 77l-80 -77h-127l153 159h128zM34 0l104 592h428l-18 -104h-298l-24 -137h254l-18 -97h-253l-26 -149h303l-18 -105h-434z" />
    <glyph glyph-name="edieresis.sc" horiz-adv-x="559" 
d="M197 675l26 143h127l-26 -143h-127zM402 675l26 143h127l-25 -143h-128zM34 0l104 592h428l-18 -104h-298l-24 -137h254l-18 -97h-253l-26 -149h303l-18 -105h-434z" />
    <glyph glyph-name="edotaccent.sc" horiz-adv-x="559" 
d="M296 680l24 138h139l-25 -138h-138zM34 0l104 592h428l-18 -104h-298l-24 -137h254l-18 -97h-253l-26 -149h303l-18 -105h-434z" />
    <glyph glyph-name="uni1EB9.sc" horiz-adv-x="559" 
d="M34 0l104 592h428l-18 -104h-298l-24 -137h254l-18 -97h-253l-26 -149h303l-18 -105h-434zM149 -193l23 132h137l-23 -132h-137z" />
    <glyph glyph-name="egrave.sc" horiz-adv-x="559" 
d="M420 676h-121l-79 162h140zM34 0l104 592h428l-18 -104h-298l-24 -137h254l-18 -97h-253l-26 -149h303l-18 -105h-434z" />
    <glyph glyph-name="emacron.sc" horiz-adv-x="559" 
d="M234 787h300l-16 -87h-299zM34 0l104 592h428l-18 -104h-298l-24 -137h254l-18 -97h-253l-26 -149h303l-18 -105h-434z" />
    <glyph glyph-name="eogonek.sc" horiz-adv-x="559" 
d="M245 -113q7 38 38 67t63 46h-312l104 592h428l-18 -104h-298l-24 -137h254l-18 -97h-253l-26 -149h303l-18 -105q-10 -5 -24.5 -14t-41 -35.5t-31.5 -52.5q-3 -28 24 -28q13 0 27 4t22 8l8 4l-8 -67q-29 -30 -98 -30q-62 0 -85.5 28.5t-15.5 69.5z" />
    <glyph glyph-name="uni1EBD.sc" horiz-adv-x="559" 
d="M569 817q-12 -68 -38.5 -104.5t-82.5 -36.5q-34 0 -57.5 12.5t-39.5 25t-34 12.5q-27 0 -44 -19t-19 -34l-69 10q12 67 38.5 103t82.5 36q27 0 48 -7.5t31 -17t23.5 -17t28.5 -7.5q26 0 43.5 19.5t19.5 34.5zM34 0l104 592h428l-18 -104h-298l-24 -137h254l-18 -97h-253
l-26 -149h303l-18 -105h-434z" />
    <glyph glyph-name="uni0259.sc" horiz-adv-x="674" 
d="M113 435q35 92 104 133t180 41q147 0 201 -77t24 -245q-28 -161 -103 -232t-215 -71q-147 0 -200 78.5t-22 252.5h409q17 97 -5.5 138.5t-91.5 41.5q-109 0 -153 -92zM307 99q63 0 103.5 33t62.5 105h-268q-5 -76 19 -107t83 -31z" />
    <glyph glyph-name="f.sc" horiz-adv-x="531" 
d="M34 0l104 592h419l-19 -104h-287l-28 -156h243l-17 -99h-243l-41 -233h-131z" />
    <glyph glyph-name="g.sc" horiz-adv-x="644" 
d="M545 77q-1 -3 -10.5 -12t-31 -23t-50 -27t-72 -22t-92.5 -9q-145 -1 -199.5 76.5t-24.5 244.5q28 161 103 232.5t214 71.5q118 0 173.5 -49.5t47.5 -147.5l-127 -9q4 46 -21 68.5t-77 22.5q-75 0 -118.5 -48.5t-63.5 -159.5q-18 -107 5 -150t94 -43q58 0 98.5 16.5
t42.5 31.5l14 83h-103l13 76h224z" />
    <glyph glyph-name="gbreve.sc" horiz-adv-x="644" 
d="M606 826q-9 -55 -59 -101t-137 -46q-94 0 -132.5 46.5t-28.5 100.5h103q-4 -21 13.5 -41t44.5 -20q34 0 58.5 19.5t27.5 41.5h110zM545 77q-1 -3 -10.5 -12t-31 -23t-50 -27t-72 -22t-92.5 -9q-145 -1 -199.5 76.5t-24.5 244.5q28 161 103 232.5t214 71.5
q118 0 173.5 -49.5t47.5 -147.5l-127 -9q4 46 -21 68.5t-77 22.5q-75 0 -118.5 -48.5t-63.5 -159.5q-18 -107 5 -150t94 -43q58 0 98.5 16.5t42.5 31.5l14 83h-103l13 76h224z" />
    <glyph glyph-name="gcaron.sc" horiz-adv-x="644" 
d="M619 840l-156 -159h-128l-93 159h116l53 -73l79 73h129zM545 77q-1 -3 -10.5 -12t-31 -23t-50 -27t-72 -22t-92.5 -9q-145 -1 -199.5 76.5t-24.5 244.5q28 161 103 232.5t214 71.5q118 0 173.5 -49.5t47.5 -147.5l-127 -9q4 46 -21 68.5t-77 22.5q-75 0 -118.5 -48.5
t-63.5 -159.5q-18 -107 5 -150t94 -43q58 0 98.5 16.5t42.5 31.5l14 83h-103l13 76h224z" />
    <glyph glyph-name="gcircumflex.sc" horiz-adv-x="644" 
d="M588 681h-122l-52 77l-80 -77h-127l153 159h128zM545 77q-1 -3 -10.5 -12t-31 -23t-50 -27t-72 -22t-92.5 -9q-145 -1 -199.5 76.5t-24.5 244.5q28 161 103 232.5t214 71.5q118 0 173.5 -49.5t47.5 -147.5l-127 -9q4 46 -21 68.5t-77 22.5q-75 0 -118.5 -48.5
t-63.5 -159.5q-18 -107 5 -150t94 -43q58 0 98.5 16.5t42.5 31.5l14 83h-103l13 76h224z" />
    <glyph glyph-name="gcommaaccent.sc" horiz-adv-x="644" 
d="M545 77q-1 -3 -10.5 -12t-31 -23t-50 -27t-72 -22t-92.5 -9q-145 -1 -199.5 76.5t-24.5 244.5q28 161 103 232.5t214 71.5q118 0 173.5 -49.5t47.5 -147.5l-127 -9q4 46 -21 68.5t-77 22.5q-75 0 -118.5 -48.5t-63.5 -159.5q-18 -107 5 -150t94 -43q58 0 98.5 16.5
t42.5 31.5l14 83h-103l13 76h224zM145 -284q28 52 57 123q11 26 20.5 52.5t13.5 40.5l3 13h122q-16 -69 -52 -136q-17 -32 -34 -55t-25 -30l-8 -8h-97z" />
    <glyph glyph-name="gdotaccent.sc" horiz-adv-x="644" 
d="M333 686l24 138h139l-25 -138h-138zM545 77q-1 -3 -10.5 -12t-31 -23t-50 -27t-72 -22t-92.5 -9q-145 -1 -199.5 76.5t-24.5 244.5q28 161 103 232.5t214 71.5q118 0 173.5 -49.5t47.5 -147.5l-127 -9q4 46 -21 68.5t-77 22.5q-75 0 -118.5 -48.5t-63.5 -159.5
q-18 -107 5 -150t94 -43q58 0 98.5 16.5t42.5 31.5l14 83h-103l13 76h224z" />
    <glyph glyph-name="h.sc" horiz-adv-x="665" 
d="M34 0l104 592h131l-41 -233h240l41 233h131l-104 -592h-131l43 249h-240l-43 -249h-131z" />
    <glyph glyph-name="hbar.sc" horiz-adv-x="665" 
d="M34 0l74 424h-67l10 73h70l17 95h131l-17 -95h240l17 95h131l-17 -95h73l-10 -73h-76l-74 -424h-131l43 249h-239l-44 -249h-131zM228 359h240l11 65h-240z" />
    <glyph glyph-name="hcircumflex.sc" horiz-adv-x="665" 
d="M591 675h-122l-52 77l-80 -77h-127l153 159h128zM34 0l104 592h131l-41 -233h240l41 233h131l-104 -592h-131l43 249h-240l-43 -249h-131z" />
    <glyph glyph-name="i.sc" horiz-adv-x="294" 
d="M34 0l104 592h131l-104 -592h-131z" />
    <glyph glyph-name="iacute.sc" horiz-adv-x="294" 
d="M158 676l117 162h145l-135 -162h-127zM34 0l104 592h131l-104 -592h-131z" />
    <glyph glyph-name="ibreve.sc" horiz-adv-x="294" 
d="M427 820q-9 -55 -59 -101t-137 -46q-94 0 -132.5 46.5t-28.5 100.5h103q-4 -21 13.5 -41t44.5 -20q34 0 58.5 19.5t27.5 41.5h110zM34 0l104 592h131l-104 -592h-131z" />
    <glyph glyph-name="icircumflex.sc" horiz-adv-x="294" 
d="M409 675h-122l-52 77l-80 -77h-127l153 159h128zM34 0l104 592h131l-104 -592h-131z" />
    <glyph glyph-name="idieresis.sc" horiz-adv-x="294" 
d="M55 675l26 143h127l-26 -143h-127zM260 675l26 143h127l-25 -143h-128zM34 0l104 592h131l-104 -592h-131z" />
    <glyph glyph-name="i.sc.loclTRK" horiz-adv-x="294" 
d="M154 680l24 138h139l-25 -138h-138zM34 0l104 592h131l-104 -592h-131z" />
    <glyph glyph-name="uni1ECB.sc" horiz-adv-x="294" 
d="M34 0l104 592h131l-104 -592h-131zM-5 -198l23 132h137l-23 -132h-137z" />
    <glyph glyph-name="igrave.sc" horiz-adv-x="294" 
d="M278 676h-121l-79 162h140zM34 0l104 592h131l-104 -592h-131z" />
    <glyph glyph-name="ij.sc" horiz-adv-x="696" 
d="M34 0l104 592h131l-104 -592h-131zM618 250q-9 -52 -17 -84t-22.5 -63.5t-33 -48.5t-49 -30.5t-71 -18.5t-97.5 -5h-55l19 114h48q70 0 101.5 31t45.5 115l60 332h131z" />
    <glyph glyph-name="imacron.sc" horiz-adv-x="294" 
d="M92 787h300l-16 -87h-299zM34 0l104 592h131l-104 -592h-131z" />
    <glyph glyph-name="iogonek.sc" horiz-adv-x="294" 
d="M-77 -113q6 32 34 61.5t49 41.5t29 15l103 587h131l-104 -592h-19q-10 -5 -24.5 -14t-41 -35.5t-31.5 -52.5q-3 -28 24 -28q13 0 27 4t22 8l8 4l-8 -67q-29 -30 -98 -30q-62 0 -85.5 28.5t-15.5 69.5z" />
    <glyph glyph-name="itilde.sc" horiz-adv-x="294" 
d="M427 817q-12 -68 -38.5 -104.5t-82.5 -36.5q-34 0 -57.5 12.5t-39.5 25t-34 12.5q-27 0 -44 -19t-19 -34l-69 10q12 67 38.5 103t82.5 36q27 0 48 -7.5t31 -17t23.5 -17t28.5 -7.5q26 0 43.5 19.5t19.5 34.5zM34 0l104 592h131l-104 -592h-131z" />
    <glyph glyph-name="j.sc" horiz-adv-x="402" 
d="M324 250q-9 -52 -17 -84t-22.5 -63.5t-33 -48.5t-49 -30.5t-71 -18.5t-97.5 -5h-55l19 114h48q70 0 101.5 31t45.5 115l60 332h131z" />
    <glyph glyph-name="jcircumflex.sc" horiz-adv-x="402" 
d="M522 675h-122l-52 77l-80 -77h-127l153 159h128zM324 250q-9 -52 -17 -84t-22.5 -63.5t-33 -48.5t-49 -30.5t-71 -18.5t-97.5 -5h-55l19 114h48q70 0 101.5 31t45.5 115l60 332h131z" />
    <glyph glyph-name="k.sc" horiz-adv-x="638" 
d="M34 0l104 592h131l-54 -306l295 306h154l-246 -245l142 -347h-141l-101 247l-133 -133l-20 -114h-131z" />
    <glyph glyph-name="kcommaaccent.sc" horiz-adv-x="638" 
d="M34 0l104 592h131l-54 -306l295 306h154l-246 -245l142 -347h-141l-101 247l-133 -133l-20 -114h-131zM122 -267q28 52 57 123q11 26 20.5 52.5t12.5 39.5l4 14h122q-16 -69 -52 -136q-17 -32 -34 -55t-25 -31l-8 -7h-97z" />
    <glyph glyph-name="l.sc" horiz-adv-x="497" 
d="M34 0l104 592h131l-84 -474h254l-21 -118h-384z" />
    <glyph glyph-name="lacute.sc" horiz-adv-x="497" 
d="M160 676l117 162h145l-135 -162h-127zM34 0l104 592h131l-84 -474h254l-21 -118h-384z" />
    <glyph glyph-name="lcaron.sc" horiz-adv-x="497" 
d="M309 454l89 180h111l-118 -180h-82zM34 0l104 592h131l-84 -474h254l-21 -118h-384z" />
    <glyph glyph-name="lcommaaccent.sc" horiz-adv-x="497" 
d="M34 0l104 592h131l-84 -474h254l-21 -118h-384zM69 -273q28 52 57 123q11 26 20.5 52.5t13.5 39.5l3 14h122q-16 -69 -52 -136q-17 -32 -34 -55.5t-25 -30.5l-8 -7h-97z" />
    <glyph glyph-name="ldot.sc" horiz-adv-x="497" 
d="M57 0l104 592h131l-84 -474h254l-21 -118h-384zM287 240l24 142h140l-24 -142h-140z" />
    <glyph glyph-name="lslash.sc" horiz-adv-x="497" 
d="M34 0l40 230l-86 -41l-26 79l130 62l46 262h131l-34 -194l95 46l25 -79l-138 -66l-32 -181h254l-21 -118h-384z" />
    <glyph glyph-name="m.sc" horiz-adv-x="878" 
d="M34 0l104 592h187l81 -485l252 485h195l-105 -592h-127l93 464l-256 -464h-141l-87 475l-71 -475h-125z" />
    <glyph glyph-name="n.sc" horiz-adv-x="694" 
d="M229 458l-73 -458h-122l106 592h147l188 -453l71 453h123l-104 -592h-143z" />
    <glyph glyph-name="nacute.sc" horiz-adv-x="694" 
d="M354 676l117 162h145l-135 -162h-127zM229 458l-73 -458h-122l106 592h147l188 -453l71 453h123l-104 -592h-143z" />
    <glyph glyph-name="ncaron.sc" horiz-adv-x="694" 
d="M636 834l-156 -159h-128l-93 159h116l53 -73l79 73h129zM229 458l-73 -458h-122l106 592h147l188 -453l71 453h123l-104 -592h-143z" />
    <glyph glyph-name="ncommaaccent.sc" horiz-adv-x="694" 
d="M229 458l-73 -458h-122l106 592h147l188 -453l71 453h123l-104 -592h-143zM163 -267q28 52 57 123q11 26 20.5 52.5t13.5 39.5l3 14h122q-16 -69 -52 -136q-17 -32 -34 -55t-25 -31l-8 -7h-97z" />
    <glyph glyph-name="eng.sc" horiz-adv-x="693" 
d="M668 592l-104 -592h-47l47 -1q-8 -43 -21.5 -74t-39.5 -59t-72 -42.5t-111 -14.5h-50l17 100h42q107 0 124 91h-1v2l-226 424l-69 -426h-123l106 592h135l208 -398l63 398h122z" />
    <glyph glyph-name="uni0272.sc" horiz-adv-x="693" 
d="M230 451l-77 -451q-7 -45 -20.5 -76t-39 -58.5t-70 -41.5t-108.5 -14h-51l18 100h42q52 0 77 20.5t34 70.5l106 591h148l186 -438l70 438h123l-104 -592h-148z" />
    <glyph glyph-name="ntilde.sc" horiz-adv-x="694" 
d="M623 817q-12 -68 -38.5 -104.5t-82.5 -36.5q-34 0 -57.5 12.5t-39.5 25t-34 12.5q-27 0 -44 -19t-19 -34l-69 10q12 67 38.5 103t82.5 36q27 0 48 -7.5t31 -17t23.5 -17t28.5 -7.5q26 0 43.5 19.5t19.5 34.5zM229 458l-73 -458h-122l106 592h147l188 -453l71 453h123
l-104 -592h-143z" />
    <glyph glyph-name="o.sc" horiz-adv-x="665" 
d="M609 287q-28 -161 -104 -232t-215 -71q-146 0 -200.5 77t-25.5 245q28 161 103.5 232t215.5 71q146 0 201 -77.5t25 -244.5zM195 287q-18 -109 4 -152t93 -43q77 0 121 49t65 165q19 108 -3.5 151t-92.5 43q-78 0 -122 -49t-65 -164z" />
    <glyph glyph-name="oacute.sc" horiz-adv-x="665" 
d="M341 682l117 162h145l-135 -162h-127zM609 287q-28 -161 -104 -232t-215 -71q-146 0 -200.5 77t-25.5 245q28 161 103.5 232t215.5 71q146 0 201 -77.5t25 -244.5zM195 287q-18 -109 4 -152t93 -43q77 0 121 49t65 165q19 108 -3.5 151t-92.5 43q-78 0 -122 -49t-65 -164
z" />
    <glyph glyph-name="obreve.sc" horiz-adv-x="665" 
d="M610 826q-9 -55 -59 -101t-137 -46q-94 0 -132.5 46.5t-28.5 100.5h103q-4 -21 13.5 -41t44.5 -20q34 0 58.5 19.5t27.5 41.5h110zM609 287q-28 -161 -104 -232t-215 -71q-146 0 -200.5 77t-25.5 245q28 161 103.5 232t215.5 71q146 0 201 -77.5t25 -244.5zM195 287
q-18 -109 4 -152t93 -43q77 0 121 49t65 165q19 108 -3.5 151t-92.5 43q-78 0 -122 -49t-65 -164z" />
    <glyph glyph-name="ocircumflex.sc" horiz-adv-x="665" 
d="M592 681h-122l-52 77l-80 -77h-127l153 159h128zM609 287q-28 -161 -104 -232t-215 -71q-146 0 -200.5 77t-25.5 245q28 161 103.5 232t215.5 71q146 0 201 -77.5t25 -244.5zM195 287q-18 -109 4 -152t93 -43q77 0 121 49t65 165q19 108 -3.5 151t-92.5 43
q-78 0 -122 -49t-65 -164z" />
    <glyph glyph-name="odieresis.sc" horiz-adv-x="665" 
d="M238 681l26 143h127l-26 -143h-127zM443 681l26 143h127l-25 -143h-128zM609 287q-28 -161 -104 -232t-215 -71q-146 0 -200.5 77t-25.5 245q28 161 103.5 232t215.5 71q146 0 201 -77.5t25 -244.5zM195 287q-18 -109 4 -152t93 -43q77 0 121 49t65 165q19 108 -3.5 151
t-92.5 43q-78 0 -122 -49t-65 -164z" />
    <glyph glyph-name="uni1ECD.sc" horiz-adv-x="665" 
d="M609 287q-28 -161 -104 -232t-215 -71q-146 0 -200.5 77t-25.5 245q28 161 103.5 232t215.5 71q146 0 201 -77.5t25 -244.5zM195 287q-18 -109 4 -152t93 -43q77 0 121 49t65 165q19 108 -3.5 151t-92.5 43q-78 0 -122 -49t-65 -164zM181 -201l23 132h137l-23 -132h-137z
" />
    <glyph glyph-name="ograve.sc" horiz-adv-x="665" 
d="M461 682h-121l-79 162h140zM609 287q-28 -161 -104 -232t-215 -71q-146 0 -200.5 77t-25.5 245q28 161 103.5 232t215.5 71q146 0 201 -77.5t25 -244.5zM195 287q-18 -109 4 -152t93 -43q77 0 121 49t65 165q19 108 -3.5 151t-92.5 43q-78 0 -122 -49t-65 -164z" />
    <glyph glyph-name="ohungarumlaut.sc" horiz-adv-x="665" 
d="M225 682l113 162h144l-132 -162h-125zM416 682l132 162h144l-151 -162h-125zM609 287q-28 -161 -104 -232t-215 -71q-146 0 -200.5 77t-25.5 245q28 161 103.5 232t215.5 71q146 0 201 -77.5t25 -244.5zM195 287q-18 -109 4 -152t93 -43q77 0 121 49t65 165
q19 108 -3.5 151t-92.5 43q-78 0 -122 -49t-65 -164z" />
    <glyph glyph-name="omacron.sc" horiz-adv-x="665" 
d="M275 793h300l-16 -87h-299zM609 287q-28 -161 -104 -232t-215 -71q-146 0 -200.5 77t-25.5 245q28 161 103.5 232t215.5 71q146 0 201 -77.5t25 -244.5zM195 287q-18 -109 4 -152t93 -43q77 0 121 49t65 165q19 108 -3.5 151t-92.5 43q-78 0 -122 -49t-65 -164z" />
    <glyph glyph-name="uni01EB.sc" horiz-adv-x="665" 
d="M240 -86q6 36 42 70q-142 2 -194.5 79.5t-23.5 242.5q28 161 103.5 232t215.5 71q146 0 201 -77.5t25 -244.5q-20 -114 -63 -181.5t-113 -96.5q-59 -41 -67 -84q-3 -28 24 -28q13 0 27 4t22 8l8 4l-8 -67q-29 -30 -98 -30q-62 0 -85.5 28.5t-15.5 69.5zM195 287
q-18 -109 4 -152t93 -43q77 0 121 49t65 165q19 108 -3.5 151t-92.5 43q-78 0 -122 -49t-65 -164z" />
    <glyph glyph-name="oslash.sc" horiz-adv-x="665" 
d="M51 -18l50 64q-70 77 -37 260q28 161 103.5 232t215.5 71q83 0 135 -24l16 20h86l-47 -60q68 -76 36 -258q-28 -161 -104 -232t-215 -71q-79 0 -133 23l-19 -25h-87zM195 287q-14 -79 -5 -126l253 327q-24 12 -61 12q-78 0 -122 -49t-65 -164zM478 306q13 79 6 123
l-253 -326q22 -11 61 -11q77 0 121 49t65 165z" />
    <glyph glyph-name="oslashacute.sc" horiz-adv-x="665" 
d="M341 682l117 162h145l-135 -162h-127zM51 -18l50 64q-70 77 -37 260q28 161 103.5 232t215.5 71q83 0 135 -24l16 20h86l-47 -60q68 -76 36 -258q-28 -161 -104 -232t-215 -71q-79 0 -133 23l-19 -25h-87zM195 287q-14 -79 -5 -126l253 327q-24 12 -61 12q-78 0 -122 -49
t-65 -164zM478 306q13 79 6 123l-253 -326q22 -11 61 -11q77 0 121 49t65 165z" />
    <glyph glyph-name="otilde.sc" horiz-adv-x="665" 
d="M610 823q-12 -68 -38.5 -104.5t-82.5 -36.5q-34 0 -57.5 12.5t-39.5 25t-34 12.5q-27 0 -44 -19t-19 -34l-69 10q12 67 38.5 103t82.5 36q27 0 48 -7.5t31 -17t23.5 -17t28.5 -7.5q26 0 43.5 19.5t19.5 34.5zM609 287q-28 -161 -104 -232t-215 -71q-146 0 -200.5 77
t-25.5 245q28 161 103.5 232t215.5 71q146 0 201 -77.5t25 -244.5zM195 287q-18 -109 4 -152t93 -43q77 0 121 49t65 165q19 108 -3.5 151t-92.5 43q-78 0 -122 -49t-65 -164z" />
    <glyph glyph-name="oe.sc" horiz-adv-x="892" 
d="M287 0q-145 0 -198.5 70.5t-24.5 235.5q27 158 100.5 222t218.5 64h516l-18 -104h-297l-25 -139h253l-16 -93h-253l-27 -151h303l-18 -105h-514zM196 287q-18 -103 5.5 -143.5t96.5 -40.5h87l68 386h-78q-74 0 -117 -46.5t-62 -155.5z" />
    <glyph glyph-name="p.sc" horiz-adv-x="638" 
d="M34 0l104 594h205q168 0 227 -47t38 -171q-21 -118 -91 -159t-239 -41h-82l-31 -176h-131zM252 492l-38 -211h93q76 0 115.5 23t52.5 92q11 62 -17 79t-106 17h-100z" />
    <glyph glyph-name="thorn.sc" horiz-adv-x="623" 
d="M34 0l104 592h133l-15 -85h107q141 0 193.5 -47.5t29.5 -171.5q-20 -117 -83.5 -157t-208.5 -40h-112l-16 -91h-132zM237 402l-37 -207h100q68 0 106 23t50 90q10 61 -16 77.5t-96 16.5h-107z" />
    <glyph glyph-name="q.sc" horiz-adv-x="669" 
d="M609 287q-31 -178 -124 -249l75 -74l-97 -74l-84 103q-41 -9 -89 -9q-146 0 -200.5 77t-25.5 245q28 161 103.5 232t215.5 71q146 0 201 -77.5t25 -244.5zM195 287q-18 -109 4 -152t93 -43q77 0 121 49t65 165q19 108 -3.5 151t-92.5 43q-78 0 -122 -49t-65 -164z" />
    <glyph glyph-name="r.sc" horiz-adv-x="652" 
d="M34 0l104 594h241q147 0 201.5 -46t31.5 -168q-13 -77 -44.5 -117.5t-90.5 -57.5l71 -205h-139l-56 189h-155l-33 -189h-131zM251 488l-34 -195h95q79 0 118 21t50 86q10 58 -17 73t-108 15h-104z" />
    <glyph glyph-name="racute.sc" horiz-adv-x="652" 
d="M317 676l117 162h145l-135 -162h-127zM34 0l104 594h241q147 0 201.5 -46t31.5 -168q-13 -77 -44.5 -117.5t-90.5 -57.5l71 -205h-139l-56 189h-155l-33 -189h-131zM251 488l-34 -195h95q79 0 118 21t50 86q10 58 -17 73t-108 15h-104z" />
    <glyph glyph-name="rcaron.sc" horiz-adv-x="652" 
d="M599 834l-156 -159h-128l-93 159h116l53 -73l79 73h129zM34 0l104 594h241q147 0 201.5 -46t31.5 -168q-13 -77 -44.5 -117.5t-90.5 -57.5l71 -205h-139l-56 189h-155l-33 -189h-131zM251 488l-34 -195h95q79 0 118 21t50 86q10 58 -17 73t-108 15h-104z" />
    <glyph glyph-name="rcommaaccent.sc" horiz-adv-x="652" 
d="M34 0l104 594h241q147 0 201.5 -46t31.5 -168q-13 -77 -44.5 -117.5t-90.5 -57.5l71 -205h-139l-56 189h-155l-33 -189h-131zM251 488l-34 -195h95q79 0 118 21t50 86q10 58 -17 73t-108 15h-104zM125 -267q28 52 57 123q11 26 20.5 52.5t13.5 39.5l3 14h122
q-16 -69 -52 -136q-17 -32 -34 -55t-25 -31l-8 -7h-97z" />
    <glyph glyph-name="s.sc" horiz-adv-x="619" 
d="M163 168q-3 -85 108 -85q131 -3 148 87q5 28 -20 46t-65.5 25.5t-86.5 20t-85 29t-59.5 54t-10.5 92.5q31 174 266 173q121 -1 174 -44t48 -121l-123 -7q-1 34 -21.5 52.5t-78.5 19.5q-65 0 -99.5 -24.5t-41.5 -62.5q-4 -25 13.5 -41t49 -24.5t70.5 -16t77 -19.5t68 -30
t44.5 -52t6.5 -82q-32 -177 -277 -174q-117 0 -175 45.5t-53 131.5z" />
    <glyph glyph-name="sacute.sc" horiz-adv-x="619" 
d="M317 682l117 162h145l-135 -162h-127zM163 168q-3 -85 108 -85q131 -3 148 87q5 28 -20 46t-65.5 25.5t-86.5 20t-85 29t-59.5 54t-10.5 92.5q31 174 266 173q121 -1 174 -44t48 -121l-123 -7q-1 34 -21.5 52.5t-78.5 19.5q-65 0 -99.5 -24.5t-41.5 -62.5
q-4 -25 13.5 -41t49 -24.5t70.5 -16t77 -19.5t68 -30t44.5 -52t6.5 -82q-32 -177 -277 -174q-117 0 -175 45.5t-53 131.5z" />
    <glyph glyph-name="scaron.sc" horiz-adv-x="619" 
d="M599 840l-156 -159h-128l-93 159h116l53 -73l79 73h129zM163 168q-3 -85 108 -85q131 -3 148 87q5 28 -20 46t-65.5 25.5t-86.5 20t-85 29t-59.5 54t-10.5 92.5q31 174 266 173q121 -1 174 -44t48 -121l-123 -7q-1 34 -21.5 52.5t-78.5 19.5q-65 0 -99.5 -24.5
t-41.5 -62.5q-4 -25 13.5 -41t49 -24.5t70.5 -16t77 -19.5t68 -30t44.5 -52t6.5 -82q-32 -177 -277 -174q-117 0 -175 45.5t-53 131.5z" />
    <glyph glyph-name="scedilla.sc" horiz-adv-x="619" 
d="M362 -171q-9 -48 -46.5 -69.5t-126.5 -21.5q-28 0 -51.5 3t-32.5 5l-9 3l6 62q11 -2 45 -3q79 -1 88 52q4 23 -15.5 30.5t-62.5 7.5h-10l61 90q-87 10 -130 54.5t-38 118.5l123 7q-3 -85 108 -85q131 -3 148 87q5 28 -20 46t-65.5 25.5t-86.5 20t-85 29t-59.5 54
t-10.5 92.5q31 174 266 173q121 -1 174 -44t48 -121l-123 -7q-1 34 -21.5 52.5t-78.5 19.5q-65 0 -99.5 -24.5t-41.5 -62.5q-4 -25 13.5 -41t49 -24.5t70.5 -16t77 -19.5t68 -30t44.5 -52t6.5 -82q-28 -155 -221 -172l-40 -59q40 -4 63 -28.5t15 -69.5z" />
    <glyph glyph-name="scircumflex.sc" horiz-adv-x="619" 
d="M568 681h-122l-52 77l-80 -77h-127l153 159h128zM163 168q-3 -85 108 -85q131 -3 148 87q5 28 -20 46t-65.5 25.5t-86.5 20t-85 29t-59.5 54t-10.5 92.5q31 174 266 173q121 -1 174 -44t48 -121l-123 -7q-1 34 -21.5 52.5t-78.5 19.5q-65 0 -99.5 -24.5t-41.5 -62.5
q-4 -25 13.5 -41t49 -24.5t70.5 -16t77 -19.5t68 -30t44.5 -52t6.5 -82q-32 -177 -277 -174q-117 0 -175 45.5t-53 131.5z" />
    <glyph glyph-name="scommaaccent.sc" horiz-adv-x="619" 
d="M163 168q-3 -85 108 -85q131 -3 148 87q5 28 -20 46t-65.5 25.5t-86.5 20t-85 29t-59.5 54t-10.5 92.5q31 174 266 173q121 -1 174 -44t48 -121l-123 -7q-1 34 -21.5 52.5t-78.5 19.5q-65 0 -99.5 -24.5t-41.5 -62.5q-4 -25 13.5 -41t49 -24.5t70.5 -16t77 -19.5t68 -30
t44.5 -52t6.5 -82q-32 -177 -277 -174q-117 0 -175 45.5t-53 131.5zM129 -278q28 52 57 123q11 26 20.5 52.5t13.5 40.5l3 13h122q-16 -69 -52 -136q-17 -32 -34 -55t-25 -30l-8 -8h-97z" />
    <glyph glyph-name="germandbls.sc" horiz-adv-x="686" 
d="M604 175q-13 -73 -76 -123.5t-190 -50.5h-118l19 108h98q58 0 92 28t43 77q7 40 -17 62.5t-78 22.5q-16 0 -32.5 -2.5t-25.5 -4.5l-9 -2l10 79l1 1h-1l164 129h-130q-52 0 -82.5 -29.5t-39.5 -79.5l-69 -390h-129l69 393q9 48 21 79t38 61t73 44.5t117 14.5h302l-17 -93
h1l-160 -126q155 -32 126 -198z" />
    <glyph glyph-name="t.sc" horiz-adv-x="556" 
d="M163 0l85 475h-183l20 117h498l-20 -117h-183l-85 -475h-132z" />
    <glyph glyph-name="tbar.sc" horiz-adv-x="556" 
d="M403 475l-32 -176h99l-10 -75h-102l-40 -224h-132l40 224h-92l10 75h95l32 176h-183l20 117h498l-20 -117h-183z" />
    <glyph glyph-name="tcaron.sc" horiz-adv-x="556" 
d="M568 834l-156 -159h-128l-93 159h116l53 -73l79 73h129zM163 0l85 475h-183l20 117h498l-20 -117h-183l-85 -475h-132z" />
    <glyph glyph-name="uni0163.sc" horiz-adv-x="556" 
d="M314 -162q-9 -48 -46.5 -69.5t-126.5 -21.5q-28 0 -51.5 2.5t-32.5 5.5l-9 3l6 62q11 -2 45 -3q79 -1 88 52q4 23 -15.5 30.5t-62.5 7.5h-10l64 93l85 475h-183l20 117h498l-20 -117h-183l-85 -475h-15l-44 -64q40 -4 63 -28.5t15 -69.5z" />
    <glyph glyph-name="uni021B.sc" horiz-adv-x="556" 
d="M186 0l85 475h-183l20 117h498l-20 -117h-183l-85 -475h-132zM120 -268q18 45 39 113q9 28 15.5 56t9.5 42l2 14h120q-14 -62 -39 -123q-15 -33 -29 -58.5t-21 -34.5l-7 -9h-90z" />
    <glyph glyph-name="u.sc" horiz-adv-x="654" 
d="M582 285q-14 -82 -31.5 -132.5t-50 -91.5t-85 -59t-130.5 -18q-107 0 -159.5 36t-58.5 105.5t11 169.5l52 297h133l-56 -319q-19 -88 -2.5 -129t82.5 -41q74 0 109.5 43.5t52.5 136.5l54 309h133z" />
    <glyph glyph-name="uacute.sc" horiz-adv-x="654" 
d="M335 676l117 162h145l-135 -162h-127zM582 285q-14 -82 -31.5 -132.5t-50 -91.5t-85 -59t-130.5 -18q-107 0 -159.5 36t-58.5 105.5t11 169.5l52 297h133l-56 -319q-19 -88 -2.5 -129t82.5 -41q74 0 109.5 43.5t52.5 136.5l54 309h133z" />
    <glyph glyph-name="ubreve.sc" horiz-adv-x="654" 
d="M604 820q-9 -55 -59 -101t-137 -46q-94 0 -132.5 46.5t-28.5 100.5h103q-4 -21 13.5 -41t44.5 -20q34 0 58.5 19.5t27.5 41.5h110zM582 285q-14 -82 -31.5 -132.5t-50 -91.5t-85 -59t-130.5 -18q-107 0 -159.5 36t-58.5 105.5t11 169.5l52 297h133l-56 -319
q-19 -88 -2.5 -129t82.5 -41q74 0 109.5 43.5t52.5 136.5l54 309h133z" />
    <glyph glyph-name="ucircumflex.sc" horiz-adv-x="654" 
d="M586 675h-122l-52 77l-80 -77h-127l153 159h128zM582 285q-14 -82 -31.5 -132.5t-50 -91.5t-85 -59t-130.5 -18q-107 0 -159.5 36t-58.5 105.5t11 169.5l52 297h133l-56 -319q-19 -88 -2.5 -129t82.5 -41q74 0 109.5 43.5t52.5 136.5l54 309h133z" />
    <glyph glyph-name="udieresis.sc" horiz-adv-x="654" 
d="M232 675l26 143h127l-26 -143h-127zM437 675l26 143h127l-25 -143h-128zM582 285q-14 -82 -31.5 -132.5t-50 -91.5t-85 -59t-130.5 -18q-107 0 -159.5 36t-58.5 105.5t11 169.5l52 297h133l-56 -319q-19 -88 -2.5 -129t82.5 -41q74 0 109.5 43.5t52.5 136.5l54 309h133z
" />
    <glyph glyph-name="uni1EE5.sc" horiz-adv-x="654" 
d="M582 285q-14 -82 -31.5 -132.5t-50 -91.5t-85 -59t-130.5 -18q-107 0 -159.5 36t-58.5 105.5t11 169.5l52 297h133l-56 -319q-19 -88 -2.5 -129t82.5 -41q74 0 109.5 43.5t52.5 136.5l54 309h133zM174 -203l23 132h137l-23 -132h-137z" />
    <glyph glyph-name="ugrave.sc" horiz-adv-x="654" 
d="M455 676h-121l-79 162h140zM582 285q-14 -82 -31.5 -132.5t-50 -91.5t-85 -59t-130.5 -18q-107 0 -159.5 36t-58.5 105.5t11 169.5l52 297h133l-56 -319q-19 -88 -2.5 -129t82.5 -41q74 0 109.5 43.5t52.5 136.5l54 309h133z" />
    <glyph glyph-name="uhungarumlaut.sc" horiz-adv-x="654" 
d="M219 676l113 162h144l-132 -162h-125zM410 676l132 162h144l-151 -162h-125zM582 285q-14 -82 -31.5 -132.5t-50 -91.5t-85 -59t-130.5 -18q-107 0 -159.5 36t-58.5 105.5t11 169.5l52 297h133l-56 -319q-19 -88 -2.5 -129t82.5 -41q74 0 109.5 43.5t52.5 136.5l54 309
h133z" />
    <glyph glyph-name="umacron.sc" horiz-adv-x="654" 
d="M269 787h300l-16 -87h-299zM582 285q-14 -82 -31.5 -132.5t-50 -91.5t-85 -59t-130.5 -18q-107 0 -159.5 36t-58.5 105.5t11 169.5l52 297h133l-56 -319q-19 -88 -2.5 -129t82.5 -41q74 0 109.5 43.5t52.5 136.5l54 309h133z" />
    <glyph glyph-name="uogonek.sc" horiz-adv-x="654" 
d="M234 -89q7 38 45 73q-104 1 -155.5 37.5t-57 105.5t11.5 168l52 297h133l-56 -319q-19 -88 -2.5 -129t82.5 -41q74 0 109.5 43.5t52.5 136.5l54 309h133l-54 -307q-21 -117 -52.5 -181t-96.5 -94q-65 -43 -73 -88q-3 -28 24 -28q13 0 27 4t22 8l8 4l-8 -67
q-29 -30 -98 -30q-62 0 -85.5 28.5t-15.5 69.5z" />
    <glyph glyph-name="uring.sc" horiz-adv-x="654" 
d="M531 762q-8 -49 -41 -73.5t-85 -24.5q-57 0 -85.5 31t-18.5 86q8 47 41 72t84 25q58 0 86.5 -31t18.5 -85zM379 765q-6 -32 26 -32q19 0 32 12.5t16 31.5q6 31 -26 31q-19 0 -32 -12t-16 -31zM582 285q-14 -82 -31.5 -132.5t-50 -91.5t-85 -59t-130.5 -18
q-107 0 -159.5 36t-58.5 105.5t11 169.5l52 297h133l-56 -319q-19 -88 -2.5 -129t82.5 -41q74 0 109.5 43.5t52.5 136.5l54 309h133z" />
    <glyph glyph-name="utilde.sc" horiz-adv-x="654" 
d="M604 817q-12 -68 -38.5 -104.5t-82.5 -36.5q-34 0 -57.5 12.5t-39.5 25t-34 12.5q-27 0 -44 -19t-19 -34l-69 10q12 67 38.5 103t82.5 36q27 0 48 -7.5t31 -17t23.5 -17t28.5 -7.5q26 0 43.5 19.5t19.5 34.5zM582 285q-14 -82 -31.5 -132.5t-50 -91.5t-85 -59t-130.5 -18
q-107 0 -159.5 36t-58.5 105.5t11 169.5l52 297h133l-56 -319q-19 -88 -2.5 -129t82.5 -41q74 0 109.5 43.5t52.5 136.5l54 309h133z" />
    <glyph glyph-name="v.sc" horiz-adv-x="626" 
d="M82 592h145l57 -485l228 485h148l-313 -592h-161z" />
    <glyph glyph-name="w.sc" horiz-adv-x="959" 
d="M517 474l-195 -474h-163l-66 592h149l23 -482l192 482h160l22 -483l198 483h144l-280 -592h-161z" />
    <glyph glyph-name="wacute.sc" horiz-adv-x="959" 
d="M490 676l117 162h145l-135 -162h-127zM517 474l-195 -474h-163l-66 592h149l23 -482l192 482h160l22 -483l198 483h144l-280 -592h-161z" />
    <glyph glyph-name="wcircumflex.sc" horiz-adv-x="959" 
d="M741 675h-122l-52 77l-80 -77h-127l153 159h128zM517 474l-195 -474h-163l-66 592h149l23 -482l192 482h160l22 -483l198 483h144l-280 -592h-161z" />
    <glyph glyph-name="wdieresis.sc" horiz-adv-x="959" 
d="M387 675l26 143h127l-26 -143h-127zM592 675l26 143h127l-25 -143h-128zM517 474l-195 -474h-163l-66 592h149l23 -482l192 482h160l22 -483l198 483h144l-280 -592h-161z" />
    <glyph glyph-name="wgrave.sc" horiz-adv-x="959" 
d="M610 676h-121l-79 162h140zM517 474l-195 -474h-163l-66 592h149l23 -482l192 482h160l22 -483l198 483h144l-280 -592h-161z" />
    <glyph glyph-name="x.sc" horiz-adv-x="626" 
d="M301 218l-171 -218h-153l252 295l-141 297h144l96 -220l173 220h153l-255 -297l139 -295h-144z" />
    <glyph glyph-name="y.sc" horiz-adv-x="610" 
d="M192 0l30 175l-136 417h146l71 -323l178 323h159l-286 -421h-2l-29 -171h-131z" />
    <glyph glyph-name="yacute.sc" horiz-adv-x="610" 
d="M311 676l117 162h145l-135 -162h-127zM192 0l30 175l-136 417h146l71 -323l178 323h159l-286 -421h-2l-29 -171h-131z" />
    <glyph glyph-name="ycircumflex.sc" horiz-adv-x="610" 
d="M562 675h-122l-52 77l-80 -77h-127l153 159h128zM192 0l30 175l-136 417h146l71 -323l178 323h159l-286 -421h-2l-29 -171h-131z" />
    <glyph glyph-name="ydieresis.sc" horiz-adv-x="610" 
d="M208 675l26 143h127l-26 -143h-127zM413 675l26 143h127l-25 -143h-128zM192 0l30 175l-136 417h146l71 -323l178 323h159l-286 -421h-2l-29 -171h-131z" />
    <glyph glyph-name="ygrave.sc" horiz-adv-x="610" 
d="M431 676h-121l-79 162h140zM192 0l30 175l-136 417h146l71 -323l178 323h159l-286 -421h-2l-29 -171h-131z" />
    <glyph glyph-name="uni0233.sc" horiz-adv-x="610" 
d="M245 787h300l-16 -87h-299zM192 0l30 175l-136 417h146l71 -323l178 323h159l-286 -421h-2l-29 -171h-131z" />
    <glyph glyph-name="uni1EF9.sc" horiz-adv-x="610" 
d="M580 817q-12 -68 -38.5 -104.5t-82.5 -36.5q-34 0 -57.5 12.5t-39.5 25t-34 12.5q-27 0 -44 -19t-19 -34l-69 10q12 67 38.5 103t82.5 36q27 0 48 -7.5t31 -17t23.5 -17t28.5 -7.5q26 0 43.5 19.5t19.5 34.5zM192 0l30 175l-136 417h146l71 -323l178 323h159l-286 -421
h-2l-29 -171h-131z" />
    <glyph glyph-name="z.sc" horiz-adv-x="555" 
d="M-8 2l7 42l11 69l373 366h-295l20 112h458l-7 -38h1l-11 -74l-378 -366h315l-20 -111h-474z" />
    <glyph glyph-name="zacute.sc" horiz-adv-x="555" 
d="M287 676l117 162h145l-135 -162h-127zM-8 2l7 42l11 69l373 366h-295l20 112h458l-7 -38h1l-11 -74l-378 -366h315l-20 -111h-474z" />
    <glyph glyph-name="zcaron.sc" horiz-adv-x="555" 
d="M569 834l-156 -159h-128l-93 159h116l53 -73l79 73h129zM-8 2l7 42l11 69l373 366h-295l20 112h458l-7 -38h1l-11 -74l-378 -366h315l-20 -111h-474z" />
    <glyph glyph-name="zdotaccent.sc" horiz-adv-x="555" 
d="M283 680l24 138h139l-25 -138h-138zM-8 2l7 42l11 69l373 366h-295l20 112h458l-7 -38h1l-11 -74l-378 -366h315l-20 -111h-474z" />
    <glyph glyph-name="zero.lf" horiz-adv-x="718" 
d="M663 345q-34 -196 -114.5 -276.5t-231.5 -80.5q-156 0 -212.5 86.5t-20.5 289.5q34 195 114.5 275.5t230.5 80.5q157 0 213.5 -86.5t20.5 -288.5zM221 345q-24 -137 0 -187t100 -50q83 0 131.5 56t74.5 200q23 136 -1.5 186.5t-100.5 50.5q-82 0 -130.5 -56.5
t-73.5 -199.5z" />
    <glyph glyph-name="one.lf" horiz-adv-x="408" 
d="M110 0l98 566l-134 -41l18 111l194 75h84l-125 -711h-135z" />
    <glyph glyph-name="two.lf" horiz-adv-x="638" 
d="M90 507q26 99 97.5 156t191.5 57q60 0 105 -13t71 -34.5t41.5 -50.5t16.5 -62t-3 -67q-7 -38 -24.5 -73.5t-35 -60t-53 -57.5t-56 -49t-66.5 -51q-14 -11 -21 -16q-40 -27 -107 -69l299 8l-21 -122h-524l18 108l1 3q102 59 211 134q55 37 89 62t69.5 57t55 65t26.5 69
q7 41 -15.5 68t-78.5 27t-98.5 -34.5t-55.5 -81.5z" />
    <glyph glyph-name="three.lf" horiz-adv-x="655" 
d="M417 443q194 -38 161 -229q-42 -228 -310 -228q-132 0 -189.5 57t-53.5 145l140 10q-2 -42 23.5 -67.5t80.5 -25.5q71 0 113 37.5t54 102.5q9 58 -23 89t-106 31q-22 0 -45 -2.5t-35 -4.5l-12 -3l10 83l230 150l-331 -8l22 123h505l-20 -110z" />
    <glyph glyph-name="four.lf" horiz-adv-x="667" 
d="M359 0l23 130h-373l17 110l394 466h199l-82 -466h83l-20 -110h-82l-23 -130h-136zM401 240l63 360l-290 -360h227z" />
    <glyph glyph-name="five.lf" horiz-adv-x="674" 
d="M315 588l-58 -165q61 40 157 40q62 0 106 -20.5t64.5 -55t28.5 -78.5t-3 -92q-18 -103 -92.5 -167t-218.5 -64q-135 0 -196.5 52.5t-60.5 128.5l146 10q2 -33 30 -55t84 -22q71 0 114 37t54 99q10 58 -15 92.5t-82 34.5q-46 0 -84.5 -13.5t-53 -25t-19.5 -18.5l-133 1
l132 393h438l-20 -116z" />
    <glyph glyph-name="six.lf" horiz-adv-x="707" 
d="M531 533q-4 78 -100 78q-70 0 -114.5 -44.5t-76.5 -158.5q75 55 181 55q131 0 183 -69t33 -177q-19 -103 -94.5 -166.5t-224.5 -64.5q-161 -1 -215.5 82.5t-24.5 256.5q39 220 117.5 308t234.5 88q66 0 114 -16t74 -43t38 -57t11 -63zM389 365q-104 0 -176 -79
q-15 -100 10.5 -144.5t96.5 -44.5q75 0 118 38.5t55 106.5q23 123 -104 123z" />
    <glyph glyph-name="seven.lf" horiz-adv-x="571" 
d="M100 -1q16 89 57 182.5t89 163.5t93.5 127t75.5 87l30 30l-366 -7l21 121h519l-21 -117q-12 -12 -33 -33.5t-75.5 -88t-99.5 -132.5t-88.5 -158.5t-58.5 -174.5h-143z" />
    <glyph glyph-name="eight.lf" horiz-adv-x="701" 
d="M308 -12q-159 0 -217.5 57.5t-40.5 162.5q8 43 29.5 78t47 54.5t47.5 29.5t37 11q-8 1 -22 10.5t-30.5 27t-25.5 48.5t-2 68q16 88 83 137t207 49q146 0 200.5 -55t36.5 -151q-7 -44 -35 -76.5t-53 -45t-42 -13.5q13 -2 30.5 -14t36.5 -33.5t28.5 -59.5t1.5 -84
q-18 -98 -90.5 -149.5t-226.5 -51.5zM421 626q-133 0 -155 -123q-7 -39 18 -62.5t83 -23.5q64 0 104 29.5t49 75.5q9 54 -14.5 79t-84.5 25zM369 332q-71 0 -115 -35.5t-54 -91.5q-9 -55 17 -82t94 -27q73 0 115.5 33.5t53.5 94.5q9 50 -18 79t-93 29z" />
    <glyph glyph-name="nine.lf" horiz-adv-x="710" 
d="M190 175q2 -34 29.5 -56.5t88.5 -22.5q69 0 112 39.5t75 147.5q-77 -56 -175 -56q-264 0 -217 263q17 101 96 166t222 65q162 1 216 -83t22 -267q-39 -219 -115 -302t-238 -83q-70 0 -121 15.5t-78.5 42t-40 56t-12.5 62.5zM346 327q107 0 178 83q16 109 -8.5 155
t-96.5 46q-68 0 -115.5 -40.5t-58.5 -105.5q-26 -138 101 -138z" />
    <glyph glyph-name="zero.tf" horiz-adv-x="703" 
d="M674 345q-34 -196 -114.5 -276.5t-231.5 -80.5q-156 0 -212.5 86.5t-20.5 289.5q34 195 114.5 275.5t230.5 80.5q157 0 213.5 -86.5t20.5 -288.5zM232 345q-24 -137 0 -187t100 -50q83 0 131.5 56t74.5 200q23 136 -1.5 186.5t-100.5 50.5q-82 0 -130.5 -56.5
t-73.5 -199.5z" />
    <glyph glyph-name="one.tf" horiz-adv-x="703" 
d="M153 0l19 108h119l80 458l-134 -41l18 111l194 75h84l-106 -603h131l-20 -108h-385z" />
    <glyph glyph-name="two.tf" horiz-adv-x="703" 
d="M137 507q26 99 97.5 156t191.5 57q60 0 105 -13t71 -34.5t41.5 -50.5t16.5 -62t-3 -67q-7 -38 -24.5 -73.5t-35 -60t-53 -57.5t-56 -49t-66.5 -51q-14 -11 -21 -16q-40 -27 -107 -69l299 8l-21 -122h-524l18 108l1 3q102 59 211 134q55 37 89 62t69.5 57t55 65t26.5 69
q7 41 -15.5 68t-78.5 27t-98.5 -34.5t-55.5 -81.5z" />
    <glyph glyph-name="three.tf" horiz-adv-x="703" 
d="M457 443q194 -38 161 -229q-42 -228 -310 -228q-132 0 -189.5 57t-53.5 145l140 10q-2 -42 23.5 -67.5t80.5 -25.5q71 0 113 37.5t54 102.5q9 58 -23 89t-106 31q-22 0 -45 -2.5t-35 -4.5l-12 -3l10 83l230 150l-331 -8l22 123h505l-20 -110z" />
    <glyph glyph-name="four.tf" horiz-adv-x="703" 
d="M376 0l23 130h-373l17 110l394 466h199l-82 -466h83l-20 -110h-82l-23 -130h-136zM418 240l63 360l-290 -360h227z" />
    <glyph glyph-name="five.tf" horiz-adv-x="703" 
d="M336 588l-58 -165q61 40 157 40q62 0 106 -20.5t64.5 -55t28.5 -78.5t-3 -92q-18 -103 -92.5 -167t-218.5 -64q-135 0 -196.5 52.5t-60.5 128.5l146 10q2 -33 30 -55t84 -22q71 0 114 37t54 99q10 58 -15 92.5t-82 34.5q-46 0 -84.5 -13.5t-53 -25t-19.5 -18.5l-133 1
l132 393h438l-20 -116z" />
    <glyph glyph-name="six.tf" horiz-adv-x="703" 
d="M546 533q-4 78 -100 78q-70 0 -114.5 -44.5t-76.5 -158.5q75 55 181 55q131 0 183 -69t33 -177q-19 -103 -94.5 -166.5t-224.5 -64.5q-161 -1 -215.5 82.5t-24.5 256.5q39 220 117.5 308t234.5 88q66 0 114 -16t74 -43t38 -57t11 -63zM404 365q-104 0 -176 -79
q-15 -100 10.5 -144.5t96.5 -44.5q75 0 118 38.5t55 106.5q23 123 -104 123z" />
    <glyph glyph-name="seven.tf" horiz-adv-x="703" 
d="M189 -1q16 89 57 182.5t89 163.5t93.5 127t75.5 87l30 30l-366 -7l21 121h519l-21 -117q-12 -12 -33 -33.5t-75.5 -88t-99.5 -132.5t-88.5 -158.5t-58.5 -174.5h-143z" />
    <glyph glyph-name="eight.tf" horiz-adv-x="703" 
d="M326 -12q-159 0 -217.5 57.5t-40.5 162.5q8 43 29.5 78t47 54.5t47.5 29.5t37 11q-8 1 -22 10.5t-30.5 27t-25.5 48.5t-2 68q16 88 83 137t207 49q146 0 200.5 -55t36.5 -151q-7 -44 -35 -76.5t-53 -45t-42 -13.5q13 -2 30.5 -14t36.5 -33.5t28.5 -59.5t1.5 -84
q-18 -98 -90.5 -149.5t-226.5 -51.5zM439 626q-133 0 -155 -123q-7 -39 18 -62.5t83 -23.5q64 0 104 29.5t49 75.5q9 54 -14.5 79t-84.5 25zM387 332q-71 0 -115 -35.5t-54 -91.5q-9 -55 17 -82t94 -27q73 0 115.5 33.5t53.5 94.5q9 50 -18 79t-93 29z" />
    <glyph glyph-name="nine.tf" horiz-adv-x="703" 
d="M205 175q2 -34 29.5 -56.5t88.5 -22.5q69 0 112 39.5t75 147.5q-77 -56 -175 -56q-264 0 -217 263q17 101 96 166t222 65q162 1 216 -83t22 -267q-39 -219 -115 -302t-238 -83q-70 0 -121 15.5t-78.5 42t-40 56t-12.5 62.5zM361 327q107 0 178 83q16 109 -8.5 155
t-96.5 46q-68 0 -115.5 -40.5t-58.5 -105.5q-26 -138 101 -138z" />
    <glyph glyph-name="zero.subs" horiz-adv-x="588" 
d="M466 62q-26 -150 -87 -210t-176 -60q-123 0 -166.5 66t-16.5 223q27 149 87.5 209.5t176.5 60.5q122 0 166 -66.5t16 -222.5zM130 62q-14 -69 -7.5 -107.5t25 -52t55.5 -13.5q61 0 97.5 42t55.5 150q17 102 0 137.5t-72 35.5q-62 0 -98.5 -42t-55.5 -150z" />
    <glyph glyph-name="one.subs" horiz-adv-x="325" 
d="M29 -198l72 421l-102 -40l17 102l149 57h69l-95 -540h-110z" />
    <glyph glyph-name="two.subs" horiz-adv-x="496" 
d="M17 203q44 157 220 157q111 0 152 -50.5t28 -126.5q-3 -16 -8.5 -31.5t-10.5 -27.5t-15 -26.5t-16 -23.5t-20.5 -23t-20.5 -20.5t-24.5 -21.5t-24 -19.5t-26.5 -21t-26 -20.5l-78 -50l218 6l-17 -99h-398l2 13l7 43l6 30v1h2l25.5 17t60 40.5t69.5 47.5q49 35 68 49.5
t50 42t45 52t19 52.5q5 29 -11 48t-55 19q-41 0 -71.5 -24.5t-41.5 -58.5z" />
    <glyph glyph-name="three.subs" horiz-adv-x="529" 
d="M280 138q143 -30 117 -179q-13 -73 -68 -120t-164 -47q-103 0 -146.5 43t-40.5 112l110 6q2 -65 74 -65q51 0 82 27t38 72q8 42 -13 66t-78 24q-17 0 -34 -2t-25 -4l-9 -2l8 66q1 0 164 110l-246 -7l18 99h388l-16 -88z" />
    <glyph glyph-name="four.subs" horiz-adv-x="537" 
d="M230 -198l17 96h-281l14 90l292 353h162l-62 -353h64l-17 -90h-63l-17 -96h-109zM263 -12l45 260l-204 -260h159z" />
    <glyph glyph-name="five.subs" horiz-adv-x="542" 
d="M199 249l-42 -122q43 29 110 29q95 0 131.5 -54.5t21.5 -135.5q-13 -78 -69 -126t-165 -48q-104 0 -151 40.5t-47 98.5l116 6q6 -54 81 -54q51 0 82 27.5t40 74.5q8 41 -9.5 65.5t-60.5 24.5q-32 0 -59 -10t-38 -18.5t-15 -13.5h-108l100 304h338l-18 -93z" />
    <glyph glyph-name="six.subs" horiz-adv-x="570" 
d="M354 208q-2 54 -69 54q-51 0 -84.5 -32.5t-56.5 -113.5q55 39 132 39q101 0 140.5 -53.5t24.5 -136.5q-32 -173 -241 -173q-125 -1 -167 63t-18 197q29 167 88.5 233.5t177.5 66.5q96 0 139.5 -40t43.5 -96zM253 76q-75 0 -129 -56q-11 -75 6 -107t68 -32q54 0 86 29
t41 79q15 87 -72 87z" />
    <glyph glyph-name="seven.subs" horiz-adv-x="462" 
d="M30 -199q12 67 43 137.5t66 123.5t69 96.5t56 66.5l22 23l-272 -8l17 98h397l-17 -93q-9 -9 -24.5 -25.5t-56.5 -67t-74.5 -100.5t-66 -119.5t-43.5 -131.5h-116z" />
    <glyph glyph-name="eight.subs" horiz-adv-x="567" 
d="M197 -208q-124 0 -169.5 44t-30.5 126q11 62 49 94.5t70 35.5q-7 1 -17.5 8.5t-22 21t-17.5 37.5t-1 52q12 67 63 104t157 37q212 0 184 -160q-9 -48 -40 -73.5t-57 -27.5q27 -3 55 -42.5t16 -105.5q-13 -74 -67.5 -112.5t-171.5 -38.5zM282 275q-98 0 -115 -94
q-5 -29 11 -44t59 -15q98 0 112 78q7 39 -9 57t-58 18zM243 53q-108 0 -125 -96q-14 -79 76 -79q107 0 125 98q6 38 -10.5 57.5t-65.5 19.5z" />
    <glyph glyph-name="nine.subs" horiz-adv-x="570" 
d="M110 -66q4 -53 82 -53q50 0 82.5 29t54.5 105q-56 -39 -126 -39q-203 0 -166 201q14 78 70.5 126.5t169.5 48.5q126 0 167.5 -64.5t16.5 -204.5q-29 -167 -86 -229t-181 -62q-105 0 -150.5 40.5t-44.5 97.5zM222 56q73 0 129 56q13 82 -3.5 116t-68.5 34q-54 0 -86 -29.5
t-41 -78.5q-18 -98 70 -98z" />
    <glyph glyph-name="zero.dnom" horiz-adv-x="588" 
d="M516 260q-26 -150 -87 -210t-176 -60q-123 0 -166.5 66t-16.5 223q27 149 87.5 209.5t176.5 60.5q122 0 166 -66.5t16 -222.5zM180 260q-14 -69 -7.5 -107.5t25 -52t55.5 -13.5q61 0 97.5 42t55.5 150q17 102 0 137.5t-72 35.5q-62 0 -98.5 -42t-55.5 -150z" />
    <glyph glyph-name="one.dnom" horiz-adv-x="325" 
d="M79 0l72 421l-102 -40l17 102l149 57h69l-95 -540h-110z" />
    <glyph glyph-name="two.dnom" horiz-adv-x="496" 
d="M67 401q44 157 220 157q111 0 152 -50.5t28 -126.5q-3 -16 -8.5 -31.5t-10.5 -27.5t-15 -26.5t-16 -23.5t-20.5 -23t-20.5 -20.5t-24.5 -21.5t-24 -19.5t-26.5 -21t-26 -20.5q-3 -2 -78 -51l218 7l-17 -99h-398l2 13l7 42l6 31v1h2q56 35 155 105q49 35 68 49.5t50 42
t45 52t19 52.5q5 29 -11 48t-55 19q-41 0 -71.5 -24.5t-41.5 -58.5z" />
    <glyph glyph-name="three.dnom" horiz-adv-x="529" 
d="M330 336q143 -30 117 -179q-13 -73 -68 -120t-164 -47q-103 0 -146.5 43t-40.5 112l110 6q2 -65 74 -65q51 0 82 27t38 72q8 42 -13 66t-78 24q-17 0 -34 -2t-25 -4l-9 -2l8 66l164 110l-246 -7l18 99h388l-16 -88z" />
    <glyph glyph-name="four.dnom" horiz-adv-x="537" 
d="M280 0l17 96h-281l14 90l292 353h162l-62 -353h64l-17 -90h-63l-17 -96h-109zM313 186l45 260l-204 -260h159z" />
    <glyph glyph-name="five.dnom" horiz-adv-x="542" 
d="M249 447l-42 -122q43 29 110 29q95 0 131.5 -54.5t21.5 -135.5q-13 -78 -69 -126t-165 -48q-104 0 -151 40.5t-47 98.5l116 6q6 -54 81 -54q51 0 82 27.5t40 74.5q8 41 -9.5 65.5t-60.5 24.5q-32 0 -59 -10t-38 -18.5t-15 -13.5h-108l100 304h338l-18 -93z" />
    <glyph glyph-name="six.dnom" horiz-adv-x="570" 
d="M404 406q-2 54 -69 54q-51 0 -84.5 -32.5t-56.5 -113.5q55 39 132 39q101 0 140.5 -53.5t24.5 -136.5q-32 -173 -241 -173q-125 -1 -167 63t-18 197q29 167 88.5 233.5t177.5 66.5q96 0 139.5 -40t43.5 -96zM303 274q-75 0 -129 -56q-11 -75 6 -107t68 -32q54 0 86 29
t41 79q15 87 -72 87z" />
    <glyph glyph-name="seven.dnom" horiz-adv-x="462" 
d="M80 -1q12 67 43 137.5t66 123.5t69 96.5t56 66.5l22 23l-272 -8l17 98h397l-17 -93q-9 -9 -24.5 -25.5t-56.5 -67t-74.5 -100.5t-66 -119.5t-43.5 -131.5h-116z" />
    <glyph glyph-name="eight.dnom" horiz-adv-x="567" 
d="M247 -10q-124 0 -169.5 44t-30.5 126q11 62 49 94.5t70 35.5q-7 1 -17.5 8.5t-22 21t-17.5 37.5t-1 52q12 67 63 104t157 37q212 0 184 -160q-9 -48 -40 -73.5t-57 -27.5q27 -3 55 -42.5t16 -105.5q-13 -74 -67.5 -112.5t-171.5 -38.5zM332 473q-98 0 -115 -94
q-5 -29 11 -44t59 -15q98 0 112 78q7 39 -9 57t-58 18zM293 251q-108 0 -125 -96q-14 -79 76 -79q107 0 125 98q6 38 -10.5 57.5t-65.5 19.5z" />
    <glyph glyph-name="nine.dnom" horiz-adv-x="570" 
d="M160 132q4 -53 82 -53q50 0 82.5 28.5t54.5 105.5q-53 -39 -126 -39q-203 0 -166 201q14 78 70.5 126.5t169.5 48.5q126 0 167.5 -64.5t16.5 -204.5q-29 -167 -86 -229t-181 -62q-105 0 -150.5 40.5t-44.5 97.5zM272 254q73 0 129 56q13 82 -3.5 116t-68.5 34
q-54 0 -86 -29.5t-41 -78.5q-18 -98 70 -98z" />
    <glyph glyph-name="zero.numr" horiz-adv-x="588" 
d="M556 487q-26 -150 -87 -210t-176 -60q-123 0 -166.5 66t-16.5 223q27 149 87.5 209.5t176.5 60.5q122 0 166 -66.5t16 -222.5zM220 487q-14 -69 -7.5 -107.5t25 -52t55.5 -13.5q61 0 97.5 42t55.5 150q17 102 0 137.5t-72 35.5q-62 0 -98.5 -42t-55.5 -150z" />
    <glyph glyph-name="one.numr" horiz-adv-x="325" 
d="M119 227l72 421l-102 -40l17 102l149 57h69l-95 -540h-110z" />
    <glyph glyph-name="two.numr" horiz-adv-x="496" 
d="M107 628q44 157 220 157q111 0 152 -50.5t28 -126.5q-3 -16 -8.5 -31.5t-10.5 -27.5t-15 -26.5t-16 -23.5t-20.5 -23t-20.5 -20.5t-24.5 -21.5t-24 -19.5t-26.5 -21t-26 -20.5q-3 -2 -78 -51l218 7l-17 -99h-398l2 13l7 42l6 31v1h2q56 35 155 105q49 35 68 49.5t50 42
t45 52t19 52.5q5 29 -11 48t-55 19q-41 0 -71.5 -24.5t-41.5 -58.5z" />
    <glyph glyph-name="three.numr" horiz-adv-x="529" 
d="M370 563q143 -30 117 -179q-13 -73 -68 -120t-164 -47q-103 0 -146.5 43t-40.5 112l110 6q2 -65 74 -65q51 0 82 27t38 72q8 42 -13 66t-78 24q-17 0 -34 -2t-25 -4l-9 -2l8 66l164 110l-246 -7l18 99h388l-16 -88z" />
    <glyph glyph-name="four.numr" horiz-adv-x="537" 
d="M320 227l17 96h-281l14 90l292 353h162l-62 -353h64l-17 -90h-63l-17 -96h-109zM353 413l45 260l-204 -260h159z" />
    <glyph glyph-name="five.numr" horiz-adv-x="542" 
d="M289 674l-42 -122q43 29 110 29q95 0 131.5 -54.5t21.5 -135.5q-13 -78 -69 -126t-165 -48q-104 0 -151 40.5t-47 98.5l116 6q6 -54 81 -54q51 0 82 27.5t40 74.5q8 41 -9.5 65.5t-60.5 24.5q-32 0 -59 -10t-38 -18.5t-15 -13.5h-108l100 304h338l-18 -93z" />
    <glyph glyph-name="six.numr" horiz-adv-x="570" 
d="M444 633q-2 54 -69 54q-51 0 -84.5 -32.5t-56.5 -113.5q55 39 132 39q101 0 140.5 -53.5t24.5 -136.5q-32 -173 -241 -173q-125 -1 -167 63t-18 197q29 167 88.5 233.5t177.5 66.5q96 0 139.5 -40t43.5 -96zM343 501q-75 0 -129 -56q-11 -75 6 -107t68 -32q54 0 86 29
t41 79q15 87 -72 87z" />
    <glyph glyph-name="seven.numr" horiz-adv-x="462" 
d="M120 226q12 67 43 137.5t66 123.5t69 96.5t56 66.5l22 23l-272 -8l17 98h397l-17 -93q-9 -9 -24.5 -25.5t-56.5 -67t-74.5 -100.5t-66 -119.5t-43.5 -131.5h-116z" />
    <glyph glyph-name="eight.numr" horiz-adv-x="567" 
d="M287 217q-124 0 -169.5 44t-30.5 126q11 62 49 94.5t70 35.5q-7 1 -17.5 8.5t-22 21t-17.5 37.5t-1 52q12 67 63 104t157 37q212 0 184 -160q-9 -48 -40 -73.5t-57 -27.5q27 -3 55 -42.5t16 -105.5q-13 -74 -67.5 -112.5t-171.5 -38.5zM372 700q-98 0 -115 -94
q-5 -29 11 -44t59 -15q98 0 112 78q7 39 -9 57t-58 18zM333 478q-108 0 -125 -96q-14 -79 76 -79q107 0 125 98q6 38 -10.5 57.5t-65.5 19.5z" />
    <glyph glyph-name="nine.numr" horiz-adv-x="570" 
d="M200 359q4 -53 82 -53q50 0 82.5 28.5t54.5 105.5q-53 -39 -126 -39q-203 0 -166 201q14 78 70.5 126.5t169.5 48.5q126 0 167.5 -64.5t16.5 -204.5q-29 -167 -86 -229t-181 -62q-105 0 -150.5 40.5t-44.5 97.5zM312 481q73 0 129 56q13 82 -3.5 116t-68.5 34
q-54 0 -86 -29.5t-41 -78.5q-18 -98 70 -98z" />
    <glyph glyph-name="zero.sc" horiz-adv-x="619" 
d="M562 282q-29 -162 -97.5 -227t-195.5 -65q-135 0 -184.5 71.5t-20.5 240.5q29 163 97.5 228t196.5 65q134 0 183.5 -71.5t20.5 -241.5zM194 282q-19 -105 0 -142.5t78 -37.5q64 0 102.5 44t57.5 156q19 106 0.5 143.5t-76.5 37.5q-65 0 -103.5 -44t-58.5 -157z" />
    <glyph glyph-name="one.sc" horiz-adv-x="361" 
d="M89 0l78 452l-111 -30l17 102l168 63h78l-104 -587h-126z" />
    <glyph glyph-name="two.sc" horiz-adv-x="557" 
d="M72 423q51 171 246 171q65 0 110.5 -17t65 -44t27.5 -61.5t-1 -70.5q-6 -34 -21.5 -65t-33 -53.5t-48.5 -49t-52 -42t-60 -42.5l-71 -40l236 7l-20 -114h-453l3 16h-1l16 87q85 45 173 103q96 59 146 103.5t59 97.5q6 29 -12 49.5t-64 20.5q-44 0 -77.5 -25.5
t-46.5 -60.5z" />
    <glyph glyph-name="three.sc" horiz-adv-x="570" 
d="M363 363q157 -33 130 -188q-15 -82 -77 -134.5t-187 -52.5q-115 0 -164.5 48t-46.5 122l126 8q2 -67 85 -67q59 0 94 29.5t44 80.5q6 41 -20.5 64t-89.5 23q-20 0 -39 -1.5t-28 -2.5l-10 -2l8 72l190 117l-282 -13l20 114h437l-17 -93z" />
    <glyph glyph-name="four.sc" horiz-adv-x="583" 
d="M300 0l17 101h-314l16 102l324 379h186l-67 -379h70l-18 -102h-70l-18 -101h-126zM335 203l50 283l-231 -283h181z" />
    <glyph glyph-name="five.sc" horiz-adv-x="584" 
d="M269 478l-44 -127q52 31 125 31q54 0 92 -17.5t55 -46.5t23.5 -65.5t-2.5 -75.5q-15 -84 -78 -136.5t-187 -52.5q-116 0 -168.5 44t-52.5 106l136 11q8 -59 87 -59q58 0 94 29.5t45 80.5q8 45 -12 69.5t-65 24.5q-40 0 -72 -11.5t-43 -21.5t-13 -15l-126 2l110 331h380
l-18 -105z" />
    <glyph glyph-name="six.sc" horiz-adv-x="612" 
d="M441 439q-2 59 -79 59q-55 0 -91.5 -35t-61.5 -123q61 41 147 41q112 0 156 -57.5t28 -146.5q-15 -83 -78.5 -135.5t-192.5 -53.5q-139 -1 -187 69t-22 213q32 182 98.5 254t201.5 72q109 0 158 -44.5t48 -105.5zM327 295q-78 0 -140 -60q-11 -78 8.5 -113.5t74.5 -35.5
q62 0 97.5 31t44.5 85q16 93 -85 93z" />
    <glyph glyph-name="seven.sc" horiz-adv-x="499" 
d="M83 1q13 71 46.5 146t73 131.5t76.5 102.5t62 70l25 24l-307 -8l20 113h446l-20 -110q-10 -10 -27 -27.5t-62 -71t-81.5 -107t-72 -127t-46.5 -138.5z" />
    <glyph glyph-name="eight.sc" horiz-adv-x="608" 
d="M263 -10q-140 0 -191 48t-36 137q12 64 56.5 100.5t77.5 39.5q-6 1 -17.5 9t-25 22.5t-21 40.5t-1.5 56q26 153 247 153q127 0 174.5 -46.5t34.5 -125.5q-10 -51 -46 -79.5t-62 -30.5q10 -2 24 -12t30 -28t24 -50t2 -69q-14 -80 -76 -122.5t-194 -42.5zM354 508
q-111 0 -128 -97q-5 -28 15.5 -45.5t66.5 -17.5q53 0 86.5 23.5t39.5 58.5q7 40 -12.5 59t-67.5 19zM312 271q-57 0 -93 -28t-44 -71q-7 -40 14 -61t74 -21q60 0 95 27t44 74q6 36 -16 58t-74 22z" />
    <glyph glyph-name="nine.sc" horiz-adv-x="614" 
d="M166 146q2 -61 90 -61q56 0 92 32t61 115q-59 -42 -141 -42q-225 0 -188 215q14 82 81 136.5t191 54.5q141 0 187.5 -70t20.5 -220q-31 -182 -96 -250t-205 -68q-119 0 -170.5 45t-49.5 108zM291 277q85 0 143 65q12 82 -7.5 117.5t-75.5 35.5q-58 0 -96.5 -31.5
t-46.5 -83.5q-18 -103 83 -103z" />
    <glyph glyph-name="exclamdown.case" horiz-adv-x="323" 
d="M147 582l24 135h138l-24 -135h-138zM45 0l102 535h120l-85 -535h-137z" />
    <glyph glyph-name="questiondown.case" horiz-adv-x="647" 
d="M493 717l-22 -126h-138l23 126h137zM569 186q-25 -98 -87 -150t-175 -52q-133 0 -185 61.5t-34 164.5q9 49 32.5 85t52.5 57.5t58 42t54 52t35 74.5l5 25h138l-7 -35q-9 -51 -33 -87.5t-52.5 -58.5t-57 -42t-51 -50t-29.5 -71q-17 -100 75 -100q107 0 135 115z" />
    <glyph glyph-name="braceleft.case" horiz-adv-x="509" 
d="M241 580q7 42 15 68.5t22.5 48.5t32.5 33t51 19t71 10t99 2l-9 -101q-82 0 -113 -22t-43 -84l-20 -116q-7 -34 -27.5 -56t-36.5 -28t-20 -4q-1 0 2 -2.5t8.5 -6.5t11.5 -10t12.5 -14t11 -19t6 -24.5t-1.5 -29.5l-22 -121q-9 -58 11 -75t102 -17l-9 -100q-71 0 -115 5
t-74.5 18.5t-40.5 35.5t-12.5 56t8.5 81l21 122q6 31 -7.5 41t-69.5 10l8 93q56 0 77.5 14t27.5 46z" />
    <glyph glyph-name="braceright.case" horiz-adv-x="509" 
d="M290 113q-7 -43 -15 -69t-22.5 -48.5t-32.5 -33.5t-51 -19t-71.5 -10t-99.5 -2l9 100q81 0 112 22.5t43 84.5l22 116q7 34 27 56.5t36 28.5t20 4q1 0 -2 2.5t-8.5 6t-11.5 9.5t-12.5 14.5t-11 19.5t-6 24t1.5 30l21 120q10 57 -9.5 74t-101.5 17l9 101q71 0 115 -5
t74 -18t40 -35t12.5 -56.5t-8.5 -81.5l-21 -121q-5 -31 7.5 -41t68.5 -10l-7 -94q-56 0 -77.5 -14t-27.5 -46z" />
    <glyph glyph-name="bracketleft.case" horiz-adv-x="464" 
d="M69 -55l144 815h280l-17 -95h-159l-110 -625h158l-16 -95h-280z" />
    <glyph glyph-name="bracketright.case" horiz-adv-x="459" 
d="M280 -55h-279l17 95h158l110 625h-158l17 95h279z" />
    <glyph glyph-name="parenleft.case" horiz-adv-x="419" 
d="M141 354q22 128 60 229.5t65 138.5l26 38h140l-10 -16q-10 -16 -28.5 -51.5t-38 -83t-40.5 -121t-35 -153.5q-21 -139 -18 -227t18 -128l15 -41h-145q-3 5 -6.5 14.5t-11.5 45.5t-11 79.5t1 117.5t19 158z" />
    <glyph glyph-name="parenright.case" horiz-adv-x="419" 
d="M301 760q2 -5 5.5 -15.5t10.5 -48.5t9.5 -82.5t-2.5 -120t-20 -158.5q-14 -81 -35 -152t-41.5 -113.5t-39 -74t-29.5 -43.5l-11 -13h-139l11 15q10 15 28.5 49t38.5 79.5t41.5 118t35.5 153.5q22 139 20 229t-14 133l-13 44h144z" />
    <glyph glyph-name="guillemotleft.case" horiz-adv-x="683" 
d="M193 145l-92 165v24l153 172h153l-179 -187l112 -174h-147zM422 145l-92 165v24l153 172h152l-178 -187l112 -174h-147z" />
    <glyph glyph-name="guillemotright.case" horiz-adv-x="683" 
d="M220 145h-152l176 179l-109 182h146l91 -172l-1 -24zM449 145h-153l176 178l-109 183h146l92 -172l-1 -24z" />
    <glyph glyph-name="guilsinglleft.case" horiz-adv-x="455" 
d="M193 145l-92 165v24l153 172h153l-179 -187l112 -174h-147z" />
    <glyph glyph-name="guilsinglright.case" horiz-adv-x="454" 
d="M220 145h-152l176 179l-109 182h146l91 -172l-1 -24z" />
    <glyph glyph-name="asterisk.sc" horiz-adv-x="497" 
d="M127 518l41 84l93 -39l14 100h85l-21 -100l102 39l13 -84l-108 -25l64 -79l-81 -58l-46 87l-79 -87l-67 58l90 79z" />
    <glyph glyph-name="backslash.sc" horiz-adv-x="511" 
d="M394 -54h-119l-151 711h121z" />
    <glyph glyph-name="braceleft.sc" horiz-adv-x="493" 
d="M227 505q9 51 20 80.5t28 51.5t49 31.5t73.5 13.5t111.5 4l-9 -101q-83 0 -114 -22t-43 -84l-17 -95q-4 -22 -14 -39t-20.5 -26.5t-21.5 -15.5t-18 -7.5t-9 -1.5q-1 0 2 -2t8 -6t11.5 -9.5t12.5 -14t10.5 -19t6 -24t-1.5 -29.5l-18 -102q-10 -58 10 -75t103 -17l-9 -100
q-68 0 -110 5t-71 18.5t-38.5 35.5t-12 56t8.5 81l17 102q6 32 -7.5 42t-69.5 10l8 93q56 0 77.5 14t27.5 46z" />
    <glyph glyph-name="braceright.sc" horiz-adv-x="493" 
d="M272 77q-7 -42 -15 -68.5t-22 -48.5t-31.5 -33t-48.5 -19t-68 -10t-95 -2l9 100q82 0 112.5 22.5t42.5 84.5l18 97q7 34 27.5 56.5t36.5 28.5t20 4q1 0 -2 2.5t-8.5 6t-12 9.5t-12.5 14.5t-10.5 19t-6.5 24t1 29.5l17 100q11 57 -8.5 74t-102.5 17l9 101q57 0 95 -3.5
t66.5 -12.5t43 -22.5t21.5 -36.5t6 -51.5t-8 -70.5l-19 -100q-6 -31 7.5 -41t69.5 -10l-7 -93q-56 0 -78 -14t-28 -46z" />
    <glyph glyph-name="bracketleft.sc" horiz-adv-x="459" 
d="M61 -94l137 773h269l-16 -94h-160l-103 -584h160l-17 -95h-270z" />
    <glyph glyph-name="bracketright.sc" horiz-adv-x="459" 
d="M263 -94h-269l17 95h157l103 584h-157l16 94h270z" />
    <glyph glyph-name="uni2016.sc" horiz-adv-x="466" 
d="M21 -72l131 746h97l-132 -746h-96zM227 -72l131 746h97l-131 -746h-97z" />
    <glyph glyph-name="exclam.sc" horiz-adv-x="301" 
d="M74 182l64 413h138l-82 -413h-120zM34 0l23 135h138l-24 -135h-137z" />
    <glyph glyph-name="exclamdown.sc" horiz-adv-x="301" 
d="M115 461l23 134h138l-24 -134h-137zM34 0l80 413h121l-64 -413h-137z" />
    <glyph glyph-name="numbersign.sc" horiz-adv-x="730" 
d="M85 0l56 143h-80l17 94h99l47 120h-84l17 93h104l50 128h92l-50 -128h128l50 128h93l-50 -128h84l-17 -93h-104l-47 -120h88l-17 -94h-107l-56 -143h-92l55 143h-128l-55 -143h-93zM270 237h128l47 120h-128z" />
    <glyph glyph-name="parenleft.sc" horiz-adv-x="387" 
d="M129 282q13 77 33.5 145.5t39.5 111t36.5 74.5t27.5 45l11 14h133q-4 -6 -12 -16.5t-29 -49t-40 -82t-41 -114.5t-35 -147q-20 -130 -16.5 -214.5t17.5 -124.5l14 -40h-128q-2 5 -6 14.5t-12 44.5t-11 77t0.5 112.5t17.5 149.5z" />
    <glyph glyph-name="parenright.sc" horiz-adv-x="387" 
d="M270 671q2 -5 5.5 -15t10.5 -47t9.5 -80t-2 -115t-18.5 -151q-13 -76 -34 -143.5t-41 -108.5t-38 -71.5t-29 -43.5l-11 -12h-133q5 5 13 15.5t30 47t41.5 78.5t41.5 111.5t35 145.5q20 131 18 217.5t-14 128.5l-13 43h129z" />
    <glyph glyph-name="question.sc" horiz-adv-x="577" 
d="M89 449q48 170 236 170q119 0 168 -53.5t34 -134.5q-7 -38 -27.5 -68t-47 -50.5t-52.5 -39t-47.5 -42.5t-28.5 -52l-4 -21h-129l6 31q6 35 27 64t46.5 49t51 39t45.5 44.5t26 55.5q6 29 -11.5 49t-57.5 20q-43 0 -74 -23.5t-43 -61.5zM163 0l20 115h129l-20 -115h-129z
" />
    <glyph glyph-name="questiondown.sc" horiz-adv-x="588" 
d="M434 596l-20 -116h-129l20 116h129zM509 149q-46 -173 -237 -173q-118 0 -167.5 54t-34.5 134q8 46 38.5 83t63 56.5t63 49t38.5 63.5l5 22h129l-6 -31q-7 -35 -28 -64t-46.5 -49t-51.5 -39t-46 -44t-25 -55q-6 -29 11.5 -50t57.5 -21q44 0 75.5 25t42.5 64z" />
    <glyph glyph-name="quotedbl.sc" horiz-adv-x="448" 
d="M105 421l22 241h146l-63 -241h-105zM292 421l22 241h146l-63 -241h-105z" />
    <glyph glyph-name="quotedblleft.sc" horiz-adv-x="487" 
d="M93 397q0 3 3.5 18t16.5 52t33 78t41 71.5t31 40.5l11 10h101q-37 -62 -72 -153q-14 -38 -23.5 -67t-12.5 -39l-2 -11h-127zM271 397q9 55 53 148q20 40 41 70.5t31 40.5l11 11h101q-37 -63 -71 -153q-14 -38 -23.5 -67t-11.5 -39l-3 -11h-128z" />
    <glyph glyph-name="quotedblright.sc" horiz-adv-x="487" 
d="M72 399q37 65 71 156q15 38 24.5 66t11.5 37l2 10h128q-8 -51 -53 -143q-20 -41 -41 -72.5t-31 -42.5l-11 -11h-101zM250 399q37 65 71 156q15 38 24.5 66t12.5 37l2 10h127q-7 -51 -53 -143q-20 -41 -40.5 -72.5t-31.5 -42.5l-10 -11h-102z" />
    <glyph glyph-name="quoteleft.sc" horiz-adv-x="309" 
d="M93 397q8 55 53 148q20 40 41 71t31 42l11 10l101 -1q-37 -63 -72 -153q-15 -38 -24.5 -67t-11.5 -39l-2 -11h-127z" />
    <glyph glyph-name="quoteright.sc" horiz-adv-x="309" 
d="M72 400q37 64 71 155q15 38 24.5 66t11.5 37l2 10h128q-8 -51 -53 -143q-20 -41 -41 -72.5t-31 -42.5l-11 -11z" />
    <glyph glyph-name="quotesingle.sc" horiz-adv-x="261" 
d="M105 421l22 241h146l-63 -241h-105z" />
    <glyph glyph-name="slash.sc" horiz-adv-x="507" 
d="M-2 -63l394 709h125l-394 -709h-125z" />
    <glyph glyph-name="paragraph.alt" horiz-adv-x="735" 
d="M307 0l48 275q-85 2 -137 15t-85.5 41.5t-38.5 76.5t5 120q13 75 37 120t70 71t106 35t158 9h259l-134 -763h-97l117 669h-94l-117 -669h-97z" />
    <glyph glyph-name="registered.alt" horiz-adv-x="569" 
d="M549 512q-40 -216 -252 -216q-119 0 -163 65.5t-26 170.5q17 98 78.5 159t173.5 61q62 0 105 -19.5t62 -52.5t25.5 -76.5t-3.5 -91.5zM156 512q-31 -172 132 -172q179 0 213 192q32 176 -131 176q-95 0 -147 -55t-67 -141zM213 402l43 243h94q54 0 75.5 -21t12.5 -72
q-5 -31 -17.5 -46t-36.5 -21l24 -83h-52l-21 79h-54l-14 -79h-54zM302 602l-14 -78h37q54 0 62 48q4 7 1 11.5t-1.5 8t-4 5.5t-5.5 3t-8 1.5t-10 0.5h-12h-45z" />
    <glyph glyph-name="at.case" horiz-adv-x="951" 
d="M710 159q34 0 59.5 42.5t45.5 156.5q29 167 -30.5 253.5t-229.5 86.5q-169 0 -265 -95t-125 -259q-59 -336 252 -336q127 0 207 35l-7 -86q-78 -26 -197 -26q-111 0 -187.5 33t-112.5 91t-47 137t8 171q16 88 50.5 160t90.5 130t140 90t190 32q90 0 158.5 -21.5
t109.5 -60t64.5 -91.5t25 -117t-9.5 -137q-25 -140 -71.5 -199t-137.5 -60q-101 0 -120 84q-57 -53 -150 -53q-188 0 -147 238q39 220 211 220q83 0 133 -56l16 50h88l-54 -308q-18 -105 42 -105zM439 206q91 0 132 63l1 1v3l29 167q-24 51 -94 51q-53 0 -88 -40.5
t-48 -111.5q-21 -133 68 -133z" />
    <glyph glyph-name="ampersand.sc" horiz-adv-x="694" 
d="M462 449q2 36 -11 52.5t-50 16.5q-92 0 -107 -83q-3 -18 0.5 -34.5t15.5 -36t23 -33.5t34.5 -41.5t37.5 -46.5q9 -10 29 -30.5t29 -30.5q32 54 49 139l105 -24q-26 -117 -85 -189l73 -79l-3 -34h-120l-32 39q-82 -50 -196 -50q-113 0 -163 51t-33 147q11 66 53.5 105
t91.5 57q-32 60 -20 121q24 144 217 144q95 0 138.5 -40.5t38.5 -112.5zM277 72q67 0 117 33l-91 117q-29 29 -49 53q-74 -44 -85 -112q-7 -43 16.5 -67t91.5 -24z" />
    <glyph glyph-name="degree.sc" horiz-adv-x="424" 
d="M381 506q-21 -117 -139 -117q-66 0 -95.5 35.5t-17.5 101.5q21 119 141 119q66 0 94.5 -35.5t16.5 -103.5zM203 506q-10 -52 33 -52q59 0 71 72q10 54 -32 54q-32 0 -49.5 -21.5t-22.5 -52.5z" />
    <glyph glyph-name="bar.sc" horiz-adv-x="260" 
d="M21 -72l131 746h97l-132 -746h-96z" />
    <glyph glyph-name="brokenbar.sc" horiz-adv-x="260" 
d="M102 385l50 289h97l-51 -289h-96zM176 257l-59 -329h-96l58 329h97z" />
    <glyph glyph-name="cent.sc" horiz-adv-x="560" 
d="M193 -17l11 68q-183 25 -143 247q19 106 72.5 163.5t155.5 66.5l11 65h88l-11 -66q156 -19 150 -165l-126 -5q1 41 -17 57.5t-58 16.5q-57 0 -89.5 -36.5t-46.5 -115.5q-13 -72 2.5 -101.5t66.5 -29.5q89 0 116 73l123 -24q-23 -69 -71 -105.5t-135 -42.5l-11 -66h-88z
" />
    <glyph glyph-name="dollar.sc" horiz-adv-x="553" 
d="M174 -32l12 67q-155 22 -146 153l108 4q-1 -40 21.5 -57.5t73.5 -18.5q111 -3 126 77q5 26 -16.5 42.5t-56.5 23t-75.5 18t-74 26t-51.5 47.5t-9 82q24 137 196 150l10 55h90l-10 -58q150 -18 142 -142l-109 -5q1 32 -16 48.5t-69 17.5q-57 1 -87 -21t-36 -56
q-5 -26 16.5 -42.5t56.5 -23t75.5 -18t74.5 -25.5t52 -47t10 -81q-27 -142 -207 -152l-11 -64h-90z" />
    <glyph glyph-name="Euro.sc" horiz-adv-x="620" 
d="M530 128q-45 -142 -225 -142q-117 0 -166 50t-47 155h-68l12 68h61q4 28 7 43l3 18h-61l13 69h64q32 109 94 160t179 51q101 0 148 -43t42 -121l-109 -2q0 67 -75 67q-99 0 -142 -112h192l-13 -69h-200l-7 -37l-4 -24h201l-12 -68h-196q-1 -55 20 -80.5t71 -25.5
q39 0 69 17.5t41 46.5z" />
    <glyph glyph-name="percent.sc" horiz-adv-x="820" 
d="M390 438q-13 -71 -52.5 -106.5t-120.5 -35.5q-166 0 -137 162q13 72 53 108.5t120 36.5q166 0 137 -165zM92 0l512 587h124l-512 -587h-124zM163 438q-7 -37 4.5 -54.5t44.5 -17.5q79 0 95 92q7 39 -3.5 57t-45.5 18q-78 0 -95 -95zM737 125q-13 -71 -53 -106.5
t-120 -35.5q-167 0 -138 162q13 73 53.5 109t121.5 36q87 0 118 -42.5t18 -122.5zM510 125q-7 -37 4 -54t45 -17q78 0 95 91q6 38 -4.5 56.5t-43.5 18.5q-80 0 -96 -95z" />
    <glyph glyph-name="perthousand.sc" horiz-adv-x="1155" 
d="M390 438q-13 -71 -52.5 -106.5t-120.5 -35.5q-166 0 -137 162q13 72 53 108.5t120 36.5q166 0 137 -165zM92 0l512 587h124l-512 -587h-124zM163 438q-7 -37 4.5 -54.5t44.5 -17.5q79 0 95 92q7 39 -3.5 57t-45.5 18q-78 0 -95 -95zM737 125q-13 -71 -53 -106.5
t-120 -35.5q-167 0 -138 162q13 73 53.5 109t121.5 36q87 0 118 -42.5t18 -122.5zM1080 125q-13 -71 -53 -106.5t-121 -35.5q-166 0 -137 162q13 72 53 108.5t121 36.5q165 0 137 -165zM510 125q-7 -37 4 -54t45 -17q78 0 95 91q6 38 -4.5 56.5t-43.5 18.5q-80 0 -96 -95z
M852 125q-7 -37 4 -54t45 -17q78 0 95 91q6 38 -4.5 56.5t-43.5 18.5q-80 0 -96 -95z" />
    <glyph glyph-name="uni20BD.sc" horiz-adv-x="656" 
d="M66 0l19 112h-75l14 81h75l10 56h-75l16 92l75 -1l46 258h198q161 0 219 -39.5t39 -145.5q-17 -99 -83 -131.5t-228 -32.5h-75l-10 -56h152l-14 -81h-152l-19 -112h-132zM287 506l-30 -166h82q67 0 106 19.5t49 72.5q8 46 -20 60t-96 14h-91z" />
    <glyph glyph-name="sterling.sc" horiz-adv-x="557" 
d="M255 205q0 -6 -2 -18q-11 -62 -59 -94l276 6l-18 -102h-452l16 91l-3 1q8 2 28 11t47 34t33 55q2 10 2 16h-96l13 75h79q-3 13 -10.5 36t-11 35.5t-6 39.5t3.5 48q11 67 71.5 110t168.5 43q113 0 159.5 -45.5t39.5 -128.5l-126 -7q5 75 -69 75q-47 0 -77.5 -25t-38.5 -66
q-3 -17 1 -34.5t13.5 -41t13.5 -39.5h137l-13 -75h-120z" />
    <glyph glyph-name="yen.sc" horiz-adv-x="597" 
d="M188 0l21 125h-100l13 71h100l7 41h-100l13 71h75l-131 284h145l78 -240l159 240h159l-233 -284h72l-13 -71h-98l-8 -41h99l-13 -71h-98l-22 -125h-125z" />
    <glyph glyph-name="section.sups" horiz-adv-x="405" 
d="M320 673q1 16 -5.5 22t-27.5 6q-54 0 -60 -39q-3 -16 21 -23.5t54 -10t52 -22.5t15 -58q-6 -28 -36 -50q23 -21 16 -60q-13 -70 -123 -70q-62 0 -88 22t-21 63l63 -5q-3 -34 35 -34q27 0 45 11t20 28q3 18 -20.5 26.5t-53 12t-51 23t-15.5 57.5q5 28 36 49q-23 20 -15 59
q11 67 115 67q60 0 85 -20.5t22 -57.5zM207 556q-1 -5 0 -9.5t5 -7.5t8.5 -5t12 -4t13 -3t15.5 -3t16 -3q20 18 24 38q1 6 0 10.5t-5 7.5t-8 5.5t-12 4.5t-13 3.5t-15.5 3.5t-15.5 3q-22 -22 -25 -41z" />
    <glyph glyph-name="dagger.sups" horiz-adv-x="387" 
d="M154 666h70l14 78h77l-14 -78h71l-11 -65h-71l-40 -226h-77l40 226h-71z" />
    <glyph glyph-name="daggerdbl.sups" horiz-adv-x="387" 
d="M154 666h70l14 78h77l-14 -78h71l-11 -65h-72l-14 -83h71l-12 -66h-71l-13 -77h-77l13 77h-70l12 66h70l14 83h-70z" />
    <glyph glyph-name="caroncomb.alt" 
d="M-211 584l89 180h111l-118 -180h-82z" />
    <glyph glyph-name="uni0308.case" 
d="M-308 771l26 143h138l-26 -143h-138zM-92 771l25 143h138l-26 -143h-137z" />
    <glyph glyph-name="uni0307.case" 
d="M-102 771l25 143h138l-25 -143h-138z" />
    <glyph glyph-name="gravecomb.case" 
d="M36 772h-132l-84 135h152z" />
    <glyph glyph-name="acutecomb.case" 
d="M-196 771l113 135h157l-131 -135h-139z" />
    <glyph glyph-name="uni030B.case" 
d="M-395 772l108 135h144l-126 -135h-126zM-204 772l127 135h145l-147 -135h-125z" />
    <glyph glyph-name="caroncomb.alt.case" 
d="M-194 771l95 185h117l-114 -185h-98z" />
    <glyph glyph-name="uni0302.case" 
d="M15 771h-127l-53 66l-76 -66h-130l142 138h146z" />
    <glyph glyph-name="uni030C.case" 
d="M79 909l-147 -138h-147l-92 138h122l53 -66l76 66h135z" />
    <glyph glyph-name="uni0306.case" 
d="M58 900q-9 -53 -57 -95t-133 -42q-92 0 -130 42t-29 95h100q-3 -20 15 -35.5t46 -15.5t53 15.5t29 35.5h106z" />
    <glyph glyph-name="uni030A.case" 
d="M49 863q-9 -49 -43.5 -76t-86.5 -27q-59 0 -88.5 32.5t-19.5 89.5q9 50 43 76t87 26q59 0 88.5 -32.5t19.5 -88.5zM-108 863q-6 -28 23 -28q20 0 35 13t19 34q3 27 -24 27q-20 0 -35 -13t-18 -33z" />
    <glyph glyph-name="tildecomb.case" 
d="M41 910q-11 -67 -38 -104t-84 -37q-35 0 -57.5 12t-38 24t-34.5 12q-27 0 -43.5 -18.5t-18.5 -34.5l-70 10q12 67 38.5 103.5t83.5 36.5q35 0 57.5 -12t37.5 -23.5t34 -11.5q27 0 44 19t19 34z" />
    <glyph glyph-name="uni0304.case" 
d="M-253 882h300l-18 -98h-299z" />
    <glyph glyph-name="uni0338.case" 
d="M-581 13l653 738h99l-654 -738h-98z" />
    <glyph glyph-name="uni0335.sc" horiz-adv-x="381" 
d="M42 309l10 76h297l-10 -76h-297z" />
    <glyph glyph-name="uni0336.sc" horiz-adv-x="873" 
d="M111 310l10 73h645l-10 -73h-645z" />
    <glyph glyph-name="uni0338.sc" horiz-adv-x="441" 
d="M-64 75l483 623h86l-482 -623h-87z" />
    <glyph glyph-name="bitcoin" horiz-adv-x="665" 
d="M155 -47l16 90h-88v1h-35l114 648h123l16 86h78l-16 -86h52l16 86h79l-17 -92q84 -13 113 -54.5t16 -116.5q-10 -53 -37 -87.5t-82 -51.5q105 -36 82 -162q-14 -85 -55 -122t-149 -46l-16 -93h-79l15 90h-52l-16 -90h-78zM272 595l-30 -170h114q70 0 102.5 22t41.5 72
q7 43 -17 59.5t-89 16.5h-122zM225 331l-33 -191h113q81 0 116.5 22.5t45.5 81.5q8 48 -18 67.5t-101 19.5h-123z" />
    <glyph glyph-name="bitcoin.sc" horiz-adv-x="573" 
d="M125 -39l13 74h-71v1h-33l96 543h103l13 71h73l-13 -71h43l13 71h73l-14 -77q71 -12 95.5 -47t13.5 -98q-16 -89 -99 -115q88 -31 69 -134q-13 -72 -47 -103t-126 -39l-13 -76h-73l13 74h-44l-13 -74h-72zM233 491l-24 -135h89q57 0 83.5 17.5t33.5 58.5q6 34 -13 46.5
t-73 12.5h-96zM195 274l-27 -151h87q66 -1 95.5 17.5t37.5 65.5q7 39 -13.5 53.5t-82.5 14.5h-97z" />
    </font>
</defs>
</svg>
