<svg xmlns="http://www.w3.org/2000/svg">
<defs>
<font id="TofinoProPersonalText-BoldItalic" horiz-adv-x="0" >
  <font-face 
    font-family="Tofino Pro Personal Text"
    font-weight="435"
    font-style="italic"
    font-stretch="normal"
    units-per-em="1000"
    panose-1="0 0 5 0 0 0 0 0 0 0"
    ascent="760"
    descent="-240"
    x-height="544"
    cap-height="720"
    bbox="-809 -300 1398.38 1188"
    underline-thickness="50"
    underline-position="-225"
    slope="-10"
    unicode-range="U+000D-2661"
  />
<missing-glyph horiz-adv-x="629" 
d="M507 521q13 -9 15 -30t-11 -32q-10 -7 -24 -7q-15 0 -46 9q60 -63 60 -152q0 -87 -58 -149t-140 -62q-81 0 -139 62t-58 149q0 94 63 155q-22 31 -8 64q13 31 53 51.5t89 20.5q50 0 91.5 -21.5t55.5 -54.5l1 -2q38 12 56 -1zM303 576q-41 0 -75.5 -16.5t-44.5 -40.5
q-9 -19 4 -39q51 40 112 41q0 12 3 20q9 21 25 25q21 5 63 -33l2 -2q8 3 15 3q3 0 9 -2q-17 20 -49 32t-64 12zM325 532q-3 -8 -1 -12q5 -9 43 -14q1 -1 3 -1q1 1 1 3l3 7q-33 30 -42 28q-4 -2 -7 -11zM408 484q11 0 13 9q2 6 -1 10q-3 5 -9 6q-1 1 -4 1q-10 0 -13 -9
q-1 -3 1 -9q4 -6 9 -7zM446 485q43 -13 50 -7q4 2 2 12q0 8 -4 12q-8 6 -45 -5q-1 -1 -4 -1q0 -7 -1 -10q1 -1 2 -1zM234 482q-16 -18 -5 -41q16 -34 79.5 -61t162.5 -22q-17 65 -66 103q-5 0 -8 1q-15 5 -22 18h-1l-10 2q-35 4 -49 14q-4 1 -12 1q-36 0 -69 -15zM208 431
q-7 14 -7 30q-54 -44 -67 -112q29 -1 61 10t52 27q-27 20 -39 45zM453 318q9 12 14 16h-24q-105 0 -175 39q-46 -44 -124 -48l8 -7q16 9 57 9q50 0 71 -10q23 -11 46 0q20 10 71 10q43 0 56 -9zM130 309q0 -77 51 -132.5t122 -55.5q72 0 123 55.5t51 132.5q0 3 -0.5 8.5
t-0.5 8.5q-7 -6 -16 -18v-1q3 -28 -7 -50t-32 -25q-16 -2 -32 -2q-35 0 -47 7q-21 12 -28 45q-1 2 -1 5q-3 10 -11 10q-6 0 -9 -10q-1 -1 -1 -5q-7 -33 -29 -45q-12 -7 -47 -7q-17 0 -31 2q-22 3 -32.5 25.5t-7.5 49.5v1l-15 14v-13zM258 247q17 10 22 37q3 13 -2 20l-2 2

<glyph glyph-name="f_f" unicode="ff" horiz-adv-x="883" 
d="M67 0l71 403h-75l20 113h75l10 58q34 193 230 193h92l-23 -131h-30q-96 0 -113 -100l-4 -20h126l-19 -113h-127l-70 -403h-163zM510 0l71 403h-75l19 113h76l10 58q34 193 230 193h92l-23 -131h-30q-96 0 -113 -100l-4 -20h125l-19 -113h-126l-70 -403h-163z" />
    <glyph glyph-name="f_f_i" unicode="ffi" horiz-adv-x="1218" 
d="M67 0l71 403h-75l20 113h75l10 58q34 193 230 193h92l-23 -131h-30q-96 0 -113 -100l-4 -20h126l-19 -113h-127l-70 -403h-163zM510 0l71 403h-75l19 113h76l10 58q34 193 230 193h92l-23 -131h-30q-96 0 -113 -100l-4 -20h125l-19 -113h-126l-70 -403h-163zM1032 627
l24 134h163l-23 -134h-164zM922 0l96 546h163l-95 -546h-164z" />
    <glyph glyph-name="f_f_l" unicode="ffl" horiz-adv-x="1214" 
d="M67 0l71 403h-75l20 113h75l10 58q34 193 230 193h92l-23 -131h-30q-96 0 -113 -100l-4 -20h126l-19 -113h-127l-70 -403h-163zM510 0l71 403h-75l19 113h76l10 58q34 193 230 193h92l-23 -131h-30q-96 0 -113 -100l-4 -20h125l-19 -113h-126l-70 -403h-163zM1116 -1
q-64 0 -103 18t-52 48t-15.5 69t7.5 80l96 546h163l-97 -550q-12 -74 28 -74h45l-24 -137h-48z" />
    <glyph glyph-name=".notdef" horiz-adv-x="629" 
d="M507 521q13 -9 15 -30t-11 -32q-10 -7 -24 -7q-15 0 -46 9q60 -63 60 -152q0 -87 -58 -149t-140 -62q-81 0 -139 62t-58 149q0 94 63 155q-22 31 -8 64q13 31 53 51.5t89 20.5q50 0 91.5 -21.5t55.5 -54.5l1 -2q38 12 56 -1zM303 576q-41 0 -75.5 -16.5t-44.5 -40.5
q-9 -19 4 -39q51 40 112 41q0 12 3 20q9 21 25 25q21 5 63 -33l2 -2q8 3 15 3q3 0 9 -2q-17 20 -49 32t-64 12zM325 532q-3 -8 -1 -12q5 -9 43 -14q1 -1 3 -1q1 1 1 3l3 7q-33 30 -42 28q-4 -2 -7 -11zM408 484q11 0 13 9q2 6 -1 10q-3 5 -9 6q-1 1 -4 1q-10 0 -13 -9
q-1 -3 1 -9q4 -6 9 -7zM446 485q43 -13 50 -7q4 2 2 12q0 8 -4 12q-8 6 -45 -5q-1 -1 -4 -1q0 -7 -1 -10q1 -1 2 -1zM234 482q-16 -18 -5 -41q16 -34 79.5 -61t162.5 -22q-17 65 -66 103q-5 0 -8 1q-15 5 -22 18h-1l-10 2q-35 4 -49 14q-4 1 -12 1q-36 0 -69 -15zM208 431
q-7 14 -7 30q-54 -44 -67 -112q29 -1 61 10t52 27q-27 20 -39 45zM453 318q9 12 14 16h-24q-105 0 -175 39q-46 -44 -124 -48l8 -7q16 9 57 9q50 0 71 -10q23 -11 46 0q20 10 71 10q43 0 56 -9zM130 309q0 -77 51 -132.5t122 -55.5q72 0 123 55.5t51 132.5q0 3 -0.5 8.5
t-0.5 8.5q-7 -6 -16 -18v-1q3 -28 -7 -50t-32 -25q-16 -2 -32 -2q-35 0 -47 7q-21 12 -28 45q-1 2 -1 5q-3 10 -11 10q-6 0 -9 -10q-1 -1 -1 -5q-7 -33 -29 -45q-12 -7 -47 -7q-17 0 -31 2q-22 3 -32.5 25.5t-7.5 49.5v1l-15 14v-13zM258 247q17 10 22 37q3 13 -2 20l-2 2
h-1q-18 10 -66 10q-18 0 -30.5 -2t-17 -4.5t-4.5 -3.5q-2 -21 5 -40.5t24 -21.5q16 -2 30 -2q32 0 42 5zM389 242q15 0 31 2q17 2 24 22t5 40q-5 10 -52 10q-48 0 -66 -10q-1 0 -1 -1l-2 -1q-5 -7 -2 -20q3 -26 22 -37q10 -5 41 -5zM232 294q11 -6 11 -21q0 -10 -7 -17
t-17 -7t-17 7t-7 17q0 5 1 8l-11 9q-3 2 0 5q2 2 5 0l9 -8l3 4l-6 11q-1 1 -0.5 2.5t1.5 2.5q3 2 5 -2l6 -10l4 2l-2 12q0 4 4 4q2 0 4 -3l1 -12q1 0 3 -0.5t3 -0.5l3 13q2 3 5 3q4 -2 2 -5zM420 295q1 1 2.5 1t2.5 -1q2 -4 -1 -5l-10 -10q0 -1 0.5 -3t0.5 -4
q0 -10 -7.5 -17t-17.5 -7t-17 7t-7 17q0 14 12 21l-4 14q0 4 3 5q4 0 4 -3l3 -13q2 1 6 1l2 12q0 3 4 3q3 0 3 -4l-2 -12l5 -2l6 10q2 4 4 2q1 -1 2 -2.5t0 -2.5l-7 -11q3 -1 3 -4zM302 143q23 0 38.5 10.5t15.5 26.5q0 15 -16 25.5t-38 10.5t-38 -10.5t-16 -25.5
q0 -16 15.5 -26.5t38.5 -10.5z" />
    <glyph glyph-name=".null" 
 />
    <glyph glyph-name="nonmarkingreturn" horiz-adv-x="333" 
 />
    <glyph glyph-name="NULL" 
 />
    <glyph glyph-name="NULL" 
 />
    <glyph glyph-name="CR" unicode="&#xd;" horiz-adv-x="250" 
 />
    <glyph glyph-name="space" unicode=" " horiz-adv-x="260" 
 />
    <glyph glyph-name="exclam" unicode="!" horiz-adv-x="341" 
d="M85 189l82 531h164l-105 -531h-141zM41 0l25 144h164l-26 -144h-163z" />
    <glyph glyph-name="quotedbl" unicode="&#x22;" horiz-adv-x="494" 
d="M119 494l22 260h172l-70 -260h-124zM330 494l22 260h172l-70 -260h-124z" />
    <glyph glyph-name="numbersign" unicode="#" horiz-adv-x="860" 
d="M110 0l66 171h-94l20 118h119l55 142h-99l20 118h124l59 153h128l-59 -153h122l59 153h128l-59 -153h97l-20 -118h-122l-55 -142h102l-20 -118h-127l-66 -171h-128l66 171h-122l-66 -171h-128zM349 289h122l55 142h-122z" />
    <glyph glyph-name="dollar" unicode="$" horiz-adv-x="647" 
d="M208 -37l14 80q-89 13 -132 62t-36 131l138 7q-3 -47 23 -67.5t82 -21.5t93.5 20.5t44.5 63.5q6 33 -30 51t-90 28.5t-106.5 27t-83.5 59t-18 111.5q32 165 230 181l12 65h111l-12 -67q178 -24 165 -184l-137 -6q3 37 -17 56.5t-76 20.5q-121 1 -137 -85q-4 -24 14 -39.5
t50 -24t71 -16.5t77 -20.5t68 -31.5t44.5 -55.5t5.5 -86.5q-30 -170 -243 -183l-14 -76h-111z" />
    <glyph glyph-name="percent" unicode="%" horiz-adv-x="972" 
d="M468 524q-15 -85 -62 -128t-143 -43q-196 0 -164 194q16 87 64.5 130.5t143.5 43.5q105 0 141.5 -50.5t19.5 -146.5zM116 0l603 702h156l-603 -702h-156zM203 524q-8 -44 4 -64t50 -20q88 0 107 107q9 46 -2.5 67t-49.5 21q-88 0 -109 -111zM888 150
q-15 -85 -62.5 -127.5t-143.5 -42.5q-104 0 -142 49.5t-21 143.5q15 87 63.5 131.5t144.5 44.5q103 0 140.5 -51t20.5 -148zM622 150q-8 -44 4.5 -64t50.5 -20q46 0 71.5 26.5t36.5 80.5q8 46 -3.5 67t-49.5 21q-91 0 -110 -111z" />
    <glyph glyph-name="ampersand" unicode="&#x26;" horiz-adv-x="819" 
d="M547 541q5 42 -9.5 61.5t-54.5 19.5q-53 0 -82 -26.5t-36 -66.5q-4 -22 0 -42t18.5 -44t27 -41t40 -50.5t43.5 -55.5q7 -8 19.5 -21t22.5 -24.5t19 -21.5q37 66 57 165l131 -29q-30 -139 -102 -231l87 -97l-4 -44h-150l-37 47q-98 -60 -233 -60q-134 0 -192.5 62
t-38.5 179q24 139 173 197q-38 72 -25 146q32 177 263 177q118 0 170 -52.5t43 -144.5zM336 91q75 0 132 39q-57 73 -104 137q-38 42 -55 62q-83 -52 -97 -130q-8 -51 19 -79.5t105 -28.5z" />
    <glyph glyph-name="quotesingle" unicode="'" horiz-adv-x="283" 
d="M119 494l22 260h172l-70 -260h-124z" />
    <glyph glyph-name="parenleft" unicode="(" horiz-adv-x="429" 
d="M103 292q14 81 39 158.5t50 131t48 95.5t38 63l14 20h157q-6 -8 -16.5 -23.5t-39 -66t-52.5 -104t-51 -135t-41 -162.5q-21 -140 -14 -243.5t25 -161.5l19 -59h-152q-3 8 -8 22t-15 62.5t-15.5 101.5t-3 135t17.5 166z" />
    <glyph glyph-name="parenright" unicode=")" horiz-adv-x="429" 
d="M311 760q3 -8 7.5 -22.5t14 -63.5t13.5 -102.5t1 -136t-18 -166.5q-14 -81 -39.5 -158.5t-51.5 -130t-50.5 -94t-39.5 -61.5l-15 -20h-156q6 8 17 23t40.5 65t54.5 103t52 134t41 162q21 140 16 244t-22 164l-16 60h151z" />
    <glyph glyph-name="asterisk" unicode="*" horiz-adv-x="526" 
d="M138 567l47 99l94 -41l14 101h99l-23 -101l106 41l15 -99l-113 -24l68 -81l-95 -67l-45 91l-79 -91l-79 67l94 81z" />
    <glyph glyph-name="plus" unicode="+" horiz-adv-x="567" 
d="M77 378h166l29 165h118l-29 -165h166l-18 -106h-167l-29 -165h-118l29 165h-166z" />
    <glyph glyph-name="comma" unicode="," horiz-adv-x="343" 
d="M-26 -133q40 68 77 164q16 40 25.5 71t11.5 42l2 11h151q-10 -60 -58 -160q-22 -44 -44 -76t-33 -42l-11 -10h-121z" />
    <glyph glyph-name="hyphen" unicode="-" horiz-adv-x="475" 
d="M101 255l22 124h268l-22 -124h-268z" />
    <glyph glyph-name="period" unicode="." horiz-adv-x="342" 
d="M40 0l27 149h166l-27 -149h-166z" />
    <glyph glyph-name="slash" unicode="/" horiz-adv-x="580" 
d="M2 -40l473 843h148l-473 -843h-148z" />
    <glyph glyph-name="zero" unicode="0" horiz-adv-x="701" 
d="M638 271q-27 -147 -102 -217.5t-226 -70.5q-160 0 -215 77.5t-27 233.5q26 147 100.5 217t226.5 71q158 1 214 -77.5t29 -233.5zM231 271q-16 -92 1 -127t79 -35q72 0 109 42.5t54 142.5q16 92 -0.5 127t-80.5 35q-71 0 -108 -43t-54 -142z" />
    <glyph glyph-name="one" unicode="1" horiz-adv-x="464" 
d="M1 0l21 114h111l51 293l-103 -22l21 125l167 57l2 2h98l-80 -455h109l-20 -114h-377z" />
    <glyph glyph-name="two" unicode="2" horiz-adv-x="618" 
d="M75 410q24 82 87 126t181 44q61 0 106 -11t70 -29.5t40 -43.5t15.5 -53.5t-3.5 -58.5q-4 -23 -11.5 -42.5t-22 -39.5t-24.5 -33t-34.5 -33.5t-35 -29t-43 -33t-42.5 -31.5l-34 -20l200 7l-23 -129h-498l6 33l13 77l1 2h4q72 31 163 83q51 29 82 48.5t66.5 46t54.5 52.5
t24 53q6 27 -10.5 44t-62.5 17q-47 0 -79.5 -23.5t-43.5 -57.5z" />
    <glyph glyph-name="three" unicode="3" horiz-adv-x="638" 
d="M404 304q175 -41 143 -226q-8 -46 -27.5 -84.5t-54.5 -71.5t-92 -51.5t-131 -18.5q-133 0 -190.5 59.5t-50.5 150.5l160 7q-1 -36 19 -57t63 -21q59 0 96 34t46 89q9 51 -18 78.5t-94 27.5q-24 0 -47 -3t-34 -5l-11 -3l12 94l207 133l-309 -9l25 143h505l-22 -127z" />
    <glyph glyph-name="four" unicode="4" horiz-adv-x="669" 
d="M334 -152l27 152h-370l20 125l378 445h227l-79 -445h83l-21 -125h-84l-26 -152h-155zM383 125l55 310l-255 -310h200z" />
    <glyph glyph-name="five" unicode="5" horiz-adv-x="651" 
d="M294 439l-51 -151q57 37 142 37q62 0 105.5 -21.5t63 -56t26 -79t-4.5 -91.5q-17 -101 -90.5 -166t-219.5 -65q-133 0 -193.5 53.5t-61.5 130.5l168 10q3 -26 25.5 -43.5t64.5 -17.5q60 0 97.5 33.5t47.5 87.5q8 49 -12 79t-65 30q-39 0 -72.5 -12.5t-46 -22t-18.5 -16.5
l-152 1l133 410h440l-23 -136z" />
    <glyph glyph-name="six" unicode="6" horiz-adv-x="696" 
d="M510 533q-4 63 -83 63q-59 0 -99 -39.5t-69 -140.5q70 45 163 45q129 0 180.5 -69.5t32.5 -175.5q-19 -101 -95 -165.5t-224 -65.5q-158 -1 -214 84t-25 259q38 219 118 307t231 88q124 0 182 -53.5t58 -127.5zM383 349q-87 0 -152 -65q-14 -90 6.5 -130t80.5 -40
q66 0 104.5 36t48.5 95q20 104 -88 104z" />
    <glyph glyph-name="seven" unicode="7" horiz-adv-x="566" 
d="M66 -160q16 92 56.5 187.5t87 166.5t90.5 128t73 87l29 30l-349 -10l25 141h514l-23 -136q-12 -12 -32 -33.5t-73 -88.5t-96 -133.5t-85.5 -160.5t-57.5 -178h-159z" />
    <glyph glyph-name="eight" unicode="8" horiz-adv-x="708" 
d="M314 -12q-164 0 -224 58.5t-41 166.5q14 79 67 123t92 47q-7 1 -21 10.5t-30.5 27t-25 49t-1.5 67.5q16 88 83.5 137t210.5 49q150 0 206 -56t38 -153q-7 -43 -35 -75t-52.5 -44t-41.5 -13q12 -2 30 -14.5t36.5 -34t28 -60t1.5 -83.5q-12 -65 -44 -108t-101 -68.5
t-176 -25.5zM425 614q-115 0 -135 -115q-6 -35 14 -56t67 -21q54 0 89 28.5t43 71.5q16 92 -78 92zM374 329q-60 0 -98.5 -34t-47.5 -86q-18 -97 88 -97q62 0 99 32t47 88q7 43 -14 70t-74 27z" />
    <glyph glyph-name="nine" unicode="9" horiz-adv-x="701" 
d="M182 32q4 -67 97 -67q59 0 99 38t68 137q-71 -49 -157 -49q-258 0 -212 260q17 98 95.5 164t219.5 66q158 1 214 -84.5t25 -265.5q-40 -223 -118 -308t-236 -85q-133 0 -193 54.5t-58 130.5zM320 203q86 0 155 69q14 98 -6 140t-79 42q-58 0 -99 -37.5t-51 -94.5
q-22 -119 80 -119z" />
    <glyph glyph-name="colon" unicode=":" horiz-adv-x="358" 
d="M116 386l27 150h166l-27 -150h-166zM52 20l27 156h166l-28 -156h-165z" />
    <glyph glyph-name="semicolon" unicode=";" horiz-adv-x="360" 
d="M111 366l27 148h165l-26 -148h-166zM-31 -133q39 68 76 164q15 40 25 71t12 42l3 11h151q-11 -60 -59 -160q-22 -44 -44 -75.5t-33 -41.5l-11 -9z" />
    <glyph glyph-name="less" unicode="&#x3c;" horiz-adv-x="606" 
d="M488 134l-416 131l23 135l463 130l-21 -121l-350 -77l322 -77z" />
    <glyph glyph-name="equal" unicode="=" horiz-adv-x="620" 
d="M92 345l18 106h463l-18 -106h-463zM61 169l18 106h462l-18 -106h-462z" />
    <glyph glyph-name="greater" unicode="&#x3e;" horiz-adv-x="606" 
d="M69 132l21 123l348 77l-320 77l21 121l416 -131l-23 -135z" />
    <glyph glyph-name="question" unicode="?" horiz-adv-x="656" 
d="M105 522q26 106 91.5 162t186.5 56q142 0 198.5 -64.5t37.5 -170.5q-9 -49 -32.5 -84.5t-53 -57t-59 -42t-54.5 -51.5t-35 -73l-5 -21h-165l8 32q9 50 32.5 87t52.5 59.5t57.5 43t51.5 50t30 67.5q13 85 -65 85q-99 0 -125 -110zM185 0l23 134h164l-24 -134h-163z" />
    <glyph glyph-name="at" unicode="@" horiz-adv-x="958" 
d="M625 -118q-78 -26 -201 -26q-90 0 -158 21.5t-109 61t-64 94t-24.5 120.5t10.5 142q16 88 51 160.5t91.5 130t141 89.5t190.5 32q114 0 193.5 -33t118 -91t51.5 -136.5t-6 -168.5q-25 -139 -73 -198t-144 -60q-102 0 -126 77q-55 -50 -145 -50q-98 0 -133.5 63t-15.5 178
q39 221 210 221q78 0 129 -53l17 48h101l-55 -310q-15 -94 40 -95q33 0 56.5 40t42.5 150q29 165 -29.5 248t-226.5 83q-167 0 -262 -92.5t-123 -255.5q-58 -328 246 -328q133 0 213 35zM444 145q82 0 119 56l1 1v3l28 162q-23 43 -81 43q-49 0 -82 -38.5t-44 -105.5
q-19 -121 59 -121z" />
    <glyph glyph-name="A" unicode="A" horiz-adv-x="783" 
d="M-21 0l391 720h197l137 -720h-179l-18 127h-284l-63 -127h-181zM286 255h202l-45 316z" />
    <glyph glyph-name="B" unicode="B" horiz-adv-x="753" 
d="M90 -1h-46l126 723h270q175 0 234 -47t41 -153q-21 -117 -126 -155q109 -43 87 -177q-13 -76 -42 -114.5t-101.5 -58t-209.5 -19.5h-233v1zM315 599l-30 -171h122q69 -1 103 22t43 74q7 44 -19 59.5t-105 15.5h-114zM265 312l-34 -191h103q93 0 133.5 22.5t50.5 82.5
q9 48 -18 67t-103 19h-132z" />
    <glyph glyph-name="C" unicode="C" horiz-adv-x="754" 
d="M686 240q-33 -142 -115 -201t-224 -59q-171 0 -236.5 94t-29.5 297q34 196 125 283t255 87q144 0 212 -62t56 -197l-165 -7q4 69 -22 95t-86 26q-85 0 -135 -57t-74 -191q-21 -125 3.5 -174.5t101.5 -49.5q68 0 111 33t64 110z" />
    <glyph glyph-name="D" unicode="D" horiz-adv-x="782" 
d="M170 722h240q158 0 236 -40.5t92 -124t-9 -209.5q-17 -98 -41 -158t-72 -106t-125.5 -65.5t-197.5 -19.5h-249zM316 579l-78 -440h101q99 0 149 51t73 181q22 122 -6.5 165t-127.5 43h-111z" />
    <glyph glyph-name="E" unicode="E" horiz-adv-x="659" 
d="M44 0l126 720h513l-24 -137h-346l-27 -152h293l-22 -127h-294l-29 -167h352l-23 -137h-519z" />
    <glyph glyph-name="F" unicode="F" horiz-adv-x="625" 
d="M44 0l126 720h500l-23 -137h-334l-31 -175h281l-23 -131h-281l-49 -277h-166z" />
    <glyph glyph-name="G" unicode="G" horiz-adv-x="758" 
d="M654 95q0 -3 -11.5 -14.5t-37.5 -28.5t-60 -33t-87 -27.5t-112 -11.5q-172 -1 -237 93t-28 298q34 196 124.5 283t254.5 87q145 0 210 -62.5t54 -182.5l-159 -9q4 58 -23.5 83.5t-86.5 25.5q-84 0 -134 -57t-74 -191q-23 -129 3.5 -180t105.5 -51q66 0 112.5 19.5
t48.5 37.5l14 88h-123l19 109h275z" />
    <glyph glyph-name="H" unicode="H" horiz-adv-x="786" 
d="M44 0l126 720h167l-49 -277h269l49 277h166l-127 -720h-166l51 293h-269l-51 -293h-166z" />
    <glyph glyph-name="I" unicode="I" horiz-adv-x="352" 
d="M44 0l126 720h168l-127 -720h-167z" />
    <glyph glyph-name="J" unicode="J" horiz-adv-x="475" 
d="M398 306q-11 -64 -21 -103t-27 -77.5t-40 -59t-59.5 -37.5t-85.5 -23t-119 -6h-66l26 148h56q81 0 118 36.5t54 133.5l71 402h166z" />
    <glyph glyph-name="K" unicode="K" horiz-adv-x="757" 
d="M44 0l126 720h167l-65 -369l340 369h191l-291 -298l165 -422h-177l-112 294l-154 -158l-24 -136h-166z" />
    <glyph glyph-name="L" unicode="L" horiz-adv-x="586" 
d="M44 0l126 720h167l-101 -571h294l-26 -149h-460z" />
    <glyph glyph-name="M" unicode="M" horiz-adv-x="1043" 
d="M44 0l126 720h245l78 -580l282 580h254l-127 -720h-161l115 569l-300 -569h-175l-93 578l-86 -578h-158z" />
    <glyph glyph-name="N" unicode="N" horiz-adv-x="820" 
d="M286 535l-86 -535h-156l129 720h189l206 -526l83 526h155l-126 -720h-191z" />
    <glyph glyph-name="O" unicode="O" horiz-adv-x="782" 
d="M731 348q-35 -196 -125.5 -282t-256.5 -86q-173 0 -238.5 93.5t-29.5 297.5q34 196 125 283t257 87q173 0 238.5 -94t29.5 -299zM247 348q-21 -125 4 -174.5t103 -49.5q87 0 137 57t73 190q23 126 -2 175.5t-104 49.5q-86 0 -136.5 -57t-74.5 -191z" />
    <glyph glyph-name="P" unicode="P" horiz-adv-x="754" 
d="M44 0l126 722h246q203 0 273 -57t44 -210q-26 -144 -110 -194.5t-288 -50.5h-88l-37 -210h-166zM313 588l-42 -240h101q87 0 133 26.5t60 104.5q12 70 -20 89.5t-121 19.5h-111z" />
    <glyph glyph-name="Q" unicode="Q" horiz-adv-x="786" 
d="M731 348q-38 -216 -149 -302l86 -89l-120 -92l-99 124q-47 -9 -100 -9q-173 0 -238.5 93.5t-29.5 297.5q34 196 125 283t257 87q173 0 238.5 -94t29.5 -299zM247 349q-21 -126 4 -175.5t103 -49.5q87 0 137 57t73 190q23 126 -2 175.5t-104 49.5q-86 0 -136.5 -57
t-74.5 -190z" />
    <glyph glyph-name="R" unicode="R" horiz-adv-x="771" 
d="M44 0l126 722h292q176 0 239.5 -56t37.5 -206q-17 -93 -53.5 -142.5t-105.5 -71.5l80 -246h-175l-62 226q-14 -1 -44 -1h-130l-39 -225h-166zM312 584l-39 -222h107q90 0 134.5 24.5t57.5 98.5q12 65 -19.5 82t-123.5 17h-117z" />
    <glyph glyph-name="S" unicode="S" horiz-adv-x="732" 
d="M215 223q-6 -57 24 -82.5t96 -26.5q64 0 106 24t51 72q5 27 -16 45.5t-57.5 28.5t-81.5 19t-88.5 24t-78 37.5t-50.5 64t-5 99.5q39 214 320 213q147 -1 209.5 -56.5t53.5 -160.5l-160 -14q4 45 -18 69.5t-88 25.5q-71 0 -109.5 -26t-45.5 -69q-5 -27 16 -45t58 -28
t81.5 -19t88.5 -24t78 -37t50.5 -64t6.5 -100q-36 -215 -332 -213q-143 1 -211.5 59.5t-58.5 171.5z" />
    <glyph glyph-name="T" unicode="T" horiz-adv-x="657" 
d="M195 0l102 572h-213l27 148h593l-27 -148h-214l-101 -572h-167z" />
    <glyph glyph-name="U" unicode="U" horiz-adv-x="764" 
d="M694 346q-18 -100 -38.5 -162t-59.5 -111.5t-101 -71t-155 -21.5q-126 0 -188 43.5t-68.5 127.5t14.5 206l64 363h166l-63 -361q-25 -133 -8.5 -181t88.5 -48q82 0 121.5 52.5t63.5 187.5l62 350h168z" />
    <glyph glyph-name="V" unicode="V" horiz-adv-x="742" 
d="M105 720h185l57 -577l264 577h186l-365 -720h-215z" />
    <glyph glyph-name="W" unicode="W" horiz-adv-x="1140" 
d="M621 558l-217 -558h-213l-73 720h190l18 -579l223 579h204l17 -578l230 578h181l-333 -720h-210z" />
    <glyph glyph-name="X" unicode="X" horiz-adv-x="740" 
d="M364 258l-196 -258h-190l296 360l-162 360h183l105 -261l197 261h192l-300 -359l160 -361h-183z" />
    <glyph glyph-name="Y" unicode="Y" horiz-adv-x="722" 
d="M230 0l36 207l-155 513h182l77 -379l203 379h199l-341 -515l-36 -205h-165z" />
    <glyph glyph-name="Z" unicode="Z" horiz-adv-x="657" 
d="M-3 2l9 53l13 87l428 436h-335l26 141h546l-9 -49h1l-15 -92l-431 -436h357l-24 -140h-566z" />
    <glyph glyph-name="bracketleft" unicode="[" horiz-adv-x="499" 
d="M45 -199l169 959h317l-22 -124h-173l-125 -711h173l-22 -124h-317z" />
    <glyph glyph-name="backslash" unicode="\" horiz-adv-x="587" 
d="M470 -40h-142l-174 843h141z" />
    <glyph glyph-name="bracketright" unicode="]" horiz-adv-x="499" 
d="M289 -199h-317l21 124h174l125 711h-173l22 124h317z" />
    <glyph glyph-name="asciicircum" unicode="^" horiz-adv-x="531" 
d="M488 458h-110l-43 185l-109 -185h-117l189 292h105z" />
    <glyph glyph-name="underscore" unicode="_" horiz-adv-x="663" 
d="M61 0l20 118h446l-21 -118h-445z" />
    <glyph glyph-name="grave" unicode="`" horiz-adv-x="470" 
d="M378 624h-146l-85 171h167z" />
    <glyph glyph-name="a" unicode="a" horiz-adv-x="688" 
d="M122 451q62 106 246 106q56 0 98 -8t70 -20t44.5 -34.5t24.5 -44t8 -56t-3.5 -63t-10.5 -71.5l-20 -110l-16 -150h-147l-5 40q-77 -57 -179 -57q-108 0 -155.5 46.5t-31.5 138.5t80.5 129.5t170.5 37.5q85 0 151 -8l1 5q12 67 -6.5 92t-80.5 25q-50 0 -87 -17t-54 -43z
M280 96q81 0 137 54l15 90q-32 3 -80 3q-127 0 -143 -88q-5 -28 11.5 -43.5t59.5 -15.5z" />
    <glyph glyph-name="b" unicode="b" horiz-adv-x="701" 
d="M31 0l38 156l107 603h163l-44 -252q68 51 160 51q232 0 180 -299q-24 -136 -86.5 -203.5t-174.5 -67.5q-124 0 -174 80l-28 -68h-141zM402 431q-70 0 -131 -59l-37 -212q30 -46 93 -46q117 0 147 169q13 75 -4.5 111.5t-67.5 36.5z" />
    <glyph glyph-name="c" unicode="c" horiz-adv-x="666" 
d="M577 143q-66 -159 -275 -159q-154 0 -208.5 76t-27.5 224q24 139 98 208t219 69q113 0 169.5 -45t64.5 -122l-142 -41q-10 84 -94 84q-64 0 -99.5 -42t-52.5 -134q-15 -85 1 -119t73 -34q45 0 82.5 22t57.5 60z" />
    <glyph glyph-name="d" unicode="d" horiz-adv-x="699" 
d="M436 0l-4 66q-67 -78 -184 -78q-234 0 -181 294q23 136 86.5 206t174.5 70q104 0 161 -64l46 265h163l-108 -603l-16 -156h-138zM298 114q76 0 136 64l35 205q-31 48 -92 48q-119 0 -150 -171q-13 -75 4 -110.5t67 -35.5z" />
    <glyph glyph-name="e" unicode="e" horiz-adv-x="680" 
d="M584 113q-66 -130 -280 -130q-153 0 -208.5 76.5t-29.5 224.5q24 139 99 208t220 69q152 0 204 -75.5t21 -247.5h-385q-10 -77 7.5 -108t70.5 -31t92 17t53 40zM385 455q-52 0 -85.5 -28t-53.5 -92h217q3 68 -15.5 94t-62.5 26z" />
    <glyph glyph-name="f" unicode="f" horiz-adv-x="440" 
d="M490 767l-23 -131h-30q-96 0 -113 -100l-4 -20h126l-19 -113h-127l-70 -403h-163l71 403h-75l20 113h75l10 58q34 193 230 193h92z" />
    <glyph glyph-name="g" unicode="g" horiz-adv-x="697" 
d="M162 -81q0 -23 24 -38.5t76 -15.5q72 0 99 34t39 104l7 39q-63 -54 -160 -54q-234 0 -181 294q24 136 87 206t174 70q117 0 174 -80l28 68h141l-38 -154l-71 -401q-15 -86 -35 -123q-61 -112 -267 -112q-119 0 -175.5 43t-63.5 97zM297 114q75 0 133 62l37 210
q-33 45 -91 45q-119 0 -149 -171q-27 -146 70 -146z" />
    <glyph glyph-name="h" unicode="h" horiz-adv-x="737" 
d="M71 0l134 759h163l-48 -271q80 66 184 66q106 0 142 -60.5t13 -192.5l-54 -301h-163l54 311q9 52 -3.5 75.5t-56.5 23.5q-78 0 -142 -69l-60 -341h-163z" />
    <glyph glyph-name="i" unicode="i" horiz-adv-x="338" 
d="M149 627l26 146h164l-25 -146h-165zM39 0l95 546h164l-96 -546h-163z" />
    <glyph glyph-name="j" unicode="j" horiz-adv-x="344" 
d="M157 627l26 146h164l-25 -146h-165zM222 73q-21 -120 -44 -166q-45 -89 -169 -112q-50 -9 -116 -9l15 143q44 0 72 8.5t43.5 31.5t22.5 46t15 69l82 462h162z" />
    <glyph glyph-name="k" unicode="k" horiz-adv-x="669" 
d="M71 0l134 759h157l-79 -448l218 235h180l-218 -215l136 -331h-179l-74 216l-97 -95l-21 -121h-157z" />
    <glyph glyph-name="l" unicode="l" horiz-adv-x="340" 
d="M289 -1h-47q-51 0 -86.5 12t-53.5 31.5t-25.5 49t-6 57.5t8.5 65l95 546h164l-97 -550q-6 -33 0.5 -53.5t26.5 -20.5h45z" />
    <glyph glyph-name="m" unicode="m" horiz-adv-x="1035" 
d="M43 0l70 398l15 148h138l4 -67q75 75 183 75q119 0 150 -87q26 30 78.5 58.5t123.5 28.5q101 0 138.5 -61.5t14.5 -191.5l-53 -301h-157l55 311q9 52 -3 75.5t-55 23.5q-71 0 -134 -63q-1 -14 -7 -51l-52 -296h-149l54 306q9 56 -3 80t-54 24q-71 0 -134 -63l-60 -347
h-163z" />
    <glyph glyph-name="n" unicode="n" horiz-adv-x="703" 
d="M43 0l70 398l15 148h138l4 -75q29 30 81 56.5t122 26.5q107 0 142 -62.5t9 -202.5l-50 -289h-163l52 299q11 60 -1 85.5t-57 25.5q-75 0 -140 -67l-59 -343h-163z" />
    <glyph glyph-name="o" unicode="o" horiz-adv-x="691" 
d="M625 261q-25 -140 -99 -209t-221 -69q-156 0 -211 76t-28 225q25 140 99 208.5t221 69.5q155 1 210 -76t29 -225zM229 261q-14 -84 2 -118t75 -34q67 0 103 41t52 134q15 84 -1.5 118t-74.5 34q-67 0 -103 -41.5t-53 -133.5z" />
    <glyph glyph-name="p" unicode="p" horiz-adv-x="701" 
d="M0 -243l112 635l16 154h138l3 -60q72 72 186 72q233 0 179 -299q-23 -136 -85.5 -203.5t-174.5 -67.5q-111 0 -161 62l-51 -293h-162zM402 431q-70 0 -134 -62l-36 -207q30 -48 95 -48q117 0 147 169q13 75 -4.5 111.5t-67.5 36.5z" />
    <glyph glyph-name="q" unicode="q" horiz-adv-x="699" 
d="M358 -243l49 285q-61 -54 -159 -54q-234 0 -181 294q23 136 86.5 206t174.5 70q118 0 173 -80l29 68h141l-37 -146l-113 -643h-163zM298 114q74 0 133 61l36 211q-33 45 -90 45q-119 0 -150 -171q-13 -75 4 -110.5t67 -35.5z" />
    <glyph glyph-name="r" unicode="r" horiz-adv-x="481" 
d="M43 0l68 384l17 162h140l1 -94q22 41 73.5 75t143.5 34l-15 -145q-46 0 -85 -13t-64.5 -34.5t-40 -38.5t-24.5 -35l-51 -295h-163z" />
    <glyph glyph-name="s" unicode="s" horiz-adv-x="646" 
d="M176 165q7 -67 103 -69q119 -1 132 71q5 25 -19.5 39.5t-64.5 18.5t-86 13.5t-84 23.5t-59 49.5t-12 90.5q27 161 277 160q225 -1 235 -143l-137 -22q-6 30 -27 42.5t-66 13.5q-59 1 -90 -20t-36 -51q-4 -23 21 -35.5t65.5 -16.5t86.5 -14t84.5 -24.5t59.5 -51.5t11 -93
q-15 -82 -82 -123t-206 -41q-120 1 -182.5 44.5t-64.5 121.5z" />
    <glyph glyph-name="t" unicode="t" horiz-adv-x="442" 
d="M351 -1h-47q-79 0 -126.5 19t-64 52.5t-18 80.5t11.5 104l31 176h-74l20 115h74l26 148l168 26l-31 -174h123l-20 -115h-123l-32 -181q-13 -62 -0.5 -88t61.5 -26h45z" />
    <glyph glyph-name="u" unicode="u" horiz-adv-x="696" 
d="M433 0l-4 81q-17 -19 -40 -36.5t-68.5 -35.5t-94.5 -18q-106 0 -142.5 60.5t-13.5 192.5l54 301h163l-55 -310q-9 -52 4 -76t57 -24q78 0 141 73l59 338h164l-70 -394l-16 -152h-138z" />
    <glyph glyph-name="v" unicode="v" horiz-adv-x="655" 
d="M81 546h179l40 -429l190 429h184l-300 -546h-184z" />
    <glyph glyph-name="w" unicode="w" horiz-adv-x="959" 
d="M501 404l-159 -404h-194l-70 546h168l19 -423l167 423h186l24 -425l166 425h173l-260 -546h-197z" />
    <glyph glyph-name="x" unicode="x" horiz-adv-x="666" 
d="M311 170l-138 -170h-184l247 276l-152 270h188l82 -179l144 179h185l-251 -285l145 -261h-187z" />
    <glyph glyph-name="y" unicode="y" horiz-adv-x="651" 
d="M126 -232l111 232h-54l-102 546h170l50 -412l198 412h171l-395 -778h-149z" />
    <glyph glyph-name="z" unicode="z" horiz-adv-x="564" 
d="M-2 1l15 85l5 41l325 293h-260l22 124h456l-10 -57l-10 -66l-323 -294h269l-22 -126h-467z" />
    <glyph glyph-name="braceleft" unicode="{" horiz-adv-x="527" 
d="M238 570q8 46 16 74.5t24.5 51.5t35 34.5t55 19t77 9.5t107.5 2l-11 -119q-82 0 -113 -26.5t-46 -109.5l-24 -129q-6 -35 -28 -58.5t-40 -30.5t-21 -5q-1 0 4.5 -4.5t15.5 -13.5t19 -21.5t13.5 -32.5t0.5 -42l-23 -135q-14 -78 4 -98t100 -20l-11 -118q-64 0 -107 3.5
t-75 13t-49 23.5t-25 38.5t-7 55t9 75.5l29 167q5 31 -7.5 40.5t-69.5 9.5l9 111q56 0 78.5 14t28.5 46z" />
    <glyph glyph-name="bar" unicode="|" horiz-adv-x="303" 
d="M20 -188l178 1011h114l-178 -1011h-114z" />
    <glyph glyph-name="braceright" unicode="}" horiz-adv-x="527" 
d="M291 -11q-8 -46 -16 -74.5t-24.5 -51.5t-35 -34.5t-55 -19t-77 -9.5t-107.5 -2l10 118q81 0 112.5 26.5t47.5 109.5l24 129q7 36 29 59.5t39.5 30.5t21.5 5q1 0 -2 2.5t-9 7t-13 11t-13.5 15.5t-11.5 20.5t-7 26t1 31.5l24 134q13 78 -5 98t-99 20l11 119q64 0 107 -3.5
t75.5 -13t49 -23.5t25 -38.5t7 -55t-9.5 -75.5l-29 -167q-5 -31 7.5 -40.5t68.5 -9.5l-9 -111q-56 0 -78 -14.5t-28 -46.5z" />
    <glyph glyph-name="asciitilde" unicode="~" horiz-adv-x="642" 
d="M55 233q14 84 53.5 129t123.5 45q53 0 106 -27.5t87 -27.5q39 0 64.5 22t28.5 39l84 -11q-14 -84 -53.5 -129.5t-122.5 -45.5q-53 0 -106.5 28t-87.5 28q-38 0 -64 -22.5t-29 -39.5z" />
    <glyph glyph-name="exclamdown" unicode="&#xa1;" horiz-adv-x="341" 
d="M111 401l25 145h164l-25 -145h-164zM10 -175l104 532h140l-81 -532h-163z" />
    <glyph glyph-name="cent" unicode="&#xa2;" horiz-adv-x="669" 
d="M220 -20l14 82q-114 17 -152.5 91t-15.5 204q22 127 85.5 195.5t183.5 80.5l14 77h109l-14 -79q184 -22 176 -197l-159 -9q3 48 -16.5 66.5t-62.5 18.5q-65 0 -100.5 -41.5t-52.5 -134.5q-15 -85 1 -118.5t73 -33.5q96 0 126 79l157 -29q-27 -80 -84 -123t-159 -50
l-14 -79h-109z" />
    <glyph glyph-name="sterling" unicode="&#xa3;" horiz-adv-x="649" 
d="M309 239q-2 -8 -2 -12q-13 -74 -66 -110l319 7l-23 -128h-537l19 114l-4 1q5 2 12.5 4.5t27.5 13.5t36 23.5t31.5 33.5t19.5 44q0 1 0.5 4t0.5 5h-113l17 96h93q-4 16 -13.5 43t-14 42.5t-8 47t3.5 57.5q15 81 86 132t202 51q137 0 192.5 -55t45.5 -156l-162 -9
q4 40 -15.5 61t-57.5 21q-50 0 -84 -29t-42 -73q-4 -20 1 -40t15.5 -47t15.5 -46h159l-16 -96h-139z" />
    <glyph glyph-name="currency" unicode="&#xa4;" horiz-adv-x="826" 
d="M690 477q22 -64 5 -165q-17 -91 -54 -147l52 -61l-101 -90l-54 61q-66 -30 -163 -30q-104 0 -164 35l-76 -66l-78 90l79 69q-21 63 -4 161q15 91 53 148l-52 60l102 90l51 -60q65 32 167 33q102 0 162 -35l77 66l77 -90zM292 312q-23 -130 86 -130q68 0 107 42t51 110
q24 134 -87 134q-67 0 -106 -43.5t-51 -112.5z" />
    <glyph glyph-name="yen" unicode="&#xa5;" horiz-adv-x="704" 
d="M226 0l25 146h-117l15 86h117l9 50h-118l16 87h88l-150 340h181l85 -283l179 283h198l-273 -340h83l-15 -87h-116l-9 -50h117l-16 -86h-116l-25 -146h-158z" />
    <glyph glyph-name="brokenbar" unicode="&#xa6;" horiz-adv-x="302" 
d="M122 396l75 426h114l-75 -426h-114zM209 246l-75 -426h-114l75 426h114z" />
    <glyph glyph-name="section" unicode="&#xa7;" horiz-adv-x="669" 
d="M479 628q4 37 -12 52t-66 15q-108 0 -120 -75q-5 -26 18.5 -41t62.5 -18.5t83 -13t81 -24t56.5 -51.5t9.5 -95q-13 -70 -79 -111q50 -43 35 -127q-14 -81 -79 -121t-200 -40q-131 0 -186 42.5t-47 126.5l144 6q-3 -43 17.5 -59.5t66.5 -16.5q116 0 130 75
q5 29 -18.5 45.5t-61.5 22t-82.5 16t-81 25t-56.5 51.5t-10 93q13 71 83 110q-53 41 -38 127q27 152 265 152q128 0 182 -40.5t48 -120.5zM236 383q-2 -11 0.5 -20t11 -15.5t17.5 -11t25.5 -8t28.5 -5.5t34 -5.5t34 -5.5q44 33 52 77q3 19 -4.5 31.5t-30 21.5t-37.5 12.5
t-52 10.5q-14 3 -21 4q-50 -38 -58 -86z" />
    <glyph glyph-name="dieresis" unicode="&#xa8;" horiz-adv-x="505" 
d="M126 622l27 151h150l-26 -151h-151zM349 622l26 151h151l-27 -151h-150z" />
    <glyph glyph-name="copyright" unicode="&#xa9;" horiz-adv-x="893" 
d="M845 337q-14 -80 -44.5 -144.5t-82 -117.5t-132 -82.5t-183.5 -29.5q-85 0 -149.5 20.5t-102 57.5t-60 87t-23.5 108t9 123q14 79 45.5 145t83.5 120t132 84t181 30q86 0 151 -21.5t102.5 -58.5t59.5 -88t22 -109.5t-9 -123.5zM158 337q-53 -301 237 -301q87 0 154 26
t109.5 72t68 101.5t37.5 123.5q55 306 -237 306q-86 0 -153 -26.5t-110 -73.5t-68.5 -103.5t-37.5 -124.5zM635 270q-22 -84 -70.5 -117.5t-131.5 -33.5q-106 0 -147.5 58t-18.5 184q20 119 74.5 169.5t153.5 50.5q88 0 130.5 -39t34.5 -121l-105 -4q2 42 -11.5 57t-44.5 15
q-50 0 -80.5 -35t-45.5 -115q-12 -73 1.5 -100.5t55.5 -27.5q80 0 102 85z" />
    <glyph glyph-name="ordfeminine" unicode="&#xaa;" horiz-adv-x="489" 
d="M136 648q32 104 175 104q67 0 106.5 -14.5t52.5 -46t13 -63.5t-10 -85l-13 -76l-10 -103h-105l-3 25q-51 -37 -120 -37q-76 0 -110 33t-24 99q11 63 55 88t117 25q60 0 106 -6l1 4q10 46 2.5 63t-45.5 17t-60.5 -15.5t-28.5 -35.5zM250 433q57 0 97 38l9 56q-28 4 -51 4
q-90 0 -102 -63q-3 -17 7.5 -26t39.5 -9z" />
    <glyph glyph-name="guillemotleft" unicode="&#xab;" horiz-adv-x="763" 
d="M197 84l-92 171l1 27l153 178h179l-182 -194l112 -182h-171zM451 84l-91 171l1 27l152 178h181l-183 -193l113 -183h-173z" />
    <glyph glyph-name="registered" unicode="&#xae;" horiz-adv-x="893" 
d="M845 337q-14 -80 -44.5 -144.5t-82 -117.5t-132 -82.5t-183.5 -29.5q-85 0 -149.5 20.5t-102 57.5t-60 87t-23.5 108t9 123q14 79 45.5 145t83.5 120t132 84t181 30q86 0 151 -21.5t102.5 -58.5t59.5 -88t22 -109.5t-9 -123.5zM158 337q-53 -301 237 -301q87 0 154 26
t109.5 72t68 101.5t37.5 123.5q55 306 -237 306q-86 0 -153 -26.5t-110 -73.5t-68.5 -103.5t-37.5 -124.5zM250 136l75 431h180q100 0 137.5 -35.5t21.5 -125.5q-10 -56 -31.5 -85t-61.5 -41l41 -144h-109l-31 133h-94l-23 -133h-105zM416 482l-23 -128h63q45 0 70.5 15.5
t33.5 59.5q6 35 -9.5 44t-61.5 9h-73z" />
    <glyph glyph-name="macron" unicode="&#xaf;" horiz-adv-x="511" 
d="M146 746h321l-18 -100h-322z" />
    <glyph glyph-name="degree" unicode="&#xb0;" horiz-adv-x="445" 
d="M414 584q-20 -123 -148 -123q-70 0 -102 37.5t-19 108.5q22 125 149 125q71 0 102 -37.5t18 -110.5zM230 584q-8 -48 29 -48q58 0 70 71q10 51 -28 51q-57 0 -71 -74z" />
    <glyph glyph-name="plusminus" unicode="&#xb1;" horiz-adv-x="609" 
d="M237 226l20 112h-163l19 106h163l20 112h118l-20 -112h162l-19 -106h-162l-20 -112h-118zM49 82l18 107h443l-18 -107h-443z" />
    <glyph glyph-name="uni00B2" unicode="&#xb2;" horiz-adv-x="522" 
d="M119 687q47 167 232 167q63 0 105.5 -16t61 -42.5t25.5 -60t-1 -67.5q-4 -23 -11.5 -43t-22.5 -41t-24 -33t-34 -34t-32 -28.5t-39 -31.5t-36 -28q-16 -11 -50 -30l199 7l-21 -116h-418l3 16l15 84v1h2q61 33 151 95q46 32 67.5 48t52 43t45 51t19.5 51q8 58 -56 58
q-37 0 -65 -23.5t-37 -54.5z" />
    <glyph glyph-name="uni00B3" unicode="&#xb3;" horiz-adv-x="546" 
d="M407 627q72 -19 96.5 -63.5t12.5 -116.5q-13 -74 -70 -122t-171 -48q-109 0 -154.5 46.5t-41.5 118.5l131 5q2 -57 62 -57q46 0 74 25t34 65q7 38 -11 59t-72 21q-19 0 -36 -2t-25 -4l-8 -3l8 75l155 99l-245 -8l21 116h408l-18 -102z" />
    <glyph glyph-name="acute" unicode="&#xb4;" horiz-adv-x="470" 
d="M101 624l123 171h174l-143 -171h-154z" />
    <glyph glyph-name="paragraph" unicode="&#xb6;" horiz-adv-x="780" 
d="M323 0l46 263q-72 2 -120.5 10.5t-85 26.5t-52 47.5t-21 73t7.5 103.5q11 61 30 102.5t47 69t74 42t101 20t139 5.5h288l-134 -763h-114l112 639h-91l-112 -639h-115zM248 503q-13 -70 16.5 -91t126.5 -22l44 247q-92 -3 -132.5 -30.5t-54.5 -103.5z" />
    <glyph glyph-name="periodcentered" unicode="&#xb7;" horiz-adv-x="357" 
d="M88 227l26 149h166l-26 -149h-166z" />
    <glyph glyph-name="cedilla" unicode="&#xb8;" horiz-adv-x="483" 
d="M266 -168q-9 -50 -49 -73t-138 -23q-32 0 -58 3t-36 7l-10 3l6 69q0 -2 45 -3q80 0 89 55q4 23 -15.5 29.5t-62.5 6.5h-10l67 96h137l-46 -65q40 -4 64.5 -30t16.5 -75z" />
    <glyph glyph-name="uni00B9" unicode="&#xb9;" horiz-adv-x="343" 
d="M129 288l71 412l-101 -38l19 116l158 59h80l-97 -549h-130z" />
    <glyph glyph-name="ordmasculine" unicode="&#xba;" horiz-adv-x="490" 
d="M487 541q-17 -96 -67 -143t-152 -47q-109 0 -147.5 54t-20.5 159q17 97 67 143.5t152 46.5q109 0 148 -54t20 -159zM215 541q-10 -56 0.5 -78t48.5 -22q47 0 73 29.5t37 93.5q10 57 -0.5 79t-49.5 22q-46 0 -72 -29.5t-37 -94.5z" />
    <glyph glyph-name="guillemotright" unicode="&#xbb;" horiz-adv-x="763" 
d="M249 84h-179l181 187l-111 189h171l91 -178l-1 -27zM505 84h-180l181 186l-111 190h172l90 -178l-1 -27z" />
    <glyph glyph-name="onequarter" unicode="&#xbc;" horiz-adv-x="1173" 
d="M78 217l71 412l-101 -38l19 116l158 59h80l-97 -549h-130zM149 -40l628 801h132l-627 -801h-133zM898 0l16 91h-284l17 103l287 354h189l-62 -354h64l-19 -103h-63l-16 -91h-129zM932 194l42 242l-183 -242h141z" />
    <glyph glyph-name="onehalf" unicode="&#xbd;" horiz-adv-x="1200" 
d="M78 217l71 412l-101 -38l19 116l158 59h80l-97 -549h-130zM149 -40l628 801h132l-627 -801h-133zM746 399q47 167 232 167q63 0 105.5 -16t61 -42.5t25.5 -60t-1 -67.5q-4 -23 -11.5 -43t-22.5 -41t-24 -33t-34 -34t-32 -28.5t-39 -31.5t-36 -28q-16 -11 -50 -30l199 7
l-21 -116h-418l3 16l15 84v1h2q61 33 151 95q46 32 67.5 48t52 43t45 51t19.5 51q8 58 -56 58q-37 0 -65 -23.5t-37 -54.5z" />
    <glyph glyph-name="threequarters" unicode="&#xbe;" horiz-adv-x="1353" 
d="M356 556q72 -19 96.5 -63.5t12.5 -116.5q-13 -74 -70 -122t-171 -48q-109 0 -154.5 46.5t-41.5 118.5l131 5q2 -57 62 -57q46 0 74 25t34 65q7 38 -11 59t-72 21q-19 0 -36 -2.5t-25 -4.5l-8 -2l8 75q1 1 155 99l-245 -8l21 116h408l-18 -102zM329 -40l628 801h132
l-627 -801h-133zM1078 0l16 91h-284l17 103l287 354h189l-62 -354h64l-19 -103h-63l-16 -91h-129zM1112 194l42 242l-183 -242h141z" />
    <glyph glyph-name="questiondown" unicode="&#xbf;" horiz-adv-x="643" 
d="M470 546l-23 -135h-163l24 135h162zM550 24q-26 -106 -91.5 -162.5t-185.5 -56.5q-143 0 -199 64.5t-37 170.5q9 49 32.5 84.5t52.5 57.5t58.5 42.5t55 51.5t35.5 73l5 21h164l-7 -32q-9 -50 -32.5 -87t-52.5 -59.5t-57.5 -43.5t-51.5 -50t-30 -68q-13 -84 65 -84
q98 0 124 108z" />
    <glyph glyph-name="Agrave" unicode="&#xc0;" horiz-adv-x="783" 
d="M551 775h-158l-90 142h180zM-21 0l391 720h197l137 -720h-179l-18 127h-284l-63 -127h-181zM286 255h202l-45 316z" />
    <glyph glyph-name="Aacute" unicode="&#xc1;" horiz-adv-x="783" 
d="M389 773l119 142h187l-139 -142h-167zM-21 0l391 720h197l137 -720h-179l-18 127h-284l-63 -127h-181zM286 255h202l-45 316z" />
    <glyph glyph-name="Acircumflex" unicode="&#xc2;" horiz-adv-x="783" 
d="M688 773h-149l-50 64l-72 -64h-151l147 148h174zM-21 0l391 720h197l137 -720h-179l-18 127h-284l-63 -127h-181zM286 255h202l-45 316z" />
    <glyph glyph-name="Atilde" unicode="&#xc3;" horiz-adv-x="783" 
d="M696 927q-13 -76 -41.5 -116t-88.5 -40q-39 0 -63.5 12t-40 24t-34.5 12q-29 0 -48 -19t-21 -34l-77 11q14 76 42.5 115.5t88.5 39.5q39 0 63 -12t40 -23.5t35 -11.5q29 0 48 19t21 34zM-21 0l391 720h197l137 -720h-179l-18 127h-284l-63 -127h-181zM286 255h202
l-45 316z" />
    <glyph glyph-name="Adieresis" unicode="&#xc4;" horiz-adv-x="783" 
d="M276 773l26 151h165l-27 -151h-164zM511 773l26 151h165l-27 -151h-164zM-21 0l391 720h197l137 -720h-179l-18 127h-284l-63 -127h-181zM286 255h202l-45 316z" />
    <glyph glyph-name="Aring" unicode="&#xc5;" horiz-adv-x="783" 
d="M625 873q-10 -54 -47 -83t-94 -29q-65 0 -97.5 35.5t-20.5 98.5q9 54 46.5 82t94.5 28q64 0 96.5 -35t21.5 -97zM458 873q-5 -26 20 -26q20 0 35.5 13.5t19.5 34.5q3 24 -22 24q-20 0 -34.5 -13t-18.5 -33zM-21 0l391 720h197l137 -720h-179l-18 127h-284l-63 -127h-181z
M286 255h202l-45 316z" />
    <glyph glyph-name="AE" unicode="&#xc6;" horiz-adv-x="1068" 
d="M-21 0l495 720h618l-24 -137h-346l-27 -152h293l-22 -127h-293l-29 -167h352l-24 -137h-519l25 142h-219l-92 -142h-188zM500 268l59 335l-218 -335h159z" />
    <glyph glyph-name="Ccedilla" unicode="&#xc7;" horiz-adv-x="754" 
d="M456 -171q-9 -50 -49 -73t-138 -23q-32 0 -58 3.5t-36 6.5l-10 3l6 69q0 -2 45 -3q80 0 89 55q4 23 -15.5 29.5t-62.5 6.5h-10l57 82q-130 18 -178 112t-15 274q34 196 125 283t255 87q144 0 212 -62t56 -197l-165 -7q4 69 -22 95t-86 26q-85 0 -135 -57t-74 -191
q-21 -125 3.5 -174.5t101.5 -49.5q68 0 111 33t64 110l159 -27q-30 -126 -97.5 -185.5t-179.5 -71.5l-34 -49q40 -4 64.5 -30t16.5 -75z" />
    <glyph glyph-name="Egrave" unicode="&#xc8;" horiz-adv-x="659" 
d="M510 775h-158l-90 142h180zM44 0l126 720h513l-24 -137h-346l-27 -152h293l-22 -127h-294l-29 -167h352l-23 -137h-519z" />
    <glyph glyph-name="Eacute" unicode="&#xc9;" horiz-adv-x="659" 
d="M348 773l119 142h187l-139 -142h-167zM44 0l126 720h513l-24 -137h-346l-27 -152h293l-22 -127h-294l-29 -167h352l-23 -137h-519z" />
    <glyph glyph-name="Ecircumflex" unicode="&#xca;" horiz-adv-x="659" 
d="M647 773h-149l-50 64l-72 -64h-151l147 148h174zM44 0l126 720h513l-24 -137h-346l-27 -152h293l-22 -127h-294l-29 -167h352l-23 -137h-519z" />
    <glyph glyph-name="Edieresis" unicode="&#xcb;" horiz-adv-x="659" 
d="M235 773l26 151h165l-27 -151h-164zM470 773l26 151h165l-27 -151h-164zM44 0l126 720h513l-24 -137h-346l-27 -152h293l-22 -127h-294l-29 -167h352l-23 -137h-519z" />
    <glyph glyph-name="Igrave" unicode="&#xcc;" horiz-adv-x="352" 
d="M340 775h-158l-90 142h180zM44 0l126 720h168l-127 -720h-167z" />
    <glyph glyph-name="Iacute" unicode="&#xcd;" horiz-adv-x="352" 
d="M178 773l119 142h187l-139 -142h-167zM44 0l126 720h168l-127 -720h-167z" />
    <glyph glyph-name="Icircumflex" unicode="&#xce;" horiz-adv-x="352" 
d="M477 773h-149l-50 64l-72 -64h-151l147 148h174zM44 0l126 720h168l-127 -720h-167z" />
    <glyph glyph-name="Idieresis" unicode="&#xcf;" horiz-adv-x="352" 
d="M65 773l26 151h165l-27 -151h-164zM300 773l26 151h165l-27 -151h-164zM44 0l126 720h168l-127 -720h-167z" />
    <glyph glyph-name="Eth" unicode="&#xd0;" horiz-adv-x="782" 
d="M99 317h-66l14 85h67l56 320h240q158 0 236 -40.5t92 -124t-9 -209.5q-17 -98 -41 -158t-72 -106t-125.5 -65.5t-197.5 -19.5h-249zM269 317l-31 -178h101q99 0 149 51t73 181q22 122 -6.5 165t-127.5 43h-111l-32 -177h111l-15 -85h-111z" />
    <glyph glyph-name="Ntilde" unicode="&#xd1;" horiz-adv-x="820" 
d="M717 927q-13 -76 -41.5 -116t-88.5 -40q-39 0 -63.5 12t-40 24t-34.5 12q-29 0 -48 -19t-21 -34l-77 11q14 76 42.5 115.5t88.5 39.5q39 0 63 -12t40 -23.5t35 -11.5q29 0 48 19t21 34zM286 535l-86 -535h-156l129 720h189l206 -526l83 526h155l-126 -720h-191z" />
    <glyph glyph-name="Ograve" unicode="&#xd2;" horiz-adv-x="782" 
d="M556 781h-158l-90 142h180zM731 348q-35 -196 -125.5 -282t-256.5 -86q-173 0 -238.5 93.5t-29.5 297.5q34 196 125 283t257 87q173 0 238.5 -94t29.5 -299zM247 348q-21 -125 4 -174.5t103 -49.5q87 0 137 57t73 190q23 126 -2 175.5t-104 49.5q-86 0 -136.5 -57
t-74.5 -191z" />
    <glyph glyph-name="Oacute" unicode="&#xd3;" horiz-adv-x="782" 
d="M394 779l119 142h187l-139 -142h-167zM731 348q-35 -196 -125.5 -282t-256.5 -86q-173 0 -238.5 93.5t-29.5 297.5q34 196 125 283t257 87q173 0 238.5 -94t29.5 -299zM247 348q-21 -125 4 -174.5t103 -49.5q87 0 137 57t73 190q23 126 -2 175.5t-104 49.5
q-86 0 -136.5 -57t-74.5 -191z" />
    <glyph glyph-name="Ocircumflex" unicode="&#xd4;" horiz-adv-x="782" 
d="M693 779h-149l-50 64l-72 -64h-151l147 148h174zM731 348q-35 -196 -125.5 -282t-256.5 -86q-173 0 -238.5 93.5t-29.5 297.5q34 196 125 283t257 87q173 0 238.5 -94t29.5 -299zM247 348q-21 -125 4 -174.5t103 -49.5q87 0 137 57t73 190q23 126 -2 175.5t-104 49.5
q-86 0 -136.5 -57t-74.5 -191z" />
    <glyph glyph-name="Otilde" unicode="&#xd5;" horiz-adv-x="782" 
d="M701 933q-13 -76 -41.5 -116t-88.5 -40q-39 0 -63.5 12t-40 24t-34.5 12q-29 0 -48 -19t-21 -34l-77 11q14 76 42.5 115.5t88.5 39.5q39 0 63 -12t40 -23.5t35 -11.5q29 0 48 19t21 34zM731 348q-35 -196 -125.5 -282t-256.5 -86q-173 0 -238.5 93.5t-29.5 297.5
q34 196 125 283t257 87q173 0 238.5 -94t29.5 -299zM247 348q-21 -125 4 -174.5t103 -49.5q87 0 137 57t73 190q23 126 -2 175.5t-104 49.5q-86 0 -136.5 -57t-74.5 -191z" />
    <glyph glyph-name="Odieresis" unicode="&#xd6;" horiz-adv-x="782" 
d="M281 779l26 151h165l-27 -151h-164zM516 779l26 151h165l-27 -151h-164zM731 348q-35 -196 -125.5 -282t-256.5 -86q-173 0 -238.5 93.5t-29.5 297.5q34 196 125 283t257 87q173 0 238.5 -94t29.5 -299zM247 348q-21 -125 4 -174.5t103 -49.5q87 0 137 57t73 190
q23 126 -2 175.5t-104 49.5q-86 0 -136.5 -57t-74.5 -191z" />
    <glyph glyph-name="multiply" unicode="&#xd7;" horiz-adv-x="568" 
d="M392 103l-113 135l-157 -135l-63 70l160 137l-112 135l80 69l112 -134l157 134l65 -69l-161 -138l114 -134z" />
    <glyph glyph-name="Oslash" unicode="&#xd8;" horiz-adv-x="782" 
d="M22 -10l82 93q-58 93 -23 288q34 196 125 283t257 87q118 0 186 -43l31 35h101l-78 -89q62 -95 28 -296q-35 -196 -125.5 -282t-256.5 -86q-125 0 -193 47l-33 -37h-101zM247 348q-12 -68 -10 -115l302 341q-28 22 -81 22q-86 0 -136.5 -57t-74.5 -191zM564 371
q14 83 10 128l-308 -348q27 -27 88 -27q87 0 137 57t73 190z" />
    <glyph glyph-name="Ugrave" unicode="&#xd9;" horiz-adv-x="764" 
d="M546 775h-158l-90 142h180zM694 346q-18 -100 -38.5 -162t-59.5 -111.5t-101 -71t-155 -21.5q-126 0 -188 43.5t-68.5 127.5t14.5 206l64 363h166l-63 -361q-25 -133 -8.5 -181t88.5 -48q82 0 121.5 52.5t63.5 187.5l62 350h168z" />
    <glyph glyph-name="Uacute" unicode="&#xda;" horiz-adv-x="764" 
d="M384 773l119 142h187l-139 -142h-167zM694 346q-18 -100 -38.5 -162t-59.5 -111.5t-101 -71t-155 -21.5q-126 0 -188 43.5t-68.5 127.5t14.5 206l64 363h166l-63 -361q-25 -133 -8.5 -181t88.5 -48q82 0 121.5 52.5t63.5 187.5l62 350h168z" />
    <glyph glyph-name="Ucircumflex" unicode="&#xdb;" horiz-adv-x="764" 
d="M683 773h-149l-50 64l-72 -64h-151l147 148h174zM694 346q-18 -100 -38.5 -162t-59.5 -111.5t-101 -71t-155 -21.5q-126 0 -188 43.5t-68.5 127.5t14.5 206l64 363h166l-63 -361q-25 -133 -8.5 -181t88.5 -48q82 0 121.5 52.5t63.5 187.5l62 350h168z" />
    <glyph glyph-name="Udieresis" unicode="&#xdc;" horiz-adv-x="764" 
d="M271 773l26 151h165l-27 -151h-164zM506 773l26 151h165l-27 -151h-164zM694 346q-18 -100 -38.5 -162t-59.5 -111.5t-101 -71t-155 -21.5q-126 0 -188 43.5t-68.5 127.5t14.5 206l64 363h166l-63 -361q-25 -133 -8.5 -181t88.5 -48q82 0 121.5 52.5t63.5 187.5l62 350
h168z" />
    <glyph glyph-name="Yacute" unicode="&#xdd;" horiz-adv-x="722" 
d="M364 773l119 142h187l-139 -142h-167zM230 0l36 207l-155 513h182l77 -379l203 379h199l-341 -515l-36 -205h-165z" />
    <glyph glyph-name="Thorn" unicode="&#xde;" horiz-adv-x="748" 
d="M44 0l126 720h169l-18 -102h121q169 0 231 -58t35 -210q-25 -143 -100.5 -192t-250.5 -49h-127l-19 -109h-167zM296 481l-41 -235h108q79 0 122 26t57 103q12 68 -17.5 87t-110.5 19h-118z" />
    <glyph glyph-name="germandbls" unicode="&#xdf;" horiz-adv-x="727" 
d="M71 0l91 521q9 47 18.5 78.5t30.5 66t51.5 54.5t81.5 33.5t119 13.5q147 0 199.5 -56t33.5 -160q-7 -41 -26 -73.5t-39.5 -49.5t-42 -27.5t-34 -13.5t-15.5 -2q-1 0 3 -1q90 -20 108 -103q8 -37 0 -85q-14 -78 -46 -118t-104.5 -59t-208.5 -19l21 122q91 0 130.5 23.5
t50.5 85.5q4 25 -1 42.5t-14.5 27t-31.5 15t-40 6.5t-51 2l20 115q61 0 102.5 27.5t51.5 81.5q9 49 -7 72t-69 24q-107 0 -125 -114l-94 -530h-163z" />
    <glyph glyph-name="agrave" unicode="&#xe0;" horiz-adv-x="688" 
d="M476 624h-146l-85 171h167zM122 451q62 106 246 106q56 0 98 -8t70 -20t44.5 -34.5t24.5 -44t8 -56t-3.5 -63t-10.5 -71.5l-20 -110l-16 -150h-147l-5 40q-77 -57 -179 -57q-108 0 -155.5 46.5t-31.5 138.5t80.5 129.5t170.5 37.5q85 0 151 -8l1 5q12 67 -6.5 92
t-80.5 25q-50 0 -87 -17t-54 -43zM280 96q81 0 137 54l15 90q-32 3 -80 3q-127 0 -143 -88q-5 -28 11.5 -43.5t59.5 -15.5z" />
    <glyph glyph-name="aacute" unicode="&#xe1;" horiz-adv-x="688" 
d="M328 624l123 171h174l-143 -171h-154zM122 451q62 106 246 106q56 0 98 -8t70 -20t44.5 -34.5t24.5 -44t8 -56t-3.5 -63t-10.5 -71.5l-20 -110l-16 -150h-147l-5 40q-77 -57 -179 -57q-108 0 -155.5 46.5t-31.5 138.5t80.5 129.5t170.5 37.5q85 0 151 -8l1 5
q12 67 -6.5 92t-80.5 25q-50 0 -87 -17t-54 -43zM280 96q81 0 137 54l15 90q-32 3 -80 3q-127 0 -143 -88q-5 -28 11.5 -43.5t59.5 -15.5z" />
    <glyph glyph-name="acircumflex" unicode="&#xe2;" horiz-adv-x="688" 
d="M609 622h-142l-50 72l-75 -72h-149l160 168h152zM122 451q62 106 246 106q56 0 98 -8t70 -20t44.5 -34.5t24.5 -44t8 -56t-3.5 -63t-10.5 -71.5l-20 -110l-16 -150h-147l-5 40q-77 -57 -179 -57q-108 0 -155.5 46.5t-31.5 138.5t80.5 129.5t170.5 37.5q85 0 151 -8l1 5
q12 67 -6.5 92t-80.5 25q-50 0 -87 -17t-54 -43zM280 96q81 0 137 54l15 90q-32 3 -80 3q-127 0 -143 -88q-5 -28 11.5 -43.5t59.5 -15.5z" />
    <glyph glyph-name="atilde" unicode="&#xe3;" horiz-adv-x="688" 
d="M627 781q-14 -77 -42.5 -116.5t-87.5 -39.5q-38 0 -63.5 12.5t-42 24.5t-34.5 12q-29 0 -48 -19.5t-21 -34.5l-76 12q14 76 42.5 115t88.5 39q30 0 52.5 -7.5t33 -17t24.5 -17t29 -7.5q29 0 48 20t21 35zM122 451q62 106 246 106q56 0 98 -8t70 -20t44.5 -34.5t24.5 -44
t8 -56t-3.5 -63t-10.5 -71.5l-20 -110l-16 -150h-147l-5 40q-77 -57 -179 -57q-108 0 -155.5 46.5t-31.5 138.5t80.5 129.5t170.5 37.5q85 0 151 -8l1 5q12 67 -6.5 92t-80.5 25q-50 0 -87 -17t-54 -43zM280 96q81 0 137 54l15 90q-32 3 -80 3q-127 0 -143 -88
q-5 -28 11.5 -43.5t59.5 -15.5z" />
    <glyph glyph-name="adieresis" unicode="&#xe4;" horiz-adv-x="688" 
d="M218 622l27 151h150l-26 -151h-151zM441 622l26 151h151l-27 -151h-150zM122 451q62 106 246 106q56 0 98 -8t70 -20t44.5 -34.5t24.5 -44t8 -56t-3.5 -63t-10.5 -71.5l-20 -110l-16 -150h-147l-5 40q-77 -57 -179 -57q-108 0 -155.5 46.5t-31.5 138.5t80.5 129.5
t170.5 37.5q85 0 151 -8l1 5q12 67 -6.5 92t-80.5 25q-50 0 -87 -17t-54 -43zM280 96q81 0 137 54l15 90q-32 3 -80 3q-127 0 -143 -88q-5 -28 11.5 -43.5t59.5 -15.5z" />
    <glyph glyph-name="aring" unicode="&#xe5;" horiz-adv-x="688" 
d="M547 715q-18 -105 -135 -105q-62 0 -93.5 34t-20.5 94q19 104 135 104q63 0 94 -33.5t20 -93.5zM387 721q-5 -31 24 -31q19 0 32 12.5t16 29.5q5 30 -25 30q-19 0 -31.5 -12t-15.5 -29zM122 451q62 106 246 106q56 0 98 -8t70 -20t44.5 -34.5t24.5 -44t8 -56t-3.5 -63
t-10.5 -71.5l-20 -110l-16 -150h-147l-5 40q-77 -57 -179 -57q-108 0 -155.5 46.5t-31.5 138.5t80.5 129.5t170.5 37.5q85 0 151 -8l1 5q12 67 -6.5 92t-80.5 25q-50 0 -87 -17t-54 -43zM280 96q81 0 137 54l15 90q-32 3 -80 3q-127 0 -143 -88q-5 -28 11.5 -43.5
t59.5 -15.5z" />
    <glyph glyph-name="ae" unicode="&#xe6;" horiz-adv-x="1040" 
d="M944 113q-66 -130 -280 -130q-162 0 -217 89q-87 -85 -215 -85q-108 0 -155.5 44.5t-31.5 136.5q11 63 47 100t85 50.5t119 13.5h140q8 30 18 53q1 34 -24.5 49t-69.5 15q-49 0 -86 -17t-54 -43l-98 62q62 106 246 106q115 0 169 -56q77 60 208 60q152 0 204 -75.5
t22 -247.5h-385q-11 -77 6.5 -108t69.5 -31q54 0 93 17t52 40zM746 455q-52 0 -85.5 -28t-53.5 -92h216q4 68 -15 94t-62 26zM420 154q-6 39 0 87q-19 -1 -68 -1q-128 0 -143 -85q-5 -28 11.5 -43.5t59.5 -15.5q84 0 140 58z" />
    <glyph glyph-name="ccedilla" unicode="&#xe7;" horiz-adv-x="666" 
d="M408 -169q-9 -50 -49 -73t-138 -23q-32 0 -58 3.5t-36 6.5l-10 3l6 69q0 -2 45 -3q80 0 89 55q3 20 -12 27.5t-49 8.5h-27l59 85q-110 17 -147.5 91t-14.5 203q24 139 98 208t219 69q113 0 169.5 -45t64.5 -122l-142 -41q-10 84 -94 84q-64 0 -99.5 -42t-52.5 -134
q-15 -85 1 -119t73 -34q45 0 82.5 22t57.5 60l134 -47q-57 -136 -214 -155l-36 -52q40 -4 64.5 -30t16.5 -75z" />
    <glyph glyph-name="egrave" unicode="&#xe8;" horiz-adv-x="680" 
d="M480 624h-146l-85 171h167zM584 113q-66 -130 -280 -130q-153 0 -208.5 76.5t-29.5 224.5q24 139 99 208t220 69q152 0 204 -75.5t21 -247.5h-385q-10 -77 7.5 -108t70.5 -31t92 17t53 40zM385 455q-52 0 -85.5 -28t-53.5 -92h217q3 68 -15.5 94t-62.5 26z" />
    <glyph glyph-name="eacute" unicode="&#xe9;" horiz-adv-x="680" 
d="M332 624l123 171h174l-143 -171h-154zM584 113q-66 -130 -280 -130q-153 0 -208.5 76.5t-29.5 224.5q24 139 99 208t220 69q152 0 204 -75.5t21 -247.5h-385q-10 -77 7.5 -108t70.5 -31t92 17t53 40zM385 455q-52 0 -85.5 -28t-53.5 -92h217q3 68 -15.5 94t-62.5 26z" />
    <glyph glyph-name="ecircumflex" unicode="&#xea;" horiz-adv-x="680" 
d="M613 622h-142l-50 72l-75 -72h-149l160 168h152zM584 113q-66 -130 -280 -130q-153 0 -208.5 76.5t-29.5 224.5q24 139 99 208t220 69q152 0 204 -75.5t21 -247.5h-385q-10 -77 7.5 -108t70.5 -31t92 17t53 40zM385 455q-52 0 -85.5 -28t-53.5 -92h217q3 68 -15.5 94
t-62.5 26z" />
    <glyph glyph-name="edieresis" unicode="&#xeb;" horiz-adv-x="680" 
d="M222 622l27 151h150l-26 -151h-151zM445 622l26 151h151l-27 -151h-150zM584 113q-66 -130 -280 -130q-153 0 -208.5 76.5t-29.5 224.5q24 139 99 208t220 69q152 0 204 -75.5t21 -247.5h-385q-10 -77 7.5 -108t70.5 -31t92 17t53 40zM385 455q-52 0 -85.5 -28t-53.5 -92
h217q3 68 -15.5 94t-62.5 26z" />
    <glyph glyph-name="igrave" unicode="&#xec;" horiz-adv-x="338" 
d="M302 624h-146l-85 171h167zM39 0l95 546h164l-96 -546h-163z" />
    <glyph glyph-name="iacute" unicode="&#xed;" horiz-adv-x="338" 
d="M178 624l93 171h170l-115 -171h-148zM64 0l95 546h164l-96 -546h-163z" />
    <glyph glyph-name="icircumflex" unicode="&#xee;" horiz-adv-x="338" 
d="M435 622h-142l-50 72l-75 -72h-149l160 168h152zM39 0l95 546h164l-96 -546h-163z" />
    <glyph glyph-name="idieresis" unicode="&#xef;" horiz-adv-x="338" 
d="M44 622l27 151h150l-26 -151h-151zM267 622l26 151h151l-27 -151h-150zM39 0l95 546h164l-96 -546h-163z" />
    <glyph glyph-name="eth" unicode="&#xf0;" horiz-adv-x="691" 
d="M538 674q124 -204 87 -413q-26 -144 -99 -211t-221 -67q-156 0 -211 76t-28 225q23 131 97 197.5t221 66.5q25 0 50 -10q-13 36 -34 74l-94 -41l-30 55l91 40q-20 28 -41.5 53.5t-33.5 36.5l-12 11l192 -4q13 -14 31 -38l78 35l32 -53zM459 273q9 53 7 105
q-5 24 -25 41.5t-56 17.5q-67 0 -103 -41.5t-53 -134.5q-14 -84 2 -118t75 -34q67 0 102.5 38t50.5 126z" />
    <glyph glyph-name="ntilde" unicode="&#xf1;" horiz-adv-x="703" 
d="M639 781q-14 -77 -42.5 -116.5t-87.5 -39.5q-38 0 -63.5 12.5t-42 24.5t-34.5 12q-29 0 -48 -19.5t-21 -34.5l-76 12q14 76 42.5 115t88.5 39q30 0 52.5 -7.5t33 -17t24.5 -17t29 -7.5q29 0 48 20t21 35zM43 0l70 398l15 148h138l4 -75q29 30 81 56.5t122 26.5
q107 0 142 -62.5t9 -202.5l-50 -289h-163l52 299q11 60 -1 85.5t-57 25.5q-75 0 -140 -67l-59 -343h-163z" />
    <glyph glyph-name="ograve" unicode="&#xf2;" horiz-adv-x="691" 
d="M478 621h-146l-85 171h167zM625 261q-25 -140 -99 -209t-221 -69q-156 0 -211 76t-28 225q25 140 99 208.5t221 69.5q155 1 210 -76t29 -225zM229 261q-14 -84 2 -118t75 -34q67 0 103 41t52 134q15 84 -1.5 118t-74.5 34q-67 0 -103 -41.5t-53 -133.5z" />
    <glyph glyph-name="oacute" unicode="&#xf3;" horiz-adv-x="691" 
d="M330 621l123 171h174l-143 -171h-154zM625 261q-25 -140 -99 -209t-221 -69q-156 0 -211 76t-28 225q25 140 99 208.5t221 69.5q155 1 210 -76t29 -225zM229 261q-14 -84 2 -118t75 -34q67 0 103 41t52 134q15 84 -1.5 118t-74.5 34q-67 0 -103 -41.5t-53 -133.5z" />
    <glyph glyph-name="ocircumflex" unicode="&#xf4;" horiz-adv-x="691" 
d="M611 619h-142l-50 72l-75 -72h-149l160 168h152zM625 261q-25 -140 -99 -209t-221 -69q-156 0 -211 76t-28 225q25 140 99 208.5t221 69.5q155 1 210 -76t29 -225zM229 261q-14 -84 2 -118t75 -34q67 0 103 41t52 134q15 84 -1.5 118t-74.5 34q-67 0 -103 -41.5
t-53 -133.5z" />
    <glyph glyph-name="otilde" unicode="&#xf5;" horiz-adv-x="691" 
d="M629 778q-14 -77 -42.5 -116.5t-87.5 -39.5q-30 0 -52.5 7.5t-33.5 17t-25 17t-29 7.5q-29 0 -48 -19.5t-21 -34.5l-76 12q14 76 42.5 115t88.5 39q38 0 63 -12.5t41.5 -24.5t34.5 -12q29 0 48 20t21 35zM625 261q-25 -140 -99 -209t-221 -69q-156 0 -211 76t-28 225
q25 140 99 208.5t221 69.5q155 1 210 -76t29 -225zM229 261q-14 -84 2 -118t75 -34q67 0 103 41t52 134q15 84 -1.5 118t-74.5 34q-67 0 -103 -41.5t-53 -133.5z" />
    <glyph glyph-name="odieresis" unicode="&#xf6;" horiz-adv-x="691" 
d="M220 619l27 151h150l-26 -151h-151zM443 619l26 151h151l-27 -151h-150zM625 261q-25 -140 -99 -209t-221 -69q-156 0 -211 76t-28 225q25 140 99 208.5t221 69.5q155 1 210 -76t29 -225zM229 261q-14 -84 2 -118t75 -34q67 0 103 41t52 134q15 84 -1.5 118t-74.5 34
q-67 0 -103 -41.5t-53 -133.5z" />
    <glyph glyph-name="divide" unicode="&#xf7;" horiz-adv-x="580" 
d="M241 426l26 142h150l-25 -142h-151zM58 272l19 106h463l-18 -106h-464zM181 82l25 142h150l-24 -142h-151z" />
    <glyph glyph-name="oslash" unicode="&#xf8;" horiz-adv-x="691" 
d="M26 -12l68 71q-56 73 -28 225q25 140 99 208.5t221 69.5q102 0 159 -33l29 30h91l-70 -73q57 -74 30 -225q-25 -140 -99 -209t-221 -69q-101 0 -162 33l-27 -28h-90zM229 261q-7 -38 -7 -69l221 230q-20 14 -58 14q-67 0 -103 -41.5t-53 -133.5zM461 284q7 39 7 71
l-222 -231q21 -15 60 -15q67 0 103 41t52 134z" />
    <glyph glyph-name="ugrave" unicode="&#xf9;" horiz-adv-x="696" 
d="M479 624h-146l-85 171h167zM433 0l-4 81q-17 -19 -40 -36.5t-68.5 -35.5t-94.5 -18q-106 0 -142.5 60.5t-13.5 192.5l54 301h163l-55 -310q-9 -52 4 -76t57 -24q78 0 141 73l59 338h164l-70 -394l-16 -152h-138z" />
    <glyph glyph-name="uacute" unicode="&#xfa;" horiz-adv-x="696" 
d="M331 624l123 171h174l-143 -171h-154zM433 0l-4 81q-17 -19 -40 -36.5t-68.5 -35.5t-94.5 -18q-106 0 -142.5 60.5t-13.5 192.5l54 301h163l-55 -310q-9 -52 4 -76t57 -24q78 0 141 73l59 338h164l-70 -394l-16 -152h-138z" />
    <glyph glyph-name="ucircumflex" unicode="&#xfb;" horiz-adv-x="696" 
d="M612 622h-142l-50 72l-75 -72h-149l160 168h152zM433 0l-4 81q-17 -19 -40 -36.5t-68.5 -35.5t-94.5 -18q-106 0 -142.5 60.5t-13.5 192.5l54 301h163l-55 -310q-9 -52 4 -76t57 -24q78 0 141 73l59 338h164l-70 -394l-16 -152h-138z" />
    <glyph glyph-name="udieresis" unicode="&#xfc;" horiz-adv-x="696" 
d="M221 622l27 151h150l-26 -151h-151zM444 622l26 151h151l-27 -151h-150zM433 0l-4 81q-17 -19 -40 -36.5t-68.5 -35.5t-94.5 -18q-106 0 -142.5 60.5t-13.5 192.5l54 301h163l-55 -310q-9 -52 4 -76t57 -24q78 0 141 73l59 338h164l-70 -394l-16 -152h-138z" />
    <glyph glyph-name="yacute" unicode="&#xfd;" horiz-adv-x="651" 
d="M312 624l123 171h174l-143 -171h-154zM126 -232l111 232h-54l-102 546h170l50 -412l198 412h171l-395 -778h-149z" />
    <glyph glyph-name="thorn" unicode="&#xfe;" horiz-adv-x="701" 
d="M-2 -243l176 1002h163l-45 -253q72 52 163 52q233 0 179 -299q-23 -135 -86 -203t-174 -68q-112 0 -162 64l-52 -295h-162zM402 431q-73 0 -134 -63l-36 -204q31 -50 95 -50q118 0 147 169q27 148 -72 148z" />
    <glyph glyph-name="ydieresis" unicode="&#xff;" horiz-adv-x="651" 
d="M202 622l27 151h150l-26 -151h-151zM425 622l26 151h151l-27 -151h-150zM126 -232l111 232h-54l-102 546h170l50 -412l198 412h171l-395 -778h-149z" />
    <glyph glyph-name="Amacron" unicode="&#x100;" horiz-adv-x="783" 
d="M337 897h321l-20 -114h-321zM-21 0l391 720h197l137 -720h-179l-18 127h-284l-63 -127h-181zM286 255h202l-45 316z" />
    <glyph glyph-name="amacron" unicode="&#x101;" horiz-adv-x="688" 
d="M267 746h321l-18 -100h-322zM122 451q62 106 246 106q56 0 98 -8t70 -20t44.5 -34.5t24.5 -44t8 -56t-3.5 -63t-10.5 -71.5l-20 -110l-16 -150h-147l-5 40q-77 -57 -179 -57q-108 0 -155.5 46.5t-31.5 138.5t80.5 129.5t170.5 37.5q85 0 151 -8l1 5q12 67 -6.5 92
t-80.5 25q-50 0 -87 -17t-54 -43zM280 96q81 0 137 54l15 90q-32 3 -80 3q-127 0 -143 -88q-5 -28 11.5 -43.5t59.5 -15.5z" />
    <glyph glyph-name="Abreve" unicode="&#x102;" horiz-adv-x="783" 
d="M688 913q-11 -59 -61.5 -104t-143.5 -45q-100 0 -141.5 46t-30.5 103h116q-4 -19 14 -33.5t45 -14.5t51.5 14.5t28.5 33.5h122zM-21 0l391 720h197l137 -720h-179l-18 127h-284l-63 -127h-181zM286 255h202l-45 316z" />
    <glyph glyph-name="abreve" unicode="&#x103;" horiz-adv-x="688" 
d="M627 780q-11 -61 -64 -111t-149 -50q-103 0 -144.5 50.5t-30.5 110.5h120q-3 -21 13.5 -40.5t42.5 -19.5q33 0 56.5 19t27.5 41h128zM122 451q62 106 246 106q56 0 98 -8t70 -20t44.5 -34.5t24.5 -44t8 -56t-3.5 -63t-10.5 -71.5l-20 -110l-16 -150h-147l-5 40
q-77 -57 -179 -57q-108 0 -155.5 46.5t-31.5 138.5t80.5 129.5t170.5 37.5q85 0 151 -8l1 5q12 67 -6.5 92t-80.5 25q-50 0 -87 -17t-54 -43zM280 96q81 0 137 54l15 90q-32 3 -80 3q-127 0 -143 -88q-5 -28 11.5 -43.5t59.5 -15.5z" />
    <glyph glyph-name="Aogonek" unicode="&#x104;" horiz-adv-x="783" 
d="M413 -116q4 25 20 48t38 39t32.5 22.5t20.5 11.5l-17 122h-284l-63 -127h-181l391 720h197l137 -720h-51q-9 -5 -23 -14t-39.5 -35.5t-29.5 -51.5q-3 -26 21 -26q13 0 27.5 4.5t22.5 8.5l8 4l-9 -77q-30 -32 -106 -32q-68 0 -94 31t-18 72zM286 255h202l-45 316z" />
    <glyph glyph-name="aogonek" unicode="&#x105;" horiz-adv-x="688" 
d="M303 -116q6 33 34.5 63.5t49.5 43t28 14.5l-4 35q-77 -57 -179 -57q-108 0 -155.5 46.5t-31.5 138.5t80.5 129.5t170.5 37.5q85 0 151 -8l1 5q12 67 -6.5 92t-80.5 25q-50 0 -87 -17t-54 -43l-98 62q62 106 246 106q56 0 98 -8t70 -20t44.5 -34.5t24.5 -44t8 -56
t-3.5 -63t-10.5 -71.5l-20 -110l-16 -150h-20q-9 -5 -23 -14t-39.5 -35.5t-29.5 -51.5q-3 -26 21 -26q13 0 27.5 4.5t22.5 8.5l8 4l-9 -77q-30 -32 -106 -32q-68 0 -94 31t-18 72zM280 96q81 0 137 54l15 90q-32 3 -80 3q-127 0 -143 -88q-5 -28 11.5 -43.5t59.5 -15.5z" />
    <glyph glyph-name="Cacute" unicode="&#x106;" horiz-adv-x="754" 
d="M392 779l119 142h187l-139 -142h-167zM686 240q-33 -142 -115 -201t-224 -59q-171 0 -236.5 94t-29.5 297q34 196 125 283t255 87q144 0 212 -62t56 -197l-165 -7q4 69 -22 95t-86 26q-85 0 -135 -57t-74 -191q-21 -125 3.5 -174.5t101.5 -49.5q68 0 111 33t64 110z" />
    <glyph glyph-name="cacute" unicode="&#x107;" horiz-adv-x="666" 
d="M320 624l123 171h174l-143 -171h-154zM577 143q-66 -159 -275 -159q-154 0 -208.5 76t-27.5 224q24 139 98 208t219 69q113 0 169.5 -45t64.5 -122l-142 -41q-10 84 -94 84q-64 0 -99.5 -42t-52.5 -134q-15 -85 1 -119t73 -34q45 0 82.5 22t57.5 60z" />
    <glyph glyph-name="Ccircumflex" unicode="&#x108;" horiz-adv-x="754" 
d="M691 779h-149l-50 64l-72 -64h-151l147 148h174zM686 240q-33 -142 -115 -201t-224 -59q-171 0 -236.5 94t-29.5 297q34 196 125 283t255 87q144 0 212 -62t56 -197l-165 -7q4 69 -22 95t-86 26q-85 0 -135 -57t-74 -191q-21 -125 3.5 -174.5t101.5 -49.5q68 0 111 33
t64 110z" />
    <glyph glyph-name="ccircumflex" unicode="&#x109;" horiz-adv-x="666" 
d="M601 622h-142l-50 72l-75 -72h-149l160 168h152zM577 143q-66 -159 -275 -159q-154 0 -208.5 76t-27.5 224q24 139 98 208t219 69q113 0 169.5 -45t64.5 -122l-142 -41q-10 84 -94 84q-64 0 -99.5 -42t-52.5 -134q-15 -85 1 -119t73 -34q45 0 82.5 22t57.5 60z" />
    <glyph glyph-name="Cdotaccent" unicode="&#x10a;" horiz-adv-x="754" 
d="M396 779l26 151h165l-27 -151h-164zM686 240q-33 -142 -115 -201t-224 -59q-171 0 -236.5 94t-29.5 297q34 196 125 283t255 87q144 0 212 -62t56 -197l-165 -7q4 69 -22 95t-86 26q-85 0 -135 -57t-74 -191q-21 -125 3.5 -174.5t101.5 -49.5q68 0 111 33t64 110z" />
    <glyph glyph-name="cdotaccent" unicode="&#x10b;" horiz-adv-x="666" 
d="M315 627l26 146h164l-25 -146h-165zM577 143q-66 -159 -275 -159q-154 0 -208.5 76t-27.5 224q24 139 98 208t219 69q113 0 169.5 -45t64.5 -122l-142 -41q-10 84 -94 84q-64 0 -99.5 -42t-52.5 -134q-15 -85 1 -119t73 -34q45 0 82.5 22t57.5 60z" />
    <glyph glyph-name="Ccaron" unicode="&#x10c;" horiz-adv-x="754" 
d="M721 927l-154 -148h-174l-94 148h143l49 -65l73 65h157zM686 240q-33 -142 -115 -201t-224 -59q-171 0 -236.5 94t-29.5 297q34 196 125 283t255 87q144 0 212 -62t56 -197l-165 -7q4 69 -22 95t-86 26q-85 0 -135 -57t-74 -191q-21 -125 3.5 -174.5t101.5 -49.5
q68 0 111 33t64 110z" />
    <glyph glyph-name="ccaron" unicode="&#x10d;" horiz-adv-x="666" 
d="M634 790l-164 -168h-150l-97 168h136l50 -68l74 68h151zM577 143q-66 -159 -275 -159q-154 0 -208.5 76t-27.5 224q24 139 98 208t219 69q113 0 169.5 -45t64.5 -122l-142 -41q-10 84 -94 84q-64 0 -99.5 -42t-52.5 -134q-15 -85 1 -119t73 -34q45 0 82.5 22t57.5 60z
" />
    <glyph glyph-name="Dcaron" unicode="&#x10e;" horiz-adv-x="782" 
d="M701 921l-154 -148h-174l-94 148h143l49 -65l73 65h157zM170 722h240q158 0 236 -40.5t92 -124t-9 -209.5q-17 -98 -41 -158t-72 -106t-125.5 -65.5t-197.5 -19.5h-249zM316 579l-78 -440h101q99 0 149 51t73 181q22 122 -6.5 165t-127.5 43h-111z" />
    <glyph glyph-name="dcaron" unicode="&#x10f;" horiz-adv-x="699" 
d="M686 570l95 192h129l-128 -192h-96zM436 0l-4 66q-67 -78 -184 -78q-234 0 -181 294q23 136 86.5 206t174.5 70q104 0 161 -64l46 265h163l-108 -603l-16 -156h-138zM298 114q76 0 136 64l35 205q-31 48 -92 48q-119 0 -150 -171q-13 -75 4 -110.5t67 -35.5z" />
    <glyph glyph-name="Dcroat" unicode="&#x110;" horiz-adv-x="782" 
d="M99 317h-66l14 85h67l56 320h240q158 0 236 -40.5t92 -124t-9 -209.5q-17 -98 -41 -158t-72 -106t-125.5 -65.5t-197.5 -19.5h-249zM269 317l-31 -178h101q99 0 149 51t73 181q22 122 -6.5 165t-127.5 43h-111l-32 -177h111l-15 -85h-111z" />
    <glyph glyph-name="dcroat" unicode="&#x111;" horiz-adv-x="699" 
d="M436 0l-4 66q-67 -78 -184 -78q-234 0 -181 294q23 136 86.5 206t174.5 70q103 0 160 -64l17 94h-123l14 85h124l15 86h163l-16 -86h62l-15 -85h-62l-77 -432l-16 -156h-138zM298 114q76 0 136 64l35 205q-31 48 -92 48q-119 0 -150 -171q-13 -75 4 -110.5t67 -35.5z" />
    <glyph glyph-name="Emacron" unicode="&#x112;" horiz-adv-x="659" 
d="M296 897h321l-20 -114h-321zM44 0l126 720h513l-24 -137h-346l-27 -152h293l-22 -127h-294l-29 -167h352l-23 -137h-519z" />
    <glyph glyph-name="emacron" unicode="&#x113;" horiz-adv-x="680" 
d="M271 746h321l-18 -100h-322zM584 113q-66 -130 -280 -130q-153 0 -208.5 76.5t-29.5 224.5q24 139 99 208t220 69q152 0 204 -75.5t21 -247.5h-385q-10 -77 7.5 -108t70.5 -31t92 17t53 40zM385 455q-52 0 -85.5 -28t-53.5 -92h217q3 68 -15.5 94t-62.5 26z" />
    <glyph glyph-name="Ebreve" unicode="&#x114;" horiz-adv-x="659" 
d="M647 913q-11 -59 -61.5 -104t-143.5 -45q-100 0 -141.5 46t-30.5 103h116q-4 -19 14 -33.5t45 -14.5t51.5 14.5t28.5 33.5h122zM44 0l126 720h513l-24 -137h-346l-27 -152h293l-22 -127h-294l-29 -167h352l-23 -137h-519z" />
    <glyph glyph-name="ebreve" unicode="&#x115;" horiz-adv-x="680" 
d="M631 780q-11 -61 -64 -111t-149 -50q-103 0 -144.5 50.5t-30.5 110.5h120q-3 -21 13.5 -40.5t42.5 -19.5q33 0 56.5 19t27.5 41h128zM584 113q-66 -130 -280 -130q-153 0 -208.5 76.5t-29.5 224.5q24 139 99 208t220 69q152 0 204 -75.5t21 -247.5h-385q-10 -77 7.5 -108
t70.5 -31t92 17t53 40zM385 455q-52 0 -85.5 -28t-53.5 -92h217q3 68 -15.5 94t-62.5 26z" />
    <glyph glyph-name="Edotaccent" unicode="&#x116;" horiz-adv-x="659" 
d="M352 773l26 151h165l-27 -151h-164zM44 0l126 720h513l-24 -137h-346l-27 -152h293l-22 -127h-294l-29 -167h352l-23 -137h-519z" />
    <glyph glyph-name="edotaccent" unicode="&#x117;" horiz-adv-x="680" 
d="M327 627l26 146h164l-25 -146h-165zM584 113q-66 -130 -280 -130q-153 0 -208.5 76.5t-29.5 224.5q24 139 99 208t220 69q152 0 204 -75.5t21 -247.5h-385q-10 -77 7.5 -108t70.5 -31t92 17t53 40zM385 455q-52 0 -85.5 -28t-53.5 -92h217q3 68 -15.5 94t-62.5 26z" />
    <glyph glyph-name="Eogonek" unicode="&#x118;" horiz-adv-x="659" 
d="M323 -116q11 64 101 116h-380l126 720h513l-24 -137h-346l-27 -152h293l-22 -127h-294l-29 -167h352l-23 -137q-9 -5 -23 -14t-39.5 -35.5t-29.5 -51.5q-3 -26 21 -26q13 0 27.5 4.5t22.5 8.5l8 4l-9 -77q-30 -32 -106 -32q-68 0 -94 31t-18 72z" />
    <glyph glyph-name="eogonek" unicode="&#x119;" horiz-adv-x="680" 
d="M260 -89q7 38 42 72q-153 1 -207.5 77t-28.5 224q24 139 99 208t220 69q152 0 204 -75.5t21 -247.5h-385q-10 -77 7.5 -108t70.5 -31t92 17t53 40l136 -43q-30 -59 -95 -92q-72 -45 -81 -95q-3 -26 21 -26q13 0 27.5 4t22.5 8l8 5l-9 -77q-30 -32 -106 -32q-68 0 -94 31
t-18 72zM385 455q-52 0 -85.5 -28t-53.5 -92h217q3 68 -15.5 94t-62.5 26z" />
    <glyph glyph-name="Ecaron" unicode="&#x11a;" horiz-adv-x="659" 
d="M677 921l-154 -148h-174l-94 148h143l49 -65l73 65h157zM44 0l126 720h513l-24 -137h-346l-27 -152h293l-22 -127h-294l-29 -167h352l-23 -137h-519z" />
    <glyph glyph-name="ecaron" unicode="&#x11b;" horiz-adv-x="680" 
d="M646 790l-164 -168h-150l-97 168h136l50 -68l74 68h151zM584 113q-66 -130 -280 -130q-153 0 -208.5 76.5t-29.5 224.5q24 139 99 208t220 69q152 0 204 -75.5t21 -247.5h-385q-10 -77 7.5 -108t70.5 -31t92 17t53 40zM385 455q-52 0 -85.5 -28t-53.5 -92h217
q3 68 -15.5 94t-62.5 26z" />
    <glyph glyph-name="Gcircumflex" unicode="&#x11c;" horiz-adv-x="758" 
d="M688 779h-149l-50 64l-72 -64h-151l147 148h174zM654 95q0 -3 -11.5 -14.5t-37.5 -28.5t-60 -33t-87 -27.5t-112 -11.5q-172 -1 -237 93t-28 298q34 196 124.5 283t254.5 87q145 0 210 -62.5t54 -182.5l-159 -9q4 58 -23.5 83.5t-86.5 25.5q-84 0 -134 -57t-74 -191
q-23 -129 3.5 -180t105.5 -51q66 0 112.5 19.5t48.5 37.5l14 88h-123l19 109h275z" />
    <glyph glyph-name="gcircumflex" unicode="&#x11d;" horiz-adv-x="697" 
d="M612 622h-142l-50 72l-75 -72h-149l160 168h152zM162 -81q0 -23 24 -38.5t76 -15.5q72 0 99 34t39 104l7 39q-63 -54 -160 -54q-234 0 -181 294q24 136 87 206t174 70q117 0 174 -80l28 68h141l-38 -154l-71 -401q-15 -86 -35 -123q-61 -112 -267 -112q-119 0 -175.5 43
t-63.5 97zM297 114q75 0 133 62l37 210q-33 45 -91 45q-119 0 -149 -171q-27 -146 70 -146z" />
    <glyph glyph-name="Gbreve" unicode="&#x11e;" horiz-adv-x="758" 
d="M688 919q-11 -59 -61.5 -104t-143.5 -45q-100 0 -141.5 46t-30.5 103h116q-4 -19 14 -33.5t45 -14.5t51.5 14.5t28.5 33.5h122zM654 95q0 -3 -11.5 -14.5t-37.5 -28.5t-60 -33t-87 -27.5t-112 -11.5q-172 -1 -237 93t-28 298q34 196 124.5 283t254.5 87q145 0 210 -62.5
t54 -182.5l-159 -9q4 58 -23.5 83.5t-86.5 25.5q-84 0 -134 -57t-74 -191q-23 -129 3.5 -180t105.5 -51q66 0 112.5 19.5t48.5 37.5l14 88h-123l19 109h275z" />
    <glyph glyph-name="gbreve" unicode="&#x11f;" horiz-adv-x="697" 
d="M630 780q-11 -61 -64 -111t-149 -50q-103 0 -144.5 50.5t-30.5 110.5h120q-3 -21 13.5 -40.5t42.5 -19.5q33 0 56.5 19t27.5 41h128zM162 -81q0 -23 24 -38.5t76 -15.5q72 0 99 34t39 104l7 39q-63 -54 -160 -54q-234 0 -181 294q24 136 87 206t174 70q117 0 174 -80
l28 68h141l-38 -154l-71 -401q-15 -86 -35 -123q-61 -112 -267 -112q-119 0 -175.5 43t-63.5 97zM297 114q75 0 133 62l37 210q-33 45 -91 45q-119 0 -149 -171q-27 -146 70 -146z" />
    <glyph glyph-name="Gdotaccent" unicode="&#x120;" horiz-adv-x="758" 
d="M393 779l26 151h165l-27 -151h-164zM654 95q0 -3 -11.5 -14.5t-37.5 -28.5t-60 -33t-87 -27.5t-112 -11.5q-172 -1 -237 93t-28 298q34 196 124.5 283t254.5 87q145 0 210 -62.5t54 -182.5l-159 -9q4 58 -23.5 83.5t-86.5 25.5q-84 0 -134 -57t-74 -191
q-23 -129 3.5 -180t105.5 -51q66 0 112.5 19.5t48.5 37.5l14 88h-123l19 109h275z" />
    <glyph glyph-name="gdotaccent" unicode="&#x121;" horiz-adv-x="697" 
d="M326 627l26 146h164l-25 -146h-165zM162 -81q0 -23 24 -38.5t76 -15.5q72 0 99 34t39 104l7 39q-63 -54 -160 -54q-234 0 -181 294q24 136 87 206t174 70q117 0 174 -80l28 68h141l-38 -154l-71 -401q-15 -86 -35 -123q-61 -112 -267 -112q-119 0 -175.5 43t-63.5 97z
M297 114q75 0 133 62l37 210q-33 45 -91 45q-119 0 -149 -171q-27 -146 70 -146z" />
    <glyph glyph-name="Gcommaaccent" unicode="&#x122;" horiz-adv-x="758" 
d="M654 95q0 -3 -11.5 -14.5t-37.5 -28.5t-60 -33t-87 -27.5t-112 -11.5q-172 -1 -237 93t-28 298q34 196 124.5 283t254.5 87q145 0 210 -62.5t54 -182.5l-159 -9q4 58 -23.5 83.5t-86.5 25.5q-84 0 -134 -57t-74 -191q-23 -129 3.5 -180t105.5 -51q66 0 112.5 19.5
t48.5 37.5l14 88h-123l19 109h275zM189 -291q29 55 60 132l39 112h143q-17 -75 -57 -148q-19 -36 -37 -60t-26 -30l-8 -6h-114z" />
    <glyph glyph-name="gcommaaccent" unicode="&#x123;" horiz-adv-x="697" 
d="M567 844q-32 -60 -65 -144l-39 -112l-144 1q15 67 57 147q20 38 39.5 65t28.5 35l10 8h113zM162 -81q0 -23 24 -38.5t76 -15.5q72 0 99 34t39 104l7 39q-63 -54 -160 -54q-234 0 -181 294q24 136 87 206t174 70q117 0 174 -80l28 68h141l-38 -154l-71 -401
q-15 -86 -35 -123q-61 -112 -267 -112q-119 0 -175.5 43t-63.5 97zM297 114q75 0 133 62l37 210q-33 45 -91 45q-119 0 -149 -171q-27 -146 70 -146z" />
    <glyph glyph-name="Hcircumflex" unicode="&#x124;" horiz-adv-x="786" 
d="M691 773h-149l-50 64l-72 -64h-151l147 148h174zM44 0l126 720h167l-49 -277h269l49 277h166l-127 -720h-166l51 293h-269l-51 -293h-166z" />
    <glyph glyph-name="hcircumflex" unicode="&#x125;" horiz-adv-x="737" 
d="M503 791h-149l-50 64l-72 -64h-151l147 148h174zM71 0l134 759h163l-48 -271q80 66 184 66q106 0 142 -60.5t13 -192.5l-54 -301h-163l54 311q9 52 -3.5 75.5t-56.5 23.5q-78 0 -142 -69l-60 -341h-163z" />
    <glyph glyph-name="Hbar" unicode="&#x126;" horiz-adv-x="786" 
d="M44 0l95 543h-66l13 76h66l18 101h167l-18 -101h269l18 101h166l-18 -101h61l-13 -76h-61l-96 -543h-166l51 293h-269l-51 -293h-166zM288 443h269l17 100h-269z" />
    <glyph glyph-name="hbar" unicode="&#x127;" horiz-adv-x="737" 
d="M338 591l-18 -102q81 65 184 65q106 0 142 -60.5t13 -192.5l-54 -301h-163l54 311q9 52 -3.5 75.5t-56.5 23.5q-76 0 -142 -69l-60 -341h-163l104 591h-71l14 85h72l15 83h163l-15 -83h113l-15 -85h-113z" />
    <glyph glyph-name="Itilde" unicode="&#x128;" horiz-adv-x="352" 
d="M485 927q-13 -76 -41.5 -116t-88.5 -40q-39 0 -63.5 12t-40 24t-34.5 12q-29 0 -48 -19t-21 -34l-77 11q14 76 42.5 115.5t88.5 39.5q39 0 63 -12t40 -23.5t35 -11.5q29 0 48 19t21 34zM44 0l126 720h168l-127 -720h-167z" />
    <glyph glyph-name="itilde" unicode="&#x129;" horiz-adv-x="338" 
d="M453 781q-14 -77 -42.5 -116.5t-87.5 -39.5q-38 0 -63.5 12.5t-42 24.5t-34.5 12q-29 0 -48 -19.5t-21 -34.5l-76 12q14 76 42.5 115t88.5 39q30 0 52.5 -7.5t33 -17t24.5 -17t29 -7.5q29 0 48 20t21 35zM39 0l95 546h164l-96 -546h-163z" />
    <glyph glyph-name="Imacron" unicode="&#x12a;" horiz-adv-x="352" 
d="M126 897h321l-20 -114h-321zM44 0l126 720h168l-127 -720h-167z" />
    <glyph glyph-name="imacron" unicode="&#x12b;" horiz-adv-x="338" 
d="M93 746h321l-18 -100h-322zM39 0l95 546h164l-96 -546h-163z" />
    <glyph glyph-name="Ibreve" unicode="&#x12c;" horiz-adv-x="352" 
d="M477 913q-11 -59 -61.5 -104t-143.5 -45q-100 0 -141.5 46t-30.5 103h116q-4 -19 14 -33.5t45 -14.5t51.5 14.5t28.5 33.5h122zM44 0l126 720h168l-127 -720h-167z" />
    <glyph glyph-name="ibreve" unicode="&#x12d;" horiz-adv-x="338" 
d="M453 780q-11 -61 -64 -111t-149 -50q-103 0 -144.5 50.5t-30.5 110.5h120q-3 -21 13.5 -40.5t42.5 -19.5q33 0 56.5 19t27.5 41h128zM39 0l95 546h164l-96 -546h-163z" />
    <glyph glyph-name="Iogonek" unicode="&#x12e;" horiz-adv-x="352" 
d="M-67 -116q6 33 34 63t49 42.5t29 15.5l125 715h168l-127 -720h-38q-9 -5 -23 -14t-39.5 -35.5t-29.5 -51.5q-3 -26 21 -26q13 0 27.5 4.5t22.5 8.5l8 4l-9 -77q-30 -32 -106 -32q-68 0 -94 31t-18 72z" />
    <glyph glyph-name="iogonek" unicode="&#x12f;" horiz-adv-x="338" 
d="M149 627l26 146h164l-25 -146h-165zM-72 -116q6 33 34 63t49 42.5t29 15.5l94 541h164l-96 -546h-34q-9 -5 -23 -14t-39.5 -35.5t-29.5 -51.5q-3 -26 21 -26q13 0 27.5 4.5t22.5 8.5l8 4l-9 -77q-30 -32 -106 -32q-68 0 -94 31t-18 72z" />
    <glyph glyph-name="Idotaccent" unicode="&#x130;" horiz-adv-x="352" 
d="M182 773l26 151h165l-27 -151h-164zM44 0l126 720h168l-127 -720h-167z" />
    <glyph glyph-name="dotlessi" unicode="&#x131;" horiz-adv-x="338" 
d="M39 0l95 546h164l-96 -546h-163z" />
    <glyph glyph-name="IJ" unicode="&#x132;" horiz-adv-x="827" 
d="M44 0l126 720h168l-127 -720h-167zM750 306q-11 -64 -21 -103t-27 -77.5t-40 -59t-59.5 -37.5t-85.5 -23t-119 -6h-66l26 148h56q81 0 118 36.5t54 133.5l71 402h166z" />
    <glyph glyph-name="ij" unicode="&#x133;" horiz-adv-x="695" 
d="M149 627l26 146h164l-25 -146h-165zM508 627l26 146h164l-25 -146h-165zM39 0l95 546h164l-96 -546h-163zM573 73q-21 -120 -44 -166q-45 -89 -169 -112q-50 -9 -116 -9l15 143q44 0 72 8.5t43.5 31.5t22.5 46t15 69l82 462h162z" />
    <glyph glyph-name="Jcircumflex" unicode="&#x134;" horiz-adv-x="475" 
d="M608 773h-149l-50 64l-72 -64h-151l147 148h174zM398 306q-11 -64 -21 -103t-27 -77.5t-40 -59t-59.5 -37.5t-85.5 -23t-119 -6h-66l26 148h56q81 0 118 36.5t54 133.5l71 402h166z" />
    <glyph glyph-name="jcircumflex" unicode="&#x135;" horiz-adv-x="344" 
d="M443 622h-142l-50 72l-75 -72h-149l160 168h152zM222 73q-21 -120 -44 -166q-45 -89 -169 -112q-50 -9 -116 -9l15 143q44 0 72 8.5t43.5 31.5t22.5 46t15 69l82 462h162z" />
    <glyph glyph-name="Kcommaaccent" unicode="&#x136;" horiz-adv-x="757" 
d="M44 0l126 720h167l-65 -369l340 369h191l-291 -298l165 -422h-177l-112 294l-154 -158l-24 -136h-166zM181 -283q29 55 60 132l39 112h143q-17 -75 -57 -148q-19 -36 -37 -60t-26 -30l-8 -6h-114z" />
    <glyph glyph-name="kcommaaccent" unicode="&#x137;" horiz-adv-x="669" 
d="M71 0l134 759h157l-79 -448l218 235h180l-218 -215l136 -331h-179l-74 216l-97 -95l-21 -121h-157zM158 -283q29 55 60 132l39 112h143q-17 -75 -57 -148q-19 -36 -37 -60t-26 -30l-8 -6h-114z" />
    <glyph glyph-name="kgreenlandic" unicode="&#x138;" horiz-adv-x="667" 
d="M69 0l96 546h157l-41 -235l218 235h180l-218 -215l136 -331h-179l-74 216l-97 -95l-21 -121h-157z" />
    <glyph glyph-name="Lacute" unicode="&#x139;" horiz-adv-x="586" 
d="M183 773l119 142h187l-139 -142h-167zM44 0l126 720h167l-101 -571h294l-26 -149h-460z" />
    <glyph glyph-name="lacute" unicode="&#x13a;" horiz-adv-x="340" 
d="M177 809l119 142h187l-139 -142h-167zM289 -1h-47q-51 0 -86.5 12t-53.5 31.5t-25.5 49t-6 57.5t8.5 65l95 546h164l-97 -550q-6 -33 0.5 -53.5t26.5 -20.5h45z" />
    <glyph glyph-name="Lcommaaccent" unicode="&#x13b;" horiz-adv-x="586" 
d="M44 0l126 720h167l-101 -571h294l-26 -149h-460zM96 -283q29 55 60 132l39 112h143q-17 -75 -57 -148q-19 -36 -37 -60t-26 -30l-8 -6h-114z" />
    <glyph glyph-name="lcommaaccent" unicode="&#x13c;" horiz-adv-x="340" 
d="M289 -1h-47q-51 0 -86.5 12t-53.5 31.5t-25.5 49t-6 57.5t8.5 65l95 546h164l-97 -550q-6 -33 0.5 -53.5t26.5 -20.5h45zM17 -283q29 55 60 132l39 112h143q-17 -75 -57 -148q-19 -36 -37 -60t-26 -30l-8 -6h-114z" />
    <glyph glyph-name="Lcaron" unicode="&#x13d;" horiz-adv-x="586" 
d="M373 566l102 204h136l-123 -204h-115zM44 0l126 720h167l-101 -571h294l-26 -149h-460z" />
    <glyph glyph-name="lcaron" unicode="&#x13e;" horiz-adv-x="340" 
d="M331 570l95 192h129l-128 -192h-96zM289 -1h-47q-51 0 -86.5 12t-53.5 31.5t-25.5 49t-6 57.5t8.5 65l95 546h164l-97 -550q-6 -33 0.5 -53.5t26.5 -20.5h45z" />
    <glyph glyph-name="Ldot" unicode="&#x13f;" horiz-adv-x="581" 
d="M44 0l127 720h173l-100 -566h276l-28 -154h-448zM344 306l26 149h164l-27 -149h-163z" />
    <glyph glyph-name="ldot" unicode="&#x140;" horiz-adv-x="487" 
d="M302 -1h-47q-64 0 -103.5 18t-52.5 48t-15.5 69t7.5 80l96 546h164l-97 -550q-14 -74 27 -74h45zM306 295l27 150h164l-27 -150h-164z" />
    <glyph glyph-name="Lslash" unicode="&#x141;" horiz-adv-x="586" 
d="M44 0l51 291l-79 -36l-29 91l128 59l55 315h167l-41 -230l91 42l29 -92l-140 -65l-40 -226h294l-26 -149h-460z" />
    <glyph glyph-name="lslash" unicode="&#x142;" horiz-adv-x="340" 
d="M268 363l-27 -153q-6 -33 0.5 -53.5t26.5 -20.5h45l-24 -137h-47q-51 0 -86.5 12t-53.5 31.5t-25.5 49t-6 57.5t8.5 65l11 67l-80 -37l-29 91l129 60l64 365h164l-50 -282l93 43l29 -92z" />
    <glyph glyph-name="Nacute" unicode="&#x143;" horiz-adv-x="820" 
d="M410 773l119 142h187l-139 -142h-167zM286 535l-86 -535h-156l129 720h189l206 -526l83 526h155l-126 -720h-191z" />
    <glyph glyph-name="nacute" unicode="&#x144;" horiz-adv-x="703" 
d="M340 624l123 171h174l-143 -171h-154zM43 0l70 398l15 148h138l4 -75q29 30 81 56.5t122 26.5q107 0 142 -62.5t9 -202.5l-50 -289h-163l52 299q11 60 -1 85.5t-57 25.5q-75 0 -140 -67l-59 -343h-163z" />
    <glyph glyph-name="Ncommaaccent" unicode="&#x145;" horiz-adv-x="820" 
d="M286 535l-86 -535h-156l129 720h189l206 -526l83 526h155l-126 -720h-191zM210 -283q29 55 60 132l39 112h143q-17 -75 -57 -148q-19 -36 -37 -60t-26 -30l-8 -6h-114z" />
    <glyph glyph-name="ncommaaccent" unicode="&#x146;" horiz-adv-x="703" 
d="M43 0l70 398l15 148h138l4 -75q29 30 81 56.5t122 26.5q107 0 142 -62.5t9 -202.5l-50 -289h-163l52 299q11 60 -1 85.5t-57 25.5q-75 0 -140 -67l-59 -343h-163zM142 -283q29 55 60 132l39 112h143q-17 -75 -57 -148q-19 -36 -37 -60t-26 -30l-8 -6h-114z" />
    <glyph glyph-name="Ncaron" unicode="&#x147;" horiz-adv-x="820" 
d="M739 921l-154 -148h-174l-94 148h143l49 -65l73 65h157zM286 535l-86 -535h-156l129 720h189l206 -526l83 526h155l-126 -720h-191z" />
    <glyph glyph-name="ncaron" unicode="&#x148;" horiz-adv-x="703" 
d="M654 790l-164 -168h-150l-97 168h136l50 -68l74 68h151zM43 0l70 398l15 148h138l4 -75q29 30 81 56.5t122 26.5q107 0 142 -62.5t9 -202.5l-50 -289h-163l52 299q11 60 -1 85.5t-57 25.5q-75 0 -140 -67l-59 -343h-163z" />
    <glyph glyph-name="Eng" unicode="&#x14a;" horiz-adv-x="820" 
d="M806 720l-126 -720q-10 -52 -26 -89.5t-48.5 -72t-88.5 -52.5t-136 -18h-60l22 126h51q63 0 99 24.5t45 81.5v1l-257 505l-81 -506h-156l129 720h172l232 -468l74 468h155z" />
    <glyph glyph-name="eng" unicode="&#x14b;" horiz-adv-x="707" 
d="M43 0l70 398l18 148h135l4 -79q16 17 38.5 34t69.5 35t98 18q106 0 141 -61t12 -199l-37 -215q-22 -121 -44 -167q-45 -88 -165 -111q-51 -10 -121 -10l14 142q45 0 72 8.5t43 32t22.5 46.5t15.5 70l38 209q11 60 -1.5 85.5t-57.5 25.5q-76 0 -144 -71l-58 -339h-163z
" />
    <glyph glyph-name="Omacron" unicode="&#x14c;" horiz-adv-x="782" 
d="M342 903h321l-20 -114h-321zM731 348q-35 -196 -125.5 -282t-256.5 -86q-173 0 -238.5 93.5t-29.5 297.5q34 196 125 283t257 87q173 0 238.5 -94t29.5 -299zM247 348q-21 -125 4 -174.5t103 -49.5q87 0 137 57t73 190q23 126 -2 175.5t-104 49.5q-86 0 -136.5 -57
t-74.5 -191z" />
    <glyph glyph-name="omacron" unicode="&#x14d;" horiz-adv-x="691" 
d="M269 743h321l-18 -100h-322zM625 261q-25 -140 -99 -209t-221 -69q-156 0 -211 76t-28 225q25 140 99 208.5t221 69.5q155 1 210 -76t29 -225zM229 261q-14 -84 2 -118t75 -34q67 0 103 41t52 134q15 84 -1.5 118t-74.5 34q-67 0 -103 -41.5t-53 -133.5z" />
    <glyph glyph-name="Obreve" unicode="&#x14e;" horiz-adv-x="782" 
d="M693 919q-11 -59 -61.5 -104t-143.5 -45q-100 0 -141.5 46t-30.5 103h116q-4 -19 14 -33.5t45 -14.5t51.5 14.5t28.5 33.5h122zM731 348q-35 -196 -125.5 -282t-256.5 -86q-173 0 -238.5 93.5t-29.5 297.5q34 196 125 283t257 87q173 0 238.5 -94t29.5 -299zM247 348
q-21 -125 4 -174.5t103 -49.5q87 0 137 57t73 190q23 126 -2 175.5t-104 49.5q-86 0 -136.5 -57t-74.5 -191z" />
    <glyph glyph-name="obreve" unicode="&#x14f;" horiz-adv-x="691" 
d="M629 777q-11 -61 -64 -111t-149 -50q-103 0 -144.5 50.5t-30.5 110.5h120q-3 -21 13.5 -40.5t42.5 -19.5q33 0 56.5 19t27.5 41h128zM625 261q-25 -140 -99 -209t-221 -69q-156 0 -211 76t-28 225q25 140 99 208.5t221 69.5q155 1 210 -76t29 -225zM229 261
q-14 -84 2 -118t75 -34q67 0 103 41t52 134q15 84 -1.5 118t-74.5 34q-67 0 -103 -41.5t-53 -133.5z" />
    <glyph glyph-name="Ohungarumlaut" unicode="&#x150;" horiz-adv-x="782" 
d="M284 781l115 142h170l-136 -142h-149zM493 781l137 142h170l-159 -142h-148zM731 348q-35 -196 -125.5 -282t-256.5 -86q-173 0 -238.5 93.5t-29.5 297.5q34 196 125 283t257 87q173 0 238.5 -94t29.5 -299zM247 348q-21 -125 4 -174.5t103 -49.5q87 0 137 57t73 190
q23 126 -2 175.5t-104 49.5q-86 0 -136.5 -57t-74.5 -191z" />
    <glyph glyph-name="ohungarumlaut" unicode="&#x151;" horiz-adv-x="691" 
d="M204 621l119 171h170l-141 -171h-148zM413 621l142 171h169l-163 -171h-148zM625 261q-25 -140 -99 -209t-221 -69q-156 0 -211 76t-28 225q25 140 99 208.5t221 69.5q155 1 210 -76t29 -225zM229 261q-14 -84 2 -118t75 -34q67 0 103 41t52 134q15 84 -1.5 118t-74.5 34
q-67 0 -103 -41.5t-53 -133.5z" />
    <glyph glyph-name="OE" unicode="&#x152;" horiz-adv-x="1050" 
d="M347 0q-174 0 -237.5 85t-28.5 286q34 194 121.5 271.5t260.5 77.5h611l-24 -137h-345l-27 -152h292l-22 -127h-293l-29 -167h352l-24 -137h-607zM248 348q-21 -124 4.5 -171.5t108.5 -47.5h97l81 462h-87q-83 0 -132 -55.5t-72 -187.5z" />
    <glyph glyph-name="oe" unicode="&#x153;" horiz-adv-x="1077" 
d="M980 113q-66 -130 -279 -130q-143 0 -190 71q-63 -71 -206 -71q-156 0 -211 76t-28 225q25 140 99 208.5t221 69.5q144 0 191 -72q65 71 205 71q152 0 204 -75.5t22 -247.5h-386q-11 -76 7 -107.5t70 -31.5q53 0 92 17t52 40zM783 455q-53 0 -86.5 -28t-53.5 -92h216
q4 68 -14.5 94t-61.5 26zM229 261q-15 -86 1.5 -119t75.5 -33q67 0 102.5 40.5t52.5 134.5q16 86 -0.5 119t-75.5 33q-68 0 -103.5 -40.5t-52.5 -134.5z" />
    <glyph glyph-name="Racute" unicode="&#x154;" horiz-adv-x="771" 
d="M368 773l119 142h187l-139 -142h-167zM44 0l126 722h292q176 0 239.5 -56t37.5 -206q-17 -93 -53.5 -142.5t-105.5 -71.5l80 -246h-175l-62 226q-14 -1 -44 -1h-130l-39 -225h-166zM312 584l-39 -222h107q90 0 134.5 24.5t57.5 98.5q12 65 -19.5 82t-123.5 17h-117z" />
    <glyph glyph-name="racute" unicode="&#x155;" horiz-adv-x="481" 
d="M235 624l123 171h174l-143 -171h-154zM43 0l68 384l17 162h140l1 -94q22 41 73.5 75t143.5 34l-15 -145q-46 0 -85 -13t-64.5 -34.5t-40 -38.5t-24.5 -35l-51 -295h-163z" />
    <glyph glyph-name="Rcommaaccent" unicode="&#x156;" horiz-adv-x="771" 
d="M44 0l126 722h292q176 0 239.5 -56t37.5 -206q-17 -93 -53.5 -142.5t-105.5 -71.5l80 -246h-175l-62 226q-14 -1 -44 -1h-130l-39 -225h-166zM312 584l-39 -222h107q90 0 134.5 24.5t57.5 98.5q12 65 -19.5 82t-123.5 17h-117zM165 -283q29 55 60 132l39 112h143
q-17 -75 -57 -148q-19 -36 -37 -60t-26 -30l-8 -6h-114z" />
    <glyph glyph-name="rcommaaccent" unicode="&#x157;" horiz-adv-x="481" 
d="M43 0l68 384l17 162h140l1 -94q22 41 73.5 75t143.5 34l-15 -145q-46 0 -85 -13t-64.5 -34.5t-40 -38.5t-24.5 -35l-51 -295h-163zM-55 -283q29 55 60 132l39 112h143q-17 -75 -57 -148q-19 -36 -37 -60t-26 -30l-8 -6h-114z" />
    <glyph glyph-name="Rcaron" unicode="&#x158;" horiz-adv-x="771" 
d="M697 921l-154 -148h-174l-94 148h143l49 -65l73 65h157zM44 0l126 722h292q176 0 239.5 -56t37.5 -206q-17 -93 -53.5 -142.5t-105.5 -71.5l80 -246h-175l-62 226q-14 -1 -44 -1h-130l-39 -225h-166zM312 584l-39 -222h107q90 0 134.5 24.5t57.5 98.5q12 65 -19.5 82
t-123.5 17h-117z" />
    <glyph glyph-name="rcaron" unicode="&#x159;" horiz-adv-x="481" 
d="M549 790l-164 -168h-150l-97 168h136l50 -68l74 68h151zM43 0l68 384l17 162h140l1 -94q22 41 73.5 75t143.5 34l-15 -145q-46 0 -85 -13t-64.5 -34.5t-40 -38.5t-24.5 -35l-51 -295h-163z" />
    <glyph glyph-name="Sacute" unicode="&#x15a;" horiz-adv-x="732" 
d="M366 779l119 142h187l-139 -142h-167zM215 223q-6 -57 24 -82.5t96 -26.5q64 0 106 24t51 72q5 27 -16 45.5t-57.5 28.5t-81.5 19t-88.5 24t-78 37.5t-50.5 64t-5 99.5q39 214 320 213q147 -1 209.5 -56.5t53.5 -160.5l-160 -14q4 45 -18 69.5t-88 25.5q-71 0 -109.5 -26
t-45.5 -69q-5 -27 16 -45t58 -28t81.5 -19t88.5 -24t78 -37t50.5 -64t6.5 -100q-36 -215 -332 -213q-143 1 -211.5 59.5t-58.5 171.5z" />
    <glyph glyph-name="sacute" unicode="&#x15b;" horiz-adv-x="646" 
d="M308 624l123 171h174l-143 -171h-154zM176 165q7 -67 103 -69q119 -1 132 71q5 25 -19.5 39.5t-64.5 18.5t-86 13.5t-84 23.5t-59 49.5t-12 90.5q27 161 277 160q225 -1 235 -143l-137 -22q-6 30 -27 42.5t-66 13.5q-59 1 -90 -20t-36 -51q-4 -23 21 -35.5t65.5 -16.5
t86.5 -14t84.5 -24.5t59.5 -51.5t11 -93q-15 -82 -82 -123t-206 -41q-120 1 -182.5 44.5t-64.5 121.5z" />
    <glyph glyph-name="Scircumflex" unicode="&#x15c;" horiz-adv-x="732" 
d="M665 779h-149l-50 64l-72 -64h-151l147 148h174zM215 223q-6 -57 24 -82.5t96 -26.5q64 0 106 24t51 72q5 27 -16 45.5t-57.5 28.5t-81.5 19t-88.5 24t-78 37.5t-50.5 64t-5 99.5q39 214 320 213q147 -1 209.5 -56.5t53.5 -160.5l-160 -14q4 45 -18 69.5t-88 25.5
q-71 0 -109.5 -26t-45.5 -69q-5 -27 16 -45t58 -28t81.5 -19t88.5 -24t78 -37t50.5 -64t6.5 -100q-36 -215 -332 -213q-143 1 -211.5 59.5t-58.5 171.5z" />
    <glyph glyph-name="scircumflex" unicode="&#x15d;" horiz-adv-x="646" 
d="M589 622h-142l-50 72l-75 -72h-149l160 168h152zM176 165q7 -67 103 -69q119 -1 132 71q5 25 -19.5 39.5t-64.5 18.5t-86 13.5t-84 23.5t-59 49.5t-12 90.5q27 161 277 160q225 -1 235 -143l-137 -22q-6 30 -27 42.5t-66 13.5q-59 1 -90 -20t-36 -51q-4 -23 21 -35.5
t65.5 -16.5t86.5 -14t84.5 -24.5t59.5 -51.5t11 -93q-15 -82 -82 -123t-206 -41q-120 1 -182.5 44.5t-64.5 121.5z" />
    <glyph glyph-name="Scedilla" unicode="&#x15e;" horiz-adv-x="732" 
d="M429 -181q-9 -50 -49 -73t-138 -23q-32 0 -58 3.5t-36 6.5l-10 3l6 69q0 -2 45 -3q80 0 89 55q3 20 -12 27.5t-49 8.5h-27l64 92q-107 14 -158 71t-42 155l161 12q-6 -57 24 -82.5t96 -26.5q64 0 106 24t51 72q5 27 -16 45.5t-57.5 28.5t-81.5 19t-88.5 24t-78 37.5
t-50.5 64t-5 99.5q39 214 320 213q147 -1 209.5 -56.5t53.5 -160.5l-160 -14q4 45 -18 69.5t-88 25.5q-71 0 -109.5 -26t-45.5 -69q-5 -27 16 -45t58 -28t81.5 -19t88.5 -24t78 -37t50.5 -64t6.5 -100q-31 -189 -267 -210l-41 -59q40 -4 64.5 -30t16.5 -75z" />
    <glyph glyph-name="scedilla" unicode="&#x15f;" horiz-adv-x="646" 
d="M389 -166q-9 -50 -49 -73t-138 -23q-32 0 -58 3t-36 7l-10 3l6 69q0 -2 45 -3q80 0 89 55q4 23 -15.5 29.5t-62.5 6.5h-10l56 81q-169 27 -171 160l141 16q7 -67 103 -69q119 -1 132 71q5 25 -19.5 39.5t-64.5 18.5t-86 13.5t-84 23.5t-59 49.5t-12 90.5q27 161 277 160
q225 -1 235 -143l-137 -22q-6 30 -27 42.5t-66 13.5q-59 1 -90 -20t-36 -51q-4 -23 21 -35.5t65.5 -16.5t86.5 -14t84.5 -24.5t59.5 -51.5t11 -93q-13 -73 -66.5 -113t-162.5 -48l-33 -47q40 -4 64.5 -30t16.5 -75z" />
    <glyph glyph-name="Scaron" unicode="&#x160;" horiz-adv-x="732" 
d="M695 927l-154 -148h-174l-94 148h143l49 -65l73 65h157zM215 223q-6 -57 24 -82.5t96 -26.5q64 0 106 24t51 72q5 27 -16 45.5t-57.5 28.5t-81.5 19t-88.5 24t-78 37.5t-50.5 64t-5 99.5q39 214 320 213q147 -1 209.5 -56.5t53.5 -160.5l-160 -14q4 45 -18 69.5t-88 25.5
q-71 0 -109.5 -26t-45.5 -69q-5 -27 16 -45t58 -28t81.5 -19t88.5 -24t78 -37t50.5 -64t6.5 -100q-36 -215 -332 -213q-143 1 -211.5 59.5t-58.5 171.5z" />
    <glyph glyph-name="scaron" unicode="&#x161;" horiz-adv-x="646" 
d="M622 790l-164 -168h-150l-97 168h136l50 -68l74 68h151zM176 165q7 -67 103 -69q119 -1 132 71q5 25 -19.5 39.5t-64.5 18.5t-86 13.5t-84 23.5t-59 49.5t-12 90.5q27 161 277 160q225 -1 235 -143l-137 -22q-6 30 -27 42.5t-66 13.5q-59 1 -90 -20t-36 -51
q-4 -23 21 -35.5t65.5 -16.5t86.5 -14t84.5 -24.5t59.5 -51.5t11 -93q-15 -82 -82 -123t-206 -41q-120 1 -182.5 44.5t-64.5 121.5z" />
    <glyph glyph-name="uni0162" unicode="&#x162;" horiz-adv-x="657" 
d="M367 -170q-9 -50 -49 -73t-138 -23q-32 0 -58 3t-36 7l-10 3l6 69q0 -2 45 -3q80 0 89 55q4 23 -15.5 29.5t-62.5 6.5h-10l67 96l102 572h-213l27 148h593l-27 -148h-214l-101 -572h-30l-46 -65q40 -4 64.5 -30t16.5 -75z" />
    <glyph glyph-name="uni0163" unicode="&#x163;" horiz-adv-x="442" 
d="M350 -153q-9 -50 -49 -73t-138 -23q-32 0 -58 3.5t-36 6.5l-10 3l6 69q0 -2 45 -3q80 0 89 55q4 23 -15.5 29.5t-62.5 6.5h-10l67 96h2q-45 17 -65.5 52t-19 81t11.5 105l31 176h-74l20 115h74l26 148l168 26l-31 -174h123l-20 -115h-123l-32 -181q-13 -62 -0.5 -88
t61.5 -26h45l-24 -137h-49l-33 -47q40 -4 64.5 -30t16.5 -75z" />
    <glyph glyph-name="Tcaron" unicode="&#x164;" horiz-adv-x="657" 
d="M660 921l-154 -148h-174l-94 148h143l49 -65l73 65h157zM195 0l102 572h-213l27 148h593l-27 -148h-214l-101 -572h-167z" />
    <glyph glyph-name="tcaron" unicode="&#x165;" horiz-adv-x="442" 
d="M364 588l95 192h129l-128 -192h-96zM351 -1h-47q-79 0 -126.5 19t-64 52.5t-18 80.5t11.5 104l31 176h-74l20 115h74l26 148l168 26l-31 -174h123l-20 -115h-123l-32 -181q-13 -62 -0.5 -88t61.5 -26h45z" />
    <glyph glyph-name="Tbar" unicode="&#x166;" horiz-adv-x="657" 
d="M195 0l49 273h-92l14 85h93l38 214h-213l27 148h593l-27 -148h-214l-38 -214h89l-15 -85h-89l-48 -273h-167z" />
    <glyph glyph-name="tbar" unicode="&#x167;" horiz-adv-x="442" 
d="M351 -1h-47q-77 0 -124 17.5t-64.5 50t-20 77.5t9.5 99h-67l14 85h68l18 103h-74l20 115h74l26 148l168 26l-31 -174h123l-20 -115h-123l-18 -103h117l-15 -85h-117q-10 -61 2 -84t60 -23h45z" />
    <glyph glyph-name="Utilde" unicode="&#x168;" horiz-adv-x="764" 
d="M691 927q-13 -76 -41.5 -116t-88.5 -40q-39 0 -63.5 12t-40 24t-34.5 12q-29 0 -48 -19t-21 -34l-77 11q14 76 42.5 115.5t88.5 39.5q39 0 63 -12t40 -23.5t35 -11.5q29 0 48 19t21 34zM694 346q-18 -100 -38.5 -162t-59.5 -111.5t-101 -71t-155 -21.5q-126 0 -188 43.5
t-68.5 127.5t14.5 206l64 363h166l-63 -361q-25 -133 -8.5 -181t88.5 -48q82 0 121.5 52.5t63.5 187.5l62 350h168z" />
    <glyph glyph-name="utilde" unicode="&#x169;" horiz-adv-x="696" 
d="M630 781q-14 -77 -42.5 -116.5t-87.5 -39.5q-38 0 -63.5 12.5t-42 24.5t-34.5 12q-29 0 -48 -19.5t-21 -34.5l-76 12q14 76 42.5 115t88.5 39q30 0 52.5 -7.5t33 -17t24.5 -17t29 -7.5q29 0 48 20t21 35zM433 0l-4 81q-17 -19 -40 -36.5t-68.5 -35.5t-94.5 -18
q-106 0 -142.5 60.5t-13.5 192.5l54 301h163l-55 -310q-9 -52 4 -76t57 -24q78 0 141 73l59 338h164l-70 -394l-16 -152h-138z" />
    <glyph glyph-name="Umacron" unicode="&#x16a;" horiz-adv-x="764" 
d="M332 897h321l-20 -114h-321zM694 346q-18 -100 -38.5 -162t-59.5 -111.5t-101 -71t-155 -21.5q-126 0 -188 43.5t-68.5 127.5t14.5 206l64 363h166l-63 -361q-25 -133 -8.5 -181t88.5 -48q82 0 121.5 52.5t63.5 187.5l62 350h168z" />
    <glyph glyph-name="umacron" unicode="&#x16b;" horiz-adv-x="696" 
d="M270 746h321l-18 -100h-322zM433 0l-4 81q-17 -19 -40 -36.5t-68.5 -35.5t-94.5 -18q-106 0 -142.5 60.5t-13.5 192.5l54 301h163l-55 -310q-9 -52 4 -76t57 -24q78 0 141 73l59 338h164l-70 -394l-16 -152h-138z" />
    <glyph glyph-name="Ubreve" unicode="&#x16c;" horiz-adv-x="764" 
d="M683 913q-11 -59 -61.5 -104t-143.5 -45q-100 0 -141.5 46t-30.5 103h116q-4 -19 14 -33.5t45 -14.5t51.5 14.5t28.5 33.5h122zM694 346q-18 -100 -38.5 -162t-59.5 -111.5t-101 -71t-155 -21.5q-126 0 -188 43.5t-68.5 127.5t14.5 206l64 363h166l-63 -361
q-25 -133 -8.5 -181t88.5 -48q82 0 121.5 52.5t63.5 187.5l62 350h168z" />
    <glyph glyph-name="ubreve" unicode="&#x16d;" horiz-adv-x="696" 
d="M630 780q-11 -61 -64 -111t-149 -50q-103 0 -144.5 50.5t-30.5 110.5h120q-3 -21 13.5 -40.5t42.5 -19.5q33 0 56.5 19t27.5 41h128zM433 0l-4 81q-17 -19 -40 -36.5t-68.5 -35.5t-94.5 -18q-106 0 -142.5 60.5t-13.5 192.5l54 301h163l-55 -310q-9 -52 4 -76t57 -24
q78 0 141 73l59 338h164l-70 -394l-16 -152h-138z" />
    <glyph glyph-name="Uring" unicode="&#x16e;" horiz-adv-x="764" 
d="M620 873q-10 -54 -47 -83t-94 -29q-65 0 -97.5 35.5t-20.5 98.5q9 54 46.5 82t94.5 28q64 0 96.5 -35t21.5 -97zM453 873q-5 -26 20 -26q20 0 35.5 13.5t19.5 34.5q3 24 -22 24q-20 0 -34.5 -13t-18.5 -33zM694 346q-18 -100 -38.5 -162t-59.5 -111.5t-101 -71
t-155 -21.5q-126 0 -188 43.5t-68.5 127.5t14.5 206l64 363h166l-63 -361q-25 -133 -8.5 -181t88.5 -48q82 0 121.5 52.5t63.5 187.5l62 350h168z" />
    <glyph glyph-name="uring" unicode="&#x16f;" horiz-adv-x="696" 
d="M550 715q-18 -105 -135 -105q-62 0 -93.5 34t-20.5 94q19 104 135 104q63 0 94 -33.5t20 -93.5zM390 721q-5 -31 24 -31q19 0 32 12.5t16 29.5q5 30 -25 30q-19 0 -31.5 -12t-15.5 -29zM433 0l-4 81q-17 -19 -40 -36.5t-68.5 -35.5t-94.5 -18q-106 0 -142.5 60.5
t-13.5 192.5l54 301h163l-55 -310q-9 -52 4 -76t57 -24q78 0 141 73l59 338h164l-70 -394l-16 -152h-138z" />
    <glyph glyph-name="Uhungarumlaut" unicode="&#x170;" horiz-adv-x="764" 
d="M274 775l115 142h170l-136 -142h-149zM483 775l137 142h170l-159 -142h-148zM694 346q-18 -100 -38.5 -162t-59.5 -111.5t-101 -71t-155 -21.5q-126 0 -188 43.5t-68.5 127.5t14.5 206l64 363h166l-63 -361q-25 -133 -8.5 -181t88.5 -48q82 0 121.5 52.5t63.5 187.5
l62 350h168z" />
    <glyph glyph-name="uhungarumlaut" unicode="&#x171;" horiz-adv-x="696" 
d="M205 624l119 171h170l-141 -171h-148zM414 624l142 171h169l-163 -171h-148zM433 0l-4 81q-17 -19 -40 -36.5t-68.5 -35.5t-94.5 -18q-106 0 -142.5 60.5t-13.5 192.5l54 301h163l-55 -310q-9 -52 4 -76t57 -24q78 0 141 73l59 338h164l-70 -394l-16 -152h-138z" />
    <glyph glyph-name="Uogonek" unicode="&#x172;" horiz-adv-x="764" 
d="M309 -85q5 34 35 65h-4q-126 0 -188 43.5t-68.5 127.5t14.5 206l64 363h166l-63 -361q-25 -133 -8.5 -181t88.5 -48q82 0 121.5 52.5t63.5 187.5l62 350h168l-66 -374q-25 -139 -61.5 -216.5t-108.5 -114.5q-60 -41 -67 -85q-3 -26 21 -26q13 0 27.5 4t22.5 8l8 5l-9 -77
q-30 -32 -106 -32q-68 0 -94 31t-18 72z" />
    <glyph glyph-name="uogonek" unicode="&#x173;" horiz-adv-x="696" 
d="M561 0q-9 -5 -23 -13.5t-39.5 -35t-29.5 -51.5q-3 -26 22 -26q13 0 27 4t22 8l8 5l-9 -77q-3 -4 -10 -9t-34.5 -14t-61.5 -9q-68 0 -93.5 31t-17.5 72q5 32 33 62.5t47 42t30 16.5l-3 75q-17 -19 -40 -36.5t-68.5 -35.5t-94.5 -18q-106 0 -142.5 60.5t-13.5 192.5l54 301
h163l-55 -310q-9 -52 4 -76t57 -24q78 0 141 73l59 338h164l-70 -394l-16 -152h-10z" />
    <glyph glyph-name="Wcircumflex" unicode="&#x174;" horiz-adv-x="1140" 
d="M875 773h-149l-50 64l-72 -64h-151l147 148h174zM621 558l-217 -558h-213l-73 720h190l18 -579l223 579h204l17 -578l230 578h181l-333 -720h-210z" />
    <glyph glyph-name="wcircumflex" unicode="&#x175;" horiz-adv-x="959" 
d="M746 622h-142l-50 72l-75 -72h-149l160 168h152zM501 404l-159 -404h-194l-70 546h168l19 -423l167 423h186l24 -425l166 425h173l-260 -546h-197z" />
    <glyph glyph-name="Ycircumflex" unicode="&#x176;" horiz-adv-x="722" 
d="M663 773h-149l-50 64l-72 -64h-151l147 148h174zM230 0l36 207l-155 513h182l77 -379l203 379h199l-341 -515l-36 -205h-165z" />
    <glyph glyph-name="ycircumflex" unicode="&#x177;" horiz-adv-x="651" 
d="M593 622h-142l-50 72l-75 -72h-149l160 168h152zM126 -232l111 232h-54l-102 546h170l50 -412l198 412h171l-395 -778h-149z" />
    <glyph glyph-name="Ydieresis" unicode="&#x178;" horiz-adv-x="722" 
d="M251 773l26 151h165l-27 -151h-164zM486 773l26 151h165l-27 -151h-164zM230 0l36 207l-155 513h182l77 -379l203 379h199l-341 -515l-36 -205h-165z" />
    <glyph glyph-name="Zacute" unicode="&#x179;" horiz-adv-x="657" 
d="M333 773l119 142h187l-139 -142h-167zM-3 2l9 53l13 87l428 436h-335l26 141h546l-9 -49h1l-15 -92l-431 -436h357l-24 -140h-566z" />
    <glyph glyph-name="zacute" unicode="&#x17a;" horiz-adv-x="564" 
d="M268 624l123 171h174l-143 -171h-154zM-2 1l15 85l5 41l325 293h-260l22 124h456l-10 -57l-10 -66l-323 -294h269l-22 -126h-467z" />
    <glyph glyph-name="Zdotaccent" unicode="&#x17b;" horiz-adv-x="657" 
d="M337 773l26 151h165l-27 -151h-164zM-3 2l9 53l13 87l428 436h-335l26 141h546l-9 -49h1l-15 -92l-431 -436h357l-24 -140h-566z" />
    <glyph glyph-name="zdotaccent" unicode="&#x17c;" horiz-adv-x="564" 
d="M263 627l26 146h164l-25 -146h-165zM-2 1l15 85l5 41l325 293h-260l22 124h456l-10 -57l-10 -66l-323 -294h269l-22 -126h-467z" />
    <glyph glyph-name="Zcaron" unicode="&#x17d;" horiz-adv-x="657" 
d="M662 921l-154 -148h-174l-94 148h143l49 -65l73 65h157zM-3 2l9 53l13 87l428 436h-335l26 141h546l-9 -49h1l-15 -92l-431 -436h357l-24 -140h-566z" />
    <glyph glyph-name="zcaron" unicode="&#x17e;" horiz-adv-x="564" 
d="M582 790l-164 -168h-150l-97 168h136l50 -68l74 68h151zM-2 1l15 85l5 41l325 293h-260l22 124h456l-10 -57l-10 -66l-323 -294h269l-22 -126h-467z" />
    <glyph glyph-name="uni018F" unicode="&#x18f;" horiz-adv-x="777" 
d="M118 529q43 112 126.5 162t214.5 50q174 0 238.5 -94t28.5 -299q-34 -196 -124 -282t-256 -86q-175 0 -238 96t-25 314h479q18 111 -7 159t-100 48q-128 0 -174 -109zM350 125q71 0 116 38t72 122h-299q-5 -87 21.5 -123.5t89.5 -36.5z" />
    <glyph glyph-name="uni019D" unicode="&#x19d;" horiz-adv-x="819" 
d="M285 537l-92 -537q-9 -54 -25 -91.5t-47 -71.5t-85.5 -51t-131.5 -17h-61l22 125h51q60 0 88.5 24t39.5 82l129 720h189l205 -525l83 525h155l-126 -720h-190z" />
    <glyph glyph-name="Gcaron" unicode="&#x1e6;" horiz-adv-x="758" 
d="M718 927l-154 -148h-174l-94 148h143l49 -65l73 65h157zM654 95q0 -3 -11.5 -14.5t-37.5 -28.5t-60 -33t-87 -27.5t-112 -11.5q-172 -1 -237 93t-28 298q34 196 124.5 283t254.5 87q145 0 210 -62.5t54 -182.5l-159 -9q4 58 -23.5 83.5t-86.5 25.5q-84 0 -134 -57
t-74 -191q-23 -129 3.5 -180t105.5 -51q66 0 112.5 19.5t48.5 37.5l14 88h-123l19 109h275z" />
    <glyph glyph-name="gcaron" unicode="&#x1e7;" horiz-adv-x="697" 
d="M645 790l-164 -168h-150l-97 168h136l50 -68l74 68h151zM162 -81q0 -23 24 -38.5t76 -15.5q72 0 99 34t39 104l7 39q-63 -54 -160 -54q-234 0 -181 294q24 136 87 206t174 70q117 0 174 -80l28 68h141l-38 -154l-71 -401q-15 -86 -35 -123q-61 -112 -267 -112
q-119 0 -175.5 43t-63.5 97zM297 114q75 0 133 62l37 210q-33 45 -91 45q-119 0 -149 -171q-27 -146 70 -146z" />
    <glyph glyph-name="uni01EA" unicode="&#x1ea;" horiz-adv-x="782" 
d="M323 -81q6 32 31 61h-5q-173 0 -238.5 93.5t-29.5 297.5q34 196 125 283t257 87q173 0 238.5 -94t29.5 -299q-24 -133 -72 -214t-126 -118q-55 -39 -62 -82q-3 -26 21 -26q13 0 27.5 4t22.5 8l8 5l-9 -77q-30 -32 -106 -32q-68 0 -94 31t-18 72zM247 348
q-21 -125 4 -174.5t103 -49.5q87 0 137 57t73 190q23 126 -2 175.5t-104 49.5q-86 0 -136.5 -57t-74.5 -191z" />
    <glyph glyph-name="uni01EB" unicode="&#x1eb;" horiz-adv-x="691" 
d="M247 -91q7 40 44 74q-148 4 -200 79.5t-25 221.5q25 140 99 208.5t221 69.5q155 1 210 -76t29 -225q-34 -190 -156 -247q-66 -42 -74 -90q-3 -26 21 -26q13 0 27.5 4t22.5 8l8 5l-9 -77q-30 -32 -106 -32q-68 0 -94 31t-18 72zM229 261q-14 -84 2 -118t75 -34
q67 0 103 41t52 134q15 84 -1.5 118t-74.5 34q-67 0 -103 -41.5t-53 -133.5z" />
    <glyph glyph-name="Aringacute" unicode="&#x1fa;" horiz-adv-x="783" 
d="M437 1046l119 142h187l-139 -142h-167zM625 873q-10 -54 -47 -83t-94 -29q-65 0 -97.5 35.5t-20.5 98.5q9 54 46.5 82t94.5 28q64 0 96.5 -35t21.5 -97zM458 873q-5 -26 20 -26q20 0 35.5 13.5t19.5 34.5q3 24 -22 24q-20 0 -34.5 -13t-18.5 -33zM-21 0l391 720h197
l137 -720h-179l-18 127h-284l-63 -127h-181zM286 255h202l-45 316z" />
    <glyph glyph-name="aringacute" unicode="&#x1fb;" horiz-adv-x="688" 
d="M376 876l123 171h174l-143 -171h-154zM547 715q-18 -105 -135 -105q-62 0 -93.5 34t-20.5 94q19 104 135 104q63 0 94 -33.5t20 -93.5zM387 721q-5 -31 24 -31q19 0 32 12.5t16 29.5q5 30 -25 30q-19 0 -31.5 -12t-15.5 -29zM122 451q62 106 246 106q56 0 98 -8t70 -20
t44.5 -34.5t24.5 -44t8 -56t-3.5 -63t-10.5 -71.5l-20 -110l-16 -150h-147l-5 40q-77 -57 -179 -57q-108 0 -155.5 46.5t-31.5 138.5t80.5 129.5t170.5 37.5q85 0 151 -8l1 5q12 67 -6.5 92t-80.5 25q-50 0 -87 -17t-54 -43zM280 96q81 0 137 54l15 90q-32 3 -80 3
q-127 0 -143 -88q-5 -28 11.5 -43.5t59.5 -15.5z" />
    <glyph glyph-name="AEacute" unicode="&#x1fc;" horiz-adv-x="1068" 
d="M507 773l119 142h187l-139 -142h-167zM-21 0l495 720h618l-24 -137h-346l-27 -152h293l-22 -127h-293l-29 -167h352l-24 -137h-519l25 142h-219l-92 -142h-188zM500 268l59 335l-218 -335h159z" />
    <glyph glyph-name="aeacute" unicode="&#x1fd;" horiz-adv-x="1040" 
d="M526 624l123 171h174l-143 -171h-154zM944 113q-66 -130 -280 -130q-162 0 -217 89q-87 -85 -215 -85q-108 0 -155.5 44.5t-31.5 136.5q11 63 47 100t85 50.5t119 13.5h140q8 30 18 53q1 34 -24.5 49t-69.5 15q-49 0 -86 -17t-54 -43l-98 62q62 106 246 106
q115 0 169 -56q77 60 208 60q152 0 204 -75.5t22 -247.5h-385q-11 -77 6.5 -108t69.5 -31q54 0 93 17t52 40zM746 455q-52 0 -85.5 -28t-53.5 -92h216q4 68 -15 94t-62 26zM420 154q-6 39 0 87q-19 -1 -68 -1q-128 0 -143 -85q-5 -28 11.5 -43.5t59.5 -15.5q84 0 140 58z
" />
    <glyph glyph-name="Oslashacute" unicode="&#x1fe;" horiz-adv-x="782" 
d="M376 774l119 142h187l-139 -142h-167zM22 -10l82 93q-58 93 -23 288q34 196 125 283t257 87q118 0 186 -43l31 35h101l-78 -89q62 -95 28 -296q-35 -196 -125.5 -282t-256.5 -86q-125 0 -193 47l-33 -37h-101zM247 348q-12 -68 -10 -115l302 341q-28 22 -81 22
q-86 0 -136.5 -57t-74.5 -191zM564 371q14 83 10 128l-308 -348q27 -27 88 -27q87 0 137 57t73 190z" />
    <glyph glyph-name="oslashacute" unicode="&#x1ff;" horiz-adv-x="691" 
d="M330 621l123 171h174l-143 -171h-154zM26 -12l68 71q-56 73 -28 225q25 140 99 208.5t221 69.5q102 0 159 -33l29 30h91l-70 -73q57 -74 30 -225q-25 -140 -99 -209t-221 -69q-101 0 -162 33l-27 -28h-90zM229 261q-7 -38 -7 -69l221 230q-20 14 -58 14q-67 0 -103 -41.5
t-53 -133.5zM461 284q7 39 7 71l-222 -231q21 -15 60 -15q67 0 103 41t52 134z" />
    <glyph glyph-name="Scommaaccent" unicode="&#x218;" horiz-adv-x="732" 
d="M215 223q-6 -57 24 -82.5t96 -26.5q64 0 106 24t51 72q5 27 -16 45.5t-57.5 28.5t-81.5 19t-88.5 24t-78 37.5t-50.5 64t-5 99.5q39 214 320 213q147 -1 209.5 -56.5t53.5 -160.5l-160 -14q4 45 -18 69.5t-88 25.5q-71 0 -109.5 -26t-45.5 -69q-5 -27 16 -45t58 -28
t81.5 -19t88.5 -24t78 -37t50.5 -64t6.5 -100q-36 -215 -332 -213q-143 1 -211.5 59.5t-58.5 171.5zM170 -296q29 55 60 132l39 112h143q-17 -75 -57 -148q-19 -36 -37 -60t-26 -30l-8 -6h-114z" />
    <glyph glyph-name="scommaaccent" unicode="&#x219;" horiz-adv-x="646" 
d="M176 165q7 -67 103 -69q119 -1 132 71q5 25 -19.5 39.5t-64.5 18.5t-86 13.5t-84 23.5t-59 49.5t-12 90.5q27 161 277 160q225 -1 235 -143l-137 -22q-6 30 -27 42.5t-66 13.5q-59 1 -90 -20t-36 -51q-4 -23 21 -35.5t65.5 -16.5t86.5 -14t84.5 -24.5t59.5 -51.5t11 -93
q-15 -82 -82 -123t-206 -41q-120 1 -182.5 44.5t-64.5 121.5zM130 -281q29 55 60 132l39 112h143q-17 -75 -57 -148q-19 -36 -37 -60t-26 -30l-8 -6h-114z" />
    <glyph glyph-name="uni021A" unicode="&#x21a;" horiz-adv-x="654" 
d="M191 0l100 566h-203l27 154h581l-27 -154h-204l-101 -566h-173zM98 -284q28 53 59 132q12 28 21.5 56t13.5 42l4 14h144q-17 -75 -57 -148q-20 -35 -38 -59t-26 -31l-8 -6h-113z" />
    <glyph glyph-name="uni021B" unicode="&#x21b;" horiz-adv-x="442" 
d="M351 -1h-47q-79 0 -126.5 19t-64 52.5t-18 80.5t11.5 104l31 176h-74l20 115h74l26 148l168 26l-31 -174h123l-20 -115h-123l-32 -181q-13 -62 -0.5 -88t61.5 -26h45zM91 -268q29 55 60 132l39 112h143q-17 -75 -57 -148q-19 -36 -37 -60t-26 -30l-8 -6h-114z" />
    <glyph glyph-name="uni0232" unicode="&#x232;" horiz-adv-x="722" 
d="M312 897h321l-20 -114h-321zM230 0l36 207l-155 513h182l77 -379l203 379h199l-341 -515l-36 -205h-165z" />
    <glyph glyph-name="uni0233" unicode="&#x233;" horiz-adv-x="651" 
d="M251 746h321l-18 -100h-322zM126 -232l111 232h-54l-102 546h170l50 -412l198 412h171l-395 -778h-149z" />
    <glyph glyph-name="uni0237" unicode="&#x237;" horiz-adv-x="344" 
d="M222 73q-21 -120 -44 -166q-45 -89 -169 -112q-50 -9 -116 -9l15 143q44 0 72 8.5t43.5 31.5t22.5 46t15 69l82 462h162z" />
    <glyph glyph-name="uni0259" unicode="&#x259;" horiz-adv-x="683" 
d="M617 262q-25 -139 -100 -209t-220 -70q-151 0 -203.5 75t-22.5 242h384q13 81 -4 114.5t-71 32.5t-93 -18t-53 -40l-136 43q66 129 280 130q153 1 209 -75.5t30 -224.5zM297 91q51 0 83.5 26t52.5 85h-214q-2 -63 16.5 -87t61.5 -24z" />
    <glyph glyph-name="uni0272" unicode="&#x272;" horiz-adv-x="705" 
d="M222 79q-22 -121 -44 -166q-43 -88 -161 -111q-52 -11 -124 -11l14 140q45 0 72 8.5t43 32t22.5 47t15.5 71.5l55 308l16 148h138l3 -76q17 18 40 34.5t68.5 33t94.5 16.5q106 0 140.5 -62t10.5 -203l-50 -289h-163l53 299q11 60 -1 85.5t-57 25.5q-77 0 -141 -75z" />
    <glyph glyph-name="circumflex" unicode="&#x2c6;" horiz-adv-x="520" 
d="M548 622h-142l-50 72l-75 -72h-149l160 168h152z" />
    <glyph glyph-name="caron" unicode="&#x2c7;" horiz-adv-x="521" 
d="M582 790l-164 -168h-150l-97 168h136l50 -68l74 68h151z" />
    <glyph glyph-name="breve" unicode="&#x2d8;" horiz-adv-x="516" 
d="M522 780q-11 -61 -64 -111t-149 -50q-103 0 -144.5 50.5t-30.5 110.5h120q-3 -21 13.5 -40.5t42.5 -19.5q33 0 56.5 19t27.5 41h128z" />
    <glyph glyph-name="dotaccent" unicode="&#x2d9;" horiz-adv-x="441" 
d="M114 627l26 146h164l-25 -146h-165z" />
    <glyph glyph-name="ring" unicode="&#x2da;" horiz-adv-x="492" 
d="M395 715q-18 -105 -135 -105q-62 0 -93.5 34t-20.5 94q19 104 135 104q63 0 94 -33.5t20 -93.5zM235 721q-5 -31 24 -31q19 0 32 12.5t16 29.5q5 30 -25 30q-19 0 -31.5 -12t-15.5 -29z" />
    <glyph glyph-name="ogonek" unicode="&#x2db;" horiz-adv-x="487" 
d="M-20 -109q6 33 34 63.5t54 44.5l25 14l127 -6q-9 -5 -23 -14t-39.5 -35.5t-29.5 -51.5q-3 -26 21 -26q13 0 27.5 4t22.5 8l8 5l-9 -77q-30 -32 -106 -32q-68 0 -94 31t-18 72z" />
    <glyph glyph-name="tilde" unicode="&#x2dc;" horiz-adv-x="522" 
d="M551 781q-14 -77 -42.5 -116.5t-87.5 -39.5q-38 0 -63.5 12.5t-42 24.5t-34.5 12q-29 0 -48 -19.5t-21 -34.5l-76 12q14 76 42.5 115t88.5 39q30 0 52.5 -7.5t33 -17t24.5 -17t29 -7.5q29 0 48 20t21 35z" />
    <glyph glyph-name="hungarumlaut" unicode="&#x2dd;" horiz-adv-x="511" 
d="M118 624l119 171h170l-141 -171h-148zM327 624l142 171h169l-163 -171h-148z" />
    <glyph glyph-name="gravecomb" unicode="&#x300;" 
d="M20 624h-146l-85 171h167z" />
    <glyph glyph-name="acutecomb" unicode="&#x301;" 
d="M-257 624l123 171h174l-143 -171h-154z" />
    <glyph glyph-name="uni0302" unicode="&#x302;" 
d="M-18 622h-142l-50 72l-75 -72h-149l160 168h152z" />
    <glyph glyph-name="tildecomb" unicode="&#x303;" 
d="M16 781q-14 -77 -42.5 -116.5t-87.5 -39.5q-38 0 -63.5 12.5t-42 24.5t-34.5 12q-29 0 -48 -19.5t-21 -34.5l-76 12q14 76 42.5 115t88.5 39q30 0 52.5 -7.5t33 -17t24.5 -17t29 -7.5q29 0 48 20t21 35z" />
    <glyph glyph-name="uni0304" unicode="&#x304;" 
d="M-298 746h321l-18 -100h-322z" />
    <glyph glyph-name="uni0306" unicode="&#x306;" 
d="M46 780q-11 -61 -64 -111t-149 -50q-103 0 -144.5 50.5t-30.5 110.5h120q-3 -21 13.5 -40.5t42.5 -19.5q33 0 56.5 19t27.5 41h128z" />
    <glyph glyph-name="uni0307" unicode="&#x307;" 
d="M-153 627l26 146h164l-25 -146h-165z" />
    <glyph glyph-name="uni0308" unicode="&#x308;" 
d="M-377 622l27 151h150l-26 -151h-151zM-154 622l26 151h151l-27 -151h-150z" />
    <glyph glyph-name="uni030A" unicode="&#x30a;" 
d="M18 715q-18 -105 -135 -105q-62 0 -93.5 34t-20.5 94q19 104 135 104q63 0 94 -33.5t20 -93.5zM-142 721q-5 -31 24 -31q19 0 32 12.5t16 29.5q5 30 -25 30q-19 0 -31.5 -12t-15.5 -29z" />
    <glyph glyph-name="uni030B" unicode="&#x30b;" 
d="M-482 624l119 171h170l-141 -171h-148zM-273 624l142 171h169l-163 -171h-148z" />
    <glyph glyph-name="uni030C" unicode="&#x30c;" 
d="M16 790l-164 -168h-150l-97 168h136l50 -68l74 68h151z" />
    <glyph glyph-name="uni0312" unicode="&#x312;" 
d="M60 844q-32 -60 -65 -144l-39 -112l-144 1q15 67 57 147q20 38 39.5 65t29.5 35l9 8h113z" />
    <glyph glyph-name="dotbelowcomb" unicode="&#x323;" 
d="M-298 -197l25 141h163l-24 -141h-164z" />
    <glyph glyph-name="uni0326" unicode="&#x326;" 
d="M-347 -283q29 55 60 132l39 112h143q-17 -75 -57 -148q-19 -36 -37 -60t-26 -30l-8 -6h-114z" />
    <glyph glyph-name="uni0327" unicode="&#x327;" 
d="M-135 -168q-9 -50 -49 -73t-138 -23q-32 0 -58 3t-36 7l-10 3l6 69q0 -2 45 -3q80 0 89 55q4 23 -15.5 29.5t-62.5 6.5h-10l67 96h137l-46 -65q40 -4 64.5 -30t16.5 -75z" />
    <glyph glyph-name="uni0328" unicode="&#x328;" 
d="M-382 -109q6 33 34 63.5t54 44.5l25 14l127 -6q-9 -5 -23 -14t-39.5 -35.5t-29.5 -51.5q-3 -26 21 -26q13 0 27.5 4t22.5 8l8 5l-9 -77q-30 -32 -106 -32q-68 0 -94 31t-18 72z" />
    <glyph glyph-name="uni0335" unicode="&#x335;" 
d="M-386 310l14 85h348l-15 -85h-347z" />
    <glyph glyph-name="uni0336" unicode="&#x336;" 
d="M-809 315l13 76h729l-13 -76h-729z" />
    <glyph glyph-name="uni0337" unicode="&#x337;" 
d="M-424 188l-29 91l400 186l29 -92z" />
    <glyph glyph-name="uni0338" unicode="&#x338;" 
d="M-526 96l548 571h91l-549 -571h-90z" />
    <glyph glyph-name="pi" unicode="&#x3c0;" horiz-adv-x="748" 
d="M605 456l-42 -241q-12 -47 -7 -71.5t39 -24.5h30l-21 -119h-26q-79 0 -115.5 26.5t-38 77t10.5 122.5l40 230h-152l-80 -456h-132l80 456h-83l19 111h583l-19 -111h-86z" />
    <glyph glyph-name="Wgrave" unicode="&#x1e80;" horiz-adv-x="1140" 
d="M738 775h-158l-90 142h180zM621 558l-217 -558h-213l-73 720h190l18 -579l223 579h204l17 -578l230 578h181l-333 -720h-210z" />
    <glyph glyph-name="wgrave" unicode="&#x1e81;" horiz-adv-x="959" 
d="M613 624h-146l-85 171h167zM501 404l-159 -404h-194l-70 546h168l19 -423l167 423h186l24 -425l166 425h173l-260 -546h-197z" />
    <glyph glyph-name="Wacute" unicode="&#x1e82;" horiz-adv-x="1140" 
d="M576 773l119 142h187l-139 -142h-167zM621 558l-217 -558h-213l-73 720h190l18 -579l223 579h204l17 -578l230 578h181l-333 -720h-210z" />
    <glyph glyph-name="wacute" unicode="&#x1e83;" horiz-adv-x="959" 
d="M465 624l123 171h174l-143 -171h-154zM501 404l-159 -404h-194l-70 546h168l19 -423l167 423h186l24 -425l166 425h173l-260 -546h-197z" />
    <glyph glyph-name="Wdieresis" unicode="&#x1e84;" horiz-adv-x="1140" 
d="M463 773l26 151h165l-27 -151h-164zM698 773l26 151h165l-27 -151h-164zM621 558l-217 -558h-213l-73 720h190l18 -579l223 579h204l17 -578l230 578h181l-333 -720h-210z" />
    <glyph glyph-name="wdieresis" unicode="&#x1e85;" horiz-adv-x="959" 
d="M355 622l27 151h150l-26 -151h-151zM578 622l26 151h151l-27 -151h-150zM501 404l-159 -404h-194l-70 546h168l19 -423l167 423h186l24 -425l166 425h173l-260 -546h-197z" />
    <glyph glyph-name="uni1E9E" unicode="&#x1e9e;" horiz-adv-x="789" 
d="M728 212q-7 -40 -26.5 -75t-55 -67t-96.5 -50.5t-140 -18.5h-142l25 137h128q57 0 94 33t46 90q9 46 -17 71.5t-88 25.5q-24 0 -46.5 -3t-33.5 -6l-10 -3l13 103h1l200 148h-150q-59 0 -94.5 -34.5t-46.5 -94.5l-82 -468h-163l83 475q9 47 18.5 79t30.5 66t52 54t81.5 33
t119.5 13h361l-22 -123l-188 -145q97 -21 131.5 -80.5t16.5 -159.5z" />
    <glyph glyph-name="uni1EA0" unicode="&#x1ea0;" horiz-adv-x="783" 
d="M-21 0l391 720h197l137 -720h-179l-18 127h-284l-63 -127h-181zM286 255h202l-45 316zM224 -199l25 141h163l-24 -141h-164z" />
    <glyph glyph-name="uni1EA1" unicode="&#x1ea1;" horiz-adv-x="688" 
d="M122 451q62 106 246 106q56 0 98 -8t70 -20t44.5 -34.5t24.5 -44t8 -56t-3.5 -63t-10.5 -71.5l-20 -110l-16 -150h-147l-5 40q-77 -57 -179 -57q-108 0 -155.5 46.5t-31.5 138.5t80.5 129.5t170.5 37.5q85 0 151 -8l1 5q12 67 -6.5 92t-80.5 25q-50 0 -87 -17t-54 -43z
M280 96q81 0 137 54l15 90q-32 3 -80 3q-127 0 -143 -88q-5 -28 11.5 -43.5t59.5 -15.5zM174 -209l25 141h163l-24 -141h-164z" />
    <glyph glyph-name="uni1EB8" unicode="&#x1eb8;" horiz-adv-x="659" 
d="M44 0l126 720h513l-24 -137h-346l-27 -152h293l-22 -127h-294l-29 -167h352l-23 -137h-519zM189 -197l25 141h163l-24 -141h-164z" />
    <glyph glyph-name="uni1EB9" unicode="&#x1eb9;" horiz-adv-x="680" 
d="M584 113q-66 -130 -280 -130q-153 0 -208.5 76.5t-29.5 224.5q24 139 99 208t220 69q152 0 204 -75.5t21 -247.5h-385q-10 -77 7.5 -108t70.5 -31t92 17t53 40zM385 455q-52 0 -85.5 -28t-53.5 -92h217q3 68 -15.5 94t-62.5 26zM181 -206l25 141h163l-24 -141h-164z" />
    <glyph glyph-name="uni1EBC" unicode="&#x1ebc;" horiz-adv-x="659" 
d="M655 927q-13 -76 -41.5 -116t-88.5 -40q-39 0 -63.5 12t-40 24t-34.5 12q-29 0 -48 -19t-21 -34l-77 11q14 76 42.5 115.5t88.5 39.5q39 0 63 -12t40 -23.5t35 -11.5q29 0 48 19t21 34zM44 0l126 720h513l-24 -137h-346l-27 -152h293l-22 -127h-294l-29 -167h352
l-23 -137h-519z" />
    <glyph glyph-name="uni1EBD" unicode="&#x1ebd;" horiz-adv-x="680" 
d="M631 781q-14 -77 -42.5 -116.5t-87.5 -39.5q-38 0 -63.5 12.5t-42 24.5t-34.5 12q-29 0 -48 -19.5t-21 -34.5l-76 12q14 76 42.5 115t88.5 39q30 0 52.5 -7.5t33 -17t24.5 -17t29 -7.5q29 0 48 20t21 35zM584 113q-66 -130 -280 -130q-153 0 -208.5 76.5t-29.5 224.5
q24 139 99 208t220 69q152 0 204 -75.5t21 -247.5h-385q-10 -77 7.5 -108t70.5 -31t92 17t53 40zM385 455q-52 0 -85.5 -28t-53.5 -92h217q3 68 -15.5 94t-62.5 26z" />
    <glyph glyph-name="uni1ECA" unicode="&#x1eca;" horiz-adv-x="352" 
d="M44 0l126 720h168l-127 -720h-167zM9 -204l25 141h163l-24 -141h-164z" />
    <glyph glyph-name="uni1ECB" unicode="&#x1ecb;" horiz-adv-x="338" 
d="M149 627l26 146h164l-25 -146h-165zM39 0l95 546h164l-96 -546h-163zM1 -197l25 141h163l-24 -141h-164z" />
    <glyph glyph-name="uni1ECC" unicode="&#x1ecc;" horiz-adv-x="782" 
d="M731 348q-35 -196 -125.5 -282t-256.5 -86q-173 0 -238.5 93.5t-29.5 297.5q34 196 125 283t257 87q173 0 238.5 -94t29.5 -299zM247 348q-21 -125 4 -174.5t103 -49.5q87 0 137 57t73 190q23 126 -2 175.5t-104 49.5q-86 0 -136.5 -57t-74.5 -191zM223 -210l25 141h163
l-24 -141h-164z" />
    <glyph glyph-name="uni1ECD" unicode="&#x1ecd;" horiz-adv-x="691" 
d="M625 261q-25 -140 -99 -209t-221 -69q-156 0 -211 76t-28 225q25 140 99 208.5t221 69.5q155 1 210 -76t29 -225zM229 261q-14 -84 2 -118t75 -34q67 0 103 41t52 134q15 84 -1.5 118t-74.5 34q-67 0 -103 -41.5t-53 -133.5zM178 -210l25 141h163l-24 -141h-164z" />
    <glyph glyph-name="uni1EE4" unicode="&#x1ee4;" horiz-adv-x="764" 
d="M694 346q-18 -100 -38.5 -162t-59.5 -111.5t-101 -71t-155 -21.5q-126 0 -188 43.5t-68.5 127.5t14.5 206l64 363h166l-63 -361q-25 -133 -8.5 -181t88.5 -48q82 0 121.5 52.5t63.5 187.5l62 350h168zM214 -210l25 141h163l-24 -141h-164z" />
    <glyph glyph-name="uni1EE5" unicode="&#x1ee5;" horiz-adv-x="696" 
d="M433 0l-4 81q-17 -19 -40 -36.5t-68.5 -35.5t-94.5 -18q-106 0 -142.5 60.5t-13.5 192.5l54 301h163l-55 -310q-9 -52 4 -76t57 -24q78 0 141 73l59 338h164l-70 -394l-16 -152h-138zM179 -210l25 141h163l-24 -141h-164z" />
    <glyph glyph-name="Ygrave" unicode="&#x1ef2;" horiz-adv-x="722" 
d="M526 775h-158l-90 142h180zM230 0l36 207l-155 513h182l77 -379l203 379h199l-341 -515l-36 -205h-165z" />
    <glyph glyph-name="ygrave" unicode="&#x1ef3;" horiz-adv-x="651" 
d="M460 624h-146l-85 171h167zM126 -232l111 232h-54l-102 546h170l50 -412l198 412h171l-395 -778h-149z" />
    <glyph glyph-name="uni1EF8" unicode="&#x1ef8;" horiz-adv-x="722" 
d="M671 927q-13 -76 -41.5 -116t-88.5 -40q-39 0 -63.5 12t-40 24t-34.5 12q-29 0 -48 -19t-21 -34l-77 11q14 76 42.5 115.5t88.5 39.5q39 0 63 -12t40 -23.5t35 -11.5q29 0 48 19t21 34zM230 0l36 207l-155 513h182l77 -379l203 379h199l-341 -515l-36 -205h-165z" />
    <glyph glyph-name="uni1EF9" unicode="&#x1ef9;" horiz-adv-x="651" 
d="M611 781q-14 -77 -42.5 -116.5t-87.5 -39.5q-38 0 -63.5 12.5t-42 24.5t-34.5 12q-29 0 -48 -19.5t-21 -34.5l-76 12q14 76 42.5 115t88.5 39q30 0 52.5 -7.5t33 -17t24.5 -17t29 -7.5q29 0 48 20t21 35zM126 -232l111 232h-54l-102 546h170l50 -412l198 412h171
l-395 -778h-149z" />
    <glyph glyph-name="uni2009" unicode="&#x2009;" horiz-adv-x="115" 
 />
    <glyph glyph-name="endash" unicode="&#x2013;" horiz-adv-x="688" 
d="M91 261l21 118h501l-21 -118h-501z" />
    <glyph glyph-name="emdash" unicode="&#x2014;" horiz-adv-x="1049" 
d="M105 261l21 118h834l-21 -118h-834z" />
    <glyph glyph-name="uni2016" unicode="&#x2016;" horiz-adv-x="519" 
d="M20 -180l177 1003h114l-177 -1003h-114zM237 -180l177 1003h114l-177 -1003h-114z" />
    <glyph glyph-name="quoteleft" unicode="&#x2018;" horiz-adv-x="335" 
d="M107 472q8 60 58 160q22 44 44 76t33 42l11 10h119q-39 -67 -75 -164q-15 -40 -25 -71t-12 -42l-3 -11h-150z" />
    <glyph glyph-name="quoteright" unicode="&#x2019;" horiz-adv-x="336" 
d="M86 474q38 72 75 168l40 118h151q-10 -55 -59 -154q-22 -44 -44 -77t-33 -44l-11 -11h-119z" />
    <glyph glyph-name="quotesinglbase" unicode="&#x201a;" horiz-adv-x="343" 
d="M29 -133q40 68 77 164q16 40 25.5 71t11.5 42l2 11h151q-10 -60 -58 -160q-22 -44 -44 -76t-33 -42l-11 -10h-121z" />
    <glyph glyph-name="quotedblleft" unicode="&#x201c;" horiz-adv-x="533" 
d="M107 472q9 60 58 160q22 44 44 76t33 42l11 10h119q-39 -67 -75 -164q-15 -40 -25 -71t-12 -42l-3 -11h-150zM304 472q10 60 58 160q22 45 44 77t33 41l11 10h120q-40 -66 -76 -164q-15 -40 -24.5 -71t-11.5 -42l-3 -11h-151z" />
    <glyph glyph-name="quotedblright" unicode="&#x201d;" horiz-adv-x="533" 
d="M86 474q38 72 75 168l40 118h151q-10 -55 -59 -154q-22 -44 -44 -77t-33 -44l-11 -11h-119zM283 474q38 72 75 168l40 118h151q-10 -55 -59 -154q-22 -44 -44 -77t-33 -44l-11 -11h-119z" />
    <glyph glyph-name="quotedblbase" unicode="&#x201e;" horiz-adv-x="530" 
d="M-24 -141q38 69 75 164q16 40 26 71t13 42l2 11h151q-11 -60 -60 -159q-21 -44 -43 -76.5t-33 -42.5l-11 -10h-120zM171 -141q38 69 75 164q16 40 26 71t12 42l3 11h151q-11 -60 -60 -159q-21 -44 -43 -76.5t-33 -42.5l-11 -10h-120z" />
    <glyph glyph-name="dagger" unicode="&#x2020;" horiz-adv-x="624" 
d="M157 602h156l33 186h113l-33 -186h156l-17 -99h-156l-88 -503h-114l88 503h-155z" />
    <glyph glyph-name="daggerdbl" unicode="&#x2021;" horiz-adv-x="669" 
d="M157 602h156l33 186h113l-33 -186h156l-17 -99h-156l-39 -220h156l-17 -98h-156l-32 -185h-114l32 185h-155l17 98h156l39 220h-156z" />
    <glyph glyph-name="bullet" unicode="&#x2022;" horiz-adv-x="575" 
d="M175 199l35 202h199l-35 -202h-199z" />
    <glyph glyph-name="ellipsis" unicode="&#x2026;" horiz-adv-x="862" 
d="M56 0l27 156h165l-27 -156h-165zM300 0l28 156h165l-28 -156h-165zM545 0l27 156h165l-27 -156h-165z" />
    <glyph glyph-name="perthousand" unicode="&#x2030;" horiz-adv-x="1371" 
d="M468 524q-15 -85 -62 -128t-143 -43q-196 0 -164 194q16 87 64.5 130.5t143.5 43.5q105 0 141.5 -50.5t19.5 -146.5zM116 0l603 702h156l-603 -702h-156zM203 524q-8 -44 4 -64t50 -20q88 0 107 107q9 46 -2.5 67t-49.5 21q-88 0 -109 -111zM888 150
q-15 -85 -62.5 -127.5t-143.5 -42.5q-104 0 -142 49.5t-21 143.5q15 87 63.5 131.5t144.5 44.5q103 0 140.5 -51t20.5 -148zM1294 150q-15 -85 -62 -127.5t-143 -42.5q-104 0 -142 49.5t-21 143.5q14 87 62.5 131.5t145.5 44.5q196 0 160 -199zM622 150q-8 -44 4.5 -64
t50.5 -20q46 0 71.5 26.5t36.5 80.5q8 46 -3.5 67t-49.5 21q-91 0 -110 -111zM1029 150q-8 -44 4.5 -64t49.5 -20q88 0 108 107q8 46 -3.5 67t-49.5 21q-90 0 -109 -111z" />
    <glyph glyph-name="guilsinglleft" unicode="&#x2039;" horiz-adv-x="507" 
d="M197 84l-92 171l1 27l153 178h179l-182 -194l112 -182h-171z" />
    <glyph glyph-name="guilsinglright" unicode="&#x203a;" horiz-adv-x="508" 
d="M249 84h-179l181 187l-111 189h171l91 -178l-1 -27z" />
    <glyph glyph-name="fraction" unicode="&#x2044;" horiz-adv-x="335" 
d="M-194 -40l628 801h132l-627 -801h-133z" />
    <glyph glyph-name="uni2070" unicode="&#x2070;" horiz-adv-x="603" 
d="M585 551q-27 -154 -90 -214t-182 -60q-128 0 -174.5 67t-18.5 230q27 153 90 213t182 60q128 0 175 -67t18 -229zM250 551q-14 -101 0 -131t62 -30q56 0 89.5 39.5t52.5 144.5q14 66 8 101.5t-21.5 47t-47.5 11.5q-57 0 -90.5 -39.5t-52.5 -143.5z" />
    <glyph glyph-name="uni2074" unicode="&#x2074;" horiz-adv-x="558" 
d="M334 288l16 91h-284l17 103l287 354h189l-62 -354h64l-19 -103h-63l-16 -91h-129zM368 482l42 242l-183 -242h141z" />
    <glyph glyph-name="uni2075" unicode="&#x2075;" horiz-adv-x="557" 
d="M315 730l-37 -109q43 27 105 27q99 0 134.5 -56t21.5 -139q-14 -78 -71 -127t-171 -49q-110 0 -159.5 42.5t-48.5 102.5l138 5q8 -43 68 -43q47 0 75 25.5t34 66.5q7 36 -6.5 57.5t-50.5 21.5q-29 0 -54.5 -9t-36 -17t-13.5 -13l-128 1l103 316h356l-20 -109z" />
    <glyph glyph-name="uni2076" unicode="&#x2076;" horiz-adv-x="584" 
d="M453 700q-2 44 -57 44q-46 0 -77.5 -29t-52.5 -103q52 33 123 33q104 0 145 -54.5t26 -138.5q-33 -175 -249 -175q-132 -1 -176 64.5t-21 203.5q31 170 92 236t184 66q102 0 148 -41.5t46 -99.5zM361 555q-66 0 -118 -48q-10 -68 5 -97.5t60 -29.5q48 0 78 28t37 73
q14 74 -62 74z" />
    <glyph glyph-name="uni2077" unicode="&#x2077;" horiz-adv-x="479" 
d="M133 288q11 66 41.5 135.5t65 121.5t67.5 95.5t55 65.5l22 23l-271 -9l20 114h414l-20 -108q-9 -9 -24 -25.5t-55 -67t-72.5 -100t-64 -118t-41.5 -127.5h-137z" />
    <glyph glyph-name="uni2078" unicode="&#x2078;" horiz-adv-x="581" 
d="M307 277q-131 0 -178.5 46t-32.5 131q11 61 49.5 94t69.5 36q-9 2 -24 13.5t-27.5 41t-5.5 66.5q12 68 64 105t164 37q121 0 165 -44t30 -121q-9 -47 -40 -72t-57 -28q26 -4 54.5 -44t16.5 -107q-13 -76 -69 -115t-179 -39zM392 759q-89 0 -105 -89q-4 -27 8.5 -40.5
t49.5 -13.5q90 0 104 77q5 35 -8 50.5t-49 15.5zM353 540q-97 0 -113 -93q-13 -70 63 -70q49 0 77.5 25t35.5 68q7 34 -7 52t-56 18z" />
    <glyph glyph-name="uni2079" unicode="&#x2079;" horiz-adv-x="584" 
d="M229 425q4 -45 72 -45q44 0 74 26.5t52 96.5q-51 -34 -116 -34q-115 0 -153 53.5t-21 148.5q14 77 72.5 126.5t176.5 49.5q132 0 175.5 -66t18.5 -208q-29 -171 -87.5 -233.5t-188.5 -62.5q-111 0 -159 42t-47 101zM333 558q66 0 118 50q11 75 -3 105.5t-59 30.5
q-49 0 -78.5 -28t-36.5 -72q-16 -86 59 -86z" />
    <glyph glyph-name="Euro" unicode="&#x20ac;" horiz-adv-x="719" 
d="M627 148q-54 -167 -265 -167q-141 0 -199.5 60.5t-54.5 187.5h-79l15 83h72l8 49q2 14 4 21h-72l15 83h76q37 133 111.5 194.5t213.5 61.5q118 0 173.5 -51t50.5 -144l-138 -7q0 34 -21 52.5t-61 18.5q-112 0 -160 -125h225l-14 -83h-235q-6 -28 -8 -43l-5 -27h235
l-15 -83h-227q-1 -61 22.5 -89t77.5 -28q42 0 75.5 18.5t45.5 46.5z" />
    <glyph glyph-name="uni20BD" unicode="&#x20bd;" horiz-adv-x="765" 
d="M75 0l22 129h-87l18 100h87l11 66h-87l20 114l87 -1l55 308h235q195 0 264.5 -47.5t45.5 -176.5q-21 -120 -99 -158.5t-275 -38.5h-79l-11 -66h176l-18 -100h-176l-22 -129h-167zM347 601l-34 -193h90q77 0 121 23.5t55 85.5q9 53 -22.5 68.5t-109.5 15.5h-100z" />
    <glyph glyph-name="uni2116" unicode="&#x2116;" horiz-adv-x="1393" 
d="M1305 479q-20 -113 -79 -168.5t-183 -55.5q-131 0 -175.5 62.5t-23.5 184.5q20 113 79.5 168.5t182.5 56.5q131 0 175.5 -63t23.5 -185zM44 0l129 720h171l222 -498l87 498h139l-127 -720h-171l-223 497l-88 -497h-139zM981 479q-11 -69 1 -95t59 -26q54 0 84 33.5
t44 110.5q11 68 -2 94.5t-59 26.5q-54 0 -83.5 -34t-43.5 -110zM772 55l22 127h455l-23 -127h-454z" />
    <glyph glyph-name="uni2117" unicode="&#x2117;" horiz-adv-x="893" 
d="M845 337q-14 -80 -44.5 -144.5t-82 -117.5t-132 -82.5t-183.5 -29.5q-85 0 -149.5 20.5t-102 57.5t-60 87t-23.5 108t9 123q14 79 45.5 145t83.5 120t132 84t181 30q86 0 151 -21.5t102.5 -58.5t59.5 -88t22 -109.5t-9 -123.5zM158 337q-53 -301 237 -301q87 0 154 26
t109.5 72t68 101.5t37.5 123.5q55 306 -237 306q-86 0 -153 -26.5t-110 -73.5t-68.5 -103.5t-37.5 -124.5zM265 136l76 431h179q100 0 137 -37.5t22 -131.5q-16 -88 -59.5 -116t-148.5 -28h-80l-20 -118h-106zM431 482l-25 -143h62q46 0 72 16.5t34 65.5q8 41 -8 51t-62 10
h-73z" />
    <glyph glyph-name="uni2120" unicode="&#x2120;" horiz-adv-x="934" 
d="M200 478q-3 -26 8 -34.5t36 -9.5q71 0 81 51q3 19 -16 28.5t-47.5 14t-57 13.5t-44.5 35t-9 70q18 90 148 90q75 -1 105.5 -26.5t26.5 -73.5l-79 -1q2 20 -7 27.5t-35 8.5q-68 0 -76 -52q-3 -14 10.5 -23t35.5 -12t47.5 -10.5t46.5 -17t32 -33t5 -57.5q-9 -50 -46 -74
t-110 -23q-78 0 -110 27.5t-26 84.5zM445 377l62 351h124l29 -278l128 278h128l-62 -351h-80l53 265l-134 -265h-88l-38 284l-43 -284h-79z" />
    <glyph glyph-name="trademark" unicode="&#x2122;" horiz-adv-x="896" 
d="M185 379l47 272h-95l13 77h281l-14 -77h-97l-47 -272h-88zM402 377l62 351h123l30 -277l128 277h129l-62 -351h-81l53 265l-134 -265h-88l-39 283l-41 -283h-80z" />
    <glyph glyph-name="oneeighth" unicode="&#x215b;" horiz-adv-x="1249" 
d="M78 217l71 412l-101 -38l19 116l158 59h80l-97 -549h-130zM149 -40l628 801h132l-627 -801h-133zM924 -11q-131 0 -178.5 46t-32.5 131q11 61 49.5 94t69.5 36q-9 2 -24 13.5t-27.5 41t-5.5 66.5q12 68 64 105t164 37q121 0 165 -44t30 -121q-9 -47 -40 -72t-57 -28
q26 -4 54.5 -44t16.5 -107q-13 -76 -69 -115t-179 -39zM1009 471q-89 0 -105 -89q-4 -27 8.5 -40.5t49.5 -13.5q90 0 104 77q5 35 -8 50.5t-49 15.5zM970 252q-50 0 -78 -25t-35 -68q-13 -70 63 -70q49 0 77.5 25t35.5 68q7 34 -7 52t-56 18z" />
    <glyph glyph-name="threeeighths" unicode="&#x215c;" horiz-adv-x="1429" 
d="M356 556q72 -19 96.5 -63.5t12.5 -116.5q-13 -74 -70 -122t-171 -48q-109 0 -154.5 46.5t-41.5 118.5l131 5q2 -57 62 -57q46 0 74 25t34 65q7 38 -11 59t-72 21q-19 0 -36 -2.5t-25 -4.5l-8 -2l8 75l155 99l-245 -8l21 116h408l-18 -102zM329 -40l628 801h132l-627 -801
h-133zM1104 -11q-131 0 -178.5 46t-32.5 131q11 61 49.5 94t69.5 36q-9 2 -24 13.5t-27.5 41t-5.5 66.5q12 68 64 105t164 37q121 0 165 -44t30 -121q-9 -47 -40 -72t-57 -28q26 -4 54.5 -44t16.5 -107q-13 -76 -69 -115t-179 -39zM1189 471q-89 0 -105 -89
q-4 -27 8.5 -40.5t49.5 -13.5q90 0 104 77q5 35 -8 50.5t-49 15.5zM1150 252q-50 0 -78 -25t-35 -68q-13 -70 63 -70q49 0 77.5 25t35.5 68q7 34 -7 52t-56 18z" />
    <glyph glyph-name="fiveeighths" unicode="&#x215d;" horiz-adv-x="1446" 
d="M264 659l-37 -109q43 27 105 27q99 0 134.5 -56t21.5 -139q-14 -78 -71 -127t-171 -49q-110 0 -159.5 42.5t-48.5 102.5l138 5q8 -43 68 -43q47 0 75 25.5t34 66.5q7 36 -6.5 57.5t-50.5 21.5q-29 0 -54.5 -9t-36 -17t-13.5 -13l-128 1l103 316h356l-20 -109zM346 -40
l628 801h132l-627 -801h-133zM1121 -11q-131 0 -178.5 46t-32.5 131q11 61 49.5 94t69.5 36q-9 2 -24 13.5t-27.5 41t-5.5 66.5q12 68 64 105t164 37q121 0 165 -44t30 -121q-9 -47 -40 -72t-57 -28q26 -4 54.5 -44t16.5 -107q-13 -76 -69 -115t-179 -39zM1206 471
q-89 0 -105 -89q-4 -27 8.5 -40.5t49.5 -13.5q90 0 104 77q5 35 -8 50.5t-49 15.5zM1167 252q-97 0 -113 -93q-13 -70 63 -70q49 0 77.5 25t35.5 68q7 34 -7 52t-56 18z" />
    <glyph glyph-name="seveneighths" unicode="&#x215e;" horiz-adv-x="1318" 
d="M82 217q11 66 41.5 135.5t65 121.5t67.5 95.5t55 66.5l22 22l-271 -9l20 114h414l-20 -108q-9 -9 -24 -25.5t-55 -67t-72.5 -100t-64 -118t-41.5 -127.5h-137zM218 -40l628 801h132l-627 -801h-133zM993 -11q-131 0 -178.5 46t-32.5 131q11 61 49.5 94t69.5 36
q-9 2 -24 13.5t-27.5 41t-5.5 66.5q12 68 64 105t164 37q121 0 165 -44t30 -121q-9 -47 -40 -72t-57 -28q26 -4 54.5 -44t16.5 -107q-13 -76 -69 -115t-179 -39zM1078 471q-89 0 -105 -89q-4 -27 8.5 -40.5t49.5 -13.5q90 0 104 77q5 35 -8 50.5t-49 15.5zM1039 252
q-97 0 -113 -93q-13 -70 63 -70q49 0 77.5 25t35.5 68q7 34 -7 52t-56 18z" />
    <glyph glyph-name="arrowleft" unicode="&#x2190;" horiz-adv-x="752" 
d="M685 200l-407 21l168 -141l-86 -96l-281 247v100l281 248l86 -97l-168 -141l407 21v-162z" />
    <glyph glyph-name="arrowup" unicode="&#x2191;" horiz-adv-x="706" 
d="M271 -12l21 407l-140 -168l-96 86l246 282h102l246 -282l-97 -86l-139 167l21 -406h-164z" />
    <glyph glyph-name="arrowright" unicode="&#x2192;" horiz-adv-x="752" 
d="M67 362l405 -21l-167 140l86 97l282 -247v-101l-282 -248l-86 98l168 140l-406 -21v163z" />
    <glyph glyph-name="arrowdown" unicode="&#x2193;" horiz-adv-x="697" 
d="M430 578l-21 -407l141 169l96 -87l-247 -281h-101l-247 281l97 87l139 -168l-20 406h163z" />
    <glyph glyph-name="arrowboth" unicode="&#x2194;" horiz-adv-x="1042" 
d="M683 577l281 -246v-102l-281 -247l-86 97l161 135l-476 -3l165 -136l-86 -98l-282 247v102l282 246l85 -96l-169 -142l491 2l-171 144z" />
    <glyph glyph-name="arrowupdn" unicode="&#x2195;" horiz-adv-x="711" 
d="M408 -175h-101l-247 280l97 86l135 -162l-2 485l-138 -166l-96 87l246 282h102l246 -282l-97 -87l-135 162l2 -484l138 165l97 -86z" />
    <glyph glyph-name="uni2196" unicode="&#x2196;" horiz-adv-x="655" 
d="M483 20l-273 302l20 -218l-130 -7l-24 373l71 72l374 -24l-7 -130l-219 20l303 -273z" />
    <glyph glyph-name="uni2197" unicode="&#x2197;" horiz-adv-x="655" 
d="M56 137l303 273l-218 -20l-8 130l375 24l71 -71l-24 -374l-129 7l19 219l-273 -303z" />
    <glyph glyph-name="uni2198" unicode="&#x2198;" horiz-adv-x="655" 
d="M173 553l272 -304l-19 218l129 7l24 -373l-71 -72l-374 25l7 129l217 -20l-302 273z" />
    <glyph glyph-name="uni2199" unicode="&#x2199;" horiz-adv-x="655" 
d="M598 436l-302 -273l218 20l7 -129l-373 -24l-72 71l24 373l130 -7l-20 -218l273 303z" />
    <glyph glyph-name="minus" unicode="&#x2212;" horiz-adv-x="533" 
d="M56 272l18 106h423l-18 -106h-423z" />
    <glyph glyph-name="infinity" unicode="&#x221e;" horiz-adv-x="910" 
d="M235 119q-100 0 -143 51.5t-26 144.5q31 173 224 174q63 0 103 -31t74 -87q54 56 105.5 87t114.5 31q99 -1 142 -52t27 -144q-31 -174 -225 -174q-63 0 -103 31t-74 86q-54 -55 -105 -86t-114 -31zM170 293q-14 -80 72 -80q44 0 82.5 25t84.5 72q-27 41 -55 63t-69 22
q-46 0 -76.5 -28.5t-38.5 -73.5zM677 395q-44 -1 -82.5 -26t-83.5 -72q26 -40 54.5 -62t68.5 -22q47 0 78 28.5t39 73.5q14 80 -74 80z" />
    <glyph glyph-name="approxequal" unicode="&#x2248;" horiz-adv-x="676" 
d="M92 345q14 83 53.5 128.5t123.5 45.5q53 0 106 -27.5t86 -27.5q40 0 65.5 22t28.5 39l85 -12q-15 -83 -55 -128t-122 -45q-53 0 -106.5 27.5t-87.5 27.5q-39 0 -64.5 -22t-27.5 -39zM55 133q14 84 53.5 129.5t123.5 45.5q53 0 105.5 -28t86.5 -28q39 0 65 22.5t28 39.5
l85 -12q-14 -83 -54 -128.5t-123 -45.5q-53 0 -106 27.5t-87 27.5q-39 0 -64.5 -22t-28.5 -39z" />
    <glyph glyph-name="notequal" unicode="&#x2260;" horiz-adv-x="622" 
d="M79 82l68 89h-84l19 106h146l52 68h-186l19 106h248l63 82h100l-63 -82h112l-18 -106h-175l-52 -68h215l-20 -106h-277l-68 -89h-99z" />
    <glyph glyph-name="lessequal" unicode="&#x2264;" horiz-adv-x="627" 
d="M516 193l-416 134l23 135l462 126l-20 -121l-345 -74l317 -79zM50 63l19 107h443l-20 -107h-442z" />
    <glyph glyph-name="greaterequal" unicode="&#x2265;" horiz-adv-x="627" 
d="M83 193l21 121l344 79l-316 74l20 121l418 -126l-23 -135zM60 63l19 107h443l-20 -107h-442z" />
    <glyph glyph-name="uni2661" unicode="&#x2661;" horiz-adv-x="859" 
d="M643 626q80 0 127 -56.5t30 -149.5q-12 -68 -59.5 -138.5t-106.5 -123t-118 -95t-97.5 -65t-41.5 -22.5t-33.5 23.5t-74 68.5t-83.5 100.5t-62.5 129.5t-9.5 145q16 84 75 133.5t131 49.5q31 0 58 -8t44.5 -19t30 -22.5t19 -19.5t7.5 -8l8 8q8 8 22 19.5t32.5 22.5
t45.5 19t56 8zM621 388q6 38 -10 57.5t-43 19.5q-28 0 -55 -15.5t-39 -30.5l-13 -15l-17 5q-1 6 -4.5 15.5t-19.5 25t-40 15.5q-36 0 -66 -26t-39 -74q-5 -29 6 -61t31.5 -57.5t41 -46t37 -34t16.5 -14.5q1 1 23 16.5t50.5 38t58.5 51t53 63.5t29 67z" />
    <glyph glyph-name="Euro.sc" horiz-adv-x="632" 
d="M543 127q-46 -147 -232 -147q-123 0 -175 50.5t-50 157.5h-65l14 76h58q1 18 6 39q0 4 2 12h-58l14 78h62q32 111 96 161.5t185 50.5q105 0 155 -44.5t44 -125.5l-129 -1q0 54 -62 54q-88 0 -128 -95h190l-13 -78h-201l-9 -51h201l-13 -76h-195q0 -48 18 -69.5t61 -21.5
q33 0 60 15t36 38z" />
    <glyph glyph-name="a.sc" horiz-adv-x="680" 
d="M-22 0l327 593h186l111 -593h-167l-12 99h-228l-47 -99h-170zM249 211h161l-32 268z" />
    <glyph glyph-name="aacute.sc" horiz-adv-x="680" 
d="M335 671l123 171h174l-143 -171h-154zM-22 0l327 593h186l111 -593h-167l-12 99h-228l-47 -99h-170zM249 211h161l-32 268z" />
    <glyph glyph-name="abreve.sc" horiz-adv-x="680" 
d="M634 827q-11 -61 -64 -111t-149 -50q-103 0 -144.5 50.5t-30.5 110.5h120q-3 -21 13.5 -40.5t42.5 -19.5q33 0 56.5 19t27.5 41h128zM-22 0l327 593h186l111 -593h-167l-12 99h-228l-47 -99h-170zM249 211h161l-32 268z" />
    <glyph glyph-name="acircumflex.sc" horiz-adv-x="680" 
d="M616 669h-142l-50 72l-75 -72h-149l160 168h152zM-22 0l327 593h186l111 -593h-167l-12 99h-228l-47 -99h-170zM249 211h161l-32 268z" />
    <glyph glyph-name="acutecomb.case" 
d="M-225 773l119 142h187l-139 -142h-167z" />
    <glyph glyph-name="adieresis.sc" horiz-adv-x="680" 
d="M225 669l27 151h150l-26 -151h-151zM448 669l26 151h151l-27 -151h-150zM-22 0l327 593h186l111 -593h-167l-12 99h-228l-47 -99h-170zM249 211h161l-32 268z" />
    <glyph glyph-name="ae.sc" horiz-adv-x="922" 
d="M-22 0l410 593h541l-21 -121h-286l-20 -118h241l-19 -106h-241l-22 -126h291l-21 -122h-447l19 107h-180l-69 -107h-176zM423 224l46 261l-170 -261h124z" />
    <glyph glyph-name="aeacute.sc" horiz-adv-x="922" 
d="M426 671l123 171h174l-143 -171h-154zM-22 0l410 593h541l-21 -121h-286l-20 -118h241l-19 -106h-241l-22 -126h291l-21 -122h-447l19 107h-180l-69 -107h-176zM423 224l46 261l-170 -261h124z" />
    <glyph glyph-name="agrave.sc" horiz-adv-x="680" 
d="M483 671h-146l-85 171h167zM-22 0l327 593h186l111 -593h-167l-12 99h-228l-47 -99h-170zM249 211h161l-32 268z" />
    <glyph glyph-name="amacron.sc" horiz-adv-x="680" 
d="M274 793h321l-18 -100h-322zM-22 0l327 593h186l111 -593h-167l-12 99h-228l-47 -99h-170zM249 211h161l-32 268z" />
    <glyph glyph-name="ampersand.sc" horiz-adv-x="706" 
d="M457 442q2 32 -8.5 46.5t-42.5 14.5q-43 0 -67 -21.5t-29 -53.5q-3 -16 0.5 -31.5t16 -35t24 -34t35 -41.5t37.5 -45l41 -41q30 51 47 131l123 -27q-26 -115 -88 -190l76 -79l-3 -41h-141l-30 37q-84 -48 -193 -48q-115 0 -166 52.5t-34 149.5q19 111 141 160
q-29 57 -18 119q25 147 227 147q102 0 148.5 -44t40.5 -120zM283 87q55 0 99 26l-79 101l-46 47q-61 -41 -71 -98q-6 -35 15 -55.5t82 -20.5z" />
    <glyph glyph-name="aogonek.sc" horiz-adv-x="680" 
d="M322 -116q6 33 34.5 63.5t49.5 43t28 14.5l-11 94h-228l-47 -99h-170l327 593h186l111 -593h-40q-9 -5 -23 -14t-39.5 -35.5t-29.5 -51.5q-3 -26 21 -26q13 0 27.5 4.5t22.5 8.5l8 4l-9 -77q-30 -32 -106 -32q-68 0 -94 31t-18 72zM249 211h161l-32 268z" />
    <glyph glyph-name="aring.sc" horiz-adv-x="680" 
d="M554 762q-18 -105 -135 -105q-62 0 -93.5 34t-20.5 94q19 104 135 104q63 0 94 -33.5t20 -93.5zM394 768q-5 -31 24 -31q19 0 32 12.5t16 29.5q5 30 -25 30q-19 0 -31.5 -12t-15.5 -29zM-22 0l327 593h186l111 -593h-167l-12 99h-228l-47 -99h-170zM249 211h161l-32 268z
" />
    <glyph glyph-name="aringacute.sc" horiz-adv-x="680" 
d="M383 923l123 171h174l-143 -171h-154zM554 762q-18 -105 -135 -105q-62 0 -93.5 34t-20.5 94q19 104 135 104q63 0 94 -33.5t20 -93.5zM394 768q-5 -31 24 -31q19 0 32 12.5t16 29.5q5 30 -25 30q-19 0 -31.5 -12t-15.5 -29zM-22 0l327 593h186l111 -593h-167l-12 99
h-228l-47 -99h-170zM249 211h161l-32 268z" />
    <glyph glyph-name="asterisk.sc" horiz-adv-x="526" 
d="M126 503l48 98l94 -41l14 102h99l-23 -102l106 41l14 -98l-112 -25l68 -80l-96 -67l-44 90l-80 -90l-78 67l94 80z" />
    <glyph glyph-name="at.case" horiz-adv-x="958" 
d="M625 -44q-81 -27 -201 -27q-90 0 -158 21.5t-109 61t-64 94t-24.5 120.5t10.5 142q16 88 51 160.5t91.5 130t141 89.5t190.5 32q114 0 193.5 -33t118 -91t51.5 -136.5t-6 -168.5q-25 -139 -73 -198t-144 -60q-102 0 -126 77q-55 -50 -145 -50q-190 0 -149 242
q39 221 210 221q79 0 129 -54l17 48h101l-55 -310q-15 -94 40 -95q33 0 56.5 40t42.5 150q29 165 -29.5 248t-226.5 83q-167 0 -262 -92.5t-123 -255.5q-58 -328 246 -328q133 0 213 35zM444 218q82 0 119 55q1 1 1 2v3l28 162q-22 42 -81 42q-49 0 -81.5 -38t-44.5 -105
q-19 -121 59 -121z" />
    <glyph glyph-name="atilde.sc" horiz-adv-x="680" 
d="M634 828q-14 -77 -42.5 -116.5t-87.5 -39.5q-30 0 -52.5 7.5t-33.5 17t-25 17t-29 7.5q-29 0 -48 -19.5t-21 -34.5l-76 12q14 76 42.5 115t88.5 39q38 0 63 -12.5t41.5 -24.5t34.5 -12q29 0 48 20t21 35zM-22 0l327 593h186l111 -593h-167l-12 99h-228l-47 -99h-170z
M249 211h161l-32 268z" />
    <glyph glyph-name="b.sc" horiz-adv-x="645" 
d="M74 0h-44l105 594h232q151 0 202 -39t36 -129q-18 -93 -102 -125q89 -37 71 -146q-11 -63 -35.5 -94t-86 -46.5t-181.5 -15.5h-197v1zM272 489l-25 -142h88q55 0 83 19t35 62q7 37 -12.5 49t-82.5 12h-86zM231 258l-27 -154h76q73 0 106 19t41 67q7 40 -14 54t-83 14h-99
z" />
    <glyph glyph-name="backslash.sc" horiz-adv-x="525" 
d="M411 -51h-141l-149 703h142z" />
    <glyph glyph-name="bar.sc" horiz-adv-x="270" 
d="M18 -68l130 737h113l-129 -737h-114z" />
    <glyph glyph-name="bitcoin" horiz-adv-x="674" 
d="M151 -46l15 88h-80v1h-42l114 650h123l15 84h92l-16 -84h48l16 84h92l-17 -92q82 -14 110 -56t15 -117q-19 -105 -116 -138q101 -37 79 -161q-15 -85 -54.5 -122t-145.5 -46l-16 -91h-92l15 88h-48l-15 -88h-92zM289 581l-27 -152h95q65 0 95.5 20.5t38.5 66.5
q7 38 -14.5 51.5t-82.5 13.5h-105zM243 324l-30 -170h95q74 0 107.5 20.5t43.5 73.5q7 43 -16.5 59.5t-92.5 16.5h-107z" />
    <glyph glyph-name="bitcoin.sc" horiz-adv-x="583" 
d="M121 -38l12 72h-63v1h-40l96 544h104l12 69h85l-12 -69h40l12 69h86l-14 -77q68 -12 92 -48t12 -99q-14 -86 -94 -114q82 -32 65 -133q-13 -71 -46.5 -101.5t-122.5 -38.5l-13 -75h-86l12 72h-40l-12 -72h-85zM249 478l-21 -119h71q53 0 77.5 16t31.5 54q5 30 -11.5 39.5
t-66.5 9.5h-81zM212 267l-23 -132h70q60 -1 87.5 16t34.5 60q7 34 -11.5 45t-76.5 11h-81z" />
    <glyph glyph-name="braceleft.case" horiz-adv-x="533" 
d="M238 570q8 46 16 74.5t24.5 51.5t35 34.5t55 19t77 9.5t107.5 2l-11 -119q-80 0 -111.5 -21.5t-42.5 -82.5l-17 -94q-7 -36 -29 -59.5t-39.5 -30t-21.5 -4.5q-1 0 2 -2.5t9 -7t12.5 -11t13.5 -15.5t11.5 -20.5t6.5 -26t-1 -31.5l-18 -101q-9 -55 10.5 -70.5t99.5 -15.5
l-10 -118q-64 0 -107 3.5t-75.5 13t-49.5 23.5t-25 38.5t-7 55t9 75.5l18 101q5 31 -7.5 40.5t-69.5 9.5l9 110q56 0 78.5 14.5t28.5 46.5z" />
    <glyph glyph-name="braceleft.sc" horiz-adv-x="514" 
d="M225 497q10 55 21.5 86.5t29.5 54.5t53.5 32.5t78.5 13.5t119 4l-10 -118q-80 0 -112 -22t-43 -82l-15 -80q-7 -36 -28.5 -59.5t-39 -30.5t-21.5 -5q-1 0 5 -4.5t15.5 -13.5t18.5 -21t13.5 -32t0.5 -42l-15 -88q-10 -55 9.5 -70.5t100.5 -15.5l-10 -117q-61 0 -101.5 3.5
t-71.5 13t-47.5 23.5t-24 38.5t-6.5 54.5t9 75l15 88q5 31 -7.5 40.5t-68.5 9.5l8 110q56 0 78.5 14.5t28.5 46.5z" />
    <glyph glyph-name="braceright.case" horiz-adv-x="533" 
d="M315 123q-8 -46 -16 -74.5t-24.5 -52t-35.5 -35t-55 -19t-77 -9.5t-108 -2l11 118q80 0 111.5 21.5t42.5 82.5l18 94q7 36 28.5 59.5t39 30.5t21.5 5q1 0 -5 4.5t-16 14t-19 21.5t-13.5 32t-0.5 42l17 101q10 54 -9.5 69.5t-99.5 15.5l11 119q64 0 107 -3.5t75.5 -13
t49 -23.5t25 -38.5t7 -55t-9.5 -75.5l-17 -101q-5 -31 7 -40.5t68 -9.5l-8 -111q-56 0 -78 -14.5t-28 -46.5z" />
    <glyph glyph-name="braceright.sc" horiz-adv-x="514" 
d="M293 77q-8 -45 -16 -73.5t-24 -51.5t-34 -34.5t-52.5 -19t-73 -9.5t-101.5 -2l10 117q80 0 111 22t43 82l15 82q8 35 30 59t39 30.5t22 5.5q1 0 -1 1.5t-6 4t-9 6.5t-10.5 9.5t-10.5 12.5t-9.5 15t-7.5 18t-3.5 21.5t1.5 24.5l15 86q10 55 -9.5 70.5t-99.5 15.5l11 118
q61 0 101.5 -3.5t71.5 -13t47.5 -23.5t24 -38.5t6.5 -55t-9 -75.5l-16 -86q-6 -32 7 -41.5t69 -9.5l-9 -110q-56 0 -78 -14t-28 -46z" />
    <glyph glyph-name="bracketleft.case" horiz-adv-x="493" 
d="M70 -53l144 813h305l-20 -111h-161l-105 -591h162l-20 -111h-305z" />
    <glyph glyph-name="bracketleft.sc" horiz-adv-x="486" 
d="M61 -101l138 784h292l-19 -111h-162l-99 -561h162l-20 -112h-292z" />
    <glyph glyph-name="bracketright.case" horiz-adv-x="486" 
d="M307 -53h-304l20 111h159l105 591h-160l20 111h304z" />
    <glyph glyph-name="bracketright.sc" horiz-adv-x="486" 
d="M287 -101h-292l20 112h159l99 561h-159l19 111h292z" />
    <glyph glyph-name="brokenbar.sc" horiz-adv-x="270" 
d="M97 383l51 286h113l-50 -286h-114zM190 259l-58 -327h-114l58 327h114z" />
    <glyph glyph-name="c.sc" horiz-adv-x="650" 
d="M581 186q-30 -112 -99 -157.5t-188 -45.5q-148 0 -205.5 76.5t-26.5 248.5q29 163 106 233t216 70q125 0 184 -51t49 -163l-154 -10q4 53 -16 71t-67 18q-66 0 -105 -43.5t-57 -147.5q-17 -96 1.5 -131.5t77.5 -35.5q53 0 85.5 22.5t49.5 77.5z" />
    <glyph glyph-name="cacute.sc" horiz-adv-x="650" 
d="M331 677l123 171h174l-143 -171h-154zM581 186q-30 -112 -99 -157.5t-188 -45.5q-148 0 -205.5 76.5t-26.5 248.5q29 163 106 233t216 70q125 0 184 -51t49 -163l-154 -10q4 53 -16 71t-67 18q-66 0 -105 -43.5t-57 -147.5q-17 -96 1.5 -131.5t77.5 -35.5q53 0 85.5 22.5
t49.5 77.5z" />
    <glyph glyph-name="caroncomb.alt" 
d="M-243 572l95 192h129l-128 -192h-96z" />
    <glyph glyph-name="caroncomb.alt.case" 
d="M-226 773l102 204h136l-123 -204h-115z" />
    <glyph glyph-name="ccaron.sc" horiz-adv-x="650" 
d="M645 843l-164 -168h-150l-97 168h136l50 -68l74 68h151zM581 186q-30 -112 -99 -157.5t-188 -45.5q-148 0 -205.5 76.5t-26.5 248.5q29 163 106 233t216 70q125 0 184 -51t49 -163l-154 -10q4 53 -16 71t-67 18q-66 0 -105 -43.5t-57 -147.5q-17 -96 1.5 -131.5
t77.5 -35.5q53 0 85.5 22.5t49.5 77.5z" />
    <glyph glyph-name="ccedilla.sc" horiz-adv-x="650" 
d="M401 -170q-9 -50 -49 -73t-138 -23q-32 0 -58 3t-36 7l-10 3l6 69q0 -2 45 -3q80 0 89 55q4 23 -15.5 29.5t-62.5 6.5h-10l59 85q-106 17 -146 93.5t-13 225.5q29 163 106 233t216 70q125 0 184 -51t49 -163l-154 -10q4 53 -16 71t-67 18q-66 0 -105 -43.5t-57 -147.5
q-17 -96 1.5 -131.5t77.5 -35.5q53 0 85.5 22.5t49.5 77.5l149 -32q-25 -97 -80 -143t-145 -56l-36 -52q40 -4 64.5 -30t16.5 -75z" />
    <glyph glyph-name="ccircumflex.sc" horiz-adv-x="650" 
d="M612 675h-142l-50 72l-75 -72h-149l160 168h152zM581 186q-30 -112 -99 -157.5t-188 -45.5q-148 0 -205.5 76.5t-26.5 248.5q29 163 106 233t216 70q125 0 184 -51t49 -163l-154 -10q4 53 -16 71t-67 18q-66 0 -105 -43.5t-57 -147.5q-17 -96 1.5 -131.5t77.5 -35.5
q53 0 85.5 22.5t49.5 77.5z" />
    <glyph glyph-name="cdotaccent.sc" horiz-adv-x="650" 
d="M326 680l26 146h164l-25 -146h-165zM581 186q-30 -112 -99 -157.5t-188 -45.5q-148 0 -205.5 76.5t-26.5 248.5q29 163 106 233t216 70q125 0 184 -51t49 -163l-154 -10q4 53 -16 71t-67 18q-66 0 -105 -43.5t-57 -147.5q-17 -96 1.5 -131.5t77.5 -35.5q53 0 85.5 22.5
t49.5 77.5z" />
    <glyph glyph-name="cent.sc" horiz-adv-x="574" 
d="M193 -17l11 67q-187 28 -146 250q19 106 73 163.5t158 66.5l11 62h101l-11 -64q160 -21 152 -172l-149 -4q1 36 -13.5 50t-47.5 14q-50 0 -79 -32.5t-42 -105.5q-11 -66 1 -91t54 -25q79 0 103 67l146 -27q-24 -72 -72.5 -110.5t-137.5 -44.5l-11 -64h-101z" />
    <glyph glyph-name="d.sc" horiz-adv-x="670" 
d="M135 594h203q136 0 203 -33t80 -102t-6 -174q-12 -65 -26.5 -107.5t-40 -79t-65 -56.5t-98 -31t-141.5 -11h-214zM271 466l-60 -341h76q75 0 114 39.5t56 142.5q18 96 -4 127.5t-96 31.5h-86z" />
    <glyph glyph-name="dagger.sups" horiz-adv-x="399" 
d="M156 673h70l14 76h87l-14 -76h71l-14 -73h-70l-39 -224h-87l39 224h-70z" />
    <glyph glyph-name="daggerdbl.sups" horiz-adv-x="399" 
d="M156 673h70l14 76h87l-14 -76h71l-14 -73h-70l-13 -75h71l-14 -73h-70l-13 -76h-87l13 76h-70l13 73h70l13 75h-70z" />
    <glyph glyph-name="dcaron.sc" horiz-adv-x="670" 
d="M626 837l-164 -168h-150l-97 168h136l50 -68l74 68h151zM135 594h203q136 0 203 -33t80 -102t-6 -174q-12 -65 -26.5 -107.5t-40 -79t-65 -56.5t-98 -31t-141.5 -11h-214zM271 466l-60 -341h76q75 0 114 39.5t56 142.5q18 96 -4 127.5t-96 31.5h-86z" />
    <glyph glyph-name="dcroat.sc" horiz-adv-x="670" 
d="M75 254h-57l10 85h62l45 255h203q136 0 203 -33t80 -102t-6 -174q-12 -65 -26.5 -107.5t-40 -79t-65 -56.5t-98 -31t-141.5 -11h-214zM234 254l-23 -129h76q75 0 114 39.5t56 142.5q18 96 -4 127.5t-96 31.5h-86l-22 -127h87l-10 -85h-92z" />
    <glyph glyph-name="degree.sc" horiz-adv-x="445" 
d="M399 499q-20 -123 -148 -123q-70 0 -102 37t-19 108q22 126 149 126q70 0 101.5 -38t18.5 -110zM215 499q-4 -24 1.5 -36.5t27.5 -12.5q58 0 70 71q10 51 -28 51q-57 0 -71 -73z" />
    <glyph glyph-name="dollar.sc" horiz-adv-x="562" 
d="M171 -28l11 64q-153 24 -144 153l127 4q-1 -35 19 -49t64 -16q97 -2 110 69q5 26 -25.5 40.5t-76 23.5t-89.5 23t-70 50t-15 94q26 140 196 153l10 54h103l-10 -56q150 -21 142 -147l-129 -3q2 27 -13 41.5t-58 15.5q-49 1 -76.5 -19t-32.5 -51q-5 -26 25.5 -40.5
t75.5 -23t89.5 -22.5t71 -50t16.5 -93q-25 -144 -208 -154l-10 -61h-103z" />
    <glyph glyph-name="e.sc" horiz-adv-x="569" 
d="M30 0l104 593h442l-21 -121h-286l-21 -117h241l-19 -108h-241l-22 -125h292l-21 -122h-448z" />
    <glyph glyph-name="eacute.sc" horiz-adv-x="569" 
d="M289 671l123 171h174l-143 -171h-154zM30 0l104 593h442l-21 -121h-286l-21 -117h241l-19 -108h-241l-22 -125h292l-21 -122h-448z" />
    <glyph glyph-name="ebreve.sc" horiz-adv-x="569" 
d="M588 827q-11 -61 -64 -111t-149 -50q-103 0 -144.5 50.5t-30.5 110.5h120q-3 -21 13.5 -40.5t42.5 -19.5q33 0 56.5 19t27.5 41h128zM30 0l104 593h442l-21 -121h-286l-21 -117h241l-19 -108h-241l-22 -125h292l-21 -122h-448z" />
    <glyph glyph-name="ecaron.sc" horiz-adv-x="569" 
d="M603 837l-164 -168h-150l-97 168h136l50 -68l74 68h151zM30 0l104 593h442l-21 -121h-286l-21 -117h241l-19 -108h-241l-22 -125h292l-21 -122h-448z" />
    <glyph glyph-name="ecircumflex.sc" horiz-adv-x="569" 
d="M570 669h-142l-50 72l-75 -72h-149l160 168h152zM30 0l104 593h442l-21 -121h-286l-21 -117h241l-19 -108h-241l-22 -125h292l-21 -122h-448z" />
    <glyph glyph-name="edieresis.sc" horiz-adv-x="569" 
d="M179 669l27 151h150l-26 -151h-151zM402 669l26 151h151l-27 -151h-150zM30 0l104 593h442l-21 -121h-286l-21 -117h241l-19 -108h-241l-22 -125h292l-21 -122h-448z" />
    <glyph glyph-name="edotaccent.sc" horiz-adv-x="569" 
d="M284 674l26 146h164l-25 -146h-165zM30 0l104 593h442l-21 -121h-286l-21 -117h241l-19 -108h-241l-22 -125h292l-21 -122h-448z" />
    <glyph glyph-name="egrave.sc" horiz-adv-x="569" 
d="M437 671h-146l-85 171h167zM30 0l104 593h442l-21 -121h-286l-21 -117h241l-19 -108h-241l-22 -125h292l-21 -122h-448z" />
    <glyph glyph-name="eight.dnom" horiz-adv-x="581" 
d="M256 -11q-131 0 -178.5 46t-32.5 131q11 61 49.5 94t69.5 36q-9 2 -24 13.5t-27.5 41t-5.5 66.5q12 68 64 105t164 37q121 0 165 -44t30 -121q-9 -47 -40 -72t-57 -28q26 -4 54.5 -44t16.5 -107q-13 -76 -69 -115t-179 -39zM341 471q-89 0 -105 -89q-4 -27 8.5 -40.5
t49.5 -13.5q90 0 104 77q5 35 -8 50.5t-49 15.5zM302 252q-50 0 -78 -25t-35 -68q-13 -70 63 -70q49 0 77.5 25t35.5 68q7 34 -7 52t-56 18z" />
    <glyph glyph-name="eight.lf" horiz-adv-x="717" 
d="M318 -12q-167 0 -227.5 58.5t-41.5 166.5q14 79 67 123t92 47q-7 1 -21 10.5t-30.5 27t-25 49t-1.5 67.5q10 58 39.5 97t94.5 64t164 25q153 0 209.5 -55.5t38.5 -153.5q-6 -33 -23 -59.5t-37.5 -41.5t-38 -22.5t-29.5 -8.5q12 -2 29.5 -14.5t36 -34t28 -60t1.5 -83.5
q-18 -100 -91.5 -151t-233.5 -51zM428 614q-118 0 -138 -115q-6 -35 14.5 -56t69.5 -21q57 0 93 28.5t44 71.5q8 47 -11.5 69.5t-71.5 22.5zM378 329q-63 0 -102 -34t-48 -86q-18 -97 92 -97q64 0 102.5 32t48.5 88q7 44 -15 70.5t-78 26.5z" />
    <glyph glyph-name="eight.numr" horiz-adv-x="581" 
d="M294 206q-131 0 -178.5 46t-32.5 131q11 61 49.5 94t69.5 36q-9 2 -24 13.5t-27.5 41t-5.5 66.5q12 68 64 105t164 37q121 0 165 -44t30 -121q-9 -47 -40 -72t-57 -28q26 -4 54.5 -44t16.5 -107q-13 -76 -69 -115t-179 -39zM379 688q-89 0 -105 -89q-4 -27 8.5 -40.5
t49.5 -13.5q90 0 104 77q5 35 -8 50.5t-49 15.5zM340 469q-50 0 -78 -25t-35 -68q-13 -70 63 -70q49 0 77.5 25t35.5 68q7 34 -7 52t-56 18z" />
    <glyph glyph-name="eight.sc" horiz-adv-x="624" 
d="M273 -10q-147 0 -200 48.5t-38 139.5q12 63 56 99t76 39q-9 2 -25 14t-31 43.5t-8 70.5q12 72 70.5 111.5t185.5 39.5q133 0 182.5 -46.5t35.5 -127.5q-9 -49 -44.5 -76t-61.5 -31q14 -2 34 -18t36.5 -54.5t8.5 -86.5q-10 -53 -37 -88t-86.5 -56t-153.5 -21zM361 494
q-49 0 -78 -23t-36 -65q-5 -24 12 -39t56 -15q47 0 76.5 22t35.5 55q6 34 -9.5 49.5t-56.5 15.5zM321 267q-51 0 -82.5 -27t-38.5 -65q-6 -33 10.5 -51t62.5 -18q52 0 83 25t39 67q5 30 -12.5 49.5t-61.5 19.5z" />
    <glyph glyph-name="eight.subs" horiz-adv-x="581" 
d="M216 -212q-131 0 -178.5 46t-32.5 131q11 61 49.5 94t69.5 36q-9 2 -24 13.5t-27.5 41t-5.5 66.5q12 68 64 105t164 37q121 0 165 -44t30 -121q-9 -47 -40 -72t-57 -28q26 -4 54.5 -44t16.5 -107q-13 -76 -69 -115t-179 -39zM301 270q-89 0 -105 -89q-4 -27 8.5 -40.5
t49.5 -13.5q90 0 104 77q5 35 -8 50.5t-49 15.5zM262 51q-50 0 -78 -25t-35 -68q-13 -70 63 -70q49 0 77.5 25t35.5 68q7 34 -7 52t-56 18z" />
    <glyph glyph-name="eight.tf" horiz-adv-x="714" 
d="M335 -12q-167 0 -227.5 58.5t-41.5 166.5q14 79 67 123t92 47q-7 1 -21 10.5t-30.5 27t-25 49t-1.5 67.5q10 58 39.5 97t94.5 64t164 25q153 0 209.5 -55.5t38.5 -153.5q-6 -33 -23 -59.5t-37.5 -41.5t-38 -22.5t-29.5 -8.5q12 -2 29.5 -14.5t36 -34t28 -60t1.5 -83.5
q-18 -100 -91.5 -151t-233.5 -51zM445 614q-118 0 -138 -115q-6 -35 14.5 -56t69.5 -21q57 0 93 28.5t44 71.5q8 47 -11.5 69.5t-71.5 22.5zM395 329q-63 0 -102 -34t-48 -86q-18 -97 92 -97q64 0 102.5 32t48.5 88q7 44 -15 70.5t-78 26.5z" />
    <glyph glyph-name="emacron.sc" horiz-adv-x="569" 
d="M228 793h321l-18 -100h-322zM30 0l104 593h442l-21 -121h-286l-21 -117h241l-19 -108h-241l-22 -125h292l-21 -122h-448z" />
    <glyph glyph-name="eng.sc" horiz-adv-x="705" 
d="M683 593l-104 -593q-8 -42 -22 -73t-42 -60t-77.5 -44t-119.5 -15h-53l20 116h43q104 0 119 76h-1v1l-208 396l-62 -397h-146l105 593h162l185 -361l56 361h145z" />
    <glyph glyph-name="eogonek.sc" horiz-adv-x="569" 
d="M238 -116q11 64 101 116h-309l104 593h442l-21 -121h-286l-21 -117h241l-19 -108h-241l-22 -125h292l-21 -122q-9 -5 -23 -14t-39.5 -35.5t-29.5 -51.5q-3 -26 21 -26q13 0 27.5 4.5t22.5 8.5l8 4l-9 -77q-30 -32 -106 -32q-68 0 -94 31t-18 72z" />
    <glyph glyph-name="eth.sc" horiz-adv-x="670" 
d="M75 254h-57l10 85h62l45 255h203q136 0 203 -33t80 -102t-6 -174q-12 -65 -26.5 -107.5t-40 -79t-65 -56.5t-98 -31t-141.5 -11h-214zM234 254l-23 -129h76q75 0 114 39.5t56 142.5q18 96 -4 127.5t-96 31.5h-86l-22 -127h87l-10 -85h-92z" />
    <glyph glyph-name="exclam.sc" horiz-adv-x="320" 
d="M75 189l60 408h164l-84 -408h-140zM30 0l26 144h163l-25 -144h-164z" />
    <glyph glyph-name="exclamdown.case" horiz-adv-x="341" 
d="M142 575l25 145h164l-25 -145h-164zM41 0l104 531h140l-81 -531h-163z" />
    <glyph glyph-name="exclamdown.sc" horiz-adv-x="320" 
d="M110 452l25 145h164l-26 -145h-163zM30 0l83 407h140l-59 -407h-164z" />
    <glyph glyph-name="f.sc" horiz-adv-x="540" 
d="M30 0l104 593h430l-21 -121h-275l-24 -138h229l-20 -111h-228l-39 -223h-156z" />
    <glyph glyph-name="five.dnom" horiz-adv-x="557" 
d="M264 442l-37 -109q43 27 105 27q99 0 134.5 -56t21.5 -139q-14 -78 -71 -127t-171 -49q-110 0 -159.5 42.5t-48.5 102.5l138 5q8 -43 68 -43q47 0 75 25.5t34 66.5q7 36 -6.5 57.5t-50.5 21.5q-29 0 -54.5 -9t-36 -17t-13.5 -13l-128 1l103 316h356l-20 -109z" />
    <glyph glyph-name="five.lf" horiz-adv-x="690" 
d="M333 572l-50 -144q61 36 145 36q64 0 109 -21.5t64.5 -56.5t27 -79.5t-3.5 -90.5q-8 -48 -28.5 -87t-56.5 -72.5t-95 -52.5t-137 -19q-140 0 -203 54t-63 131l174 9q3 -25 26 -43t69 -18q62 0 100 33.5t48 87.5q9 49 -11.5 79t-68.5 30q-41 0 -75.5 -12t-49 -22.5
t-17.5 -16.5l-158 1l133 404h456l-23 -136z" />
    <glyph glyph-name="five.numr" horiz-adv-x="557" 
d="M302 659l-37 -109q43 27 105 27q99 0 134.5 -56t21.5 -139q-14 -78 -71 -127t-171 -49q-110 0 -159.5 42.5t-48.5 102.5l138 5q8 -43 68 -43q47 0 75 25.5t34 66.5q7 36 -6.5 57.5t-50.5 21.5q-29 0 -54.5 -9t-36 -17t-13.5 -13l-128 1l103 316h356l-20 -109z" />
    <glyph glyph-name="five.sc" horiz-adv-x="599" 
d="M285 462l-38 -109q47 28 116 28q56 0 95 -18t55 -47.5t22.5 -66t-2.5 -73.5q-36 -189 -271 -189q-122 0 -176 45.5t-54 109.5l163 10q7 -46 68 -46q52 0 83.5 26.5t40.5 70.5q13 77 -63 77q-34 0 -63 -11t-40 -19.5t-14 -12.5l-148 1l111 340h398l-22 -122z" />
    <glyph glyph-name="five.subs" horiz-adv-x="557" 
d="M224 241l-37 -109q43 27 105 27q99 0 134.5 -56t21.5 -139q-14 -78 -71 -127t-171 -49q-110 0 -159.5 42.5t-48.5 102.5l138 5q8 -43 68 -43q47 0 75 25.5t34 66.5q7 36 -6.5 57.5t-50.5 21.5q-29 0 -54.5 -9t-36 -17t-13.5 -13l-128 1l103 316h356l-20 -109z" />
    <glyph glyph-name="five.tf" horiz-adv-x="714" 
d="M355 572l-50 -144q61 36 145 36q64 0 109 -21.5t64.5 -56.5t27 -79.5t-3.5 -90.5q-8 -48 -28.5 -87t-56.5 -72.5t-95 -52.5t-137 -19q-140 0 -203 54t-63 131l174 9q3 -25 26 -43t69 -18q62 0 100 33.5t48 87.5q9 49 -11.5 79t-68.5 30q-41 0 -75.5 -12t-49 -22.5
t-17.5 -16.5l-158 1l133 404h456l-23 -136z" />
    <glyph glyph-name="four.dnom" horiz-adv-x="558" 
d="M283 0l16 91h-284l17 103l287 354h189l-62 -354h64l-19 -103h-63l-16 -91h-129zM317 194l42 242l-183 -242h141z" />
    <glyph glyph-name="four.lf" horiz-adv-x="694" 
d="M360 0l21 120h-371l21 128l380 459h234l-81 -459h82l-23 -128h-81l-21 -120h-161zM403 248l58 331l-258 -331h200z" />
    <glyph glyph-name="four.numr" horiz-adv-x="558" 
d="M321 217l16 91h-284l17 103l287 354h189l-62 -354h64l-19 -103h-63l-16 -91h-129zM355 411l42 242l-183 -242h141z" />
    <glyph glyph-name="four.sc" horiz-adv-x="608" 
d="M301 0l16 91h-313l19 119l311 371h219l-65 -371h69l-21 -119h-69l-16 -91h-150zM338 210l44 255l-202 -255h158z" />
    <glyph glyph-name="four.subs" horiz-adv-x="558" 
d="M243 -201l16 91h-284l17 103l287 354h189l-62 -354h64l-19 -103h-63l-16 -91h-129zM277 -7l42 242l-183 -242h141z" />
    <glyph glyph-name="four.tf" horiz-adv-x="714" 
d="M373 0l21 120h-371l21 128l380 459h234l-81 -459h82l-23 -128h-81l-21 -120h-161zM416 248l58 331l-258 -331h200z" />
    <glyph glyph-name="g.sc" horiz-adv-x="653" 
d="M557 80q-1 -2 -10.5 -11.5t-31.5 -24.5t-51 -28.5t-74.5 -23t-95.5 -9.5q-148 -1 -205.5 75.5t-26.5 248.5q29 164 105.5 234t216.5 70q123 0 180 -50t49 -151l-150 -9q2 41 -19 58t-64 17q-66 0 -105 -43.5t-57 -148.5q-18 -99 2 -136t81 -37q53 0 89 14.5t38 30.5
l11 65h-92l14 83h235z" />
    <glyph glyph-name="gbreve.sc" horiz-adv-x="653" 
d="M626 833q-11 -61 -64 -111t-149 -50q-103 0 -144.5 50.5t-30.5 110.5h120q-3 -21 13.5 -40.5t42.5 -19.5q33 0 56.5 19t27.5 41h128zM557 80q-1 -2 -10.5 -11.5t-31.5 -24.5t-51 -28.5t-74.5 -23t-95.5 -9.5q-148 -1 -205.5 75.5t-26.5 248.5q29 164 105.5 234t216.5 70
q123 0 180 -50t49 -151l-150 -9q2 41 -19 58t-64 17q-66 0 -105 -43.5t-57 -148.5q-18 -99 2 -136t81 -37q53 0 89 14.5t38 30.5l11 65h-92l14 83h235z" />
    <glyph glyph-name="gcaron.sc" horiz-adv-x="653" 
d="M641 843l-164 -168h-150l-97 168h136l50 -68l74 68h151zM557 80q-1 -2 -10.5 -11.5t-31.5 -24.5t-51 -28.5t-74.5 -23t-95.5 -9.5q-148 -1 -205.5 75.5t-26.5 248.5q29 164 105.5 234t216.5 70q123 0 180 -50t49 -151l-150 -9q2 41 -19 58t-64 17q-66 0 -105 -43.5
t-57 -148.5q-18 -99 2 -136t81 -37q53 0 89 14.5t38 30.5l11 65h-92l14 83h235z" />
    <glyph glyph-name="gcircumflex.sc" horiz-adv-x="653" 
d="M608 675h-142l-50 72l-75 -72h-149l160 168h152zM557 80q-1 -2 -10.5 -11.5t-31.5 -24.5t-51 -28.5t-74.5 -23t-95.5 -9.5q-148 -1 -205.5 75.5t-26.5 248.5q29 164 105.5 234t216.5 70q123 0 180 -50t49 -151l-150 -9q2 41 -19 58t-64 17q-66 0 -105 -43.5t-57 -148.5
q-18 -99 2 -136t81 -37q53 0 89 14.5t38 30.5l11 65h-92l14 83h235z" />
    <glyph glyph-name="gcommaaccent.sc" horiz-adv-x="653" 
d="M557 80q-1 -2 -10.5 -11.5t-31.5 -24.5t-51 -28.5t-74.5 -23t-95.5 -9.5q-148 -1 -205.5 75.5t-26.5 248.5q29 164 105.5 234t216.5 70q123 0 180 -50t49 -151l-150 -9q2 41 -19 58t-64 17q-66 0 -105 -43.5t-57 -148.5q-18 -99 2 -136t81 -37q53 0 89 14.5t38 30.5
l11 65h-92l14 83h235zM134 -300q29 55 60 132l39 112h143q-17 -75 -57 -148q-19 -36 -37 -60t-26 -30l-8 -6h-114z" />
    <glyph glyph-name="gdotaccent.sc" horiz-adv-x="653" 
d="M322 680l26 146h164l-25 -146h-165zM557 80q-1 -2 -10.5 -11.5t-31.5 -24.5t-51 -28.5t-74.5 -23t-95.5 -9.5q-148 -1 -205.5 75.5t-26.5 248.5q29 164 105.5 234t216.5 70q123 0 180 -50t49 -151l-150 -9q2 41 -19 58t-64 17q-66 0 -105 -43.5t-57 -148.5
q-18 -99 2 -136t81 -37q53 0 89 14.5t38 30.5l11 65h-92l14 83h235z" />
    <glyph glyph-name="germandbls.sc" horiz-adv-x="705" 
d="M620 171q-12 -69 -76.5 -119.5t-195.5 -50.5h-110l22 128h85q51 0 81 24.5t38 64.5q6 33 -13.5 51t-68.5 18q-15 0 -31 -2.5t-24 -4.5l-8 -2l11 92l1 1h-1l142 114h-108q-48 0 -76.5 -27t-36.5 -73l-67 -385h-154l68 386q7 40 15 66t26 55.5t44.5 46t71 28t105.5 11.5
h310l-19 -108l-144 -114q75 -19 101.5 -68.5t11.5 -131.5z" />
    <glyph glyph-name="gravecomb.case" 
d="M40 775h-158l-90 142h180z" />
    <glyph glyph-name="guillemotleft.case" horiz-adv-x="735" 
d="M192 138l-92 170v28l154 177h180l-184 -194l114 -181h-172zM447 138l-91 170v28l153 177h180l-183 -193l113 -182h-172z" />
    <glyph glyph-name="guillemotright.case" horiz-adv-x="735" 
d="M245 138h-179l181 186l-111 189h171l91 -177l-1 -28zM500 138h-180l182 186l-112 189h173l90 -177l-1 -28z" />
    <glyph glyph-name="guilsinglleft.case" horiz-adv-x="480" 
d="M192 138l-92 170v28l154 177h180l-184 -194l114 -181h-172z" />
    <glyph glyph-name="guilsinglright.case" horiz-adv-x="480" 
d="M245 138h-179l181 186l-111 189h171l91 -177l-1 -28z" />
    <glyph glyph-name="h.sc" horiz-adv-x="675" 
d="M30 0l104 593h156l-40 -227h206l40 227h157l-104 -593h-157l41 238h-206l-41 -238h-156z" />
    <glyph glyph-name="hbar.sc" horiz-adv-x="675" 
d="M30 0l75 430h-66l10 76h70l15 87h156l-15 -87h206l15 87h157l-15 -87h71l-10 -76h-75l-75 -430h-157l41 238h-206l-41 -238h-156zM250 366h206l11 64h-206z" />
    <glyph glyph-name="hcircumflex.sc" horiz-adv-x="675" 
d="M611 669h-142l-50 72l-75 -72h-149l160 168h152zM30 0l104 593h156l-40 -227h206l40 227h157l-104 -593h-157l41 238h-206l-41 -238h-156z" />
    <glyph glyph-name="i.loclTRK" horiz-adv-x="338" 
d="M149 627l26 146h164l-25 -146h-165zM39 0l95 546h164l-96 -546h-163z" />
    <glyph glyph-name="i.sc" horiz-adv-x="312" 
d="M30 0l104 593h156l-104 -593h-156z" />
    <glyph glyph-name="i.sc.loclTRK" horiz-adv-x="312" 
d="M148 674l26 146h164l-25 -146h-165zM30 0l104 593h156l-104 -593h-156z" />
    <glyph glyph-name="iacute.sc" horiz-adv-x="312" 
d="M153 671l123 171h174l-143 -171h-154zM30 0l104 593h156l-104 -593h-156z" />
    <glyph glyph-name="ibreve.sc" horiz-adv-x="312" 
d="M452 827q-11 -61 -64 -111t-149 -50q-103 0 -144.5 50.5t-30.5 110.5h120q-3 -21 13.5 -40.5t42.5 -19.5q33 0 56.5 19t27.5 41h128zM30 0l104 593h156l-104 -593h-156z" />
    <glyph glyph-name="icircumflex.sc" horiz-adv-x="312" 
d="M434 669h-142l-50 72l-75 -72h-149l160 168h152zM30 0l104 593h156l-104 -593h-156z" />
    <glyph glyph-name="idieresis.sc" horiz-adv-x="312" 
d="M43 669l27 151h150l-26 -151h-151zM266 669l26 151h151l-27 -151h-150zM30 0l104 593h156l-104 -593h-156z" />
    <glyph glyph-name="igrave.sc" horiz-adv-x="312" 
d="M301 671h-146l-85 171h167zM30 0l104 593h156l-104 -593h-156z" />
    <glyph glyph-name="ij.sc" horiz-adv-x="731" 
d="M30 0l104 593h156l-104 -593h-156zM657 259q-10 -55 -18 -87.5t-22.5 -65.5t-34.5 -50t-52 -31.5t-75 -19.5t-104 -5h-59l24 135h49q64 0 94 29t43 106l58 323h156z" />
    <glyph glyph-name="imacron.sc" horiz-adv-x="312" 
d="M92 793h321l-18 -100h-322zM30 0l104 593h156l-104 -593h-156z" />
    <glyph glyph-name="iogonek.sc" horiz-adv-x="312" 
d="M-82 -116q6 33 34 63.5t54 44.5l25 14l103 587h156l-104 -593h-28q-9 -5 -23 -14t-39.5 -35.5t-29.5 -51.5q-3 -26 21 -26q13 0 27.5 4.5t22.5 8.5l8 4l-9 -77q-30 -32 -106 -32q-68 0 -94 31t-18 72z" />
    <glyph glyph-name="itilde.sc" horiz-adv-x="312" 
d="M452 828q-14 -77 -42.5 -116.5t-87.5 -39.5q-30 0 -52.5 7.5t-33.5 17t-25 17t-29 7.5q-29 0 -48 -19.5t-21 -34.5l-76 12q14 76 42.5 115t88.5 39q38 0 63 -12.5t41.5 -24.5t34.5 -12q29 0 48 20t21 35zM30 0l104 593h156l-104 -593h-156z" />
    <glyph glyph-name="j.sc" horiz-adv-x="419" 
d="M345 259q-10 -55 -18 -87.5t-22.5 -65.5t-34.5 -50t-52 -31.5t-75 -19.5t-104 -5h-59l24 135h49q64 0 94 29t43 106l58 323h156z" />
    <glyph glyph-name="jcircumflex.sc" horiz-adv-x="419" 
d="M545 669h-142l-50 72l-75 -72h-149l160 168h152zM345 259q-10 -55 -18 -87.5t-22.5 -65.5t-34.5 -50t-52 -31.5t-75 -19.5t-104 -5h-59l24 135h49q64 0 94 29t43 106l58 323h156z" />
    <glyph glyph-name="k.sc" horiz-adv-x="658" 
d="M30 0l104 593h156l-50 -284l265 284h179l-241 -245l137 -348h-166l-88 229l-122 -125l-18 -104h-156z" />
    <glyph glyph-name="kcommaaccent.sc" horiz-adv-x="658" 
d="M30 0l104 593h156l-50 -284l265 284h179l-241 -245l137 -348h-166l-88 229l-122 -125l-18 -104h-156zM117 -283q29 55 60 132l39 112h143q-17 -75 -57 -148q-19 -36 -37 -60t-26 -30l-8 -6h-114z" />
    <glyph glyph-name="l.sc" horiz-adv-x="505" 
d="M30 0l104 593h156l-80 -454h240l-25 -139h-395z" />
    <glyph glyph-name="lacute.sc" horiz-adv-x="505" 
d="M153 671l123 171h174l-143 -171h-154zM30 0l104 593h156l-80 -454h240l-25 -139h-395z" />
    <glyph glyph-name="lcaron.sc" horiz-adv-x="505" 
d="M316 452l95 192h129l-128 -192h-96zM30 0l104 593h156l-80 -454h240l-25 -139h-395z" />
    <glyph glyph-name="lcommaaccent.sc" horiz-adv-x="505" 
d="M30 0l104 593h156l-80 -454h240l-25 -139h-395zM55 -293q29 55 60 132l39 112h143q-17 -75 -57 -148q-19 -36 -37 -60t-26 -30l-8 -6h-114z" />
    <glyph glyph-name="ldot.sc" horiz-adv-x="505" 
d="M55 0l104 593h156l-80 -454h240l-25 -139h-395zM296 239l25 149h166l-25 -149h-166z" />
    <glyph glyph-name="lslash.sc" horiz-adv-x="505" 
d="M30 0l39 225l-87 -40l-29 91l136 63l45 254h156l-31 -175l94 44l29 -92l-143 -66l-29 -165h240l-25 -139h-395z" />
    <glyph glyph-name="m.sc" horiz-adv-x="900" 
d="M30 0l104 593h224l63 -463l224 463h233l-105 -593h-150l91 441l-231 -441h-170l-69 455l-66 -455h-148z" />
    <glyph glyph-name="n.sc" horiz-adv-x="706" 
d="M242 435l-68 -435h-144l105 593h177l161 -430l66 430h145l-104 -593h-172z" />
    <glyph glyph-name="nacute.sc" horiz-adv-x="706" 
d="M344 671l123 171h174l-143 -171h-154zM242 435l-68 -435h-144l105 593h177l161 -430l66 430h145l-104 -593h-172z" />
    <glyph glyph-name="ncaron.sc" horiz-adv-x="706" 
d="M658 837l-164 -168h-150l-97 168h136l50 -68l74 68h151zM242 435l-68 -435h-144l105 593h177l161 -430l66 430h145l-104 -593h-172z" />
    <glyph glyph-name="ncommaaccent.sc" horiz-adv-x="706" 
d="M242 435l-68 -435h-144l105 593h177l161 -430l66 430h145l-104 -593h-172zM154 -283q29 55 60 132l39 112h143q-17 -75 -57 -148q-19 -36 -37 -60t-26 -30l-8 -6h-114z" />
    <glyph glyph-name="nine.dnom" horiz-adv-x="584" 
d="M178 137q4 -45 72 -45q44 0 74 26.5t52 96.5q-51 -34 -116 -34q-115 0 -153 53.5t-21 148.5q14 77 72.5 126.5t176.5 49.5q132 0 175.5 -66t18.5 -208q-29 -171 -87.5 -233.5t-188.5 -62.5q-111 0 -159 42t-47 101zM282 270q66 0 118 50q11 75 -3 105.5t-59 30.5
q-49 0 -78.5 -28t-36.5 -72q-16 -86 59 -86z" />
    <glyph glyph-name="nine.lf" horiz-adv-x="726" 
d="M215 178q2 -65 101 -65q61 0 99.5 35.5t67.5 131.5q-71 -47 -158 -47q-147 0 -195.5 68.5t-27.5 191.5q18 100 97 165t229 65q168 1 224 -84t24 -266q-39 -222 -116 -305t-246 -83q-72 0 -125.5 16t-82 42.5t-41.5 56.5t-13 64zM356 345q92 0 159 69q15 99 -5.5 140.5
t-83.5 41.5q-61 0 -103 -37.5t-52 -94.5q-21 -119 85 -119z" />
    <glyph glyph-name="nine.numr" horiz-adv-x="584" 
d="M216 354q4 -45 72 -45q44 0 74 26.5t52 96.5q-51 -34 -116 -34q-115 0 -153 53.5t-21 148.5q14 77 72.5 126.5t176.5 49.5q132 0 175.5 -66t18.5 -208q-29 -171 -87.5 -233.5t-188.5 -62.5q-111 0 -159 42t-47 101zM320 487q66 0 118 50q11 75 -3 105.5t-59 30.5
q-49 0 -78.5 -28t-36.5 -72q-16 -86 59 -86z" />
    <glyph glyph-name="nine.sc" horiz-adv-x="629" 
d="M188 148q2 -48 75 -48q48 0 80 28t55 99q-56 -33 -125 -33q-127 0 -169 56.5t-25 156.5q15 80 82 134t197 54q146 1 195.5 -69.5t23.5 -220.5q-32 -183 -98 -250.5t-212 -67.5q-125 0 -178 46t-51 111zM301 292q70 0 125 53q10 72 -5.5 103t-63.5 31q-52 0 -85.5 -29
t-41.5 -75q-15 -83 71 -83z" />
    <glyph glyph-name="nine.subs" horiz-adv-x="584" 
d="M138 -64q4 -45 72 -45q44 0 74 26.5t52 96.5q-54 -34 -116 -34q-115 0 -153 53.5t-21 148.5q14 77 72.5 126.5t176.5 49.5q132 0 175.5 -66t18.5 -208q-29 -171 -87.5 -233.5t-188.5 -62.5q-111 0 -159 42t-47 101zM242 69q66 0 118 50q11 75 -3 105.5t-59 30.5
q-49 0 -78.5 -28t-36.5 -72q-16 -86 59 -86z" />
    <glyph glyph-name="nine.tf" horiz-adv-x="714" 
d="M229 178q2 -65 101 -65q61 0 99.5 35.5t67.5 131.5q-71 -47 -158 -47q-147 0 -195.5 68.5t-27.5 191.5q18 100 97 165t229 65q168 1 224 -84t24 -266q-39 -222 -116 -305t-246 -83q-72 0 -125.5 16t-82 42.5t-41.5 56.5t-13 64zM370 345q92 0 159 69q15 99 -5.5 140.5
t-83.5 41.5q-61 0 -103 -37.5t-52 -94.5q-21 -119 85 -119z" />
    <glyph glyph-name="ntilde.sc" horiz-adv-x="706" 
d="M643 828q-14 -77 -42.5 -116.5t-87.5 -39.5q-30 0 -52.5 7.5t-33.5 17t-25 17t-29 7.5q-29 0 -48 -19.5t-21 -34.5l-76 12q14 76 42.5 115t88.5 39q38 0 63 -12.5t41.5 -24.5t34.5 -12q29 0 48 20t21 35zM242 435l-68 -435h-144l105 593h177l161 -430l66 430h145
l-104 -593h-172z" />
    <glyph glyph-name="numbersign.sc" horiz-adv-x="753" 
d="M90 0l51 133h-75l19 111h99l41 104h-81l20 109h103l47 119h107l-47 -119h117l47 119h108l-47 -119h82l-20 -109h-104l-41 -104h85l-19 -111h-109l-52 -133h-108l52 133h-117l-51 -133h-107zM291 244h117l41 104h-117z" />
    <glyph glyph-name="o.sc" horiz-adv-x="672" 
d="M619 285q-29 -163 -106.5 -232.5t-217.5 -69.5q-148 0 -206 76.5t-27 248.5q29 163 106 233t217 70q148 0 206 -77t28 -249zM218 285q-18 -101 0.5 -138t78.5 -37q68 0 107 44t59 154q17 101 -1.5 137.5t-78.5 36.5q-67 0 -106.5 -44t-58.5 -153z" />
    <glyph glyph-name="oacute.sc" horiz-adv-x="672" 
d="M332 677l123 171h174l-143 -171h-154zM619 285q-29 -163 -106.5 -232.5t-217.5 -69.5q-148 0 -206 76.5t-27 248.5q29 163 106 233t217 70q148 0 206 -77t28 -249zM218 285q-18 -101 0.5 -138t78.5 -37q68 0 107 44t59 154q17 101 -1.5 137.5t-78.5 36.5
q-67 0 -106.5 -44t-58.5 -153z" />
    <glyph glyph-name="obreve.sc" horiz-adv-x="672" 
d="M631 833q-11 -61 -64 -111t-149 -50q-103 0 -144.5 50.5t-30.5 110.5h120q-3 -21 13.5 -40.5t42.5 -19.5q33 0 56.5 19t27.5 41h128zM619 285q-29 -163 -106.5 -232.5t-217.5 -69.5q-148 0 -206 76.5t-27 248.5q29 163 106 233t217 70q148 0 206 -77t28 -249zM218 285
q-18 -101 0.5 -138t78.5 -37q68 0 107 44t59 154q17 101 -1.5 137.5t-78.5 36.5q-67 0 -106.5 -44t-58.5 -153z" />
    <glyph glyph-name="ocircumflex.sc" horiz-adv-x="672" 
d="M613 675h-142l-50 72l-75 -72h-149l160 168h152zM619 285q-29 -163 -106.5 -232.5t-217.5 -69.5q-148 0 -206 76.5t-27 248.5q29 163 106 233t217 70q148 0 206 -77t28 -249zM218 285q-18 -101 0.5 -138t78.5 -37q68 0 107 44t59 154q17 101 -1.5 137.5t-78.5 36.5
q-67 0 -106.5 -44t-58.5 -153z" />
    <glyph glyph-name="odieresis.sc" horiz-adv-x="672" 
d="M222 675l27 151h150l-26 -151h-151zM445 675l26 151h151l-27 -151h-150zM619 285q-29 -163 -106.5 -232.5t-217.5 -69.5q-148 0 -206 76.5t-27 248.5q29 163 106 233t217 70q148 0 206 -77t28 -249zM218 285q-18 -101 0.5 -138t78.5 -37q68 0 107 44t59 154
q17 101 -1.5 137.5t-78.5 36.5q-67 0 -106.5 -44t-58.5 -153z" />
    <glyph glyph-name="oe.sc" horiz-adv-x="896" 
d="M291 0q-148 0 -204 68.5t-25 239.5q28 162 102 223.5t222 61.5h517l-21 -121h-286l-20 -118h241l-19 -106h-241l-22 -126h291l-21 -122h-514zM219 285q-17 -96 3 -130t83 -34h74l61 351h-64q-63 0 -101 -41.5t-56 -145.5z" />
    <glyph glyph-name="ograve.sc" horiz-adv-x="672" 
d="M480 677h-146l-85 171h167zM619 285q-29 -163 -106.5 -232.5t-217.5 -69.5q-148 0 -206 76.5t-27 248.5q29 163 106 233t217 70q148 0 206 -77t28 -249zM218 285q-18 -101 0.5 -138t78.5 -37q68 0 107 44t59 154q17 101 -1.5 137.5t-78.5 36.5q-67 0 -106.5 -44
t-58.5 -153z" />
    <glyph glyph-name="ohungarumlaut.sc" horiz-adv-x="672" 
d="M206 677l119 171h170l-141 -171h-148zM415 677l142 171h169l-163 -171h-148zM619 285q-29 -163 -106.5 -232.5t-217.5 -69.5q-148 0 -206 76.5t-27 248.5q29 163 106 233t217 70q148 0 206 -77t28 -249zM218 285q-18 -101 0.5 -138t78.5 -37q68 0 107 44t59 154
q17 101 -1.5 137.5t-78.5 36.5q-67 0 -106.5 -44t-58.5 -153z" />
    <glyph glyph-name="omacron.sc" horiz-adv-x="672" 
d="M271 799h321l-18 -100h-322zM619 285q-29 -163 -106.5 -232.5t-217.5 -69.5q-148 0 -206 76.5t-27 248.5q29 163 106 233t217 70q148 0 206 -77t28 -249zM218 285q-18 -101 0.5 -138t78.5 -37q68 0 107 44t59 154q17 101 -1.5 137.5t-78.5 36.5q-67 0 -106.5 -44
t-58.5 -153z" />
    <glyph glyph-name="one.dnom" horiz-adv-x="343" 
d="M78 0l71 412l-101 -38l19 116l158 59h80l-97 -549h-130z" />
    <glyph glyph-name="one.lf" horiz-adv-x="427" 
d="M109 0l94 545l-128 -33l20 125l202 75h98l-125 -712h-161z" />
    <glyph glyph-name="one.numr" horiz-adv-x="343" 
d="M116 217l71 412l-101 -38l19 116l158 59h80l-97 -549h-130z" />
    <glyph glyph-name="one.sc" horiz-adv-x="379" 
d="M88 0l74 430l-106 -23l19 116l174 61l2 2h91l-103 -586h-151z" />
    <glyph glyph-name="one.subs" horiz-adv-x="343" 
d="M38 -201l71 412l-101 -38l19 116l158 59h80l-97 -549h-130z" />
    <glyph glyph-name="one.tf" horiz-adv-x="714" 
d="M151 0l22 127h118l72 418l-128 -33l20 125l202 75h98l-103 -585h129l-22 -127h-408z" />
    <glyph glyph-name="ordfeminine.sc" horiz-adv-x="463" 
d="M116 555q32 97 164 97q84 0 123.5 -25.5t41 -69t-7.5 -101.5l-12 -69l-11 -98h-104l-3 22q-49 -33 -110 -33q-71 0 -103.5 31.5t-22.5 93.5q18 105 159 105q45 0 100 -5l1 5q8 40 1.5 53.5t-38.5 13.5q-67 0 -80 -45zM224 358q50 0 87 33l8 48q-24 4 -43 4q-80 0 -90 -56
q-2 -14 6.5 -21.5t31.5 -7.5z" />
    <glyph glyph-name="ordmasculine.sc" horiz-adv-x="465" 
d="M450 454q-16 -90 -63.5 -133t-143.5 -43q-103 0 -140 50.5t-20 148.5q16 90 63.5 133.5t143.5 43.5q103 0 140 -51t20 -149zM197 454q-9 -50 0 -69t42 -19q41 0 64 26.5t33 84.5q9 49 0 68.5t-42 19.5q-41 0 -64 -26.5t-33 -84.5z" />
    <glyph glyph-name="oslash.sc" horiz-adv-x="672" 
d="M52 -18l49 63q-73 77 -39 263q29 163 106 233t217 70q86 0 140 -25l17 21h85l-47 -60q71 -79 39 -262q-29 -163 -106.5 -232.5t-217.5 -69.5q-83 0 -139 24l-19 -25h-85zM218 285q-12 -66 -9 -102l227 289q-20 10 -53 10q-67 0 -106.5 -44t-58.5 -153zM463 308
q10 60 7 99l-225 -288q17 -9 52 -9q68 0 107 44t59 154z" />
    <glyph glyph-name="oslashacute.sc" horiz-adv-x="672" 
d="M332 677l123 171h174l-143 -171h-154zM52 -18l49 63q-73 77 -39 263q29 163 106 233t217 70q86 0 140 -25l17 21h85l-47 -60q71 -79 39 -262q-29 -163 -106.5 -232.5t-217.5 -69.5q-83 0 -139 24l-19 -25h-85zM218 285q-12 -66 -9 -102l227 289q-20 10 -53 10
q-67 0 -106.5 -44t-58.5 -153zM463 308q10 60 7 99l-225 -288q17 -9 52 -9q68 0 107 44t59 154z" />
    <glyph glyph-name="otilde.sc" horiz-adv-x="672" 
d="M631 834q-14 -77 -42.5 -116.5t-87.5 -39.5q-30 0 -52.5 7.5t-33.5 17t-25 17t-29 7.5q-29 0 -48 -19.5t-21 -34.5l-76 12q14 76 42.5 115t88.5 39q38 0 63 -12.5t41.5 -24.5t34.5 -12q29 0 48 20t21 35zM619 285q-29 -163 -106.5 -232.5t-217.5 -69.5q-148 0 -206 76.5
t-27 248.5q29 163 106 233t217 70q148 0 206 -77t28 -249zM218 285q-18 -101 0.5 -138t78.5 -37q68 0 107 44t59 154q17 101 -1.5 137.5t-78.5 36.5q-67 0 -106.5 -44t-58.5 -153z" />
    <glyph glyph-name="p.sc" horiz-adv-x="653" 
d="M30 0l105 594h208q178 0 239.5 -48t38.5 -177q-22 -122 -93.5 -164t-250.5 -42h-62l-29 -163h-156zM270 475l-33 -189h74q69 0 105.5 21t47.5 85q10 55 -14.5 69t-96.5 14h-83z" />
    <glyph glyph-name="paragraph.alt" horiz-adv-x="778" 
d="M321 0l46 264q-71 2 -119.5 10t-84.5 26.5t-51.5 47.5t-21 72.5t7.5 103.5q13 75 37 120.5t69.5 72.5t106 36.5t158.5 9.5h306l-134 -763h-114l114 652h-91l-114 -652h-115z" />
    <glyph glyph-name="parenleft.case" horiz-adv-x="448" 
d="M139 355q14 81 35 152.5t40.5 115.5t37.5 77t28 46l11 14h167l-10 -16q-11 -16 -29 -52t-37.5 -83.5t-41 -121t-35.5 -154.5q-21 -138 -17.5 -226t18.5 -129l16 -40h-172q-3 5 -7 14.5t-12 46t-11.5 80.5t0.5 118t19 158z" />
    <glyph glyph-name="parenleft.sc" horiz-adv-x="410" 
d="M127 284q14 78 34.5 146.5t40 111.5t37 75t27.5 45l11 14h158q-5 -6 -12.5 -16.5t-29.5 -49.5t-41 -83t-41 -116t-36 -150q-20 -132 -16.5 -217t18.5 -125l15 -40h-153q-3 5 -6.5 14.5t-11.5 45t-11.5 78t0 114.5t17.5 153z" />
    <glyph glyph-name="parenright.case" horiz-adv-x="448" 
d="M331 760q2 -5 5.5 -15.5t10.5 -48.5t9.5 -83t-2.5 -120.5t-20 -159.5q-14 -81 -35.5 -151.5t-42 -113t-38.5 -74t-30 -44.5l-11 -12h-167l11 15q11 15 30 49.5t39.5 80.5t42.5 118.5t36 153.5q21 139 19 229t-15 133l-13 43h171z" />
    <glyph glyph-name="parenright.sc" horiz-adv-x="410" 
d="M297 676q2 -5 5.5 -15.5t10 -47.5t9 -81t-2 -117t-18.5 -154q-13 -78 -34 -145.5t-41.5 -109t-38.5 -72t-29 -42.5l-12 -13h-157q5 5 13 15.5t31 47.5t43 80t42.5 113.5t36.5 148.5q20 133 18 220t-15 130l-13 42h152z" />
    <glyph glyph-name="percent.sc" horiz-adv-x="858" 
d="M401 435q-13 -72 -53.5 -108t-123.5 -36q-92 0 -125.5 42.5t-19.5 124.5q13 73 54 109.5t125 36.5q174 0 143 -169zM101 0l513 586h146l-513 -586h-146zM175 435q-6 -34 3 -48.5t39 -14.5q74 0 89 86q5 35 -3.5 50.5t-38.5 15.5q-73 0 -89 -89zM779 124
q-13 -72 -53.5 -107t-124.5 -35q-91 0 -125 42t-20 123q13 74 54.5 110.5t125.5 36.5q91 0 124 -43.5t19 -126.5zM553 124q-7 -33 2.5 -47.5t38.5 -14.5q72 0 89 85q5 35 -3.5 50.5t-37.5 15.5q-75 0 -89 -89z" />
    <glyph glyph-name="perthousand.sc" horiz-adv-x="1208" 
d="M401 435q-13 -72 -53.5 -108t-123.5 -36q-92 0 -125.5 42.5t-19.5 124.5q13 73 54 109.5t125 36.5q174 0 143 -169zM101 0l513 586h146l-513 -586h-146zM175 435q-6 -34 3 -48.5t39 -14.5q74 0 89 86q5 35 -3.5 50.5t-38.5 15.5q-73 0 -89 -89zM779 124
q-13 -72 -53.5 -107t-124.5 -35q-91 0 -125 42t-20 123q13 74 54.5 110.5t125.5 36.5q91 0 124 -43.5t19 -126.5zM1134 124q-13 -72 -53.5 -107t-125.5 -35q-174 0 -144 165q13 74 54 110.5t125 36.5q92 0 125 -43.5t19 -126.5zM553 124q-7 -33 2.5 -47.5t38.5 -14.5
q72 0 89 85q5 35 -3.5 50.5t-37.5 15.5q-75 0 -89 -89zM907 124q-6 -33 3.5 -47.5t38.5 -14.5q73 0 88 85q6 35 -2.5 50.5t-37.5 15.5q-76 0 -90 -89z" />
    <glyph glyph-name="q.sc" horiz-adv-x="676" 
d="M619 285q-33 -179 -124 -247l71 -72l-113 -84l-83 107q-36 -6 -75 -6q-148 0 -206 76.5t-27 248.5q29 163 106 233t217 70q148 0 206 -77t28 -249zM218 285q-18 -101 0.5 -138t78.5 -37q68 0 107 44t59 154q17 101 -1.5 137.5t-78.5 36.5q-67 0 -106.5 -44t-58.5 -153z
" />
    <glyph glyph-name="question.sc" horiz-adv-x="595" 
d="M87 440q49 181 246 181q128 0 180 -56t36 -141q-7 -38 -27.5 -68t-46.5 -50t-52 -38t-47.5 -41.5t-28.5 -51.5l-4 -16h-154l6 28q8 43 37.5 78.5t61 55.5t60.5 50t36 64q4 23 -9 40t-48 17q-39 0 -67 -22t-38 -57zM162 0l20 121h154l-21 -121h-153z" />
    <glyph glyph-name="questiondown.case" horiz-adv-x="676" 
d="M521 720l-24 -134h-163l23 134h164zM598 192q-27 -103 -91.5 -157.5t-183.5 -54.5q-143 0 -198.5 64t-36.5 170q9 49 32.5 85t52.5 58t58 42.5t54.5 51.5t35.5 73l5 20h164l-6 -32q-9 -50 -33 -87t-53 -59.5t-57.5 -43t-51 -50t-29.5 -67.5q-15 -85 64 -85q98 0 124 106z
" />
    <glyph glyph-name="questiondown.sc" horiz-adv-x="609" 
d="M456 597l-21 -121h-154l22 121h153zM531 158q-49 -182 -247 -182q-127 0 -179 55.5t-37 140.5q7 38 28 68t47 50t52 38.5t47.5 41.5t28.5 51l4 16h153l-5 -27q-6 -35 -27 -64.5t-47 -49t-51.5 -38.5t-45 -43t-24.5 -52q-5 -24 8.5 -42t47.5 -18q40 0 68.5 23.5t37.5 60.5
z" />
    <glyph glyph-name="quotedbl.sc" horiz-adv-x="494" 
d="M103 401l22 261h172l-70 -261h-124zM314 401l22 261h172l-70 -261h-124z" />
    <glyph glyph-name="quotedblleft.sc" horiz-adv-x="533" 
d="M91 381q0 4 3.5 20t18 55.5t36.5 83.5q22 45 44 77t33 42l11 10h119q-39 -69 -75 -164q-15 -40 -25 -71t-12 -42l-3 -11h-150zM288 381q10 60 58 159q22 44 44 76.5t33 42.5l11 10h120q-40 -69 -76 -164q-15 -40 -24.5 -71t-11.5 -42l-3 -11h-151z" />
    <glyph glyph-name="quotedblright.sc" horiz-adv-x="533" 
d="M70 383q38 71 75 167q15 40 25 70t12 40l3 9h151q-10 -55 -59 -154q-22 -44 -44 -77t-33 -44l-11 -11h-119zM267 383q38 71 75 167q15 40 25 70t13 40l2 9h151q-10 -55 -59 -154q-22 -44 -44 -77t-33 -44l-11 -11h-119z" />
    <glyph glyph-name="quoteleft.sc" horiz-adv-x="335" 
d="M91 381q8 60 58 159q22 44 44 76.5t33 42.5l11 10h119q-39 -69 -75 -164q-16 -40 -26 -71t-12 -42l-2 -11h-150z" />
    <glyph glyph-name="quoteright.sc" horiz-adv-x="336" 
d="M70 384q38 70 75 166q15 40 25 70t12 40l3 9h151q-11 -55 -59 -154q-22 -44 -44 -77t-33 -44l-11 -11z" />
    <glyph glyph-name="quotesingle.sc" horiz-adv-x="283" 
d="M103 401l22 261h172l-70 -261h-124z" />
    <glyph glyph-name="r.sc" horiz-adv-x="666" 
d="M30 0l105 594h251q153 0 208.5 -48t32.5 -176q-14 -76 -43 -117t-84 -59l62 -194h-164l-46 174h-135l-31 -174h-156zM269 471l-31 -176h79q72 0 107 20t46 79q8 52 -15 64.5t-97 12.5h-89z" />
    <glyph glyph-name="racute.sc" horiz-adv-x="666" 
d="M308 671l123 171h174l-143 -171h-154zM30 0l105 594h251q153 0 208.5 -48t32.5 -176q-14 -76 -43 -117t-84 -59l62 -194h-164l-46 174h-135l-31 -174h-156zM269 471l-31 -176h79q72 0 107 20t46 79q8 52 -15 64.5t-97 12.5h-89z" />
    <glyph glyph-name="rcaron.sc" horiz-adv-x="666" 
d="M622 837l-164 -168h-150l-97 168h136l50 -68l74 68h151zM30 0l105 594h251q153 0 208.5 -48t32.5 -176q-14 -76 -43 -117t-84 -59l62 -194h-164l-46 174h-135l-31 -174h-156zM269 471l-31 -176h79q72 0 107 20t46 79q8 52 -15 64.5t-97 12.5h-89z" />
    <glyph glyph-name="rcommaaccent.sc" horiz-adv-x="666" 
d="M30 0l105 594h251q153 0 208.5 -48t32.5 -176q-14 -76 -43 -117t-84 -59l62 -194h-164l-46 174h-135l-31 -174h-156zM269 471l-31 -176h79q72 0 107 20t46 79q8 52 -15 64.5t-97 12.5h-89zM116 -283q29 55 60 132l39 112h143q-17 -75 -57 -148q-19 -36 -37 -60t-26 -30
l-8 -6h-114z" />
    <glyph glyph-name="registered.alt" horiz-adv-x="575" 
d="M556 511q-40 -219 -254 -219q-123 0 -168.5 67t-26.5 174q17 100 79 161t176 61q123 0 168 -68t26 -176zM159 511q-31 -170 130 -170q97 0 148.5 53t66.5 139q14 80 -13.5 126.5t-116.5 46.5q-95 0 -147.5 -54.5t-67.5 -140.5zM212 401l43 245h97q58 0 80 -21.5t12 -75.5
q-6 -31 -17.5 -46.5t-34.5 -20.5l23 -81h-61l-18 76h-50l-13 -76h-61zM308 597l-13 -71h31q51 0 60 46q1 4 1 7.5t-0.5 6t-1.5 4.5t-2 3t-3.5 2t-4 1.5t-5.5 0.5h-6h-7.5h-8.5h-40z" />
    <glyph glyph-name="s.sc" horiz-adv-x="633" 
d="M185 170q-3 -72 93 -72q118 -2 133 78q4 24 -21 39t-64.5 21.5t-85.5 18.5t-83.5 29t-58 55t-9.5 93q32 180 274 180q125 -1 180.5 -46t50.5 -127l-146 -5q0 30 -18.5 45t-67.5 16q-57 0 -88.5 -22t-37.5 -57q-4 -24 20.5 -39t64.5 -21t85.5 -18t83.5 -28.5t59 -54
t11 -92.5q-31 -181 -285 -180q-121 0 -181.5 47.5t-55.5 134.5z" />
    <glyph glyph-name="sacute.sc" horiz-adv-x="633" 
d="M310 677l123 171h174l-143 -171h-154zM185 170q-3 -72 93 -72q118 -2 133 78q4 24 -21 39t-64.5 21.5t-85.5 18.5t-83.5 29t-58 55t-9.5 93q32 180 274 180q125 -1 180.5 -46t50.5 -127l-146 -5q0 30 -18.5 45t-67.5 16q-57 0 -88.5 -22t-37.5 -57q-4 -24 20.5 -39
t64.5 -21t85.5 -18t83.5 -28.5t59 -54t11 -92.5q-31 -181 -285 -180q-121 0 -181.5 47.5t-55.5 134.5z" />
    <glyph glyph-name="scaron.sc" horiz-adv-x="633" 
d="M624 843l-164 -168h-150l-97 168h136l50 -68l74 68h151zM185 170q-3 -72 93 -72q118 -2 133 78q4 24 -21 39t-64.5 21.5t-85.5 18.5t-83.5 29t-58 55t-9.5 93q32 180 274 180q125 -1 180.5 -46t50.5 -127l-146 -5q0 30 -18.5 45t-67.5 16q-57 0 -88.5 -22t-37.5 -57
q-4 -24 20.5 -39t64.5 -21t85.5 -18t83.5 -28.5t59 -54t11 -92.5q-31 -181 -285 -180q-121 0 -181.5 47.5t-55.5 134.5z" />
    <glyph glyph-name="scedilla.sc" horiz-adv-x="633" 
d="M380 -178q-9 -50 -49 -73t-138 -23q-32 0 -58 3t-36 7l-10 3l6 69q0 -2 45 -3q80 0 89 55q4 23 -15.5 29.5t-62.5 6.5h-10l64 92q-86 13 -129 58.5t-38 118.5l147 5q-3 -72 93 -72q118 -2 133 78q4 24 -21 39t-64.5 21.5t-85.5 18.5t-83.5 29t-58 55t-9.5 93
q32 180 274 180q125 -1 180.5 -46t50.5 -127l-146 -5q0 30 -18.5 45t-67.5 16q-57 0 -88.5 -22t-37.5 -57q-4 -24 20.5 -39t64.5 -21t85.5 -18t83.5 -28.5t59 -54t11 -92.5q-27 -156 -219 -177l-42 -59q40 -4 64.5 -30t16.5 -75z" />
    <glyph glyph-name="scircumflex.sc" horiz-adv-x="633" 
d="M591 675h-142l-50 72l-75 -72h-149l160 168h152zM185 170q-3 -72 93 -72q118 -2 133 78q4 24 -21 39t-64.5 21.5t-85.5 18.5t-83.5 29t-58 55t-9.5 93q32 180 274 180q125 -1 180.5 -46t50.5 -127l-146 -5q0 30 -18.5 45t-67.5 16q-57 0 -88.5 -22t-37.5 -57
q-4 -24 20.5 -39t64.5 -21t85.5 -18t83.5 -28.5t59 -54t11 -92.5q-31 -181 -285 -180q-121 0 -181.5 47.5t-55.5 134.5z" />
    <glyph glyph-name="scommaaccent.sc" horiz-adv-x="633" 
d="M185 170q-3 -72 93 -72q118 -2 133 78q4 24 -21 39t-64.5 21.5t-85.5 18.5t-83.5 29t-58 55t-9.5 93q32 180 274 180q125 -1 180.5 -46t50.5 -127l-146 -5q0 30 -18.5 45t-67.5 16q-57 0 -88.5 -22t-37.5 -57q-4 -24 20.5 -39t64.5 -21t85.5 -18t83.5 -28.5t59 -54
t11 -92.5q-31 -181 -285 -180q-121 0 -181.5 47.5t-55.5 134.5zM121 -293q29 55 60 132l39 112h143q-17 -75 -57 -148q-19 -36 -37 -60t-26 -30l-8 -6h-114z" />
    <glyph glyph-name="section.sups" horiz-adv-x="416" 
d="M320 675q2 15 -3 20.5t-23 5.5q-51 0 -57 -38q-2 -13 13.5 -18.5t39 -8.5t46 -9t36 -25.5t7.5 -52.5q-5 -26 -37 -48q23 -21 16 -63q-11 -72 -125 -72q-66 0 -93 23.5t-22 66.5l73 -7q-2 -19 5 -25t24 -6q24 0 41 10.5t20 27.5q2 13 -13 20t-38 11t-45.5 10.5t-36 25.5
t-7.5 51q5 29 38 48q-25 22 -17 63q11 67 119 67q62 0 88.5 -21.5t22.5 -60.5zM216 552q-3 -14 19 -20q9 -2 32 -6l10 -1q21 19 25 41q-1 4 0 6.5t-2 5.5t-4 4.5t-6 3.5l-7.5 3t-8.5 2.5t-9.5 2t-10.5 2t-11 2.5q-23 -23 -27 -46z" />
    <glyph glyph-name="seven.dnom" horiz-adv-x="479" 
d="M82 0q11 66 41.5 135.5t65 121.5t67.5 95.5t55 65.5l22 23l-271 -9l20 114h414l-20 -108q-9 -9 -24 -25.5t-55 -67t-72.5 -100t-64 -118t-41.5 -127.5h-137z" />
    <glyph glyph-name="seven.lf" horiz-adv-x="589" 
d="M103 0q15 86 55 176.5t86 158.5t89.5 123.5t72.5 85.5l29 29l-357 -9l24 140h533l-24 -136q-12 -12 -31.5 -33t-72 -86t-95.5 -129.5t-84 -153t-55 -166.5h-170z" />
    <glyph glyph-name="seven.numr" horiz-adv-x="479" 
d="M120 217q11 66 41.5 135.5t65 121.5t67.5 95.5t55 66.5l22 22l-271 -9l20 114h414l-20 -108q-9 -9 -24 -25.5t-55 -67t-72.5 -100t-64 -118t-41.5 -127.5h-137z" />
    <glyph glyph-name="seven.sc" horiz-adv-x="517" 
d="M84 0q12 68 44.5 140t69.5 126t73 99t59 69l24 23l-297 -10l24 131h460l-23 -126q-10 -10 -26 -27t-59 -69.5t-77.5 -104t-68 -121.5t-44.5 -130h-159z" />
    <glyph glyph-name="seven.subs" horiz-adv-x="479" 
d="M42 -201q11 66 41.5 135.5t65 121.5t67.5 95.5t55 66.5l22 22l-271 -9l20 114h414l-20 -108q-9 -9 -24 -25.5t-55 -67t-72.5 -100t-64 -118t-41.5 -127.5h-137z" />
    <glyph glyph-name="seven.tf" horiz-adv-x="714" 
d="M189 0q15 86 55 176.5t86 158.5t89.5 123.5t72.5 85.5l29 29l-357 -9l24 140h533l-24 -136q-12 -12 -31.5 -33t-72 -86t-95.5 -129.5t-84 -153t-55 -166.5h-170z" />
    <glyph glyph-name="six.dnom" horiz-adv-x="584" 
d="M402 412q-2 44 -57 44q-46 0 -77.5 -29t-52.5 -103q52 33 123 33q104 0 145 -54.5t26 -138.5q-33 -175 -249 -175q-132 -1 -176 64.5t-21 203.5q31 170 92 236t184 66q102 0 148 -41.5t46 -99.5zM310 267q-66 0 -118 -48q-10 -68 5 -97.5t60 -29.5q48 0 78 28t37 73
q14 74 -62 74z" />
    <glyph glyph-name="six.lf" horiz-adv-x="722" 
d="M521 534q-4 62 -83 62q-62 0 -102 -39.5t-70 -141.5q72 46 166 46q69 0 118 -20t72 -53.5t32 -78t-2 -93.5q-18 -101 -94.5 -165.5t-231.5 -65.5q-168 -1 -224 83t-25 260q39 221 118 308t241 87q131 0 190 -53.5t58 -128.5zM394 349q-90 0 -158 -66q-13 -89 9 -129
t83 -40q66 0 105 36t49 95q20 104 -88 104z" />
    <glyph glyph-name="six.numr" horiz-adv-x="584" 
d="M440 629q-2 44 -57 44q-46 0 -77.5 -29t-52.5 -103q52 33 123 33q104 0 145 -54.5t26 -138.5q-33 -175 -249 -175q-132 -1 -176 64.5t-21 203.5q31 170 92 236t184 66q102 0 148 -41.5t46 -99.5zM348 484q-66 0 -118 -48q-10 -68 5 -97.5t60 -29.5q48 0 78 28t37 73
q14 74 -62 74z" />
    <glyph glyph-name="six.sc" horiz-adv-x="627" 
d="M433 435q0 48 -64 48q-48 0 -80.5 -30t-54.5 -108q54 32 132 32q115 0 160.5 -57.5t29.5 -144.5q-7 -38 -24 -69t-48 -59t-84 -44t-123 -16q-145 -1 -194.5 70t-23.5 215q32 182 99.5 252.5t206.5 70.5q114 0 166 -45t51 -108zM332 280q-69 0 -122 -49q-10 -67 5.5 -98.5
t62.5 -31.5q106 0 126 103q7 40 -10.5 58t-61.5 18z" />
    <glyph glyph-name="six.subs" horiz-adv-x="584" 
d="M362 211q-2 44 -57 44q-46 0 -77.5 -29t-52.5 -103q52 33 123 33q104 0 145 -54.5t26 -138.5q-33 -175 -249 -175q-132 -1 -176 64.5t-21 203.5q31 170 92 236t184 66q102 0 148 -41.5t46 -99.5zM270 66q-66 0 -118 -48q-10 -68 5 -97.5t60 -29.5q48 0 78 28t37 73
q14 74 -62 74z" />
    <glyph glyph-name="six.tf" horiz-adv-x="714" 
d="M535 534q-4 62 -83 62q-62 0 -102 -39.5t-70 -141.5q72 46 166 46q69 0 118 -20t72 -53.5t32 -78t-2 -93.5q-18 -101 -94.5 -165.5t-231.5 -65.5q-168 -1 -224 83t-25 260q39 221 118 308t241 87q131 0 190 -53.5t58 -128.5zM408 349q-90 0 -158 -66q-13 -89 9 -129
t83 -40q66 0 105 36t49 95q20 104 -88 104z" />
    <glyph glyph-name="slash.sc" horiz-adv-x="522" 
d="M-4 -58l391 703h148l-391 -703h-148z" />
    <glyph glyph-name="sterling.sc" horiz-adv-x="575" 
d="M278 201q-1 -2 -1 -5q-10 -56 -52 -86l265 6l-21 -119h-469l18 106l-4 1q7 1 27.5 10.5t47 33.5t30.5 51v2h-95l15 83h77q-4 14 -12 35t-12.5 33.5t-8 38t2.5 48.5q12 66 73.5 109t177.5 43q124 0 172 -47t40 -135l-149 -7q5 66 -58 66q-42 0 -69.5 -22.5t-34.5 -58.5
q-2 -15 3.5 -30.5t15.5 -36t15 -36.5h135l-14 -83h-115z" />
    <glyph glyph-name="t.sc" horiz-adv-x="569" 
d="M157 0l80 454h-175l24 139h508l-24 -139h-176l-81 -454h-156z" />
    <glyph glyph-name="tbar.sc" horiz-adv-x="569" 
d="M419 454l-28 -157h95l-10 -84h-100l-38 -213h-156l37 213h-89l10 84h94l28 157h-175l24 139h508l-24 -139h-176z" />
    <glyph glyph-name="tcaron.sc" horiz-adv-x="569" 
d="M592 837l-164 -168h-150l-97 168h136l50 -68l74 68h151zM157 0l80 454h-175l24 139h508l-24 -139h-176l-81 -454h-156z" />
    <glyph glyph-name="thorn.sc" horiz-adv-x="636" 
d="M30 0l104 593h158l-14 -79h92q147 0 201 -49.5t31 -177.5q-20 -120 -84.5 -160.5t-218.5 -40.5h-97l-15 -86h-157zM256 391l-33 -184h80q64 0 98.5 21t45.5 82q10 53 -13 67t-90 14h-88z" />
    <glyph glyph-name="three.dnom" horiz-adv-x="546" 
d="M356 339q72 -19 96.5 -63.5t12.5 -116.5q-13 -74 -70 -122t-171 -48q-109 0 -154.5 46.5t-41.5 118.5l131 5q2 -57 62 -57q46 0 74 25t34 65q7 38 -11 59t-72 21q-19 0 -36 -2t-25 -4l-8 -3l8 75l155 99l-245 -8l21 116h408l-18 -102z" />
    <glyph glyph-name="three.lf" horiz-adv-x="673" 
d="M448 439q94 -23 128.5 -79.5t18.5 -147.5q-8 -46 -28 -84.5t-55.5 -71.5t-95 -52t-137.5 -19q-139 0 -198 59.5t-54 150.5l167 10q-2 -36 19 -58t66 -22q63 0 100.5 33.5t46.5 89.5q9 51 -18.5 79t-98.5 28q-23 0 -45.5 -2.5t-33.5 -5.5l-11 -3l12 94l210 132l-322 -10
l25 144h525l-22 -127z" />
    <glyph glyph-name="three.numr" horiz-adv-x="546" 
d="M394 556q72 -19 96.5 -63.5t12.5 -116.5q-13 -74 -70 -122t-171 -48q-109 0 -154.5 46.5t-41.5 118.5l131 5q2 -57 62 -57q46 0 74 25t34 65q7 38 -11 59t-72 21q-19 0 -36 -2.5t-25 -4.5l-8 -2l8 75l155 99l-245 -8l21 116h408l-18 -102z" />
    <glyph glyph-name="three.sc" horiz-adv-x="587" 
d="M392 358q77 -20 103.5 -66.5t13.5 -120.5q-14 -79 -77.5 -131.5t-191.5 -52.5q-121 0 -172 50.5t-48 128.5l150 8q0 -57 69 -57q52 0 83 26.5t38 69.5q6 34 -17 53.5t-84 19.5q-20 0 -39 -1.5t-28 -2.5l-8 -2l9 80l175 102l-277 -17l24 134h456l-19 -106z" />
    <glyph glyph-name="three.subs" horiz-adv-x="546" 
d="M316 138q72 -19 96.5 -63.5t12.5 -116.5q-13 -74 -70 -122t-171 -48q-109 0 -154.5 46.5t-41.5 118.5l131 5q2 -57 62 -57q46 0 74 25t34 65q7 38 -11 59t-72 21q-19 0 -36 -2.5t-25 -4.5l-8 -2l8 75l155 99l-245 -8l21 116h408l-18 -102z" />
    <glyph glyph-name="three.tf" horiz-adv-x="714" 
d="M486 439q94 -23 128.5 -79.5t18.5 -147.5q-8 -46 -28 -84.5t-55.5 -71.5t-95 -52t-137.5 -19q-139 0 -198 59.5t-54 150.5l167 10q-2 -36 19 -58t66 -22q63 0 100.5 33.5t46.5 89.5q9 51 -18.5 79t-98.5 28q-23 0 -45.5 -2.5t-33.5 -5.5l-11 -3l12 94l210 132l-322 -10
l25 144h525l-22 -127z" />
    <glyph glyph-name="tildecomb.case" 
d="M41 927q-13 -76 -41.5 -116t-88.5 -40q-39 0 -63.5 12t-40 24t-34.5 12q-29 0 -48 -19t-21 -34l-77 11q14 76 42.5 115.5t88.5 39.5q39 0 63 -12t40 -23.5t35 -11.5q29 0 48 19t21 34z" />
    <glyph glyph-name="two.dnom" horiz-adv-x="522" 
d="M68 399q47 167 232 167q63 0 105.5 -16t61 -42.5t25.5 -60t-1 -67.5q-4 -23 -11.5 -43t-22.5 -41t-24 -33t-34 -34t-32 -28.5t-39 -31.5t-36 -28q-16 -11 -50 -30l199 7l-21 -116h-418l3 16l15 84v1h2q61 33 151 95q46 32 67.5 48t52 43t45 51t19.5 51q8 58 -56 58
q-37 0 -65 -23.5t-37 -54.5z" />
    <glyph glyph-name="two.lf" horiz-adv-x="662" 
d="M90 499q58 223 299 223q79 0 134 -20.5t78.5 -54t32.5 -75.5t-2 -86q-4 -20 -11 -40t-14 -36t-21 -35t-22.5 -31t-28 -30.5t-28.5 -27t-33 -28t-32.5 -25.5t-36 -27t-34.5 -26q-26 -18 -68 -43l267 9l-25 -144h-542l22 126l1 3q98 52 202 119q111 72 168.5 126t69.5 118
q6 35 -12 59t-67 24q-51 0 -88.5 -33t-49.5 -76z" />
    <glyph glyph-name="two.numr" horiz-adv-x="522" 
d="M106 616q47 167 232 167q63 0 105.5 -16t61 -42.5t25.5 -59.5t-1 -68q-4 -23 -11.5 -43t-22.5 -41t-24 -33t-34 -34t-32 -28.5t-39 -31.5t-36 -28q-16 -11 -50 -30l199 7l-21 -116h-418l3 16l15 84v1h2q61 33 151 95q46 32 67.5 48t52 43t45 51t19.5 51q8 58 -56 58
q-37 0 -65 -23.5t-37 -54.5z" />
    <glyph glyph-name="two.sc" horiz-adv-x="580" 
d="M72 413q50 181 255 181q57 0 99.5 -11.5t66 -31.5t37.5 -46t14 -54.5t-3 -58.5q-9 -54 -46 -103t-74.5 -78t-98.5 -68q-4 -2 -13.5 -7t-15.5 -8l200 8l-24 -135h-470l3 19l18 100q81 39 165 89q92 54 144.5 98.5t61.5 94.5q4 23 -10.5 39.5t-54.5 16.5q-39 0 -68.5 -23
t-41.5 -54z" />
    <glyph glyph-name="two.subs" horiz-adv-x="522" 
d="M28 198q47 167 232 167q63 0 105.5 -16t61 -42.5t25.5 -59.5t-1 -68q-4 -23 -11.5 -43t-22.5 -41t-24 -33t-34 -34t-32 -28.5t-39 -31.5t-36 -28q-26 -15 -50 -30l199 7l-21 -116h-418l3 16l15 84v1h2q61 33 151 95q46 32 67.5 48t52 43t45 51t19.5 51q8 58 -56 58
q-37 0 -65 -23.5t-37 -54.5z" />
    <glyph glyph-name="two.tf" horiz-adv-x="714" 
d="M132 499q58 223 299 223q79 0 134 -20.5t78.5 -54t32.5 -75.5t-2 -86q-4 -20 -11 -40t-14 -36t-21 -35t-22.5 -31t-28 -30.5t-28.5 -27t-33 -28t-32.5 -25.5t-36 -27t-34.5 -26q-26 -18 -68 -43l267 9l-25 -144h-542l22 126l1 3q98 52 202 119q111 72 168.5 126t69.5 118
q6 35 -12 59t-67 24q-51 0 -88.5 -33t-49.5 -76z" />
    <glyph glyph-name="u.sc" horiz-adv-x="661" 
d="M591 282q-15 -84 -32 -134t-50 -90.5t-86 -57.5t-133 -17q-111 0 -165 35.5t-61 104.5t11 171l53 299h157l-57 -328q-16 -74 -3 -107.5t68 -33.5q63 0 94.5 37t44.5 115l56 317h158z" />
    <glyph glyph-name="uacute.sc" horiz-adv-x="661" 
d="M324 671l123 171h174l-143 -171h-154zM591 282q-15 -84 -32 -134t-50 -90.5t-86 -57.5t-133 -17q-111 0 -165 35.5t-61 104.5t11 171l53 299h157l-57 -328q-16 -74 -3 -107.5t68 -33.5q63 0 94.5 37t44.5 115l56 317h158z" />
    <glyph glyph-name="ubreve.sc" horiz-adv-x="661" 
d="M623 827q-11 -61 -64 -111t-149 -50q-103 0 -144.5 50.5t-30.5 110.5h120q-3 -21 13.5 -40.5t42.5 -19.5q33 0 56.5 19t27.5 41h128zM591 282q-15 -84 -32 -134t-50 -90.5t-86 -57.5t-133 -17q-111 0 -165 35.5t-61 104.5t11 171l53 299h157l-57 -328q-16 -74 -3 -107.5
t68 -33.5q63 0 94.5 37t44.5 115l56 317h158z" />
    <glyph glyph-name="ucircumflex.sc" horiz-adv-x="661" 
d="M605 669h-142l-50 72l-75 -72h-149l160 168h152zM591 282q-15 -84 -32 -134t-50 -90.5t-86 -57.5t-133 -17q-111 0 -165 35.5t-61 104.5t11 171l53 299h157l-57 -328q-16 -74 -3 -107.5t68 -33.5q63 0 94.5 37t44.5 115l56 317h158z" />
    <glyph glyph-name="udieresis.sc" horiz-adv-x="661" 
d="M214 669l27 151h150l-26 -151h-151zM437 669l26 151h151l-27 -151h-150zM591 282q-15 -84 -32 -134t-50 -90.5t-86 -57.5t-133 -17q-111 0 -165 35.5t-61 104.5t11 171l53 299h157l-57 -328q-16 -74 -3 -107.5t68 -33.5q63 0 94.5 37t44.5 115l56 317h158z" />
    <glyph glyph-name="ugrave.sc" horiz-adv-x="661" 
d="M472 671h-146l-85 171h167zM591 282q-15 -84 -32 -134t-50 -90.5t-86 -57.5t-133 -17q-111 0 -165 35.5t-61 104.5t11 171l53 299h157l-57 -328q-16 -74 -3 -107.5t68 -33.5q63 0 94.5 37t44.5 115l56 317h158z" />
    <glyph glyph-name="uhungarumlaut.sc" horiz-adv-x="661" 
d="M198 671l119 171h170l-141 -171h-148zM407 671l142 171h169l-163 -171h-148zM591 282q-15 -84 -32 -134t-50 -90.5t-86 -57.5t-133 -17q-111 0 -165 35.5t-61 104.5t11 171l53 299h157l-57 -328q-16 -74 -3 -107.5t68 -33.5q63 0 94.5 37t44.5 115l56 317h158z" />
    <glyph glyph-name="umacron.sc" horiz-adv-x="661" 
d="M263 793h321l-18 -100h-322zM591 282q-15 -84 -32 -134t-50 -90.5t-86 -57.5t-133 -17q-111 0 -165 35.5t-61 104.5t11 171l53 299h157l-57 -328q-16 -74 -3 -107.5t68 -33.5q63 0 94.5 37t44.5 115l56 317h158z" />
    <glyph glyph-name="uni0163.sc" horiz-adv-x="569" 
d="M329 -170q-9 -50 -49 -73t-138 -23q-32 0 -58 3t-36 7l-10 3l6 69q0 -2 45 -3q80 0 89 55q4 23 -15.5 29.5t-62.5 6.5h-10l67 96l80 454h-175l24 139h508l-24 -139h-176l-81 -454h-19l-46 -65q40 -4 64.5 -30t16.5 -75z" />
    <glyph glyph-name="uni01EB.sc" horiz-adv-x="672" 
d="M241 -86q5 35 39 69q-141 4 -194.5 81t-23.5 244q29 163 106 233t217 70q148 0 206 -77t28 -249q-37 -210 -163 -271q-60 -41 -67 -85q-3 -26 21 -26q13 0 27.5 4.5t22.5 8.5l8 4l-9 -77q-30 -32 -106 -32q-68 0 -94 31t-18 72zM218 285q-18 -101 0.5 -138t78.5 -37
q68 0 107 44t59 154q17 101 -1.5 137.5t-78.5 36.5q-67 0 -106.5 -44t-58.5 -153z" />
    <glyph glyph-name="uni021B.sc" horiz-adv-x="569" 
d="M182 0l80 454h-175l24 139h508l-24 -139h-176l-81 -454h-156zM108 -284q19 47 43 120q10 31 18 60.5t11 43.5l3 15h141q-16 -67 -47 -132q-17 -36 -32.5 -63t-22.5 -36l-8 -8h-106z" />
    <glyph glyph-name="uni0233.sc" horiz-adv-x="628" 
d="M244 793h321l-18 -100h-322zM188 0l28 167l-130 426h173l54 -311l157 311h188l-286 -431h-2l-28 -162h-154z" />
    <glyph glyph-name="uni0259.sc" horiz-adv-x="679" 
d="M107 431q36 97 107 138.5t185 41.5q148 0 204.5 -76.5t26.5 -249.5q-29 -164 -104.5 -233t-216.5 -69q-150 0 -205.5 78t-23.5 259h396q14 86 -4.5 121t-76.5 35q-47 0 -81.5 -21t-51.5 -59zM311 118q53 0 88 27.5t56 90.5h-228q-4 -67 16 -92.5t68 -25.5z" />
    <glyph glyph-name="uni0272.sc" horiz-adv-x="705" 
d="M242 426l-71 -426q-7 -42 -21 -73t-41 -60t-76 -44t-117 -15h-52l21 117h41q49 0 73.5 17.5t31.5 57.5l105 593h179l159 -410l64 410h145l-104 -593h-178z" />
    <glyph glyph-name="uni0302.case" 
d="M14 773h-149l-50 64l-72 -64h-151l147 148h174z" />
    <glyph glyph-name="uni0304.case" 
d="M-272 897h321l-20 -114h-321z" />
    <glyph glyph-name="uni0306.case" 
d="M63 913q-11 -59 -61.5 -104t-143.5 -45q-100 0 -141.5 46t-30.5 103h116q-4 -19 14 -33.5t45 -14.5t51.5 14.5t28.5 33.5h122z" />
    <glyph glyph-name="uni0307.case" 
d="M-127 773l26 151h165l-27 -151h-164z" />
    <glyph glyph-name="uni0308.case" 
d="M-350 773l26 151h165l-27 -151h-164zM-115 773l26 151h165l-27 -151h-164z" />
    <glyph glyph-name="uni030A.case" 
d="M53 873q-10 -54 -47 -83t-94 -29q-65 0 -97.5 35.5t-20.5 98.5q9 54 46.5 82t94.5 28q64 0 96.5 -35t21.5 -97zM-114 873q-5 -26 20 -26q20 0 35.5 13.5t19.5 34.5q3 24 -22 24q-20 0 -34.5 -13t-18.5 -33z" />
    <glyph glyph-name="uni030B.case" 
d="M-444 775l115 142h170l-136 -142h-149zM-235 775l137 142h170l-159 -142h-148z" />
    <glyph glyph-name="uni030C.case" 
d="M88 921l-154 -148h-174l-94 148h143l49 -65l73 65h157z" />
    <glyph glyph-name="uni0335.sc" horiz-adv-x="388" 
d="M40 310l10 85h308l-10 -85h-308z" />
    <glyph glyph-name="uni0336.sc" horiz-adv-x="899" 
d="M117 315l10 76h660l-10 -76h-660z" />
    <glyph glyph-name="uni0338.case" 
d="M-589 11l658 743h101l-658 -743h-101z" />
    <glyph glyph-name="uni0338.sc" horiz-adv-x="450" 
d="M-63 74l490 625h85l-490 -625h-85z" />
    <glyph glyph-name="uni1EA1.sc" horiz-adv-x="680" 
d="M-22 0l327 593h186l111 -593h-167l-12 99h-228l-47 -99h-170zM249 211h161l-32 268zM173 -198l25 141h163l-24 -141h-164z" />
    <glyph glyph-name="uni1EB9.sc" horiz-adv-x="569" 
d="M30 0l104 593h442l-21 -121h-286l-21 -117h241l-19 -108h-241l-22 -125h292l-21 -122h-448zM139 -197l25 141h163l-24 -141h-164z" />
    <glyph glyph-name="uni1EBD.sc" horiz-adv-x="569" 
d="M588 828q-14 -77 -42.5 -116.5t-87.5 -39.5q-30 0 -52.5 7.5t-33.5 17t-25 17t-29 7.5q-29 0 -48 -19.5t-21 -34.5l-76 12q14 76 42.5 115t88.5 39q38 0 63 -12.5t41.5 -24.5t34.5 -12q29 0 48 20t21 35zM30 0l104 593h442l-21 -121h-286l-21 -117h241l-19 -108h-241
l-22 -125h292l-21 -122h-448z" />
    <glyph glyph-name="uni1ECB.sc" horiz-adv-x="312" 
d="M30 0l104 593h156l-104 -593h-156zM-10 -203l25 141h163l-24 -141h-164z" />
    <glyph glyph-name="uni1ECD.sc" horiz-adv-x="672" 
d="M619 285q-29 -163 -106.5 -232.5t-217.5 -69.5q-148 0 -206 76.5t-27 248.5q29 163 106 233t217 70q148 0 206 -77t28 -249zM218 285q-18 -101 0.5 -138t78.5 -37q68 0 107 44t59 154q17 101 -1.5 137.5t-78.5 36.5q-67 0 -106.5 -44t-58.5 -153zM170 -208l25 141h163
l-24 -141h-164z" />
    <glyph glyph-name="uni1EE5.sc" horiz-adv-x="661" 
d="M591 282q-15 -84 -32 -134t-50 -90.5t-86 -57.5t-133 -17q-111 0 -165 35.5t-61 104.5t11 171l53 299h157l-57 -328q-16 -74 -3 -107.5t68 -33.5q63 0 94.5 37t44.5 115l56 317h158zM163 -209l25 141h163l-24 -141h-164z" />
    <glyph glyph-name="uni1EF9.sc" horiz-adv-x="628" 
d="M604 828q-14 -77 -42.5 -116.5t-87.5 -39.5q-30 0 -52.5 7.5t-33.5 17t-25 17t-29 7.5q-29 0 -48 -19.5t-21 -34.5l-76 12q14 76 42.5 115t88.5 39q38 0 63 -12.5t41.5 -24.5t34.5 -12q29 0 48 20t21 35zM188 0l28 167l-130 426h173l54 -311l157 311h188l-286 -431h-2
l-28 -162h-154z" />
    <glyph glyph-name="uni2016.sc" horiz-adv-x="488" 
d="M18 -68l130 737h113l-129 -737h-114zM235 -68l130 737h114l-130 -737h-114z" />
    <glyph glyph-name="uni20BD.sc" horiz-adv-x="676" 
d="M60 0l17 96h-72l16 94h72l9 51h-72l19 107h72l44 251h205q174 0 235 -40t41 -152q-18 -102 -85.5 -134t-243.5 -32h-59l-9 -51h149l-16 -94h-149l-17 -96h-156zM302 492l-25 -145h68q63 0 99 18t44 66q7 39 -18 50t-89 11h-79z" />
    <glyph glyph-name="uogonek.sc" horiz-adv-x="661" 
d="M231 -90q7 38 43 73q-103 2 -153.5 38.5t-56.5 104.5t11 168l53 299h157l-57 -328q-16 -74 -3 -107.5t68 -33.5q63 0 94.5 37t44.5 115l56 317h158l-55 -311q-20 -117 -51.5 -180.5t-94.5 -92.5q-59 -40 -66 -84q-3 -26 21 -26q13 0 27.5 4.5t22.5 8.5l8 4l-9 -77
q-30 -32 -106 -32q-68 0 -94 31t-18 72z" />
    <glyph glyph-name="uring.sc" horiz-adv-x="661" 
d="M543 762q-18 -105 -135 -105q-62 0 -93.5 34t-20.5 94q19 104 135 104q63 0 94 -33.5t20 -93.5zM383 768q-5 -31 24 -31q19 0 32 12.5t16 29.5q5 30 -25 30q-19 0 -31.5 -12t-15.5 -29zM591 282q-15 -84 -32 -134t-50 -90.5t-86 -57.5t-133 -17q-111 0 -165 35.5
t-61 104.5t11 171l53 299h157l-57 -328q-16 -74 -3 -107.5t68 -33.5q63 0 94.5 37t44.5 115l56 317h158z" />
    <glyph glyph-name="utilde.sc" horiz-adv-x="661" 
d="M623 828q-14 -77 -42.5 -116.5t-87.5 -39.5q-30 0 -52.5 7.5t-33.5 17t-25 17t-29 7.5q-29 0 -48 -19.5t-21 -34.5l-76 12q14 76 42.5 115t88.5 39q38 0 63 -12.5t41.5 -24.5t34.5 -12q29 0 48 20t21 35zM591 282q-15 -84 -32 -134t-50 -90.5t-86 -57.5t-133 -17
q-111 0 -165 35.5t-61 104.5t11 171l53 299h157l-57 -328q-16 -74 -3 -107.5t68 -33.5q63 0 94.5 37t44.5 115l56 317h158z" />
    <glyph glyph-name="v.sc" horiz-adv-x="646" 
d="M83 593h173l42 -463l206 463h175l-307 -593h-192z" />
    <glyph glyph-name="w.sc" horiz-adv-x="989" 
d="M527 452l-178 -452h-194l-60 593h176l11 -458l175 458h192l10 -459l181 459h171l-278 -593h-192z" />
    <glyph glyph-name="wacute.sc" horiz-adv-x="989" 
d="M491 671l123 171h174l-143 -171h-154zM527 452l-178 -452h-194l-60 593h176l11 -458l175 458h192l10 -459l181 459h171l-278 -593h-192z" />
    <glyph glyph-name="wcircumflex.sc" horiz-adv-x="989" 
d="M772 669h-142l-50 72l-75 -72h-149l160 168h152zM527 452l-178 -452h-194l-60 593h176l11 -458l175 458h192l10 -459l181 459h171l-278 -593h-192z" />
    <glyph glyph-name="wdieresis.sc" horiz-adv-x="989" 
d="M381 669l27 151h150l-26 -151h-151zM604 669l26 151h151l-27 -151h-150zM527 452l-178 -452h-194l-60 593h176l11 -458l175 458h192l10 -459l181 459h171l-278 -593h-192z" />
    <glyph glyph-name="wgrave.sc" horiz-adv-x="989" 
d="M639 671h-146l-85 171h167zM527 452l-178 -452h-194l-60 593h176l11 -458l175 458h192l10 -459l181 459h171l-278 -593h-192z" />
    <glyph glyph-name="x.sc" horiz-adv-x="642" 
d="M305 200l-150 -200h-180l245 295l-133 298h170l81 -205l153 205h180l-249 -298l130 -295h-170z" />
    <glyph glyph-name="y.sc" horiz-adv-x="628" 
d="M188 0l28 167l-130 426h173l54 -311l157 311h188l-286 -431h-2l-28 -162h-154z" />
    <glyph glyph-name="yacute.sc" horiz-adv-x="628" 
d="M305 671l123 171h174l-143 -171h-154zM188 0l28 167l-130 426h173l54 -311l157 311h188l-286 -431h-2l-28 -162h-154z" />
    <glyph glyph-name="ycircumflex.sc" horiz-adv-x="628" 
d="M586 669h-142l-50 72l-75 -72h-149l160 168h152zM188 0l28 167l-130 426h173l54 -311l157 311h188l-286 -431h-2l-28 -162h-154z" />
    <glyph glyph-name="ydieresis.sc" horiz-adv-x="628" 
d="M195 669l27 151h150l-26 -151h-151zM418 669l26 151h151l-27 -151h-150zM188 0l28 167l-130 426h173l54 -311l157 311h188l-286 -431h-2l-28 -162h-154z" />
    <glyph glyph-name="yen.sc" horiz-adv-x="620" 
d="M186 0l20 114h-101l15 79h100l7 38h-101l14 80h75l-129 281h171l66 -224l139 224h188l-231 -281h70l-14 -80h-99l-7 -38h100l-15 -79h-99l-20 -114h-149z" />
    <glyph glyph-name="ygrave.sc" horiz-adv-x="628" 
d="M453 671h-146l-85 171h167zM188 0l28 167l-130 426h173l54 -311l157 311h188l-286 -431h-2l-28 -162h-154z" />
    <glyph glyph-name="z.sc" horiz-adv-x="571" 
d="M-7 1l8 50l13 82l347 327h-276l23 133h473l-8 -45l-13 -88l-353 -327h297l-23 -132h-488z" />
    <glyph glyph-name="zacute.sc" horiz-adv-x="571" 
d="M280 671l123 171h174l-143 -171h-154zM-7 1l8 50l13 82l347 327h-276l23 133h473l-8 -45l-13 -88l-353 -327h297l-23 -132h-488z" />
    <glyph glyph-name="zcaron.sc" horiz-adv-x="571" 
d="M594 837l-164 -168h-150l-97 168h136l50 -68l74 68h151zM-7 1l8 50l13 82l347 327h-276l23 133h473l-8 -45l-13 -88l-353 -327h297l-23 -132h-488z" />
    <glyph glyph-name="zdotaccent.sc" horiz-adv-x="571" 
d="M275 674l26 146h164l-25 -146h-165zM-7 1l8 50l13 82l347 327h-276l23 133h473l-8 -45l-13 -88l-353 -327h297l-23 -132h-488z" />
    <glyph glyph-name="zero.dnom" horiz-adv-x="603" 
d="M534 263q-27 -154 -90 -214t-182 -60q-128 0 -174.5 67t-18.5 230q27 153 90 213t182 60q127 0 174 -67t19 -229zM199 263q-14 -101 0 -131t62 -30q56 0 89.5 39.5t52.5 144.5q14 66 8 101.5t-21.5 47t-47.5 11.5q-57 0 -90.5 -39.5t-52.5 -143.5z" />
    <glyph glyph-name="zero.lf" horiz-adv-x="729" 
d="M676 344q-34 -198 -116.5 -277t-235.5 -79q-160 0 -219.5 86.5t-22.5 292.5q34 198 116.5 277t234.5 79q161 0 220.5 -86.5t22.5 -292.5zM244 344q-9 -67 -10.5 -109t11.5 -65.5t32 -32t51 -8.5q73 0 117.5 51.5t68.5 186.5q17 87 9 135t-29.5 64.5t-64.5 16.5
q-72 0 -116.5 -52t-68.5 -187z" />
    <glyph glyph-name="zero.numr" horiz-adv-x="603" 
d="M572 480q-27 -154 -90 -214t-182 -60q-128 0 -174.5 67t-18.5 230q27 153 90 213t182 60q127 0 174 -67t19 -229zM237 480q-14 -101 0 -131t62 -30q56 0 89.5 39.5t52.5 144.5q14 66 8 101.5t-21.5 47t-47.5 11.5q-57 0 -90.5 -39.5t-52.5 -143.5z" />
    <glyph glyph-name="zero.sc" horiz-adv-x="630" 
d="M574 281q-28 -164 -98 -227.5t-200 -63.5q-139 0 -191.5 70.5t-21.5 242.5q29 165 99 228.5t201 63.5q137 0 189.5 -71t21.5 -243zM216 281q-17 -97 -1.5 -128.5t64.5 -31.5q55 0 89.5 39t52.5 143q15 67 8.5 103t-22 47t-47.5 11q-57 0 -91 -39t-53 -144z" />
    <glyph glyph-name="zero.subs" horiz-adv-x="603" 
d="M494 62q-27 -154 -90 -214t-182 -60q-128 0 -174.5 67t-18.5 230q27 153 90 213t182 60q127 0 174 -67t19 -229zM159 62q-14 -101 0 -131t62 -30q56 0 89.5 39.5t52.5 144.5q14 66 8 101.5t-21.5 47t-47.5 11.5q-57 0 -90.5 -39.5t-52.5 -143.5z" />
    <glyph glyph-name="zero.tf" horiz-adv-x="714" 
d="M687 344q-34 -198 -116.5 -277t-235.5 -79q-160 0 -219.5 86.5t-22.5 292.5q34 198 116.5 277t234.5 79q161 0 220.5 -86.5t22.5 -292.5zM255 344q-9 -67 -10.5 -109t11.5 -65.5t32 -32t51 -8.5q73 0 117.5 51.5t68.5 186.5q17 87 9 135t-29.5 64.5t-64.5 16.5
q-72 0 -116.5 -52t-68.5 -187z" />
    </font>
</defs>
</svg>
