<svg xmlns="http://www.w3.org/2000/svg">
<defs>
<font id="TofinoProPersonal-BookItalic" horiz-adv-x="0" >
  <font-face 
    font-family="Tofino Pro Personal Book Ita"
    font-weight="425"
    font-style="italic"
    font-stretch="normal"
    units-per-em="1000"
    panose-1="0 0 5 0 0 0 0 0 0 0"
    ascent="760"
    descent="-240"
    x-height="531"
    cap-height="708"
    bbox="-715 -241 1148.88 1085"
    underline-thickness="50"
    underline-position="-225"
    slope="-10"
    unicode-range="U+0020-2661"
  />
<missing-glyph horiz-adv-x="616" 
d="M501 521q13 -9 15 -30t-11 -32q-10 -7 -24 -7q-15 0 -46 9q60 -63 60 -152q0 -87 -58 -149t-140 -62q-81 0 -139 62t-58 149q0 94 63 155q-22 31 -8 64q13 31 53 51.5t89 20.5q50 0 91.5 -21.5t55.5 -54.5l1 -2q38 12 56 -1zM297 576q-41 0 -75.5 -16.5t-44.5 -40.5
q-9 -19 4 -39q51 40 112 41q0 12 3 20q9 21 25 25q21 5 63 -33l2 -2q8 3 15 3q3 0 9 -2q-17 20 -49 32t-64 12zM319 532q-3 -8 -1 -12q5 -9 43 -14q1 -1 3 -1q1 1 1 3l3 7q-33 30 -42 28q-4 -2 -7 -11zM402 484q11 0 13 9q2 6 -1 10q-3 5 -9 6q-1 1 -4 1q-10 0 -13 -9
q-1 -3 1 -9q4 -6 9 -7zM440 485q43 -13 50 -7q4 2 2 12q0 8 -4 12q-8 6 -45 -5q-1 -1 -4 -1q0 -7 -1 -10q1 -1 2 -1zM228 482q-16 -18 -5 -41q16 -34 79.5 -61t162.5 -22q-17 65 -66 103q-5 0 -8 1q-15 5 -22 18h-1l-10 2q-35 4 -49 14q-4 1 -12 1q-36 0 -69 -15zM202 431
q-7 14 -7 30q-54 -44 -67 -112q29 -1 61 10t52 27q-27 20 -39 45zM447 318q9 12 14 16h-24q-105 0 -175 39q-46 -44 -124 -48l8 -7q16 9 57 9q50 0 71 -10q23 -11 46 0q20 10 71 10q43 0 56 -9zM124 309q0 -77 51 -132.5t122 -55.5q72 0 123 55.5t51 132.5q0 3 -0.5 8.5
t-0.5 8.5q-7 -6 -16 -18v-1q3 -28 -7 -50t-32 -25q-16 -2 -32 -2q-35 0 -47 7q-21 12 -28 45q-1 2 -1 5q-3 10 -11 10q-6 0 -9 -10q-1 -1 -1 -5q-7 -33 -29 -45q-12 -7 -47 -7q-17 0 -31 2q-22 3 -32.5 25.5t-7.5 49.5v1l-15 14v-13zM252 247q17 10 22 37q3 13 -2 20l-2 2

<glyph glyph-name="f_f" unicode="ff" horiz-adv-x="574" 
d="M397 760l-12 -61h-36q-65 0 -95 -33.5t-42 -103.5l-6 -31h209l8 45q7 43 18.5 73t32 57t55.5 40.5t84 13.5h57l-11 -61h-36q-65 0 -95 -33.5t-42 -103.5l-6 -31h145l-10 -59h-145l-83 -472h-66l83 472h-208l-83 -472h-66l83 472h-73l11 59h73l8 45q7 43 18.5 73t32 57
t55.5 40.5t84 13.5h58z" />
    <glyph glyph-name="f_f_i" unicode="ffi" horiz-adv-x="813" 
d="M670 760l-11 -61h-36q-65 0 -95 -33.5t-42 -103.5l-6 -31h145l-10 -59h-145l-83 -472h-66l83 472h-208l-83 -472h-66l83 472h-73l11 59h73l8 45q7 43 18.5 73t32 57t55.5 40.5t84 13.5h58l-12 -61h-36q-65 0 -95 -33.5t-42 -103.5l-6 -31h209l8 45q7 43 18.5 73t32 57
t55.5 40.5t84 13.5h57zM726 642l20 113h66l-19 -113h-67zM612 0l95 535h66l-95 -535h-66z" />
    <glyph glyph-name="f_f_l" unicode="ffl" horiz-adv-x="812" 
d="M670 760l-11 -61h-36q-65 0 -95 -33.5t-42 -103.5l-6 -31h145l-10 -59h-145l-83 -472h-66l83 472h-208l-83 -472h-66l83 472h-73l11 59h73l8 45q7 43 18.5 73t32 57t55.5 40.5t84 13.5h58l-12 -61h-36q-65 0 -95 -33.5t-42 -103.5l-6 -31h209l8 45q7 43 18.5 73t32 57
t55.5 40.5t84 13.5h57zM612 0l134 752h66l-134 -752h-66z" />
    <glyph glyph-name=".notdef" horiz-adv-x="616" 
d="M501 521q13 -9 15 -30t-11 -32q-10 -7 -24 -7q-15 0 -46 9q60 -63 60 -152q0 -87 -58 -149t-140 -62q-81 0 -139 62t-58 149q0 94 63 155q-22 31 -8 64q13 31 53 51.5t89 20.5q50 0 91.5 -21.5t55.5 -54.5l1 -2q38 12 56 -1zM297 576q-41 0 -75.5 -16.5t-44.5 -40.5
q-9 -19 4 -39q51 40 112 41q0 12 3 20q9 21 25 25q21 5 63 -33l2 -2q8 3 15 3q3 0 9 -2q-17 20 -49 32t-64 12zM319 532q-3 -8 -1 -12q5 -9 43 -14q1 -1 3 -1q1 1 1 3l3 7q-33 30 -42 28q-4 -2 -7 -11zM402 484q11 0 13 9q2 6 -1 10q-3 5 -9 6q-1 1 -4 1q-10 0 -13 -9
q-1 -3 1 -9q4 -6 9 -7zM440 485q43 -13 50 -7q4 2 2 12q0 8 -4 12q-8 6 -45 -5q-1 -1 -4 -1q0 -7 -1 -10q1 -1 2 -1zM228 482q-16 -18 -5 -41q16 -34 79.5 -61t162.5 -22q-17 65 -66 103q-5 0 -8 1q-15 5 -22 18h-1l-10 2q-35 4 -49 14q-4 1 -12 1q-36 0 -69 -15zM202 431
q-7 14 -7 30q-54 -44 -67 -112q29 -1 61 10t52 27q-27 20 -39 45zM447 318q9 12 14 16h-24q-105 0 -175 39q-46 -44 -124 -48l8 -7q16 9 57 9q50 0 71 -10q23 -11 46 0q20 10 71 10q43 0 56 -9zM124 309q0 -77 51 -132.5t122 -55.5q72 0 123 55.5t51 132.5q0 3 -0.5 8.5
t-0.5 8.5q-7 -6 -16 -18v-1q3 -28 -7 -50t-32 -25q-16 -2 -32 -2q-35 0 -47 7q-21 12 -28 45q-1 2 -1 5q-3 10 -11 10q-6 0 -9 -10q-1 -1 -1 -5q-7 -33 -29 -45q-12 -7 -47 -7q-17 0 -31 2q-22 3 -32.5 25.5t-7.5 49.5v1l-15 14v-13zM252 247q17 10 22 37q3 13 -2 20l-2 2
h-1q-18 10 -66 10q-18 0 -30.5 -2t-17 -4.5t-4.5 -3.5q-2 -21 5 -40.5t24 -21.5q16 -2 30 -2q32 0 42 5zM383 242q15 0 31 2q17 2 24 22t5 40q-5 10 -52 10q-48 0 -66 -10q-1 0 -1 -1l-2 -1q-5 -7 -2 -20q3 -26 22 -37q10 -5 41 -5zM226 294q11 -6 11 -21q0 -10 -7 -17
t-17 -7t-17 7t-7 17q0 5 1 8l-11 9q-3 2 0 5q2 2 5 0l9 -8l3 4l-6 11q-1 1 -0.5 2.5t1.5 2.5q3 2 5 -2l6 -10l4 2l-2 12q0 4 4 4q2 0 4 -3l1 -12q1 0 3 -0.5t3 -0.5l3 13q2 3 5 3q4 -2 2 -5zM414 295q1 1 2.5 1t2.5 -1q2 -4 -1 -5l-10 -10q0 -1 0.5 -3t0.5 -4
q0 -10 -7.5 -17t-17.5 -7t-17 7t-7 17q0 14 12 21l-4 14q0 4 3 5q4 0 4 -3l3 -13q2 1 6 1l2 12q0 3 4 3q3 0 3 -4l-2 -12l5 -2l6 10q2 4 4 2q1 -1 2 -2.5t0 -2.5l-7 -11q3 -1 3 -4zM296 143q23 0 38.5 10.5t15.5 26.5q0 15 -16 25.5t-38 10.5t-38 -10.5t-16 -25.5
q0 -16 15.5 -26.5t38.5 -10.5z" />
    <glyph glyph-name=".null" 
 />
    <glyph glyph-name="nonmarkingreturn" horiz-adv-x="333" 
 />
    <glyph glyph-name="space" unicode=" " horiz-adv-x="214" 
 />
    <glyph glyph-name="exclam" unicode="!" horiz-adv-x="285" 
d="M74 163l95 545h66l-98 -545h-63zM44 0l19 108h66l-19 -108h-66z" />
    <glyph glyph-name="quotedbl" unicode="&#x22;" horiz-adv-x="291" 
d="M90 573l21 185h73l-44 -185h-50zM208 573l21 185h73l-44 -185h-50z" />
    <glyph glyph-name="numbersign" unicode="#" horiz-adv-x="719" 
d="M56 0l76 204h-102l9 52h113l78 208h-107l8 52h119l70 186h53l-70 -186h188l70 186h53l-70 -186h104l-9 -52h-115l-78 -208h110l-10 -52h-119l-77 -204h-53l76 204h-187l-76 -204h-54zM206 256h187l78 208h-187z" />
    <glyph glyph-name="dollar" unicode="$" horiz-adv-x="567" 
d="M178 -51l16 90q-196 17 -164 203h58q-25 -135 115 -149l46 260q-20 5 -34.5 9.5t-33 12t-30 14.5t-26 17.5t-21 22t-14 27.5t-6 34t3.5 41q13 74 68.5 117.5t152.5 47.5l13 71h62l-13 -73q99 -9 133.5 -56t20.5 -128h-59q6 21 4 42.5t-10 39.5t-33.5 30.5t-65.5 16.5
l-44 -252q35 -10 57 -17.5t49 -22t41 -32t21 -45.5t1 -64q-28 -160 -231 -169l-15 -88h-62zM146 525q-9 -50 20.5 -76t91.5 -45l41 236q-71 -6 -108 -37.5t-45 -77.5zM428 212q9 52 -23 79t-97 46l-43 -244q143 7 163 119z" />
    <glyph glyph-name="percent" unicode="%" horiz-adv-x="772" 
d="M378 536q-14 -81 -56 -124t-124 -43q-162 0 -130 175q14 83 57 127t125 44q160 0 128 -179zM42 0l584 702h67l-583 -702h-68zM119 536q-12 -61 6.5 -91t72.5 -30q107 0 130 129q10 63 -7.5 94t-70.5 31q-109 0 -131 -133zM666 154q-14 -82 -56.5 -124.5t-124.5 -42.5
q-160 0 -130 175q15 83 58 127t125 44q160 0 128 -179zM406 154q-11 -61 7.5 -91t71.5 -30q56 0 87 32t43 97q22 125 -78 125q-107 0 -131 -133z" />
    <glyph glyph-name="ampersand" unicode="&#x26;" horiz-adv-x="634" 
d="M378 725q95 0 133 -46.5t23 -130.5h-62q22 126 -95 126q-134 0 -155 -124q-3 -17 -2.5 -33t2.5 -29t8.5 -28.5t12.5 -26.5t18.5 -28.5t21.5 -29.5t26.5 -34.5t29.5 -38.5q95 -124 119 -154q43 72 69 213h56q-30 -169 -93 -256l72 -93l-1 -14h-65l-46 61q-84 -76 -233 -76
q-245 0 -206 222q9 50 31 89t50.5 61.5t51.5 34.5t47 19q-44 70 -29 153q28 163 216 163zM277 294q-6 8 -28 36.5t-32 41.5q-48 -18 -91 -59.5t-56 -116.5q-14 -79 21 -121.5t136 -42.5q126 0 193 67q-44 58 -143 195z" />
    <glyph glyph-name="quotesingle" unicode="'" horiz-adv-x="173" 
d="M90 573l21 185h73l-44 -185h-50z" />
    <glyph glyph-name="parenleft" unicode="(" horiz-adv-x="377" 
d="M94 282q15 82 39.5 161.5t49.5 134t47.5 98t37.5 64.5l14 21h65q-6 -8 -16 -23.5t-37 -66t-50.5 -104t-49 -134t-39.5 -160.5q-21 -142 -16 -246.5t23 -164.5l17 -59h-63q-3 7 -7.5 21.5t-14.5 62t-15 99.5t-2.5 132.5t17.5 163.5z" />
    <glyph glyph-name="parenright" unicode=")" horiz-adv-x="383" 
d="M269 760q3 -8 7 -22.5t13 -63.5t13 -102t1 -134.5t-18 -164.5q-14 -82 -39 -160.5t-50 -132t-48.5 -95.5t-37.5 -62l-15 -20h-65q6 8 16 22.5t37.5 63.5t51.5 101.5t50 132t40 159.5q21 143 17 249t-20 167l-16 62h63z" />
    <glyph glyph-name="asterisk" unicode="*" horiz-adv-x="325" 
d="M68 622l22 43l83 -32l14 92h48l-19 -92l92 32l9 -44l-93 -29l49 -74l-42 -30l-46 78l-75 -78l-34 31l76 75z" />
    <glyph glyph-name="plus" unicode="+" horiz-adv-x="476" 
d="M39 342h165l29 165h62l-29 -165h164l-11 -61h-164l-29 -164h-62l29 164h-165z" />
    <glyph glyph-name="comma" unicode="," horiz-adv-x="211" 
d="M-29 -99q32 51 61 123q12 31 19.5 56.5t9.5 35.5l2 9l65 -1q-7 -41 -38 -112q-14 -32 -30.5 -60t-25.5 -40l-10 -12z" />
    <glyph glyph-name="hyphen" unicode="-" horiz-adv-x="374" 
d="M62 292l9 54h231l-9 -54h-231z" />
    <glyph glyph-name="period" unicode="." horiz-adv-x="192" 
d="M13 0l22 123h69l-22 -123h-69z" />
    <glyph glyph-name="slash" unicode="/" horiz-adv-x="609" 
d="M52 -40l458 840h63l-459 -840h-62z" />
    <glyph glyph-name="zero" unicode="0" horiz-adv-x="656" 
d="M587 346q-33 -191 -106 -274t-212 -83q-143 0 -188.5 86t-11.5 280q33 191 106 274.5t213 83.5q142 0 187.5 -86.5t11.5 -280.5zM135 346q-29 -163 3.5 -229t133.5 -66q103 0 161.5 69t87.5 235q29 163 -3 229.5t-133 66.5q-103 0 -161.5 -69t-88.5 -236z" />
    <glyph glyph-name="one" unicode="1" horiz-adv-x="304" 
d="M69 0l110 623l-142 -59l12 71l165 70h46l-125 -705h-66z" />
    <glyph glyph-name="two" unicode="2" horiz-adv-x="540" 
d="M-22 5l1 6l8 51l1 5q107 76 228 170q79 62 116.5 94.5t73 83t44.5 104.5q10 60 -21.5 95.5t-105.5 35.5q-72 0 -125 -41t-64 -105h-65q16 92 84.5 150.5t171.5 58.5q113 0 160 -56t32 -141q-9 -50 -27.5 -90.5t-56 -82.5t-64.5 -67t-88 -76q-54 -41 -183 -137l349 3
l-11 -61h-458z" />
    <glyph glyph-name="three" unicode="3" horiz-adv-x="580" 
d="M298 448q114 -4 163 -63t30 -164q-41 -232 -282 -232q-122 0 -171.5 57.5t-34.5 142.5h66q-10 -61 26 -100t116 -39q180 0 212 184q14 78 -28 119.5t-124 41.5q-19 0 -42.5 -2t-36.5 -4l-14 -2l6 50l269 199h-337l11 63h434l-11 -63z" />
    <glyph glyph-name="four" unicode="4" horiz-adv-x="529" 
d="M309 0l27 156h-362l9 60l417 487h98l-86 -487h84l-10 -60h-85l-27 -156h-65zM347 216l78 442l-367 -442h289z" />
    <glyph glyph-name="five" unicode="5" horiz-adv-x="584" 
d="M235 631l-76 -218q64 48 176 48q108 0 155 -67.5t28 -174.5t-88 -168.5t-194 -61.5q-128 0 -181 56t-39 136h68q-10 -57 29.5 -94.5t125.5 -37.5q88 0 142.5 46.5t69.5 132.5q15 84 -22 129.5t-113 45.5q-55 0 -100 -16.5t-61 -30t-24 -24.5h-65l123 363h375l-10 -60z
" />
    <glyph glyph-name="six" unicode="6" horiz-adv-x="624" 
d="M555 221q-42 -232 -289 -232q-138 -1 -185 78t-17 248q38 219 111.5 309.5t209.5 90.5q62 0 105.5 -18.5t63.5 -48.5t26.5 -62t0.5 -64h-67q10 54 -21 93.5t-110 39.5q-89 0 -144.5 -61.5t-92.5 -217.5q82 92 216 92q120 0 166.5 -67t26.5 -180zM346 407
q-138 0 -219 -122q-19 -127 15 -182t126 -55q186 0 218 183q31 176 -140 176z" />
    <glyph glyph-name="seven" unicode="7" horiz-adv-x="453" 
d="M43 0q17 98 62 200t97 176.5t101.5 135.5t82.5 92l32 32l-384 -1l12 64h462l-11 -64q-13 -12 -35.5 -34t-82 -91t-108.5 -140t-96.5 -173t-64.5 -197h-67z" />
    <glyph glyph-name="eight" unicode="8" horiz-adv-x="623" 
d="M257 -11q-134 0 -186 55t-35 153q8 47 29.5 83.5t47.5 55.5t48 28.5t38 10.5q-10 1 -24.5 10t-31.5 26t-25 47.5t-1 68.5q32 188 259 188q123 0 169.5 -52.5t30.5 -144.5q-12 -68 -56.5 -104t-77.5 -40q14 -1 32 -12t37 -31t28 -58t1 -85q-35 -199 -283 -199zM374 660
q-166 0 -192 -147q-9 -53 26 -83t113 -30q81 0 129.5 33t58.5 89q13 72 -20.5 105t-114.5 33zM318 344q-89 0 -143.5 -39.5t-67.5 -110.5q-13 -75 24.5 -109.5t128.5 -34.5q185 0 211 153q12 68 -26.5 104.5t-126.5 36.5z" />
    <glyph glyph-name="nine" unicode="9" horiz-adv-x="635" 
d="M567 369q-38 -215 -109 -297.5t-210 -82.5q-66 0 -113 18.5t-69 48t-30 61t-2 63.5h67q-10 -52 26.5 -92t122.5 -40q91 0 144 54t89 203q-81 -91 -212 -91q-124 0 -168.5 71t-22.5 196q19 107 92.5 170.5t195.5 63.5q140 0 185.5 -80.5t13.5 -265.5zM283 275
q56 0 105.5 23.5t73 47.5t40.5 50q24 144 -9 201.5t-127 57.5q-84 0 -143.5 -48.5t-74.5 -135.5q-35 -196 135 -196z" />
    <glyph glyph-name="colon" unicode=":" horiz-adv-x="275" 
d="M108 389l21 122h69l-21 -122h-69zM45 34l22 124h69l-22 -124h-69z" />
    <glyph glyph-name="semicolon" unicode=";" horiz-adv-x="255" 
d="M81 355l22 123h69l-22 -123h-69zM-48 -99q32 51 60 123q12 31 20 56.5t10 35.5l2 9l65 -1q-7 -41 -38 -112q-15 -32 -31.5 -60t-25.5 -40l-9 -12z" />
    <glyph glyph-name="less" unicode="&#x3c;" horiz-adv-x="542" 
d="M398 151l-350 132l13 73l397 132l-11 -62l-340 -108l302 -107z" />
    <glyph glyph-name="equal" unicode="=" horiz-adv-x="531" 
d="M74 344l10 62h381l-10 -62h-381zM48 201l10 61h382l-11 -61h-381z" />
    <glyph glyph-name="greater" unicode="&#x3e;" horiz-adv-x="538" 
d="M64 147l11 64l339 107l-301 108l10 60l352 -133l-13 -73z" />
    <glyph glyph-name="question" unicode="?" horiz-adv-x="489" 
d="M215 158h-67l8 43q9 52 32 88t51 56.5t55.5 40.5t50 52.5t30.5 79.5q23 137 -103 137q-136 0 -162 -150h-63q36 209 227 209q104 0 145 -53.5t25 -147.5q-9 -52 -32.5 -88.5t-51.5 -57.5t-55.5 -40.5t-51 -52t-32.5 -78.5zM120 0l18 104h66l-18 -104h-66z" />
    <glyph glyph-name="at" unicode="@" horiz-adv-x="851" 
d="M735 282q30 174 -28 268t-228 94q-169 0 -264.5 -100t-124.5 -269q-62 -352 254 -352q112 0 185 33l-6 -54q-78 -27 -180 -27t-172 31t-102 86t-41 129.5t9 161.5q16 88 48 160t84 129.5t130.5 89t178.5 31.5q84 0 146.5 -20.5t99 -58t56.5 -89.5t19.5 -114.5
t-11.5 -134.5q-25 -142 -67 -200t-114 -59q-94 0 -94 108q-58 -68 -158 -68q-175 0 -135 226q37 220 204 220q92 0 138 -68l13 58h51l-53 -303q-13 -62 -2.5 -96t46.5 -34q26 1 45.5 18.5t38.5 67.5t34 136zM363 107q105 0 156 83q0 4 1 6l31 183q-30 74 -120 74
q-62 0 -101.5 -47t-54.5 -131q-30 -168 88 -168z" />
    <glyph glyph-name="A" unicode="A" horiz-adv-x="634" 
d="M-58 0l401 708h72l151 -708h-73l-36 184h-340l-100 -184h-75zM152 248h293l-77 395z" />
    <glyph glyph-name="B" unicode="B" horiz-adv-x="655" 
d="M30 -3l126 714h232q77 0 128 -13t74.5 -37t31 -57.5t-1.5 -74.5q-21 -126 -131 -159q116 -39 91 -181q-12 -70 -37.5 -108.5t-92 -61t-185.5 -22.5h-235zM214 654l-45 -252l201 -1q88 0 130.5 32t54.5 98q12 65 -25.5 94t-142.5 29h-173zM158 341l-50 -287h169
q123 0 174 32t65 114q12 71 -24 106t-128 35h-206z" />
    <glyph glyph-name="C" unicode="C" horiz-adv-x="672" 
d="M589 229q-26 -124 -99 -185t-199 -61q-158 0 -209 93.5t-18 280.5q33 185 113.5 276.5t235.5 91.5q262 0 221 -256l-66 2q13 97 -26 144t-132 47q-118 0 -184 -76t-94 -234t8.5 -232t153.5 -74q186 0 229 184z" />
    <glyph glyph-name="D" unicode="D" horiz-adv-x="697" 
d="M30 -3l126 714h215q131 0 196 -40.5t75 -120.5t-11 -201q-17 -95 -40 -156t-65.5 -108t-110 -67.5t-166.5 -20.5h-219zM213 649l-104 -591h157q138 -1 203 67t94 233q28 162 -11.5 226.5t-176.5 64.5h-162z" />
    <glyph glyph-name="E" unicode="E" horiz-adv-x="580" 
d="M30 0l125 708h446l-11 -63h-378l-44 -246h328l-10 -61h-329l-48 -275h383l-12 -63h-450z" />
    <glyph glyph-name="F" unicode="F" horiz-adv-x="557" 
d="M30 0l125 708h442l-10 -63h-375l-46 -261h324l-11 -61h-324l-57 -323h-68z" />
    <glyph glyph-name="G" unicode="G" horiz-adv-x="673" 
d="M557 80q-1 -4 -11.5 -14.5t-33 -24.5t-52.5 -27t-75.5 -22t-95.5 -9q-156 0 -206.5 93t-17.5 281q33 186 113 277t234 91q127 0 182.5 -65.5t36.5 -170.5l-64 2q12 75 -29.5 123t-129.5 48q-116 0 -181.5 -76.5t-93.5 -234.5q-29 -159 7.5 -233.5t153.5 -74.5
q56 0 106.5 15.5t75 31.5t25.5 25l28 166h-153l10 62h217z" />
    <glyph glyph-name="H" unicode="H" horiz-adv-x="706" 
d="M30 0l125 708h68l-55 -308h384l55 308h67l-125 -708h-67l59 337h-384l-59 -337h-68z" />
    <glyph glyph-name="I" unicode="I" horiz-adv-x="255" 
d="M30 0l125 708h68l-125 -708h-68z" />
    <glyph glyph-name="J" unicode="J" horiz-adv-x="393" 
d="M303 266q-14 -81 -29 -126t-45.5 -80t-78 -47.5t-125.5 -12.5h-54l12 67h49q102 0 142 43t61 162l78 436h68z" />
    <glyph glyph-name="K" unicode="K" horiz-adv-x="639" 
d="M30 0l125 708h68l-77 -436l442 436h90l-303 -296l178 -412h-76l-156 360l-193 -188l-30 -172h-68z" />
    <glyph glyph-name="L" unicode="L" horiz-adv-x="477" 
d="M30 0l125 708h68l-114 -644h334l-12 -64h-401z" />
    <glyph glyph-name="M" unicode="M" horiz-adv-x="908" 
d="M30 0l125 708h92l151 -638l379 638h99l-127 -708h-67l115 624l-377 -624h-66l-152 626l-107 -626h-65z" />
    <glyph glyph-name="N" unicode="N" horiz-adv-x="733" 
d="M203 621l-109 -621h-64l129 708h72l299 -617l106 617h65l-125 -708h-70z" />
    <glyph glyph-name="O" unicode="O" horiz-adv-x="711" 
d="M647 349q-33 -185 -114 -275.5t-238 -90.5q-161 0 -212.5 93.5t-18.5 280.5q33 186 114.5 277t238.5 91q160 0 211.5 -94t18.5 -282zM132 352q-29 -159 8.5 -232.5t157.5 -73.5q121 0 187 75t94 234q29 159 -8.5 233t-156.5 74q-121 0 -187.5 -76t-94.5 -234z" />
    <glyph glyph-name="P" unicode="P" horiz-adv-x="638" 
d="M30 0l126 711h224q156 0 215 -50t36 -181q-23 -128 -96.5 -175.5t-231.5 -47.5h-160l-45 -257h-68zM213 651l-59 -332l165 -1q53 0 89 6t70 23t55 52t30 89q8 31 5 55t-7 41t-18 29t-27.5 19.5t-36.5 11.5t-44.5 5.5t-51.5 1.5h-170z" />
    <glyph glyph-name="Q" unicode="Q" horiz-adv-x="705" 
d="M647 349q-39 -222 -146 -305l97 -97l-57 -45l-97 109q-65 -28 -149 -28q-161 0 -212.5 93.5t-18.5 280.5q33 186 114.5 277t238.5 91q160 0 211.5 -94t18.5 -282zM132 352q-29 -159 8.5 -232.5t157.5 -73.5q121 0 187 75t94 234q29 159 -8.5 233t-156.5 74
q-121 0 -187.5 -76t-94.5 -234z" />
    <glyph glyph-name="R" unicode="R" horiz-adv-x="660" 
d="M30 0l126 711h240q148 0 204 -46.5t33 -173.5q-16 -96 -60.5 -141.5t-127.5 -59.5l112 -290h-72l-104 283q-18 -1 -59 -1h-174l-50 -282h-68zM213 649l-54 -305l165 -1q55 0 90 5t69 20.5t54 48t29 83.5q4 23 4 41.5t-2.5 32.5t-9.5 25.5t-15.5 19t-22 13.5t-27 9
t-32.5 5t-36.5 2.5t-41.5 0.5h-170z" />
    <glyph glyph-name="S" unicode="S" horiz-adv-x="633" 
d="M547 174q-33 -194 -291 -191q-127 1 -186 58.5t-39 173.5l67 -2q-30 -168 164 -169q95 -1 151 34.5t67 101.5q7 38 -7.5 65.5t-43.5 42t-67 27.5t-78.5 21.5t-78 24.5t-65.5 36t-40.5 56.5t-3.5 85.5q16 89 85.5 138t192.5 48q137 -1 185.5 -55.5t30.5 -154.5l-66 1
q8 26 4 52.5t-16 47t-48 34t-93 14.5q-99 1 -149 -36.5t-60 -95.5q-7 -37 7.5 -64t43.5 -41.5t67 -27.5t78.5 -22t78 -25t65.5 -36t41 -56.5t4 -85.5z" />
    <glyph glyph-name="T" unicode="T" horiz-adv-x="488" 
d="M143 0l117 645h-231l11 63h531l-10 -63h-233l-117 -645h-68z" />
    <glyph glyph-name="U" unicode="U" horiz-adv-x="680" 
d="M604 345q-13 -74 -28 -125.5t-39.5 -99.5t-58.5 -76t-84.5 -44.5t-117.5 -16.5q-68 0 -114 17t-71 46t-33.5 77t-5 101t16.5 126l63 358h67l-63 -359q-32 -153 -2 -227.5t146 -74.5q117 0 172 72t84 233l63 356h69z" />
    <glyph glyph-name="V" unicode="V" horiz-adv-x="570" 
d="M42 708h74l111 -650l339 650h75l-384 -708h-80z" />
    <glyph glyph-name="W" unicode="W" horiz-adv-x="923" 
d="M507 633l-280 -633h-80l-88 708h73l66 -640l281 640h78l60 -642l287 642h75l-334 -708h-79z" />
    <glyph glyph-name="X" unicode="X" horiz-adv-x="618" 
d="M297 308l-268 -308h-82l315 357l-185 351h72l161 -310l270 310h81l-317 -357l185 -351h-73z" />
    <glyph glyph-name="Y" unicode="Y" horiz-adv-x="551" 
d="M176 0l42 237l-170 471h76l136 -413l275 413h81l-330 -473h-2l-41 -235h-67z" />
    <glyph glyph-name="Z" unicode="Z" horiz-adv-x="551" 
d="M-39 4l9 58l512 584h-388l9 58h473l-10 -58l-513 -584h414l-11 -58h-495z" />
    <glyph glyph-name="bracketleft" unicode="[" horiz-adv-x="508" 
d="M100 -197l168 957h210l-9 -53h-151l-149 -850h150l-9 -54h-210z" />
    <glyph glyph-name="backslash" unicode="\" horiz-adv-x="325" 
d="M273 -40h-60l-161 840h59z" />
    <glyph glyph-name="bracketright" unicode="]" horiz-adv-x="474" 
d="M214 -197h-210l9 54h150l149 850h-149l9 53h210z" />
    <glyph glyph-name="asciicircum" unicode="^" horiz-adv-x="407" 
d="M351 467h-49l-59 219l-136 -219h-53l175 271h43z" />
    <glyph glyph-name="underscore" unicode="_" horiz-adv-x="578" 
d="M80 0l10 51h407l-9 -51h-408z" />
    <glyph glyph-name="grave" unicode="`" horiz-adv-x="267" 
d="M175 634h-55l-60 136h66z" />
    <glyph glyph-name="a" unicode="a" horiz-adv-x="590" 
d="M407 1l3 67q-83 -79 -208 -79q-190 0 -161 168q16 92 79 129.5t173 37.5q89 0 152 -10q12 62 10 101t-29 56t-89 17q-88 0 -128 -35t-47 -81l-61 1q32 171 235 171q103 0 146.5 -35.5t39 -96.5t-17.5 -142q-1 -5 -1 -7l-23 -128l-13 -134h-60zM215 47q71 0 126 30.5
t75 69.5l20 114q-48 6 -128 6q-91 0 -139.5 -24.5t-58.5 -85.5q-20 -110 105 -110z" />
    <glyph glyph-name="b" unicode="b" horiz-adv-x="592" 
d="M25 0l34 140l109 612h66l-51 -288q74 80 192 80q108 0 146.5 -75t14.5 -209q-47 -269 -252 -269q-139 0 -176 92l-26 -83h-57zM358 484q-112 0 -189 -96l-43 -246q33 -90 149 -90q158 0 196 216t-113 216z" />
    <glyph glyph-name="c" unicode="c" horiz-adv-x="566" 
d="M490 172q-36 -183 -249 -183q-127 0 -168 71.5t-17 209.5q24 136 87 206t188 70q221 0 189 -202h-65q24 145 -126 145q-89 0 -138 -56t-69 -170q-19 -113 7.5 -165t114.5 -52q75 0 121.5 32t58.5 94h66z" />
    <glyph glyph-name="d" unicode="d" horiz-adv-x="595" 
d="M416 0l3 81q-64 -90 -200 -90q-212 0 -163 278q48 275 250 275q117 0 172 -86l52 294h66l-109 -612l-14 -140h-57zM235 52q119 0 189 95l43 245q-41 92 -149 92q-158 0 -198 -222q-37 -210 115 -210z" />
    <glyph glyph-name="e" unicode="e" horiz-adv-x="574" 
d="M496 159q-4 -19 -12 -38.5t-27 -44.5t-45.5 -43t-70 -31t-97.5 -13q-128 0 -170 71.5t-18 209.5q24 136 88.5 206t189.5 70t167.5 -69.5t15.5 -221.5h-397q-18 -108 11 -158t116 -50q85 0 129.5 36.5t51.5 76.5zM331 489q-80 0 -127 -43t-71 -132h325q8 93 -22.5 134
t-104.5 41z" />
    <glyph glyph-name="f" unicode="f" horiz-adv-x="301" 
d="M397 760l-12 -61h-36q-65 0 -95 -33.5t-42 -103.5l-6 -31h145l-10 -59h-145l-83 -472h-66l83 472h-73l11 59h73l8 45q7 43 18.5 73t32 57t55.5 40.5t84 13.5h58z" />
    <glyph glyph-name="g" unicode="g" horiz-adv-x="640" 
d="M495 -4q-6 -32 -10 -50t-13.5 -46.5t-20.5 -45t-31 -37t-45 -31.5t-62 -18.5t-82 -7.5q-63 0 -104.5 19.5t-56.5 47.5t-20.5 55.5t-1.5 47.5l3 19h70v-1q-2 -10 -3 -19.5t2.5 -32t13.5 -38.5t36 -29t65 -13q44 0 77 10.5t52.5 26.5t33.5 43t20 50t12 58l11 64
q-66 -77 -189 -77q-213 0 -164 278q48 275 250 275q53 0 94 -19.5t56.5 -37.5t25.5 -36l27 84h58l-33 -135zM267 52q118 0 187 93l44 250q-40 89 -148 89q-158 0 -198 -222q-37 -210 115 -210z" />
    <glyph glyph-name="h" unicode="h" horiz-adv-x="601" 
d="M43 0l133 752h66l-53 -297q78 88 206 88q92 0 126 -53t13 -175l-55 -315h-66l57 323q14 82 -7.5 120t-93.5 38q-114 0 -194 -108l-66 -373h-66z" />
    <glyph glyph-name="i" unicode="i" horiz-adv-x="239" 
d="M152 642l20 113h66l-19 -113h-67zM38 0l95 535h66l-95 -535h-66z" />
    <glyph glyph-name="j" unicode="j" horiz-adv-x="253" 
d="M158 642l20 113h66l-19 -113h-67zM119 41q-7 -40 -11 -60t-12.5 -48.5t-18 -42t-25 -30t-36.5 -24t-50 -12.5t-67 -5l7 63q35 0 59 7t38 16.5t24 33.5t15 44t12 62l87 490h66z" />
    <glyph glyph-name="k" unicode="k" horiz-adv-x="519" 
d="M38 0l134 752h64l-91 -512l298 295h80l-208 -202l139 -333h-74l-116 284l-134 -130l-27 -154h-65z" />
    <glyph glyph-name="l" unicode="l" horiz-adv-x="238" 
d="M38 0l134 752h66l-134 -752h-66z" />
    <glyph glyph-name="m" unicode="m" horiz-adv-x="935" 
d="M43 0l70 396l15 139h57l-4 -84q75 92 201 92q121 0 138 -102q29 39 81.5 70.5t130.5 31.5q90 0 123.5 -53t12.5 -175l-56 -315h-63l57 323q14 81 -7 119.5t-89 38.5q-105 0 -187 -102q-2 -33 -7 -64l-56 -315h-62l58 323q14 81 -7 119.5t-88 38.5q-105 0 -185 -103
l-67 -378h-66z" />
    <glyph glyph-name="n" unicode="n" horiz-adv-x="600" 
d="M43 0l70 396l15 139h57l-5 -90q77 98 214 98q93 0 126.5 -53t12.5 -177l-55 -313h-66l57 321q14 83 -7.5 121.5t-93.5 38.5q-113 0 -193 -107l-66 -374h-66z" />
    <glyph glyph-name="o" unicode="o" horiz-adv-x="582" 
d="M525 262q-24 -137 -87 -205t-192 -68q-131 0 -172.5 71t-16.5 210q24 138 87 207t192 69q90 0 138.5 -35t56.5 -98t-6 -151zM123 263q-20 -114 7 -165.5t119 -51.5q94 0 141.5 54t67.5 169q20 114 -6.5 167t-117.5 53q-94 0 -142 -55t-69 -171z" />
    <glyph glyph-name="p" unicode="p" horiz-adv-x="591" 
d="M-8 -240l113 640l13 135h58l-4 -82q15 18 35 35t67 36.5t100 19.5q108 0 146.5 -75t14.5 -209q-47 -269 -252 -269q-131 0 -171 81l-55 -312h-65zM357 484q-112 0 -190 -97l-43 -244q34 -91 150 -91q158 0 196 216t-113 216z" />
    <glyph glyph-name="q" unicode="q" horiz-adv-x="587" 
d="M355 -240l54 308q-64 -77 -190 -77q-212 0 -163 278q48 275 250 275q51 0 92 -19t57 -36.5t27 -36.5l28 83h58l-31 -116l-116 -659h-66zM234 52q120 0 189 94l43 247q-41 91 -149 91q-79 0 -128.5 -58t-68.5 -164q-37 -210 114 -210z" />
    <glyph glyph-name="r" unicode="r" horiz-adv-x="370" 
d="M43 0l68 384l17 151h58l-7 -102q10 17 25 33.5t40 36t63.5 31t83.5 11.5l-7 -62q-48 0 -88 -16.5t-65.5 -43.5t-39 -47t-23.5 -40l-59 -336h-66z" />
    <glyph glyph-name="s" unicode="s" horiz-adv-x="532" 
d="M460 136q-26 -150 -240 -147q-106 1 -156.5 48t-34.5 134l65 -2q-10 -58 22 -89t106 -32q156 -3 173 99q6 30 -10 50.5t-45.5 30.5t-66.5 17.5t-74 17.5t-66 24.5t-44 44t-8 71.5q11 68 69.5 106t161.5 37q102 -1 146.5 -45t30.5 -126l-65 1q9 53 -16.5 82.5t-99.5 30.5
q-78 1 -116.5 -26.5t-45.5 -70.5q-7 -38 26.5 -59t84.5 -30.5t101.5 -22.5t81.5 -48.5t20 -95.5z" />
    <glyph glyph-name="t" unicode="t" horiz-adv-x="307" 
d="M242 -2h-41q-45 0 -74.5 11t-44 28t-19 46.5t-2.5 56t9 67.5l47 269h-67l10 59h68l28 158l69 13l-30 -171h140l-11 -59h-140l-48 -273q-8 -45 -8.5 -76.5t19.5 -49t64 -17.5h43z" />
    <glyph glyph-name="u" unicode="u" horiz-adv-x="600" 
d="M421 0l5 102q-11 -16 -26.5 -32t-42 -35t-66 -31t-84.5 -12q-93 0 -127 53t-13 175l56 315h66l-57 -322q-14 -82 7.5 -120.5t92.5 -38.5q51 0 97 26t67 50t38 50l62 355h66l-68 -387l-16 -148h-57z" />
    <glyph glyph-name="v" unicode="v" horiz-adv-x="491" 
d="M47 535h73l83 -473l253 473h75l-303 -535h-71z" />
    <glyph glyph-name="w" unicode="w" horiz-adv-x="778" 
d="M420 464l-218 -464h-75l-76 535h70l53 -468l219 468h77l59 -469l214 469h73l-260 -535h-77z" />
    <glyph glyph-name="x" unicode="x" horiz-adv-x="525" 
d="M251 220l-194 -220h-81l243 269l-147 266h75l118 -223l197 223h81l-245 -271l144 -264h-75z" />
    <glyph glyph-name="y" unicode="y" horiz-adv-x="489" 
d="M62 -223l116 223h-25l-106 535h70l87 -485l252 485h73l-402 -758h-65z" />
    <glyph glyph-name="z" unicode="z" horiz-adv-x="464" 
d="M-15 4l5 26l5 34l386 408l-303 -1l11 60h380l-7 -36l-3 -23l-386 -408h313l-11 -60h-390z" />
    <glyph glyph-name="braceleft" unicode="{" horiz-adv-x="452" 
d="M222 607q9 50 19.5 76.5t34.5 46.5t62.5 26t105.5 6l-5 -52q-86 0 -115 -25.5t-42 -99.5l-41 -226q-4 -29 -20 -47.5t-28 -22.5t-15 -3l2 -1q2 -1 6 -3.5t9 -6.5t9.5 -10t7.5 -14.5t4 -20t-2 -26.5l-39 -227q-13 -72 5.5 -94.5t104.5 -22.5l-5 -52q-87 0 -126.5 14.5
t-48 50.5t4.5 97l42 238q6 31 -8 42t-68 11l4 48q54 0 73.5 13t25.5 45z" />
    <glyph glyph-name="bar" unicode="|" horiz-adv-x="344" 
d="M44 -180l177 1000h50l-177 -1000h-50z" />
    <glyph glyph-name="braceright" unicode="}" horiz-adv-x="461" 
d="M240 -38q-12 -66 -30 -96t-61 -44t-132 -14l5 52q85 0 115 25t43 99l40 226q5 30 20.5 48.5t27.5 22.5t15 3l-2 1q-2 1 -6 3.5t-9 6.5t-9.5 10t-7.5 14.5t-4 20t2 26.5l39 227q13 72 -5.5 94.5t-103.5 22.5l4 52q87 0 126.5 -14.5t48 -50.5t-4.5 -97l-42 -238
q-6 -31 8 -42t68 -11l-4 -48q-54 0 -74 -13t-26 -45z" />
    <glyph glyph-name="asciitilde" unicode="~" horiz-adv-x="518" 
d="M36 251q8 44 37.5 76t86.5 32q50 0 96.5 -27.5t79.5 -27.5q36 0 59 21t25 37l44 -5q-7 -44 -36.5 -76.5t-87.5 -32.5q-50 0 -96.5 27.5t-80.5 27.5q-35 0 -57.5 -20.5t-25.5 -37.5z" />
    <glyph glyph-name="exclamdown" unicode="&#xa1;" horiz-adv-x="259" 
d="M105 427l19 108h66l-19 -108h-66zM-1 -173l98 545h62l-94 -545h-66z" />
    <glyph glyph-name="cent" unicode="&#xa2;" horiz-adv-x="566" 
d="M189 -20l15 89q-105 10 -137.5 80t-10.5 199q22 127 79 196t166 77l16 89h62l-16 -88q186 -14 157 -200h-65q21 132 -102 143l-77 -440q127 14 148 125h66q-34 -172 -224 -183l-15 -87h-62zM122 341q-18 -103 2.5 -155t89.5 -61l77 439q-71 -12 -110.5 -67t-58.5 -156z
" />
    <glyph glyph-name="sterling" unicode="&#xa3;" horiz-adv-x="583" 
d="M216 262q0 -26 -7 -72q-17 -96 -91 -136l348 1l-10 -59h-456l10 56l-1 1h1v1h4q11 2 25.5 9t37 21.5t40.5 42.5t25 65q7 44 7 70h-106l9 55h96q-2 19 -6 49.5t-6 49.5t-1.5 48t5.5 58q15 86 77.5 136t159.5 50q102 0 148 -54t29 -148h-64q11 68 -20 105.5t-93 37.5
q-65 0 -111.5 -38.5t-58.5 -107.5q-5 -47 -5 -63t6 -59.5t7 -63.5h163l-10 -55h-152z" />
    <glyph glyph-name="currency" unicode="&#xa4;" horiz-adv-x="719" 
d="M585 484q28 -61 11 -165q-19 -100 -63 -156l61 -72l-46 -41l-60 71q-64 -45 -165 -45q-103 0 -155 47l-85 -73l-36 41l89 76q-27 59 -10 160q17 93 61 153l-60 73l46 41l58 -70q66 49 171 50q100 0 150 -45l85 72l35 -41zM192 320q-34 -186 132 -186q173 0 207 192
q33 190 -132 190q-173 0 -207 -196z" />
    <glyph glyph-name="yen" unicode="&#xa5;" horiz-adv-x="516" 
d="M159 0l34 192h-111l10 51h110l10 60h-110l9 51h91l-154 352h74l135 -335l245 335h79l-273 -352h87l-9 -51h-108l-10 -60h108l-9 -51h-108l-34 -192h-66z" />
    <glyph glyph-name="brokenbar" unicode="&#xa6;" horiz-adv-x="343" 
d="M145 395l75 425h50l-75 -425h-50zM168 245l-74 -425h-50l74 425h50z" />
    <glyph glyph-name="section" unicode="&#xa7;" horiz-adv-x="579" 
d="M506 366q-14 -80 -83 -119q51 -37 37 -113q-25 -147 -241 -147q-114 0 -159.5 42t-30.5 129h60q-11 -60 20 -91.5t110 -31.5q82 0 126 28t52 75t-25 71.5t-85 34t-103.5 21.5t-83 45.5t-21.5 92.5q15 81 87 122q-54 35 -40 110q23 141 227 141q113 0 154.5 -39.5
t27.5 -121.5h-60q10 54 -13.5 83.5t-107.5 29.5q-148 0 -166 -100q-7 -37 16.5 -59.5t62.5 -30t84.5 -18t83.5 -23t59 -46t12 -85.5zM142 395q-5 -29 6.5 -48t38 -29.5t54 -16.5t67 -13.5t63.5 -15.5q60 38 72 99q5 30 -6 50.5t-37.5 32t-52.5 18t-66 14.5t-63 15
q-63 -39 -76 -106z" />
    <glyph glyph-name="dieresis" unicode="&#xa8;" horiz-adv-x="384" 
d="M60 634l22 121h62l-21 -121h-63zM212 634l22 121h62l-21 -121h-63z" />
    <glyph glyph-name="copyright" unicode="&#xa9;" horiz-adv-x="813" 
d="M752 344q-13 -78 -40.5 -141t-74.5 -115t-121 -80.5t-170 -28.5q-77 0 -134.5 19.5t-90.5 54t-51.5 81.5t-18 102t8.5 116q13 78 41 142t75.5 116.5t121 82t168.5 29.5q78 0 136 -20t91 -55t51 -83t17.5 -103.5t-9.5 -116.5zM108 344q-53 -320 239 -320q83 0 148 26
t106 72.5t66 103t37 126.5q54 325 -239 325q-83 0 -147.5 -26.5t-106 -74t-66.5 -105t-37 -127.5zM547 281q-28 -144 -171 -144q-91 0 -122.5 54.5t-12.5 162.5q19 106 66 158t135 52q153 0 130 -149h-49q16 107 -81 107q-64 0 -101 -43.5t-52 -132.5q-15 -87 5 -127t82 -40
q101 0 123 102h48z" />
    <glyph glyph-name="ordfeminine" unicode="&#xaa;" horiz-adv-x="416" 
d="M290 361l1 42q-56 -51 -138 -51q-136 0 -115 120q11 64 55 89.5t121 25.5q58 0 102 -7q14 62 0.5 89.5t-70.5 27.5q-103 0 -119 -78l-47 2q24 119 164 119q71 0 101.5 -26t27 -70t-12.5 -102l-15 -87l-9 -94h-46zM161 396q49 0 86 22t49 49l13 71q-42 5 -83 5
q-64 0 -97 -16t-40 -56q-13 -75 72 -75z" />
    <glyph glyph-name="guillemotleft" unicode="&#xab;" horiz-adv-x="522" 
d="M153 107l-91 148l2 18l145 156h79l-159 -167l100 -155h-76zM305 107l-91 148l2 18l144 156h79l-158 -167l100 -155h-76z" />
    <glyph glyph-name="registered" unicode="&#xae;" horiz-adv-x="813" 
d="M752 344q-13 -78 -40.5 -141t-74.5 -115t-121 -80.5t-170 -28.5q-77 0 -134.5 19.5t-90.5 54t-51.5 81.5t-18 102t8.5 116q13 78 41 142t75.5 116.5t121 82t168.5 29.5q78 0 136 -20t91 -55t51 -83t17.5 -103.5t-9.5 -116.5zM108 344q-53 -320 239 -320q83 0 148 26
t106 72.5t66 103t37 126.5q54 325 -239 325q-83 0 -147.5 -26.5t-106 -74t-66.5 -105t-37 -127.5zM231 143l72 409h151q76 0 107 -28.5t18 -100.5q-10 -56 -36 -82.5t-73 -33.5l55 -164h-51l-50 161h-118l-28 -161h-47zM343 512l-30 -169h101q48 0 78 17t40 70
q8 51 -14 66.5t-70 15.5h-105z" />
    <glyph glyph-name="macron" unicode="&#xaf;" horiz-adv-x="385" 
d="M69 712h234l-9 -50h-234z" />
    <glyph glyph-name="degree" unicode="&#xb0;" horiz-adv-x="268" 
d="M259 609q-17 -103 -112 -103q-103 0 -84 112q19 105 113 105q104 0 83 -114zM105 610q-13 -66 41 -66q59 0 72 73q11 68 -41 68q-59 0 -72 -75z" />
    <glyph glyph-name="plusminus" unicode="&#xb1;" horiz-adv-x="553" 
d="M229 208l21 122h-157l11 62h157l21 119h61l-21 -119h157l-11 -62h-157l-21 -122h-61zM54 105l10 62h375l-10 -62h-375z" />
    <glyph glyph-name="uni00B2" unicode="&#xb2;" horiz-adv-x="414" 
d="M48 335l9 47q78 63 162 129q56 43 83 67t52 60.5t32 76.5q7 41 -14.5 65.5t-72.5 24.5t-88 -28.5t-45 -73.5h-55q12 68 61.5 110.5t126.5 42.5q86 0 120.5 -41t23.5 -104q-7 -37 -20.5 -67t-39.5 -59.5t-46 -48t-63 -54.5l-127 -99l240 3l-10 -51h-329z" />
    <glyph glyph-name="uni00B3" unicode="&#xb3;" horiz-adv-x="428" 
d="M287 654q79 -7 111.5 -51.5t19.5 -120.5q-30 -161 -204 -161q-89 0 -126 42.5t-26 106.5h56q-8 -42 17 -69t79 -27q125 0 146 120q10 55 -17.5 85.5t-86.5 30.5l-65 -6l6 41l181 135l-237 -1l10 52h317l-9 -50z" />
    <glyph glyph-name="acute" unicode="&#xb4;" horiz-adv-x="319" 
d="M67 634l96 136h69l-109 -136h-56z" />
    <glyph glyph-name="paragraph" unicode="&#xb6;" horiz-adv-x="545" 
d="M200 0l54 310q-138 2 -185 51t-24 178q23 128 86 174.5t203 46.5h196l-134 -760h-51l124 707h-95l-124 -707h-50zM106 532q-5 -31 -5.5 -54.5t3.5 -41.5t14 -30.5t23 -20.5t32.5 -12.5t40.5 -6.5t50 -2l60 343q-100 -2 -150 -37t-68 -138z" />
    <glyph glyph-name="periodcentered" unicode="&#xb7;" horiz-adv-x="220" 
d="M53 236l21 122h69l-21 -122h-69z" />
    <glyph glyph-name="cedilla" unicode="&#xb8;" horiz-adv-x="333" 
d="M253 -136q-8 -45 -38 -62t-93 -17q-17 0 -32.5 1.5t-22.5 3.5l-7 2l5 40q15 -4 41 -4q40 0 59.5 11t24.5 39q4 24 -15.5 33t-59.5 9h-8l52 83h64l-38 -59q80 -11 68 -80z" />
    <glyph glyph-name="uni00B9" unicode="&#xb9;" horiz-adv-x="257" 
d="M125 330l78 441l-102 -45l9 61l122 52h38l-90 -509h-55z" />
    <glyph glyph-name="ordmasculine" unicode="&#xba;" horiz-adv-x="403" 
d="M364 542q-17 -95 -60 -142t-133 -47q-92 0 -121 50t-11 148q17 96 60.5 143.5t132.5 47.5q92 0 121 -51t11 -149zM89 545q-14 -77 4 -112.5t80 -35.5t94.5 36.5t46.5 114.5q13 77 -4.5 113.5t-79.5 36.5q-61 0 -94 -37.5t-47 -115.5z" />
    <glyph glyph-name="guillemotright" unicode="&#xbb;" horiz-adv-x="515" 
d="M150 107h-80l156 159l-96 163h75l90 -156l-2 -18zM302 107h-80l155 159l-95 163h74l90 -156l-1 -18z" />
    <glyph glyph-name="onequarter" unicode="&#xbc;" horiz-adv-x="903" 
d="M33 -40l674 827h65l-675 -827h-64zM67 253l78 441l-102 -45l9 61l122 52h38l-90 -509h-55zM713 0l19 110h-260l8 50l292 347h85l-62 -347h62l-10 -50h-61l-19 -110h-54zM741 160l55 307l-249 -307h194z" />
    <glyph glyph-name="onehalf" unicode="&#xbd;" horiz-adv-x="961" 
d="M33 -40l674 827h65l-675 -827h-64zM67 253l78 441l-102 -45l9 61l122 52h38l-90 -509h-55zM537 5l9 47q78 63 162 129q56 43 83 67t52 60.5t32 76.5q7 41 -14.5 65.5t-72.5 24.5t-88 -28.5t-45 -73.5h-55q12 68 61.5 110.5t126.5 42.5q86 0 120.5 -41t23.5 -104
q-7 -37 -20.5 -67t-39.5 -59.5t-46 -48t-63 -54.5l-127 -99l240 3l-10 -51h-329z" />
    <glyph glyph-name="threequarters" unicode="&#xbe;" horiz-adv-x="1060" 
d="M190 -40l674 827h65l-675 -827h-64zM229 577q79 -7 111.5 -51.5t19.5 -120.5q-30 -161 -204 -161q-89 0 -126 42.5t-26 106.5h56q-8 -42 17 -69t79 -27q125 0 146 120q10 55 -17.5 85.5t-86.5 30.5l-65 -6l6 41l181 135l-237 -1l10 52h317l-9 -50zM870 0l19 110h-260
l8 50l292 347h85l-62 -347h62l-10 -50h-61l-19 -110h-54zM898 160l55 307l-249 -307h194z" />
    <glyph glyph-name="questiondown" unicode="&#xbf;" horiz-adv-x="459" 
d="M292 535l-19 -104h-66l19 104h66zM197 377h66l-8 -43q-9 -52 -32 -88t-50.5 -56.5t-55 -40.5t-50 -52.5t-31.5 -79.5q-23 -137 103 -137q135 0 162 150h63q-36 -209 -227 -209q-104 0 -145 53.5t-24 147.5q8 44 26 77t39 51.5t46 38t46 36t39 46t26 68.5z" />
    <glyph glyph-name="Agrave" unicode="&#xc0;" horiz-adv-x="634" 
d="M420 765h-59l-65 113h72zM-58 0l401 708h72l151 -708h-73l-36 184h-340l-100 -184h-75zM152 248h293l-77 395z" />
    <glyph glyph-name="Aacute" unicode="&#xc1;" horiz-adv-x="634" 
d="M357 764l93 114h74l-104 -114h-63zM-58 0l401 708h72l151 -708h-73l-36 184h-340l-100 -184h-75zM152 248h293l-77 395z" />
    <glyph glyph-name="Acircumflex" unicode="&#xc2;" horiz-adv-x="634" 
d="M530 764h-68l-58 70l-81 -70h-72l123 112h70zM-58 0l401 708h72l151 -708h-73l-36 184h-340l-100 -184h-75zM152 248h293l-77 395z" />
    <glyph glyph-name="Atilde" unicode="&#xc3;" horiz-adv-x="634" 
d="M544 861q-4 -20 -8.5 -33.5t-14.5 -30t-27.5 -25t-42.5 -8.5q-37 0 -57.5 23t-40.5 23q-16 0 -28 -10t-16.5 -19.5t-6.5 -19.5l-48 5q16 97 93 97q23 0 38 -7t20.5 -16t15.5 -16t24 -7q24 0 36.5 16.5t14.5 33.5zM-58 0l401 708h72l151 -708h-73l-36 184h-340l-100 -184
h-75zM152 248h293l-77 395z" />
    <glyph glyph-name="Adieresis" unicode="&#xc4;" horiz-adv-x="634" 
d="M279 764l22 122h67l-22 -122h-67zM434 764l22 122h67l-23 -122h-66zM-58 0l401 708h72l151 -708h-73l-36 184h-340l-100 -184h-75zM152 248h293l-77 395z" />
    <glyph glyph-name="Aring" unicode="&#xc5;" horiz-adv-x="634" 
d="M490 836q-6 -36 -32 -57.5t-65 -21.5q-42 0 -63 24t-13 63q6 37 31.5 58t65.5 21q42 0 63 -24t13 -63zM364 837q-6 -37 29 -37q19 0 32.5 12t17.5 31q6 37 -29 37q-19 0 -33 -12t-17 -31zM-58 0l401 708h72l151 -708h-73l-36 184h-340l-100 -184h-75zM152 248h293
l-77 395z" />
    <glyph glyph-name="AE" unicode="&#xc6;" horiz-adv-x="913" 
d="M-58 0l509 708h483l-11 -63h-377l-44 -246h328l-11 -61h-328l-48 -275h382l-11 -63h-450l34 192h-242l-136 -192h-78zM408 251l70 393l-280 -393h210z" />
    <glyph glyph-name="Ccedilla" unicode="&#xc7;" horiz-adv-x="672" 
d="M361 -144q-8 -45 -38 -62t-93 -17q-17 0 -32.5 1.5t-22.5 3.5l-7 2l5 40q15 -4 41 -4q40 0 59.5 11t24.5 39q4 24 -15.5 33t-59.5 9h-8l45 72q-139 9 -183 102t-13 271q33 185 113.5 276.5t235.5 91.5q262 0 221 -256l-66 2q13 97 -26 144t-132 47q-118 0 -184 -76
t-94 -234t8.5 -232t153.5 -74q186 0 229 184l66 -1q-48 -230 -265 -245l-31 -48q80 -11 68 -80z" />
    <glyph glyph-name="Egrave" unicode="&#xc8;" horiz-adv-x="580" 
d="M417 765h-59l-65 113h72zM30 0l125 708h446l-11 -63h-378l-44 -246h328l-10 -61h-329l-48 -275h383l-12 -63h-450z" />
    <glyph glyph-name="Eacute" unicode="&#xc9;" horiz-adv-x="580" 
d="M354 764l93 114h74l-104 -114h-63zM30 0l125 708h446l-11 -63h-378l-44 -246h328l-10 -61h-329l-48 -275h383l-12 -63h-450z" />
    <glyph glyph-name="Ecircumflex" unicode="&#xca;" horiz-adv-x="580" 
d="M527 764h-68l-58 70l-81 -70h-72l123 112h70zM30 0l125 708h446l-11 -63h-378l-44 -246h328l-10 -61h-329l-48 -275h383l-12 -63h-450z" />
    <glyph glyph-name="Edieresis" unicode="&#xcb;" horiz-adv-x="580" 
d="M276 764l22 122h67l-22 -122h-67zM431 764l22 122h67l-23 -122h-66zM30 0l125 708h446l-11 -63h-378l-44 -246h328l-10 -61h-329l-48 -275h383l-12 -63h-450z" />
    <glyph glyph-name="Igrave" unicode="&#xcc;" horiz-adv-x="255" 
d="M231 765h-59l-65 113h72zM30 0l125 708h68l-125 -708h-68z" />
    <glyph glyph-name="Iacute" unicode="&#xcd;" horiz-adv-x="255" 
d="M168 764l93 114h74l-104 -114h-63zM30 0l125 708h68l-125 -708h-68z" />
    <glyph glyph-name="Icircumflex" unicode="&#xce;" horiz-adv-x="255" 
d="M341 764h-68l-58 70l-81 -70h-72l123 112h70zM30 0l125 708h68l-125 -708h-68z" />
    <glyph glyph-name="Idieresis" unicode="&#xcf;" horiz-adv-x="255" 
d="M90 764l22 122h67l-22 -122h-67zM245 764l22 122h67l-23 -122h-66zM30 0l125 708h68l-125 -708h-68z" />
    <glyph glyph-name="Eth" unicode="&#xd0;" horiz-adv-x="697" 
d="M30 -3l58 332h-73l9 51h73l59 331h215q131 0 196 -40.5t75 -120.5t-11 -201q-17 -95 -40 -156t-65.5 -108t-110 -67.5t-166.5 -20.5h-219zM156 329l-47 -271h157q138 -1 203 67t94 233q28 162 -11.5 226.5t-176.5 64.5h-162l-48 -269h129l-8 -51h-130z" />
    <glyph glyph-name="Ntilde" unicode="&#xd1;" horiz-adv-x="733" 
d="M594 861q-4 -20 -8.5 -33.5t-14.5 -30t-27.5 -25t-42.5 -8.5q-37 0 -57.5 23t-40.5 23q-16 0 -28 -10t-16.5 -19.5t-6.5 -19.5l-48 5q16 97 93 97q23 0 38 -7t20.5 -16t15.5 -16t24 -7q24 0 36.5 16.5t14.5 33.5zM203 621l-109 -621h-64l129 708h72l299 -617l106 617h65
l-125 -708h-70z" />
    <glyph glyph-name="Ograve" unicode="&#xd2;" horiz-adv-x="711" 
d="M456 767h-59l-65 113h72zM647 349q-33 -185 -114 -275.5t-238 -90.5q-161 0 -212.5 93.5t-18.5 280.5q33 186 114.5 277t238.5 91q160 0 211.5 -94t18.5 -282zM132 352q-29 -159 8.5 -232.5t157.5 -73.5q121 0 187 75t94 234q29 159 -8.5 233t-156.5 74
q-121 0 -187.5 -76t-94.5 -234z" />
    <glyph glyph-name="Oacute" unicode="&#xd3;" horiz-adv-x="711" 
d="M393 766l93 114h74l-104 -114h-63zM647 349q-33 -185 -114 -275.5t-238 -90.5q-161 0 -212.5 93.5t-18.5 280.5q33 186 114.5 277t238.5 91q160 0 211.5 -94t18.5 -282zM132 352q-29 -159 8.5 -232.5t157.5 -73.5q121 0 187 75t94 234q29 159 -8.5 233t-156.5 74
q-121 0 -187.5 -76t-94.5 -234z" />
    <glyph glyph-name="Ocircumflex" unicode="&#xd4;" horiz-adv-x="711" 
d="M566 766h-68l-58 70l-81 -70h-72l123 112h70zM647 349q-33 -185 -114 -275.5t-238 -90.5q-161 0 -212.5 93.5t-18.5 280.5q33 186 114.5 277t238.5 91q160 0 211.5 -94t18.5 -282zM132 352q-29 -159 8.5 -232.5t157.5 -73.5q121 0 187 75t94 234q29 159 -8.5 233
t-156.5 74q-121 0 -187.5 -76t-94.5 -234z" />
    <glyph glyph-name="Otilde" unicode="&#xd5;" horiz-adv-x="711" 
d="M580 863q-4 -20 -8.5 -33.5t-14.5 -30t-27.5 -25t-42.5 -8.5q-37 0 -57.5 23t-40.5 23q-16 0 -28 -10t-16.5 -19.5t-6.5 -19.5l-48 5q16 97 93 97q23 0 38 -7t20.5 -16t15.5 -16t24 -7q24 0 36.5 16.5t14.5 33.5zM647 349q-33 -185 -114 -275.5t-238 -90.5
q-161 0 -212.5 93.5t-18.5 280.5q33 186 114.5 277t238.5 91q160 0 211.5 -94t18.5 -282zM132 352q-29 -159 8.5 -232.5t157.5 -73.5q121 0 187 75t94 234q29 159 -8.5 233t-156.5 74q-121 0 -187.5 -76t-94.5 -234z" />
    <glyph glyph-name="Odieresis" unicode="&#xd6;" horiz-adv-x="711" 
d="M315 766l22 122h67l-22 -122h-67zM470 766l22 122h67l-23 -122h-66zM647 349q-33 -185 -114 -275.5t-238 -90.5q-161 0 -212.5 93.5t-18.5 280.5q33 186 114.5 277t238.5 91q160 0 211.5 -94t18.5 -282zM132 352q-29 -159 8.5 -232.5t157.5 -73.5q121 0 187 75t94 234
q29 159 -8.5 233t-156.5 74q-121 0 -187.5 -76t-94.5 -234z" />
    <glyph glyph-name="multiply" unicode="&#xd7;" horiz-adv-x="520" 
d="M354 126l-109 137l-155 -137l-36 41l157 138l-108 137l46 39l108 -136l155 137l37 -40l-158 -139l109 -137z" />
    <glyph glyph-name="Oslash" unicode="&#xd8;" horiz-adv-x="711" 
d="M-6 -7l82 95q-43 89 -12 269q33 186 114.5 277t238.5 91q106 0 167 -45l34 39h93l-80 -93q49 -90 16 -277q-33 -185 -114 -275.5t-238 -90.5q-114 0 -174 48l-33 -38h-94zM132 352q-24 -131 -4 -202l411 477q-44 35 -125 35q-121 0 -187.5 -76t-94.5 -234zM579 355
q24 138 0 211l-412 -481q43 -39 131 -39q121 0 187 75t94 234z" />
    <glyph glyph-name="Ugrave" unicode="&#xd9;" horiz-adv-x="680" 
d="M432 765h-59l-65 113h72zM604 345q-13 -74 -28 -125.5t-39.5 -99.5t-58.5 -76t-84.5 -44.5t-117.5 -16.5q-68 0 -114 17t-71 46t-33.5 77t-5 101t16.5 126l63 358h67l-63 -359q-32 -153 -2 -227.5t146 -74.5q117 0 172 72t84 233l63 356h69z" />
    <glyph glyph-name="Uacute" unicode="&#xda;" horiz-adv-x="680" 
d="M369 764l93 114h74l-104 -114h-63zM604 345q-13 -74 -28 -125.5t-39.5 -99.5t-58.5 -76t-84.5 -44.5t-117.5 -16.5q-68 0 -114 17t-71 46t-33.5 77t-5 101t16.5 126l63 358h67l-63 -359q-32 -153 -2 -227.5t146 -74.5q117 0 172 72t84 233l63 356h69z" />
    <glyph glyph-name="Ucircumflex" unicode="&#xdb;" horiz-adv-x="680" 
d="M542 764h-68l-58 70l-81 -70h-72l123 112h70zM604 345q-13 -74 -28 -125.5t-39.5 -99.5t-58.5 -76t-84.5 -44.5t-117.5 -16.5q-68 0 -114 17t-71 46t-33.5 77t-5 101t16.5 126l63 358h67l-63 -359q-32 -153 -2 -227.5t146 -74.5q117 0 172 72t84 233l63 356h69z" />
    <glyph glyph-name="Udieresis" unicode="&#xdc;" horiz-adv-x="680" 
d="M291 764l22 122h67l-22 -122h-67zM446 764l22 122h67l-23 -122h-66zM604 345q-13 -74 -28 -125.5t-39.5 -99.5t-58.5 -76t-84.5 -44.5t-117.5 -16.5q-68 0 -114 17t-71 46t-33.5 77t-5 101t16.5 126l63 358h67l-63 -359q-32 -153 -2 -227.5t146 -74.5q117 0 172 72
t84 233l63 356h69z" />
    <glyph glyph-name="Yacute" unicode="&#xdd;" horiz-adv-x="551" 
d="M306 764l93 114h74l-104 -114h-63zM176 0l42 237l-170 471h76l136 -413l275 413h81l-330 -473h-2l-41 -235h-67z" />
    <glyph glyph-name="Thorn" unicode="&#xde;" horiz-adv-x="625" 
d="M30 0l125 708h70l-23 -126h177q136 0 189.5 -50t29.5 -181q-22 -128 -90 -174.5t-206 -46.5h-180l-23 -130h-69zM191 521l-58 -330l179 -1q44 0 76 6t63 23t51.5 52t30.5 89q8 31 5 54.5t-7 40.5t-16.5 29t-25 19t-33 11t-38.5 5.5t-43 1.5h-184z" />
    <glyph glyph-name="germandbls" unicode="&#xdf;" horiz-adv-x="551" 
d="M540 560q-9 -51 -35 -87t-57 -50.5t-52 -20t-34 -5.5q116 -8 137 -104q9 -39 0 -91q-20 -112 -93.5 -157t-249.5 -45l9 57q135 0 194 34.5t75 122.5q1 20 3.5 37t-3.5 30.5t-9.5 24t-15.5 19t-20.5 14t-24.5 10t-28.5 7t-31.5 4.5t-34 2.5t-36 1.5l10 61q90 0 152.5 31.5
t75.5 101.5q13 72 -12.5 108.5t-100.5 36.5q-76 -1 -115 -39.5t-52 -110.5l-98 -553h-66l98 552q8 48 23 83.5t42 64.5t71 44.5t104 15.5q210 -1 174 -200z" />
    <glyph glyph-name="agrave" unicode="&#xe0;" horiz-adv-x="590" 
d="M381 634h-55l-60 136h66zM407 1l3 67q-83 -79 -208 -79q-190 0 -161 168q16 92 79 129.5t173 37.5q89 0 152 -10q12 62 10 101t-29 56t-89 17q-88 0 -128 -35t-47 -81l-61 1q32 171 235 171q103 0 146.5 -35.5t39 -96.5t-17.5 -142q-1 -5 -1 -7l-23 -128l-13 -134h-60z
M215 47q71 0 126 30.5t75 69.5l20 114q-48 6 -128 6q-91 0 -139.5 -24.5t-58.5 -85.5q-20 -110 105 -110z" />
    <glyph glyph-name="aacute" unicode="&#xe1;" horiz-adv-x="590" 
d="M324 634l96 136h69l-109 -136h-56zM407 1l3 67q-83 -79 -208 -79q-190 0 -161 168q16 92 79 129.5t173 37.5q89 0 152 -10q12 62 10 101t-29 56t-89 17q-88 0 -128 -35t-47 -81l-61 1q32 171 235 171q103 0 146.5 -35.5t39 -96.5t-17.5 -142q-1 -5 -1 -7l-23 -128
l-13 -134h-60zM215 47q71 0 126 30.5t75 69.5l20 114q-48 6 -128 6q-91 0 -139.5 -24.5t-58.5 -85.5q-20 -110 105 -110z" />
    <glyph glyph-name="acircumflex" unicode="&#xe2;" horiz-adv-x="590" 
d="M496 634h-65l-57 87l-87 -87h-68l129 134h64zM407 1l3 67q-83 -79 -208 -79q-190 0 -161 168q16 92 79 129.5t173 37.5q89 0 152 -10q12 62 10 101t-29 56t-89 17q-88 0 -128 -35t-47 -81l-61 1q32 171 235 171q103 0 146.5 -35.5t39 -96.5t-17.5 -142q-1 -5 -1 -7
l-23 -128l-13 -134h-60zM215 47q71 0 126 30.5t75 69.5l20 114q-48 6 -128 6q-91 0 -139.5 -24.5t-58.5 -85.5q-20 -110 105 -110z" />
    <glyph glyph-name="atilde" unicode="&#xe3;" horiz-adv-x="590" 
d="M513 732q-18 -98 -92 -98q-22 0 -38 7.5t-22.5 17t-17.5 17t-24 7.5q-22 0 -34 -16.5t-16 -33.5l-47 5q5 27 12 45t27.5 35t52.5 17q28 0 44.5 -12t28 -24t27.5 -12q23 0 35 16.5t16 33.5zM407 1l3 67q-83 -79 -208 -79q-190 0 -161 168q16 92 79 129.5t173 37.5
q89 0 152 -10q12 62 10 101t-29 56t-89 17q-88 0 -128 -35t-47 -81l-61 1q32 171 235 171q103 0 146.5 -35.5t39 -96.5t-17.5 -142q-1 -5 -1 -7l-23 -128l-13 -134h-60zM215 47q71 0 126 30.5t75 69.5l20 114q-48 6 -128 6q-91 0 -139.5 -24.5t-58.5 -85.5
q-20 -110 105 -110z" />
    <glyph glyph-name="adieresis" unicode="&#xe4;" horiz-adv-x="590" 
d="M250 634l22 121h62l-21 -121h-63zM402 634l22 121h62l-21 -121h-63zM407 1l3 67q-83 -79 -208 -79q-190 0 -161 168q16 92 79 129.5t173 37.5q89 0 152 -10q12 62 10 101t-29 56t-89 17q-88 0 -128 -35t-47 -81l-61 1q32 171 235 171q103 0 146.5 -35.5t39 -96.5
t-17.5 -142q-1 -5 -1 -7l-23 -128l-13 -134h-60zM215 47q71 0 126 30.5t75 69.5l20 114q-48 6 -128 6q-91 0 -139.5 -24.5t-58.5 -85.5q-20 -110 105 -110z" />
    <glyph glyph-name="aring" unicode="&#xe5;" horiz-adv-x="590" 
d="M458 703q-6 -36 -31.5 -57t-65.5 -21q-42 0 -63 24t-13 63q6 36 31.5 57t65.5 21q42 0 62.5 -24t13.5 -63zM331 704q-2 -17 6 -26.5t24 -9.5q19 0 32.5 11.5t17.5 31.5q6 36 -30 36q-19 0 -32.5 -12t-17.5 -31zM407 1l3 67q-83 -79 -208 -79q-190 0 -161 168
q16 92 79 129.5t173 37.5q89 0 152 -10q12 62 10 101t-29 56t-89 17q-88 0 -128 -35t-47 -81l-61 1q32 171 235 171q103 0 146.5 -35.5t39 -96.5t-17.5 -142q-1 -5 -1 -7l-23 -128l-13 -134h-60zM215 47q71 0 126 30.5t75 69.5l20 114q-48 6 -128 6q-91 0 -139.5 -24.5
t-58.5 -85.5q-20 -110 105 -110z" />
    <glyph glyph-name="ae" unicode="&#xe6;" horiz-adv-x="939" 
d="M861 158q-5 -25 -18 -50t-40 -54t-77 -47t-117 -18q-144 0 -182 96q-84 -96 -225 -96q-190 0 -161 168q16 92 78 126.5t173 34.5h139q8 35 23 69q2 55 -24.5 78t-92.5 23q-88 0 -128 -35t-47 -81l-61 1q32 171 235 171q138 0 165 -78q69 80 198 80q125 0 167.5 -69.5
t15.5 -221.5h-397q-18 -108 11.5 -158t115.5 -50q85 0 129.5 36t51.5 75h68zM696 489q-80 0 -127 -43t-71 -132h326q8 93 -23 134t-105 41zM413 151q-4 46 7 111q-24 -1 -114 -1q-93 0 -139.5 -22t-56.5 -82q-20 -110 105 -110q73 0 126.5 32t71.5 72z" />
    <glyph glyph-name="ccedilla" unicode="&#xe7;" horiz-adv-x="566" 
d="M315 -138q-8 -45 -38 -62t-93 -17q-17 0 -32.5 1.5t-22.5 3.5l-7 2l5 40q15 -4 41 -4q40 0 59.5 11t24.5 39q4 24 -15.5 33t-59.5 9h-8l45 72q-111 7 -146 78t-12 202q24 136 87 206t188 70q221 0 189 -202h-65q24 145 -126 145q-89 0 -138 -56t-69 -170
q-19 -113 7.5 -165t114.5 -52q75 0 121.5 32t58.5 94h66q-33 -167 -212 -181l-31 -49q80 -11 68 -80z" />
    <glyph glyph-name="egrave" unicode="&#xe8;" horiz-adv-x="574" 
d="M377 634h-55l-60 136h66zM496 159q-4 -19 -12 -38.5t-27 -44.5t-45.5 -43t-70 -31t-97.5 -13q-128 0 -170 71.5t-18 209.5q24 136 88.5 206t189.5 70t167.5 -69.5t15.5 -221.5h-397q-18 -108 11 -158t116 -50q85 0 129.5 36.5t51.5 76.5zM331 489q-80 0 -127 -43
t-71 -132h325q8 93 -22.5 134t-104.5 41z" />
    <glyph glyph-name="eacute" unicode="&#xe9;" horiz-adv-x="574" 
d="M320 634l96 136h69l-109 -136h-56zM496 159q-4 -19 -12 -38.5t-27 -44.5t-45.5 -43t-70 -31t-97.5 -13q-128 0 -170 71.5t-18 209.5q24 136 88.5 206t189.5 70t167.5 -69.5t15.5 -221.5h-397q-18 -108 11 -158t116 -50q85 0 129.5 36.5t51.5 76.5zM331 489
q-80 0 -127 -43t-71 -132h325q8 93 -22.5 134t-104.5 41z" />
    <glyph glyph-name="ecircumflex" unicode="&#xea;" horiz-adv-x="574" 
d="M492 634h-65l-57 87l-87 -87h-68l129 134h64zM496 159q-4 -19 -12 -38.5t-27 -44.5t-45.5 -43t-70 -31t-97.5 -13q-128 0 -170 71.5t-18 209.5q24 136 88.5 206t189.5 70t167.5 -69.5t15.5 -221.5h-397q-18 -108 11 -158t116 -50q85 0 129.5 36.5t51.5 76.5zM331 489
q-80 0 -127 -43t-71 -132h325q8 93 -22.5 134t-104.5 41z" />
    <glyph glyph-name="edieresis" unicode="&#xeb;" horiz-adv-x="574" 
d="M246 634l22 121h62l-21 -121h-63zM398 634l22 121h62l-21 -121h-63zM496 159q-4 -19 -12 -38.5t-27 -44.5t-45.5 -43t-70 -31t-97.5 -13q-128 0 -170 71.5t-18 209.5q24 136 88.5 206t189.5 70t167.5 -69.5t15.5 -221.5h-397q-18 -108 11 -158t116 -50q85 0 129.5 36.5
t51.5 76.5zM331 489q-80 0 -127 -43t-71 -132h325q8 93 -22.5 134t-104.5 41z" />
    <glyph glyph-name="igrave" unicode="&#xec;" horiz-adv-x="239" 
d="M206 634h-55l-60 136h66zM38 0l95 535h66l-95 -535h-66z" />
    <glyph glyph-name="iacute" unicode="&#xed;" horiz-adv-x="239" 
d="M149 634l96 136h69l-109 -136h-56zM38 0l95 535h66l-95 -535h-66z" />
    <glyph glyph-name="icircumflex" unicode="&#xee;" horiz-adv-x="239" 
d="M321 634h-65l-57 87l-87 -87h-68l129 134h64zM38 0l95 535h66l-95 -535h-66z" />
    <glyph glyph-name="idieresis" unicode="&#xef;" horiz-adv-x="239" 
d="M75 634l22 121h62l-21 -121h-63zM227 634l22 121h62l-21 -121h-63zM38 0l95 535h66l-95 -535h-66z" />
    <glyph glyph-name="eth" unicode="&#xf0;" horiz-adv-x="589" 
d="M465 658q95 -195 61 -395q-23 -138 -86.5 -206t-193.5 -68q-90 0 -138.5 34t-56.5 96.5t6 150.5q23 135 86 203.5t192 68.5q73 0 117 -46q-15 68 -46 134l-102 -48l-25 44l104 49q-14 24 -28.5 46t-22.5 31l-7 10l79 -2q16 -21 37 -57l90 42l27 -43zM458 266q9 56 9 107
q-9 47 -42 82t-91 35q-93 0 -141.5 -55.5t-69.5 -172.5q-20 -113 7.5 -164.5t118.5 -51.5q94 0 141.5 53t67.5 167z" />
    <glyph glyph-name="ntilde" unicode="&#xf1;" horiz-adv-x="600" 
d="M528 732q-18 -98 -92 -98q-22 0 -38 7.5t-22.5 17t-17.5 17t-24 7.5q-22 0 -34 -16.5t-16 -33.5l-47 5q5 27 12 45t27.5 35t52.5 17q28 0 44.5 -12t28 -24t27.5 -12q23 0 35 16.5t16 33.5zM43 0l70 396l15 139h57l-5 -90q77 98 214 98q93 0 126.5 -53t12.5 -177l-55 -313
h-66l57 321q14 83 -7.5 121.5t-93.5 38.5q-113 0 -193 -107l-66 -374h-66z" />
    <glyph glyph-name="ograve" unicode="&#xf2;" horiz-adv-x="582" 
d="M377 627h-55l-60 136h66zM525 262q-24 -137 -87 -205t-192 -68q-131 0 -172.5 71t-16.5 210q24 138 87 207t192 69q90 0 138.5 -35t56.5 -98t-6 -151zM123 263q-20 -114 7 -165.5t119 -51.5q94 0 141.5 54t67.5 169q20 114 -6.5 167t-117.5 53q-94 0 -142 -55t-69 -171z
" />
    <glyph glyph-name="oacute" unicode="&#xf3;" horiz-adv-x="582" 
d="M320 627l96 136h69l-109 -136h-56zM525 262q-24 -137 -87 -205t-192 -68q-131 0 -172.5 71t-16.5 210q24 138 87 207t192 69q90 0 138.5 -35t56.5 -98t-6 -151zM123 263q-20 -114 7 -165.5t119 -51.5q94 0 141.5 54t67.5 169q20 114 -6.5 167t-117.5 53q-94 0 -142 -55
t-69 -171z" />
    <glyph glyph-name="ocircumflex" unicode="&#xf4;" horiz-adv-x="582" 
d="M492 627h-65l-57 87l-87 -87h-68l129 134h64zM525 262q-24 -137 -87 -205t-192 -68q-131 0 -172.5 71t-16.5 210q24 138 87 207t192 69q90 0 138.5 -35t56.5 -98t-6 -151zM123 263q-20 -114 7 -165.5t119 -51.5q94 0 141.5 54t67.5 169q20 114 -6.5 167t-117.5 53
q-94 0 -142 -55t-69 -171z" />
    <glyph glyph-name="otilde" unicode="&#xf5;" horiz-adv-x="582" 
d="M509 725q-18 -98 -92 -98q-28 0 -45 12.5t-29 24.5t-28 12q-22 0 -34 -16.5t-16 -33.5l-47 5q5 27 12 45t27.5 35t52.5 17q28 0 44.5 -12t28 -24t27.5 -12q23 0 35 16.5t16 33.5zM525 262q-24 -137 -87 -205t-192 -68q-131 0 -172.5 71t-16.5 210q24 138 87 207t192 69
q90 0 138.5 -35t56.5 -98t-6 -151zM123 263q-20 -114 7 -165.5t119 -51.5q94 0 141.5 54t67.5 169q20 114 -6.5 167t-117.5 53q-94 0 -142 -55t-69 -171z" />
    <glyph glyph-name="odieresis" unicode="&#xf6;" horiz-adv-x="582" 
d="M246 627l22 121h62l-21 -121h-63zM398 627l22 121h62l-21 -121h-63zM525 262q-24 -137 -87 -205t-192 -68q-131 0 -172.5 71t-16.5 210q24 138 87 207t192 69q90 0 138.5 -35t56.5 -98t-6 -151zM123 263q-20 -114 7 -165.5t119 -51.5q94 0 141.5 54t67.5 169
q20 114 -6.5 167t-117.5 53q-94 0 -142 -55t-69 -171z" />
    <glyph glyph-name="divide" unicode="&#xf7;" horiz-adv-x="480" 
d="M218 409l18 106h62l-19 -106h-61zM28 281l11 61h395l-11 -61h-395zM165 108l18 106h62l-18 -106h-62z" />
    <glyph glyph-name="oslash" unicode="&#xf8;" horiz-adv-x="582" 
d="M-23 -29l90 100q-34 68 -10 199q24 138 87 207t192 69q82 0 131 -30l45 50h91l-90 -100q36 -68 12 -204q-24 -137 -87 -205t-192 -68q-86 0 -134 31l-44 -49h-91zM123 263q-16 -89 -5 -135l305 339q-33 22 -89 22q-94 0 -142 -55t-69 -171zM458 269q16 93 4 140
l-306 -341q31 -22 93 -22q94 0 141.5 54t67.5 169z" />
    <glyph glyph-name="ugrave" unicode="&#xf9;" horiz-adv-x="600" 
d="M388 634h-55l-60 136h66zM421 0l5 102q-11 -16 -26.5 -32t-42 -35t-66 -31t-84.5 -12q-93 0 -127 53t-13 175l56 315h66l-57 -322q-14 -82 7.5 -120.5t92.5 -38.5q51 0 97 26t67 50t38 50l62 355h66l-68 -387l-16 -148h-57z" />
    <glyph glyph-name="uacute" unicode="&#xfa;" horiz-adv-x="600" 
d="M331 634l96 136h69l-109 -136h-56zM421 0l5 102q-11 -16 -26.5 -32t-42 -35t-66 -31t-84.5 -12q-93 0 -127 53t-13 175l56 315h66l-57 -322q-14 -82 7.5 -120.5t92.5 -38.5q51 0 97 26t67 50t38 50l62 355h66l-68 -387l-16 -148h-57z" />
    <glyph glyph-name="ucircumflex" unicode="&#xfb;" horiz-adv-x="600" 
d="M503 634h-65l-57 87l-87 -87h-68l129 134h64zM421 0l5 102q-11 -16 -26.5 -32t-42 -35t-66 -31t-84.5 -12q-93 0 -127 53t-13 175l56 315h66l-57 -322q-14 -82 7.5 -120.5t92.5 -38.5q51 0 97 26t67 50t38 50l62 355h66l-68 -387l-16 -148h-57z" />
    <glyph glyph-name="udieresis" unicode="&#xfc;" horiz-adv-x="600" 
d="M257 634l22 121h62l-21 -121h-63zM409 634l22 121h62l-21 -121h-63zM421 0l5 102q-11 -16 -26.5 -32t-42 -35t-66 -31t-84.5 -12q-93 0 -127 53t-13 175l56 315h66l-57 -322q-14 -82 7.5 -120.5t92.5 -38.5q51 0 97 26t67 50t38 50l62 355h66l-68 -387l-16 -148h-57z" />
    <glyph glyph-name="yacute" unicode="&#xfd;" horiz-adv-x="489" 
d="M270 634l96 136h69l-109 -136h-56zM62 -223l116 223h-25l-106 535h70l87 -485l252 485h73l-402 -758h-65z" />
    <glyph glyph-name="thorn" unicode="&#xfe;" horiz-adv-x="591" 
d="M-9 -240l175 992h66l-52 -289q78 81 194 81q108 0 146.5 -75t14.5 -209q-49 -269 -253 -269q-130 0 -171 82l-55 -313h-65zM357 484q-112 0 -190 -97l-43 -243q31 -92 150 -92q158 0 196 216q36 216 -113 216z" />
    <glyph glyph-name="ydieresis" unicode="&#xff;" horiz-adv-x="489" 
d="M196 634l22 121h62l-21 -121h-63zM348 634l22 121h62l-21 -121h-63zM62 -223l116 223h-25l-106 535h70l87 -485l252 485h73l-402 -758h-65z" />
    <glyph glyph-name="Amacron" unicode="&#x100;" horiz-adv-x="634" 
d="M287 841h234l-10 -54h-234zM-58 0l401 708h72l151 -708h-73l-36 184h-340l-100 -184h-75zM152 248h293l-77 395z" />
    <glyph glyph-name="amacron" unicode="&#x101;" horiz-adv-x="590" 
d="M255 712h234l-9 -50h-234zM407 1l3 67q-83 -79 -208 -79q-190 0 -161 168q16 92 79 129.5t173 37.5q89 0 152 -10q12 62 10 101t-29 56t-89 17q-88 0 -128 -35t-47 -81l-61 1q32 171 235 171q103 0 146.5 -35.5t39 -96.5t-17.5 -142q-1 -5 -1 -7l-23 -128l-13 -134h-60z
M215 47q71 0 126 30.5t75 69.5l20 114q-48 6 -128 6q-91 0 -139.5 -24.5t-58.5 -85.5q-20 -110 105 -110z" />
    <glyph glyph-name="Abreve" unicode="&#x102;" horiz-adv-x="634" 
d="M538 862q-6 -37 -43.5 -69t-100.5 -32q-66 0 -95 32t-23 69h58q-3 -20 13.5 -37.5t46.5 -17.5q32 0 57.5 17.5t28.5 37.5h58zM-58 0l401 708h72l151 -708h-73l-36 184h-340l-100 -184h-75zM152 248h293l-77 395z" />
    <glyph glyph-name="abreve" unicode="&#x103;" horiz-adv-x="590" 
d="M510 744q-8 -39 -46.5 -75t-101.5 -36q-65 0 -94 36.5t-22 74.5h58q-4 -21 12.5 -43t46.5 -22q32 0 59 22t30 43h58zM407 1l3 67q-83 -79 -208 -79q-190 0 -161 168q16 92 79 129.5t173 37.5q89 0 152 -10q12 62 10 101t-29 56t-89 17q-88 0 -128 -35t-47 -81l-61 1
q32 171 235 171q103 0 146.5 -35.5t39 -96.5t-17.5 -142q-1 -5 -1 -7l-23 -128l-13 -134h-60zM215 47q71 0 126 30.5t75 69.5l20 114q-48 6 -128 6q-91 0 -139.5 -24.5t-58.5 -85.5q-20 -110 105 -110z" />
    <glyph glyph-name="Aogonek" unicode="&#x104;" horiz-adv-x="634" 
d="M384 -105q4 22 18.5 42.5t33.5 35t32 22t23 12.5l-34 177h-340l-100 -184h-75l401 708h72l151 -708h-13q-12 -6 -30 -16.5t-42.5 -35t-28.5 -48.5q-7 -37 29 -37q11 0 24 3.5t21 6.5l7 3l-5 -41q-25 -20 -71 -20q-43 0 -61 22.5t-12 57.5zM152 248h293l-77 395z" />
    <glyph glyph-name="aogonek" unicode="&#x105;" horiz-adv-x="590" 
d="M298 -105q5 29 31.5 57t44.5 38.5t33 17.5l3 60q-83 -79 -208 -79q-190 0 -161 168q16 92 79 129.5t173 37.5q89 0 152 -10q12 62 10 101t-29 56t-89 17q-88 0 -128 -35t-47 -81l-61 1q32 171 235 171q103 0 146.5 -35.5t39 -96.5t-17.5 -142q-1 -5 -1 -7l-23 -128
l-12 -134l-4 -3q-5 -2 -13.5 -7t-18.5 -11.5t-21 -15.5t-20.5 -19t-16 -21.5t-8.5 -23.5q-7 -37 29 -37q11 0 24 3.5t21 6.5l7 3l-5 -41q-25 -20 -71 -20q-43 0 -61 22.5t-12 57.5zM215 47q71 0 126 30.5t75 69.5l20 114q-48 6 -128 6q-91 0 -139.5 -24.5t-58.5 -85.5
q-20 -110 105 -110z" />
    <glyph glyph-name="Cacute" unicode="&#x106;" horiz-adv-x="672" 
d="M386 766l93 114h74l-104 -114h-63zM589 229q-26 -124 -99 -185t-199 -61q-158 0 -209 93.5t-18 280.5q33 185 113.5 276.5t235.5 91.5q262 0 221 -256l-66 2q13 97 -26 144t-132 47q-118 0 -184 -76t-94 -234t8.5 -232t153.5 -74q186 0 229 184z" />
    <glyph glyph-name="cacute" unicode="&#x107;" horiz-adv-x="566" 
d="M312 634l96 136h69l-109 -136h-56zM490 172q-36 -183 -249 -183q-127 0 -168 71.5t-17 209.5q24 136 87 206t188 70q221 0 189 -202h-65q24 145 -126 145q-89 0 -138 -56t-69 -170q-19 -113 7.5 -165t114.5 -52q75 0 121.5 32t58.5 94h66z" />
    <glyph glyph-name="Ccircumflex" unicode="&#x108;" horiz-adv-x="672" 
d="M559 766h-68l-58 70l-81 -70h-72l123 112h70zM589 229q-26 -124 -99 -185t-199 -61q-158 0 -209 93.5t-18 280.5q33 185 113.5 276.5t235.5 91.5q262 0 221 -256l-66 2q13 97 -26 144t-132 47q-118 0 -184 -76t-94 -234t8.5 -232t153.5 -74q186 0 229 184z" />
    <glyph glyph-name="ccircumflex" unicode="&#x109;" horiz-adv-x="566" 
d="M484 634h-65l-57 87l-87 -87h-68l129 134h64zM490 172q-36 -183 -249 -183q-127 0 -168 71.5t-17 209.5q24 136 87 206t188 70q221 0 189 -202h-65q24 145 -126 145q-89 0 -138 -56t-69 -170q-19 -113 7.5 -165t114.5 -52q75 0 121.5 32t58.5 94h66z" />
    <glyph glyph-name="Cdotaccent" unicode="&#x10a;" horiz-adv-x="672" 
d="M386 766l22 122h67l-22 -122h-67zM589 229q-26 -124 -99 -185t-199 -61q-158 0 -209 93.5t-18 280.5q33 185 113.5 276.5t235.5 91.5q262 0 221 -256l-66 2q13 97 -26 144t-132 47q-118 0 -184 -76t-94 -234t8.5 -232t153.5 -74q186 0 229 184z" />
    <glyph glyph-name="cdotaccent" unicode="&#x10b;" horiz-adv-x="566" 
d="M315 642l20 113h66l-19 -113h-67zM490 172q-36 -183 -249 -183q-127 0 -168 71.5t-17 209.5q24 136 87 206t188 70q221 0 189 -202h-65q24 145 -126 145q-89 0 -138 -56t-69 -170q-19 -113 7.5 -165t114.5 -52q75 0 121.5 32t58.5 94h66z" />
    <glyph glyph-name="Ccaron" unicode="&#x10c;" horiz-adv-x="672" 
d="M580 878l-124 -112h-71l-84 112h67l57 -70l82 70h73zM589 229q-26 -124 -99 -185t-199 -61q-158 0 -209 93.5t-18 280.5q33 185 113.5 276.5t235.5 91.5q262 0 221 -256l-66 2q13 97 -26 144t-132 47q-118 0 -184 -76t-94 -234t8.5 -232t153.5 -74q186 0 229 184z" />
    <glyph glyph-name="ccaron" unicode="&#x10d;" horiz-adv-x="566" 
d="M510 768l-132 -134h-64l-81 134h63l57 -86l87 86h70zM490 172q-36 -183 -249 -183q-127 0 -168 71.5t-17 209.5q24 136 87 206t188 70q221 0 189 -202h-65q24 145 -126 145q-89 0 -138 -56t-69 -170q-19 -113 7.5 -165t114.5 -52q75 0 121.5 32t58.5 94h66z" />
    <glyph glyph-name="Dcaron" unicode="&#x10e;" horiz-adv-x="697" 
d="M558 876l-124 -112h-71l-84 112h67l57 -70l82 70h73zM30 -3l126 714h215q131 0 196 -40.5t75 -120.5t-11 -201q-17 -95 -40 -156t-65.5 -108t-110 -67.5t-166.5 -20.5h-219zM213 649l-104 -591h157q138 -1 203 67t94 233q28 162 -11.5 226.5t-176.5 64.5h-162z" />
    <glyph glyph-name="dcaron" unicode="&#x10f;" horiz-adv-x="595" 
d="M598 617l74 143h61l-91 -143h-44zM416 0l3 81q-64 -90 -200 -90q-212 0 -163 278q48 275 250 275q117 0 172 -86l52 294h66l-109 -612l-14 -140h-57zM235 52q119 0 189 95l43 245q-41 92 -149 92q-158 0 -198 -222q-37 -210 115 -210z" />
    <glyph glyph-name="Dcroat" unicode="&#x110;" horiz-adv-x="697" 
d="M88 329h-73l9 51h73l59 331h215q131 0 196 -40.5t75 -120.5t-11 -201q-17 -95 -40 -156t-65.5 -108t-110 -67.5t-166.5 -20.5h-219zM156 329l-47 -271h157q138 -1 203 67t94 233q28 162 -11.5 226.5t-176.5 64.5h-162l-48 -269h129l-8 -51h-130z" />
    <glyph glyph-name="dcroat" unicode="&#x111;" horiz-adv-x="595" 
d="M567 589l-80 -449l-14 -140h-57l3 81q-64 -90 -200 -90q-212 0 -163 278q48 275 250 275q117 0 172 -86l23 131h-135l9 51h135l20 112h66l-20 -112h69l-8 -51h-70zM235 52q119 0 189 95l43 245q-41 92 -149 92q-158 0 -198 -222q-37 -210 115 -210z" />
    <glyph glyph-name="Emacron" unicode="&#x112;" horiz-adv-x="580" 
d="M284 841h234l-10 -54h-234zM30 0l125 708h446l-11 -63h-378l-44 -246h328l-10 -61h-329l-48 -275h383l-12 -63h-450z" />
    <glyph glyph-name="emacron" unicode="&#x113;" horiz-adv-x="574" 
d="M251 712h234l-9 -50h-234zM496 159q-4 -19 -12 -38.5t-27 -44.5t-45.5 -43t-70 -31t-97.5 -13q-128 0 -170 71.5t-18 209.5q24 136 88.5 206t189.5 70t167.5 -69.5t15.5 -221.5h-397q-18 -108 11 -158t116 -50q85 0 129.5 36.5t51.5 76.5zM331 489q-80 0 -127 -43
t-71 -132h325q8 93 -22.5 134t-104.5 41z" />
    <glyph glyph-name="Ebreve" unicode="&#x114;" horiz-adv-x="580" 
d="M535 862q-6 -37 -43.5 -69t-100.5 -32q-66 0 -95 32t-23 69h58q-3 -20 13.5 -37.5t46.5 -17.5q32 0 57.5 17.5t28.5 37.5h58zM30 0l125 708h446l-11 -63h-378l-44 -246h328l-10 -61h-329l-48 -275h383l-12 -63h-450z" />
    <glyph glyph-name="ebreve" unicode="&#x115;" horiz-adv-x="574" 
d="M506 744q-8 -39 -46.5 -75t-101.5 -36q-65 0 -94 36.5t-22 74.5h58q-4 -21 12.5 -43t46.5 -22q32 0 59 22t30 43h58zM496 159q-4 -19 -12 -38.5t-27 -44.5t-45.5 -43t-70 -31t-97.5 -13q-128 0 -170 71.5t-18 209.5q24 136 88.5 206t189.5 70t167.5 -69.5t15.5 -221.5
h-397q-18 -108 11 -158t116 -50q85 0 129.5 36.5t51.5 76.5zM331 489q-80 0 -127 -43t-71 -132h325q8 93 -22.5 134t-104.5 41z" />
    <glyph glyph-name="Edotaccent" unicode="&#x116;" horiz-adv-x="580" 
d="M354 764l22 122h67l-22 -122h-67zM30 0l125 708h446l-11 -63h-378l-44 -246h328l-10 -61h-329l-48 -275h383l-12 -63h-450z" />
    <glyph glyph-name="edotaccent" unicode="&#x117;" horiz-adv-x="574" 
d="M323 642l20 113h66l-19 -113h-67zM496 159q-4 -19 -12 -38.5t-27 -44.5t-45.5 -43t-70 -31t-97.5 -13q-128 0 -170 71.5t-18 209.5q24 136 88.5 206t189.5 70t167.5 -69.5t15.5 -221.5h-397q-18 -108 11 -158t116 -50q85 0 129.5 36.5t51.5 76.5zM331 489q-80 0 -127 -43
t-71 -132h325q8 93 -22.5 134t-104.5 41z" />
    <glyph glyph-name="Eogonek" unicode="&#x118;" horiz-adv-x="580" 
d="M310 -106q11 62 95 106h-375l125 708h446l-11 -63h-378l-44 -246h328l-10 -61h-329l-48 -275h383l-12 -63l-9 -5q-9 -5 -23.5 -14.5t-29 -21t-26 -28t-14.5 -32.5q-7 -37 29 -37q11 0 24 3t21 7l7 3l-5 -41q-25 -20 -71 -20q-43 0 -61 22.5t-12 57.5z" />
    <glyph glyph-name="eogonek" unicode="&#x119;" horiz-adv-x="574" 
d="M224 -82q7 39 45 72q-4 0 -12 -0.5t-13 -0.5q-128 0 -170 71.5t-18 209.5q24 136 88.5 206t189.5 70t167.5 -69.5t15.5 -221.5h-397q-18 -108 11 -158t116 -50q85 0 129.5 36.5t51.5 76.5l68 -1q-21 -99 -116 -143q-80 -45 -88 -93q-7 -37 29 -37q11 0 24 3t21 7l7 3
l-5 -41q-25 -20 -71 -20q-43 0 -61 22.5t-12 57.5zM331 489q-80 0 -127 -43t-71 -132h325q8 93 -22.5 134t-104.5 41z" />
    <glyph glyph-name="Ecaron" unicode="&#x11a;" horiz-adv-x="580" 
d="M548 876l-124 -112h-71l-84 112h67l57 -70l82 70h73zM30 0l125 708h446l-11 -63h-378l-44 -246h328l-10 -61h-329l-48 -275h383l-12 -63h-450z" />
    <glyph glyph-name="ecaron" unicode="&#x11b;" horiz-adv-x="574" 
d="M518 768l-132 -134h-64l-81 134h63l57 -86l87 86h70zM496 159q-4 -19 -12 -38.5t-27 -44.5t-45.5 -43t-70 -31t-97.5 -13q-128 0 -170 71.5t-18 209.5q24 136 88.5 206t189.5 70t167.5 -69.5t15.5 -221.5h-397q-18 -108 11 -158t116 -50q85 0 129.5 36.5t51.5 76.5z
M331 489q-80 0 -127 -43t-71 -132h325q8 93 -22.5 134t-104.5 41z" />
    <glyph glyph-name="Gcircumflex" unicode="&#x11c;" horiz-adv-x="673" 
d="M561 766h-68l-58 70l-81 -70h-72l123 112h70zM557 80q-1 -4 -11.5 -14.5t-33 -24.5t-52.5 -27t-75.5 -22t-95.5 -9q-156 0 -206.5 93t-17.5 281q33 186 113 277t234 91q127 0 182.5 -65.5t36.5 -170.5l-64 2q12 75 -29.5 123t-129.5 48q-116 0 -181.5 -76.5t-93.5 -234.5
q-29 -159 7.5 -233.5t153.5 -74.5q56 0 106.5 15.5t75 31.5t25.5 25l28 166h-153l10 62h217z" />
    <glyph glyph-name="gcircumflex" unicode="&#x11d;" horiz-adv-x="640" 
d="M524 634h-65l-57 87l-87 -87h-68l129 134h64zM495 -4q-6 -32 -10 -50t-13.5 -46.5t-20.5 -45t-31 -37t-45 -31.5t-62 -18.5t-82 -7.5q-63 0 -104.5 19.5t-56.5 47.5t-20.5 55.5t-1.5 47.5l3 19h70v-1q-2 -10 -3 -19.5t2.5 -32t13.5 -38.5t36 -29t65 -13q44 0 77 10.5
t52.5 26.5t33.5 43t20 50t12 58l11 64q-66 -77 -189 -77q-213 0 -164 278q48 275 250 275q53 0 94 -19.5t56.5 -37.5t25.5 -36l27 84h58l-33 -135zM267 52q118 0 187 93l44 250q-40 89 -148 89q-158 0 -198 -222q-37 -210 115 -210z" />
    <glyph glyph-name="Gbreve" unicode="&#x11e;" horiz-adv-x="673" 
d="M569 864q-6 -37 -43.5 -69t-100.5 -32q-66 0 -95 32t-23 69h58q-3 -20 13.5 -37.5t46.5 -17.5q32 0 57.5 17.5t28.5 37.5h58zM557 80q-1 -4 -11.5 -14.5t-33 -24.5t-52.5 -27t-75.5 -22t-95.5 -9q-156 0 -206.5 93t-17.5 281q33 186 113 277t234 91q127 0 182.5 -65.5
t36.5 -170.5l-64 2q12 75 -29.5 123t-129.5 48q-116 0 -181.5 -76.5t-93.5 -234.5q-29 -159 7.5 -233.5t153.5 -74.5q56 0 106.5 15.5t75 31.5t25.5 25l28 166h-153l10 62h217z" />
    <glyph glyph-name="gbreve" unicode="&#x11f;" horiz-adv-x="640" 
d="M538 744q-8 -39 -46.5 -75t-101.5 -36q-65 0 -94 36.5t-22 74.5h58q-4 -21 12.5 -43t46.5 -22q32 0 59 22t30 43h58zM495 -4q-6 -32 -10 -50t-13.5 -46.5t-20.5 -45t-31 -37t-45 -31.5t-62 -18.5t-82 -7.5q-63 0 -104.5 19.5t-56.5 47.5t-20.5 55.5t-1.5 47.5l3 19h70v-1
q-2 -10 -3 -19.5t2.5 -32t13.5 -38.5t36 -29t65 -13q44 0 77 10.5t52.5 26.5t33.5 43t20 50t12 58l11 64q-66 -77 -189 -77q-213 0 -164 278q48 275 250 275q53 0 94 -19.5t56.5 -37.5t25.5 -36l27 84h58l-33 -135zM267 52q118 0 187 93l44 250q-40 89 -148 89
q-158 0 -198 -222q-37 -210 115 -210z" />
    <glyph glyph-name="Gdotaccent" unicode="&#x120;" horiz-adv-x="673" 
d="M388 766l22 122h67l-22 -122h-67zM557 80q-1 -4 -11.5 -14.5t-33 -24.5t-52.5 -27t-75.5 -22t-95.5 -9q-156 0 -206.5 93t-17.5 281q33 186 113 277t234 91q127 0 182.5 -65.5t36.5 -170.5l-64 2q12 75 -29.5 123t-129.5 48q-116 0 -181.5 -76.5t-93.5 -234.5
q-29 -159 7.5 -233.5t153.5 -74.5q56 0 106.5 15.5t75 31.5t25.5 25l28 166h-153l10 62h217z" />
    <glyph glyph-name="gdotaccent" unicode="&#x121;" horiz-adv-x="640" 
d="M355 642l20 113h66l-19 -113h-67zM495 -4q-6 -32 -10 -50t-13.5 -46.5t-20.5 -45t-31 -37t-45 -31.5t-62 -18.5t-82 -7.5q-63 0 -104.5 19.5t-56.5 47.5t-20.5 55.5t-1.5 47.5l3 19h70v-1q-2 -10 -3 -19.5t2.5 -32t13.5 -38.5t36 -29t65 -13q44 0 77 10.5t52.5 26.5
t33.5 43t20 50t12 58l11 64q-66 -77 -189 -77q-213 0 -164 278q48 275 250 275q53 0 94 -19.5t56.5 -37.5t25.5 -36l27 84h58l-33 -135zM267 52q118 0 187 93l44 250q-40 89 -148 89q-158 0 -198 -222q-37 -210 115 -210z" />
    <glyph glyph-name="Gcommaaccent" unicode="&#x122;" horiz-adv-x="673" 
d="M557 80q-1 -4 -11.5 -14.5t-33 -24.5t-52.5 -27t-75.5 -22t-95.5 -9q-156 0 -206.5 93t-17.5 281q33 186 113 277t234 91q127 0 182.5 -65.5t36.5 -170.5l-64 2q12 75 -29.5 123t-129.5 48q-116 0 -181.5 -76.5t-93.5 -234.5q-29 -159 7.5 -233.5t153.5 -74.5
q56 0 106.5 15.5t75 31.5t25.5 25l28 166h-153l10 62h217zM192 -240q25 41 47 96q9 21 16.5 43t10.5 33l3 12l62 -1q-13 -50 -36 -99q-12 -24 -25 -45t-20 -31l-7 -9z" />
    <glyph glyph-name="gcommaaccent" unicode="&#x123;" horiz-adv-x="640" 
d="M480 785q-30 -45 -56 -113q-12 -28 -20 -53t-10 -35l-2 -11l-63 2q9 44 38 109q14 30 29.5 55.5t23.5 36.5l9 11zM495 -4q-6 -32 -10 -50t-13.5 -46.5t-20.5 -45t-31 -37t-45 -31.5t-62 -18.5t-82 -7.5q-63 0 -104.5 19.5t-56.5 47.5t-20.5 55.5t-1.5 47.5l3 19h70v-1
q-2 -10 -3 -19.5t2.5 -32t13.5 -38.5t36 -29t65 -13q44 0 77 10.5t52.5 26.5t33.5 43t20 50t12 58l11 64q-66 -77 -189 -77q-213 0 -164 278q48 275 250 275q53 0 94 -19.5t56.5 -37.5t25.5 -36l27 84h58l-33 -135zM267 52q118 0 187 93l44 250q-40 89 -148 89
q-158 0 -198 -222q-37 -210 115 -210z" />
    <glyph glyph-name="Hcircumflex" unicode="&#x124;" horiz-adv-x="706" 
d="M565 764h-68l-58 70l-81 -70h-72l123 112h70zM30 0l125 708h68l-55 -308h384l55 308h67l-125 -708h-67l59 337h-384l-59 -337h-68z" />
    <glyph glyph-name="hcircumflex" unicode="&#x125;" horiz-adv-x="601" 
d="M357 783h-68l-58 70l-81 -70h-72l123 112h70zM43 0l133 752h66l-53 -297q78 88 206 88q92 0 126 -53t13 -175l-55 -315h-66l57 323q14 82 -7.5 120t-93.5 38q-114 0 -194 -108l-66 -373h-66z" />
    <glyph glyph-name="Hbar" unicode="&#x126;" horiz-adv-x="706" 
d="M641 522l-92 -522h-67l59 337h-384l-59 -337h-68l92 522h-56l9 57h57l23 129h68l-23 -129h384l23 129h67l-23 -129h56l-9 -57h-57zM552 400l22 122h-384l-22 -122h384z" />
    <glyph glyph-name="hbar" unicode="&#x127;" horiz-adv-x="601" 
d="M213 591l-24 -136q78 88 206 88q92 0 126 -53t13 -175l-55 -315h-66l57 323q14 82 -7.5 120t-93.5 38q-114 0 -194 -108l-66 -373h-66l104 591h-74l9 51h74l20 110h66l-20 -110h130l-8 -51h-131z" />
    <glyph glyph-name="Itilde" unicode="&#x128;" horiz-adv-x="255" 
d="M355 861q-4 -20 -8.5 -33.5t-14.5 -30t-27.5 -25t-42.5 -8.5q-37 0 -57.5 23t-40.5 23q-40 0 -51 -49l-48 5q16 97 93 97q23 0 38 -7t20.5 -16t15.5 -16t24 -7q24 0 36.5 16.5t14.5 33.5zM30 0l125 708h68l-125 -708h-68z" />
    <glyph glyph-name="itilde" unicode="&#x129;" horiz-adv-x="239" 
d="M338 732q-18 -98 -92 -98q-22 0 -38 7.5t-22.5 17t-17.5 17t-24 7.5q-22 0 -34 -16.5t-16 -33.5l-47 5q5 27 12 45t27.5 35t52.5 17q28 0 44.5 -12t28 -24t27.5 -12q23 0 35 16.5t16 33.5zM38 0l95 535h66l-95 -535h-66z" />
    <glyph glyph-name="Imacron" unicode="&#x12a;" horiz-adv-x="255" 
d="M98 841h234l-10 -54h-234zM30 0l125 708h68l-125 -708h-68z" />
    <glyph glyph-name="imacron" unicode="&#x12b;" horiz-adv-x="239" 
d="M80 712h234l-9 -50h-234zM38 0l95 535h66l-95 -535h-66z" />
    <glyph glyph-name="Ibreve" unicode="&#x12c;" horiz-adv-x="255" 
d="M349 862q-6 -37 -43.5 -69t-100.5 -32q-66 0 -95 32t-23 69h58q-3 -20 13.5 -37.5t46.5 -17.5q32 0 57.5 17.5t28.5 37.5h58zM30 0l125 708h68l-125 -708h-68z" />
    <glyph glyph-name="ibreve" unicode="&#x12d;" horiz-adv-x="239" 
d="M335 744q-8 -39 -46.5 -75t-101.5 -36q-65 0 -94 36.5t-22 74.5h58q-4 -21 12.5 -43t46.5 -22q32 0 59 22t30 43h58zM38 0l95 535h66l-95 -535h-66z" />
    <glyph glyph-name="Iogonek" unicode="&#x12e;" horiz-adv-x="255" 
d="M-79 -105q11 65 110 114l124 699h68l-125 -708h-8q-12 -5 -30 -16t-42.5 -35.5t-28.5 -48.5q-7 -37 29 -37q11 0 24 3.5t20 6.5l8 3l-5 -41q-25 -20 -71 -20q-43 0 -61 22.5t-12 57.5z" />
    <glyph glyph-name="iogonek" unicode="&#x12f;" horiz-adv-x="239" 
d="M152 642l20 113h66l-19 -113h-67zM-71 -105q11 65 110 114l94 526h66l-95 -535h-6q-12 -6 -30 -16.5t-42.5 -35t-28.5 -48.5q-7 -37 29 -37q11 0 24 3.5t20 6.5l8 3l-5 -41q-25 -20 -71 -20q-43 0 -61 22.5t-12 57.5z" />
    <glyph glyph-name="Idotaccent" unicode="&#x130;" horiz-adv-x="255" 
d="M168 764l22 122h67l-22 -122h-67zM30 0l125 708h68l-125 -708h-68z" />
    <glyph glyph-name="dotlessi" unicode="&#x131;" horiz-adv-x="239" 
d="M38 0l95 535h66l-95 -535h-66z" />
    <glyph glyph-name="IJ" unicode="&#x132;" horiz-adv-x="648" 
d="M30 0l125 708h68l-125 -708h-68zM558 266q-14 -81 -29 -126t-45.5 -80t-78 -47.5t-125.5 -12.5h-54l12 67h49q102 0 142 43t61 162l78 436h68z" />
    <glyph glyph-name="ij" unicode="&#x133;" horiz-adv-x="518" 
d="M152 642l20 113h66l-19 -113h-67zM423 641l20 113h66l-19 -113h-67zM38 0l95 535h66l-95 -535h-66zM384 40q-7 -40 -11 -60t-12.5 -48.5t-18 -42t-25 -30t-36.5 -24t-50 -12.5t-67 -5l7 63q35 0 59 7t38 16.5t24 33.5t15 44t12 62l87 490h66z" />
    <glyph glyph-name="Jcircumflex" unicode="&#x134;" horiz-adv-x="393" 
d="M496 764h-68l-58 70l-81 -70h-72l123 112h70zM303 266q-14 -81 -29 -126t-45.5 -80t-78 -47.5t-125.5 -12.5h-54l12 67h49q102 0 142 43t61 162l78 436h68z" />
    <glyph glyph-name="jcircumflex" unicode="&#x135;" horiz-adv-x="253" 
d="M327 634h-65l-57 87l-87 -87h-68l129 134h64zM119 41q-7 -40 -11 -60t-12.5 -48.5t-18 -42t-25 -30t-36.5 -24t-50 -12.5t-67 -5l7 63q35 0 59 7t38 16.5t24 33.5t15 44t12 62l87 490h66z" />
    <glyph glyph-name="Kcommaaccent" unicode="&#x136;" horiz-adv-x="639" 
d="M30 0l125 708h68l-77 -436l442 436h90l-303 -296l178 -412h-76l-156 360l-193 -188l-30 -172h-68zM148 -222q25 41 47 96q9 21 16.5 43t10.5 33l3 12l62 -1q-13 -50 -36 -99q-12 -24 -25 -45.5t-20 -30.5l-7 -9z" />
    <glyph glyph-name="kcommaaccent" unicode="&#x137;" horiz-adv-x="519" 
d="M38 0l134 752h64l-91 -512l298 295h80l-208 -202l139 -333h-74l-116 284l-134 -130l-27 -154h-65zM124 -222q25 41 47 96q9 21 16.5 43t10.5 33l3 12l62 -1q-13 -50 -36 -99q-12 -24 -25 -45.5t-20 -30.5l-7 -9z" />
    <glyph glyph-name="kgreenlandic" unicode="&#x138;" horiz-adv-x="519" 
d="M38 0l95 535h64l-52 -296l298 296h80l-208 -202l139 -333h-74l-116 284l-134 -130l-27 -154h-65z" />
    <glyph glyph-name="Lacute" unicode="&#x139;" horiz-adv-x="477" 
d="M176 764l93 114h74l-104 -114h-63zM30 0l125 708h68l-114 -644h334l-12 -64h-401z" />
    <glyph glyph-name="lacute" unicode="&#x13a;" horiz-adv-x="238" 
d="M182 814l93 114h74l-104 -114h-63zM38 0l134 752h66l-134 -752h-66z" />
    <glyph glyph-name="Lcommaaccent" unicode="&#x13b;" horiz-adv-x="477" 
d="M30 0l125 708h68l-114 -644h334l-12 -64h-401zM117 -222q25 41 47 96q9 21 16.5 43t10.5 33l3 12l62 -1q-13 -50 -36 -99q-12 -24 -25 -45.5t-20 -30.5l-7 -9z" />
    <glyph glyph-name="lcommaaccent" unicode="&#x13c;" horiz-adv-x="238" 
d="M38 0l134 752h66l-134 -752h-66zM-41 -222q25 41 47 96q9 21 16.5 43t10.5 33l3 12l62 -1q-13 -50 -36 -99q-12 -24 -25 -45.5t-20 -30.5l-7 -9z" />
    <glyph glyph-name="Lcaron" unicode="&#x13d;" horiz-adv-x="477" 
d="M309 629l75 133h63l-86 -133h-52zM30 0l125 708h68l-114 -644h334l-12 -64h-401z" />
    <glyph glyph-name="lcaron" unicode="&#x13e;" horiz-adv-x="238" 
d="M253 617l74 143h61l-91 -143h-44zM38 0l134 752h66l-134 -752h-66z" />
    <glyph glyph-name="Ldot" unicode="&#x13f;" horiz-adv-x="479" 
d="M30 0l125 708h68l-114 -644h334l-12 -64h-401zM305 301l21 122h70l-22 -122h-69z" />
    <glyph glyph-name="ldot" unicode="&#x140;" horiz-adv-x="238" 
d="M38 0l134 752h66l-134 -752h-66zM202 319l21 122h69l-21 -122h-69z" />
    <glyph glyph-name="Lslash" unicode="&#x141;" horiz-adv-x="477" 
d="M160 353l-51 -289h334l-12 -64h-401l55 312l-84 -46l-17 44l111 61l60 337h68l-53 -296l87 48l17 -45z" />
    <glyph glyph-name="lslash" unicode="&#x142;" horiz-adv-x="238" 
d="M38 0l58 329l-81 -44l-17 44l109 60l65 363h66l-58 -323l91 50l17 -45l-118 -65l-66 -369h-66z" />
    <glyph glyph-name="Nacute" unicode="&#x143;" horiz-adv-x="733" 
d="M407 764l93 114h74l-104 -114h-63zM203 621l-109 -621h-64l129 708h72l299 -617l106 617h65l-125 -708h-70z" />
    <glyph glyph-name="nacute" unicode="&#x144;" horiz-adv-x="600" 
d="M339 634l96 136h69l-109 -136h-56zM43 0l70 396l15 139h57l-5 -90q77 98 214 98q93 0 126.5 -53t12.5 -177l-55 -313h-66l57 321q14 83 -7.5 121.5t-93.5 38.5q-113 0 -193 -107l-66 -374h-66z" />
    <glyph glyph-name="Ncommaaccent" unicode="&#x145;" horiz-adv-x="733" 
d="M203 621l-109 -621h-64l129 708h72l299 -617l106 617h65l-125 -708h-70zM207 -222q25 41 47 96q9 21 16.5 43t10.5 33l3 12l62 -1q-13 -50 -36 -99q-12 -24 -25 -45.5t-20 -30.5l-7 -9z" />
    <glyph glyph-name="ncommaaccent" unicode="&#x146;" horiz-adv-x="600" 
d="M43 0l70 396l15 139h57l-5 -90q77 98 214 98q93 0 126.5 -53t12.5 -177l-55 -313h-66l57 321q14 83 -7.5 121.5t-93.5 38.5q-113 0 -193 -107l-66 -374h-66zM155 -222q25 41 47 96q9 21 16.5 43t10.5 33l3 12l62 -1q-13 -50 -36 -99q-12 -24 -25 -45.5t-20 -30.5l-7 -9z
" />
    <glyph glyph-name="Ncaron" unicode="&#x147;" horiz-adv-x="733" 
d="M601 876l-124 -112h-71l-84 112h67l57 -70l82 70h73zM203 621l-109 -621h-64l129 708h72l299 -617l106 617h65l-125 -708h-70z" />
    <glyph glyph-name="ncaron" unicode="&#x148;" horiz-adv-x="600" 
d="M537 768l-132 -134h-64l-81 134h63l57 -86l87 86h70zM43 0l70 396l15 139h57l-5 -90q77 98 214 98q93 0 126.5 -53t12.5 -177l-55 -313h-66l57 321q14 83 -7.5 121.5t-93.5 38.5q-113 0 -193 -107l-66 -374h-66z" />
    <glyph glyph-name="Eng" unicode="&#x14a;" horiz-adv-x="733" 
d="M701 708l-125 -708q-10 -57 -23.5 -94.5t-38.5 -68t-64.5 -44.5t-96.5 -14h-52l10 54h47q72 0 107.5 38.5t50.5 128.5l-313 618l-109 -618h-64l129 708h70l304 -606l104 606h64z" />
    <glyph glyph-name="eng" unicode="&#x14b;" horiz-adv-x="601" 
d="M43 0l70 396l16 139h56l-5 -90q77 98 214 98q93 0 127 -53t13 -177l-46 -260q-8 -45 -13 -68.5t-15.5 -54t-24.5 -45t-36.5 -29t-54.5 -20t-76 -5.5l6 64q72 0 100 26t40 91l56 309q14 83 -8 121.5t-93 38.5q-114 0 -194 -108l-66 -373h-66z" />
    <glyph glyph-name="Omacron" unicode="&#x14c;" horiz-adv-x="711" 
d="M323 843h234l-10 -54h-234zM647 349q-33 -185 -114 -275.5t-238 -90.5q-161 0 -212.5 93.5t-18.5 280.5q33 186 114.5 277t238.5 91q160 0 211.5 -94t18.5 -282zM132 352q-29 -159 8.5 -232.5t157.5 -73.5q121 0 187 75t94 234q29 159 -8.5 233t-156.5 74
q-121 0 -187.5 -76t-94.5 -234z" />
    <glyph glyph-name="omacron" unicode="&#x14d;" horiz-adv-x="582" 
d="M251 705h234l-9 -50h-234zM525 262q-24 -137 -87 -205t-192 -68q-131 0 -172.5 71t-16.5 210q24 138 87 207t192 69q90 0 138.5 -35t56.5 -98t-6 -151zM123 263q-20 -114 7 -165.5t119 -51.5q94 0 141.5 54t67.5 169q20 114 -6.5 167t-117.5 53q-94 0 -142 -55t-69 -171z
" />
    <glyph glyph-name="Obreve" unicode="&#x14e;" horiz-adv-x="711" 
d="M574 864q-6 -37 -43.5 -69t-100.5 -32q-66 0 -95 32t-23 69h58q-3 -20 13.5 -37.5t46.5 -17.5q32 0 57.5 17.5t28.5 37.5h58zM647 349q-33 -185 -114 -275.5t-238 -90.5q-161 0 -212.5 93.5t-18.5 280.5q33 186 114.5 277t238.5 91q160 0 211.5 -94t18.5 -282zM132 352
q-29 -159 8.5 -232.5t157.5 -73.5q121 0 187 75t94 234q29 159 -8.5 233t-156.5 74q-121 0 -187.5 -76t-94.5 -234z" />
    <glyph glyph-name="obreve" unicode="&#x14f;" horiz-adv-x="582" 
d="M506 737q-8 -39 -46.5 -75t-101.5 -36q-65 0 -94 36.5t-22 74.5h58q-4 -21 12.5 -43t46.5 -22q32 0 59 22t30 43h58zM525 262q-24 -137 -87 -205t-192 -68q-131 0 -172.5 71t-16.5 210q24 138 87 207t192 69q90 0 138.5 -35t56.5 -98t-6 -151zM123 263q-20 -114 7 -165.5
t119 -51.5q94 0 141.5 54t67.5 169q20 114 -6.5 167t-117.5 53q-94 0 -142 -55t-69 -171z" />
    <glyph glyph-name="Ohungarumlaut" unicode="&#x150;" horiz-adv-x="711" 
d="M313 767l87 113h74l-98 -113h-63zM448 767l99 113h74l-110 -113h-63zM647 349q-33 -185 -114 -275.5t-238 -90.5q-161 0 -212.5 93.5t-18.5 280.5q33 186 114.5 277t238.5 91q160 0 211.5 -94t18.5 -282zM132 352q-29 -159 8.5 -232.5t157.5 -73.5q121 0 187 75t94 234
q29 159 -8.5 233t-156.5 74q-121 0 -187.5 -76t-94.5 -234z" />
    <glyph glyph-name="ohungarumlaut" unicode="&#x151;" horiz-adv-x="582" 
d="M240 627l90 136h74l-103 -136h-61zM375 627l103 136h74l-116 -136h-61zM525 262q-24 -137 -87 -205t-192 -68q-131 0 -172.5 71t-16.5 210q24 138 87 207t192 69q90 0 138.5 -35t56.5 -98t-6 -151zM123 263q-20 -114 7 -165.5t119 -51.5q94 0 141.5 54t67.5 169
q20 114 -6.5 167t-117.5 53q-94 0 -142 -55t-69 -171z" />
    <glyph glyph-name="OE" unicode="&#x152;" horiz-adv-x="978" 
d="M294 0q-158 0 -210 90.5t-20 266.5q30 175 111 263t239 88h585l-11 -63h-378l-44 -246h328l-10 -61h-329l-48 -275h383l-12 -63h-584zM131 349q-26 -148 12 -219.5t157 -71.5h138l104 592h-133q-119 0 -185.5 -75.5t-92.5 -225.5z" />
    <glyph glyph-name="oe" unicode="&#x153;" horiz-adv-x="976" 
d="M898 160q-4 -20 -12 -39.5t-27 -44t-45 -43t-69.5 -31.5t-97.5 -13q-158 0 -181 119q-61 -119 -220 -119q-131 0 -172.5 71t-16.5 210q24 138 87 207t192 69q85 0 128 -30.5t55 -90.5q63 121 217 121q125 0 167.5 -70t16.5 -222l-34 1h-363q-18 -108 11 -158t115 -50
t130 36t52 77h67zM123 262q-20 -114 6.5 -165t118.5 -51q95 0 142.5 53.5t68.5 170.5q20 114 -7 166.5t-117 52.5q-95 0 -143 -55t-69 -172zM734 489q-80 0 -127 -43t-71 -132h325q8 93 -22.5 134t-104.5 41z" />
    <glyph glyph-name="Racute" unicode="&#x154;" horiz-adv-x="660" 
d="M368 764l93 114h74l-104 -114h-63zM30 0l126 711h240q148 0 204 -46.5t33 -173.5q-16 -96 -60.5 -141.5t-127.5 -59.5l112 -290h-72l-104 283q-18 -1 -59 -1h-174l-50 -282h-68zM213 649l-54 -305l165 -1q55 0 90 5t69 20.5t54 48t29 83.5q4 23 4 41.5t-2.5 32.5
t-9.5 25.5t-15.5 19t-22 13.5t-27 9t-32.5 5t-36.5 2.5t-41.5 0.5h-170z" />
    <glyph glyph-name="racute" unicode="&#x155;" horiz-adv-x="370" 
d="M230 634l96 136h69l-109 -136h-56zM43 0l68 384l17 151h58l-7 -102q10 17 25 33.5t40 36t63.5 31t83.5 11.5l-7 -62q-48 0 -88 -16.5t-65.5 -43.5t-39 -47t-23.5 -40l-59 -336h-66z" />
    <glyph glyph-name="Rcommaaccent" unicode="&#x156;" horiz-adv-x="660" 
d="M30 0l126 711h240q148 0 204 -46.5t33 -173.5q-16 -96 -60.5 -141.5t-127.5 -59.5l112 -290h-72l-104 283q-18 -1 -59 -1h-174l-50 -282h-68zM213 649l-54 -305l165 -1q55 0 90 5t69 20.5t54 48t29 83.5q4 23 4 41.5t-2.5 32.5t-9.5 25.5t-15.5 19t-22 13.5t-27 9
t-32.5 5t-36.5 2.5t-41.5 0.5h-170zM164 -222q25 41 47 96q9 21 16.5 43t10.5 33l3 12l62 -1q-13 -50 -36 -99q-12 -24 -25 -45.5t-20 -30.5l-7 -9z" />
    <glyph glyph-name="rcommaaccent" unicode="&#x157;" horiz-adv-x="370" 
d="M43 0l68 384l17 151h58l-7 -102q10 17 25 33.5t40 36t63.5 31t83.5 11.5l-7 -62q-48 0 -88 -16.5t-65.5 -43.5t-39 -47t-23.5 -40l-59 -336h-66zM-38 -222q25 41 47 96q9 21 16.5 43t10.5 33l3 12l62 -1q-13 -50 -36 -99q-12 -24 -25 -45.5t-20 -30.5l-7 -9z" />
    <glyph glyph-name="Rcaron" unicode="&#x158;" horiz-adv-x="660" 
d="M562 876l-124 -112h-71l-84 112h67l57 -70l82 70h73zM30 0l126 711h240q148 0 204 -46.5t33 -173.5q-16 -96 -60.5 -141.5t-127.5 -59.5l112 -290h-72l-104 283q-18 -1 -59 -1h-174l-50 -282h-68zM213 649l-54 -305l165 -1q55 0 90 5t69 20.5t54 48t29 83.5q4 23 4 41.5
t-2.5 32.5t-9.5 25.5t-15.5 19t-22 13.5t-27 9t-32.5 5t-36.5 2.5t-41.5 0.5h-170z" />
    <glyph glyph-name="rcaron" unicode="&#x159;" horiz-adv-x="370" 
d="M428 768l-132 -134h-64l-81 134h63l57 -86l87 86h70zM43 0l68 384l17 151h58l-7 -102q10 17 25 33.5t40 36t63.5 31t83.5 11.5l-7 -62q-48 0 -88 -16.5t-65.5 -43.5t-39 -47t-23.5 -40l-59 -336h-66z" />
    <glyph glyph-name="Sacute" unicode="&#x15a;" horiz-adv-x="633" 
d="M354 766l93 114h74l-104 -114h-63zM547 174q-33 -194 -291 -191q-127 1 -186 58.5t-39 173.5l67 -2q-30 -168 164 -169q95 -1 151 34.5t67 101.5q7 38 -7.5 65.5t-43.5 42t-67 27.5t-78.5 21.5t-78 24.5t-65.5 36t-40.5 56.5t-3.5 85.5q16 89 85.5 138t192.5 48
q137 -1 185.5 -55.5t30.5 -154.5l-66 1q8 26 4 52.5t-16 47t-48 34t-93 14.5q-99 1 -149 -36.5t-60 -95.5q-7 -37 7.5 -64t43.5 -41.5t67 -27.5t78.5 -22t78 -25t65.5 -36t41 -56.5t4 -85.5z" />
    <glyph glyph-name="sacute" unicode="&#x15b;" horiz-adv-x="532" 
d="M296 634l96 136h69l-109 -136h-56zM460 136q-26 -150 -240 -147q-106 1 -156.5 48t-34.5 134l65 -2q-10 -58 22 -89t106 -32q156 -3 173 99q6 30 -10 50.5t-45.5 30.5t-66.5 17.5t-74 17.5t-66 24.5t-44 44t-8 71.5q11 68 69.5 106t161.5 37q102 -1 146.5 -45t30.5 -126
l-65 1q9 53 -16.5 82.5t-99.5 30.5q-78 1 -116.5 -26.5t-45.5 -70.5q-7 -38 26.5 -59t84.5 -30.5t101.5 -22.5t81.5 -48.5t20 -95.5z" />
    <glyph glyph-name="Scircumflex" unicode="&#x15c;" horiz-adv-x="633" 
d="M527 766h-68l-58 70l-81 -70h-72l123 112h70zM547 174q-33 -194 -291 -191q-127 1 -186 58.5t-39 173.5l67 -2q-30 -168 164 -169q95 -1 151 34.5t67 101.5q7 38 -7.5 65.5t-43.5 42t-67 27.5t-78.5 21.5t-78 24.5t-65.5 36t-40.5 56.5t-3.5 85.5q16 89 85.5 138
t192.5 48q137 -1 185.5 -55.5t30.5 -154.5l-66 1q8 26 4 52.5t-16 47t-48 34t-93 14.5q-99 1 -149 -36.5t-60 -95.5q-7 -37 7.5 -64t43.5 -41.5t67 -27.5t78.5 -22t78 -25t65.5 -36t41 -56.5t4 -85.5z" />
    <glyph glyph-name="scircumflex" unicode="&#x15d;" horiz-adv-x="532" 
d="M468 634h-65l-57 87l-87 -87h-68l129 134h64zM460 136q-26 -150 -240 -147q-106 1 -156.5 48t-34.5 134l65 -2q-10 -58 22 -89t106 -32q156 -3 173 99q6 30 -10 50.5t-45.5 30.5t-66.5 17.5t-74 17.5t-66 24.5t-44 44t-8 71.5q11 68 69.5 106t161.5 37q102 -1 146.5 -45
t30.5 -126l-65 1q9 53 -16.5 82.5t-99.5 30.5q-78 1 -116.5 -26.5t-45.5 -70.5q-7 -38 26.5 -59t84.5 -30.5t101.5 -22.5t81.5 -48.5t20 -95.5z" />
    <glyph glyph-name="Scedilla" unicode="&#x15e;" horiz-adv-x="633" 
d="M323 -152q-8 -45 -38 -62t-93 -17q-17 0 -32.5 1.5t-22.5 3.5l-7 2l5 40q15 -4 41 -4q40 0 59.5 11t24.5 39q4 24 -15.5 33t-59.5 9h-8l50 80q-113 7 -164 64.5t-32 166.5l67 -2q-30 -168 164 -169q95 -1 151 34.5t67 101.5q7 38 -7.5 65.5t-43.5 42t-67 27.5t-78.5 21.5
t-78 24.5t-65.5 36t-40.5 56.5t-3.5 85.5q16 89 85.5 138t192.5 48q137 -1 185.5 -55.5t30.5 -154.5l-66 1q8 26 4 52.5t-16 47t-48 34t-93 14.5q-99 1 -149 -36.5t-60 -95.5q-7 -37 7.5 -64t43.5 -41.5t67 -27.5t78.5 -22t78 -25t65.5 -36t41 -56.5t4 -85.5
q-31 -181 -257 -190l-35 -56q80 -11 68 -80z" />
    <glyph glyph-name="scedilla" unicode="&#x15f;" horiz-adv-x="532" 
d="M290 -137q-8 -45 -38 -62t-93 -17q-17 0 -32.5 2t-22.5 4l-7 1l5 40q15 -4 41 -4q40 0 59.5 11t24.5 39q4 24 -15.5 33t-59.5 9h-8l44 72q-90 7 -132 53.5t-27 126.5l65 -2q-10 -58 22 -89t106 -32q156 -3 173 99q6 30 -10 50.5t-45.5 30.5t-66.5 17.5t-74 17.5t-66 24.5
t-44 44t-8 71.5q11 68 69.5 106t161.5 37q102 -1 146.5 -45t30.5 -126l-65 1q9 53 -16.5 82.5t-99.5 30.5q-78 1 -116.5 -26.5t-45.5 -70.5q-7 -38 26.5 -59t84.5 -30.5t101.5 -22.5t81.5 -48.5t20 -95.5q-24 -139 -208 -146l-30 -47q80 -11 68 -80z" />
    <glyph glyph-name="Scaron" unicode="&#x160;" horiz-adv-x="633" 
d="M548 878l-124 -112h-71l-84 112h67l57 -70l82 70h73zM547 174q-33 -194 -291 -191q-127 1 -186 58.5t-39 173.5l67 -2q-30 -168 164 -169q95 -1 151 34.5t67 101.5q7 38 -7.5 65.5t-43.5 42t-67 27.5t-78.5 21.5t-78 24.5t-65.5 36t-40.5 56.5t-3.5 85.5q16 89 85.5 138
t192.5 48q137 -1 185.5 -55.5t30.5 -154.5l-66 1q8 26 4 52.5t-16 47t-48 34t-93 14.5q-99 1 -149 -36.5t-60 -95.5q-7 -37 7.5 -64t43.5 -41.5t67 -27.5t78.5 -22t78 -25t65.5 -36t41 -56.5t4 -85.5z" />
    <glyph glyph-name="scaron" unicode="&#x161;" horiz-adv-x="532" 
d="M494 768l-132 -134h-64l-81 134h63l57 -86l87 86h70zM460 136q-26 -150 -240 -147q-106 1 -156.5 48t-34.5 134l65 -2q-10 -58 22 -89t106 -32q156 -3 173 99q6 30 -10 50.5t-45.5 30.5t-66.5 17.5t-74 17.5t-66 24.5t-44 44t-8 71.5q11 68 69.5 106t161.5 37
q102 -1 146.5 -45t30.5 -126l-65 1q9 53 -16.5 82.5t-99.5 30.5q-78 1 -116.5 -26.5t-45.5 -70.5q-7 -38 26.5 -59t84.5 -30.5t101.5 -22.5t81.5 -48.5t20 -95.5z" />
    <glyph glyph-name="uni0162" unicode="&#x162;" horiz-adv-x="488" 
d="M237 -138q-8 -45 -38 -62t-93 -17q-17 0 -32.5 1.5t-22.5 3.5l-7 2l5 40q15 -4 41 -4q40 0 59.5 11t24.5 39q4 24 -15.5 33t-59.5 9h-8l52 83l117 644h-231l11 63h531l-10 -63h-233l-117 -645h-5l-37 -58q80 -11 68 -80z" />
    <glyph glyph-name="uni0163" unicode="&#x163;" horiz-adv-x="307" 
d="M210 -126q-8 -45 -38 -62t-93 -17q-17 0 -32.5 1.5t-22.5 3.5l-7 2l5 40q15 -4 41 -4q40 0 59.5 11t24.5 39q4 24 -15.5 33t-59.5 9h-8l52 82q-24 11 -37.5 30t-16.5 47t-1 53.5t9 64.5l47 269h-67l10 59h68l28 158l69 13l-30 -171h140l-11 -59h-140l-48 -273
q-8 -45 -8.5 -76.5t19.5 -49t64 -17.5h43l-12 -62h-41q-12 0 -30 2l-29 -46q80 -11 68 -80z" />
    <glyph glyph-name="Tcaron" unicode="&#x164;" horiz-adv-x="488" 
d="M477 876l-124 -112h-71l-84 112h67l57 -70l82 70h73zM143 0l117 645h-231l11 63h531l-10 -63h-233l-117 -645h-68z" />
    <glyph glyph-name="tcaron" unicode="&#x165;" horiz-adv-x="307" 
d="M261 601l74 143h61l-91 -143h-44zM242 -2h-41q-45 0 -74.5 11t-44 28t-19 46.5t-2.5 56t9 67.5l47 269h-67l10 59h68l28 158l69 13l-30 -171h140l-11 -59h-140l-48 -273q-8 -45 -8.5 -76.5t19.5 -49t64 -17.5h43z" />
    <glyph glyph-name="Tbar" unicode="&#x166;" horiz-adv-x="488" 
d="M143 0l57 313h-99l9 51h99l51 281h-231l11 63h531l-10 -63h-233l-51 -281h103l-8 -51h-104l-57 -313h-68z" />
    <glyph glyph-name="tbar" unicode="&#x167;" horiz-adv-x="307" 
d="M145 256l-9 -53q-8 -45 -8.5 -76.5t19.5 -49t64 -17.5h43l-12 -62h-41q-45 0 -74.5 11t-44 28t-19 46.5t-2.5 56t9 67.5l8 49h-67l9 51h67l30 169h-67l10 59h68l28 158l69 13l-30 -171h140l-11 -59h-140l-30 -169h136l-8 -51h-137z" />
    <glyph glyph-name="Utilde" unicode="&#x168;" horiz-adv-x="680" 
d="M556 861q-4 -20 -8.5 -33.5t-14.5 -30t-27.5 -25t-42.5 -8.5q-37 0 -57.5 23t-40.5 23q-16 0 -28 -10t-16.5 -19.5t-6.5 -19.5l-48 5q16 97 93 97q23 0 38 -7t20.5 -16t15.5 -16t24 -7q24 0 36.5 16.5t14.5 33.5zM604 345q-13 -74 -28 -125.5t-39.5 -99.5t-58.5 -76
t-84.5 -44.5t-117.5 -16.5q-68 0 -114 17t-71 46t-33.5 77t-5 101t16.5 126l63 358h67l-63 -359q-32 -153 -2 -227.5t146 -74.5q117 0 172 72t84 233l63 356h69z" />
    <glyph glyph-name="utilde" unicode="&#x169;" horiz-adv-x="600" 
d="M520 732q-18 -98 -92 -98q-22 0 -38 7.5t-22.5 17t-17.5 17t-24 7.5q-22 0 -34 -16.5t-16 -33.5l-47 5q5 27 12 45t27.5 35t52.5 17q28 0 44.5 -12t28 -24t27.5 -12q23 0 35 16.5t16 33.5zM421 0l5 102q-11 -16 -26.5 -32t-42 -35t-66 -31t-84.5 -12q-93 0 -127 53
t-13 175l56 315h66l-57 -322q-14 -82 7.5 -120.5t92.5 -38.5q51 0 97 26t67 50t38 50l62 355h66l-68 -387l-16 -148h-57z" />
    <glyph glyph-name="Umacron" unicode="&#x16a;" horiz-adv-x="680" 
d="M299 841h234l-10 -54h-234zM604 345q-13 -74 -28 -125.5t-39.5 -99.5t-58.5 -76t-84.5 -44.5t-117.5 -16.5q-68 0 -114 17t-71 46t-33.5 77t-5 101t16.5 126l63 358h67l-63 -359q-32 -153 -2 -227.5t146 -74.5q117 0 172 72t84 233l63 356h69z" />
    <glyph glyph-name="umacron" unicode="&#x16b;" horiz-adv-x="600" 
d="M262 712h234l-9 -50h-234zM421 0l5 102q-11 -16 -26.5 -32t-42 -35t-66 -31t-84.5 -12q-93 0 -127 53t-13 175l56 315h66l-57 -322q-14 -82 7.5 -120.5t92.5 -38.5q51 0 97 26t67 50t38 50l62 355h66l-68 -387l-16 -148h-57z" />
    <glyph glyph-name="Ubreve" unicode="&#x16c;" horiz-adv-x="680" 
d="M550 862q-6 -37 -43.5 -69t-100.5 -32q-66 0 -95 32t-23 69h58q-3 -20 13.5 -37.5t46.5 -17.5q32 0 57.5 17.5t28.5 37.5h58zM604 345q-13 -74 -28 -125.5t-39.5 -99.5t-58.5 -76t-84.5 -44.5t-117.5 -16.5q-68 0 -114 17t-71 46t-33.5 77t-5 101t16.5 126l63 358h67
l-63 -359q-32 -153 -2 -227.5t146 -74.5q117 0 172 72t84 233l63 356h69z" />
    <glyph glyph-name="ubreve" unicode="&#x16d;" horiz-adv-x="600" 
d="M517 744q-8 -39 -46.5 -75t-101.5 -36q-65 0 -94 36.5t-22 74.5h58q-4 -21 12.5 -43t46.5 -22q32 0 59 22t30 43h58zM421 0l5 102q-11 -16 -26.5 -32t-42 -35t-66 -31t-84.5 -12q-93 0 -127 53t-13 175l56 315h66l-57 -322q-14 -82 7.5 -120.5t92.5 -38.5q51 0 97 26
t67 50t38 50l62 355h66l-68 -387l-16 -148h-57z" />
    <glyph glyph-name="Uring" unicode="&#x16e;" horiz-adv-x="680" 
d="M502 836q-6 -36 -32 -57.5t-65 -21.5q-42 0 -63 24t-13 63q6 37 31.5 58t65.5 21q42 0 63 -24t13 -63zM376 837q-6 -37 29 -37q19 0 32.5 12t17.5 31q6 37 -29 37q-19 0 -33 -12t-17 -31zM604 345q-13 -74 -28 -125.5t-39.5 -99.5t-58.5 -76t-84.5 -44.5t-117.5 -16.5
q-68 0 -114 17t-71 46t-33.5 77t-5 101t16.5 126l63 358h67l-63 -359q-32 -153 -2 -227.5t146 -74.5q117 0 172 72t84 233l63 356h69z" />
    <glyph glyph-name="uring" unicode="&#x16f;" horiz-adv-x="600" 
d="M465 703q-6 -36 -31.5 -57t-65.5 -21q-42 0 -63 24t-13 63q6 36 31.5 57t65.5 21q42 0 62.5 -24t13.5 -63zM338 704q-2 -17 6 -26.5t24 -9.5q19 0 32.5 11.5t17.5 31.5q6 36 -30 36q-19 0 -32.5 -12t-17.5 -31zM421 0l5 102q-11 -16 -26.5 -32t-42 -35t-66 -31t-84.5 -12
q-93 0 -127 53t-13 175l56 315h66l-57 -322q-14 -82 7.5 -120.5t92.5 -38.5q51 0 97 26t67 50t38 50l62 355h66l-68 -387l-16 -148h-57z" />
    <glyph glyph-name="Uhungarumlaut" unicode="&#x170;" horiz-adv-x="680" 
d="M289 765l87 113h74l-98 -113h-63zM424 765l99 113h74l-110 -113h-63zM604 345q-13 -74 -28 -125.5t-39.5 -99.5t-58.5 -76t-84.5 -44.5t-117.5 -16.5q-68 0 -114 17t-71 46t-33.5 77t-5 101t16.5 126l63 358h67l-63 -359q-32 -153 -2 -227.5t146 -74.5q117 0 172 72
t84 233l63 356h69z" />
    <glyph glyph-name="uhungarumlaut" unicode="&#x171;" horiz-adv-x="600" 
d="M251 634l90 136h74l-103 -136h-61zM386 634l103 136h74l-116 -136h-61zM421 0l5 102q-11 -16 -26.5 -32t-42 -35t-66 -31t-84.5 -12q-93 0 -127 53t-13 175l56 315h66l-57 -322q-14 -82 7.5 -120.5t92.5 -38.5q51 0 97 26t67 50t38 50l62 355h66l-68 -387l-16 -148h-57z
" />
    <glyph glyph-name="Uogonek" unicode="&#x172;" horiz-adv-x="680" 
d="M273 -83q5 36 41 68q-24 -2 -38 -2q-68 0 -114 17t-70.5 46t-33.5 77.5t-5.5 100.5t16.5 126l63 358h67l-63 -359q-32 -153 -2 -227.5t146 -74.5q117 0 172 72t84 233l63 356h69l-64 -363q-26 -144 -66.5 -224.5t-122.5 -114.5q-67 -39 -74 -84q-7 -37 29 -37
q11 0 24 3.5t20 6.5l8 3l-5 -41q-25 -20 -71 -20q-43 0 -61 22.5t-12 57.5z" />
    <glyph glyph-name="uogonek" unicode="&#x173;" horiz-adv-x="600" 
d="M312 -104q5 29 31.5 57t44.5 38.5t33 17.5l5 93q-11 -16 -26.5 -32t-42 -35t-66 -31t-84.5 -12q-93 0 -127 53t-13 175l56 315h66l-57 -322q-14 -82 7.5 -120.5t92.5 -38.5q51 0 97 26t67 50t38 50l62 355h66l-68 -387l-16 -149q-15 -7 -33 -18t-39.5 -34t-25.5 -46
q-7 -37 29 -37q11 0 24 3t21 7l7 3l-5 -41q-25 -20 -71 -20q-43 0 -61 22.5t-12 57.5z" />
    <glyph glyph-name="Wcircumflex" unicode="&#x174;" horiz-adv-x="923" 
d="M671 764h-68l-58 70l-81 -70h-72l123 112h70zM507 633l-280 -633h-80l-88 708h73l66 -640l281 640h78l60 -642l287 642h75l-334 -708h-79z" />
    <glyph glyph-name="wcircumflex" unicode="&#x175;" horiz-adv-x="778" 
d="M590 634h-65l-57 87l-87 -87h-68l129 134h64zM420 464l-218 -464h-75l-76 535h70l53 -468l219 468h77l59 -469l214 469h73l-260 -535h-77z" />
    <glyph glyph-name="Ycircumflex" unicode="&#x176;" horiz-adv-x="551" 
d="M479 764h-68l-58 70l-81 -70h-72l123 112h70zM176 0l42 237l-170 471h76l136 -413l275 413h81l-330 -473h-2l-41 -235h-67z" />
    <glyph glyph-name="ycircumflex" unicode="&#x177;" horiz-adv-x="489" 
d="M442 634h-65l-57 87l-87 -87h-68l129 134h64zM62 -223l116 223h-25l-106 535h70l87 -485l252 485h73l-402 -758h-65z" />
    <glyph glyph-name="Ydieresis" unicode="&#x178;" horiz-adv-x="551" 
d="M228 764l22 122h67l-22 -122h-67zM383 764l22 122h67l-23 -122h-66zM176 0l42 237l-170 471h76l136 -413l275 413h81l-330 -473h-2l-41 -235h-67z" />
    <glyph glyph-name="Zacute" unicode="&#x179;" horiz-adv-x="551" 
d="M318 764l93 114h74l-104 -114h-63zM-39 4l9 58l512 584h-388l9 58h473l-10 -58l-513 -584h414l-11 -58h-495z" />
    <glyph glyph-name="zacute" unicode="&#x17a;" horiz-adv-x="464" 
d="M266 634l96 136h69l-109 -136h-56zM-15 4l5 26l5 34l386 408l-303 -1l11 60h380l-7 -36l-3 -23l-386 -408h313l-11 -60h-390z" />
    <glyph glyph-name="Zdotaccent" unicode="&#x17b;" horiz-adv-x="551" 
d="M318 764l22 122h67l-22 -122h-67zM-39 4l9 58l512 584h-388l9 58h473l-10 -58l-513 -584h414l-11 -58h-495z" />
    <glyph glyph-name="zdotaccent" unicode="&#x17c;" horiz-adv-x="464" 
d="M269 642l20 113h66l-19 -113h-67zM-15 4l5 26l5 34l386 408l-303 -1l11 60h380l-7 -36l-3 -23l-386 -408h313l-11 -60h-390z" />
    <glyph glyph-name="Zcaron" unicode="&#x17d;" horiz-adv-x="551" 
d="M512 876l-124 -112h-71l-84 112h67l57 -70l82 70h73zM-39 4l9 58l512 584h-388l9 58h473l-10 -58l-513 -584h414l-11 -58h-495z" />
    <glyph glyph-name="zcaron" unicode="&#x17e;" horiz-adv-x="464" 
d="M464 768l-132 -134h-64l-81 134h63l57 -86l87 86h70zM-15 4l5 26l5 34l386 408l-303 -1l11 60h380l-7 -36l-3 -23l-386 -408h313l-11 -60h-390z" />
    <glyph glyph-name="uni018F" unicode="&#x18f;" horiz-adv-x="711" 
d="M646 349q-33 -185 -114 -275.5t-238 -90.5q-161 0 -212 93.5t-17 282.5h514q28 157 -9.5 231t-155.5 74q-180 0 -246 -173l-70 2q40 117 116 174.5t203 57.5q160 0 211 -94t18 -282zM298 47q110 0 173.5 60.5t94.5 188.5h-443q-15 -128 26 -188.5t149 -60.5z" />
    <glyph glyph-name="uni019D" unicode="&#x19d;" horiz-adv-x="743" 
d="M215 620l-111 -620q-11 -61 -24 -98t-36.5 -67t-61.5 -42.5t-95 -12.5h-51l10 54h46q71 0 102 35.5t48 130.5l129 708h70l299 -618l106 618h65l-125 -708h-70z" />
    <glyph glyph-name="Gcaron" unicode="&#x1e6;" horiz-adv-x="673" 
d="M582 878l-124 -112h-71l-84 112h67l57 -70l82 70h73zM557 80q-1 -4 -11.5 -14.5t-33 -24.5t-52.5 -27t-75.5 -22t-95.5 -9q-156 0 -206.5 93t-17.5 281q33 186 113 277t234 91q127 0 182.5 -65.5t36.5 -170.5l-64 2q12 75 -29.5 123t-129.5 48q-116 0 -181.5 -76.5
t-93.5 -234.5q-29 -159 7.5 -233.5t153.5 -74.5q56 0 106.5 15.5t75 31.5t25.5 25l28 166h-153l10 62h217z" />
    <glyph glyph-name="gcaron" unicode="&#x1e7;" horiz-adv-x="640" 
d="M550 768l-132 -134h-64l-81 134h63l57 -86l87 86h70zM495 -4q-6 -32 -10 -50t-13.5 -46.5t-20.5 -45t-31 -37t-45 -31.5t-62 -18.5t-82 -7.5q-63 0 -104.5 19.5t-56.5 47.5t-20.5 55.5t-1.5 47.5l3 19h70v-1q-2 -10 -3 -19.5t2.5 -32t13.5 -38.5t36 -29t65 -13
q44 0 77 10.5t52.5 26.5t33.5 43t20 50t12 58l11 64q-66 -77 -189 -77q-213 0 -164 278q48 275 250 275q53 0 94 -19.5t56.5 -37.5t25.5 -36l27 84h58l-33 -135zM267 52q118 0 187 93l44 250q-40 89 -148 89q-158 0 -198 -222q-37 -210 115 -210z" />
    <glyph glyph-name="uni01EA" unicode="&#x1ea;" horiz-adv-x="711" 
d="M300 -80q5 34 38 65q-28 -2 -43 -2q-161 0 -212.5 93.5t-18.5 280.5q33 186 114.5 277t238.5 91q160 0 211.5 -94t18.5 -282q-24 -136 -72.5 -219.5t-131.5 -119.5q-68 -40 -75 -85q-7 -37 29 -37q11 0 24 3t21 7l7 3l-5 -41q-25 -20 -71 -20q-43 0 -61 22.5t-12 57.5z
M132 352q-29 -159 8.5 -232.5t157.5 -73.5q121 0 187 75t94 234q29 159 -8.5 233t-156.5 74q-121 0 -187.5 -76t-94.5 -234z" />
    <glyph glyph-name="uni01EB" unicode="&#x1eb;" horiz-adv-x="582" 
d="M210 -89q6 41 53 78h-17q-131 0 -172.5 71t-16.5 210q24 138 87 207t192 69q90 0 138.5 -35t56.5 -98t-6 -151q-17 -99 -53 -161t-101 -90q-85 -45 -93 -95q-7 -37 29 -37q11 0 24 3.5t21 6.5l7 3l-5 -41q-25 -20 -71 -20q-43 0 -61 22.5t-12 57.5zM123 263
q-20 -114 7 -165.5t119 -51.5q94 0 141.5 54t67.5 169q20 114 -6.5 167t-117.5 53q-94 0 -142 -55t-69 -171z" />
    <glyph glyph-name="Aringacute" unicode="&#x1fa;" horiz-adv-x="634" 
d="M393 971l93 114h74l-104 -114h-63zM490 836q-6 -36 -32 -57.5t-65 -21.5q-42 0 -63 24t-13 63q6 37 31.5 58t65.5 21q42 0 63 -24t13 -63zM364 837q-6 -37 29 -37q19 0 32.5 12t17.5 31q6 37 -29 37q-19 0 -33 -12t-17 -31zM-58 0l401 708h72l151 -708h-73l-36 184h-340
l-100 -184h-75zM152 248h293l-77 395z" />
    <glyph glyph-name="aringacute" unicode="&#x1fb;" horiz-adv-x="590" 
d="M366 830l96 136h69l-109 -136h-56zM458 703q-6 -36 -31.5 -57t-65.5 -21q-42 0 -63 24t-13 63q6 36 31.5 57t65.5 21q42 0 62.5 -24t13.5 -63zM331 704q-2 -17 6 -26.5t24 -9.5q19 0 32.5 11.5t17.5 31.5q6 36 -30 36q-19 0 -32.5 -12t-17.5 -31zM407 1l3 67
q-83 -79 -208 -79q-190 0 -161 168q16 92 79 129.5t173 37.5q89 0 152 -10q12 62 10 101t-29 56t-89 17q-88 0 -128 -35t-47 -81l-61 1q32 171 235 171q103 0 146.5 -35.5t39 -96.5t-17.5 -142q-1 -5 -1 -7l-23 -128l-13 -134h-60zM215 47q71 0 126 30.5t75 69.5l20 114
q-48 6 -128 6q-91 0 -139.5 -24.5t-58.5 -85.5q-20 -110 105 -110z" />
    <glyph glyph-name="AEacute" unicode="&#x1fc;" horiz-adv-x="913" 
d="M487 764l93 114h74l-104 -114h-63zM-58 0l509 708h483l-11 -63h-377l-44 -246h328l-11 -61h-328l-48 -275h382l-11 -63h-450l34 192h-242l-136 -192h-78zM408 251l70 393l-280 -393h210z" />
    <glyph glyph-name="aeacute" unicode="&#x1fd;" horiz-adv-x="939" 
d="M526 634l96 136h69l-109 -136h-56zM861 158q-5 -25 -18 -50t-40 -54t-77 -47t-117 -18q-144 0 -182 96q-84 -96 -225 -96q-190 0 -161 168q16 92 78 126.5t173 34.5h139q8 35 23 69q2 55 -24.5 78t-92.5 23q-88 0 -128 -35t-47 -81l-61 1q32 171 235 171q138 0 165 -78
q69 80 198 80q125 0 167.5 -69.5t15.5 -221.5h-397q-18 -108 11.5 -158t115.5 -50q85 0 129.5 36t51.5 75h68zM696 489q-80 0 -127 -43t-71 -132h326q8 93 -23 134t-105 41zM413 151q-4 46 7 111q-24 -1 -114 -1q-93 0 -139.5 -22t-56.5 -82q-20 -110 105 -110
q73 0 126.5 32t71.5 72z" />
    <glyph glyph-name="Oslashacute" unicode="&#x1fe;" horiz-adv-x="711" 
d="M414 764l93 114h74l-104 -114h-63zM-6 -7l82 95q-43 89 -12 269q33 186 114.5 277t238.5 91q106 0 167 -45l34 39h93l-80 -93q49 -90 16 -277q-33 -185 -114 -275.5t-238 -90.5q-114 0 -174 48l-33 -38h-94zM132 352q-24 -131 -4 -202l411 477q-44 35 -125 35
q-121 0 -187.5 -76t-94.5 -234zM579 355q24 138 0 211l-412 -481q43 -39 131 -39q121 0 187 75t94 234z" />
    <glyph glyph-name="oslashacute" unicode="&#x1ff;" horiz-adv-x="582" 
d="M320 627l96 136h69l-109 -136h-56zM-23 -29l90 100q-34 68 -10 199q24 138 87 207t192 69q82 0 131 -30l45 50h91l-90 -100q36 -68 12 -204q-24 -137 -87 -205t-192 -68q-86 0 -134 31l-44 -49h-91zM123 263q-16 -89 -5 -135l305 339q-33 22 -89 22q-94 0 -142 -55
t-69 -171zM458 269q16 93 4 140l-306 -341q31 -22 93 -22q94 0 141.5 54t67.5 169z" />
    <glyph glyph-name="Scommaaccent" unicode="&#x218;" horiz-adv-x="633" 
d="M547 174q-33 -194 -291 -191q-127 1 -186 58.5t-39 173.5l67 -2q-30 -168 164 -169q95 -1 151 34.5t67 101.5q7 38 -7.5 65.5t-43.5 42t-67 27.5t-78.5 21.5t-78 24.5t-65.5 36t-40.5 56.5t-3.5 85.5q16 89 85.5 138t192.5 48q137 -1 185.5 -55.5t30.5 -154.5l-66 1
q8 26 4 52.5t-16 47t-48 34t-93 14.5q-99 1 -149 -36.5t-60 -95.5q-7 -37 7.5 -64t43.5 -41.5t67 -27.5t78.5 -22t78 -25t65.5 -36t41 -56.5t4 -85.5zM163 -238q25 41 47 96q9 21 16.5 43t10.5 33l3 12l62 -1q-13 -50 -36 -99q-12 -24 -25 -45.5t-20 -30.5l-7 -9z" />
    <glyph glyph-name="scommaaccent" unicode="&#x219;" horiz-adv-x="532" 
d="M460 136q-26 -150 -240 -147q-106 1 -156.5 48t-34.5 134l65 -2q-10 -58 22 -89t106 -32q156 -3 173 99q6 30 -10 50.5t-45.5 30.5t-66.5 17.5t-74 17.5t-66 24.5t-44 44t-8 71.5q11 68 69.5 106t161.5 37q102 -1 146.5 -45t30.5 -126l-65 1q9 53 -16.5 82.5t-99.5 30.5
q-78 1 -116.5 -26.5t-45.5 -70.5q-7 -38 26.5 -59t84.5 -30.5t101.5 -22.5t81.5 -48.5t20 -95.5zM130 -223q25 41 47 96q9 21 16.5 43t10.5 34l3 11l62 -1q-13 -50 -36 -99q-12 -24 -25 -45.5t-20 -30.5l-7 -9z" />
    <glyph glyph-name="uni021A" unicode="&#x21a;" horiz-adv-x="487" 
d="M143 0l117 645h-231l11 63h531l-10 -63h-233l-117 -645h-68zM62 -224q24 41 47 96l30 88l62 -1q-13 -50 -36 -99q-12 -24 -25 -45t-20 -31l-7 -9z" />
    <glyph glyph-name="uni021B" unicode="&#x21b;" horiz-adv-x="307" 
d="M242 -2h-41q-45 0 -74.5 11t-44 28t-19 46.5t-2.5 56t9 67.5l47 269h-67l10 59h68l28 158l69 13l-30 -171h140l-11 -59h-140l-48 -273q-8 -45 -8.5 -76.5t19.5 -49t64 -17.5h43zM50 -212q25 41 47 96q9 21 16.5 43t10.5 33l3 12l62 -1q-13 -50 -36 -99q-12 -24 -25 -45
t-20 -31l-7 -9z" />
    <glyph glyph-name="uni0232" unicode="&#x232;" horiz-adv-x="551" 
d="M236 841h234l-10 -54h-234zM176 0l42 237l-170 471h76l136 -413l275 413h81l-330 -473h-2l-41 -235h-67z" />
    <glyph glyph-name="uni0233" unicode="&#x233;" horiz-adv-x="489" 
d="M201 712h234l-9 -50h-234zM62 -223l116 223h-25l-106 535h70l87 -485l252 485h73l-402 -758h-65z" />
    <glyph glyph-name="uni0237" unicode="&#x237;" horiz-adv-x="253" 
d="M119 41q-7 -40 -11 -60t-12.5 -48.5t-18 -42t-25 -30t-36.5 -24t-50 -12.5t-67 -5l7 63q35 0 59 7t38 16.5t24 33.5t15 44t12 62l87 490h66z" />
    <glyph glyph-name="uni0259" unicode="&#x259;" horiz-adv-x="575" 
d="M519 264q-24 -135 -88.5 -205t-188.5 -70q-126 0 -168 68t-16 217h394q20 112 -8 163t-115 51q-85 0 -129.5 -36.5t-52.5 -76.5h-67q5 25 18 50.5t39.5 54.5t76.5 47.5t117 18.5q128 0 170 -72t18 -210zM244 46q79 0 125.5 42t69.5 128h-323q-7 -90 23.5 -130t104.5 -40z
" />
    <glyph glyph-name="uni0272" unicode="&#x272;" horiz-adv-x="600" 
d="M119 53q-7 -40 -11 -60t-12.5 -48.5t-18 -42t-25 -30t-36.5 -24t-50 -12.5t-67 -5l5 59q70 0 99 24.5t40 85.5l71 396l14 139h57l-5 -90q77 98 214 98q93 0 126.5 -53t12.5 -177l-55 -313h-66l57 321q15 83 -7 121.5t-94 38.5q-113 0 -193 -107z" />
    <glyph glyph-name="circumflex" unicode="&#x2c6;" horiz-adv-x="394" 
d="M342 634h-65l-57 87l-87 -87h-68l129 134h64z" />
    <glyph glyph-name="caron" unicode="&#x2c7;" horiz-adv-x="395" 
d="M343 768l-132 -134h-64l-81 134h63l57 -86l87 86h70z" />
    <glyph glyph-name="breve" unicode="&#x2d8;" horiz-adv-x="386" 
d="M319 744q-8 -39 -46.5 -75t-101.5 -36q-65 0 -94 36.5t-22 74.5h58q-4 -21 12.5 -43t46.5 -22q32 0 59 22t30 43h58z" />
    <glyph glyph-name="dotaccent" unicode="&#x2d9;" horiz-adv-x="256" 
d="M57 642l20 113h66l-19 -113h-67z" />
    <glyph glyph-name="ring" unicode="&#x2da;" horiz-adv-x="338" 
d="M238 703q-6 -36 -31.5 -57t-65.5 -21q-42 0 -63 24t-13 63q6 36 31.5 57t65.5 21q42 0 62.5 -24t13.5 -63zM111 704q-2 -17 6 -26.5t24 -9.5q19 0 32.5 11.5t17.5 31.5q6 36 -30 36q-19 0 -32.5 -12t-17.5 -31z" />
    <glyph glyph-name="ogonek" unicode="&#x2db;" horiz-adv-x="346" 
d="M30 -103q5 31 33 59.5t53 41.5l25 13l61 -8q-4 -2 -10.5 -5t-23.5 -14t-30 -22t-25 -27.5t-15 -32.5q-7 -37 29 -37q11 0 24 3.5t21 6.5l7 3l-5 -41q-25 -20 -71 -20q-43 0 -61 22.5t-12 57.5z" />
    <glyph glyph-name="tilde" unicode="&#x2dc;" horiz-adv-x="414" 
d="M355 732q-18 -98 -92 -98q-22 0 -38 7.5t-22.5 17t-17.5 17t-24 7.5q-22 0 -34 -16.5t-16 -33.5l-47 5q5 27 12 45t27.5 35t52.5 17q28 0 44.5 -12t28 -24t27.5 -12q23 0 35 16.5t16 33.5z" />
    <glyph glyph-name="hungarumlaut" unicode="&#x2dd;" horiz-adv-x="400" 
d="M58 634l90 136h74l-103 -136h-61zM193 634l103 136h74l-116 -136h-61z" />
    <glyph glyph-name="gravecomb" unicode="&#x300;" 
d="M-56 634h-55l-60 136h66z" />
    <glyph glyph-name="acutecomb" unicode="&#x301;" 
d="M-216 634l96 136h69l-109 -136h-56z" />
    <glyph glyph-name="uni0302" unicode="&#x302;" 
d="M-66 634h-65l-57 87l-87 -87h-68l129 134h64z" />
    <glyph glyph-name="tildecomb" unicode="&#x303;" 
d="M-63 732q-18 -98 -92 -98q-22 0 -38 7.5t-22.5 17t-17.5 17t-24 7.5q-22 0 -34 -16.5t-16 -33.5l-47 5q5 27 12 45t27.5 35t52.5 17q28 0 44.5 -12t28 -24t27.5 -12q23 0 35 16.5t16 33.5z" />
    <glyph glyph-name="uni0304" unicode="&#x304;" 
d="M-294 712h234l-9 -50h-234z" />
    <glyph glyph-name="uni0306" unicode="&#x306;" 
d="M-54 744q-8 -39 -46.5 -75t-101.5 -36q-65 0 -94 36.5t-22 74.5h58q-4 -21 12.5 -43t46.5 -22q32 0 59 22t30 43h58z" />
    <glyph glyph-name="uni0307" unicode="&#x307;" 
d="M-142 642l20 113h66l-19 -113h-67z" />
    <glyph glyph-name="uni0308" unicode="&#x308;" 
d="M-297 634l22 121h62l-21 -121h-63zM-145 634l22 121h62l-21 -121h-63z" />
    <glyph glyph-name="uni030A" unicode="&#x30a;" 
d="M-62 703q-6 -36 -31.5 -57t-65.5 -21q-42 0 -63 24t-13 63q6 36 31.5 57t65.5 21q42 0 62.5 -24t13.5 -63zM-189 704q-2 -17 6 -26.5t24 -9.5q19 0 32.5 11.5t17.5 31.5q6 36 -30 36q-19 0 -32.5 -12t-17.5 -31z" />
    <glyph glyph-name="uni030B" unicode="&#x30b;" 
d="M-370 634l90 136h74l-103 -136h-61zM-235 634l103 136h74l-116 -136h-61z" />
    <glyph glyph-name="uni030C" unicode="&#x30c;" 
d="M-66 768l-132 -134h-64l-81 134h63l57 -86l87 86h70z" />
    <glyph glyph-name="uni0312" unicode="&#x312;" 
d="M-55 785q-30 -45 -56 -113q-12 -28 -20 -53t-10 -35l-2 -11l-63 2q9 44 38 109q14 30 29.5 55.5t24.5 36.5l8 11z" />
    <glyph glyph-name="dotbelowcomb" unicode="&#x323;" 
d="M-142 -178l19 106h66l-19 -106h-66z" />
    <glyph glyph-name="uni0326" unicode="&#x326;" 
d="M-225 -222q25 41 47 96q9 21 16.5 43t10.5 33l3 12l62 -1q-13 -50 -36 -99q-12 -24 -25 -45t-20 -31l-7 -9z" />
    <glyph glyph-name="uni0327" unicode="&#x327;" 
d="M-53 -136q-8 -45 -38 -62t-93 -17q-17 0 -32.5 1.5t-22.5 3.5l-7 2l5 40q15 -4 41 -4q40 0 59.5 11t24.5 39q4 24 -15.5 33t-59.5 9h-8l52 83h64l-38 -59q80 -11 68 -80z" />
    <glyph glyph-name="uni0328" unicode="&#x328;" 
d="M-275 -103q5 31 33 59.5t53 41.5l25 13l61 -8q-4 -2 -10.5 -5t-23.5 -14t-30 -22t-25 -27.5t-15 -32.5q-7 -37 29 -37q11 0 24 3.5t20 6.5l8 3l-5 -41q-25 -20 -71 -20q-43 0 -61 22.5t-12 57.5z" />
    <glyph glyph-name="uni0335" unicode="&#x335;" 
d="M-326 305l9 51h270l-8 -51h-271z" />
    <glyph glyph-name="uni0336" unicode="&#x336;" 
d="M-715 302l9 57h632l-9 -57h-632z" />
    <glyph glyph-name="uni0337" unicode="&#x337;" 
d="M-325 217l-17 44l273 150l17 -45z" />
    <glyph glyph-name="uni0338" unicode="&#x338;" 
d="M-558 83l535 595h91l-535 -595h-91z" />
    <glyph glyph-name="pi" unicode="&#x3c0;" horiz-adv-x="631" 
d="M480 484v-308q0 -60 14 -91t59 -31h15v-54h-17q-42 0 -68.5 12.5t-38.5 39t-15.5 53.5t-3.5 71v308h-233v-484h-55v484h-87v58h517v-58h-87z" />
    <glyph glyph-name="Wgrave" unicode="&#x1e80;" horiz-adv-x="923" 
d="M561 765h-59l-65 113h72zM507 633l-280 -633h-80l-88 708h73l66 -640l281 640h78l60 -642l287 642h75l-334 -708h-79z" />
    <glyph glyph-name="wgrave" unicode="&#x1e81;" horiz-adv-x="778" 
d="M475 634h-55l-60 136h66zM420 464l-218 -464h-75l-76 535h70l53 -468l219 468h77l59 -469l214 469h73l-260 -535h-77z" />
    <glyph glyph-name="Wacute" unicode="&#x1e82;" horiz-adv-x="923" 
d="M498 764l93 114h74l-104 -114h-63zM507 633l-280 -633h-80l-88 708h73l66 -640l281 640h78l60 -642l287 642h75l-334 -708h-79z" />
    <glyph glyph-name="wacute" unicode="&#x1e83;" horiz-adv-x="778" 
d="M418 634l96 136h69l-109 -136h-56zM420 464l-218 -464h-75l-76 535h70l53 -468l219 468h77l59 -469l214 469h73l-260 -535h-77z" />
    <glyph glyph-name="Wdieresis" unicode="&#x1e84;" horiz-adv-x="923" 
d="M420 764l22 122h67l-22 -122h-67zM575 764l22 122h67l-23 -122h-66zM507 633l-280 -633h-80l-88 708h73l66 -640l281 640h78l60 -642l287 642h75l-334 -708h-79z" />
    <glyph glyph-name="wdieresis" unicode="&#x1e85;" horiz-adv-x="778" 
d="M344 634l22 121h62l-21 -121h-63zM496 634l22 121h62l-21 -121h-63zM420 464l-218 -464h-75l-76 535h70l53 -468l219 468h77l59 -469l214 469h73l-260 -535h-77z" />
    <glyph glyph-name="uni1E9E" unicode="&#x1e9e;" horiz-adv-x="670" 
d="M604 221q-18 -102 -86.5 -161.5t-195.5 -59.5h-159l11 58h150q90 0 144 46t69 133q14 80 -26.5 122.5t-122.5 42.5q-20 0 -43 -3t-36 -5l-13 -3l6 46l268 212h-223q-146 0 -174 -160l-87 -489h-66l88 500q17 100 70.5 153.5t169.5 54.5h318l-10 -59l-253 -199
q117 -3 168.5 -62.5t32.5 -166.5z" />
    <glyph glyph-name="uni1EA0" unicode="&#x1ea0;" horiz-adv-x="634" 
d="M-58 0l401 708h72l151 -708h-73l-36 184h-340l-100 -184h-75zM152 248h293l-77 395zM190 -178l19 106h66l-19 -106h-66z" />
    <glyph glyph-name="uni1EA1" unicode="&#x1ea1;" horiz-adv-x="590" 
d="M407 1l3 67q-83 -79 -208 -79q-190 0 -161 168q16 92 79 129.5t173 37.5q89 0 152 -10q12 62 10 101t-29 56t-89 17q-88 0 -128 -35t-47 -81l-61 1q32 171 235 171q103 0 146.5 -35.5t39 -96.5t-17.5 -142q-1 -5 -1 -7l-23 -128l-13 -134h-60zM215 47q71 0 126 30.5
t75 69.5l20 114q-48 6 -128 6q-91 0 -139.5 -24.5t-58.5 -85.5q-20 -110 105 -110zM177 -182l19 106h66l-19 -106h-66z" />
    <glyph glyph-name="uni1EB8" unicode="&#x1eb8;" horiz-adv-x="580" 
d="M30 0l125 708h446l-11 -63h-378l-44 -246h328l-10 -61h-329l-48 -275h383l-12 -63h-450zM191 -178l19 106h66l-19 -106h-66z" />
    <glyph glyph-name="uni1EB9" unicode="&#x1eb9;" horiz-adv-x="574" 
d="M496 159q-4 -19 -12 -38.5t-27 -44.5t-45.5 -43t-70 -31t-97.5 -13q-128 0 -170 71.5t-18 209.5q24 136 88.5 206t189.5 70t167.5 -69.5t15.5 -221.5h-397q-18 -108 11 -158t116 -50q85 0 129.5 36.5t51.5 76.5zM331 489q-80 0 -127 -43t-71 -132h325q8 93 -22.5 134
t-104.5 41zM179 -181l19 106h66l-19 -106h-66z" />
    <glyph glyph-name="uni1EBC" unicode="&#x1ebc;" horiz-adv-x="580" 
d="M541 861q-4 -20 -8.5 -33.5t-14.5 -30t-27.5 -25t-42.5 -8.5q-37 0 -57.5 23t-40.5 23q-40 0 -51 -49l-48 5q16 97 93 97q23 0 38 -7t20.5 -16t15.5 -16t24 -7q24 0 36.5 16.5t14.5 33.5zM30 0l125 708h446l-11 -63h-378l-44 -246h328l-10 -61h-329l-48 -275h383l-12 -63
h-450z" />
    <glyph glyph-name="uni1EBD" unicode="&#x1ebd;" horiz-adv-x="574" 
d="M509 732q-18 -98 -92 -98q-22 0 -38 7.5t-22.5 17t-17.5 17t-24 7.5q-22 0 -34 -16.5t-16 -33.5l-47 5q5 27 12 45t27.5 35t52.5 17q28 0 44.5 -12t28 -24t27.5 -12q23 0 35 16.5t16 33.5zM496 159q-4 -19 -12 -38.5t-27 -44.5t-45.5 -43t-70 -31t-97.5 -13
q-128 0 -170 71.5t-18 209.5q24 136 88.5 206t189.5 70t167.5 -69.5t15.5 -221.5h-397q-18 -108 11 -158t116 -50q85 0 129.5 36.5t51.5 76.5zM331 489q-80 0 -127 -43t-71 -132h325q8 93 -22.5 134t-104.5 41z" />
    <glyph glyph-name="uni1ECA" unicode="&#x1eca;" horiz-adv-x="255" 
d="M30 0l125 708h68l-125 -708h-68zM0 -180l19 106h66l-19 -106h-66z" />
    <glyph glyph-name="uni1ECB" unicode="&#x1ecb;" horiz-adv-x="239" 
d="M152 642l20 113h66l-19 -113h-67zM38 0l95 535h66l-95 -535h-66zM7 -178l19 106h66l-19 -106h-66z" />
    <glyph glyph-name="uni1ECC" unicode="&#x1ecc;" horiz-adv-x="711" 
d="M647 349q-33 -185 -114 -275.5t-238 -90.5q-161 0 -212.5 93.5t-18.5 280.5q33 186 114.5 277t238.5 91q160 0 211.5 -94t18.5 -282zM132 352q-29 -159 8.5 -232.5t157.5 -73.5q121 0 187 75t94 234q29 159 -8.5 233t-156.5 74q-121 0 -187.5 -76t-94.5 -234zM228 -182
l19 106h66l-19 -106h-66z" />
    <glyph glyph-name="uni1ECD" unicode="&#x1ecd;" horiz-adv-x="582" 
d="M525 262q-24 -137 -87 -205t-192 -68q-131 0 -172.5 71t-16.5 210q24 138 87 207t192 69q90 0 138.5 -35t56.5 -98t-6 -151zM123 263q-20 -114 7 -165.5t119 -51.5q94 0 141.5 54t67.5 169q20 114 -6.5 167t-117.5 53q-94 0 -142 -55t-69 -171zM179 -182l19 106h66
l-19 -106h-66z" />
    <glyph glyph-name="uni1EE4" unicode="&#x1ee4;" horiz-adv-x="680" 
d="M604 345q-13 -74 -28 -125.5t-39.5 -99.5t-58.5 -76t-84.5 -44.5t-117.5 -16.5q-68 0 -114 17t-71 46t-33.5 77t-5 101t16.5 126l63 358h67l-63 -359q-32 -153 -2 -227.5t146 -74.5q117 0 172 72t84 233l63 356h69zM211 -182l19 106h66l-19 -106h-66z" />
    <glyph glyph-name="uni1EE5" unicode="&#x1ee5;" horiz-adv-x="600" 
d="M421 0l5 102q-11 -16 -26.5 -32t-42 -35t-66 -31t-84.5 -12q-93 0 -127 53t-13 175l56 315h66l-57 -322q-14 -82 7.5 -120.5t92.5 -38.5q51 0 97 26t67 50t38 50l62 355h66l-68 -387l-16 -148h-57zM188 -182l19 106h66l-19 -106h-66z" />
    <glyph glyph-name="Ygrave" unicode="&#x1ef2;" horiz-adv-x="551" 
d="M369 765h-59l-65 113h72zM176 0l42 237l-170 471h76l136 -413l275 413h81l-330 -473h-2l-41 -235h-67z" />
    <glyph glyph-name="ygrave" unicode="&#x1ef3;" horiz-adv-x="489" 
d="M327 634h-55l-60 136h66zM62 -223l116 223h-25l-106 535h70l87 -485l252 485h73l-402 -758h-65z" />
    <glyph glyph-name="uni1EF8" unicode="&#x1ef8;" horiz-adv-x="551" 
d="M493 861q-4 -20 -8.5 -33.5t-14.5 -30t-27.5 -25t-42.5 -8.5q-37 0 -57.5 23t-40.5 23q-40 0 -51 -49l-48 5q16 97 93 97q23 0 38 -7t20.5 -16t15.5 -16t24 -7q24 0 36.5 16.5t14.5 33.5zM176 0l42 237l-170 471h76l136 -413l275 413h81l-330 -473h-2l-41 -235h-67z" />
    <glyph glyph-name="uni1EF9" unicode="&#x1ef9;" horiz-adv-x="489" 
d="M459 732q-18 -98 -92 -98q-22 0 -38 7.5t-22.5 17t-17.5 17t-24 7.5q-22 0 -34 -16.5t-16 -33.5l-47 5q5 27 12 45t27.5 35t52.5 17q28 0 44.5 -12t28 -24t27.5 -12q23 0 35 16.5t16 33.5zM62 -223l116 223h-25l-106 535h70l87 -485l252 485h73l-402 -758h-65z" />
    <glyph glyph-name="uni2009" unicode="&#x2009;" horiz-adv-x="74" 
 />
    <glyph glyph-name="endash" unicode="&#x2013;" horiz-adv-x="581" 
d="M58 294l9 52h452l-9 -52h-452z" />
    <glyph glyph-name="emdash" unicode="&#x2014;" horiz-adv-x="923" 
d="M76 294l9 52h758l-9 -52h-758z" />
    <glyph glyph-name="uni2016" unicode="&#x2016;" horiz-adv-x="513" 
d="M44 -180l176 1000h50l-176 -1000h-50zM214 -180l176 1000h50l-176 -1000h-50z" />
    <glyph glyph-name="quoteleft" unicode="&#x2018;" horiz-adv-x="191" 
d="M66 538q6 41 38 113q14 32 30.5 59.5t25.5 39.5l10 11l53 -1q-32 -50 -60 -122q-12 -31 -20.5 -56.5t-10.5 -35.5l-2 -9z" />
    <glyph glyph-name="quoteright" unicode="&#x2019;" horiz-adv-x="204" 
d="M62 539q31 51 59 123q12 31 20 56t10 34l2 9l65 -1q-6 -39 -38 -111q-14 -32 -30.5 -59.5t-25.5 -39.5l-10 -12z" />
    <glyph glyph-name="quotesinglbase" unicode="&#x201a;" horiz-adv-x="156" 
d="M-78 -99q32 51 61 123q12 31 19.5 56.5t9.5 35.5l2 9l65 -1q-7 -41 -38 -112q-14 -32 -30.5 -60t-26.5 -40l-9 -12z" />
    <glyph glyph-name="quotedblleft" unicode="&#x201c;" horiz-adv-x="314" 
d="M66 538q7 41 38 113q14 32 30.5 59.5t25.5 39.5l10 11l53 -1q-32 -50 -60 -122q-12 -31 -20.5 -56.5t-10.5 -35.5l-2 -9zM189 538q7 41 38 113q14 32 30.5 59.5t26.5 39.5l9 11l53 -1q-32 -50 -60 -122q-12 -31 -20 -56.5t-10 -35.5l-2 -9z" />
    <glyph glyph-name="quotedblright" unicode="&#x201d;" horiz-adv-x="328" 
d="M62 539q31 51 59 123q13 31 21 56t10 34l1 9l65 -1q-6 -39 -38 -111q-14 -32 -30.5 -59.5t-25.5 -39.5l-10 -12zM185 539q32 51 60 123q12 31 20 56t10 34l2 9l65 -1q-7 -39 -39 -111q-14 -32 -30 -59.5t-25 -39.5l-10 -12z" />
    <glyph glyph-name="quotedblbase" unicode="&#x201e;" horiz-adv-x="352" 
d="M-10 -116q32 50 61 123q12 31 20 56.5t10 34.5l2 10l64 -1q-6 -42 -38 -113q-14 -32 -30.5 -59.5t-26.5 -39.5l-9 -12zM114 -116q32 50 60 123q12 31 20 56.5t10 34.5l2 10l65 -1q-7 -42 -38 -113q-14 -32 -30.5 -59.5t-26.5 -39.5l-9 -12z" />
    <glyph glyph-name="dagger" unicode="&#x2020;" horiz-adv-x="498" 
d="M81 566h166l36 202h50l-36 -202h167l-8 -45h-167l-91 -521h-50l91 521h-165z" />
    <glyph glyph-name="daggerdbl" unicode="&#x2021;" horiz-adv-x="584" 
d="M134 566h166l36 202h50l-36 -202h166l-7 -45h-167l-48 -274h166l-8 -44h-166l-36 -203h-50l36 203h-166l8 44h166l48 274h-166z" />
    <glyph glyph-name="bullet" unicode="&#x2022;" horiz-adv-x="435" 
d="M146 234l23 125h93l-22 -125h-94z" />
    <glyph glyph-name="ellipsis" unicode="&#x2026;" horiz-adv-x="501" 
d="M15 0l22 125h70l-23 -125h-69zM167 0l22 125h69l-22 -125h-69zM318 0l23 125h69l-22 -125h-70z" />
    <glyph glyph-name="perthousand" unicode="&#x2030;" horiz-adv-x="1068" 
d="M378 536q-14 -81 -56 -124t-124 -43q-162 0 -130 175q14 83 57 127t125 44q160 0 128 -179zM42 0l584 702h67l-583 -702h-68zM119 536q-12 -61 6.5 -91t72.5 -30q107 0 130 129q10 63 -7.5 94t-70.5 31q-109 0 -131 -133zM666 154q-14 -82 -56.5 -124.5t-124.5 -42.5
q-160 0 -130 175q15 83 58 127t125 44q160 0 128 -179zM1012 154q-14 -82 -56 -124.5t-124 -42.5q-162 0 -130 175q14 83 57.5 127t125.5 44q159 0 127 -179zM406 154q-11 -61 7.5 -91t71.5 -30q56 0 87 32t43 97q22 125 -78 125q-107 0 -131 -133zM753 154q-12 -61 6.5 -91
t72.5 -30q56 0 87 32t43 97q10 62 -7.5 93.5t-70.5 31.5q-109 0 -131 -133z" />
    <glyph glyph-name="guilsinglleft" unicode="&#x2039;" horiz-adv-x="371" 
d="M153 107l-91 148l2 18l145 156h79l-159 -167l100 -155h-76z" />
    <glyph glyph-name="guilsinglright" unicode="&#x203a;" horiz-adv-x="363" 
d="M149 107h-79l156 159l-96 163h74l90 -156l-2 -18z" />
    <glyph glyph-name="fraction" unicode="&#x2044;" horiz-adv-x="290" 
d="M-224 -40l674 827h65l-675 -827h-64z" />
    <glyph glyph-name="uni2070" unicode="&#x2070;" horiz-adv-x="508" 
d="M501 578q-24 -138 -76.5 -197t-154.5 -59q-105 0 -139 62t-9 203q24 138 76.5 197.5t154.5 59.5q105 0 139 -62.5t9 -203.5zM177 578q-20 -114 2 -159.5t92 -45.5q72 0 113 48.5t62 165.5q20 114 -2 160t-91 46q-72 0 -113.5 -49t-62.5 -166z" />
    <glyph glyph-name="uni2074" unicode="&#x2074;" horiz-adv-x="424" 
d="M292 330l19 110h-260l8 50l292 347h85l-62 -347h62l-10 -50h-61l-19 -110h-54zM320 490l55 307l-249 -307h194z" />
    <glyph glyph-name="uni2075" unicode="&#x2075;" horiz-adv-x="456" 
d="M247 782l-53 -151q43 32 116 32q84 0 118 -48.5t21 -127.5q-29 -166 -205 -166q-94 0 -133 41.5t-28 99.5h57q-7 -38 20 -65t85 -27q61 0 99 32.5t49 93.5q10 57 -15.5 88t-82.5 31q-36 0 -65.5 -11t-41 -20.5t-17.5 -18.5l-54 1l90 265h275l-9 -50z" />
    <glyph glyph-name="uni2076" unicode="&#x2076;" horiz-adv-x="490" 
d="M477 488q-29 -167 -210 -167q-101 0 -135 57.5t-12 179.5q27 158 79.5 222.5t152.5 64.5q45 0 77 -13.5t47 -35t19.5 -45t0.5 -47.5h-55q6 37 -15 64t-75 27q-62 0 -101 -41.5t-63 -145.5q56 60 150 60q88 0 121 -49t19 -131zM325 618q-95 0 -152 -82q-14 -89 9 -127
t86 -38q129 0 151 126q22 121 -94 121z" />
    <glyph glyph-name="uni2077" unicode="&#x2077;" horiz-adv-x="366" 
d="M103 330q12 70 44 142t69 125.5t72.5 96.5t58.5 66l23 22l-274 -3l10 55h337l-9 -52q-9 -9 -25 -24.5t-58.5 -65t-77 -100t-68 -123t-45.5 -139.5h-57z" />
    <glyph glyph-name="uni2078" unicode="&#x2078;" horiz-adv-x="486" 
d="M261 322q-99 0 -137.5 40t-25.5 111q11 63 47 94.5t67 32.5q-21 2 -43 31t-13 80q25 134 189 134q90 0 124 -38t22 -105q-9 -49 -38 -74.5t-54 -27.5q27 -2 52.5 -37t14.5 -99q-25 -142 -205 -142zM344 800q-115 0 -133 -103q-7 -38 15 -56.5t79 -18.5q115 0 131 84
q9 49 -13.5 71.5t-78.5 22.5zM305 575q-128 0 -148 -105q-8 -51 17.5 -74.5t87.5 -23.5q128 0 147 107q8 49 -16.5 72.5t-87.5 23.5z" />
    <glyph glyph-name="uni2079" unicode="&#x2079;" horiz-adv-x="501" 
d="M496 595q-28 -156 -79 -215t-153 -59q-92 0 -129 43.5t-28 96.5h56q-7 -35 17.5 -62.5t83.5 -27.5q63 0 100.5 36.5t61.5 136.5q-56 -60 -148 -60q-172 0 -138 194q29 167 209 167q102 0 136 -58.5t11 -191.5zM289 535q95 0 152 81q16 101 -6.5 140t-86.5 39
q-129 0 -151 -127q-24 -133 92 -133z" />
    <glyph glyph-name="Euro" unicode="&#x20ac;" horiz-adv-x="645" 
d="M178 240q-4 -94 28.5 -137.5t111.5 -43.5q69 0 114 32t60 95h59q-41 -182 -237 -182q-115 0 -161.5 58.5t-40.5 177.5h-86l8 50h82l10 64q2 18 8 44h-80l8 50h84q34 126 99.5 188t182.5 62q104 0 149.5 -51t32.5 -144h-59q10 68 -22 104t-101 36q-81 0 -132 -48t-81 -147
h223l-9 -50h-228q-5 -19 -10 -52q-6 -29 -9 -56h228l-9 -50h-223z" />
    <glyph glyph-name="uni20BD" unicode="&#x20bd;" horiz-adv-x="654" 
d="M90 0l33 189h-97l9 52h97l15 84h-97l10 55l97 -1l59 331h201q138 0 194 -44.5t37 -152.5q-19 -106 -87.5 -147t-206.5 -41h-139l-15 -84h185l-10 -52h-184l-33 -189h-68zM273 656l-48 -277h140q43 0 75 5.5t62.5 20t50 44t27.5 72.5q7 43 -1.5 71t-33.5 41t-54 18t-73 5
h-145z" />
    <glyph glyph-name="uni2116" unicode="&#x2116;" horiz-adv-x="1248" 
d="M1141 474q-20 -114 -72.5 -172t-162.5 -58q-112 0 -147 61.5t-15 177.5q19 113 73 172.5t162 60.5q113 0 148 -62.5t14 -179.5zM30 0l129 708h69l302 -612l107 612h62l-125 -708h-68l-304 613l-110 -613h-62zM806 474q-16 -90 6 -133.5t95 -43.5q76 0 116.5 46t56.5 140
q16 90 -6.5 135t-95.5 45q-75 0 -115 -47.5t-57 -141.5zM675 117l11 58h407l-11 -58h-407z" />
    <glyph glyph-name="uni2117" unicode="&#x2117;" horiz-adv-x="813" 
d="M752 344q-13 -78 -40.5 -141t-74.5 -115t-121 -80.5t-170 -28.5q-77 0 -134.5 19.5t-90.5 54t-51.5 81.5t-18 102t8.5 116q13 78 41 142t75.5 116.5t121 82t168.5 29.5q78 0 136 -20t91 -55t51 -83t17.5 -103.5t-9.5 -116.5zM108 344q-53 -320 239 -320q83 0 148 26
t106 72.5t66 103t37 126.5q54 325 -239 325q-83 0 -147.5 -26.5t-106 -74t-66.5 -105t-37 -127.5zM239 143l72 409h152q75 0 105.5 -30.5t16.5 -107.5q-13 -78 -50.5 -103.5t-115.5 -25.5h-108l-24 -142h-48zM351 512l-33 -187h101q49 0 79 18.5t40 77.5q10 57 -12 74
t-70 17h-105z" />
    <glyph glyph-name="uni2120" unicode="&#x2120;" horiz-adv-x="791" 
d="M300 461q-16 -91 -138 -90q-129 2 -109 111h39q-14 -77 69 -78q86 -1 99 63q5 27 -13.5 42.5t-47.5 23.5t-57.5 17.5t-46 32.5t-10.5 61q15 88 130 87q68 -1 92 -27t15 -72h-38q5 30 -7.5 47.5t-57.5 17.5q-84 1 -95 -61q-5 -26 14 -41t48 -23t57.5 -18t46 -33t10.5 -60z
M345 379l61 346h58l54 -308l166 308h59l-63 -346h-38l56 299l-165 -299h-42l-56 304l-52 -304h-38z" />
    <glyph glyph-name="trademark" unicode="&#x2122;" horiz-adv-x="711" 
d="M131 380l54 308h-107l7 37h256l-6 -37h-108l-54 -308h-42zM310 379l62 346h57l54 -308l167 308h58l-62 -346h-39l56 297l-165 -297h-42l-56 303l-51 -303h-39z" />
    <glyph glyph-name="oneeighth" unicode="&#x215b;" horiz-adv-x="1009" 
d="M33 -40l674 827h65l-675 -827h-64zM67 253l78 441l-102 -45l9 61l122 52h38l-90 -509h-55zM726 -8q-99 0 -137.5 40t-25.5 111q11 63 47 94.5t67 32.5q-21 2 -43 31t-13 80q25 134 189 134q90 0 124 -38t22 -105q-9 -49 -38 -74.5t-54 -27.5q27 -2 52.5 -37t14.5 -99
q-25 -142 -205 -142zM809 470q-115 0 -133 -103q-7 -38 15 -56.5t79 -18.5q115 0 131 84q9 49 -13.5 71.5t-78.5 22.5zM770 245q-128 0 -148 -105q-8 -51 17.5 -74.5t87.5 -23.5q128 0 147 107q8 49 -16.5 72.5t-87.5 23.5z" />
    <glyph glyph-name="threeeighths" unicode="&#x215c;" horiz-adv-x="1166" 
d="M190 -40l674 827h65l-675 -827h-64zM229 577q79 -7 111.5 -51.5t19.5 -120.5q-30 -161 -204 -161q-89 0 -126 42.5t-26 106.5h56q-8 -42 17 -69t79 -27q125 0 146 120q10 55 -17.5 85.5t-86.5 30.5l-65 -6l6 41l181 135l-237 -1l10 52h317l-9 -50zM883 -8
q-99 0 -137.5 40t-25.5 111q11 63 47 94.5t67 32.5q-21 2 -43 31t-13 80q25 134 189 134q90 0 124 -38t22 -105q-9 -49 -38 -74.5t-54 -27.5q27 -2 52.5 -37t14.5 -99q-25 -142 -205 -142zM966 470q-115 0 -133 -103q-7 -38 15 -56.5t79 -18.5q115 0 131 84q9 49 -13.5 71.5
t-78.5 22.5zM927 245q-128 0 -148 -105q-8 -51 17.5 -74.5t87.5 -23.5q128 0 147 107q8 49 -16.5 72.5t-87.5 23.5z" />
    <glyph glyph-name="fiveeighths" unicode="&#x215d;" horiz-adv-x="1196" 
d="M220 -40l674 827h65l-675 -827h-64zM189 705l-53 -151q43 32 116 32q84 0 118 -48.5t21 -127.5q-29 -166 -205 -166q-94 0 -133 41.5t-28 99.5h57q-7 -38 20 -65t85 -27q61 0 99 32.5t49 93.5q10 57 -15.5 88t-82.5 31q-36 0 -65.5 -11t-40.5 -20t-17 -17l-1 -2h-1l-53 1
l90 265h275l-9 -50zM913 -8q-99 0 -137.5 40t-25.5 111q11 63 47 94.5t67 32.5q-21 2 -43 31t-13 80q25 134 189 134q90 0 124 -38t22 -105q-9 -49 -38 -74.5t-54 -27.5q27 -2 52.5 -37t14.5 -99q-25 -142 -205 -142zM996 470q-115 0 -133 -103q-7 -38 15 -56.5t79 -18.5
q115 0 131 84q9 49 -13.5 71.5t-78.5 22.5zM957 245q-128 0 -148 -105q-8 -51 17.5 -74.5t87.5 -23.5q128 0 147 107q8 49 -16.5 72.5t-87.5 23.5z" />
    <glyph glyph-name="seveneighths" unicode="&#x215e;" horiz-adv-x="1056" 
d="M80 -40l674 827h65l-675 -827h-64zM45 253q12 70 44 142t69 125.5t72.5 96.5t58.5 65l23 23l-274 -3l10 55h337l-9 -52q-9 -9 -25 -24.5t-58.5 -65t-77 -100t-68 -123t-45.5 -139.5h-57zM773 -8q-99 0 -137.5 40t-25.5 111q11 63 47 94.5t67 32.5q-21 2 -43 31t-13 80
q25 134 189 134q90 0 124 -38t22 -105q-9 -49 -38 -74.5t-54 -27.5q27 -2 52.5 -37t14.5 -99q-25 -142 -205 -142zM856 470q-115 0 -133 -103q-7 -38 15 -56.5t79 -18.5q115 0 131 84q9 49 -13.5 71.5t-78.5 22.5zM817 245q-128 0 -148 -105q-8 -51 17.5 -74.5t87.5 -23.5
q128 0 147 107q8 49 -16.5 72.5t-87.5 23.5z" />
    <glyph glyph-name="arrowleft" unicode="&#x2190;" horiz-adv-x="672" 
d="M638 259l-497 9l213 -168l-37 -40l-256 210v45l256 211l37 -42l-213 -168l497 9v-66z" />
    <glyph glyph-name="arrowup" unicode="&#x2191;" horiz-adv-x="553" 
d="M243 6l9 495l-168 -211l-40 37l210 256h45l211 -256l-42 -37l-168 212l9 -496h-66z" />
    <glyph glyph-name="arrowright" unicode="&#x2192;" horiz-adv-x="672" 
d="M34 324l496 -10l-212 169l37 41l256 -211v-44l-256 -211l-37 41l212 168l-496 -9v66z" />
    <glyph glyph-name="arrowdown" unicode="&#x2193;" horiz-adv-x="538" 
d="M302 578l-9 -495l168 211l41 -37l-210 -256h-45l-211 256l41 37l168 -213l-9 497h66z" />
    <glyph glyph-name="arrowboth" unicode="&#x2194;" horiz-adv-x="932" 
d="M618 499l253 -211v-45l-253 -210l-37 41l204 164l-639 -1l209 -165l-37 -41l-257 210v46l257 210l36 -41l-210 -166l644 2l-207 166z" />
    <glyph glyph-name="arrowupdn" unicode="&#x2195;" horiz-adv-x="555" 
d="M301 -140h-46l-210 254l42 37l164 -205l-1 648l-165 -209l-41 37l210 257h45l211 -257l-41 -36l-165 208l1 -650l166 206l40 -36z" />
    <glyph glyph-name="uni2196" unicode="&#x2196;" horiz-adv-x="543" 
d="M460 66l-345 358l32 -269l-55 -3l-32 330l31 32l330 -32l-3 -55l-269 30l358 -344z" />
    <glyph glyph-name="uni2197" unicode="&#x2197;" horiz-adv-x="544" 
d="M37 114l357 344l-269 -31l-2 55l330 32l31 -31l-32 -331l-55 4l31 269l-345 -358z" />
    <glyph glyph-name="uni2198" unicode="&#x2198;" horiz-adv-x="544" 
d="M84 518l344 -358l-31 270l55 2l32 -329l-31 -32l-330 32l2 55l270 -32l-358 346z" />
    <glyph glyph-name="uni2199" unicode="&#x2199;" horiz-adv-x="544" 
d="M507 471l-358 -345l270 32l2 -55l-329 -32l-32 32l32 329l55 -2l-32 -270l346 358z" />
    <glyph glyph-name="minus" unicode="&#x2212;" horiz-adv-x="432" 
d="M34 281l11 61h336l-12 -61h-335z" />
    <glyph glyph-name="infinity" unicode="&#x221e;" horiz-adv-x="756" 
d="M163 142q-81 0 -112.5 45t-18.5 121q29 158 184 158q60 -1 94 -33t64 -90q49 59 95 91t106 32q81 -1 113 -46t19 -120q-29 -158 -185 -158q-60 0 -94.5 32t-63.5 90q-49 -58 -95 -90t-106 -32zM84 301q-18 -108 87 -108q49 0 87 29t85 85q-25 53 -53 80.5t-75 27.5
q-55 -1 -88.5 -32t-42.5 -82zM655 307q18 107 -87 108q-48 0 -86.5 -29t-86.5 -86q27 -53 54 -80t74 -27q56 0 89.5 31t42.5 83z" />
    <glyph glyph-name="approxequal" unicode="&#x2248;" horiz-adv-x="568" 
d="M74 328q8 44 37 76t86 32q50 0 97 -27.5t81 -27.5q35 0 57.5 20.5t25.5 37.5l44 -6q-8 -44 -37.5 -76t-86.5 -32q-50 0 -96.5 27.5t-79.5 27.5q-36 0 -59 -21t-25 -37zM48 178q7 44 36.5 76.5t86.5 32.5q50 0 96.5 -27.5t80.5 -27.5q35 0 58 20.5t26 37.5l43 -6
q-7 -44 -36.5 -76t-86.5 -32q-50 0 -96.5 27.5t-80.5 27.5q-36 0 -58.5 -21t-24.5 -37z" />
    <glyph glyph-name="notequal" unicode="&#x2260;" horiz-adv-x="536" 
d="M81 116l66 88h-92l10 61h128l61 81h-175l12 61h209l63 84h58l-63 -84h109l-11 -61h-144l-61 -81h191l-11 -61h-226l-66 -88h-58z" />
    <glyph glyph-name="lessequal" unicode="&#x2264;" horiz-adv-x="607" 
d="M456 184l-350 140l13 71l396 125l-11 -62l-340 -100l302 -115zM66 102l11 61h375l-11 -61h-375z" />
    <glyph glyph-name="greaterequal" unicode="&#x2265;" horiz-adv-x="579" 
d="M86 181l11 62l341 115l-304 100l11 60l352 -124l-12 -73zM72 102l11 61h375l-11 -61h-375z" />
    <glyph glyph-name="uni2661" unicode="&#x2661;" horiz-adv-x="631" 
d="M458 549q57 0 89.5 -40t19.5 -115q-9 -50 -44 -102.5t-78.5 -92t-87.5 -72t-72 -49.5t-30 -17t-23.5 17.5t-54 51t-61.5 74.5t-45.5 94.5t-7.5 104.5q13 72 56.5 109t96.5 37q17 0 32.5 -3t27 -7.5t21.5 -10t16.5 -11t10.5 -10t6 -7.5l3 -3l5 5q6 6 17 13.5t25 15t35 13
t43 5.5zM503 387q9 52 -12 78.5t-54 26.5q-29 0 -57.5 -15t-42.5 -31l-14 -15l-4 -1q-3 7 -8.5 17.5t-27.5 27.5t-50 17q-35 0 -68 -28.5t-43 -83.5q-6 -34 6.5 -71.5t30 -64.5t46.5 -57t39 -38.5t23 -18.5l1 -1l12 8q12 8 31 21.5t42.5 32t48 42t45.5 48t36.5 52.5t19.5 54
z" />
    <glyph glyph-name="i.loclTRK" horiz-adv-x="239" 
d="M152 642l20 113h66l-19 -113h-67zM38 0l95 535h66l-95 -535h-66z" />
    <glyph glyph-name="a.sc" horiz-adv-x="532" 
d="M-52 0l335 591h70l126 -591h-70l-28 149h-282l-80 -149h-71zM131 207h239l-61 329z" />
    <glyph glyph-name="aacute.sc" horiz-adv-x="532" 
d="M302 690l96 136h69l-109 -136h-56zM-52 0l335 591h70l126 -591h-70l-28 149h-282l-80 -149h-71zM131 207h239l-61 329z" />
    <glyph glyph-name="abreve.sc" horiz-adv-x="532" 
d="M488 800q-8 -39 -46.5 -75t-101.5 -36q-65 0 -94 36.5t-22 74.5h58q-4 -21 12.5 -43t46.5 -22q32 0 59 22t30 43h58zM-52 0l335 591h70l126 -591h-70l-28 149h-282l-80 -149h-71zM131 207h239l-61 329z" />
    <glyph glyph-name="acircumflex.sc" horiz-adv-x="532" 
d="M474 690h-65l-57 87l-87 -87h-68l129 134h64zM-52 0l335 591h70l126 -591h-70l-28 149h-282l-80 -149h-71zM131 207h239l-61 329z" />
    <glyph glyph-name="adieresis.sc" horiz-adv-x="532" 
d="M228 690l22 121h62l-21 -121h-63zM380 690l22 121h62l-21 -121h-63zM-52 0l335 591h70l126 -591h-70l-28 149h-282l-80 -149h-71zM131 207h239l-61 329z" />
    <glyph glyph-name="uni1EA1.sc" horiz-adv-x="532" 
d="M-52 0l335 591h70l126 -591h-70l-28 149h-282l-80 -149h-71zM131 207h239l-61 329zM149 -178l19 106h66l-19 -106h-66z" />
    <glyph glyph-name="agrave.sc" horiz-adv-x="532" 
d="M359 690h-55l-60 136h66zM-52 0l335 591h70l126 -591h-70l-28 149h-282l-80 -149h-71zM131 207h239l-61 329z" />
    <glyph glyph-name="amacron.sc" horiz-adv-x="532" 
d="M233 768h234l-9 -50h-234zM-52 0l335 591h70l126 -591h-70l-28 149h-282l-80 -149h-71zM131 207h239l-61 329z" />
    <glyph glyph-name="aogonek.sc" horiz-adv-x="532" 
d="M304 -106q5 27 27.5 52.5t41 37.5t35.5 21l-27 144h-282l-80 -149h-71l335 591h70l126 -591q-4 0 -27 -12.5t-49.5 -38t-30.5 -50.5q-7 -37 29 -37q11 0 24 3t21 7l7 3l-5 -41q-25 -20 -71 -20q-43 0 -61 22.5t-12 57.5zM131 207h239l-61 329z" />
    <glyph glyph-name="aring.sc" horiz-adv-x="532" 
d="M436 759q-6 -36 -31.5 -57t-65.5 -21q-42 0 -63 24t-13 63q6 36 31.5 57t65.5 21q42 0 62.5 -24t13.5 -63zM309 760q-2 -17 6 -26.5t24 -9.5q19 0 32.5 11.5t17.5 31.5q6 36 -30 36q-19 0 -32.5 -12t-17.5 -31zM-52 0l335 591h70l126 -591h-70l-28 149h-282l-80 -149h-71
zM131 207h239l-61 329z" />
    <glyph glyph-name="aringacute.sc" horiz-adv-x="532" 
d="M344 886l96 136h69l-109 -136h-56zM436 759q-6 -36 -31.5 -57t-65.5 -21q-42 0 -63 24t-13 63q6 36 31.5 57t65.5 21q42 0 62.5 -24t13.5 -63zM309 760q-2 -17 6 -26.5t24 -9.5q19 0 32.5 11.5t17.5 31.5q6 36 -30 36q-19 0 -32.5 -12t-17.5 -31zM-52 0l335 591h70
l126 -591h-70l-28 149h-282l-80 -149h-71zM131 207h239l-61 329z" />
    <glyph glyph-name="atilde.sc" horiz-adv-x="532" 
d="M491 788q-18 -98 -92 -98q-22 0 -38 7.5t-22.5 17t-17.5 17t-24 7.5q-22 0 -34 -16.5t-16 -33.5l-47 5q5 27 12 45t27.5 35t52.5 17q28 0 44.5 -12t28 -24t27.5 -12q23 0 35 16.5t16 33.5zM-52 0l335 591h70l126 -591h-70l-28 149h-282l-80 -149h-71zM131 207h239
l-61 329z" />
    <glyph glyph-name="ae.sc" horiz-adv-x="776" 
d="M-52 0l425 591h416l-10 -57h-315l-36 -200h274l-10 -55h-273l-39 -222h319l-10 -57h-383l27 156h-201l-110 -156h-74zM343 211l57 322l-229 -322h172z" />
    <glyph glyph-name="aeacute.sc" horiz-adv-x="776" 
d="M411 690l96 136h69l-109 -136h-56zM-52 0l425 591h416l-10 -57h-315l-36 -200h274l-10 -55h-273l-39 -222h319l-10 -57h-383l27 156h-201l-110 -156h-74zM343 211l57 322l-229 -322h172z" />
    <glyph glyph-name="b.sc" horiz-adv-x="573" 
d="M33 -2l105 595h198q127 0 169.5 -38.5t28.5 -113.5q-19 -105 -110 -132q97 -35 76 -152q-14 -88 -66.5 -123.5t-199.5 -35.5h-201zM194 542l-36 -205l161 -1q72 -1 107.5 24t45.5 78q8 55 -22 79.5t-115 24.5h-141zM148 283l-41 -234h136q101 0 143.5 26.5t53.5 93.5
q10 58 -20 86t-106 28h-166z" />
    <glyph glyph-name="ordfeminine.sc" horiz-adv-x="416" 
d="M290 272l1 42q-56 -51 -138 -51q-134 0 -115 120q11 63 55 89t121 26q55 0 102 -7q11 67 -1 92t-69 25q-103 0 -119 -78l-47 1q23 120 164 120q71 0 101.5 -26t27 -70t-12.5 -102l-15 -87l-9 -94h-46zM161 307q49 0 86 22t49 48l13 72q-42 5 -83 5q-64 0 -97 -16t-40 -56
q-13 -75 72 -75z" />
    <glyph glyph-name="ordmasculine.sc" horiz-adv-x="403" 
d="M364 453q-17 -95 -60 -142t-133 -47q-92 0 -120.5 49.5t-11.5 148.5q17 95 60.5 143t132.5 48q92 0 120.5 -51t11.5 -149zM89 456q-14 -77 4 -112.5t80 -35.5t95 36.5t46 114.5q13 77 -4.5 113.5t-79.5 36.5q-61 0 -94 -37.5t-47 -115.5z" />
    <glyph glyph-name="c.sc" horiz-adv-x="592" 
d="M509 194q-41 -209 -254 -209q-134 0 -177.5 78t-15.5 236q27 156 95.5 231.5t198.5 75.5q223 0 190 -216l-63 1q10 80 -21.5 118.5t-107.5 38.5q-97 0 -150.5 -62.5t-76.5 -192.5q-24 -130 5.5 -190t125.5 -60q154 0 188 152z" />
    <glyph glyph-name="cacute.sc" horiz-adv-x="592" 
d="M335 692l96 136h69l-109 -136h-56zM509 194q-41 -209 -254 -209q-134 0 -177.5 78t-15.5 236q27 156 95.5 231.5t198.5 75.5q223 0 190 -216l-63 1q10 80 -21.5 118.5t-107.5 38.5q-97 0 -150.5 -62.5t-76.5 -192.5q-24 -130 5.5 -190t125.5 -60q154 0 188 152z" />
    <glyph glyph-name="ccaron.sc" horiz-adv-x="592" 
d="M533 826l-132 -134h-64l-81 134h63l57 -86l87 86h70zM509 194q-41 -209 -254 -209q-134 0 -177.5 78t-15.5 236q27 156 95.5 231.5t198.5 75.5q223 0 190 -216l-63 1q10 80 -21.5 118.5t-107.5 38.5q-97 0 -150.5 -62.5t-76.5 -192.5q-24 -130 5.5 -190t125.5 -60
q154 0 188 152z" />
    <glyph glyph-name="ccedilla.sc" horiz-adv-x="592" 
d="M323 -142q-8 -45 -38 -62t-93 -17q-17 0 -32.5 1.5t-22.5 3.5l-7 2l5 40q15 -4 41 -4q40 0 59.5 11t24.5 39q4 24 -15.5 33t-59.5 9h-8l45 73q-114 9 -150 86.5t-10 225.5q27 156 95.5 231.5t198.5 75.5q223 0 190 -216l-63 1q10 80 -21.5 118.5t-107.5 38.5
q-97 0 -150.5 -62.5t-76.5 -192.5q-24 -130 5.5 -190t125.5 -60q154 0 188 152l63 -1q-38 -195 -223 -208l-31 -48q80 -11 68 -80z" />
    <glyph glyph-name="ccircumflex.sc" horiz-adv-x="592" 
d="M507 692h-65l-57 87l-87 -87h-68l129 134h64zM509 194q-41 -209 -254 -209q-134 0 -177.5 78t-15.5 236q27 156 95.5 231.5t198.5 75.5q223 0 190 -216l-63 1q10 80 -21.5 118.5t-107.5 38.5q-97 0 -150.5 -62.5t-76.5 -192.5q-24 -130 5.5 -190t125.5 -60q154 0 188 152
z" />
    <glyph glyph-name="cdotaccent.sc" horiz-adv-x="592" 
d="M338 700l20 113h66l-19 -113h-67zM509 194q-41 -209 -254 -209q-134 0 -177.5 78t-15.5 236q27 156 95.5 231.5t198.5 75.5q223 0 190 -216l-63 1q10 80 -21.5 118.5t-107.5 38.5q-97 0 -150.5 -62.5t-76.5 -192.5q-24 -130 5.5 -190t125.5 -60q154 0 188 152z" />
    <glyph glyph-name="d.sc" horiz-adv-x="601" 
d="M33 -2l105 595h182q109 0 163.5 -33.5t63 -100.5t-9.5 -168q-14 -80 -33.5 -130.5t-55 -89.5t-91 -56t-138.5 -17h-186zM193 537l-85 -483h128q107 -1 160 55t77 191q23 131 -9 184t-139 53h-132z" />
    <glyph glyph-name="eth.sc" horiz-adv-x="601" 
d="M33 -2l48 273h-71l7 51h73l48 271h182q109 0 163.5 -33.5t63 -100.5t-9.5 -168q-14 -80 -33.5 -130.5t-55 -89.5t-91 -56t-138.5 -17h-186zM146 271l-38 -217h128q107 -1 160 55t77 191q23 131 -9 184t-139 53h-132l-38 -215h118l-7 -51h-120z" />
    <glyph glyph-name="dcaron.sc" horiz-adv-x="601" 
d="M516 824l-132 -134h-64l-81 134h63l57 -86l87 86h70zM33 -2l105 595h182q109 0 163.5 -33.5t63 -100.5t-9.5 -168q-14 -80 -33.5 -130.5t-55 -89.5t-91 -56t-138.5 -17h-186zM193 537l-85 -483h128q107 -1 160 55t77 191q23 131 -9 184t-139 53h-132z" />
    <glyph glyph-name="dcroat.sc" horiz-adv-x="601" 
d="M81 271h-71l7 51h73l48 271h182q109 0 163.5 -33.5t63 -100.5t-9.5 -168q-14 -80 -33.5 -130.5t-55 -89.5t-91 -56t-138.5 -17h-186zM146 271l-38 -217h128q107 -1 160 55t77 191q23 131 -9 184t-139 53h-132l-38 -215h118l-7 -51h-120z" />
    <glyph glyph-name="e.sc" horiz-adv-x="503" 
d="M33 0l104 591h379l-10 -57h-314l-35 -197h272l-11 -60h-272l-38 -220h319l-11 -57h-383z" />
    <glyph glyph-name="eacute.sc" horiz-adv-x="503" 
d="M308 690l96 136h69l-109 -136h-56zM33 0l104 591h379l-10 -57h-314l-35 -197h272l-11 -60h-272l-38 -220h319l-11 -57h-383z" />
    <glyph glyph-name="ebreve.sc" horiz-adv-x="503" 
d="M494 800q-8 -39 -46.5 -75t-101.5 -36q-65 0 -94 36.5t-22 74.5h58q-4 -21 12.5 -43t46.5 -22q32 0 59 22t30 43h58zM33 0l104 591h379l-10 -57h-314l-35 -197h272l-11 -60h-272l-38 -220h319l-11 -57h-383z" />
    <glyph glyph-name="ecaron.sc" horiz-adv-x="503" 
d="M506 824l-132 -134h-64l-81 134h63l57 -86l87 86h70zM33 0l104 591h379l-10 -57h-314l-35 -197h272l-11 -60h-272l-38 -220h319l-11 -57h-383z" />
    <glyph glyph-name="ecircumflex.sc" horiz-adv-x="503" 
d="M480 690h-65l-57 87l-87 -87h-68l129 134h64zM33 0l104 591h379l-10 -57h-314l-35 -197h272l-11 -60h-272l-38 -220h319l-11 -57h-383z" />
    <glyph glyph-name="edieresis.sc" horiz-adv-x="503" 
d="M234 690l22 121h62l-21 -121h-63zM386 690l22 121h62l-21 -121h-63zM33 0l104 591h379l-10 -57h-314l-35 -197h272l-11 -60h-272l-38 -220h319l-11 -57h-383z" />
    <glyph glyph-name="edotaccent.sc" horiz-adv-x="503" 
d="M311 698l20 113h66l-19 -113h-67zM33 0l104 591h379l-10 -57h-314l-35 -197h272l-11 -60h-272l-38 -220h319l-11 -57h-383z" />
    <glyph glyph-name="uni1EB9.sc" horiz-adv-x="503" 
d="M33 0l104 591h379l-10 -57h-314l-35 -197h272l-11 -60h-272l-38 -220h319l-11 -57h-383zM160 -178l19 106h66l-19 -106h-66z" />
    <glyph glyph-name="egrave.sc" horiz-adv-x="503" 
d="M365 690h-55l-60 136h66zM33 0l104 591h379l-10 -57h-314l-35 -197h272l-11 -60h-272l-38 -220h319l-11 -57h-383z" />
    <glyph glyph-name="emacron.sc" horiz-adv-x="503" 
d="M239 768h234l-9 -50h-234zM33 0l104 591h379l-10 -57h-314l-35 -197h272l-11 -60h-272l-38 -220h319l-11 -57h-383z" />
    <glyph glyph-name="eogonek.sc" horiz-adv-x="503" 
d="M246 -106q11 62 95 106h-308l104 591h379l-10 -57h-314l-35 -197h272l-11 -60h-272l-38 -220h319l-11 -58q-13 -6 -30.5 -16t-42.5 -35t-29 -49q-7 -37 29 -37q11 0 24 3t21 7l7 3l-5 -41q-25 -20 -71 -20q-43 0 -61 22.5t-12 57.5z" />
    <glyph glyph-name="uni1EBD.sc" horiz-adv-x="503" 
d="M497 788q-18 -98 -92 -98q-22 0 -38 7.5t-22.5 17t-17.5 17t-24 7.5q-22 0 -34 -16.5t-16 -33.5l-47 5q5 27 12 45t27.5 35t52.5 17q28 0 44.5 -12t28 -24t27.5 -12q23 0 35 16.5t16 33.5zM33 0l104 591h379l-10 -57h-314l-35 -197h272l-11 -60h-272l-38 -220h319
l-11 -57h-383z" />
    <glyph glyph-name="f.sc" horiz-adv-x="481" 
d="M33 0l104 591h376l-10 -57h-311l-37 -210h269l-11 -60h-269l-46 -264h-65z" />
    <glyph glyph-name="g.sc" horiz-adv-x="595" 
d="M481 68q-1 -7 -24.5 -25.5t-79.5 -38t-124 -19.5q-132 0 -175.5 78t-15.5 235q27 156 95 232t197 76q109 0 156.5 -55t31.5 -145l-61 1q10 63 -23.5 102t-105.5 39q-96 0 -149 -63t-76 -193q-24 -130 6 -190.5t124 -60.5q46 0 88 12.5t62 26t21 21.5l23 134h-126l9 52
h186z" />
    <glyph glyph-name="gbreve.sc" horiz-adv-x="595" 
d="M524 802q-8 -39 -46.5 -75t-101.5 -36q-65 0 -94 36.5t-22 74.5h58q-4 -21 12.5 -43t46.5 -22q32 0 59 22t30 43h58zM481 68q-1 -7 -24.5 -25.5t-79.5 -38t-124 -19.5q-132 0 -175.5 78t-15.5 235q27 156 95 232t197 76q109 0 156.5 -55t31.5 -145l-61 1q10 63 -23.5 102
t-105.5 39q-96 0 -149 -63t-76 -193q-24 -130 6 -190.5t124 -60.5q46 0 88 12.5t62 26t21 21.5l23 134h-126l9 52h186z" />
    <glyph glyph-name="gcaron.sc" horiz-adv-x="595" 
d="M536 826l-132 -134h-64l-81 134h63l57 -86l87 86h70zM481 68q-1 -7 -24.5 -25.5t-79.5 -38t-124 -19.5q-132 0 -175.5 78t-15.5 235q27 156 95 232t197 76q109 0 156.5 -55t31.5 -145l-61 1q10 63 -23.5 102t-105.5 39q-96 0 -149 -63t-76 -193q-24 -130 6 -190.5
t124 -60.5q46 0 88 12.5t62 26t21 21.5l23 134h-126l9 52h186z" />
    <glyph glyph-name="gcircumflex.sc" horiz-adv-x="595" 
d="M510 692h-65l-57 87l-87 -87h-68l129 134h64zM481 68q-1 -7 -24.5 -25.5t-79.5 -38t-124 -19.5q-132 0 -175.5 78t-15.5 235q27 156 95 232t197 76q109 0 156.5 -55t31.5 -145l-61 1q10 63 -23.5 102t-105.5 39q-96 0 -149 -63t-76 -193q-24 -130 6 -190.5t124 -60.5
q46 0 88 12.5t62 26t21 21.5l23 134h-126l9 52h186z" />
    <glyph glyph-name="gcommaaccent.sc" horiz-adv-x="595" 
d="M481 68q-1 -7 -24.5 -25.5t-79.5 -38t-124 -19.5q-132 0 -175.5 78t-15.5 235q27 156 95 232t197 76q109 0 156.5 -55t31.5 -145l-61 1q10 63 -23.5 102t-105.5 39q-96 0 -149 -63t-76 -193q-24 -130 6 -190.5t124 -60.5q46 0 88 12.5t62 26t21 21.5l23 134h-126l9 52
h186zM157 -239q25 41 47 96q9 21 16.5 43t10.5 34l3 11l62 -1q-13 -50 -36 -99q-12 -24 -25 -45t-20 -30l-7 -10z" />
    <glyph glyph-name="gdotaccent.sc" horiz-adv-x="595" 
d="M341 700l20 113h66l-19 -113h-67zM481 68q-1 -7 -24.5 -25.5t-79.5 -38t-124 -19.5q-132 0 -175.5 78t-15.5 235q27 156 95 232t197 76q109 0 156.5 -55t31.5 -145l-61 1q10 63 -23.5 102t-105.5 39q-96 0 -149 -63t-76 -193q-24 -130 6 -190.5t124 -60.5q46 0 88 12.5
t62 26t21 21.5l23 134h-126l9 52h186z" />
    <glyph glyph-name="h.sc" horiz-adv-x="612" 
d="M33 0l104 591h65l-45 -255h313l45 255h63l-104 -591h-63l49 278h-313l-49 -278h-65z" />
    <glyph glyph-name="hbar.sc" horiz-adv-x="612" 
d="M547 415l-73 -415h-63l49 278h-313l-49 -278h-65l73 415h-69l6 57h73l21 119h65l-21 -119h313l21 119h63l-21 -119h70l-6 -57h-74zM470 336l14 79h-313l-14 -79h313z" />
    <glyph glyph-name="hcircumflex.sc" horiz-adv-x="612" 
d="M514 690h-65l-57 87l-87 -87h-68l129 134h64zM33 0l104 591h65l-45 -255h313l45 255h63l-104 -591h-63l49 278h-313l-49 -278h-65z" />
    <glyph glyph-name="i.sc" horiz-adv-x="236" 
d="M33 0l104 591h65l-104 -591h-65z" />
    <glyph glyph-name="iacute.sc" horiz-adv-x="236" 
d="M154 690l96 136h69l-109 -136h-56zM33 0l104 591h65l-104 -591h-65z" />
    <glyph glyph-name="ibreve.sc" horiz-adv-x="236" 
d="M340 800q-8 -39 -46.5 -75t-101.5 -36q-65 0 -94 36.5t-22 74.5h58q-4 -21 12.5 -43t46.5 -22q32 0 59 22t30 43h58zM33 0l104 591h65l-104 -591h-65z" />
    <glyph glyph-name="icircumflex.sc" horiz-adv-x="236" 
d="M326 690h-65l-57 87l-87 -87h-68l129 134h64zM33 0l104 591h65l-104 -591h-65z" />
    <glyph glyph-name="idieresis.sc" horiz-adv-x="236" 
d="M80 690l22 121h62l-21 -121h-63zM232 690l22 121h62l-21 -121h-63zM33 0l104 591h65l-104 -591h-65z" />
    <glyph glyph-name="i.sc.loclTRK" horiz-adv-x="236" 
d="M157 698l20 113h66l-19 -113h-67zM33 0l104 591h65l-104 -591h-65z" />
    <glyph glyph-name="uni1ECB.sc" horiz-adv-x="236" 
d="M33 0l104 591h65l-104 -591h-65zM1 -180l19 106h66l-19 -106h-66z" />
    <glyph glyph-name="igrave.sc" horiz-adv-x="236" 
d="M211 690h-55l-60 136h66zM33 0l104 591h65l-104 -591h-65z" />
    <glyph glyph-name="ij.sc" horiz-adv-x="493" 
d="M33 0l104 591h65l-104 -591h-65zM405 211q-8 -45 -13.5 -69t-15 -52.5t-22 -42t-32.5 -26t-48 -17t-67 -4.5h-24l9 57h23q66 0 88.5 32.5t38.5 125.5l66 375h64z" />
    <glyph glyph-name="imacron.sc" horiz-adv-x="236" 
d="M85 768h234l-9 -50h-234zM33 0l104 591h65l-104 -591h-65z" />
    <glyph glyph-name="iogonek.sc" horiz-adv-x="236" 
d="M-77 -106q5 31 33 59.5t53 41.5l25 13l103 583h65l-104 -591h-3q-4 -2 -10.5 -5t-23.5 -14t-30 -22t-25 -27.5t-15 -32.5q-7 -37 29 -37q11 0 24 3t20 7l8 3l-5 -41q-25 -20 -71 -20q-43 0 -61 22.5t-12 57.5z" />
    <glyph glyph-name="itilde.sc" horiz-adv-x="236" 
d="M343 788q-18 -98 -92 -98q-22 0 -38 7.5t-22.5 17t-17.5 17t-24 7.5q-22 0 -34 -16.5t-16 -33.5l-47 5q5 27 12 45t27.5 35t52.5 17q28 0 44.5 -12t28 -24t27.5 -12q23 0 35 16.5t16 33.5zM33 0l104 591h65l-104 -591h-65z" />
    <glyph glyph-name="j.sc" horiz-adv-x="257" 
d="M169 211q-8 -45 -13.5 -69t-15 -52.5t-22 -42t-32.5 -26t-48 -17t-67 -4.5h-24l9 57h23q66 0 88.5 32.5t38.5 125.5l66 375h64z" />
    <glyph glyph-name="jcircumflex.sc" horiz-adv-x="257" 
d="M351 643h-65l-57 87l-87 -87h-68l129 134h64zM169 211q-8 -45 -13.5 -69t-15 -52.5t-22 -42t-32.5 -26t-48 -17t-67 -4.5h-24l9 57h23q66 0 88.5 32.5t38.5 125.5l66 375h64z" />
    <glyph glyph-name="k.sc" horiz-adv-x="546" 
d="M33 0l104 591h65l-63 -358l361 358h85l-254 -247l149 -344h-72l-128 295l-157 -154l-25 -141h-65z" />
    <glyph glyph-name="kcommaaccent.sc" horiz-adv-x="546" 
d="M33 0l104 591h65l-63 -358l361 358h85l-254 -247l149 -344h-72l-128 295l-157 -154l-25 -141h-65zM124 -222q25 41 47 96q9 21 16.5 43t10.5 33l3 12l62 -1q-13 -50 -36 -99q-12 -24 -25 -45.5t-20 -30.5l-7 -9z" />
    <glyph glyph-name="l.sc" horiz-adv-x="419" 
d="M33 0l104 591h65l-94 -531h276l-11 -60h-340z" />
    <glyph glyph-name="lacute.sc" horiz-adv-x="419" 
d="M160 690l96 136h69l-109 -136h-56zM33 0l104 591h65l-94 -531h276l-11 -60h-340z" />
    <glyph glyph-name="lcaron.sc" horiz-adv-x="419" 
d="M265 464l74 143h61l-91 -143h-44zM33 0l104 591h65l-94 -531h276l-11 -60h-340z" />
    <glyph glyph-name="lcommaaccent.sc" horiz-adv-x="419" 
d="M33 0l104 591h65l-94 -531h276l-11 -60h-340zM93 -219q25 41 47 96q9 21 16.5 43t10.5 34l3 11l62 -1q-13 -50 -36 -99q-12 -24 -25 -45.5t-20 -30.5l-7 -9z" />
    <glyph glyph-name="ldot.sc" horiz-adv-x="423" 
d="M33 0l104 591h65l-94 -531h276l-11 -60h-340zM256 245l21 122h69l-21 -122h-69z" />
    <glyph glyph-name="lslash.sc" horiz-adv-x="419" 
d="M148 289l-40 -229h276l-11 -60h-340l44 250l-86 -47l-17 44l113 62l50 282h65l-43 -242l88 48l17 -45z" />
    <glyph glyph-name="m.sc" horiz-adv-x="786" 
d="M33 0l104 591h88l122 -529l312 529h93l-106 -591h-62l96 514l-312 -514h-62l-125 517l-86 -517h-62z" />
    <glyph glyph-name="n.sc" horiz-adv-x="636" 
d="M183 514l-89 -514h-61l107 591h69l246 -508l86 508h61l-104 -591h-68z" />
    <glyph glyph-name="nacute.sc" horiz-adv-x="636" 
d="M354 690l96 136h69l-109 -136h-56zM183 514l-89 -514h-61l107 591h69l246 -508l86 508h61l-104 -591h-68z" />
    <glyph glyph-name="ncaron.sc" horiz-adv-x="636" 
d="M552 824l-132 -134h-64l-81 134h63l57 -86l87 86h70zM183 514l-89 -514h-61l107 591h69l246 -508l86 508h61l-104 -591h-68z" />
    <glyph glyph-name="ncommaaccent.sc" horiz-adv-x="636" 
d="M183 514l-89 -514h-61l107 591h69l246 -508l86 508h61l-104 -591h-68zM171 -222q25 41 47 96q9 21 16.5 43t10.5 33l3 12l62 -1q-13 -50 -36 -99q-12 -24 -25 -45.5t-20 -30.5l-7 -9z" />
    <glyph glyph-name="eng.sc" horiz-adv-x="636" 
d="M602 591l-104 -591q-17 -96 -57 -140.5t-135 -44.5h-45l9 50h40q60 0 89.5 31.5t41.5 103.5l-259 507l-88 -507h-61l107 591h67l250 -495l85 495h60z" />
    <glyph glyph-name="uni0272.sc" horiz-adv-x="624" 
d="M172 513l-91 -513q-17 -100 -54.5 -142.5t-132.5 -42.5h-44l9 51h40q58 0 84 29t40 105l107 591h68l245 -505l85 505h62l-104 -591h-67z" />
    <glyph glyph-name="ntilde.sc" horiz-adv-x="636" 
d="M543 788q-18 -98 -92 -98q-22 0 -38 7.5t-22.5 17t-17.5 17t-24 7.5q-22 0 -34 -16.5t-16 -33.5l-47 5q5 27 12 45t27.5 35t52.5 17q28 0 44.5 -12t28 -24t27.5 -12q23 0 35 16.5t16 33.5zM183 514l-89 -514h-61l107 591h69l246 -508l86 508h61l-104 -591h-68z" />
    <glyph glyph-name="o.sc" horiz-adv-x="618" 
d="M556 290q-27 -155 -96 -230t-201 -75q-136 0 -180.5 78t-16.5 236q27 156 96 231.5t201 75.5q136 0 180.5 -79t16.5 -237zM127 293q-24 -132 6 -192t128 -60q100 0 153.5 61.5t76.5 194.5q24 132 -6 192.5t-127 60.5q-100 0 -154 -62.5t-77 -194.5z" />
    <glyph glyph-name="oacute.sc" horiz-adv-x="618" 
d="M345 692l96 136h69l-109 -136h-56zM556 290q-27 -155 -96 -230t-201 -75q-136 0 -180.5 78t-16.5 236q27 156 96 231.5t201 75.5q136 0 180.5 -79t16.5 -237zM127 293q-24 -132 6 -192t128 -60q100 0 153.5 61.5t76.5 194.5q24 132 -6 192.5t-127 60.5q-100 0 -154 -62.5
t-77 -194.5z" />
    <glyph glyph-name="obreve.sc" horiz-adv-x="618" 
d="M531 802q-8 -39 -46.5 -75t-101.5 -36q-65 0 -94 36.5t-22 74.5h58q-4 -21 12.5 -43t46.5 -22q32 0 59 22t30 43h58zM556 290q-27 -155 -96 -230t-201 -75q-136 0 -180.5 78t-16.5 236q27 156 96 231.5t201 75.5q136 0 180.5 -79t16.5 -237zM127 293q-24 -132 6 -192
t128 -60q100 0 153.5 61.5t76.5 194.5q24 132 -6 192.5t-127 60.5q-100 0 -154 -62.5t-77 -194.5z" />
    <glyph glyph-name="ocircumflex.sc" horiz-adv-x="618" 
d="M517 692h-65l-57 87l-87 -87h-68l129 134h64zM556 290q-27 -155 -96 -230t-201 -75q-136 0 -180.5 78t-16.5 236q27 156 96 231.5t201 75.5q136 0 180.5 -79t16.5 -237zM127 293q-24 -132 6 -192t128 -60q100 0 153.5 61.5t76.5 194.5q24 132 -6 192.5t-127 60.5
q-100 0 -154 -62.5t-77 -194.5z" />
    <glyph glyph-name="odieresis.sc" horiz-adv-x="618" 
d="M271 692l22 121h62l-21 -121h-63zM423 692l22 121h62l-21 -121h-63zM556 290q-27 -155 -96 -230t-201 -75q-136 0 -180.5 78t-16.5 236q27 156 96 231.5t201 75.5q136 0 180.5 -79t16.5 -237zM127 293q-24 -132 6 -192t128 -60q100 0 153.5 61.5t76.5 194.5
q24 132 -6 192.5t-127 60.5q-100 0 -154 -62.5t-77 -194.5z" />
    <glyph glyph-name="uni1ECD.sc" horiz-adv-x="618" 
d="M556 290q-27 -155 -96 -230t-201 -75q-136 0 -180.5 78t-16.5 236q27 156 96 231.5t201 75.5q136 0 180.5 -79t16.5 -237zM127 293q-24 -132 6 -192t128 -60q100 0 153.5 61.5t76.5 194.5q24 132 -6 192.5t-127 60.5q-100 0 -154 -62.5t-77 -194.5zM193 -180l19 106h66
l-19 -106h-66z" />
    <glyph glyph-name="ograve.sc" horiz-adv-x="618" 
d="M402 692h-55l-60 136h66zM556 290q-27 -155 -96 -230t-201 -75q-136 0 -180.5 78t-16.5 236q27 156 96 231.5t201 75.5q136 0 180.5 -79t16.5 -237zM127 293q-24 -132 6 -192t128 -60q100 0 153.5 61.5t76.5 194.5q24 132 -6 192.5t-127 60.5q-100 0 -154 -62.5
t-77 -194.5z" />
    <glyph glyph-name="ohungarumlaut.sc" horiz-adv-x="618" 
d="M265 692l90 136h74l-103 -136h-61zM400 692l103 136h74l-116 -136h-61zM556 290q-27 -155 -96 -230t-201 -75q-136 0 -180.5 78t-16.5 236q27 156 96 231.5t201 75.5q136 0 180.5 -79t16.5 -237zM127 293q-24 -132 6 -192t128 -60q100 0 153.5 61.5t76.5 194.5
q24 132 -6 192.5t-127 60.5q-100 0 -154 -62.5t-77 -194.5z" />
    <glyph glyph-name="omacron.sc" horiz-adv-x="618" 
d="M276 770h234l-9 -50h-234zM556 290q-27 -155 -96 -230t-201 -75q-136 0 -180.5 78t-16.5 236q27 156 96 231.5t201 75.5q136 0 180.5 -79t16.5 -237zM127 293q-24 -132 6 -192t128 -60q100 0 153.5 61.5t76.5 194.5q24 132 -6 192.5t-127 60.5q-100 0 -154 -62.5
t-77 -194.5z" />
    <glyph glyph-name="uni01EB.sc" horiz-adv-x="618" 
d="M231 -85q7 38 44 70h-16q-136 0 -180.5 78t-16.5 236q27 156 96 231.5t201 75.5q136 0 180.5 -79t16.5 -237q-21 -119 -66 -190.5t-122 -98.5q-63 -38 -69 -81q-7 -37 29 -37q11 0 24 3.5t20 6.5l8 3l-5 -41q-25 -20 -71 -20q-43 0 -61 22.5t-12 57.5zM127 293
q-24 -132 6 -192t128 -60q100 0 153.5 61.5t76.5 194.5q24 132 -6 192.5t-127 60.5q-100 0 -154 -62.5t-77 -194.5z" />
    <glyph glyph-name="oslash.sc" horiz-adv-x="618" 
d="M-8 -13l79 88q-35 75 -9 224q27 156 96 231.5t201 75.5q100 0 150 -44l18 20h91l-68 -76q31 -73 6 -216q-27 -155 -96 -230t-201 -75q-93 0 -144 37l-32 -35h-91zM127 293q-19 -107 -5 -162l344 384q-35 35 -108 35q-100 0 -154 -62.5t-77 -194.5zM491 297q17 96 7 151
l-340 -378q35 -29 103 -29q100 0 153.5 61.5t76.5 194.5z" />
    <glyph glyph-name="oslashacute.sc" horiz-adv-x="618" 
d="M345 692l96 136h69l-109 -136h-56zM-8 -13l79 88q-35 75 -9 224q27 156 96 231.5t201 75.5q100 0 150 -44l18 20h91l-68 -76q31 -73 6 -216q-27 -155 -96 -230t-201 -75q-93 0 -144 37l-32 -35h-91zM127 293q-19 -107 -5 -162l344 384q-35 35 -108 35q-100 0 -154 -62.5
t-77 -194.5zM491 297q17 96 7 151l-340 -378q35 -29 103 -29q100 0 153.5 61.5t76.5 194.5z" />
    <glyph glyph-name="otilde.sc" horiz-adv-x="618" 
d="M534 790q-18 -98 -92 -98q-22 0 -38 7.5t-22.5 17t-17.5 17t-24 7.5q-22 0 -34 -16.5t-16 -33.5l-47 5q5 27 12 45t27.5 35t52.5 17q28 0 44.5 -12t28 -24t27.5 -12q23 0 35 16.5t16 33.5zM556 290q-27 -155 -96 -230t-201 -75q-136 0 -180.5 78t-16.5 236
q27 156 96 231.5t201 75.5q136 0 180.5 -79t16.5 -237zM127 293q-24 -132 6 -192t128 -60q100 0 153.5 61.5t76.5 194.5q24 132 -6 192.5t-127 60.5q-100 0 -154 -62.5t-77 -194.5z" />
    <glyph glyph-name="oe.sc" horiz-adv-x="835" 
d="M257 0q-134 0 -178.5 75t-17.5 224q25 147 94 219.5t203 72.5h490l-9 -57h-315l-36 -200h274l-11 -55h-272l-39 -222h319l-10 -57h-492zM125 290q-21 -120 10 -178t128 -58h112l85 483h-107q-97 0 -151.5 -61.5t-76.5 -185.5z" />
    <glyph glyph-name="p.sc" horiz-adv-x="556" 
d="M33 0l105 593h189q135 0 186 -42.5t31 -152.5q-20 -108 -82.5 -148t-198.5 -40h-128l-37 -210h-65zM193 538l-48 -271h134q90 0 137.5 27t62.5 112q15 82 -22 107t-127 25h-137z" />
    <glyph glyph-name="thorn.sc" horiz-adv-x="543" 
d="M33 0l104 591h66l-18 -103h144q117 0 162 -42.5t25 -152.5q-19 -108 -76.5 -147t-175.5 -39h-146l-19 -107h-66zM175 431l-47 -268h145q76 0 121 27.5t60 110.5q9 35 3 58.5t-14 37.5t-29 21.5t-40.5 10t-49.5 2.5h-149z" />
    <glyph glyph-name="q.sc" horiz-adv-x="612" 
d="M556 290q-33 -183 -122 -253l81 -80l-53 -41l-81 90q-57 -21 -122 -21q-136 0 -180.5 78t-16.5 236q27 156 96 231.5t201 75.5q136 0 180.5 -79t16.5 -237zM127 293q-24 -132 6 -192t128 -60q100 0 153.5 61.5t76.5 194.5q24 132 -6 192.5t-127 60.5q-100 0 -154 -62.5
t-77 -194.5z" />
    <glyph glyph-name="r.sc" horiz-adv-x="574" 
d="M33 0l105 593h204q127 0 175 -39t29 -147q-14 -80 -50 -118.5t-105 -50.5l91 -238h-69l-84 231q-15 -1 -48 -1h-143l-40 -230h-65zM193 536l-44 -249h134q45 0 74 4t57 17t44 39.5t23 67.5q7 40 0.5 65.5t-29.5 37t-49 15t-72 3.5h-138z" />
    <glyph glyph-name="racute.sc" horiz-adv-x="574" 
d="M321 690l96 136h69l-109 -136h-56zM33 0l105 593h204q127 0 175 -39t29 -147q-14 -80 -50 -118.5t-105 -50.5l91 -238h-69l-84 231q-15 -1 -48 -1h-143l-40 -230h-65zM193 536l-44 -249h134q45 0 74 4t57 17t44 39.5t23 67.5q7 40 0.5 65.5t-29.5 37t-49 15t-72 3.5h-138
z" />
    <glyph glyph-name="rcaron.sc" horiz-adv-x="574" 
d="M519 824l-132 -134h-64l-81 134h63l57 -86l87 86h70zM33 0l105 593h204q127 0 175 -39t29 -147q-14 -80 -50 -118.5t-105 -50.5l91 -238h-69l-84 231q-15 -1 -48 -1h-143l-40 -230h-65zM193 536l-44 -249h134q45 0 74 4t57 17t44 39.5t23 67.5q7 40 0.5 65.5t-29.5 37
t-49 15t-72 3.5h-138z" />
    <glyph glyph-name="rcommaaccent.sc" horiz-adv-x="574" 
d="M33 0l105 593h204q127 0 175 -39t29 -147q-14 -80 -50 -118.5t-105 -50.5l91 -238h-69l-84 231q-15 -1 -48 -1h-143l-40 -230h-65zM193 536l-44 -249h134q45 0 74 4t57 17t44 39.5t23 67.5q7 40 0.5 65.5t-29.5 37t-49 15t-72 3.5h-138zM135 -222q25 41 47 96
q9 21 16.5 43t10.5 33l3 12l62 -1q-13 -50 -36 -99q-12 -24 -25 -45.5t-20 -30.5l-7 -9z" />
    <glyph glyph-name="s.sc" horiz-adv-x="548" 
d="M470 146q-30 -164 -247 -161q-109 2 -159 50.5t-33 144.5l62 -1q-23 -135 134 -138q159 -3 180 111q7 40 -16.5 66t-63 37t-86 24.5t-85.5 29t-60.5 51t-11.5 89.5q13 75 72 116.5t164 40.5q117 -1 159 -47t27 -130l-63 2q6 21 3 41.5t-12.5 37.5t-39 28t-76.5 12
q-151 1 -171 -107q-6 -35 11 -58t48 -35.5t69 -22.5t76 -22t68 -29.5t44.5 -50.5t6.5 -79z" />
    <glyph glyph-name="sacute.sc" horiz-adv-x="548" 
d="M306 692l96 136h69l-109 -136h-56zM470 146q-30 -164 -247 -161q-109 2 -159 50.5t-33 144.5l62 -1q-23 -135 134 -138q159 -3 180 111q7 40 -16.5 66t-63 37t-86 24.5t-85.5 29t-60.5 51t-11.5 89.5q13 75 72 116.5t164 40.5q117 -1 159 -47t27 -130l-63 2q6 21 3 41.5
t-12.5 37.5t-39 28t-76.5 12q-151 1 -171 -107q-6 -35 11 -58t48 -35.5t69 -22.5t76 -22t68 -29.5t44.5 -50.5t6.5 -79z" />
    <glyph glyph-name="scaron.sc" horiz-adv-x="548" 
d="M504 826l-132 -134h-64l-81 134h63l57 -86l87 86h70zM470 146q-30 -164 -247 -161q-109 2 -159 50.5t-33 144.5l62 -1q-23 -135 134 -138q159 -3 180 111q7 40 -16.5 66t-63 37t-86 24.5t-85.5 29t-60.5 51t-11.5 89.5q13 75 72 116.5t164 40.5q117 -1 159 -47t27 -130
l-63 2q6 21 3 41.5t-12.5 37.5t-39 28t-76.5 12q-151 1 -171 -107q-6 -35 11 -58t48 -35.5t69 -22.5t76 -22t68 -29.5t44.5 -50.5t6.5 -79z" />
    <glyph glyph-name="scedilla.sc" horiz-adv-x="548" 
d="M291 -149q-8 -45 -38 -62t-93 -17q-17 0 -32.5 2t-22.5 4l-7 1l5 40q15 -4 41 -4q40 0 59.5 11t24.5 39q4 24 -15.5 33t-59.5 9h-8l49 80q-94 7 -136.5 55t-26.5 138l62 -1q-23 -135 134 -138q159 -3 180 111q7 40 -16.5 66t-63 37t-86 24.5t-85.5 29t-60.5 51
t-11.5 89.5q13 75 72 116.5t164 40.5q117 -1 159 -47t27 -130l-63 2q6 21 3 41.5t-12.5 37.5t-39 28t-76.5 12q-151 1 -171 -107q-6 -35 11 -58t48 -35.5t69 -22.5t76 -22t68 -29.5t44.5 -50.5t6.5 -79q-28 -149 -212 -160l-35 -55q80 -11 68 -80z" />
    <glyph glyph-name="scircumflex.sc" horiz-adv-x="548" 
d="M478 692h-65l-57 87l-87 -87h-68l129 134h64zM470 146q-30 -164 -247 -161q-109 2 -159 50.5t-33 144.5l62 -1q-23 -135 134 -138q159 -3 180 111q7 40 -16.5 66t-63 37t-86 24.5t-85.5 29t-60.5 51t-11.5 89.5q13 75 72 116.5t164 40.5q117 -1 159 -47t27 -130l-63 2
q6 21 3 41.5t-12.5 37.5t-39 28t-76.5 12q-151 1 -171 -107q-6 -35 11 -58t48 -35.5t69 -22.5t76 -22t68 -29.5t44.5 -50.5t6.5 -79z" />
    <glyph glyph-name="scommaaccent.sc" horiz-adv-x="548" 
d="M470 146q-30 -164 -247 -161q-109 2 -159 50.5t-33 144.5l62 -1q-23 -135 134 -138q159 -3 180 111q7 40 -16.5 66t-63 37t-86 24.5t-85.5 29t-60.5 51t-11.5 89.5q13 75 72 116.5t164 40.5q117 -1 159 -47t27 -130l-63 2q6 21 3 41.5t-12.5 37.5t-39 28t-76.5 12
q-151 1 -171 -107q-6 -35 11 -58t48 -35.5t69 -22.5t76 -22t68 -29.5t44.5 -50.5t6.5 -79zM131 -235q25 41 47 96q9 21 16.5 43t10.5 34l3 11l62 -1q-13 -50 -36 -99q-12 -24 -25 -45.5t-20 -30.5l-7 -9z" />
    <glyph glyph-name="germandbls.sc" horiz-adv-x="579" 
d="M528 184q-32 -184 -239 -184h-132l10 54h122q74 0 118.5 37.5t55.5 107.5q12 65 -21 99.5t-100 34.5q-17 0 -36 -2.5t-30 -4.5l-10 -3l6 42l219 173h-182q-121 -1 -144 -131l-72 -407h-62l73 415q15 86 60 130.5t147 45.5h268l-9 -53l-205 -162q96 -4 137 -54t26 -138z
" />
    <glyph glyph-name="uni0259.sc" horiz-adv-x="616" 
d="M554 290q-27 -155 -95.5 -230t-201.5 -75q-136 0 -179.5 78t-14.5 238h427q22 129 -8 188.5t-126 59.5q-148 0 -201 -140l-66 1q33 99 97.5 147.5t171.5 48.5q136 0 180 -78.5t16 -237.5zM260 43q89 0 141 49.5t78 153.5h-360q-11 -105 21.5 -154t119.5 -49z" />
    <glyph glyph-name="t.sc" horiz-adv-x="417" 
d="M120 0l96 532h-193l11 59h450l-10 -59h-194l-97 -532h-63z" />
    <glyph glyph-name="tbar.sc" horiz-adv-x="417" 
d="M120 0l46 255h-92l7 51h94l41 226h-193l11 59h450l-10 -59h-194l-41 -226h98l-7 -51h-101l-46 -255h-63z" />
    <glyph glyph-name="tcaron.sc" horiz-adv-x="417" 
d="M440 824l-132 -134h-64l-81 134h63l57 -86l87 86h70zM120 0l96 532h-193l11 59h450l-10 -59h-194l-97 -532h-63z" />
    <glyph glyph-name="uni0163.sc" horiz-adv-x="417" 
d="M216 532h-193l11 59h450l-10 -59h-194l-97 -532l-37 -58q80 -11 68 -80q-8 -45 -38 -62t-93 -17q-17 0 -32.5 1.5t-22.5 3.5l-7 2l5 40q15 -4 41 -4q40 0 59.5 11t24.5 39q4 24 -15.5 33t-59.5 9h-8l52 83z" />
    <glyph glyph-name="uni021B.sc" horiz-adv-x="416" 
d="M119 0l96 532h-193l11 59h450l-10 -59h-194l-97 -532h-63zM37 -224q24 42 46 97q9 21 16.5 42.5t10.5 32.5l3 12h63q-13 -50 -37 -99q-12 -24 -24.5 -45.5t-19.5 -30.5l-7 -9h-51z" />
    <glyph glyph-name="u.sc" horiz-adv-x="590" 
d="M516 287q-14 -78 -31 -128.5t-47.5 -92.5t-79.5 -61.5t-119 -19.5q-95 0 -141.5 37.5t-49 105.5t12.5 164l53 299h65l-54 -303q-25 -122 -0.5 -182t116.5 -60q97 0 142 58t68 187l53 300h65z" />
    <glyph glyph-name="uacute.sc" horiz-adv-x="590" 
d="M325 690l96 136h69l-109 -136h-56zM516 287q-14 -78 -31 -128.5t-47.5 -92.5t-79.5 -61.5t-119 -19.5q-95 0 -141.5 37.5t-49 105.5t12.5 164l53 299h65l-54 -303q-25 -122 -0.5 -182t116.5 -60q97 0 142 58t68 187l53 300h65z" />
    <glyph glyph-name="ubreve.sc" horiz-adv-x="590" 
d="M511 800q-8 -39 -46.5 -75t-101.5 -36q-65 0 -94 36.5t-22 74.5h58q-4 -21 12.5 -43t46.5 -22q32 0 59 22t30 43h58zM516 287q-14 -78 -31 -128.5t-47.5 -92.5t-79.5 -61.5t-119 -19.5q-95 0 -141.5 37.5t-49 105.5t12.5 164l53 299h65l-54 -303q-25 -122 -0.5 -182
t116.5 -60q97 0 142 58t68 187l53 300h65z" />
    <glyph glyph-name="ucircumflex.sc" horiz-adv-x="590" 
d="M497 690h-65l-57 87l-87 -87h-68l129 134h64zM516 287q-14 -78 -31 -128.5t-47.5 -92.5t-79.5 -61.5t-119 -19.5q-95 0 -141.5 37.5t-49 105.5t12.5 164l53 299h65l-54 -303q-25 -122 -0.5 -182t116.5 -60q97 0 142 58t68 187l53 300h65z" />
    <glyph glyph-name="udieresis.sc" horiz-adv-x="590" 
d="M251 690l22 121h62l-21 -121h-63zM403 690l22 121h62l-21 -121h-63zM516 287q-14 -78 -31 -128.5t-47.5 -92.5t-79.5 -61.5t-119 -19.5q-95 0 -141.5 37.5t-49 105.5t12.5 164l53 299h65l-54 -303q-25 -122 -0.5 -182t116.5 -60q97 0 142 58t68 187l53 300h65z" />
    <glyph glyph-name="uni1EE5.sc" horiz-adv-x="590" 
d="M516 287q-14 -78 -31 -128.5t-47.5 -92.5t-79.5 -61.5t-119 -19.5q-95 0 -141.5 37.5t-49 105.5t12.5 164l53 299h65l-54 -303q-25 -122 -0.5 -182t116.5 -60q97 0 142 58t68 187l53 300h65zM173 -182l19 106h66l-19 -106h-66z" />
    <glyph glyph-name="ugrave.sc" horiz-adv-x="590" 
d="M382 690h-55l-60 136h66zM516 287q-14 -78 -31 -128.5t-47.5 -92.5t-79.5 -61.5t-119 -19.5q-95 0 -141.5 37.5t-49 105.5t12.5 164l53 299h65l-54 -303q-25 -122 -0.5 -182t116.5 -60q97 0 142 58t68 187l53 300h65z" />
    <glyph glyph-name="uhungarumlaut.sc" horiz-adv-x="590" 
d="M245 690l90 136h74l-103 -136h-61zM380 690l103 136h74l-116 -136h-61zM516 287q-14 -78 -31 -128.5t-47.5 -92.5t-79.5 -61.5t-119 -19.5q-95 0 -141.5 37.5t-49 105.5t12.5 164l53 299h65l-54 -303q-25 -122 -0.5 -182t116.5 -60q97 0 142 58t68 187l53 300h65z" />
    <glyph glyph-name="umacron.sc" horiz-adv-x="590" 
d="M256 768h234l-9 -50h-234zM516 287q-14 -78 -31 -128.5t-47.5 -92.5t-79.5 -61.5t-119 -19.5q-95 0 -141.5 37.5t-49 105.5t12.5 164l53 299h65l-54 -303q-25 -122 -0.5 -182t116.5 -60q97 0 142 58t68 187l53 300h65z" />
    <glyph glyph-name="uogonek.sc" horiz-adv-x="590" 
d="M206 -88q6 38 47 73h-14q-95 0 -141.5 37.5t-49 105.5t12.5 164l53 299h65l-54 -303q-26 -122 -1.5 -182t117.5 -60q97 0 142 58t68 187l53 300h65l-53 -304q-22 -123 -58.5 -191.5t-110.5 -94.5q-66 -38 -73 -84q-7 -37 29 -37q11 0 24 3t21 7l7 3l-5 -41
q-25 -20 -71 -20q-43 0 -61 22.5t-12 57.5z" />
    <glyph glyph-name="uring.sc" horiz-adv-x="590" 
d="M459 759q-6 -36 -31.5 -57t-65.5 -21q-42 0 -63 24t-13 63q6 36 31.5 57t65.5 21q42 0 62.5 -24t13.5 -63zM332 760q-2 -17 6 -26.5t24 -9.5q19 0 32.5 11.5t17.5 31.5q6 36 -30 36q-19 0 -32.5 -12t-17.5 -31zM516 287q-14 -78 -31 -128.5t-47.5 -92.5t-79.5 -61.5
t-119 -19.5q-95 0 -141.5 37.5t-49 105.5t12.5 164l53 299h65l-54 -303q-25 -122 -0.5 -182t116.5 -60q97 0 142 58t68 187l53 300h65z" />
    <glyph glyph-name="utilde.sc" horiz-adv-x="590" 
d="M514 788q-18 -98 -92 -98q-22 0 -38 7.5t-22.5 17t-17.5 17t-24 7.5q-22 0 -34 -16.5t-16 -33.5l-47 5q5 27 12 45t27.5 35t52.5 17q28 0 44.5 -12t28 -24t27.5 -12q23 0 35 16.5t16 33.5zM516 287q-14 -78 -31 -128.5t-47.5 -92.5t-79.5 -61.5t-119 -19.5
q-95 0 -141.5 37.5t-49 105.5t12.5 164l53 299h65l-54 -303q-25 -122 -0.5 -182t116.5 -60q97 0 142 58t68 187l53 300h65z" />
    <glyph glyph-name="v.sc" horiz-adv-x="520" 
d="M58 591h71l89 -537l277 537h72l-320 -591h-78z" />
    <glyph glyph-name="w.sc" horiz-adv-x="786" 
d="M440 525l-231 -525h-77l-73 591h73l50 -533l232 533h72l49 -532l236 532h71l-280 -591h-75z" />
    <glyph glyph-name="wacute.sc" horiz-adv-x="786" 
d="M435 690l96 136h69l-109 -136h-56zM440 525l-231 -525h-77l-73 591h73l50 -533l232 533h72l49 -532l236 532h71l-280 -591h-75z" />
    <glyph glyph-name="wcircumflex.sc" horiz-adv-x="786" 
d="M607 690h-65l-57 87l-87 -87h-68l129 134h64zM440 525l-231 -525h-77l-73 591h73l50 -533l232 533h72l49 -532l236 532h71l-280 -591h-75z" />
    <glyph glyph-name="wdieresis.sc" horiz-adv-x="786" 
d="M361 690l22 121h62l-21 -121h-63zM513 690l22 121h62l-21 -121h-63zM440 525l-231 -525h-77l-73 591h73l50 -533l232 533h72l49 -532l236 532h71l-280 -591h-75z" />
    <glyph glyph-name="wgrave.sc" horiz-adv-x="786" 
d="M492 690h-55l-60 136h66zM440 525l-231 -525h-77l-73 591h73l50 -533l232 533h72l49 -532l236 532h71l-280 -591h-75z" />
    <glyph glyph-name="x.sc" horiz-adv-x="510" 
d="M243 253l-218 -253h-78l261 296l-152 295h70l131 -254l219 254h77l-264 -297l153 -294h-70z" />
    <glyph glyph-name="y.sc" horiz-adv-x="473" 
d="M155 0l35 194l-142 397h72l109 -343l226 343h77l-278 -395l-35 -196h-64z" />
    <glyph glyph-name="yacute.sc" horiz-adv-x="473" 
d="M271 690l96 136h69l-109 -136h-56zM155 0l35 194l-142 397h72l109 -343l226 343h77l-278 -395l-35 -196h-64z" />
    <glyph glyph-name="ycircumflex.sc" horiz-adv-x="473" 
d="M443 690h-65l-57 87l-87 -87h-68l129 134h64zM155 0l35 194l-142 397h72l109 -343l226 343h77l-278 -395l-35 -196h-64z" />
    <glyph glyph-name="ydieresis.sc" horiz-adv-x="473" 
d="M197 690l22 121h62l-21 -121h-63zM349 690l22 121h62l-21 -121h-63zM155 0l35 194l-142 397h72l109 -343l226 343h77l-278 -395l-35 -196h-64z" />
    <glyph glyph-name="ygrave.sc" horiz-adv-x="473" 
d="M328 690h-55l-60 136h66zM155 0l35 194l-142 397h72l109 -343l226 343h77l-278 -395l-35 -196h-64z" />
    <glyph glyph-name="uni0233.sc" horiz-adv-x="473" 
d="M202 768h234l-9 -50h-234zM155 0l35 194l-142 397h72l109 -343l226 343h77l-278 -395l-35 -196h-64z" />
    <glyph glyph-name="uni1EF9.sc" horiz-adv-x="473" 
d="M460 788q-18 -98 -92 -98q-22 0 -38 7.5t-22.5 17t-17.5 17t-24 7.5q-22 0 -34 -16.5t-16 -33.5l-47 5q5 27 12 45t27.5 35t52.5 17q28 0 44.5 -12t28 -24t27.5 -12q23 0 35 16.5t16 33.5zM155 0l35 194l-142 397h72l109 -343l226 343h77l-278 -395l-35 -196h-64z" />
    <glyph glyph-name="z.sc" horiz-adv-x="457" 
d="M-39 3l4 23l5 32l426 475h-327l11 55h402l-6 -30l-3 -25l-428 -475h346l-9 -55h-421z" />
    <glyph glyph-name="zacute.sc" horiz-adv-x="457" 
d="M264 690l96 136h69l-109 -136h-56zM-39 3l4 23l5 32l426 475h-327l11 55h402l-6 -30l-3 -25l-428 -475h346l-9 -55h-421z" />
    <glyph glyph-name="zcaron.sc" horiz-adv-x="457" 
d="M462 824l-132 -134h-64l-81 134h63l57 -86l87 86h70zM-39 3l4 23l5 32l426 475h-327l11 55h402l-6 -30l-3 -25l-428 -475h346l-9 -55h-421z" />
    <glyph glyph-name="zdotaccent.sc" horiz-adv-x="457" 
d="M267 698l20 113h66l-19 -113h-67zM-39 3l4 23l5 32l426 475h-327l11 55h402l-6 -30l-3 -25l-428 -475h346l-9 -55h-421z" />
    <glyph glyph-name="zero.osf" horiz-adv-x="612" 
d="M548 272q-25 -145 -89 -214t-199 -69q-138 0 -180 72t-15 219q25 145 89.5 215.5t198.5 70.5q137 1 179 -73t16 -221zM130 272q-21 -121 7 -173.5t125 -52.5q100 0 149 55.5t71 178.5q21 121 -6.5 175t-124.5 54q-99 0 -148.5 -56.5t-72.5 -180.5z" />
    <glyph glyph-name="one.osf" horiz-adv-x="311" 
d="M-25 0l11 58h99l74 418l-99 -41l11 72l123 50h45l-89 -499h106l-10 -58h-271z" />
    <glyph glyph-name="two.osf" horiz-adv-x="500" 
d="M-13 0l9 51q99 69 200 141q50 35 69 49t49.5 39t42 41t23.5 39t17 50q7 46 -20.5 72.5t-94.5 26.5t-111 -31t-52 -81h-62q13 76 71 122t156 46q106 0 147 -44t29 -115q-9 -47 -35.5 -87t-50.5 -62.5t-95 -78.5q-5 -4 -7.5 -6.5t-7 -6t-8.5 -6.5q-30 -21 -157 -107l305 4
l-11 -56h-406z" />
    <glyph glyph-name="three.osf" horiz-adv-x="507" 
d="M243 307q110 -7 157 -65.5t30 -161.5q-42 -233 -274 -233q-116 0 -164.5 58t-32.5 143h65q-11 -61 24 -100.5t109 -39.5q84 0 136.5 47t68.5 137q14 77 -27 119t-117 42q-19 0 -42.5 -2t-37.5 -4l-13 -2l6 50l261 201h-320l11 62h416l-11 -62z" />
    <glyph glyph-name="four.osf" horiz-adv-x="544" 
d="M492 558l-88 -502h83l-10 -56h-83l-30 -172h-65l30 172h-363l9 56l419 502h98zM49 56h290l81 456z" />
    <glyph glyph-name="five.osf" horiz-adv-x="531" 
d="M195 494l-77 -221q64 48 169 48q103 0 148 -67t26 -175q-19 -107 -87 -168.5t-187 -61.5q-122 0 -173.5 56.5t-37.5 135.5h68q-10 -56 28 -94t118 -38q83 0 136 46.5t69 132.5q15 84 -21 129.5t-107 45.5q-51 0 -94 -16.5t-58.5 -29.5t-24.5 -25h-64l124 365h357l-10 -60
z" />
    <glyph glyph-name="six.osf" horiz-adv-x="604" 
d="M546 221q-41 -232 -287 -232q-132 -1 -177.5 78.5t-15.5 247.5q39 218 111 309t201 91q61 0 104.5 -18.5t63 -48.5t26 -61.5t1.5 -64.5h-66q10 54 -21 93.5t-110 39.5q-85 0 -140 -62t-90 -217q79 92 209 92q119 0 165 -67t26 -180zM339 407q-54 0 -101.5 -24t-70 -47.5
t-39.5 -50.5q-20 -126 13 -181.5t120 -55.5q186 0 218 183q31 176 -140 176z" />
    <glyph glyph-name="seven.osf" horiz-adv-x="484" 
d="M56 -144q17 99 62 201.5t97 177.5t101.5 136t81.5 93l33 31l-380 -1l12 64h456l-12 -63q-13 -12 -35.5 -34t-82 -91.5t-108 -140.5t-96.5 -174t-65 -199h-64z" />
    <glyph glyph-name="eight.osf" horiz-adv-x="617" 
d="M261 -11q-129 0 -179.5 55t-33.5 153q8 47 29.5 83.5t47.5 55.5t48 28.5t38 10.5q-10 1 -24.5 10t-31 26t-25 47.5t-1.5 68.5q34 188 251 188q118 0 163 -53t29 -144q-12 -68 -56.5 -104t-76.5 -40q13 -1 31 -12t37.5 -31t28.5 -58t1 -85q-36 -199 -276 -199zM378 660
q-158 0 -184 -147q-9 -53 25 -83t107 -30q75 0 122 33t57 89q13 72 -19 105t-108 33zM322 344q-83 0 -136.5 -40t-66.5 -110q-13 -75 23.5 -109.5t121.5 -34.5q176 0 204 153q11 68 -26 104.5t-120 36.5z" />
    <glyph glyph-name="nine.osf" horiz-adv-x="609" 
d="M529 220q-38 -215 -107.5 -298t-201.5 -83q-62 0 -107 18.5t-66 48t-28.5 61t-2.5 63.5h65q-9 -51 26 -91.5t115 -40.5q87 0 140 55t88 204q-79 -93 -207 -93q-117 0 -160 72t-21 196q19 107 91.5 170.5t187.5 63.5q132 0 176.5 -81t11.5 -265zM256 126q54 0 102 24.5
t70.5 48.5t39.5 51q22 142 -10 199t-119 57q-79 0 -137.5 -49t-73.5 -135q-17 -96 16 -146t112 -50z" />
    <glyph glyph-name="zero.tf" horiz-adv-x="645" 
d="M581 346q-33 -191 -106 -274t-212 -83q-143 0 -188.5 86t-11.5 280q33 191 106 274.5t213 83.5q142 0 187.5 -86.5t11.5 -280.5zM129 346q-29 -163 3.5 -229t133.5 -66q103 0 161.5 69t87.5 235q29 163 -3 229.5t-133 66.5q-103 0 -161.5 -69t-88.5 -236z" />
    <glyph glyph-name="one.tf" horiz-adv-x="646" 
d="M121 0l6 54h123l101 569l-142 -59l12 71l165 70h46l-116 -651h125l-6 -54h-314z" />
    <glyph glyph-name="two.tf" horiz-adv-x="646" 
d="M28 5l1 6l8 51l1 5q107 76 228 170q79 62 116.5 94.5t73 83t44.5 104.5q10 60 -21.5 95.5t-105.5 35.5q-72 0 -125 -41t-64 -105h-65q16 92 84.5 150.5t171.5 58.5q113 0 160 -56t32 -141q-9 -50 -27.5 -90.5t-56 -82.5t-64.5 -67t-88 -76q-54 -41 -183 -137l349 3
l-11 -61h-458z" />
    <glyph glyph-name="three.tf" horiz-adv-x="646" 
d="M326 448q114 -4 163 -63t30 -164q-41 -232 -282 -232q-122 0 -171.5 57.5t-34.5 142.5h66q-10 -61 26 -100t116 -39q180 0 212 184q14 78 -28 119.5t-124 41.5q-19 0 -42.5 -2t-36.5 -4l-14 -2l6 50l269 199h-337l11 63h434l-11 -63z" />
    <glyph glyph-name="four.tf" horiz-adv-x="646" 
d="M352 0l27 156h-362l9 60l417 487h98l-86 -487h84l-10 -60h-85l-27 -156h-65zM390 216l78 442l-367 -442h289z" />
    <glyph glyph-name="five.tf" horiz-adv-x="645" 
d="M253 631l-76 -218q64 48 176 48q108 0 155 -67.5t28 -174.5t-88 -168.5t-194 -61.5q-128 0 -181 56t-39 136h68q-10 -57 29.5 -94.5t125.5 -37.5q88 0 142.5 46.5t69.5 132.5q15 84 -22 129.5t-113 45.5q-55 0 -100 -16.5t-61 -30t-24 -24.5h-65l123 363h375l-10 -60z
" />
    <glyph glyph-name="six.tf" horiz-adv-x="645" 
d="M560 221q-42 -232 -289 -232q-138 -1 -185 78t-17 248q38 219 111.5 309.5t209.5 90.5q62 0 105.5 -18.5t63.5 -48.5t26.5 -62t0.5 -64h-67q10 54 -21 93.5t-110 39.5q-89 0 -144.5 -61.5t-92.5 -217.5q82 92 216 92q120 0 166.5 -67t26.5 -180zM351 407
q-138 0 -219 -122q-19 -127 15 -182t126 -55q186 0 218 183q31 176 -140 176z" />
    <glyph glyph-name="seven.tf" horiz-adv-x="646" 
d="M158 0q17 98 62 200t97 176.5t101.5 135.5t81.5 92l33 32l-384 -1l12 64h462l-11 -64q-13 -12 -35.5 -34t-82 -91t-108.5 -140t-96.5 -173t-64.5 -197h-67z" />
    <glyph glyph-name="eight.tf" horiz-adv-x="645" 
d="M265 -11q-134 0 -186 55t-35 153q8 47 29.5 83.5t47.5 55.5t48 28.5t38 10.5q-10 1 -24.5 10t-31.5 26t-25 47.5t-1 68.5q32 188 259 188q123 0 169.5 -52.5t30.5 -144.5q-12 -68 -56.5 -104t-77.5 -40q14 -1 32 -12t37 -31t28 -58t1 -85q-35 -199 -283 -199zM382 660
q-166 0 -192 -147q-9 -53 26 -83t113 -30q81 0 129.5 33t58.5 89q13 72 -20.5 105t-114.5 33zM326 344q-89 0 -143.5 -39.5t-67.5 -110.5q-13 -75 24.5 -109.5t128.5 -34.5q185 0 211 153q12 68 -26.5 104.5t-126.5 36.5z" />
    <glyph glyph-name="nine.tf" horiz-adv-x="645" 
d="M571 369q-38 -215 -109 -297.5t-210 -82.5q-66 0 -113 18.5t-69 48t-30 61t-2 63.5h67q-10 -52 26.5 -92t122.5 -40q91 0 144 54t89 203q-81 -91 -212 -91q-124 0 -168.5 71t-22.5 196q19 107 92.5 170.5t195.5 63.5q140 0 185.5 -80.5t13.5 -265.5zM287 275
q56 0 105.5 23.5t73 47.5t40.5 50q24 144 -9 201.5t-127 57.5q-84 0 -143.5 -48.5t-74.5 -135.5q-35 -196 135 -196z" />
    <glyph glyph-name="zero.subs" horiz-adv-x="508" 
d="M393 55q-24 -138 -76.5 -197t-154.5 -59q-105 0 -139 62t-9 203q24 138 76.5 197.5t154.5 59.5q105 0 139 -62.5t9 -203.5zM69 55q-20 -114 2 -159.5t92 -45.5q72 0 113 48.5t62 165.5q20 114 -2 160t-91 46q-72 0 -113.5 -49t-62.5 -166z" />
    <glyph glyph-name="one.subs" horiz-adv-x="257" 
d="M17 -193l78 441l-102 -45l9 61l122 52h38l-90 -509h-55z" />
    <glyph glyph-name="two.subs" horiz-adv-x="414" 
d="M-60 -188l9 47q78 63 162 129q56 43 83 67t52 60.5t32 76.5q7 41 -14.5 65.5t-72.5 24.5t-88 -28.5t-45 -73.5h-55q12 68 61.5 110.5t126.5 42.5q86 0 120.5 -41t23.5 -104q-7 -37 -20.5 -67t-39.5 -59.5t-46 -48t-63 -54.5q-105 -81 -127 -99l240 3l-10 -51h-329z" />
    <glyph glyph-name="three.subs" horiz-adv-x="428" 
d="M179 131q79 -7 111.5 -51.5t19.5 -120.5q-30 -161 -204 -161q-89 0 -126 42.5t-26 106.5h56q-8 -42 17 -69t79 -27q125 0 146 120q10 55 -17.5 85.5t-86.5 30.5l-65 -6l6 41l181 135l-237 -1l10 52h317l-9 -50z" />
    <glyph glyph-name="four.subs" horiz-adv-x="424" 
d="M184 -193l19 110h-260l8 50l292 347h85l-62 -347h62l-10 -50h-61l-19 -110h-54zM212 -33l55 307l-249 -307h194z" />
    <glyph glyph-name="five.subs" horiz-adv-x="456" 
d="M139 259l-53 -151q43 32 116 32q84 0 118 -48.5t21 -127.5q-29 -166 -205 -166q-94 0 -133 41.5t-28 99.5h57q-7 -38 20 -65t85 -27q61 0 99 32.5t49 93.5q10 57 -15.5 88t-82.5 31q-36 0 -65.5 -11t-41 -20.5t-17.5 -18.5l-54 1l90 265h275l-9 -50z" />
    <glyph glyph-name="six.subs" horiz-adv-x="490" 
d="M369 -35q-29 -167 -210 -167q-101 0 -135 57.5t-12 179.5q27 158 79.5 222.5t152.5 64.5q45 0 77 -13.5t47 -35t19.5 -45t0.5 -47.5h-55q6 37 -15 64t-75 27q-62 0 -101 -41.5t-63 -145.5q56 60 150 60q88 0 121 -49t19 -131zM217 95q-95 0 -152 -82q-14 -89 9 -127
t86 -38q129 0 151 126q22 121 -94 121z" />
    <glyph glyph-name="seven.subs" horiz-adv-x="366" 
d="M-5 -193q12 70 44 142t69 125.5t72.5 96.5t58.5 65l23 23l-274 -3l10 55h337l-9 -52q-9 -9 -25 -24.5t-58.5 -65t-77 -100t-68 -123t-45.5 -139.5h-57z" />
    <glyph glyph-name="eight.subs" horiz-adv-x="486" 
d="M153 -201q-99 0 -137.5 40t-25.5 111q11 63 47 94.5t67 32.5q-21 2 -43 31t-13 80q25 134 189 134q90 0 124 -38t22 -105q-9 -49 -38 -74.5t-54 -27.5q27 -2 52.5 -37t14.5 -99q-25 -142 -205 -142zM236 277q-115 0 -133 -103q-7 -38 15 -56.5t79 -18.5q115 0 131 84
q9 49 -13.5 71.5t-78.5 22.5zM197 52q-128 0 -148 -105q-8 -51 17.5 -74.5t87.5 -23.5q128 0 147 107q8 49 -16.5 72.5t-87.5 23.5z" />
    <glyph glyph-name="nine.subs" horiz-adv-x="501" 
d="M388 72q-28 -156 -79 -215t-153 -59q-92 0 -129 43.5t-28 96.5h56q-7 -35 17.5 -62.5t83.5 -27.5q63 0 100.5 36.5t61.5 136.5q-56 -60 -148 -60q-172 0 -138 194q29 167 209 167q102 0 136 -58.5t11 -191.5zM181 12q95 0 152 81q16 101 -6.5 140t-86.5 39
q-129 0 -151 -127q-24 -133 92 -133z" />
    <glyph glyph-name="zero.dnom" horiz-adv-x="508" 
d="M443 248q-24 -138 -76.5 -197t-154.5 -59q-105 0 -139 62t-9 203q24 138 76.5 197.5t154.5 59.5q105 0 139 -62.5t9 -203.5zM119 248q-20 -114 2 -159.5t92 -45.5q72 0 113 48.5t62 165.5q20 114 -2 160t-91 46q-72 0 -113.5 -49t-62.5 -166z" />
    <glyph glyph-name="one.dnom" horiz-adv-x="257" 
d="M67 0l78 441l-102 -45l9 61l122 52h38l-90 -509h-55z" />
    <glyph glyph-name="two.dnom" horiz-adv-x="414" 
d="M-10 5l9 47q78 63 162 129q56 43 83 67t52 60.5t32 76.5q7 41 -14.5 65.5t-72.5 24.5t-88 -28.5t-45 -73.5h-55q12 68 61.5 110.5t126.5 42.5q86 0 120.5 -41t23.5 -104q-7 -37 -20.5 -67t-39.5 -59.5t-46 -48t-63 -54.5l-127 -99l240 3l-10 -51h-329z" />
    <glyph glyph-name="three.dnom" horiz-adv-x="428" 
d="M229 324q79 -7 111.5 -51.5t19.5 -120.5q-30 -161 -204 -161q-89 0 -126 42.5t-26 106.5h56q-8 -42 17 -69t79 -27q125 0 146 120q10 55 -17.5 85.5t-86.5 30.5l-65 -6l6 41l181 135l-237 -1l10 52h317l-9 -50z" />
    <glyph glyph-name="four.dnom" horiz-adv-x="424" 
d="M234 0l19 110h-260l8 50l292 347h85l-62 -347h62l-10 -50h-61l-19 -110h-54zM262 160l55 307l-249 -307h194z" />
    <glyph glyph-name="five.dnom" horiz-adv-x="456" 
d="M189 452l-53 -151q43 32 116 32q84 0 118 -48.5t21 -127.5q-29 -166 -205 -166q-94 0 -133 41.5t-28 99.5h57q-7 -38 20 -65t85 -27q61 0 99 32.5t49 93.5q10 57 -15.5 88t-82.5 31q-36 0 -65.5 -11t-41 -20.5t-17.5 -18.5l-54 1l90 265h275l-9 -50z" />
    <glyph glyph-name="six.dnom" horiz-adv-x="490" 
d="M419 158q-29 -167 -210 -167q-101 0 -135 57.5t-12 179.5q27 158 79.5 222.5t152.5 64.5q45 0 77 -13.5t47 -35t19.5 -45t0.5 -47.5h-55q6 37 -15 64t-75 27q-62 0 -101 -41.5t-63 -145.5q56 60 150 60q88 0 121 -49t19 -131zM267 288q-95 0 -152 -82q-14 -89 9 -127
t86 -38q129 0 151 126q22 121 -94 121z" />
    <glyph glyph-name="seven.dnom" horiz-adv-x="366" 
d="M45 0q12 70 44 142t69 125.5t72.5 96.5t58.5 66l23 22l-274 -3l10 55h337l-9 -52q-9 -9 -25 -24.5t-58.5 -65t-77 -100t-68 -123t-45.5 -139.5h-57z" />
    <glyph glyph-name="eight.dnom" horiz-adv-x="486" 
d="M203 -8q-99 0 -137.5 40t-25.5 111q11 63 47 94.5t67 32.5q-21 2 -43 31t-13 80q25 134 189 134q90 0 124 -38t22 -105q-9 -49 -38 -74.5t-54 -27.5q27 -2 52.5 -37t14.5 -99q-25 -142 -205 -142zM286 470q-115 0 -133 -103q-7 -38 15 -56.5t79 -18.5q115 0 131 84
q9 49 -13.5 71.5t-78.5 22.5zM247 245q-128 0 -148 -105q-8 -51 17.5 -74.5t87.5 -23.5q128 0 147 107q8 49 -16.5 72.5t-87.5 23.5z" />
    <glyph glyph-name="nine.dnom" horiz-adv-x="501" 
d="M438 265q-28 -156 -79 -215t-153 -59q-92 0 -129 43.5t-28 96.5h56q-7 -35 17.5 -62.5t83.5 -27.5q63 0 100.5 36.5t61.5 136.5q-56 -60 -148 -60q-172 0 -138 194q29 167 209 167q102 0 136 -58.5t11 -191.5zM231 205q95 0 152 81q16 101 -6.5 140t-86.5 39
q-129 0 -151 -127q-24 -133 92 -133z" />
    <glyph glyph-name="zero.numr" horiz-adv-x="508" 
d="M488 501q-24 -138 -76.5 -197t-154.5 -59q-105 0 -139 62t-9 203q24 138 76.5 197.5t154.5 59.5q105 0 139 -62.5t9 -203.5zM164 501q-20 -114 2 -159.5t92 -45.5q72 0 113 48.5t62 165.5q20 114 -2 160t-91 46q-72 0 -113.5 -49t-62.5 -166z" />
    <glyph glyph-name="one.numr" horiz-adv-x="257" 
d="M112 253l78 441l-102 -45l9 61l122 52h38l-90 -509h-55z" />
    <glyph glyph-name="two.numr" horiz-adv-x="414" 
d="M35 258l9 47q78 63 162 129q56 43 83 67t52 60.5t32 76.5q7 41 -14.5 65.5t-72.5 24.5t-88 -28.5t-45 -73.5h-55q12 68 61.5 110.5t126.5 42.5q86 0 120.5 -41t23.5 -104q-7 -37 -20.5 -67t-39.5 -59.5t-46 -48t-63 -54.5l-127 -99l240 3l-10 -51h-329z" />
    <glyph glyph-name="three.numr" horiz-adv-x="428" 
d="M274 577q79 -7 111.5 -51.5t19.5 -120.5q-30 -161 -204 -161q-89 0 -126 42.5t-26 106.5h56q-8 -42 17 -69t79 -27q125 0 146 120q10 55 -17.5 85.5t-86.5 30.5l-65 -6l6 41l181 135l-237 -1l10 52h317l-9 -50z" />
    <glyph glyph-name="four.numr" horiz-adv-x="424" 
d="M279 253l19 110h-260l8 50l292 347h85l-62 -347h62l-10 -50h-61l-19 -110h-54zM307 413l55 307l-249 -307h194z" />
    <glyph glyph-name="five.numr" horiz-adv-x="456" 
d="M234 705l-53 -151q43 32 116 32q84 0 118 -48.5t21 -127.5q-29 -166 -205 -166q-94 0 -133 41.5t-28 99.5h57q-7 -38 20 -65t85 -27q61 0 99 32.5t49 93.5q10 57 -15.5 88t-82.5 31q-36 0 -65.5 -11t-41 -20.5t-17.5 -18.5l-54 1l90 265h275l-9 -50z" />
    <glyph glyph-name="six.numr" horiz-adv-x="490" 
d="M464 411q-29 -167 -210 -167q-101 0 -135 57.5t-12 179.5q27 158 79.5 222.5t152.5 64.5q45 0 77 -13.5t47 -35t19.5 -45t0.5 -47.5h-55q6 37 -15 64t-75 27q-62 0 -101 -41.5t-63 -145.5q56 60 150 60q88 0 121 -49t19 -131zM312 541q-95 0 -152 -82q-14 -89 9 -127
t86 -38q129 0 151 126q22 121 -94 121z" />
    <glyph glyph-name="seven.numr" horiz-adv-x="366" 
d="M90 253q12 70 44 142t69 125.5t72.5 96.5t58.5 65l23 23l-274 -3l10 55h337l-9 -52q-9 -9 -25 -24.5t-58.5 -65t-77 -100t-68 -123t-45.5 -139.5h-57z" />
    <glyph glyph-name="eight.numr" horiz-adv-x="486" 
d="M248 245q-99 0 -137.5 40t-25.5 111q11 63 47 94.5t67 32.5q-21 2 -43 31t-13 80q25 134 189 134q90 0 124 -38t22 -105q-9 -49 -38 -74.5t-54 -27.5q27 -2 52.5 -37t14.5 -99q-25 -142 -205 -142zM331 723q-115 0 -133 -103q-7 -38 15 -56.5t79 -18.5q115 0 131 84
q9 49 -13.5 71.5t-78.5 22.5zM292 498q-128 0 -148 -105q-8 -51 17.5 -74.5t87.5 -23.5q128 0 147 107q8 49 -16.5 72.5t-87.5 23.5z" />
    <glyph glyph-name="nine.numr" horiz-adv-x="501" 
d="M483 518q-28 -156 -79 -215t-153 -59q-92 0 -129 43.5t-28 96.5h56q-7 -35 17.5 -62.5t83.5 -27.5q63 0 100.5 36.5t61.5 136.5q-56 -60 -148 -60q-172 0 -138 194q29 167 209 167q102 0 136 -58.5t11 -191.5zM276 458q95 0 152 81q16 101 -6.5 140t-86.5 39
q-129 0 -151 -127q-24 -133 92 -133z" />
    <glyph glyph-name="zero.sc" horiz-adv-x="554" 
d="M497 288q-28 -160 -89 -228.5t-179 -68.5q-122 0 -161.5 71.5t-10.5 233.5q28 161 89.5 230t180.5 69q121 0 160 -72t10 -235zM121 289q-24 -134 2 -187t108 -53q84 0 131.5 55.5t71.5 190.5t-2 189t-108 54q-84 0 -131.5 -56.5t-71.5 -192.5z" />
    <glyph glyph-name="one.sc" horiz-adv-x="287" 
d="M71 0l90 513l-119 -48l12 65l141 59h42l-104 -589h-62z" />
    <glyph glyph-name="two.sc" horiz-adv-x="480" 
d="M-9 4l1 6l4 20l5 26l1 4q89 62 189 140q66 50 97 76.5t61 68t38 85.5q9 49 -17.5 78t-87.5 29q-59 0 -101.5 -33.5t-52.5 -87.5h-62q14 79 72 129t147 50q99 0 138.5 -47.5t26.5 -119.5q-7 -42 -23 -76t-48 -69t-54 -55t-74 -63q-29 -22 -147 -108l289 4l-11 -57h-391z
" />
    <glyph glyph-name="three.sc" horiz-adv-x="494" 
d="M265 374q93 -5 133.5 -54.5t24.5 -135.5q-34 -194 -239 -194q-105 0 -147.5 49t-29.5 121h62q-9 -49 21 -80.5t95 -31.5q147 0 173 148q11 63 -23.5 97t-101.5 34l-78 -7l6 44l222 162l-283 -2l10 59h371l-10 -56z" />
    <glyph glyph-name="four.sc" horiz-adv-x="495" 
d="M281 0l22 127h-304l8 55l346 405h93l-71 -405h70l-10 -55h-70l-22 -127h-62zM313 182l63 362l-300 -362h237z" />
    <glyph glyph-name="five.sc" horiz-adv-x="513" 
d="M214 523l-62 -178q56 40 147 40q92 0 131 -56t23 -146t-74.5 -141.5t-164.5 -51.5q-110 0 -155 48.5t-33 115.5h65q-8 -46 24 -77t102 -31q72 0 116 37t57 106q12 70 -18 107t-92 37q-45 0 -81 -13t-50 -24t-21 -21h-62l105 305h320l-10 -56z" />
    <glyph glyph-name="six.sc" horiz-adv-x="539" 
d="M472 184q-34 -194 -244 -194q-118 0 -158 66.5t-15 207.5q32 183 94 258t177 75q54 0 91.5 -15.5t54.5 -41t22.5 -52.5t0.5 -55h-63q8 44 -17 77t-89 33q-73 0 -119 -50t-75 -174q67 71 177 71q101 0 140.5 -56t22.5 -150zM294 336q-65 0 -109 -30t-69 -66
q-16 -104 12 -149t102 -45q152 0 178 148q25 142 -114 142z" />
    <glyph glyph-name="seven.sc" horiz-adv-x="412" 
d="M54 0q14 81 51.5 164.5t80.5 145.5t84 112.5t68 76.5l27 26l-320 -2l10 60h393l-10 -59q-11 -10 -29.5 -28t-68 -75.5t-90 -116t-79.5 -142.5t-53 -162h-64z" />
    <glyph glyph-name="eight.sc" horiz-adv-x="530" 
d="M220 -9q-115 0 -159.5 46t-30.5 128q9 51 37.5 86.5t54 48t44.5 13.5q-8 1 -20 8.5t-25.5 21.5t-20.5 40t-1 57q26 157 219 157q106 0 146 -44t26 -121q-10 -57 -47 -87t-64 -32q30 -4 62 -44t20 -113q-30 -165 -241 -165zM318 547q-137 0 -158 -116q-8 -44 21 -69.5
t92 -25.5q66 0 106.5 26.5t48.5 71.5q10 59 -17 86t-93 27zM271 286q-74 0 -118 -31t-54 -87q-11 -62 20 -91.5t103 -29.5q152 0 174 120q9 57 -22.5 88t-102.5 31z" />
    <glyph glyph-name="nine.sc" horiz-adv-x="541" 
d="M481 307q-32 -180 -91.5 -248.5t-178.5 -68.5q-57 0 -97.5 15.5t-59 41t-25 52t-1.5 54.5l63 -1q-7 -43 22 -75t99 -32q75 0 119.5 44t73.5 163q-65 -73 -176 -73q-202 0 -163 223q16 89 78.5 142t166.5 53q119 0 158.5 -68t11.5 -222zM241 234q66 0 111 31.5t69 68.5
q17 115 -10 161t-102 46q-70 0 -118.5 -37.5t-60.5 -107.5q-28 -162 111 -162z" />
    <glyph glyph-name="exclamdown.case" horiz-adv-x="325" 
d="M172 600l19 108h66l-19 -108h-66zM66 0l99 545h62l-95 -545h-66z" />
    <glyph glyph-name="questiondown.case" horiz-adv-x="458" 
d="M330 708l-19 -104h-66l19 104h66zM236 549h66l-9 -42q-9 -52 -32 -88t-50 -56.5t-54.5 -40.5t-50 -52.5t-31.5 -79.5q-24 -138 102 -138q135 0 162 151h64q-37 -209 -227 -209q-105 0 -146 53t-24 147q8 44 26 77.5t39.5 52t46 38t46 36t39.5 46t26 68.5z" />
    <glyph glyph-name="braceleft.case" horiz-adv-x="457" 
d="M210 607q9 50 19.5 76.5t34.5 46.5t62.5 26t105.5 6l-4 -52q-85 0 -114.5 -24t-41.5 -90l-30 -175q-6 -29 -22 -47.5t-28 -22.5t-15 -3l5 -2q4 -2 11 -7t13 -14.5t9 -23.5t-1 -35l-30 -175q-13 -65 6.5 -86t104.5 -21l-5 -52q-87 0 -126.5 14.5t-48 50.5t4.5 97l31 176
q6 32 -7.5 42.5t-67.5 10.5l4 48q54 0 73.5 13t25.5 45z" />
    <glyph glyph-name="braceright.case" horiz-adv-x="465" 
d="M252 87q-9 -50 -19.5 -76.5t-34.5 -46.5t-62.5 -26t-105.5 -6l5 52q84 0 113.5 24t41.5 90l31 175q6 29 22 47.5t27.5 22.5t14.5 3l-4 2q-4 2 -11 7t-13 14.5t-9 23.5t0 35l31 175q12 65 -7.5 86t-104.5 21l5 52q87 0 126.5 -14.5t48 -50.5t-4.5 -97l-31 -176
q-6 -31 8 -42t68 -11l-4 -48q-54 0 -74 -13t-26 -45z" />
    <glyph glyph-name="bracketleft.case" horiz-adv-x="482" 
d="M100 -58l144 818h206l-9 -49h-146l-127 -720h146l-8 -49h-206z" />
    <glyph glyph-name="bracketright.case" horiz-adv-x="471" 
d="M238 -58h-206l9 49h145l127 720h-145l8 49h206z" />
    <glyph glyph-name="parenleft.case" horiz-adv-x="373" 
d="M125 350q14 82 34.5 154.5t39.5 117t36 78t27 47.5l10 14h73q-4 -6 -11.5 -16.5t-27.5 -49t-38.5 -83.5t-40 -118t-35.5 -153q-21 -140 -19 -228.5t15 -130.5l13 -41h-71q-2 5 -5.5 14t-10.5 44.5t-10 78.5t1.5 116t19.5 156z" />
    <glyph glyph-name="parenright.case" horiz-adv-x="383" 
d="M254 760q2 -5 5.5 -15t9.5 -47.5t8 -81.5t-3 -118t-20 -157q-14 -82 -35 -153t-40 -114.5t-36.5 -75t-28.5 -44.5l-10 -13h-72q4 5 11.5 15t28 47t39 80t40 115t35.5 152q22 140 21 231t-13 135l-11 44h71z" />
    <glyph glyph-name="guillemotleft.case" horiz-adv-x="521" 
d="M153 164l-91 149l2 18l144 156h78l-157 -166l99 -157h-75zM305 164l-91 149l1 18l145 156h78l-157 -166l99 -157h-75z" />
    <glyph glyph-name="guillemotright.case" horiz-adv-x="515" 
d="M150 164h-80l155 160l-96 163h75l90 -156l-2 -18zM302 164h-80l154 160l-95 163h75l90 -156l-2 -18z" />
    <glyph glyph-name="guilsinglleft.case" horiz-adv-x="369" 
d="M153 164l-91 149l2 18l144 156h78l-157 -166l99 -157h-75z" />
    <glyph glyph-name="guilsinglright.case" horiz-adv-x="365" 
d="M151 164h-81l157 160l-96 163h75l90 -156l-2 -18z" />
    <glyph glyph-name="asterisk.sc" horiz-adv-x="312" 
d="M60 558l23 44l82 -32l15 92h48l-20 -92l93 32l8 -44l-93 -29l51 -74l-43 -31l-47 79l-74 -79l-35 32l76 75z" />
    <glyph glyph-name="backslash.sc" horiz-adv-x="292" 
d="M248 -60h-60l-143 724h59z" />
    <glyph glyph-name="braceleft.sc" horiz-adv-x="445" 
d="M204 522q9 50 19 76.5t34 46t61.5 25.5t102.5 6l-4 -52q-85 0 -114.5 -24t-41.5 -90l-24 -135q-5 -29 -21 -47.5t-28 -22.5t-15 -3l5 -2q4 -3 11 -8t13 -14t9 -23.5t-1 -34.5l-24 -136q-11 -65 8 -86t104 -21l-4 -51q-85 0 -123.5 14.5t-47.5 50t4 96.5l24 136
q6 32 -8 43t-67 11l4 48q54 0 73.5 13t25.5 45z" />
    <glyph glyph-name="braceright.sc" horiz-adv-x="445" 
d="M241 80q-9 -50 -19 -76.5t-34 -46t-61.5 -25.5t-102.5 -6l4 51q85 0 114.5 24t41.5 90l24 135q5 30 21.5 48.5t27 22t15.5 3.5l-4 2q-4 2 -11.5 7t-13 14t-9 23.5t0.5 34.5l24 136q11 65 -8 86t-104 21l4 52q85 0 123.5 -14.5t47 -50.5t-4.5 -97l-23 -136
q-6 -32 7.5 -42.5t67.5 -10.5l-4 -49q-54 0 -73.5 -12.5t-25.5 -44.5z" />
    <glyph glyph-name="bracketleft.sc" horiz-adv-x="452" 
d="M94 -73l130 739h202l-9 -49h-146l-113 -640h146l-9 -50h-201z" />
    <glyph glyph-name="bracketright.sc" horiz-adv-x="447" 
d="M225 -73h-201l8 50h147l112 640h-146l9 49h202z" />
    <glyph glyph-name="uni2016.sc" horiz-adv-x="466" 
d="M52 -82l135 764h50l-135 -764h-50zM221 -82l135 764h50l-135 -764h-50z" />
    <glyph glyph-name="exclam.sc" horiz-adv-x="248" 
d="M69 163l73 429h66l-77 -429h-62zM38 0l19 108h66l-19 -108h-66z" />
    <glyph glyph-name="exclamdown.sc" horiz-adv-x="247" 
d="M124 485l19 107h66l-19 -107h-66zM38 0l78 430h63l-75 -430h-66z" />
    <glyph glyph-name="numbersign.sc" horiz-adv-x="599" 
d="M53 0l63 168h-84l8 48h94l64 168h-89l9 49h99l58 153h50l-58 -153h152l58 153h51l-58 -153h88l-9 -49h-97l-64 -168h91l-8 -48h-101l-63 -168h-50l63 168h-153l-63 -168h-51zM185 216h153l63 168h-152z" />
    <glyph glyph-name="parenleft.sc" horiz-adv-x="343" 
d="M122 280q13 73 32.5 138.5t37.5 107.5t35 73.5t27 45.5l10 14h65l-11 -16.5t-27 -47.5t-37.5 -78.5t-37.5 -108t-32 -137.5q-19 -125 -16 -207t16 -122l13 -40h-64q-2 5 -6 14t-11.5 43t-10.5 74t0.5 106.5t16.5 140.5z" />
    <glyph glyph-name="parenright.sc" horiz-adv-x="344" 
d="M220 658q2 -5 5.5 -15t9.5 -45.5t8.5 -76.5t-1.5 -108.5t-17 -141.5q-13 -73 -32.5 -138t-38 -105.5t-35.5 -70.5t-27 -43l-11 -12h-67q4 5 11.5 15t28 45t38 75.5t38 106t33.5 136.5q19 125 17.5 209t-12.5 127l-12 42h64z" />
    <glyph glyph-name="question.sc" horiz-adv-x="433" 
d="M198 153h-63l8 41q7 36 28 65.5t46.5 49.5t50.5 39.5t45 47t26 61.5q8 45 -17.5 73.5t-79.5 28.5q-57 0 -96 -31.5t-48 -81.5h-60q13 73 65.5 121t140.5 48q93 0 133 -47t28 -115q-7 -39 -28 -70t-47 -52t-52 -40.5t-46.5 -45t-26.5 -56.5zM108 0l18 100h63l-18 -100h-63
z" />
    <glyph glyph-name="questiondown.sc" horiz-adv-x="429" 
d="M313 593l-18 -100h-63l18 100h63zM223 439h63l-8 -41q-7 -36 -28 -65t-46.5 -49t-50.5 -40t-45 -47.5t-26 -61.5q-8 -44 17.5 -72.5t78.5 -28.5q57 0 96.5 31.5t48.5 81.5h61q-13 -74 -65.5 -121.5t-140.5 -47.5q-93 0 -133.5 46.5t-28.5 114.5q8 47 38 84.5t62 58.5
t62 53t38 69z" />
    <glyph glyph-name="quotedbl.sc" horiz-adv-x="266" 
d="M70 478l22 185h73l-45 -185h-50zM188 478l22 185h73l-45 -185h-50z" />
    <glyph glyph-name="quotedblleft.sc" horiz-adv-x="296" 
d="M58 442q7 41 39 113q14 32 30 59.5t25 39.5l10 12l53 -1q-32 -50 -60 -123q-12 -31 -20 -56.5t-10 -35.5l-2 -9zM181 442q7 41 39 113q14 32 30 59.5t26 39.5l9 12l53 -1q-31 -50 -60 -123q-12 -31 -19.5 -56.5t-9.5 -35.5l-2 -9z" />
    <glyph glyph-name="quotedblright.sc" horiz-adv-x="302" 
d="M46 441q31 51 60 123q12 31 20 56.5t10 35.5l2 9l64 -1q-6 -41 -37 -113q-15 -32 -31.5 -60t-25.5 -39l-10 -12zM169 441q32 51 61 123q12 31 20 56.5t10 35.5l1 9l65 -1q-7 -41 -38 -113q-14 -32 -30.5 -59.5t-25.5 -39.5l-10 -12z" />
    <glyph glyph-name="quoteleft.sc" horiz-adv-x="173" 
d="M58 440q6 41 38 113q14 32 30.5 59.5t25.5 39.5l10 12l53 -1q-31 -50 -60 -123q-12 -31 -20 -56.5t-10 -35.5l-2 -9z" />
    <glyph glyph-name="quoteright.sc" horiz-adv-x="178" 
d="M46 441q32 51 60 123q12 31 20 56.5t10 35.5l2 9l64 -1q-6 -41 -37 -113q-15 -32 -31.5 -60t-25.5 -39l-10 -12z" />
    <glyph glyph-name="quotesingle.sc" horiz-adv-x="174" 
d="M90 478l22 185h73l-45 -185h-50z" />
    <glyph glyph-name="slash.sc" horiz-adv-x="425" 
d="M-13 -73l388 723h64l-390 -723h-62z" />
    <glyph glyph-name="paragraph.alt" horiz-adv-x="544" 
d="M199 0l54 310q-137 2 -184.5 51t-23.5 178q22 127 85 173t203 48h196l-134 -760h-50l125 712h-96l-125 -712h-50z" />
    <glyph glyph-name="registered.alt" horiz-adv-x="488" 
d="M446 526q-35 -203 -229 -203q-72 0 -113.5 30t-51.5 75.5t1 106.5q16 93 71 150t157 57q107 0 144.5 -59.5t20.5 -156.5zM86 526q-30 -173 129 -173q89 0 136.5 50.5t61.5 131.5q30 177 -130 177q-88 0 -135.5 -51.5t-61.5 -134.5zM150 418l40 226h83q45 0 63 -17t11 -58
q-6 -31 -20 -45t-39 -18l29 -88h-32l-28 86h-60l-15 -86h-32zM217 618l-16 -88h50q26 0 42 9t21 37q5 27 -6 34.5t-37 7.5h-54z" />
    <glyph glyph-name="at.case" horiz-adv-x="851" 
d="M735 346q30 174 -28 268.5t-229 94.5q-168 0 -263.5 -100.5t-125.5 -269.5q-62 -351 255 -351q114 0 184 32l-5 -54q-78 -27 -181 -27q-102 0 -171.5 31t-101.5 86t-41 130t9 162q15 88 47 159.5t84 129t131 89t179 31.5q104 0 175 -31.5t103 -87.5t41.5 -132t-9.5 -165
q-25 -143 -67 -201.5t-114 -58.5q-93 0 -95 108q-55 -67 -158 -67q-174 0 -135 225q39 220 205 220q92 0 137 -67l14 57h51l-54 -302q-12 -63 -2 -97t45 -34q40 0 69 47.5t51 174.5zM363 171q104 0 155 82q0 4 1 7l32 183q-29 75 -120 75q-62 0 -101.5 -47.5t-54.5 -131.5
q-30 -168 88 -168z" />
    <glyph glyph-name="section.sups" horiz-adv-x="295" 
d="M282 543q-6 -35 -36 -53q21 -17 15 -52q-10 -66 -109 -66q-54 0 -76 20.5t-15 59.5h39q-5 -24 8.5 -37t43.5 -13q28 0 47 12.5t22 29.5q4 23 -19 34.5t-52 15t-50.5 21t-15.5 50.5q6 34 37 53q-22 19 -16 51q12 65 104 65q52 0 72.5 -20t13.5 -56h-39q3 21 -6.5 33
t-39.5 12t-46 -12.5t-18 -28.5q-4 -21 18.5 -31.5t51.5 -13.5t50.5 -21.5t15.5 -52.5zM126 558q-2 -11 2 -18t14 -12t20.5 -7.5t26 -6.5t25.5 -7q22 16 27 41q2 11 -2 19t-14.5 13t-20 8t-26 7t-25.5 7q-24 -21 -27 -44z" />
    <glyph glyph-name="dagger.sups" horiz-adv-x="221" 
d="M67 648h69l15 83h47l-15 -83h70l-7 -42h-70l-41 -234h-47l41 234h-69z" />
    <glyph glyph-name="daggerdbl.sups" horiz-adv-x="274" 
d="M95 648h69l15 83h47l-15 -83h69l-7 -42h-69l-19 -110h69l-8 -42h-69l-14 -82h-48l14 82h-69l8 42h69l19 110h-69z" />
    <glyph glyph-name="ampersand.sc" horiz-adv-x="525" 
d="M304 606q161 0 135 -151h-58q18 103 -77 103q-110 0 -128 -101q-5 -10 -2 -27t2.5 -24.5t7 -23t11.5 -22.5t15.5 -23t18.5 -25.5t22 -28.5t25 -32l95 -121q36 61 56 174h54q-25 -140 -79 -215l62 -77l-1 -14h-62l-37 49q-70 -62 -196 -62q-209 0 -174 187q7 41 25 73.5
t42 51t43.5 28.5t39.5 16q-38 60 -25 128q25 137 185 137zM219 243q-41 52 -50 64q-40 -15 -74.5 -48.5t-45.5 -94.5q-12 -64 17.5 -98.5t112.5 -34.5q102 0 157 54q-35 46 -117 158z" />
    <glyph glyph-name="degree.sc" horiz-adv-x="261" 
d="M259 527q-17 -103 -113 -103q-102 0 -83 112q19 105 113 105q104 0 83 -114zM105 528q-13 -66 41 -66q59 0 72 73q11 68 -41 68q-59 0 -72 -75z" />
    <glyph glyph-name="bar.sc" horiz-adv-x="297" 
d="M52 -82l135 764h50l-135 -764h-50z" />
    <glyph glyph-name="brokenbar.sc" horiz-adv-x="297" 
d="M135 391l52 291h50l-52 -291h-50zM160 249l-58 -331h-50l58 331h50z" />
    <glyph glyph-name="cent.sc" horiz-adv-x="502" 
d="M172 -17l13 74q-88 9 -116.5 69t-9.5 167q19 106 67 164t140 65l13 73h57l-13 -73q158 -13 133 -170h-62q18 107 -80 118l-64 -361q101 12 119 103h63q-31 -146 -191 -156l-13 -73h-56zM122 285q-14 -84 2 -126t70 -50l63 359q-106 -19 -135 -183z" />
    <glyph glyph-name="dollar.sc" horiz-adv-x="494" 
d="M156 -42l13 74q-164 17 -138 173h55q-20 -111 92 -122l37 211q-36 9 -58.5 18.5t-45.5 26t-31 43t-1 62.5q23 132 186 139l11 60h57l-11 -61q84 -8 113 -47.5t17 -108.5h-56q8 43 -7.5 70.5t-75.5 34.5l-36 -205q37 -10 59.5 -19t47.5 -26t33.5 -43.5t2.5 -63.5
q-25 -135 -195 -143l-13 -73h-56zM133 437q-7 -39 17 -60.5t73 -36.5l33 192q-106 -9 -123 -95zM364 180q7 41 -18 62.5t-77 36.5l-35 -197q114 9 130 98z" />
    <glyph glyph-name="Euro.sc" horiz-adv-x="568" 
d="M160 200q-4 -76 23 -111.5t92 -35.5q56 0 94 26.5t50 76.5h55q-34 -155 -202 -155q-99 0 -139.5 49.5t-36.5 149.5h-71l8 44h67q4 36 8 54l6 34h-66l8 45h69q29 107 84.5 159t156.5 52q90 0 129 -43.5t28 -122.5h-55q14 113 -101 113q-66 0 -108.5 -39t-67.5 -119h188
l-7 -45h-193q-6 -28 -8 -43q-2 -13 -7 -45h193l-8 -44h-189z" />
    <glyph glyph-name="percent.sc" horiz-adv-x="661" 
d="M327 448q-12 -68 -47.5 -104t-105.5 -36q-137 0 -112 149q12 70 48.5 106.5t106.5 36.5q138 0 110 -152zM44 0l492 589h64l-492 -589h-64zM108 449q-8 -51 7 -75t58 -24q89 0 109 106q9 51 -6 76.5t-59 25.5q-88 0 -109 -109zM579 128q-12 -69 -47.5 -104.5t-104.5 -35.5
q-140 0 -113 149q24 143 156 143q137 0 109 -152zM361 129q-9 -50 6 -74.5t59 -24.5q88 0 108 106q9 51 -5.5 77t-58.5 26q-90 0 -109 -110z" />
    <glyph glyph-name="perthousand.sc" horiz-adv-x="916" 
d="M327 448q-12 -68 -47.5 -104t-105.5 -36q-137 0 -112 149q12 70 48.5 106.5t106.5 36.5q138 0 110 -152zM44 0l492 589h64l-492 -589h-64zM108 449q-8 -51 7 -75t58 -24q89 0 109 106q9 51 -6 76.5t-59 25.5q-88 0 -109 -109zM579 128q-12 -69 -47.5 -104.5t-104.5 -35.5
q-140 0 -113 149q24 143 156 143q137 0 109 -152zM876 128q-12 -69 -47.5 -104.5t-105.5 -35.5q-140 0 -112 149q12 70 48.5 106.5t106.5 36.5q138 0 110 -152zM361 129q-9 -50 6 -74.5t59 -24.5q88 0 108 106q9 51 -5.5 77t-58.5 26q-90 0 -109 -110zM657 129
q-9 -50 6 -74.5t59 -24.5q47 0 72.5 26.5t35.5 79.5q9 51 -5.5 77t-58.5 26q-90 0 -109 -110z" />
    <glyph glyph-name="uni20BD.sc" horiz-adv-x="565" 
d="M78 0l27 154h-81l8 47h81l12 69h-81l9 52l81 -1l49 275h171q121 0 169.5 -37.5t31.5 -130.5q-15 -90 -73.5 -124t-179.5 -34h-112l-12 -69h154l-8 -47h-155l-27 -154h-64zM239 545l-40 -224h113q76 0 121.5 24t57.5 91q11 66 -24 87.5t-110 21.5h-118z" />
    <glyph glyph-name="sterling.sc" horiz-adv-x="509" 
d="M197 220q-1 -26 -6 -58q-14 -79 -75 -112l292 2l-10 -55h-390l9 51l-2 1q4 1 10.5 2.5t23.5 10t31.5 20t28 33.5t18.5 49q4 30 6 56h-90l8 47h80q-1 15 -7 55t-5.5 54t5.5 62q12 72 65 114t138 42q89 0 128 -45.5t25 -126.5h-61q9 55 -16.5 85.5t-76.5 30.5
q-54 0 -91.5 -31.5t-47.5 -87.5q-3 -40 -3.5 -51.5t5 -49t6.5 -51.5h138l-8 -47h-128z" />
    <glyph glyph-name="yen.sc" horiz-adv-x="446" 
d="M142 0l27 157h-93l8 46h93l9 50h-93l8 45h76l-129 294h69l111 -277l200 277h77l-230 -294h73l-8 -45h-92l-9 -50h92l-8 -46h-92l-27 -157h-62z" />
    <glyph glyph-name="caroncomb.alt" 
d="M-210 617l74 143h61l-91 -143h-44z" />
    <glyph glyph-name="uni0308.case" 
d="M-296 764l22 122h67l-22 -122h-67zM-141 764l22 122h67l-23 -122h-66z" />
    <glyph glyph-name="uni0307.case" 
d="M-145 764l22 122h67l-22 -122h-67z" />
    <glyph glyph-name="gravecomb.case" 
d="M-57 765h-59l-65 113h72z" />
    <glyph glyph-name="acutecomb.case" 
d="M-221 764l93 114h74l-104 -114h-63z" />
    <glyph glyph-name="uni030B.case" 
d="M-362 765l87 113h74l-98 -113h-63zM-227 765l99 113h74l-110 -113h-63z" />
    <glyph glyph-name="caroncomb.alt.case" 
d="M-214 764l75 133h63l-86 -133h-52z" />
    <glyph glyph-name="uni0302.case" 
d="M-66 764h-68l-58 70l-81 -70h-72l123 112h70z" />
    <glyph glyph-name="uni030C.case" 
d="M-52 876l-124 -112h-71l-84 112h67l57 -70l82 70h73z" />
    <glyph glyph-name="uni0306.case" 
d="M-56 862q-6 -37 -43.5 -69t-100.5 -32q-66 0 -95 32t-23 69h58q-3 -20 13.5 -37.5t46.5 -17.5q32 0 57.5 17.5t28.5 37.5h58z" />
    <glyph glyph-name="uni030A.case" 
d="M-61 836q-6 -36 -32 -57.5t-65 -21.5q-42 0 -63 24t-13 63q6 37 31.5 58t65.5 21q42 0 63 -24t13 -63zM-187 837q-6 -37 29 -37q19 0 32.5 12t17.5 31q6 37 -29 37q-19 0 -33 -12t-17 -31z" />
    <glyph glyph-name="tildecomb.case" 
d="M-64 861q-4 -20 -8.5 -33.5t-14.5 -30t-27.5 -25t-42.5 -8.5q-37 0 -57.5 23t-40.5 23q-16 0 -28 -10t-16.5 -19.5t-6.5 -19.5l-48 5q16 97 93 97q23 0 38 -7t20.5 -16t15.5 -16t24 -7q24 0 36.5 16.5t14.5 33.5z" />
    <glyph glyph-name="uni0304.case" 
d="M-294 841h234l-10 -54h-234z" />
    <glyph glyph-name="uni0338.case" 
d="M-624 19l624 726h93l-623 -726h-94z" />
    <glyph glyph-name="uni0335.sc" horiz-adv-x="351" 
d="M47 305l7 51h256l-7 -51h-256z" />
    <glyph glyph-name="uni0336.sc" horiz-adv-x="779" 
d="M91 302l6 57h584l-6 -57h-584z" />
    <glyph glyph-name="bitcoin" horiz-adv-x="575" 
d="M131 -49l17 95h-118l113 643h118l17 90h42l-17 -90h60l17 90h42l-16 -92q86 -8 116.5 -50t18.5 -113q-11 -58 -39 -93t-89 -49q114 -31 91 -164q-15 -88 -57.5 -127t-153.5 -44l-17 -96h-42l17 95h-61l-17 -95h-42zM195 634l-38 -222l157 -1q83 0 119.5 27.5t46.5 87.5
q10 57 -18.5 82.5t-103.5 25.5h-163zM146 354l-44 -253l157 -1q93 0 132.5 28.5t53.5 101.5q11 63 -20.5 93.5t-116.5 30.5h-162z" />
    <glyph glyph-name="bitcoin.sc" horiz-adv-x="508" 
d="M120 -41l13 79h-100l95 540h101l13 75h39l-13 -75h50l13 75h39l-14 -77q73 -8 98.5 -42.5t15.5 -94.5q-9 -49 -33 -78t-75 -42q95 -26 76 -136q-13 -74 -48 -107t-128 -37l-14 -80h-40l13 79h-50l-13 -79h-38zM179 527l-32 -180h127q69 0 99 21t39 68q8 47 -16 69t-86 22
h-131zM137 295l-36 -207h128q77 -1 110 22.5t44 84.5q9 51 -17 75.5t-97 24.5h-132z" />
    </font>
</defs>
</svg>
