<svg xmlns="http://www.w3.org/2000/svg">
<defs>
<font id="TofinoProPersonalText-Book" horiz-adv-x="0" >
  <font-face 
    font-family="Tofino Pro Personal Text Bk"
    font-weight="400"
    font-stretch="normal"
    units-per-em="1000"
    panose-1="0 0 5 0 0 0 0 0 0 0"
    ascent="760"
    descent="-240"
    x-height="532"
    cap-height="708"
    bbox="-736 -244 1243 1094"
    underline-thickness="50"
    underline-position="-225"
    unicode-range="U+0020-2661"
  />
<missing-glyph horiz-adv-x="656" 
d="M536 491q2 -21 -11 -32q-10 -7 -24 -7q-8 0 -46 9q60 -63 60 -152q0 -87 -58 -149t-140 -62q-81 0 -139 62t-58 149q0 94 63 155q-22 31 -8 64q13 31 53 51.5t89 20.5q50 0 91.5 -21.5t55.5 -54.5v-1l1 -1q38 12 56 -1q13 -9 15 -30zM197 519q-9 -19 4 -39q51 40 112 41
q0 9 3 20q9 21 25 25q21 5 63 -33l2 -2q8 3 15 3q4 0 10 -2q-17 20 -49.5 32t-64.5 12q-41 0 -75.5 -16.5t-44.5 -40.5zM339 532q-3 -8 -1 -12q5 -9 43 -14q1 -1 3 -1q1 1 1 3l3 7q-33 30 -42 28q-4 -2 -7 -11zM434 503q-3 5 -9 6q-1 1 -4 1q-10 0 -13 -9q-1 -3 1 -9
q4 -6 9 -7l4 -1q11 0 13 9q2 6 -1 10zM510 478q4 2 2 12q0 8 -4 12q-8 6 -45 -5q-1 -1 -4 -1q0 -7 -1 -10q1 -1 2 -1q43 -13 50 -7zM485 358q-15 63 -65 103q-6 0 -9 1q-15 5 -22 18h-1q-2 1 -5 1.5t-5 0.5q-35 4 -49 15h-12q-36 0 -69 -15q-16 -18 -5 -41q16 -34 79.5 -61
t162.5 -22zM215 461q-54 -44 -67 -112q29 -1 61 10t52 27q-27 20 -39 45q-7 14 -7 30zM411 327q43 0 56 -9q3 5 14 16h-24q-105 0 -175 39q-21 -20 -55.5 -33.5t-68.5 -14.5l8 -7q16 9 57 9q50 0 71 -10q23 -11 46 0q20 10 71 10zM317 121q72 0 123 55.5t51 132.5
q0 12 -1 17q-7 -6 -16 -18v-1q3 -28 -7 -50t-32 -25q-16 -2 -32 -2q-35 0 -47 7q-21 12 -28 45q-1 2 -1 5q-3 10 -11 10q-6 0 -9 -10q-1 -1 -1 -5q-7 -33 -29 -45q-12 -7 -47 -7q-17 0 -31 2q-22 3 -32.5 25.5t-7.5 49.5v1l-14 14q-1 -4 -1 -13q0 -77 51 -132.5t122 -55.5z
M294 284q3 13 -2 20l-2 2h-1q-18 10 -66 10q-18 0 -30.5 -2t-17 -4.5t-4.5 -3.5q-2 -21 5 -40.5t24 -21.5q16 -2 30 -2q32 0 42 5q17 10 22 37zM434 244q17 2 24 22t5 40q-5 10 -52 10q-48 0 -66 -10q-1 0 -1 -1l-2 -1q-5 -7 -2 -20q3 -26 22 -37q10 -5 41 -5q15 0 31 2z

<glyph glyph-name="f_f" unicode="ff" horiz-adv-x="741" 
d="M127 573q0 89 35.5 139t131.5 50h58v-65h-40q-67 0 -91 -32t-24 -101v-33h150v-63h-150v-468h-70v468h-75v63h75v42zM682 697q-67 0 -91 -32t-24 -101v-33h150v-63h-150v-468h-70v468h-75v63h75v42q0 89 35.5 139t131.5 50h58v-65h-40z" />
    <glyph glyph-name="f_f_i" unicode="ffi" horiz-adv-x="989" 
d="M127 573q0 89 35.5 139t131.5 50h58v-65h-40q-67 0 -91 -32t-24 -101v-33h150v-63h-150v-468h-70v468h-75v63h75v42zM497 573q0 89 35.5 139t131.5 50h58v-65h-40q-67 0 -91 -32t-24 -101v-33h150v-63h-150v-468h-70v468h-75v63h75v42zM817 758h71v-115h-71v115zM818 0
v535h70v-535h-70z" />
    <glyph glyph-name="f_f_l" unicode="ffl" horiz-adv-x="1026" 
d="M127 573q0 89 35.5 139t131.5 50h58v-65h-40q-67 0 -91 -32t-24 -101v-33h150v-63h-150v-468h-70v468h-75v63h75v42zM497 573q0 89 35.5 139t131.5 50h58v-65h-40q-67 0 -91 -32t-24 -101v-33h150v-63h-150v-468h-70v468h-75v63h75v42zM947 64h42v-66h-46
q-123 0 -123 157v600h70v-597q0 -36 13 -65t44 -29z" />
    <glyph glyph-name=".notdef" horiz-adv-x="656" 
d="M536 491q2 -21 -11 -32q-10 -7 -24 -7q-8 0 -46 9q60 -63 60 -152q0 -87 -58 -149t-140 -62q-81 0 -139 62t-58 149q0 94 63 155q-22 31 -8 64q13 31 53 51.5t89 20.5q50 0 91.5 -21.5t55.5 -54.5v-1l1 -1q38 12 56 -1q13 -9 15 -30zM197 519q-9 -19 4 -39q51 40 112 41
q0 9 3 20q9 21 25 25q21 5 63 -33l2 -2q8 3 15 3q4 0 10 -2q-17 20 -49.5 32t-64.5 12q-41 0 -75.5 -16.5t-44.5 -40.5zM339 532q-3 -8 -1 -12q5 -9 43 -14q1 -1 3 -1q1 1 1 3l3 7q-33 30 -42 28q-4 -2 -7 -11zM434 503q-3 5 -9 6q-1 1 -4 1q-10 0 -13 -9q-1 -3 1 -9
q4 -6 9 -7l4 -1q11 0 13 9q2 6 -1 10zM510 478q4 2 2 12q0 8 -4 12q-8 6 -45 -5q-1 -1 -4 -1q0 -7 -1 -10q1 -1 2 -1q43 -13 50 -7zM485 358q-15 63 -65 103q-6 0 -9 1q-15 5 -22 18h-1q-2 1 -5 1.5t-5 0.5q-35 4 -49 15h-12q-36 0 -69 -15q-16 -18 -5 -41q16 -34 79.5 -61
t162.5 -22zM215 461q-54 -44 -67 -112q29 -1 61 10t52 27q-27 20 -39 45q-7 14 -7 30zM411 327q43 0 56 -9q3 5 14 16h-24q-105 0 -175 39q-21 -20 -55.5 -33.5t-68.5 -14.5l8 -7q16 9 57 9q50 0 71 -10q23 -11 46 0q20 10 71 10zM317 121q72 0 123 55.5t51 132.5
q0 12 -1 17q-7 -6 -16 -18v-1q3 -28 -7 -50t-32 -25q-16 -2 -32 -2q-35 0 -47 7q-21 12 -28 45q-1 2 -1 5q-3 10 -11 10q-6 0 -9 -10q-1 -1 -1 -5q-7 -33 -29 -45q-12 -7 -47 -7q-17 0 -31 2q-22 3 -32.5 25.5t-7.5 49.5v1l-14 14q-1 -4 -1 -13q0 -77 51 -132.5t122 -55.5z
M294 284q3 13 -2 20l-2 2h-1q-18 10 -66 10q-18 0 -30.5 -2t-17 -4.5t-4.5 -3.5q-2 -21 5 -40.5t24 -21.5q16 -2 30 -2q32 0 42 5q17 10 22 37zM434 244q17 2 24 22t5 40q-5 10 -52 10q-48 0 -66 -10q-1 0 -1 -1l-2 -1q-5 -7 -2 -20q3 -26 22 -37q10 -5 41 -5q15 0 31 2z
M246 294q11 -6 11 -21q0 -10 -7 -17t-17 -7t-17 7t-7 17q0 5 1 8l-11 9q-3 2 0 5q2 2 5 0l9 -8l3 4l-6 11q-1 1 -0.5 2.5t1.5 2.5q3 2 5 -2l6 -10q0 1 2 1t2 1l-2 12q0 4 4 4q2 0 4 -3l1 -12q1 0 3 -0.5t3 -0.5l3 13q2 3 5 3q4 -2 2 -5zM434 295q1 1 2.5 1t2.5 -1
q2 -4 -1 -5l-10 -10q0 -1 0.5 -3t0.5 -4q0 -10 -7.5 -17t-17.5 -7t-17 7t-7 17q0 14 12 21l-4 14q0 4 3 5q4 0 4 -3l3 -13q2 1 6 1l2 12q0 3 4 3q3 0 3 -4l-2 -12l5 -2l6 10q2 4 4 2q1 -1 2 -2.5t0 -2.5l-7 -11q3 -1 3 -4zM316 216q22 0 38 -10.5t16 -25.5
q0 -16 -15.5 -26.5t-38.5 -10.5t-38.5 10.5t-15.5 26.5q0 15 16 25.5t38 10.5z" />
    <glyph glyph-name=".null" 
 />
    <glyph glyph-name="nonmarkingreturn" horiz-adv-x="333" 
 />
    <glyph glyph-name="space" unicode=" " horiz-adv-x="300" 
 />
    <glyph glyph-name="exclam" unicode="!" horiz-adv-x="276" 
d="M104 164l-1 544h70l-2 -544h-67zM103 0v109h70v-109h-70z" />
    <glyph glyph-name="quotedbl" unicode="&#x22;" horiz-adv-x="328" 
d="M76 569l-12 189h77l-12 -189h-53zM199 569l-11 189h77l-12 -189h-54z" />
    <glyph glyph-name="numbersign" unicode="#" horiz-adv-x="771" 
d="M667 463h-120l-43 -206h114v-54h-125l-42 -203h-56l42 203h-194l-42 -203h-57l42 203h-107v54h118l43 206h-112v54h124l38 185h57l-38 -185h194l38 185h56l-38 -185h108v-54zM448 257l43 206h-194l-43 -206h194z" />
    <glyph glyph-name="dollar" unicode="$" horiz-adv-x="620" 
d="M554 212q0 -82 -53.5 -125.5t-155.5 -48.5v-89h-67v90q-192 16 -206 177l59 13q14 -118 147 -132v251q-36 9 -60.5 16.5t-53 21.5t-45.5 31t-29 44.5t-12 62.5q0 76 50 121t150 50v72h67v-73q176 -13 192 -151l-61 -15q-6 44 -34 72.5t-97 35.5v-245q37 -9 62 -16.5
t55.5 -21.5t48.5 -31.5t30.5 -45.5t12.5 -64zM141 526q0 -50 35.5 -75.5t101.5 -42.5v229q-137 -9 -137 -111zM345 95q146 7 146 116q0 51 -37.5 77t-108.5 44v-237z" />
    <glyph glyph-name="percent" unicode="%" horiz-adv-x="832" 
d="M219 368q-164 0 -164 172q0 176 164 176q163 0 163 -176q0 -83 -38 -127.5t-125 -44.5zM131 0l479 702h70l-480 -702h-69zM219 417q57 0 82.5 31t25.5 92q0 126 -108 126q-109 0 -109 -126q0 -123 109 -123zM591 -14q-164 0 -164 172q0 176 164 176q163 0 163 -176
q0 -172 -163 -172zM591 35q57 0 82.5 31t25.5 92q0 127 -108 127q-109 0 -109 -127q0 -123 109 -123z" />
    <glyph glyph-name="ampersand" unicode="&#x26;" horiz-adv-x="776" 
d="M617 109l93 -94v-17h-67l-62 62q-76 -77 -233 -77q-251 0 -251 218q0 49 15.5 88t40.5 62.5t47 36t45 20.5q-56 68 -56 148q0 170 200 170q176 0 191 -154l-63 -12q-7 55 -36.5 83.5t-91.5 28.5q-135 0 -135 -121q0 -27 6 -49t25.5 -48t31.5 -40t51 -52t57 -57l150 -153
q29 71 31 196l61 -10q-3 -146 -50 -229zM359 34q128 0 183 65q-29 30 -93 95.5t-92 94.5q-29 31 -78 80q-46 -17 -82.5 -56.5t-36.5 -111.5q0 -167 199 -167z" />
    <glyph glyph-name="quotesingle" unicode="'" horiz-adv-x="204" 
d="M76 569l-12 189h77l-12 -189h-53z" />
    <glyph glyph-name="parenleft" unicode="(" horiz-adv-x="335" 
d="M208 760h65l-11.5 -23t-26 -65t-33 -102.5t-26 -132.5t-11.5 -159t11.5 -157t27.5 -133t32 -98.5t28 -65.5l11 -21h-65q-5 7 -12 21t-26.5 61t-34 98.5t-26.5 132t-12 162.5t11 162t27.5 135.5t32.5 99t27 64.5z" />
    <glyph glyph-name="parenright" unicode=")" horiz-adv-x="335" 
d="M127 760q4 -8 11.5 -22.5t26.5 -62.5t33 -100.5t26 -133.5t12 -163t-11.5 -161.5t-27.5 -133.5t-32.5 -96.5t-28.5 -62.5l-11 -21h-65q5 8 12 22.5t26.5 63t34 100.5t26.5 131t12 158q0 126 -27.5 246.5t-54.5 177.5l-27 58h65z" />
    <glyph glyph-name="asterisk" unicode="*" horiz-adv-x="422" 
d="M81 619l15 46l92 -32l-2 92h50l-2 -92l91 32l16 -46l-92 -27l66 -75l-41 -34l-63 79l-63 -79l-41 34l66 75z" />
    <glyph glyph-name="plus" unicode="+" horiz-adv-x="523" 
d="M466 346v-67h-171v-163h-66v163h-171v67h171v162h66v-162h171z" />
    <glyph glyph-name="comma" unicode="," horiz-adv-x="249" 
d="M45 -99q23 47 39 119q7 32 10.5 58t3.5 36v10h67q0 -37 -19 -109q-9 -33 -21 -61.5t-20 -40.5l-8 -12h-52z" />
    <glyph glyph-name="hyphen" unicode="-" horiz-adv-x="429" 
d="M94 291v56h241v-56h-241z" />
    <glyph glyph-name="period" unicode="." horiz-adv-x="237" 
d="M82 0v124h73v-124h-73z" />
    <glyph glyph-name="slash" unicode="/" horiz-adv-x="516" 
d="M72 -40l324 843h65l-324 -843h-65z" />
    <glyph glyph-name="zero" unicode="0" horiz-adv-x="656" 
d="M328 -12q-142 0 -198.5 71.5t-56.5 216.5q0 146 56.5 218t198.5 73t198.5 -72t56.5 -219q0 -145 -56.5 -216.5t-198.5 -71.5zM328 49q103 0 143 54t40 173q0 120 -40 175t-143 55q-102 0 -142.5 -55t-40.5 -175q0 -119 40.5 -173t142.5 -54z" />
    <glyph glyph-name="one" unicode="1" horiz-adv-x="368" 
d="M225 62h109v-62h-281v62h103v410l-95 -40v76l117 50h47v-496z" />
    <glyph glyph-name="two" unicode="2" horiz-adv-x="530" 
d="M151 58l317 2v-60h-425v62q91 61 184 131q100 76 121 98q47 49 47 113q0 45 -34.5 74t-106.5 29q-62 0 -100.5 -27.5t-45.5 -71.5l-62 15q9 65 61 104t146 39q110 0 159.5 -44t49.5 -114q0 -49 -20.5 -89.5t-42.5 -62t-88 -77.5q-12 -11 -18 -16q-42 -36 -142 -105z" />
    <glyph glyph-name="three" unicode="3" horiz-adv-x="561" 
d="M282 309q116 -7 175 -64.5t59 -158.5q0 -110 -60 -174t-188 -64q-108 0 -168 50t-69 125l68 15q10 -55 53 -90t115 -35q86 0 130 45.5t44 132.5q0 75 -51.5 117.5t-131.5 42.5l-93 -7v56l233 192h-332v67h435v-67z" />
    <glyph glyph-name="four" unicode="4" horiz-adv-x="594" 
d="M561 60v-60h-86v-173h-69v173h-378v60l342 498h105v-498h86zM104 60h302v444z" />
    <glyph glyph-name="five" unicode="5" horiz-adv-x="580" 
d="M322 323q105 0 163 -66.5t58 -170.5q0 -107 -61 -171.5t-186 -64.5q-113 0 -176 47.5t-75 117.5l71 15q10 -51 56 -83.5t124 -32.5q84 0 129.5 44.5t45.5 127.5q0 82 -46.5 129t-119.5 47q-37 0 -68 -7t-49 -17.5t-30.5 -21t-17.5 -17.5l-4 -7h-68l62 366h374v-64
l-315 -4l-38 -213q60 46 171 46z" />
    <glyph glyph-name="six" unicode="6" horiz-adv-x="642" 
d="M351 469q121 0 180 -67t59 -176t-62 -173t-198 -65q-135 0 -195.5 79t-60.5 244q0 219 60 311.5t196 92.5q106 0 162 -47.5t68 -113.5l-65 -17q-12 49 -51 82t-114 33q-87 0 -131.5 -61t-52.5 -214q67 92 205 92zM330 52q188 0 188 176t-180 176q-81 0 -127.5 -38.5
t-65.5 -82.5q4 -122 49.5 -176.5t135.5 -54.5z" />
    <glyph glyph-name="seven" unicode="7" horiz-adv-x="513" 
d="M140 -142q0 98 28.5 199.5t69 175.5t80.5 134t68 91l29 31l-396 2v68h476v-71q-12 -12 -31 -33.5t-68.5 -90t-87 -139t-68.5 -171.5t-31 -196h-69z" />
    <glyph glyph-name="eight" unicode="8" horiz-adv-x="641" 
d="M64 193q0 47 16.5 84.5t40.5 57.5t45 30t36 10q-9 0 -26.5 9t-38 25t-35 46.5t-14.5 67.5q0 88 56 140t176 52q121 0 176.5 -51.5t55.5 -140.5q0 -69 -42 -108t-71 -40q14 0 34.5 -10.5t44.5 -30t41 -57t17 -84.5q0 -204 -256 -204q-132 0 -194 54t-62 150zM160 517
q0 -51 42 -82.5t118 -31.5t118.5 31.5t42.5 82.5q0 140 -161 140q-160 0 -160 -140zM141 199q0 -145 179 -145q180 0 180 145q0 67 -47 104.5t-133 37.5t-132.5 -37.5t-46.5 -104.5z" />
    <glyph glyph-name="nine" unicode="9" horiz-adv-x="644" 
d="M319 566q136 1 196 -79.5t60 -261.5q0 -216 -58.5 -301t-198.5 -85q-112 0 -171.5 50.5t-70.5 117.5l67 12q11 -48 54 -82.5t121 -34.5q59 0 95 20t60 77.5t30 157.5q-68 -93 -203 -93q-120 0 -176.5 71t-56.5 193q0 106 66 172t186 66zM311 131q44 0 79.5 13t58 34
t35 38.5t21.5 35.5q-4 137 -49 194t-137 57q-80 0 -130 -47.5t-50 -130.5q0 -94 44.5 -144t127.5 -50z" />
    <glyph glyph-name="colon" unicode=":" horiz-adv-x="270" 
d="M98 389v123h74v-123h-74zM98 33v126h74v-126h-74z" />
    <glyph glyph-name="semicolon" unicode=";" horiz-adv-x="275" 
d="M97 355v124h73v-124h-73zM48 -99q22 47 38 119q7 32 10.5 58t3.5 36v10h67q0 -37 -18 -109q-9 -33 -21.5 -61.5t-20.5 -40.5l-8 -12h-51z" />
    <glyph glyph-name="less" unicode="&#x3c;" horiz-adv-x="564" 
d="M467 490v-65l-334 -106l334 -107v-63l-391 132v77z" />
    <glyph glyph-name="equal" unicode="=" horiz-adv-x="555" 
d="M78 343v66h399v-66h-399zM78 198v66h399v-66h-399z" />
    <glyph glyph-name="greater" unicode="&#x3e;" horiz-adv-x="564" 
d="M97 489l391 -132v-77l-391 -133v65l334 107l-334 106v64z" />
    <glyph glyph-name="question" unicode="?" horiz-adv-x="565" 
d="M59 531q13 184 204 184q107 0 158.5 -53t51.5 -147q0 -52 -17.5 -88.5t-42.5 -57.5t-50.5 -40.5t-44 -52t-19.5 -78.5v-39h-70l1 39q0 52 17.5 88t42 56t49 39.5t42 51.5t17.5 78q0 142 -135 142q-123 0 -138 -134zM229 0v105h70v-105h-70z" />
    <glyph glyph-name="at" unicode="@" horiz-adv-x="933" 
d="M859 279q0 -143 -33.5 -203t-110.5 -60h-1q-97 0 -116 110q-49 -69 -157 -69q-178 0 -178 221q0 225 178 225q94 0 153 -64l3 55h53v-301q0 -132 71 -132q41 0 61 46.5t20 171.5q0 367 -338 367q-89 0 -155 -28t-104 -79t-56 -115.5t-18 -144.5q0 -78 17 -140t55 -112
t104 -77.5t158 -27.5q116 0 184 32v-56q-79 -28 -185 -28t-183.5 31t-122 87.5t-65 128.5t-20.5 162q0 89 21 162t65.5 132t122 92t182.5 33q108 0 186 -31.5t123 -89.5t65.5 -131.5t20.5 -166.5zM450 109q107 0 143 80v186q-49 76 -143 76q-63 0 -94.5 -46t-31.5 -127
q0 -80 31.5 -124.5t94.5 -44.5z" />
    <glyph glyph-name="A" unicode="A" horiz-adv-x="713" 
d="M603 0l-70 181h-354l-70 -181h-78l287 708h77l287 -708h-79zM205 249h302l-151 393z" />
    <glyph glyph-name="B" unicode="B" horiz-adv-x="722" 
d="M520 371q125 -39 125 -178q0 -53 -11 -86.5t-42 -60t-91 -38t-155 -11.5h-240v714h241q82 0 137 -12t85.5 -36.5t42.5 -55t12 -73.5q0 -126 -104 -163zM353 651h-176v-246l212 -1q90 -1 127.5 29.5t37.5 93.5q0 65 -45.5 94.5t-155.5 29.5zM353 57q129 0 175 30.5
t46 109.5q0 142 -185 142h-212v-281z" />
    <glyph glyph-name="C" unicode="C" horiz-adv-x="718" 
d="M643 194q-24 -211 -269 -211q-162 0 -231.5 93.5t-69.5 276.5q0 184 69.5 278.5t231.5 94.5q249 0 272 -221l-67 -14q-14 87 -63 127.5t-142 40.5q-121 0 -174.5 -75.5t-53.5 -230.5q0 -154 53.5 -229t174.5 -75q90 0 139.5 40t63.5 124z" />
    <glyph glyph-name="D" unicode="D" horiz-adv-x="743" 
d="M333 711q103 0 170 -21.5t103 -69.5t49.5 -110t13.5 -156t-13.5 -156t-49.5 -110t-103 -69.5t-170 -21.5h-227v714h227zM345 62q141 -1 195.5 65.5t54.5 226.5t-54 225.5t-196 65.5l-167 1v-583z" />
    <glyph glyph-name="E" unicode="E" horiz-adv-x="624" 
d="M177 67h398v-67h-469v708h464v-67h-393v-240h341v-65h-341v-269z" />
    <glyph glyph-name="F" unicode="F" horiz-adv-x="596" 
d="M567 641h-390v-255h338v-66h-338v-320h-71v708h461v-67z" />
    <glyph glyph-name="G" unicode="G" horiz-adv-x="722" 
d="M638 344v-263q0 -4 -9.5 -14t-31 -24.5t-51 -28t-76 -22.5t-98.5 -9q-161 -1 -230 92.5t-69 277.5t69 278.5t230 94.5q251 0 274 -221l-67 -14q-14 87 -63 127.5t-144 40.5q-120 0 -173 -75.5t-53 -230.5q0 -156 53.5 -231t174.5 -75q58 0 106 14.5t70 30.5t22 25v161
h-161v66h227z" />
    <glyph glyph-name="H" unicode="H" horiz-adv-x="753" 
d="M576 708h71v-708h-71v336h-399v-336h-71v708h71v-305h399v305z" />
    <glyph glyph-name="I" unicode="I" horiz-adv-x="283" 
d="M106 0v708h71v-708h-71z" />
    <glyph glyph-name="J" unicode="J" horiz-adv-x="411" 
d="M74 0h-53v71h53q106 0 138.5 42t32.5 158l1 437h72v-437q0 -81 -7.5 -127t-33.5 -81.5t-74 -49t-129 -13.5z" />
    <glyph glyph-name="K" unicode="K" horiz-adv-x="683" 
d="M568 0l-227 359l-164 -186v-173h-71v708h71v-435l379 435h93l-259 -294l261 -414h-83z" />
    <glyph glyph-name="L" unicode="L" horiz-adv-x="557" 
d="M177 68h346v-68h-417v708h71v-640z" />
    <glyph glyph-name="M" unicode="M" horiz-adv-x="962" 
d="M856 708l-2 -708h-71l5 619l-277 -619h-70l-270 618l3 -618h-68v708h97l274 -638l278 638h101z" />
    <glyph glyph-name="N" unicode="N" horiz-adv-x="779" 
d="M604 708h69v-708h-75l-425 615v-615h-67l4 708h74l424 -610z" />
    <glyph glyph-name="O" unicode="O" horiz-adv-x="757" 
d="M378 -17q-165 0 -235 93t-70 277t70 278.5t235 94.5t235 -94.5t70 -278.5t-70 -277t-235 -93zM378 49q124 0 178 74.5t54 229.5q0 156 -54 231t-178 75t-178 -75t-54 -231q0 -155 54 -229.5t178 -74.5z" />
    <glyph glyph-name="P" unicode="P" horiz-adv-x="701" 
d="M340 711q165 0 234.5 -48.5t69.5 -179.5q0 -130 -69.5 -179t-235.5 -49h-162v-255h-71v711h234zM350 320q56 0 92 5.5t68 22t46.5 50t14.5 86.5t-14.5 86.5t-46.5 50t-68 22t-92 5.5h-173v-327z" />
    <glyph glyph-name="Q" unicode="Q" horiz-adv-x="767" 
d="M707 -53l-55 -49l-120 114q-63 -29 -154 -29q-165 0 -235 93t-70 277t70 278.5t235 94.5t235 -94.5t70 -278.5q0 -218 -96 -304zM146 353q0 -155 54 -229.5t178 -74.5t178 74.5t54 229.5q0 156 -54 231t-178 75t-178 -75t-54 -231z" />
    <glyph glyph-name="R" unicode="R" horiz-adv-x="720" 
d="M656 0h-78l-158 281q-40 -2 -64 -2h-179v-279h-71v711h251q156 0 222 -45t66 -171q0 -96 -37.5 -143.5t-119.5 -62.5zM351 345q46 0 75.5 2.5t60 11t47.5 24.5t27.5 44t10.5 68q0 50 -14.5 81t-46.5 46t-67 19.5t-93 4.5h-174v-300z" />
    <glyph glyph-name="S" unicode="S" horiz-adv-x="683" 
d="M138 197q20 -147 208 -150q199 -1 199 132q0 43 -26 71.5t-67 43t-91 26t-100 25t-91 33.5t-66.5 59t-25.5 95q0 92 65.5 143.5t195.5 50.5q126 -1 186.5 -45t70.5 -124l-66 -17q-5 25 -14.5 44t-29.5 37.5t-57 28.5t-90 10q-102 1 -146 -34t-44 -92q0 -42 26 -70t67 -43
t91 -26.5t100 -25t91 -34t67 -59.5t26 -95q0 -100 -71 -150t-203 -48q-252 2 -271 200z" />
    <glyph glyph-name="T" unicode="T" horiz-adv-x="614" 
d="M584 708v-66h-241l-4 -642h-72l4 642h-242v66h555z" />
    <glyph glyph-name="U" unicode="U" horiz-adv-x="744" 
d="M371 -17q-70 0 -120.5 17.5t-81 47t-48 78.5t-23.5 102.5t-6 128.5v351h72v-346q0 -165 43.5 -238t163.5 -73q121 0 164.5 73t43.5 238v346h72v-351q0 -75 -6 -128t-23.5 -102.5t-48 -79t-81 -47t-121.5 -17.5z" />
    <glyph glyph-name="V" unicode="V" horiz-adv-x="669" 
d="M569 708h77l-268 -708h-86l-269 708h79l234 -645z" />
    <glyph glyph-name="W" unicode="W" horiz-adv-x="1027" 
d="M915 708h78l-218 -708h-84l-176 630l-173 -630h-85l-223 708h82l184 -640l173 640h81l181 -641z" />
    <glyph glyph-name="X" unicode="X" horiz-adv-x="683" 
d="M646 708l-261 -352l258 -356h-83l-221 307l-222 -307h-85l261 356l-258 352h84l221 -305l221 305h85z" />
    <glyph glyph-name="Y" unicode="Y" horiz-adv-x="658" 
d="M541 708h85l-258 -473v-235h-71v235l-265 473h83l218 -407z" />
    <glyph glyph-name="Z" unicode="Z" horiz-adv-x="598" 
d="M125 65h432v-61h-517v61l424 578h-406v61h494v-61z" />
    <glyph glyph-name="bracketleft" unicode="[" horiz-adv-x="392" 
d="M343 704h-157v-845h157v-56h-220v957h220v-56z" />
    <glyph glyph-name="backslash" unicode="\" horiz-adv-x="532" 
d="M460 -40h-65l-324 843h65z" />
    <glyph glyph-name="bracketright" unicode="]" horiz-adv-x="392" 
d="M270 760v-957h-220v56h157v845h-157v56h220z" />
    <glyph glyph-name="asciicircum" unicode="^" horiz-adv-x="466" 
d="M389 467h-53l-101 222l-102 -222h-54l132 271h46z" />
    <glyph glyph-name="underscore" unicode="_" horiz-adv-x="630" 
d="M103 0v54h425v-54h-425z" />
    <glyph glyph-name="grave" unicode="`" horiz-adv-x="305" 
d="M210 636h-59l-89 139h72z" />
    <glyph glyph-name="a" unicode="a" horiz-adv-x="633" 
d="M545 1h-64l-10 72q-72 -85 -205 -85q-194 0 -194 165q0 96 59.5 135t175.5 39q92 0 157 -9q-1 50 -6 78t-20.5 50t-44.5 30t-78 8q-19 0 -36 -2t-28.5 -4t-25 -8t-20 -8.5t-18 -11t-14.5 -11t-14.5 -13t-13.5 -12.5l-44 40q63 91 211 91q37 0 66.5 -4.5t51.5 -10.5
t38.5 -20t27.5 -24.5t18.5 -33t11.5 -36t6 -43.5t2 -45.5v-51.5v-16v-124zM278 51q76 0 127 33t59 71v102q-54 8 -140 8q-93 0 -136.5 -24t-43.5 -85q0 -105 134 -105z" />
    <glyph glyph-name="b" unicode="b" horiz-adv-x="654" 
d="M365 545q111 0 163.5 -74.5t52.5 -205.5q0 -130 -53 -202t-165 -72q-142 0 -196 89l-11 -80h-62l11 140v614h70v-290q69 81 190 81zM350 57q160 0 160 208q0 215 -160 215q-111 0 -175 -90v-240q52 -93 175 -93z" />
    <glyph glyph-name="c" unicode="c" horiz-adv-x="612" 
d="M530 108q-22 -54 -76.5 -86.5t-139.5 -32.5q-131 0 -186 70.5t-55 206.5t55 208t186 72q88 0 143 -35.5t75 -96.5l-54 -32q-38 104 -164 104q-91 0 -130 -54.5t-39 -165.5q0 -112 39 -164.5t130 -52.5q123 0 162 91z" />
    <glyph glyph-name="d" unicode="d" horiz-adv-x="648" 
d="M560 0h-62l-11 80q-53 -89 -196 -89q-112 0 -165 72t-53 202q0 131 52.5 205.5t163.5 74.5q121 0 190 -81v290h70v-614zM303 57q124 0 176 92v241q-64 90 -175 90q-160 0 -160 -215q0 -208 159 -208z" />
    <glyph glyph-name="e" unicode="e" horiz-adv-x="626" 
d="M317 51q67 0 115.5 21.5t69.5 48.5l44 -48q-24 -36 -84.5 -60.5t-144.5 -24.5q-131 0 -187.5 71t-56.5 207t56.5 208t187.5 72q129 0 185 -70t56 -224h-413q2 -104 42.5 -152.5t129.5 -48.5zM317 485q-82 0 -122 -42t-48 -128h336q-10 90 -50 130t-116 40z" />
    <glyph glyph-name="f" unicode="f" horiz-adv-x="371" 
d="M312 697q-67 0 -91 -32t-24 -101v-33h150v-63h-150v-468h-70v468h-75v63h75v42q0 89 35.5 139t131.5 50h58v-65h-40z" />
    <glyph glyph-name="g" unicode="g" horiz-adv-x="646" 
d="M497 535h61l-10 -135v-401q0 -30 -1 -49.5t-6 -47.5t-14 -46.5t-26 -39t-42 -32.5t-62 -20t-85 -8q-99 0 -152.5 40t-68.5 92l58 29q37 -101 163 -101q57 0 92.5 14t50.5 44t19 56.5t4 71.5v65q-56 -76 -187 -76q-112 0 -165 72t-53 202q0 131 52.5 205.5t163.5 74.5
q127 0 197 -89zM303 57q121 0 175 90v244q-64 89 -174 89q-160 0 -160 -215q0 -208 159 -208z" />
    <glyph glyph-name="h" unicode="h" horiz-adv-x="646" 
d="M374 543q95 0 139 -53t44 -177v-313h-70v316q0 83 -31 122t-107 39q-111 0 -176 -102v-375h-70v754h70v-299q66 88 201 88z" />
    <glyph glyph-name="i" unicode="i" horiz-adv-x="274" 
d="M102 643v116h71v-116h-71zM102 0v535h70v-535h-70z" />
    <glyph glyph-name="j" unicode="j" horiz-adv-x="283" 
d="M111 643v116h71v-116h-71zM-12 -183v68q26 0 45.5 3.5t33 8t22 16.5t13 21t6.5 30t2.5 35t0.5 45v491h70v-491q0 -38 -1 -59t-4.5 -49.5t-11 -43t-21 -31.5t-34.5 -25t-51 -13.5t-70 -5.5z" />
    <glyph glyph-name="k" unicode="k" horiz-adv-x="558" 
d="M456 0l-171 283l-114 -130v-153h-68v754h68v-509l252 290h85l-177 -200l205 -335h-80z" />
    <glyph glyph-name="l" unicode="l" horiz-adv-x="309" 
d="M272 -2h-46q-123 0 -123 157v600h70v-597q0 -36 13 -65t44 -29h42v-66z" />
    <glyph glyph-name="m" unicode="m" horiz-adv-x="996" 
d="M727 543q92 0 136 -53t44 -177v-313h-67v316q0 83 -30 122t-103 39q-107 0 -171 -100q4 -27 4 -68v-309h-65v312q0 86 -30 125.5t-102 39.5q-104 0 -168 -100v-377h-70v396l-11 139h61l12 -84q25 36 73 64t123 28q123 0 159 -102q23 39 73 70.5t132 31.5z" />
    <glyph glyph-name="n" unicode="n" horiz-adv-x="647" 
d="M375 543q95 0 139 -53t44 -179v-311h-70v315q0 84 -31 123t-107 39q-112 0 -175 -102v-375h-70v396l-11 139h61l12 -90q25 38 75.5 68t132.5 30z" />
    <glyph glyph-name="o" unicode="o" horiz-adv-x="637" 
d="M319 -12q-136 0 -191 70t-55 208t55 209t191 72q135 1 190 -71t55 -210t-55 -208t-190 -70zM319 49q96 0 134.5 52.5t38.5 164.5q0 113 -38.5 166.5t-134.5 53.5t-135 -53.5t-39 -166.5q0 -112 39 -164.5t135 -52.5z" />
    <glyph glyph-name="p" unicode="p" horiz-adv-x="653" 
d="M365 545q111 0 163 -74.5t52 -205.5q0 -274 -217 -274q-129 0 -188 76v-310h-70v643l-11 135h62l11 -80q9 12 21.5 23.5t37 28.5t61 27.5t78.5 10.5zM350 57q160 0 160 208q0 215 -160 215q-111 0 -175 -89v-243q53 -91 175 -91z" />
    <glyph glyph-name="q" unicode="q" horiz-adv-x="648" 
d="M498 535h62l-11 -117v-661h-70v311q-57 -77 -188 -77q-112 0 -165 72t-53 202q0 131 52.5 205.5t163.5 74.5q53 0 98.5 -18.5t65 -35.5t32.5 -34zM303 57q124 0 176 92v241q-64 90 -175 90q-160 0 -160 -215q0 -208 159 -208z" />
    <glyph glyph-name="r" unicode="r" horiz-adv-x="410" 
d="M168 432q8 18 20.5 34t35.5 36t61 32t85 12v-67q-42 0 -76 -12.5t-54 -29t-35 -38.5t-21 -37t-9 -29v-333h-70v384l-11 151h62z" />
    <glyph glyph-name="s" unicode="s" horiz-adv-x="576" 
d="M123 151q21 -96 163 -99q157 -3 159 94q0 35 -27 56.5t-68.5 29t-90 18t-90 22.5t-70 44t-28.5 81q-1 71 55 111t164 39q174 -3 205 -118l-57 -29q-13 41 -46 62.5t-100 22.5q-82 1 -116 -25t-34 -67q0 -28 20.5 -45.5t53.5 -26.5t73 -15.5t80 -16.5t73 -25.5t53.5 -46.5
t20.5 -75q0 -155 -229 -154q-94 2 -151.5 37.5t-71.5 101.5z" />
    <glyph glyph-name="t" unicode="t" horiz-adv-x="369" 
d="M292 64h42v-66h-46q-47 0 -80 11t-51 28t-27.5 46.5t-12 55.5t-2.5 66v267h-71v63h71v158l70 14v-172h146v-63h-146v-264q0 -75 20.5 -109.5t86.5 -34.5z" />
    <glyph glyph-name="u" unicode="u" horiz-adv-x="644" 
d="M556 0h-61l-14 104q-8 -16 -22 -32.5t-38 -36t-63.5 -31.5t-87.5 -12q-95 0 -139.5 53t-44.5 177l1 313h69v-315q0 -82 31.5 -122t107.5 -40q38 0 70.5 12.5t54 33.5t34 38t21.5 35v358h70v-387z" />
    <glyph glyph-name="v" unicode="v" horiz-adv-x="562" 
d="M456 535h78l-218 -535h-74l-214 535h79l174 -470z" />
    <glyph glyph-name="w" unicode="w" horiz-adv-x="852" 
d="M749 535h75l-171 -535h-81l-147 462l-140 -462h-80l-178 535h76l141 -465l140 465h82l148 -466z" />
    <glyph glyph-name="x" unicode="x" horiz-adv-x="549" 
d="M521 535l-203 -268l200 -267h-84l-160 219l-160 -219h-83l201 267l-202 268h83l163 -221l162 221h83z" />
    <glyph glyph-name="y" unicode="y" horiz-adv-x="560" 
d="M457 535h75l-279 -758h-66l79 223h-28l-210 535h77l182 -478z" />
    <glyph glyph-name="z" unicode="z" horiz-adv-x="484" 
d="M47 532h397v-64l-327 -400l327 1v-65h-407v64l328 400l-318 -1v65z" />
    <glyph glyph-name="braceleft" unicode="{" horiz-adv-x="444" 
d="M394 762v-55q-89 0 -113.5 -24t-24.5 -98v-222q0 -30 -13.5 -49.5t-26.5 -24.5l-14 -5q2 0 5.5 -1.5t13 -7t16.5 -13.5t13 -23t6 -33v-224q0 -73 25 -96.5t113 -23.5v-54q-92 0 -135 15t-57 46.5t-14 98.5v235q0 32 -17 44t-73 12v51q56 0 73 11.5t17 43.5v238
q0 51 6.5 78.5t28.5 47.5t61.5 26.5t109.5 6.5z" />
    <glyph glyph-name="bar" unicode="|" horiz-adv-x="258" 
d="M103 -197v1020h52v-1020h-52z" />
    <glyph glyph-name="braceright" unicode="}" horiz-adv-x="444" 
d="M50 -192v54q89 0 113.5 24t24.5 98l1 222q0 30 13.5 49.5t26.5 24.5l13 5q-2 0 -5.5 1.5t-13 7t-16.5 13.5t-13 23t-6 34v223q0 73 -25 96.5t-113 23.5v55q92 0 135.5 -15.5t57 -47t13.5 -98.5v-235q0 -32 17 -44t73 -12v-51q-56 0 -73 -11.5t-17 -43.5v-238
q0 -67 -14 -98t-57 -45.5t-135 -14.5z" />
    <glyph glyph-name="asciitilde" unicode="~" horiz-adv-x="560" 
d="M66 247q0 46 26 80.5t87 34.5q51 0 104.5 -27.5t90.5 -27.5q36 0 54 19.5t18 35.5h47q0 -47 -26 -81t-87 -34q-51 0 -104.5 27.5t-90.5 27.5q-36 0 -54 -19t-18 -36h-47z" />
    <glyph glyph-name="exclamdown" unicode="&#xa1;" horiz-adv-x="276" 
d="M103 426v109h70v-109h-70zM103 -173l1 545h67l2 -545h-70z" />
    <glyph glyph-name="cent" unicode="&#xa2;" horiz-adv-x="623" 
d="M345 128q115 12 131 109l66 -16q-21 -141 -197 -153v-88h-67v88q-111 10 -158 80t-47 196t47 197t158 81v88h67v-87q181 -13 198 -173l-67 -16q-15 116 -131 128v-434zM145 344q0 -100 30.5 -152.5t102.5 -62.5v433q-71 -11 -102 -65t-31 -153z" />
    <glyph glyph-name="sterling" unicode="&#xa3;" horiz-adv-x="585" 
d="M232 196q0 -94 -70 -139l364 2v-63h-477v61l12.5 2.5t26.5 11t34 22.5t27 38.5t12 57.5q0 36 -5 71h-112v59h99q-5 18 -18.5 59.5t-20 72.5t-6.5 67q0 86 58 138t161 52q97 0 153 -46.5t64 -127.5l-67 -15q-8 59 -47.5 93t-100.5 34q-66 0 -106.5 -38t-40.5 -103
q0 -30 6.5 -58.5t19.5 -68t18 -59.5h169v-59h-157q4 -40 4 -64z" />
    <glyph glyph-name="currency" unicode="&#xa4;" horiz-adv-x="718" 
d="M645 90l-44 -43l-74 74q-60 -46 -167 -46t-167 46l-74 -74l-44 43l77 77q-38 58 -38 156q0 97 36 154l-77 76l44 44l73 -73q63 51 170 51q103 0 163 -44l74 73l44 -43l-75 -76q40 -60 40 -162q0 -96 -37 -156zM360 136q175 0 175 187q0 191 -175 191t-175 -191
q0 -187 175 -187z" />
    <glyph glyph-name="yen" unicode="&#xa5;" horiz-adv-x="620" 
d="M588 707l-218 -351h90v-55h-112v-57h112v-55h-112v-189h-70v189h-115v55h115v57h-115v55h92l-223 351h80l202 -335l192 335h82z" />
    <glyph glyph-name="brokenbar" unicode="&#xa6;" horiz-adv-x="258" 
d="M103 396v426h52v-426h-52zM155 246v-426h-52v426h52z" />
    <glyph glyph-name="section" unicode="&#xa7;" horiz-adv-x="583" 
d="M462 251q56 -38 56 -112q0 -152 -229 -152q-111 0 -165.5 36.5t-59.5 112.5l61 10q16 -108 163 -108q162 0 162 98q0 40 -28 64t-70 32t-91.5 18.5t-91.5 22t-70 44t-28 83.5q0 80 63 125q-58 35 -58 108q0 146 216 146q108 0 158.5 -34t56.5 -104l-61 -10
q-4 23 -11.5 39t-24 30t-45.5 21t-72 7q-149 0 -149 -95q0 -44 39 -66.5t94.5 -31t111.5 -19.5t95 -46t39 -98q0 -80 -61 -121zM139 400q0 -29 16 -48.5t45.5 -30t60 -16t73 -13t69.5 -15.5q52 35 52 91q0 31 -15.5 52t-45.5 32.5t-59.5 18t-72 14t-68.5 15.5
q-55 -38 -55 -100z" />
    <glyph glyph-name="dieresis" unicode="&#xa8;" horiz-adv-x="377" 
d="M62 635v124h66v-124h-66zM221 635v124h67v-124h-67z" />
    <glyph glyph-name="copyright" unicode="&#xa9;" horiz-adv-x="874" 
d="M436 -25q-100 0 -172.5 30.5t-113 84t-59 117.5t-18.5 141t18.5 141.5t59 119.5t113 86t172.5 31q101 0 174.5 -31t113.5 -86t58 -119.5t18 -141.5q0 -61 -10.5 -113.5t-37 -101.5t-67 -83t-104 -54.5t-145.5 -20.5zM436 23q86 0 148.5 26t97 73t50 102.5t15.5 123.5
t-15.5 124t-50 104t-97 75t-148.5 27q-85 0 -147.5 -27t-96.5 -75t-49.5 -104t-15.5 -124q0 -53 9 -99t31.5 -88.5t57 -72.5t88.5 -47.5t123 -17.5zM595 259q-13 -123 -156 -123q-93 0 -134.5 54.5t-41.5 159.5q0 106 41.5 160.5t134.5 54.5q143 0 157 -127l-49 -11
q-16 93 -108 93q-65 0 -94.5 -42t-29.5 -128t29.5 -127.5t94.5 -41.5q89 0 107 87z" />
    <glyph glyph-name="ordfeminine" unicode="&#xaa;" horiz-adv-x="451" 
d="M388 364h-50l-6 44q-50 -54 -139 -54q-137 0 -137 116q0 66 42.5 94t123.5 28q62 0 104 -6q-2 63 -20 87t-78 24q-93 0 -108 -66l-46 12q14 100 151 100q33 0 58 -5.5t41.5 -13t27.5 -24.5t16.5 -28.5t8 -38.5t3 -41t0.5 -48v-86zM201 401q51 0 85 22t40 47v69
q-48 5 -93 5q-64 0 -93.5 -16t-29.5 -56q0 -71 91 -71z" />
    <glyph glyph-name="guillemotleft" unicode="&#xab;" horiz-adv-x="558" 
d="M302 430l-135 -166l135 -158h-82l-122 149v19l122 156h82zM462 430l-135 -166l135 -158h-82l-122 149v19l122 156h82z" />
    <glyph glyph-name="registered" unicode="&#xae;" horiz-adv-x="874" 
d="M436 726q101 0 174.5 -31t113.5 -86t58 -119.5t18 -141.5q0 -61 -10.5 -113.5t-37 -101.5t-67 -83t-104 -54.5t-145.5 -20.5q-100 0 -172.5 30.5t-113 84t-59 117.5t-18.5 141t18.5 141.5t59 119.5t113 86t172.5 31zM436 23q86 0 148.5 26t97 73t50 102.5t15.5 123.5
t-15.5 124t-50 104t-97 75t-148.5 27q-85 0 -147.5 -27t-96.5 -75t-49.5 -104t-15.5 -124q0 -53 9 -99t31.5 -88.5t57 -72.5t88.5 -47.5t123 -17.5zM603 427q0 -57 -22 -84.5t-69 -36.5l87 -164h-55l-81 160h-121v-160h-50v410h159q79 0 115.5 -27t36.5 -98zM448 343
q25 0 40.5 2.5t31.5 10.5t24 25.5t8 45.5q0 51 -27 67.5t-77 16.5h-106v-167z" />
    <glyph glyph-name="macron" unicode="&#xaf;" horiz-adv-x="390" 
d="M62 716h244v-53h-244v53z" />
    <glyph glyph-name="degree" unicode="&#xb0;" horiz-adv-x="368" 
d="M184 504q-103 0 -103 109q0 111 103 111t103 -111q0 -109 -103 -109zM184 544q58 0 58 69q0 70 -58 70t-58 -70q0 -69 58 -69z" />
    <glyph glyph-name="plusminus" unicode="&#xb1;" horiz-adv-x="565" 
d="M316 395h163v-66h-163v-120h-66v120h-163v66h163v118h66v-118zM87 103v66h392v-66h-392z" />
    <glyph glyph-name="uni00B2" unicode="&#xb2;" horiz-adv-x="430" 
d="M130 385l256 3v-55h-346v53l148 127q40 34 57.5 50t40 43t30.5 52t8 57q0 42 -28.5 68t-83.5 26q-48 0 -79.5 -25.5t-38.5 -66.5l-55 15q8 59 53 95.5t120 36.5q88 0 130.5 -41t42.5 -105q0 -39 -8.5 -69.5t-31 -60.5t-40 -47.5t-56.5 -53.5q-38 -35 -119 -102z" />
    <glyph glyph-name="uni00B3" unicode="&#xb3;" horiz-adv-x="485" 
d="M251 657q171 -13 171 -170q0 -76 -45.5 -122t-143.5 -46q-84 0 -128.5 36t-51.5 92l56 14q8 -38 39 -62t84 -24q127 0 127 116q0 55 -35.5 87t-99.5 32l-64 -5v46l166 132l-250 -1v55h335v-53z" />
    <glyph glyph-name="acute" unicode="&#xb4;" horiz-adv-x="305" 
d="M58 636l76 139h71l-89 -139h-58z" />
    <glyph glyph-name="paragraph" unicode="&#xb6;" horiz-adv-x="627" 
d="M524 763v-763h-53v707h-100v-707h-53v308q-146 2 -204 50t-58 177q0 133 61 180.5t216 47.5h191zM124 536q0 -54 11.5 -87.5t37.5 -51.5t59 -24.5t86 -7.5v341q-53 -1 -86 -7t-59 -24t-37.5 -51.5t-11.5 -87.5z" />
    <glyph glyph-name="periodcentered" unicode="&#xb7;" horiz-adv-x="267" 
d="M98 235v124h74v-124h-74z" />
    <glyph glyph-name="cedilla" unicode="&#xb8;" horiz-adv-x="331" 
d="M167 -57q85 -7 85 -77q0 -48 -29.5 -66.5t-97.5 -18.5q-17 0 -32.5 1.5t-22.5 3.5l-8 2v45q18 -6 48 -6q41 0 57.5 9t16.5 36q0 46 -88 46h-6l39 85h66z" />
    <glyph glyph-name="uni00B9" unicode="&#xb9;" horiz-adv-x="277" 
d="M146 845h40v-517h-59v445l-100 -46v66z" />
    <glyph glyph-name="ordmasculine" unicode="&#xba;" horiz-adv-x="444" 
d="M222 355q-94 0 -132 49t-38 145q0 97 38 146.5t132 49.5q95 0 133 -49.5t38 -146.5q0 -96 -38 -145t-133 -49zM222 402q64 0 90.5 35.5t26.5 111.5t-26.5 113t-90.5 37t-90 -36.5t-26 -113.5q0 -76 26 -111.5t90 -35.5z" />
    <glyph glyph-name="guillemotright" unicode="&#xbb;" horiz-adv-x="558" 
d="M300 274v-19l-122 -149h-81l134 158l-134 166h81zM338 430l122 -156v-19l-122 -149h-81l134 158l-134 166h81z" />
    <glyph glyph-name="onequarter" unicode="&#xbc;" horiz-adv-x="1005" 
d="M127 -40l551 826h67l-551 -826h-67zM146 769h40v-517h-59v445l-100 -46v66zM962 164v-54h-64v-110h-58v110h-273v54l241 351h90v-351h64zM636 164h204v311z" />
    <glyph glyph-name="onehalf" unicode="&#xbd;" horiz-adv-x="1019" 
d="M127 -40l551 826h67l-551 -826h-67zM146 769h40v-517h-59v445l-100 -46v66zM719 57l256 3v-55h-346v53l148 127q40 34 57.5 50t40 43t30.5 52t8 57q0 42 -28.5 68t-83.5 26q-48 0 -79.5 -25.5t-38.5 -66.5l-55 15q8 59 53 95.5t120 36.5q88 0 130.5 -41t42.5 -105
q0 -39 -8.5 -69.5t-31 -60.5t-40 -47.5t-56.5 -53.5q-38 -35 -119 -102z" />
    <glyph glyph-name="threequarters" unicode="&#xbe;" horiz-adv-x="1198" 
d="M320 -40l551 826h67l-551 -826h-67zM251 581q171 -13 171 -170q0 -76 -45.5 -122t-143.5 -46q-84 0 -128.5 36t-51.5 92l56 14q8 -38 39 -62t84 -24q127 0 127 116q0 55 -35.5 87t-99.5 32l-64 -5v46l166 132l-250 -1v55h335v-53zM1155 164v-54h-64v-110h-58v110h-273v54
l241 351h90v-351h64zM829 164h204v311z" />
    <glyph glyph-name="questiondown" unicode="&#xbf;" horiz-adv-x="561" 
d="M336 535v-105h-69v105h69zM506 8q-12 -188 -203 -188q-107 0 -158.5 53t-51.5 147q0 52 17.5 88.5t42.5 57.5t50 40.5t43.5 52t19.5 78.5l1 39h69v-39q0 -52 -17.5 -88t-42 -56t-49.5 -39t-42.5 -51t-17.5 -78q0 -143 135 -143q124 0 139 135z" />
    <glyph glyph-name="Agrave" unicode="&#xc0;" horiz-adv-x="713" 
d="M390 765h-64l-89 116h77zM603 0l-70 181h-354l-70 -181h-78l287 708h77l287 -708h-79zM205 249h302l-151 393z" />
    <glyph glyph-name="Aacute" unicode="&#xc1;" horiz-adv-x="713" 
d="M324 765l76 115h77l-89 -115h-64zM603 0l-70 181h-354l-70 -181h-78l287 708h77l287 -708h-79zM205 249h302l-151 393z" />
    <glyph glyph-name="Acircumflex" unicode="&#xc2;" horiz-adv-x="713" 
d="M504 765h-74l-73 70l-73 -70h-73l108 113h75zM603 0l-70 181h-354l-70 -181h-78l287 708h77l287 -708h-79zM205 249h302l-151 393z" />
    <glyph glyph-name="Atilde" unicode="&#xc3;" horiz-adv-x="713" 
d="M501 869q0 -105 -85 -105q-38 0 -63.5 24t-47.5 24q-39 0 -39 -48h-53q0 104 85 104q37 0 62.5 -23.5t47.5 -23.5q40 0 40 48h53zM603 0l-70 181h-354l-70 -181h-78l287 708h77l287 -708h-79zM205 249h302l-151 393z" />
    <glyph glyph-name="Adieresis" unicode="&#xc4;" horiz-adv-x="713" 
d="M240 765v124h69v-124h-69zM404 765v124h69v-124h-69zM603 0l-70 181h-354l-70 -181h-78l287 708h77l287 -708h-79zM205 249h302l-151 393z" />
    <glyph glyph-name="Aring" unicode="&#xc5;" horiz-adv-x="713" 
d="M358 756q-43 0 -67.5 23.5t-24.5 63.5q0 39 25 63t67 24t67 -24t25 -63q0 -40 -24.5 -63.5t-67.5 -23.5zM358 802q18 0 29 11t11 30t-11 29.5t-29 10.5t-28.5 -10.5t-10.5 -29.5t10.5 -30t28.5 -11zM603 0l-70 181h-354l-70 -181h-78l287 708h77l287 -708h-79zM205 249
h302l-151 393z" />
    <glyph glyph-name="AE" unicode="&#xc6;" horiz-adv-x="990" 
d="M543 67h398v-67h-470v190h-253l-106 -190h-81l400 708h505v-67h-393v-240h341v-65h-341v-269zM253 253h218v392z" />
    <glyph glyph-name="Ccedilla" unicode="&#xc7;" horiz-adv-x="718" 
d="M374 49q90 0 139.5 40t63.5 124l66 -19q-22 -194 -230 -210l-23 -49q85 -7 85 -77q0 -48 -29.5 -66.5t-97.5 -18.5q-17 0 -32.5 1.5t-23.5 3.5l-7 2v45q18 -6 48 -6q41 0 57.5 9t16.5 36q0 46 -88 46h-6l34 74q-147 8 -210.5 101t-63.5 268q0 184 69.5 278.5t231.5 94.5
q249 0 272 -221l-67 -14q-14 87 -63 127.5t-142 40.5q-121 0 -174.5 -75.5t-53.5 -230.5q0 -154 53.5 -229t174.5 -75z" />
    <glyph glyph-name="Egrave" unicode="&#xc8;" horiz-adv-x="624" 
d="M369 765h-64l-89 116h77zM177 67h398v-67h-469v708h464v-67h-393v-240h341v-65h-341v-269z" />
    <glyph glyph-name="Eacute" unicode="&#xc9;" horiz-adv-x="624" 
d="M303 765l76 115h77l-89 -115h-64zM177 67h398v-67h-469v708h464v-67h-393v-240h341v-65h-341v-269z" />
    <glyph glyph-name="Ecircumflex" unicode="&#xca;" horiz-adv-x="624" 
d="M483 765h-74l-73 70l-73 -70h-73l108 113h75zM177 67h398v-67h-469v708h464v-67h-393v-240h341v-65h-341v-269z" />
    <glyph glyph-name="Edieresis" unicode="&#xcb;" horiz-adv-x="624" 
d="M219 765v124h69v-124h-69zM383 765v124h69v-124h-69zM177 67h398v-67h-469v708h464v-67h-393v-240h341v-65h-341v-269z" />
    <glyph glyph-name="Igrave" unicode="&#xcc;" horiz-adv-x="283" 
d="M175 765h-64l-89 116h77zM106 0v708h71v-708h-71z" />
    <glyph glyph-name="Iacute" unicode="&#xcd;" horiz-adv-x="283" 
d="M109 765l76 115h77l-89 -115h-64zM106 0v708h71v-708h-71z" />
    <glyph glyph-name="Icircumflex" unicode="&#xce;" horiz-adv-x="283" 
d="M289 765h-74l-73 70l-73 -70h-73l108 113h75zM106 0v708h71v-708h-71z" />
    <glyph glyph-name="Idieresis" unicode="&#xcf;" horiz-adv-x="283" 
d="M25 765v124h69v-124h-69zM189 765v124h69v-124h-69zM106 0v708h71v-708h-71z" />
    <glyph glyph-name="Eth" unicode="&#xd0;" horiz-adv-x="743" 
d="M333 711q103 0 170 -21.5t103 -69.5t49.5 -110t13.5 -156t-13.5 -156t-49.5 -110t-103 -69.5t-170 -21.5h-227v330h-77v55h77v329h227zM345 62q141 -1 195.5 65.5t54.5 226.5t-54 225.5t-196 65.5l-167 1v-264h132v-55h-132v-264z" />
    <glyph glyph-name="Ntilde" unicode="&#xd1;" horiz-adv-x="779" 
d="M536 869q0 -105 -85 -105q-38 0 -63.5 24t-47.5 24q-39 0 -39 -48h-53q0 104 85 104q37 0 62.5 -23.5t47.5 -23.5q40 0 40 48h53zM604 708h69v-708h-75l-425 615v-615h-67l4 708h74l424 -610z" />
    <glyph glyph-name="Ograve" unicode="&#xd2;" horiz-adv-x="757" 
d="M411 768h-64l-89 116h77zM378 -17q-165 0 -235 93t-70 277t70 278.5t235 94.5t235 -94.5t70 -278.5t-70 -277t-235 -93zM378 49q124 0 178 74.5t54 229.5q0 156 -54 231t-178 75t-178 -75t-54 -231q0 -155 54 -229.5t178 -74.5z" />
    <glyph glyph-name="Oacute" unicode="&#xd3;" horiz-adv-x="757" 
d="M345 768l76 115h77l-89 -115h-64zM378 -17q-165 0 -235 93t-70 277t70 278.5t235 94.5t235 -94.5t70 -278.5t-70 -277t-235 -93zM378 49q124 0 178 74.5t54 229.5q0 156 -54 231t-178 75t-178 -75t-54 -231q0 -155 54 -229.5t178 -74.5z" />
    <glyph glyph-name="Ocircumflex" unicode="&#xd4;" horiz-adv-x="757" 
d="M525 768h-74l-73 70l-73 -70h-73l108 113h75zM378 -17q-165 0 -235 93t-70 277t70 278.5t235 94.5t235 -94.5t70 -278.5t-70 -277t-235 -93zM378 49q124 0 178 74.5t54 229.5q0 156 -54 231t-178 75t-178 -75t-54 -231q0 -155 54 -229.5t178 -74.5z" />
    <glyph glyph-name="Otilde" unicode="&#xd5;" horiz-adv-x="757" 
d="M522 872q0 -105 -85 -105q-38 0 -63.5 24t-47.5 24q-39 0 -39 -48h-53q0 104 85 104q37 0 62.5 -23.5t47.5 -23.5q40 0 40 48h53zM378 -17q-165 0 -235 93t-70 277t70 278.5t235 94.5t235 -94.5t70 -278.5t-70 -277t-235 -93zM378 49q124 0 178 74.5t54 229.5
q0 156 -54 231t-178 75t-178 -75t-54 -231q0 -155 54 -229.5t178 -74.5z" />
    <glyph glyph-name="Odieresis" unicode="&#xd6;" horiz-adv-x="757" 
d="M261 768v124h69v-124h-69zM425 768v124h69v-124h-69zM378 -17q-165 0 -235 93t-70 277t70 278.5t235 94.5t235 -94.5t70 -278.5t-70 -277t-235 -93zM378 49q124 0 178 74.5t54 229.5q0 156 -54 231t-178 75t-178 -75t-54 -231q0 -155 54 -229.5t178 -74.5z" />
    <glyph glyph-name="multiply" unicode="&#xd7;" horiz-adv-x="530" 
d="M446 168l-44 -43l-137 137l-137 -137l-43 43l137 136l-137 137l42 42l138 -136l136 136l44 -42l-137 -137z" />
    <glyph glyph-name="Oslash" unicode="&#xd8;" horiz-adv-x="757" 
d="M615 629q68 -89 68 -276q0 -184 -70 -277t-235 -93q-118 0 -188 49l-28 -39h-89l64 91q-64 88 -64 269q0 184 70 278.5t235 94.5q115 0 183 -47l28 39h89zM146 353q0 -134 38 -204l336 471q-54 39 -142 39q-124 0 -178 -75t-54 -231zM378 49q124 0 178 74.5t54 229.5
q0 140 -41 212l-337 -474q52 -42 146 -42z" />
    <glyph glyph-name="Ugrave" unicode="&#xd9;" horiz-adv-x="744" 
d="M405 765h-64l-89 116h77zM371 -17q-70 0 -120.5 17.5t-81 47t-48 78.5t-23.5 102.5t-6 128.5v351h72v-346q0 -165 43.5 -238t163.5 -73q121 0 164.5 73t43.5 238v346h72v-351q0 -75 -6 -128t-23.5 -102.5t-48 -79t-81 -47t-121.5 -17.5z" />
    <glyph glyph-name="Uacute" unicode="&#xda;" horiz-adv-x="744" 
d="M339 765l76 115h77l-89 -115h-64zM371 -17q-70 0 -120.5 17.5t-81 47t-48 78.5t-23.5 102.5t-6 128.5v351h72v-346q0 -165 43.5 -238t163.5 -73q121 0 164.5 73t43.5 238v346h72v-351q0 -75 -6 -128t-23.5 -102.5t-48 -79t-81 -47t-121.5 -17.5z" />
    <glyph glyph-name="Ucircumflex" unicode="&#xdb;" horiz-adv-x="744" 
d="M519 765h-74l-73 70l-73 -70h-73l108 113h75zM371 -17q-70 0 -120.5 17.5t-81 47t-48 78.5t-23.5 102.5t-6 128.5v351h72v-346q0 -165 43.5 -238t163.5 -73q121 0 164.5 73t43.5 238v346h72v-351q0 -75 -6 -128t-23.5 -102.5t-48 -79t-81 -47t-121.5 -17.5z" />
    <glyph glyph-name="Udieresis" unicode="&#xdc;" horiz-adv-x="744" 
d="M255 765v124h69v-124h-69zM419 765v124h69v-124h-69zM371 -17q-70 0 -120.5 17.5t-81 47t-48 78.5t-23.5 102.5t-6 128.5v351h72v-346q0 -165 43.5 -238t163.5 -73q121 0 164.5 73t43.5 238v346h72v-351q0 -75 -6 -128t-23.5 -102.5t-48 -79t-81 -47t-121.5 -17.5z" />
    <glyph glyph-name="Yacute" unicode="&#xdd;" horiz-adv-x="658" 
d="M295 765l76 115h77l-89 -115h-64zM541 708h85l-258 -473v-235h-71v235l-265 473h83l218 -407z" />
    <glyph glyph-name="Thorn" unicode="&#xde;" horiz-adv-x="691" 
d="M363 584q144 0 207.5 -48.5t63.5 -179.5q0 -130 -63.5 -178.5t-208.5 -48.5h-183v-129h-73v708h73v-124h184zM367 193q46 0 77.5 5t60.5 21.5t43.5 50.5t14.5 87q0 52 -14.5 86t-43.5 50t-60.5 21.5t-77.5 5.5h-188v-326z" />
    <glyph glyph-name="germandbls" unicode="&#xdf;" horiz-adv-x="627" 
d="M379 396h10.5t25 -3t35 -9t37 -19.5t35.5 -33t25 -52t10 -73.5q0 -114 -69.5 -160t-252.5 -46v60q141 0 196 33t55 118q0 33 -8 58t-25.5 41t-36.5 26.5t-49 15.5t-55.5 7t-62.5 3v66q213 0 213 128q0 71 -33.5 108t-110.5 37q-79 -1 -112 -38t-33 -108v-555h-70v548
q0 102 47 157.5t167 56.5h1q216 0 216 -197q0 -45 -16 -79t-39 -50t-45.5 -26t-38.5 -12z" />
    <glyph glyph-name="agrave" unicode="&#xe0;" horiz-adv-x="633" 
d="M343 636h-59l-89 139h72zM545 1h-64l-10 72q-72 -85 -205 -85q-194 0 -194 165q0 96 59.5 135t175.5 39q92 0 157 -9q-1 50 -6 78t-20.5 50t-44.5 30t-78 8q-19 0 -36 -2t-28.5 -4t-25 -8t-20 -8.5t-18 -11t-14.5 -11t-14.5 -13t-13.5 -12.5l-44 40q63 91 211 91
q37 0 66.5 -4.5t51.5 -10.5t38.5 -20t27.5 -24.5t18.5 -33t11.5 -36t6 -43.5t2 -45.5v-51.5v-16v-124zM278 51q76 0 127 33t59 71v102q-54 8 -140 8q-93 0 -136.5 -24t-43.5 -85q0 -105 134 -105z" />
    <glyph glyph-name="aacute" unicode="&#xe1;" horiz-adv-x="633" 
d="M284 636l76 139h71l-89 -139h-58zM545 1h-64l-10 72q-72 -85 -205 -85q-194 0 -194 165q0 96 59.5 135t175.5 39q92 0 157 -9q-1 50 -6 78t-20.5 50t-44.5 30t-78 8q-19 0 -36 -2t-28.5 -4t-25 -8t-20 -8.5t-18 -11t-14.5 -11t-14.5 -13t-13.5 -12.5l-44 40q63 91 211 91
q37 0 66.5 -4.5t51.5 -10.5t38.5 -20t27.5 -24.5t18.5 -33t11.5 -36t6 -43.5t2 -45.5v-51.5v-16v-124zM278 51q76 0 127 33t59 71v102q-54 8 -140 8q-93 0 -136.5 -24t-43.5 -85q0 -105 134 -105z" />
    <glyph glyph-name="acircumflex" unicode="&#xe2;" horiz-adv-x="633" 
d="M459 635h-70l-75 89l-76 -89h-70l111 138h68zM545 1h-64l-10 72q-72 -85 -205 -85q-194 0 -194 165q0 96 59.5 135t175.5 39q92 0 157 -9q-1 50 -6 78t-20.5 50t-44.5 30t-78 8q-19 0 -36 -2t-28.5 -4t-25 -8t-20 -8.5t-18 -11t-14.5 -11t-14.5 -13t-13.5 -12.5l-44 40
q63 91 211 91q37 0 66.5 -4.5t51.5 -10.5t38.5 -20t27.5 -24.5t18.5 -33t11.5 -36t6 -43.5t2 -45.5v-51.5v-16v-124zM278 51q76 0 127 33t59 71v102q-54 8 -140 8q-93 0 -136.5 -24t-43.5 -85q0 -105 134 -105z" />
    <glyph glyph-name="atilde" unicode="&#xe3;" horiz-adv-x="633" 
d="M458 739q0 -105 -84 -105q-35 0 -64.5 25t-48.5 25q-39 0 -39 -48h-52q0 104 83 104q28 0 47 -12.5t34 -25t33 -12.5q39 0 39 49h52zM545 1h-64l-10 72q-72 -85 -205 -85q-194 0 -194 165q0 96 59.5 135t175.5 39q92 0 157 -9q-1 50 -6 78t-20.5 50t-44.5 30t-78 8
q-19 0 -36 -2t-28.5 -4t-25 -8t-20 -8.5t-18 -11t-14.5 -11t-14.5 -13t-13.5 -12.5l-44 40q63 91 211 91q37 0 66.5 -4.5t51.5 -10.5t38.5 -20t27.5 -24.5t18.5 -33t11.5 -36t6 -43.5t2 -45.5v-51.5v-16v-124zM278 51q76 0 127 33t59 71v102q-54 8 -140 8q-93 0 -136.5 -24
t-43.5 -85q0 -105 134 -105z" />
    <glyph glyph-name="adieresis" unicode="&#xe4;" horiz-adv-x="633" 
d="M201 635v124h66v-124h-66zM360 635v124h67v-124h-67zM545 1h-64l-10 72q-72 -85 -205 -85q-194 0 -194 165q0 96 59.5 135t175.5 39q92 0 157 -9q-1 50 -6 78t-20.5 50t-44.5 30t-78 8q-19 0 -36 -2t-28.5 -4t-25 -8t-20 -8.5t-18 -11t-14.5 -11t-14.5 -13t-13.5 -12.5
l-44 40q63 91 211 91q37 0 66.5 -4.5t51.5 -10.5t38.5 -20t27.5 -24.5t18.5 -33t11.5 -36t6 -43.5t2 -45.5v-51.5v-16v-124zM278 51q76 0 127 33t59 71v102q-54 8 -140 8q-93 0 -136.5 -24t-43.5 -85q0 -105 134 -105z" />
    <glyph glyph-name="aring" unicode="&#xe5;" horiz-adv-x="633" 
d="M314 625q-42 0 -66.5 23.5t-24.5 62.5t24.5 62.5t66.5 23.5q43 0 67.5 -23.5t24.5 -62.5t-24.5 -62.5t-67.5 -23.5zM314 670q18 0 29 11t11 30t-11 29.5t-29 10.5t-28.5 -10.5t-10.5 -29.5t10.5 -30t28.5 -11zM545 1h-64l-10 72q-72 -85 -205 -85q-194 0 -194 165
q0 96 59.5 135t175.5 39q92 0 157 -9q-1 50 -6 78t-20.5 50t-44.5 30t-78 8q-19 0 -36 -2t-28.5 -4t-25 -8t-20 -8.5t-18 -11t-14.5 -11t-14.5 -13t-13.5 -12.5l-44 40q63 91 211 91q37 0 66.5 -4.5t51.5 -10.5t38.5 -20t27.5 -24.5t18.5 -33t11.5 -36t6 -43.5t2 -45.5
v-51.5v-16v-124zM278 51q76 0 127 33t59 71v102q-54 8 -140 8q-93 0 -136.5 -24t-43.5 -85q0 -105 134 -105z" />
    <glyph glyph-name="ae" unicode="&#xe6;" horiz-adv-x="999" 
d="M690 51q68 0 116.5 21.5t69.5 48.5l44 -48q-24 -36 -85 -60.5t-145 -24.5q-151 0 -207 101q-67 -100 -217 -100q-194 0 -194 164q0 95 59 131.5t176 36.5h142q2 23 10 60q-8 56 -40.5 79.5t-103.5 23.5q-19 0 -36 -2t-28.5 -4t-25 -8t-20 -8.5t-18 -11t-14.5 -11
t-14.5 -13t-13.5 -12.5l-44 40q63 91 211 91q145 0 185 -79q60 80 193 80q129 0 185 -69.5t56 -224.5h-412q2 -104 42 -152.5t129 -48.5zM690 485q-81 0 -121 -42t-48 -128h336q-10 90 -50.5 130t-116.5 40zM278 51q77 0 126 34t54 73q-11 47 -11 101q-25 -1 -123 -1
q-95 0 -137.5 -21t-42.5 -81q0 -105 134 -105z" />
    <glyph glyph-name="ccedilla" unicode="&#xe7;" horiz-adv-x="612" 
d="M314 49q123 0 162 91l54 -32q-41 -100 -172 -116l-24 -51q85 -7 85 -77q0 -48 -29.5 -66.5t-97.5 -18.5q-17 0 -32.5 1.5t-23.5 3.5l-7 2v45q18 -6 48 -6q41 0 57.5 9t16.5 36q0 46 -88 46h-6l34 74q-118 6 -168 76t-50 200q0 136 55 208t186 72q88 0 143 -35.5t75 -96.5
l-54 -32q-38 104 -164 104q-91 0 -130 -54.5t-39 -165.5q0 -112 39 -164.5t130 -52.5z" />
    <glyph glyph-name="egrave" unicode="&#xe8;" horiz-adv-x="626" 
d="M347 636h-59l-89 139h72zM317 51q67 0 115.5 21.5t69.5 48.5l44 -48q-24 -36 -84.5 -60.5t-144.5 -24.5q-131 0 -187.5 71t-56.5 207t56.5 208t187.5 72q129 0 185 -70t56 -224h-413q2 -104 42.5 -152.5t129.5 -48.5zM317 485q-82 0 -122 -42t-48 -128h336
q-10 90 -50 130t-116 40z" />
    <glyph glyph-name="eacute" unicode="&#xe9;" horiz-adv-x="626" 
d="M288 636l76 139h71l-89 -139h-58zM317 51q67 0 115.5 21.5t69.5 48.5l44 -48q-24 -36 -84.5 -60.5t-144.5 -24.5q-131 0 -187.5 71t-56.5 207t56.5 208t187.5 72q129 0 185 -70t56 -224h-413q2 -104 42.5 -152.5t129.5 -48.5zM317 485q-82 0 -122 -42t-48 -128h336
q-10 90 -50 130t-116 40z" />
    <glyph glyph-name="ecircumflex" unicode="&#xea;" horiz-adv-x="626" 
d="M463 635h-70l-75 89l-76 -89h-70l111 138h68zM317 51q67 0 115.5 21.5t69.5 48.5l44 -48q-24 -36 -84.5 -60.5t-144.5 -24.5q-131 0 -187.5 71t-56.5 207t56.5 208t187.5 72q129 0 185 -70t56 -224h-413q2 -104 42.5 -152.5t129.5 -48.5zM317 485q-82 0 -122 -42
t-48 -128h336q-10 90 -50 130t-116 40z" />
    <glyph glyph-name="edieresis" unicode="&#xeb;" horiz-adv-x="626" 
d="M205 635v124h66v-124h-66zM364 635v124h67v-124h-67zM317 51q67 0 115.5 21.5t69.5 48.5l44 -48q-24 -36 -84.5 -60.5t-144.5 -24.5q-131 0 -187.5 71t-56.5 207t56.5 208t187.5 72q129 0 185 -70t56 -224h-413q2 -104 42.5 -152.5t129.5 -48.5zM317 485q-82 0 -122 -42
t-48 -128h336q-10 90 -50 130t-116 40z" />
    <glyph glyph-name="igrave" unicode="&#xec;" horiz-adv-x="274" 
d="M166 636h-59l-89 139h72zM102 0v535h70v-535h-70z" />
    <glyph glyph-name="iacute" unicode="&#xed;" horiz-adv-x="274" 
d="M107 636l76 139h71l-89 -139h-58zM122 0v535h70v-535h-70z" />
    <glyph glyph-name="icircumflex" unicode="&#xee;" horiz-adv-x="274" 
d="M282 635h-70l-75 89l-76 -89h-70l111 138h68zM102 0v535h70v-535h-70z" />
    <glyph glyph-name="idieresis" unicode="&#xef;" horiz-adv-x="274" 
d="M24 635v124h66v-124h-66zM183 635v124h67v-124h-67zM102 0v535h70v-535h-70z" />
    <glyph glyph-name="eth" unicode="&#xf0;" horiz-adv-x="637" 
d="M564 264q-1 -138 -55 -207t-190 -69t-191 70t-55 208q0 135 55 205.5t191 70.5q70 0 121 -41q-26 63 -69 127l-98 -48l-34 48l98 48q-19 25 -38.5 46.5t-28.5 31.5l-10 9h83q22 -21 51 -58l88 43l36 -47l-89 -44q133 -192 135 -393zM319 49q95 0 134 52t39 163
q0 51 -9 99q-18 49 -59 86.5t-105 37.5q-96 0 -135 -54t-39 -167q0 -112 39.5 -164.5t134.5 -52.5z" />
    <glyph glyph-name="ntilde" unicode="&#xf1;" horiz-adv-x="647" 
d="M475 739q0 -105 -84 -105q-35 0 -64.5 25t-48.5 25q-39 0 -39 -48h-52q0 104 83 104q28 0 47 -12.5t34 -25t33 -12.5q39 0 39 49h52zM375 543q95 0 139 -53t44 -179v-311h-70v315q0 84 -31 123t-107 39q-112 0 -175 -102v-375h-70v396l-11 139h61l12 -90q25 38 75.5 68
t132.5 30z" />
    <glyph glyph-name="ograve" unicode="&#xf2;" horiz-adv-x="637" 
d="M348 630h-59l-89 139h72zM319 -12q-136 0 -191 70t-55 208t55 209t191 72q135 1 190 -71t55 -210t-55 -208t-190 -70zM319 49q96 0 134.5 52.5t38.5 164.5q0 113 -38.5 166.5t-134.5 53.5t-135 -53.5t-39 -166.5q0 -112 39 -164.5t135 -52.5z" />
    <glyph glyph-name="oacute" unicode="&#xf3;" horiz-adv-x="637" 
d="M289 630l76 139h71l-89 -139h-58zM319 -12q-136 0 -191 70t-55 208t55 209t191 72q135 1 190 -71t55 -210t-55 -208t-190 -70zM319 49q96 0 134.5 52.5t38.5 164.5q0 113 -38.5 166.5t-134.5 53.5t-135 -53.5t-39 -166.5q0 -112 39 -164.5t135 -52.5z" />
    <glyph glyph-name="ocircumflex" unicode="&#xf4;" horiz-adv-x="637" 
d="M464 629h-70l-75 89l-76 -89h-70l111 138h68zM319 -12q-136 0 -191 70t-55 208t55 209t191 72q135 1 190 -71t55 -210t-55 -208t-190 -70zM319 49q96 0 134.5 52.5t38.5 164.5q0 113 -38.5 166.5t-134.5 53.5t-135 -53.5t-39 -166.5q0 -112 39 -164.5t135 -52.5z" />
    <glyph glyph-name="otilde" unicode="&#xf5;" horiz-adv-x="637" 
d="M463 733q0 -105 -84 -105q-35 0 -64.5 25t-48.5 25q-39 0 -39 -48h-52q0 104 83 104q28 0 47 -12.5t34 -25t33 -12.5q39 0 39 49h52zM319 -12q-136 0 -191 70t-55 208t55 209t191 72q135 1 190 -71t55 -210t-55 -208t-190 -70zM319 49q96 0 134.5 52.5t38.5 164.5
q0 113 -38.5 166.5t-134.5 53.5t-135 -53.5t-39 -166.5q0 -112 39 -164.5t135 -52.5z" />
    <glyph glyph-name="odieresis" unicode="&#xf6;" horiz-adv-x="637" 
d="M206 629v124h66v-124h-66zM365 629v124h67v-124h-67zM319 -12q-136 0 -191 70t-55 208t55 209t191 72q135 1 190 -71t55 -210t-55 -208t-190 -70zM319 49q96 0 134.5 52.5t38.5 164.5q0 113 -38.5 166.5t-134.5 53.5t-135 -53.5t-39 -166.5q0 -112 39 -164.5t135 -52.5z
" />
    <glyph glyph-name="divide" unicode="&#xf7;" horiz-adv-x="528" 
d="M231 410v107h66v-107h-66zM58 279v67h412v-67h-412zM231 107v108h66v-108h-66z" />
    <glyph glyph-name="oslash" unicode="&#xf8;" horiz-adv-x="637" 
d="M569 541l-55 -72q50 -66 50 -203q0 -138 -55 -208t-190 -70q-89 0 -143 31l-20 -26h-89l55 73q-49 65 -49 200q0 138 55 209t191 72q88 0 142 -31l19 25h89zM145 266q0 -89 23 -138l253 334q-39 24 -102 24q-96 0 -135 -53.5t-39 -166.5zM492 266q0 92 -24 141l-252 -334
q39 -24 103 -24q96 0 134.5 52.5t38.5 164.5z" />
    <glyph glyph-name="ugrave" unicode="&#xf9;" horiz-adv-x="644" 
d="M350 636h-59l-89 139h72zM556 0h-61l-14 104q-8 -16 -22 -32.5t-38 -36t-63.5 -31.5t-87.5 -12q-95 0 -139.5 53t-44.5 177l1 313h69v-315q0 -82 31.5 -122t107.5 -40q38 0 70.5 12.5t54 33.5t34 38t21.5 35v358h70v-387z" />
    <glyph glyph-name="uacute" unicode="&#xfa;" horiz-adv-x="644" 
d="M291 636l76 139h71l-89 -139h-58zM556 0h-61l-14 104q-8 -16 -22 -32.5t-38 -36t-63.5 -31.5t-87.5 -12q-95 0 -139.5 53t-44.5 177l1 313h69v-315q0 -82 31.5 -122t107.5 -40q38 0 70.5 12.5t54 33.5t34 38t21.5 35v358h70v-387z" />
    <glyph glyph-name="ucircumflex" unicode="&#xfb;" horiz-adv-x="644" 
d="M466 635h-70l-75 89l-76 -89h-70l111 138h68zM556 0h-61l-14 104q-8 -16 -22 -32.5t-38 -36t-63.5 -31.5t-87.5 -12q-95 0 -139.5 53t-44.5 177l1 313h69v-315q0 -82 31.5 -122t107.5 -40q38 0 70.5 12.5t54 33.5t34 38t21.5 35v358h70v-387z" />
    <glyph glyph-name="udieresis" unicode="&#xfc;" horiz-adv-x="644" 
d="M208 635v124h66v-124h-66zM367 635v124h67v-124h-67zM556 0h-61l-14 104q-8 -16 -22 -32.5t-38 -36t-63.5 -31.5t-87.5 -12q-95 0 -139.5 53t-44.5 177l1 313h69v-315q0 -82 31.5 -122t107.5 -40q38 0 70.5 12.5t54 33.5t34 38t21.5 35v358h70v-387z" />
    <glyph glyph-name="yacute" unicode="&#xfd;" horiz-adv-x="560" 
d="M250 636l76 139h71l-89 -139h-58zM457 535h75l-279 -758h-66l79 223h-28l-210 535h77l182 -478z" />
    <glyph glyph-name="thorn" unicode="&#xfe;" horiz-adv-x="652" 
d="M364 545q111 0 163 -74.5t52 -205.5q0 -274 -217 -274q-131 0 -189 78v-312h-70v997h70v-290q69 81 191 81zM349 57q160 0 160 208q0 215 -160 215q-113 0 -176 -91v-238q53 -94 176 -94z" />
    <glyph glyph-name="ydieresis" unicode="&#xff;" horiz-adv-x="560" 
d="M167 635v124h66v-124h-66zM326 635v124h67v-124h-67zM457 535h75l-279 -758h-66l79 223h-28l-210 535h77l182 -478z" />
    <glyph glyph-name="Amacron" unicode="&#x100;" horiz-adv-x="713" 
d="M235 844h244v-57h-244v57zM603 0l-70 181h-354l-70 -181h-78l287 708h77l287 -708h-79zM205 249h302l-151 393z" />
    <glyph glyph-name="amacron" unicode="&#x101;" horiz-adv-x="633" 
d="M192 716h244v-53h-244v53zM545 1h-64l-10 72q-72 -85 -205 -85q-194 0 -194 165q0 96 59.5 135t175.5 39q92 0 157 -9q-1 50 -6 78t-20.5 50t-44.5 30t-78 8q-19 0 -36 -2t-28.5 -4t-25 -8t-20 -8.5t-18 -11t-14.5 -11t-14.5 -13t-13.5 -12.5l-44 40q63 91 211 91
q37 0 66.5 -4.5t51.5 -10.5t38.5 -20t27.5 -24.5t18.5 -33t11.5 -36t6 -43.5t2 -45.5v-51.5v-16v-124zM278 51q76 0 127 33t59 71v102q-54 8 -140 8q-93 0 -136.5 -24t-43.5 -85q0 -105 134 -105z" />
    <glyph glyph-name="Abreve" unicode="&#x102;" horiz-adv-x="713" 
d="M495 866q0 -39 -35 -72t-103 -33t-103 33t-35 72h62q0 -21 22 -38.5t54 -17.5t54.5 17.5t22.5 38.5h61zM603 0l-70 181h-354l-70 -181h-78l287 708h77l287 -708h-79zM205 249h302l-151 393z" />
    <glyph glyph-name="abreve" unicode="&#x103;" horiz-adv-x="633" 
d="M453 749q0 -39 -36 -77t-103 -38t-103 38t-36 77h62q0 -22 22.5 -44.5t54.5 -22.5t55 22.5t23 44.5h61zM545 1h-64l-10 72q-72 -85 -205 -85q-194 0 -194 165q0 96 59.5 135t175.5 39q92 0 157 -9q-1 50 -6 78t-20.5 50t-44.5 30t-78 8q-19 0 -36 -2t-28.5 -4t-25 -8
t-20 -8.5t-18 -11t-14.5 -11t-14.5 -13t-13.5 -12.5l-44 40q63 91 211 91q37 0 66.5 -4.5t51.5 -10.5t38.5 -20t27.5 -24.5t18.5 -33t11.5 -36t6 -43.5t2 -45.5v-51.5v-16v-124zM278 51q76 0 127 33t59 71v102q-54 8 -140 8q-93 0 -136.5 -24t-43.5 -85q0 -105 134 -105z
" />
    <glyph glyph-name="Aogonek" unicode="&#x104;" horiz-adv-x="713" 
d="M576 -97q0 -20 12 -30.5t30 -10.5q10 0 22.5 3t19.5 7l7 3v-46q-25 -18 -76 -18q-43 0 -64.5 21.5t-21.5 55.5q0 24 13 46.5t32.5 38t30.5 23t19 11.5l-67 174h-354l-70 -181h-78l287 708h77l287 -708h-18q-4 -2 -9.5 -5t-21 -13t-27 -21t-21 -27t-9.5 -31zM205 249h302
l-151 393z" />
    <glyph glyph-name="aogonek" unicode="&#x105;" horiz-adv-x="633" 
d="M499 -137q10 0 22.5 3.5t19.5 6.5l7 3v-46q-25 -18 -76 -18q-44 0 -65 21t-21 56q0 30 23 59t39.5 40t31.5 19l-9 66q-72 -85 -205 -85q-194 0 -194 165q0 96 59.5 135t175.5 39q92 0 157 -9q-1 50 -6 78t-20.5 50t-44.5 30t-78 8q-19 0 -36 -2t-28.5 -4t-25 -8t-20 -8.5
t-18 -11t-14.5 -11t-14.5 -13t-13.5 -12.5l-44 40q63 91 211 91q37 0 66.5 -4.5t51.5 -10.5t38.5 -20t27.5 -24.5t18.5 -33t11.5 -36t6 -43.5t2 -45.5v-51.5v-16v-124l11 -135q-4 -2 -9.5 -5t-21 -13t-27 -21t-21 -27t-9.5 -31q0 -20 12 -30.5t30 -10.5zM278 51q76 0 127 33
t59 71v102q-54 8 -140 8q-93 0 -136.5 -24t-43.5 -85q0 -105 134 -105z" />
    <glyph glyph-name="Cacute" unicode="&#x106;" horiz-adv-x="718" 
d="M335 768l76 115h77l-89 -115h-64zM643 194q-24 -211 -269 -211q-162 0 -231.5 93.5t-69.5 276.5q0 184 69.5 278.5t231.5 94.5q249 0 272 -221l-67 -14q-14 87 -63 127.5t-142 40.5q-121 0 -174.5 -75.5t-53.5 -230.5q0 -154 53.5 -229t174.5 -75q90 0 139.5 40t63.5 124
z" />
    <glyph glyph-name="cacute" unicode="&#x107;" horiz-adv-x="612" 
d="M279 636l76 139h71l-89 -139h-58zM530 108q-22 -54 -76.5 -86.5t-139.5 -32.5q-131 0 -186 70.5t-55 206.5t55 208t186 72q88 0 143 -35.5t75 -96.5l-54 -32q-38 104 -164 104q-91 0 -130 -54.5t-39 -165.5q0 -112 39 -164.5t130 -52.5q123 0 162 91z" />
    <glyph glyph-name="Ccircumflex" unicode="&#x108;" horiz-adv-x="718" 
d="M515 768h-74l-73 70l-73 -70h-73l108 113h75zM643 194q-24 -211 -269 -211q-162 0 -231.5 93.5t-69.5 276.5q0 184 69.5 278.5t231.5 94.5q249 0 272 -221l-67 -14q-14 87 -63 127.5t-142 40.5q-121 0 -174.5 -75.5t-53.5 -230.5q0 -154 53.5 -229t174.5 -75
q90 0 139.5 40t63.5 124z" />
    <glyph glyph-name="ccircumflex" unicode="&#x109;" horiz-adv-x="612" 
d="M454 635h-70l-75 89l-76 -89h-70l111 138h68zM530 108q-22 -54 -76.5 -86.5t-139.5 -32.5q-131 0 -186 70.5t-55 206.5t55 208t186 72q88 0 143 -35.5t75 -96.5l-54 -32q-38 104 -164 104q-91 0 -130 -54.5t-39 -165.5q0 -112 39 -164.5t130 -52.5q123 0 162 91z" />
    <glyph glyph-name="Cdotaccent" unicode="&#x10a;" horiz-adv-x="718" 
d="M334 768v124h69v-124h-69zM643 194q-24 -211 -269 -211q-162 0 -231.5 93.5t-69.5 276.5q0 184 69.5 278.5t231.5 94.5q249 0 272 -221l-67 -14q-14 87 -63 127.5t-142 40.5q-121 0 -174.5 -75.5t-53.5 -230.5q0 -154 53.5 -229t174.5 -75q90 0 139.5 40t63.5 124z" />
    <glyph glyph-name="cdotaccent" unicode="&#x10b;" horiz-adv-x="612" 
d="M274 643v116h71v-116h-71zM530 108q-22 -54 -76.5 -86.5t-139.5 -32.5q-131 0 -186 70.5t-55 206.5t55 208t186 72q88 0 143 -35.5t75 -96.5l-54 -32q-38 104 -164 104q-91 0 -130 -54.5t-39 -165.5q0 -112 39 -164.5t130 -52.5q123 0 162 91z" />
    <glyph glyph-name="Ccaron" unicode="&#x10c;" horiz-adv-x="718" 
d="M440 881h75l-110 -113h-75l-108 113h72l73 -70zM643 194q-24 -211 -269 -211q-162 0 -231.5 93.5t-69.5 276.5q0 184 69.5 278.5t231.5 94.5q249 0 272 -221l-67 -14q-14 87 -63 127.5t-142 40.5q-121 0 -174.5 -75.5t-53.5 -230.5q0 -154 53.5 -229t174.5 -75
q90 0 139.5 40t63.5 124z" />
    <glyph glyph-name="ccaron" unicode="&#x10d;" horiz-adv-x="612" 
d="M383 773h71l-112 -138h-68l-110 138h68l76 -87zM530 108q-22 -54 -76.5 -86.5t-139.5 -32.5q-131 0 -186 70.5t-55 206.5t55 208t186 72q88 0 143 -35.5t75 -96.5l-54 -32q-38 104 -164 104q-91 0 -130 -54.5t-39 -165.5q0 -112 39 -164.5t130 -52.5q123 0 162 91z" />
    <glyph glyph-name="Dcaron" unicode="&#x10e;" horiz-adv-x="743" 
d="M420 878h75l-110 -113h-75l-108 113h72l73 -70zM333 711q103 0 170 -21.5t103 -69.5t49.5 -110t13.5 -156t-13.5 -156t-49.5 -110t-103 -69.5t-170 -21.5h-227v714h227zM345 62q141 -1 195.5 65.5t54.5 226.5t-54 225.5t-196 65.5l-167 1v-583z" />
    <glyph glyph-name="dcaron" unicode="&#x10f;" horiz-adv-x="648" 
d="M577 616l50 147h63l-68 -147h-45zM560 0h-62l-11 80q-53 -89 -196 -89q-112 0 -165 72t-53 202q0 131 52.5 205.5t163.5 74.5q121 0 190 -81v290h70v-614zM303 57q124 0 176 92v241q-64 90 -175 90q-160 0 -160 -215q0 -208 159 -208z" />
    <glyph glyph-name="Dcroat" unicode="&#x110;" horiz-adv-x="743" 
d="M333 711q103 0 170 -21.5t103 -69.5t49.5 -110t13.5 -156t-13.5 -156t-49.5 -110t-103 -69.5t-170 -21.5h-227v330h-77v55h77v329h227zM345 62q141 -1 195.5 65.5t54.5 226.5t-54 225.5t-196 65.5l-167 1v-264h132v-55h-132v-264z" />
    <glyph glyph-name="dcroat" unicode="&#x111;" horiz-adv-x="648" 
d="M619 588h-70v-448l11 -140h-62l-11 80q-53 -89 -196 -89q-112 0 -165 72t-53 202q0 131 52.5 205.5t163.5 74.5q121 0 190 -81v124h-141v55h141v111h70v-111h70v-55zM303 57q124 0 176 92v241q-64 90 -175 90q-160 0 -160 -215q0 -208 159 -208z" />
    <glyph glyph-name="Emacron" unicode="&#x112;" horiz-adv-x="624" 
d="M214 844h244v-57h-244v57zM177 67h398v-67h-469v708h464v-67h-393v-240h341v-65h-341v-269z" />
    <glyph glyph-name="emacron" unicode="&#x113;" horiz-adv-x="626" 
d="M196 716h244v-53h-244v53zM317 51q67 0 115.5 21.5t69.5 48.5l44 -48q-24 -36 -84.5 -60.5t-144.5 -24.5q-131 0 -187.5 71t-56.5 207t56.5 208t187.5 72q129 0 185 -70t56 -224h-413q2 -104 42.5 -152.5t129.5 -48.5zM317 485q-82 0 -122 -42t-48 -128h336
q-10 90 -50 130t-116 40z" />
    <glyph glyph-name="Ebreve" unicode="&#x114;" horiz-adv-x="624" 
d="M474 866q0 -39 -35 -72t-103 -33t-103 33t-35 72h62q0 -21 22 -38.5t54 -17.5t54.5 17.5t22.5 38.5h61zM177 67h398v-67h-469v708h464v-67h-393v-240h341v-65h-341v-269z" />
    <glyph glyph-name="ebreve" unicode="&#x115;" horiz-adv-x="626" 
d="M457 749q0 -39 -36 -77t-103 -38t-103 38t-36 77h62q0 -22 22.5 -44.5t54.5 -22.5t55 22.5t23 44.5h61zM317 51q67 0 115.5 21.5t69.5 48.5l44 -48q-24 -36 -84.5 -60.5t-144.5 -24.5q-131 0 -187.5 71t-56.5 207t56.5 208t187.5 72q129 0 185 -70t56 -224h-413
q2 -104 42.5 -152.5t129.5 -48.5zM317 485q-82 0 -122 -42t-48 -128h336q-10 90 -50 130t-116 40z" />
    <glyph glyph-name="Edotaccent" unicode="&#x116;" horiz-adv-x="624" 
d="M302 765v124h69v-124h-69zM177 67h398v-67h-469v708h464v-67h-393v-240h341v-65h-341v-269z" />
    <glyph glyph-name="edotaccent" unicode="&#x117;" horiz-adv-x="626" 
d="M283 643v116h71v-116h-71zM317 51q67 0 115.5 21.5t69.5 48.5l44 -48q-24 -36 -84.5 -60.5t-144.5 -24.5q-131 0 -187.5 71t-56.5 207t56.5 208t187.5 72q129 0 185 -70t56 -224h-413q2 -104 42.5 -152.5t129.5 -48.5zM317 485q-82 0 -122 -42t-48 -128h336
q-10 90 -50 130t-116 40z" />
    <glyph glyph-name="Eogonek" unicode="&#x118;" horiz-adv-x="624" 
d="M529 -138q10 0 22.5 3t19.5 7l7 3v-46q-25 -18 -76 -18q-44 0 -65 21.5t-21 55.5q0 61 83 112h-393v708h464v-67h-393v-240h341v-65h-341v-269h398v-67q-4 -2 -9.5 -5t-21 -13t-27 -21t-21 -27t-9.5 -31q0 -20 12 -30.5t30 -10.5z" />
    <glyph glyph-name="eogonek" unicode="&#x119;" horiz-adv-x="626" 
d="M317 51q67 0 115.5 21.5t69.5 48.5l44 -48q-30 -43 -105 -68q-57 -37 -57 -78q0 -20 12 -30.5t30 -10.5q10 0 22.5 3t19.5 7l7 3v-46q-25 -18 -76 -18q-43 0 -64.5 21.5t-21.5 55.5q0 39 38 77q-11 -1 -34 -1q-131 0 -187.5 71t-56.5 207t56.5 208t187.5 72
q129 0 185 -70t56 -224h-413q2 -104 42.5 -152.5t129.5 -48.5zM317 485q-82 0 -122 -42t-48 -128h336q-10 90 -50 130t-116 40z" />
    <glyph glyph-name="Ecaron" unicode="&#x11a;" horiz-adv-x="624" 
d="M408 878h75l-110 -113h-75l-108 113h72l73 -70zM177 67h398v-67h-469v708h464v-67h-393v-240h341v-65h-341v-269z" />
    <glyph glyph-name="ecaron" unicode="&#x11b;" horiz-adv-x="626" 
d="M392 773h71l-112 -138h-68l-110 138h68l76 -87zM317 51q67 0 115.5 21.5t69.5 48.5l44 -48q-24 -36 -84.5 -60.5t-144.5 -24.5q-131 0 -187.5 71t-56.5 207t56.5 208t187.5 72q129 0 185 -70t56 -224h-413q2 -104 42.5 -152.5t129.5 -48.5zM317 485q-82 0 -122 -42
t-48 -128h336q-10 90 -50 130t-116 40z" />
    <glyph glyph-name="Gcircumflex" unicode="&#x11c;" horiz-adv-x="722" 
d="M516 768h-74l-73 70l-73 -70h-73l108 113h75zM638 344v-263q0 -4 -9.5 -14t-31 -24.5t-51 -28t-76 -22.5t-98.5 -9q-161 -1 -230 92.5t-69 277.5t69 278.5t230 94.5q251 0 274 -221l-67 -14q-14 87 -63 127.5t-144 40.5q-120 0 -173 -75.5t-53 -230.5q0 -156 53.5 -231
t174.5 -75q58 0 106 14.5t70 30.5t22 25v161h-161v66h227z" />
    <glyph glyph-name="gcircumflex" unicode="&#x11d;" horiz-adv-x="646" 
d="M464 635h-70l-75 89l-76 -89h-70l111 138h68zM497 535h61l-10 -135v-401q0 -30 -1 -49.5t-6 -47.5t-14 -46.5t-26 -39t-42 -32.5t-62 -20t-85 -8q-99 0 -152.5 40t-68.5 92l58 29q37 -101 163 -101q57 0 92.5 14t50.5 44t19 56.5t4 71.5v65q-56 -76 -187 -76
q-112 0 -165 72t-53 202q0 131 52.5 205.5t163.5 74.5q127 0 197 -89zM303 57q121 0 175 90v244q-64 89 -174 89q-160 0 -160 -215q0 -208 159 -208z" />
    <glyph glyph-name="Gbreve" unicode="&#x11e;" horiz-adv-x="722" 
d="M507 869q0 -39 -35 -72t-103 -33t-103 33t-35 72h62q0 -21 22 -38.5t54 -17.5t54.5 17.5t22.5 38.5h61zM638 344v-263q0 -4 -9.5 -14t-31 -24.5t-51 -28t-76 -22.5t-98.5 -9q-161 -1 -230 92.5t-69 277.5t69 278.5t230 94.5q251 0 274 -221l-67 -14q-14 87 -63 127.5
t-144 40.5q-120 0 -173 -75.5t-53 -230.5q0 -156 53.5 -231t174.5 -75q58 0 106 14.5t70 30.5t22 25v161h-161v66h227z" />
    <glyph glyph-name="gbreve" unicode="&#x11f;" horiz-adv-x="646" 
d="M458 749q0 -39 -36 -77t-103 -38t-103 38t-36 77h62q0 -22 22.5 -44.5t54.5 -22.5t55 22.5t23 44.5h61zM497 535h61l-10 -135v-401q0 -30 -1 -49.5t-6 -47.5t-14 -46.5t-26 -39t-42 -32.5t-62 -20t-85 -8q-99 0 -152.5 40t-68.5 92l58 29q37 -101 163 -101q57 0 92.5 14
t50.5 44t19 56.5t4 71.5v65q-56 -76 -187 -76q-112 0 -165 72t-53 202q0 131 52.5 205.5t163.5 74.5q127 0 197 -89zM303 57q121 0 175 90v244q-64 89 -174 89q-160 0 -160 -215q0 -208 159 -208z" />
    <glyph glyph-name="Gdotaccent" unicode="&#x120;" horiz-adv-x="722" 
d="M335 768v124h69v-124h-69zM638 344v-263q0 -4 -9.5 -14t-31 -24.5t-51 -28t-76 -22.5t-98.5 -9q-161 -1 -230 92.5t-69 277.5t69 278.5t230 94.5q251 0 274 -221l-67 -14q-14 87 -63 127.5t-144 40.5q-120 0 -173 -75.5t-53 -230.5q0 -156 53.5 -231t174.5 -75
q58 0 106 14.5t70 30.5t22 25v161h-161v66h227z" />
    <glyph glyph-name="gdotaccent" unicode="&#x121;" horiz-adv-x="646" 
d="M284 643v116h71v-116h-71zM497 535h61l-10 -135v-401q0 -30 -1 -49.5t-6 -47.5t-14 -46.5t-26 -39t-42 -32.5t-62 -20t-85 -8q-99 0 -152.5 40t-68.5 92l58 29q37 -101 163 -101q57 0 92.5 14t50.5 44t19 56.5t4 71.5v65q-56 -76 -187 -76q-112 0 -165 72t-53 202
q0 131 52.5 205.5t163.5 74.5q127 0 197 -89zM303 57q121 0 175 90v244q-64 89 -174 89q-160 0 -160 -215q0 -208 159 -208z" />
    <glyph glyph-name="Gcommaaccent" unicode="&#x122;" horiz-adv-x="722" 
d="M638 344v-263q0 -4 -9.5 -14t-31 -24.5t-51 -28t-76 -22.5t-98.5 -9q-161 -1 -230 92.5t-69 277.5t69 278.5t230 94.5q251 0 274 -221l-67 -14q-14 87 -63 127.5t-144 40.5q-120 0 -173 -75.5t-53 -230.5q0 -156 53.5 -231t174.5 -75q58 0 106 14.5t70 30.5t22 25v161
h-161v66h227zM318 -243q17 39 30 94q6 22 9.5 45t4.5 35v12h64q-4 -48 -19 -96q-8 -25 -17.5 -47.5t-15.5 -32.5l-6 -10h-50z" />
    <glyph glyph-name="gcommaaccent" unicode="&#x123;" horiz-adv-x="646" 
d="M388 789q-21 -44 -37 -112q-7 -29 -10.5 -54.5t-3.5 -36.5v-11h-64q0 43 18 107q9 31 20.5 57.5t18.5 38.5l8 11h50zM497 535h61l-10 -135v-401q0 -30 -1 -49.5t-6 -47.5t-14 -46.5t-26 -39t-42 -32.5t-62 -20t-85 -8q-99 0 -152.5 40t-68.5 92l58 29q37 -101 163 -101
q57 0 92.5 14t50.5 44t19 56.5t4 71.5v65q-56 -76 -187 -76q-112 0 -165 72t-53 202q0 131 52.5 205.5t163.5 74.5q127 0 197 -89zM303 57q121 0 175 90v244q-64 89 -174 89q-160 0 -160 -215q0 -208 159 -208z" />
    <glyph glyph-name="Hcircumflex" unicode="&#x124;" horiz-adv-x="753" 
d="M523 765h-74l-73 70l-73 -70h-73l108 113h75zM576 708h71v-708h-71v336h-399v-336h-71v708h71v-305h399v305z" />
    <glyph glyph-name="hcircumflex" unicode="&#x125;" horiz-adv-x="646" 
d="M286 786h-74l-73 70l-73 -70h-73l108 113h75zM374 543q95 0 139 -53t44 -177v-313h-70v316q0 83 -31 122t-107 39q-111 0 -176 -102v-375h-70v754h70v-299q66 88 201 88z" />
    <glyph glyph-name="Hbar" unicode="&#x126;" horiz-adv-x="753" 
d="M706 583v-62h-59v-521h-71v336h-399v-336h-71v521h-60v62h60v125h71v-125h399v125h71v-125h59zM576 403v118h-399v-118h399z" />
    <glyph glyph-name="hbar" unicode="&#x127;" horiz-adv-x="646" 
d="M374 543q95 0 139 -53t44 -177v-313h-70v316q0 83 -31 122t-107 39q-111 0 -176 -102v-375h-70v590h-78v55h78v109h70v-109h133v-55h-133v-135q66 88 201 88z" />
    <glyph glyph-name="Itilde" unicode="&#x128;" horiz-adv-x="283" 
d="M286 869q0 -105 -85 -105q-38 0 -63.5 24t-47.5 24q-39 0 -39 -48h-53q0 104 85 104q37 0 62.5 -23.5t47.5 -23.5q40 0 40 48h53zM106 0v708h71v-708h-71z" />
    <glyph glyph-name="itilde" unicode="&#x129;" horiz-adv-x="274" 
d="M281 739q0 -105 -84 -105q-35 0 -64.5 25t-48.5 25q-39 0 -39 -48h-52q0 104 83 104q28 0 47 -12.5t34 -25t33 -12.5q39 0 39 49h52zM102 0v535h70v-535h-70z" />
    <glyph glyph-name="Imacron" unicode="&#x12a;" horiz-adv-x="283" 
d="M20 844h244v-57h-244v57zM106 0v708h71v-708h-71z" />
    <glyph glyph-name="imacron" unicode="&#x12b;" horiz-adv-x="274" 
d="M15 716h244v-53h-244v53zM102 0v535h70v-535h-70z" />
    <glyph glyph-name="Ibreve" unicode="&#x12c;" horiz-adv-x="283" 
d="M280 866q0 -39 -35 -72t-103 -33t-103 33t-35 72h62q0 -21 22 -38.5t54 -17.5t54.5 17.5t22.5 38.5h61zM106 0v708h71v-708h-71z" />
    <glyph glyph-name="ibreve" unicode="&#x12d;" horiz-adv-x="274" 
d="M276 749q0 -39 -36 -77t-103 -38t-103 38t-36 77h62q0 -22 22.5 -44.5t54.5 -22.5t55 22.5t23 44.5h61zM102 0v535h70v-535h-70z" />
    <glyph glyph-name="Iogonek" unicode="&#x12e;" horiz-adv-x="283" 
d="M129 -137q10 0 22.5 3.5t19.5 6.5l7 3v-46q-25 -18 -76 -18q-44 0 -65 21t-21 56q0 65 90 116v703h71v-708h-4q-86 -46 -86 -96q0 -20 12 -30.5t30 -10.5z" />
    <glyph glyph-name="iogonek" unicode="&#x12f;" horiz-adv-x="274" 
d="M102 759h71v-116h-71v116zM102 7v528h70v-535h-7q-86 -46 -86 -96q0 -20 12 -30.5t30 -10.5q10 0 22.5 3.5t19.5 6.5l7 3v-46q-25 -18 -76 -18q-44 0 -65 21t-21 56q0 23 12 44.5t30.5 37t30.5 23.5t21 13z" />
    <glyph glyph-name="Idotaccent" unicode="&#x130;" horiz-adv-x="283" 
d="M108 765v124h69v-124h-69zM106 0v708h71v-708h-71z" />
    <glyph glyph-name="dotlessi" unicode="&#x131;" horiz-adv-x="274" 
d="M102 0v535h70v-535h-70z" />
    <glyph glyph-name="IJ" unicode="&#x132;" horiz-adv-x="694" 
d="M106 0v708h71v-708h-71zM357 0h-53v71h53q106 0 138.5 42t32.5 158l1 437h72v-437q0 -81 -7.5 -127t-33.5 -81.5t-74 -49t-129 -13.5z" />
    <glyph glyph-name="ij" unicode="&#x133;" horiz-adv-x="562" 
d="M102 643v116h71v-116h-71zM390 643v116h71v-116h-71zM102 0v535h70v-535h-70zM267 -183v68q26 0 45.5 3.5t33 8t22 16.5t13 21t6.5 30t2.5 35t0.5 45v491h70v-491q0 -38 -1 -59t-4.5 -49.5t-11 -43t-21 -31.5t-34.5 -25t-51 -13.5t-70 -5.5z" />
    <glyph glyph-name="Jcircumflex" unicode="&#x134;" horiz-adv-x="411" 
d="M429 765h-74l-73 70l-73 -70h-73l108 113h75zM74 0h-53v71h53q106 0 138.5 42t32.5 158l1 437h72v-437q0 -81 -7.5 -127t-33.5 -81.5t-74 -49t-129 -13.5z" />
    <glyph glyph-name="jcircumflex" unicode="&#x135;" horiz-adv-x="283" 
d="M291 635h-70l-75 89l-76 -89h-70l111 138h68zM-12 -183v68q26 0 45.5 3.5t33 8t22 16.5t13 21t6.5 30t2.5 35t0.5 45v491h70v-491q0 -38 -1 -59t-4.5 -49.5t-11 -43t-21 -31.5t-34.5 -25t-51 -13.5t-70 -5.5z" />
    <glyph glyph-name="Kcommaaccent" unicode="&#x136;" horiz-adv-x="683" 
d="M568 0l-227 359l-164 -186v-173h-71v708h71v-435l379 435h93l-259 -294l261 -414h-83zM270 -224q17 39 30 94q6 22 9.5 45t4.5 35v12h64q-4 -48 -19 -96q-8 -25 -17.5 -47.5t-15.5 -32.5l-6 -10h-50z" />
    <glyph glyph-name="kcommaaccent" unicode="&#x137;" horiz-adv-x="558" 
d="M456 0l-171 283l-114 -130v-153h-68v754h68v-509l252 290h85l-177 -200l205 -335h-80zM235 -224q17 39 30 94q6 22 9.5 45t3.5 35l1 12h64q-4 -48 -19 -96q-8 -25 -18 -47.5t-16 -32.5l-5 -10h-50z" />
    <glyph glyph-name="kgreenlandic" unicode="&#x138;" horiz-adv-x="558" 
d="M456 0l-171 283l-114 -130v-153h-68v535h68v-290l252 290h85l-177 -200l205 -335h-80z" />
    <glyph glyph-name="Lacute" unicode="&#x139;" horiz-adv-x="557" 
d="M118 765l76 115h77l-89 -115h-64zM177 68h346v-68h-417v708h71v-640z" />
    <glyph glyph-name="lacute" unicode="&#x13a;" horiz-adv-x="309" 
d="M106 818l76 115h77l-89 -115h-64zM272 -2h-46q-123 0 -123 157v600h70v-597q0 -36 13 -65t44 -29h42v-66z" />
    <glyph glyph-name="Lcommaaccent" unicode="&#x13b;" horiz-adv-x="557" 
d="M177 68h346v-68h-417v708h71v-640zM239 -224q17 39 30 94q6 22 9.5 45t3.5 35l1 12h64q-4 -48 -19 -96q-8 -25 -17.5 -47.5t-15.5 -32.5l-6 -10h-50z" />
    <glyph glyph-name="lcommaaccent" unicode="&#x13c;" horiz-adv-x="309" 
d="M272 -2h-46q-123 0 -123 157v600h70v-597q0 -36 13 -65t44 -29h42v-66zM65 -224q17 39 30 94q6 22 9.5 45t3.5 35l1 12h64q-4 -48 -19 -96q-8 -25 -18 -47.5t-16 -32.5l-5 -10h-50z" />
    <glyph glyph-name="Lcaron" unicode="&#x13d;" horiz-adv-x="557" 
d="M283 631l53 136h66l-66 -136h-53zM177 68h346v-68h-417v708h71v-640z" />
    <glyph glyph-name="lcaron" unicode="&#x13e;" horiz-adv-x="309" 
d="M217 616l50 147h63l-68 -147h-45zM272 -2h-46q-123 0 -123 157v600h70v-597q0 -36 13 -65t44 -29h42v-66z" />
    <glyph glyph-name="Ldot" unicode="&#x13f;" horiz-adv-x="557" 
d="M179 68h343v-68h-416v708h73v-640zM384 424v-123h-70v123h70z" />
    <glyph glyph-name="ldot" unicode="&#x140;" horiz-adv-x="296" 
d="M272 -2h-46q-123 0 -123 157v600h70v-597q0 -36 13 -65t44 -29h42v-66zM226 318v124h71v-124h-71z" />
    <glyph glyph-name="Lslash" unicode="&#x141;" horiz-adv-x="557" 
d="M177 68h346v-68h-417v312l-81 -47l-24 47l105 61v335h71v-294l84 49l24 -47l-108 -63v-285z" />
    <glyph glyph-name="lslash" unicode="&#x142;" horiz-adv-x="309" 
d="M173 158q0 -36 13 -65t44 -29h42v-66h-46q-123 0 -123 157v171l-76 -44l-24 47l100 58v368h70v-327l90 52l24 -47l-114 -66v-209z" />
    <glyph glyph-name="Nacute" unicode="&#x143;" horiz-adv-x="779" 
d="M359 765l76 115h77l-89 -115h-64zM604 708h69v-708h-75l-425 615v-615h-67l4 708h74l424 -610z" />
    <glyph glyph-name="nacute" unicode="&#x144;" horiz-adv-x="647" 
d="M301 636l76 139h71l-89 -139h-58zM375 543q95 0 139 -53t44 -179v-311h-70v315q0 84 -31 123t-107 39q-112 0 -175 -102v-375h-70v396l-11 139h61l12 -90q25 38 75.5 68t132.5 30z" />
    <glyph glyph-name="Ncommaaccent" unicode="&#x145;" horiz-adv-x="779" 
d="M604 708h69v-708h-75l-425 615v-615h-67l4 708h74l424 -610zM332 -224q17 39 30 94q6 22 9.5 45t4.5 35v12h64q-4 -48 -19 -96q-8 -25 -17.5 -47.5t-15.5 -32.5l-6 -10h-50z" />
    <glyph glyph-name="ncommaaccent" unicode="&#x146;" horiz-adv-x="647" 
d="M375 543q95 0 139 -53t44 -179v-311h-70v315q0 84 -31 123t-107 39q-112 0 -175 -102v-375h-70v396l-11 139h61l12 -90q25 38 75.5 68t132.5 30zM264 -224q17 39 30 94q6 22 9.5 45t4.5 35v12h64q-4 -48 -19 -96q-8 -25 -17.5 -47.5t-15.5 -32.5l-6 -10h-50z" />
    <glyph glyph-name="Ncaron" unicode="&#x147;" horiz-adv-x="779" 
d="M464 878h75l-110 -113h-75l-108 113h72l73 -70zM604 708h69v-708h-75l-425 615v-615h-67l4 708h74l424 -610z" />
    <glyph glyph-name="ncaron" unicode="&#x148;" horiz-adv-x="647" 
d="M405 773h71l-112 -138h-68l-110 138h68l76 -87zM375 543q95 0 139 -53t44 -179v-311h-70v315q0 84 -31 123t-107 39q-112 0 -175 -102v-375h-70v396l-11 139h61l12 -90q25 38 75.5 68t132.5 30z" />
    <glyph glyph-name="Eng" unicode="&#x14a;" horiz-adv-x="779" 
d="M605 708h68v-708q0 -114 -40 -167.5t-156 -53.5h-51v57h51q75 0 104 37.5t29 126.5l-437 612v-612h-67l4 708h73l426 -599z" />
    <glyph glyph-name="eng" unicode="&#x14b;" horiz-adv-x="647" 
d="M558 311v-254q0 -39 -1 -60t-4.5 -49.5t-11 -43t-21 -31.5t-34.5 -24.5t-51 -13t-70 -5.5v67q31 0 52 3t34.5 13.5t21 19.5t11 32t4 39t0.5 52v259q0 84 -31 123t-107 39q-112 0 -176 -104v-373h-70v396l-10 139h61l12 -91q24 38 75 68.5t133 30.5q95 0 139 -53t44 -179z
" />
    <glyph glyph-name="Omacron" unicode="&#x14c;" horiz-adv-x="757" 
d="M256 847h244v-57h-244v57zM378 -17q-165 0 -235 93t-70 277t70 278.5t235 94.5t235 -94.5t70 -278.5t-70 -277t-235 -93zM378 49q124 0 178 74.5t54 229.5q0 156 -54 231t-178 75t-178 -75t-54 -231q0 -155 54 -229.5t178 -74.5z" />
    <glyph glyph-name="omacron" unicode="&#x14d;" horiz-adv-x="637" 
d="M197 710h244v-53h-244v53zM319 -12q-136 0 -191 70t-55 208t55 209t191 72q135 1 190 -71t55 -210t-55 -208t-190 -70zM319 49q96 0 134.5 52.5t38.5 164.5q0 113 -38.5 166.5t-134.5 53.5t-135 -53.5t-39 -166.5q0 -112 39 -164.5t135 -52.5z" />
    <glyph glyph-name="Obreve" unicode="&#x14e;" horiz-adv-x="757" 
d="M516 869q0 -39 -35 -72t-103 -33t-103 33t-35 72h62q0 -21 22 -38.5t54 -17.5t54.5 17.5t22.5 38.5h61zM378 -17q-165 0 -235 93t-70 277t70 278.5t235 94.5t235 -94.5t70 -278.5t-70 -277t-235 -93zM378 49q124 0 178 74.5t54 229.5q0 156 -54 231t-178 75t-178 -75
t-54 -231q0 -155 54 -229.5t178 -74.5z" />
    <glyph glyph-name="obreve" unicode="&#x14f;" horiz-adv-x="637" 
d="M458 743q0 -39 -36 -77t-103 -38t-103 38t-36 77h62q0 -22 22.5 -44.5t54.5 -22.5t55 22.5t23 44.5h61zM319 -12q-136 0 -191 70t-55 208t55 209t191 72q135 1 190 -71t55 -210t-55 -208t-190 -70zM319 49q96 0 134.5 52.5t38.5 164.5q0 113 -38.5 166.5t-134.5 53.5
t-135 -53.5t-39 -166.5q0 -112 39 -164.5t135 -52.5z" />
    <glyph glyph-name="Ohungarumlaut" unicode="&#x150;" horiz-adv-x="757" 
d="M261 768l69 116h77l-82 -116h-64zM402 768l83 116h77l-96 -116h-64zM378 -17q-165 0 -235 93t-70 277t70 278.5t235 94.5t235 -94.5t70 -278.5t-70 -277t-235 -93zM378 49q124 0 178 74.5t54 229.5q0 156 -54 231t-178 75t-178 -75t-54 -231q0 -155 54 -229.5t178 -74.5z
" />
    <glyph glyph-name="ohungarumlaut" unicode="&#x151;" horiz-adv-x="637" 
d="M200 630l69 139h76l-82 -139h-63zM342 630l82 139h76l-95 -139h-63zM319 -12q-136 0 -191 70t-55 208t55 209t191 72q135 1 190 -71t55 -210t-55 -208t-190 -70zM319 49q96 0 134.5 52.5t38.5 164.5q0 113 -38.5 166.5t-134.5 53.5t-135 -53.5t-39 -166.5
q0 -112 39 -164.5t135 -52.5z" />
    <glyph glyph-name="OE" unicode="&#x152;" horiz-adv-x="1038" 
d="M591 67h398v-67h-611q-166 0 -235.5 88.5t-69.5 264.5q0 177 69.5 266t235.5 89h606v-67h-393v-240h341v-65h-341v-269zM378 62h141v585h-141q-124 0 -177.5 -73t-53.5 -221q0 -147 53.5 -219t177.5 -72z" />
    <glyph glyph-name="oe" unicode="&#x153;" horiz-adv-x="1045" 
d="M736 51q67 0 115.5 21.5t69.5 48.5l44 -48q-24 -36 -84.5 -60.5t-144.5 -24.5q-161 0 -207 120q-22 -60 -72 -90t-138 -30q-136 0 -191 70t-55 208t55 209t191 72q166 1 210 -122q46 121 207 121q129 0 185 -70t56 -224h-413q2 -104 42.5 -152.5t129.5 -48.5zM319 49
q96 0 134.5 52t38.5 165t-38.5 166.5t-134.5 53.5t-135 -53.5t-39 -166.5t39 -165t135 -52zM736 485q-82 0 -122 -42t-48 -128h336q-10 90 -50 130t-116 40z" />
    <glyph glyph-name="Racute" unicode="&#x154;" horiz-adv-x="720" 
d="M319 765l76 115h77l-89 -115h-64zM656 0h-78l-158 281q-40 -2 -64 -2h-179v-279h-71v711h251q156 0 222 -45t66 -171q0 -96 -37.5 -143.5t-119.5 -62.5zM351 345q46 0 75.5 2.5t60 11t47.5 24.5t27.5 44t10.5 68q0 50 -14.5 81t-46.5 46t-67 19.5t-93 4.5h-174v-300z" />
    <glyph glyph-name="racute" unicode="&#x155;" horiz-adv-x="410" 
d="M189 636l76 139h71l-89 -139h-58zM168 432q8 18 20.5 34t35.5 36t61 32t85 12v-67q-42 0 -76 -12.5t-54 -29t-35 -38.5t-21 -37t-9 -29v-333h-70v384l-11 151h62z" />
    <glyph glyph-name="Rcommaaccent" unicode="&#x156;" horiz-adv-x="720" 
d="M656 0h-78l-158 281q-40 -2 -64 -2h-179v-279h-71v711h251q156 0 222 -45t66 -171q0 -96 -37.5 -143.5t-119.5 -62.5zM351 345q46 0 75.5 2.5t60 11t47.5 24.5t27.5 44t10.5 68q0 50 -14.5 81t-46.5 46t-67 19.5t-93 4.5h-174v-300zM288 -224q17 39 30 94q6 22 9.5 45
t4.5 35v12h64q-4 -48 -19 -96q-8 -25 -17.5 -47.5t-15.5 -32.5l-6 -10h-50z" />
    <glyph glyph-name="rcommaaccent" unicode="&#x157;" horiz-adv-x="410" 
d="M168 432q8 18 20.5 34t35.5 36t61 32t85 12v-67q-42 0 -76 -12.5t-54 -29t-35 -38.5t-21 -37t-9 -29v-333h-70v384l-11 151h62zM63 -224q17 39 30 94q6 22 9.5 45t3.5 35l1 12h64q-4 -48 -19 -96q-8 -25 -17.5 -47.5t-15.5 -32.5l-6 -10h-50z" />
    <glyph glyph-name="Rcaron" unicode="&#x158;" horiz-adv-x="720" 
d="M424 878h75l-110 -113h-75l-108 113h72l73 -70zM656 0h-78l-158 281q-40 -2 -64 -2h-179v-279h-71v711h251q156 0 222 -45t66 -171q0 -96 -37.5 -143.5t-119.5 -62.5zM351 345q46 0 75.5 2.5t60 11t47.5 24.5t27.5 44t10.5 68q0 50 -14.5 81t-46.5 46t-67 19.5t-93 4.5
h-174v-300z" />
    <glyph glyph-name="rcaron" unicode="&#x159;" horiz-adv-x="410" 
d="M293 773h71l-112 -138h-68l-110 138h68l76 -87zM168 432q8 18 20.5 34t35.5 36t61 32t85 12v-67q-42 0 -76 -12.5t-54 -29t-35 -38.5t-21 -37t-9 -29v-333h-70v384l-11 151h62z" />
    <glyph glyph-name="Sacute" unicode="&#x15a;" horiz-adv-x="683" 
d="M307 768l76 115h77l-89 -115h-64zM138 197q20 -147 208 -150q199 -1 199 132q0 43 -26 71.5t-67 43t-91 26t-100 25t-91 33.5t-66.5 59t-25.5 95q0 92 65.5 143.5t195.5 50.5q126 -1 186.5 -45t70.5 -124l-66 -17q-5 25 -14.5 44t-29.5 37.5t-57 28.5t-90 10
q-102 1 -146 -34t-44 -92q0 -42 26 -70t67 -43t91 -26.5t100 -25t91 -34t67 -59.5t26 -95q0 -100 -71 -150t-203 -48q-252 2 -271 200z" />
    <glyph glyph-name="sacute" unicode="&#x15b;" horiz-adv-x="576" 
d="M259 636l76 139h71l-89 -139h-58zM123 151q21 -96 163 -99q157 -3 159 94q0 35 -27 56.5t-68.5 29t-90 18t-90 22.5t-70 44t-28.5 81q-1 71 55 111t164 39q174 -3 205 -118l-57 -29q-13 41 -46 62.5t-100 22.5q-82 1 -116 -25t-34 -67q0 -28 20.5 -45.5t53.5 -26.5
t73 -15.5t80 -16.5t73 -25.5t53.5 -46.5t20.5 -75q0 -155 -229 -154q-94 2 -151.5 37.5t-71.5 101.5z" />
    <glyph glyph-name="Scircumflex" unicode="&#x15c;" horiz-adv-x="683" 
d="M487 768h-74l-73 70l-73 -70h-73l108 113h75zM138 197q20 -147 208 -150q199 -1 199 132q0 43 -26 71.5t-67 43t-91 26t-100 25t-91 33.5t-66.5 59t-25.5 95q0 92 65.5 143.5t195.5 50.5q126 -1 186.5 -45t70.5 -124l-66 -17q-5 25 -14.5 44t-29.5 37.5t-57 28.5t-90 10
q-102 1 -146 -34t-44 -92q0 -42 26 -70t67 -43t91 -26.5t100 -25t91 -34t67 -59.5t26 -95q0 -100 -71 -150t-203 -48q-252 2 -271 200z" />
    <glyph glyph-name="scircumflex" unicode="&#x15d;" horiz-adv-x="576" 
d="M434 635h-70l-75 89l-76 -89h-70l111 138h68zM123 151q21 -96 163 -99q157 -3 159 94q0 35 -27 56.5t-68.5 29t-90 18t-90 22.5t-70 44t-28.5 81q-1 71 55 111t164 39q174 -3 205 -118l-57 -29q-13 41 -46 62.5t-100 22.5q-82 1 -116 -25t-34 -67q0 -28 20.5 -45.5
t53.5 -26.5t73 -15.5t80 -16.5t73 -25.5t53.5 -46.5t20.5 -75q0 -155 -229 -154q-94 2 -151.5 37.5t-71.5 101.5z" />
    <glyph glyph-name="Scedilla" unicode="&#x15e;" horiz-adv-x="683" 
d="M617 181q0 -92 -60 -141.5t-173 -55.5l-27 -58q85 -7 85 -77q0 -48 -29.5 -66.5t-97.5 -18.5q-17 0 -32.5 2t-22.5 4l-8 1v45q18 -6 48 -6q41 0 57.5 9t16.5 36q0 46 -88 46h-6l38 83q-229 11 -246 199l66 14q20 -147 208 -150q199 -1 199 132q0 43 -26 71.5t-67 43
t-91 26t-100 25t-91 33.5t-66.5 59t-25.5 95q0 92 65.5 143.5t195.5 50.5q126 -1 186.5 -45t70.5 -124l-66 -17q-5 25 -14.5 44t-29.5 37.5t-57 28.5t-90 10q-102 1 -146 -34t-44 -92q0 -42 26 -70t67 -43t91 -26.5t100 -25t91 -34t67 -59.5t26 -95z" />
    <glyph glyph-name="scedilla" unicode="&#x15f;" horiz-adv-x="576" 
d="M516 142q0 -142 -191 -153l-22 -47q85 -7 85 -77q0 -48 -29.5 -66.5t-97.5 -18.5q-17 0 -32.5 2t-22.5 4l-8 1v45q18 -6 48 -6q41 0 57.5 9t16.5 36q0 46 -88 46h-6l33 72q-167 14 -195 138l59 24q21 -96 163 -99q157 -3 159 94q0 35 -27 56.5t-68.5 29t-90 18t-90 22.5
t-70 44t-28.5 81q-1 71 55 111t164 39q174 -3 205 -118l-57 -29q-13 41 -46 62.5t-100 22.5q-82 1 -116 -25t-34 -67q0 -28 20.5 -45.5t53.5 -26.5t73 -15.5t80 -16.5t73 -25.5t53.5 -46.5t20.5 -75z" />
    <glyph glyph-name="Scaron" unicode="&#x160;" horiz-adv-x="683" 
d="M412 881h75l-110 -113h-75l-108 113h72l73 -70zM138 197q20 -147 208 -150q199 -1 199 132q0 43 -26 71.5t-67 43t-91 26t-100 25t-91 33.5t-66.5 59t-25.5 95q0 92 65.5 143.5t195.5 50.5q126 -1 186.5 -45t70.5 -124l-66 -17q-5 25 -14.5 44t-29.5 37.5t-57 28.5
t-90 10q-102 1 -146 -34t-44 -92q0 -42 26 -70t67 -43t91 -26.5t100 -25t91 -34t67 -59.5t26 -95q0 -100 -71 -150t-203 -48q-252 2 -271 200z" />
    <glyph glyph-name="scaron" unicode="&#x161;" horiz-adv-x="576" 
d="M363 773h71l-112 -138h-68l-110 138h68l76 -87zM123 151q21 -96 163 -99q157 -3 159 94q0 35 -27 56.5t-68.5 29t-90 18t-90 22.5t-70 44t-28.5 81q-1 71 55 111t164 39q174 -3 205 -118l-57 -29q-13 41 -46 62.5t-100 22.5q-82 1 -116 -25t-34 -67q0 -28 20.5 -45.5
t53.5 -26.5t73 -15.5t80 -16.5t73 -25.5t53.5 -46.5t20.5 -75q0 -155 -229 -154q-94 2 -151.5 37.5t-71.5 101.5z" />
    <glyph glyph-name="uni0162" unicode="&#x162;" horiz-adv-x="614" 
d="M339 0h-6l-28 -59q85 -7 85 -77q0 -48 -29.5 -66.5t-97.5 -18.5q-17 0 -32.5 1.5t-22.5 3.5l-8 2v45q18 -6 48 -6q41 0 57.5 9t16.5 36q0 46 -88 46h-6l39 85l4 641h-242v66h555v-66h-241z" />
    <glyph glyph-name="uni0163" unicode="&#x163;" horiz-adv-x="369" 
d="M288 -2q-20 0 -30 1l-21 -46q85 -7 85 -77q0 -48 -29.5 -66.5t-97.5 -18.5q-17 0 -32.5 1.5t-22.5 3.5l-8 2v45q18 -6 48 -6q41 0 57.5 9t16.5 36q0 46 -88 46h-6l39 84q-52 20 -68 66.5t-16 126.5v267h-71v63h71v158l70 14v-172h146v-63h-146v-264q0 -75 20.5 -109.5
t86.5 -34.5h42v-66h-46z" />
    <glyph glyph-name="Tcaron" unicode="&#x164;" horiz-adv-x="614" 
d="M379 878h75l-110 -113h-75l-108 113h72l73 -70zM584 708v-66h-241l-4 -642h-72l4 642h-242v66h555z" />
    <glyph glyph-name="tcaron" unicode="&#x165;" horiz-adv-x="369" 
d="M243 599l50 147h63l-68 -147h-45zM292 64h42v-66h-46q-47 0 -80 11t-51 28t-27.5 46.5t-12 55.5t-2.5 66v267h-71v63h71v158l70 14v-172h146v-63h-146v-264q0 -75 20.5 -109.5t86.5 -34.5z" />
    <glyph glyph-name="Tbar" unicode="&#x166;" horiz-adv-x="614" 
d="M584 642h-241l-2 -277h105v-55h-105l-2 -310h-72l2 310h-104v55h104l2 277h-242v66h555v-66z" />
    <glyph glyph-name="tbar" unicode="&#x167;" horiz-adv-x="369" 
d="M292 64h42v-66h-46q-47 0 -80 11t-51 28t-27.5 46.5t-12 55.5t-2.5 66v49h-71v55h71v163h-71v63h71v158l70 14v-172h146v-63h-146v-163h140v-55h-140v-46q0 -75 20.5 -109.5t86.5 -34.5z" />
    <glyph glyph-name="Utilde" unicode="&#x168;" horiz-adv-x="744" 
d="M516 869q0 -105 -85 -105q-38 0 -63.5 24t-47.5 24q-39 0 -39 -48h-53q0 104 85 104q37 0 62.5 -23.5t47.5 -23.5q40 0 40 48h53zM371 -17q-70 0 -120.5 17.5t-81 47t-48 78.5t-23.5 102.5t-6 128.5v351h72v-346q0 -165 43.5 -238t163.5 -73q121 0 164.5 73t43.5 238v346
h72v-351q0 -75 -6 -128t-23.5 -102.5t-48 -79t-81 -47t-121.5 -17.5z" />
    <glyph glyph-name="utilde" unicode="&#x169;" horiz-adv-x="644" 
d="M465 739q0 -105 -84 -105q-35 0 -64.5 25t-48.5 25q-39 0 -39 -48h-52q0 104 83 104q28 0 47 -12.5t34 -25t33 -12.5q39 0 39 49h52zM556 0h-61l-14 104q-8 -16 -22 -32.5t-38 -36t-63.5 -31.5t-87.5 -12q-95 0 -139.5 53t-44.5 177l1 313h69v-315q0 -82 31.5 -122
t107.5 -40q38 0 70.5 12.5t54 33.5t34 38t21.5 35v358h70v-387z" />
    <glyph glyph-name="Umacron" unicode="&#x16a;" horiz-adv-x="744" 
d="M250 844h244v-57h-244v57zM371 -17q-70 0 -120.5 17.5t-81 47t-48 78.5t-23.5 102.5t-6 128.5v351h72v-346q0 -165 43.5 -238t163.5 -73q121 0 164.5 73t43.5 238v346h72v-351q0 -75 -6 -128t-23.5 -102.5t-48 -79t-81 -47t-121.5 -17.5z" />
    <glyph glyph-name="umacron" unicode="&#x16b;" horiz-adv-x="644" 
d="M199 716h244v-53h-244v53zM556 0h-61l-14 104q-8 -16 -22 -32.5t-38 -36t-63.5 -31.5t-87.5 -12q-95 0 -139.5 53t-44.5 177l1 313h69v-315q0 -82 31.5 -122t107.5 -40q38 0 70.5 12.5t54 33.5t34 38t21.5 35v358h70v-387z" />
    <glyph glyph-name="Ubreve" unicode="&#x16c;" horiz-adv-x="744" 
d="M510 866q0 -39 -35 -72t-103 -33t-103 33t-35 72h62q0 -21 22 -38.5t54 -17.5t54.5 17.5t22.5 38.5h61zM371 -17q-70 0 -120.5 17.5t-81 47t-48 78.5t-23.5 102.5t-6 128.5v351h72v-346q0 -165 43.5 -238t163.5 -73q121 0 164.5 73t43.5 238v346h72v-351q0 -75 -6 -128
t-23.5 -102.5t-48 -79t-81 -47t-121.5 -17.5z" />
    <glyph glyph-name="ubreve" unicode="&#x16d;" horiz-adv-x="644" 
d="M460 749q0 -39 -36 -77t-103 -38t-103 38t-36 77h62q0 -22 22.5 -44.5t54.5 -22.5t55 22.5t23 44.5h61zM556 0h-61l-14 104q-8 -16 -22 -32.5t-38 -36t-63.5 -31.5t-87.5 -12q-95 0 -139.5 53t-44.5 177l1 313h69v-315q0 -82 31.5 -122t107.5 -40q38 0 70.5 12.5t54 33.5
t34 38t21.5 35v358h70v-387z" />
    <glyph glyph-name="Uring" unicode="&#x16e;" horiz-adv-x="744" 
d="M373 756q-43 0 -67.5 23.5t-24.5 63.5q0 39 25 63t67 24t67 -24t25 -63q0 -40 -24.5 -63.5t-67.5 -23.5zM373 802q18 0 29 11t11 30t-11 29.5t-29 10.5t-28.5 -10.5t-10.5 -29.5t10.5 -30t28.5 -11zM371 -17q-70 0 -120.5 17.5t-81 47t-48 78.5t-23.5 102.5t-6 128.5v351
h72v-346q0 -165 43.5 -238t163.5 -73q121 0 164.5 73t43.5 238v346h72v-351q0 -75 -6 -128t-23.5 -102.5t-48 -79t-81 -47t-121.5 -17.5z" />
    <glyph glyph-name="uring" unicode="&#x16f;" horiz-adv-x="644" 
d="M321 625q-42 0 -66.5 23.5t-24.5 62.5t24.5 62.5t66.5 23.5q43 0 67.5 -23.5t24.5 -62.5t-24.5 -62.5t-67.5 -23.5zM321 670q18 0 29 11t11 30t-11 29.5t-29 10.5t-28.5 -10.5t-10.5 -29.5t10.5 -30t28.5 -11zM556 0h-61l-14 104q-8 -16 -22 -32.5t-38 -36t-63.5 -31.5
t-87.5 -12q-95 0 -139.5 53t-44.5 177l1 313h69v-315q0 -82 31.5 -122t107.5 -40q38 0 70.5 12.5t54 33.5t34 38t21.5 35v358h70v-387z" />
    <glyph glyph-name="Uhungarumlaut" unicode="&#x170;" horiz-adv-x="744" 
d="M255 765l69 116h77l-82 -116h-64zM396 765l83 116h77l-96 -116h-64zM371 -17q-70 0 -120.5 17.5t-81 47t-48 78.5t-23.5 102.5t-6 128.5v351h72v-346q0 -165 43.5 -238t163.5 -73q121 0 164.5 73t43.5 238v346h72v-351q0 -75 -6 -128t-23.5 -102.5t-48 -79t-81 -47
t-121.5 -17.5z" />
    <glyph glyph-name="uhungarumlaut" unicode="&#x171;" horiz-adv-x="644" 
d="M202 636l69 139h76l-82 -139h-63zM344 636l82 139h76l-95 -139h-63zM556 0h-61l-14 104q-8 -16 -22 -32.5t-38 -36t-63.5 -31.5t-87.5 -12q-95 0 -139.5 53t-44.5 177l1 313h69v-315q0 -82 31.5 -122t107.5 -40q38 0 70.5 12.5t54 33.5t34 38t21.5 35v358h70v-387z" />
    <glyph glyph-name="Uogonek" unicode="&#x172;" horiz-adv-x="744" 
d="M579 708h72v-351q0 -146 -28.5 -230t-109.5 -119q-61 -40 -61 -82q0 -20 12 -30.5t30 -10.5q10 0 22.5 3.5t19.5 6.5l7 3v-46q-25 -18 -76 -18q-43 0 -64.5 21t-21.5 56q0 37 35 74q-28 -2 -45 -2q-70 0 -120.5 17.5t-81 47t-48 78.5t-23.5 102.5t-6 128.5v351h72v-346
q0 -165 43.5 -238t163.5 -73q121 0 164.5 73t43.5 238v346z" />
    <glyph glyph-name="uogonek" unicode="&#x173;" horiz-adv-x="644" 
d="M510 -138q10 0 22.5 3t19.5 7l7 3v-46q-25 -18 -76 -18q-43 0 -64.5 21.5t-21.5 55.5q0 62 97 120l-13 96q-8 -16 -22 -32.5t-38 -36t-63.5 -31.5t-87.5 -12q-95 0 -139.5 53t-44.5 177l1 313h69v-315q0 -82 31.5 -122t107.5 -40q38 0 70.5 12.5t54 33.5t34 38t21.5 35
v358h70v-387l11 -148q-4 -2 -9.5 -5t-21 -13t-27 -21t-21 -27t-9.5 -31q0 -20 12 -30.5t30 -10.5z" />
    <glyph glyph-name="Wcircumflex" unicode="&#x174;" horiz-adv-x="1027" 
d="M663 765h-74l-73 70l-73 -70h-73l108 113h75zM915 708h78l-218 -708h-84l-176 630l-173 -630h-85l-223 708h82l184 -640l173 640h81l181 -641z" />
    <glyph glyph-name="wcircumflex" unicode="&#x175;" horiz-adv-x="852" 
d="M573 635h-70l-75 89l-76 -89h-70l111 138h68zM749 535h75l-171 -535h-81l-147 462l-140 -462h-80l-178 535h76l141 -465l140 465h82l148 -466z" />
    <glyph glyph-name="Ycircumflex" unicode="&#x176;" horiz-adv-x="658" 
d="M475 765h-74l-73 70l-73 -70h-73l108 113h75zM541 708h85l-258 -473v-235h-71v235l-265 473h83l218 -407z" />
    <glyph glyph-name="ycircumflex" unicode="&#x177;" horiz-adv-x="560" 
d="M425 635h-70l-75 89l-76 -89h-70l111 138h68zM457 535h75l-279 -758h-66l79 223h-28l-210 535h77l182 -478z" />
    <glyph glyph-name="Ydieresis" unicode="&#x178;" horiz-adv-x="658" 
d="M211 765v124h69v-124h-69zM375 765v124h69v-124h-69zM541 708h85l-258 -473v-235h-71v235l-265 473h83l218 -407z" />
    <glyph glyph-name="Zacute" unicode="&#x179;" horiz-adv-x="598" 
d="M273 765l76 115h77l-89 -115h-64zM125 65h432v-61h-517v61l424 578h-406v61h494v-61z" />
    <glyph glyph-name="zacute" unicode="&#x17a;" horiz-adv-x="484" 
d="M219 636l76 139h71l-89 -139h-58zM47 532h397v-64l-327 -400l327 1v-65h-407v64l328 400l-318 -1v65z" />
    <glyph glyph-name="Zdotaccent" unicode="&#x17b;" horiz-adv-x="598" 
d="M272 765v124h69v-124h-69zM125 65h432v-61h-517v61l424 578h-406v61h494v-61z" />
    <glyph glyph-name="zdotaccent" unicode="&#x17c;" horiz-adv-x="484" 
d="M214 643v116h71v-116h-71zM47 532h397v-64l-327 -400l327 1v-65h-407v64l328 400l-318 -1v65z" />
    <glyph glyph-name="Zcaron" unicode="&#x17d;" horiz-adv-x="598" 
d="M378 878h75l-110 -113h-75l-108 113h72l73 -70zM125 65h432v-61h-517v61l424 578h-406v61h494v-61z" />
    <glyph glyph-name="zcaron" unicode="&#x17e;" horiz-adv-x="484" 
d="M323 773h71l-112 -138h-68l-110 138h68l76 -87zM47 532h397v-64l-327 -400l327 1v-65h-407v64l328 400l-318 -1v65z" />
    <glyph glyph-name="uni018F" unicode="&#x18f;" horiz-adv-x="756" 
d="M378 726q165 0 234.5 -94.5t69.5 -278.5t-69.5 -277t-234.5 -93q-166 0 -235.5 95t-69.5 282h536q-1 151 -54.5 225.5t-176.5 74.5q-180 0 -218 -161l-72 11q23 108 93 162t197 54zM378 51q111 0 165 59.5t64 181.5h-457q10 -122 64 -181.5t164 -59.5z" />
    <glyph glyph-name="uni019D" unicode="&#x19d;" horiz-adv-x="777" 
d="M602 708h69v-708h-74l-424 614l-2 -614q0 -60 -7 -97.5t-26.5 -67.5t-57 -43t-97.5 -13h-51v58h51q73 0 98 34.5t25 128.5l4 708h74l422 -608z" />
    <glyph glyph-name="Gcaron" unicode="&#x1e6;" horiz-adv-x="722" 
d="M441 881h75l-110 -113h-75l-108 113h72l73 -70zM638 344v-263q0 -4 -9.5 -14t-31 -24.5t-51 -28t-76 -22.5t-98.5 -9q-161 -1 -230 92.5t-69 277.5t69 278.5t230 94.5q251 0 274 -221l-67 -14q-14 87 -63 127.5t-144 40.5q-120 0 -173 -75.5t-53 -230.5q0 -156 53.5 -231
t174.5 -75q58 0 106 14.5t70 30.5t22 25v161h-161v66h227z" />
    <glyph glyph-name="gcaron" unicode="&#x1e7;" horiz-adv-x="646" 
d="M393 773h71l-112 -138h-68l-110 138h68l76 -87zM497 535h61l-10 -135v-401q0 -30 -1 -49.5t-6 -47.5t-14 -46.5t-26 -39t-42 -32.5t-62 -20t-85 -8q-99 0 -152.5 40t-68.5 92l58 29q37 -101 163 -101q57 0 92.5 14t50.5 44t19 56.5t4 71.5v65q-56 -76 -187 -76
q-112 0 -165 72t-53 202q0 131 52.5 205.5t163.5 74.5q127 0 197 -89zM303 57q121 0 175 90v244q-64 89 -174 89q-160 0 -160 -215q0 -208 159 -208z" />
    <glyph glyph-name="uni01EA" unicode="&#x1ea;" horiz-adv-x="757" 
d="M532 13q-64 -42 -64 -84q0 -20 12 -30.5t30 -10.5q10 0 22.5 3t19.5 7l7 3v-46q-25 -18 -76 -18q-43 0 -64.5 21.5t-21.5 55.5t32 72q-24 -3 -51 -3q-165 0 -235 93t-70 277t70 278.5t235 94.5t235 -94.5t70 -278.5q0 -133 -35.5 -217.5t-115.5 -122.5zM146 353
q0 -155 54 -229.5t178 -74.5t178 74.5t54 229.5q0 156 -54 231t-178 75t-178 -75t-54 -231z" />
    <glyph glyph-name="uni01EB" unicode="&#x1eb;" horiz-adv-x="637" 
d="M433 6q-66 -41 -66 -85q0 -20 12 -30.5t30 -10.5q10 0 22.5 3t19.5 7l7 3v-46q-25 -18 -76 -18q-44 0 -65 21.5t-21 55.5q0 43 43 82h-20q-136 0 -191 70t-55 208t55 209t191 72q135 1 190 -71t55 -210q0 -104 -30 -168.5t-101 -91.5zM145 266q0 -112 39 -164.5
t135 -52.5t134.5 52.5t38.5 164.5q0 113 -38.5 166.5t-134.5 53.5t-135 -53.5t-39 -166.5z" />
    <glyph glyph-name="Aringacute" unicode="&#x1fa;" horiz-adv-x="713" 
d="M324 979l76 115h77l-89 -115h-64zM358 756q-43 0 -67.5 23.5t-24.5 63.5q0 39 25 63t67 24t67 -24t25 -63q0 -40 -24.5 -63.5t-67.5 -23.5zM358 802q18 0 29 11t11 30t-11 29.5t-29 10.5t-28.5 -10.5t-10.5 -29.5t10.5 -30t28.5 -11zM603 0l-70 181h-354l-70 -181h-78
l287 708h77l287 -708h-79zM205 249h302l-151 393z" />
    <glyph glyph-name="aringacute" unicode="&#x1fb;" horiz-adv-x="633" 
d="M292 837l76 139h71l-89 -139h-58zM314 625q-42 0 -66.5 23.5t-24.5 62.5t24.5 62.5t66.5 23.5q43 0 67.5 -23.5t24.5 -62.5t-24.5 -62.5t-67.5 -23.5zM314 670q18 0 29 11t11 30t-11 29.5t-29 10.5t-28.5 -10.5t-10.5 -29.5t10.5 -30t28.5 -11zM545 1h-64l-10 72
q-72 -85 -205 -85q-194 0 -194 165q0 96 59.5 135t175.5 39q92 0 157 -9q-1 50 -6 78t-20.5 50t-44.5 30t-78 8q-19 0 -36 -2t-28.5 -4t-25 -8t-20 -8.5t-18 -11t-14.5 -11t-14.5 -13t-13.5 -12.5l-44 40q63 91 211 91q37 0 66.5 -4.5t51.5 -10.5t38.5 -20t27.5 -24.5
t18.5 -33t11.5 -36t6 -43.5t2 -45.5v-51.5v-16v-124zM278 51q76 0 127 33t59 71v102q-54 8 -140 8q-93 0 -136.5 -24t-43.5 -85q0 -105 134 -105z" />
    <glyph glyph-name="AEacute" unicode="&#x1fc;" horiz-adv-x="990" 
d="M462 765l76 115h77l-89 -115h-64zM543 67h398v-67h-470v190h-253l-106 -190h-81l400 708h505v-67h-393v-240h341v-65h-341v-269zM253 253h218v392z" />
    <glyph glyph-name="aeacute" unicode="&#x1fd;" horiz-adv-x="999" 
d="M495 636l76 139h71l-89 -139h-58zM690 51q68 0 116.5 21.5t69.5 48.5l44 -48q-24 -36 -85 -60.5t-145 -24.5q-151 0 -207 101q-67 -100 -217 -100q-194 0 -194 164q0 95 59 131.5t176 36.5h142q2 23 10 60q-8 56 -40.5 79.5t-103.5 23.5q-19 0 -36 -2t-28.5 -4t-25 -8
t-20 -8.5t-18 -11t-14.5 -11t-14.5 -13t-13.5 -12.5l-44 40q63 91 211 91q145 0 185 -79q60 80 193 80q129 0 185 -69.5t56 -224.5h-412q2 -104 42 -152.5t129 -48.5zM690 485q-81 0 -121 -42t-48 -128h336q-10 90 -50.5 130t-116.5 40zM278 51q77 0 126 34t54 73
q-11 47 -11 101q-25 -1 -123 -1q-95 0 -137.5 -21t-42.5 -81q0 -105 134 -105z" />
    <glyph glyph-name="Oslashacute" unicode="&#x1fe;" horiz-adv-x="757" 
d="M319 766l76 115h77l-89 -115h-64zM615 629q68 -89 68 -276q0 -184 -70 -277t-235 -93q-118 0 -188 49l-28 -39h-89l64 91q-64 88 -64 269q0 184 70 278.5t235 94.5q115 0 183 -47l28 39h89zM146 353q0 -134 38 -204l336 471q-54 39 -142 39q-124 0 -178 -75t-54 -231z
M378 49q124 0 178 74.5t54 229.5q0 140 -41 212l-337 -474q52 -42 146 -42z" />
    <glyph glyph-name="oslashacute" unicode="&#x1ff;" horiz-adv-x="637" 
d="M289 630l76 139h71l-89 -139h-58zM569 541l-55 -72q50 -66 50 -203q0 -138 -55 -208t-190 -70q-89 0 -143 31l-20 -26h-89l55 73q-49 65 -49 200q0 138 55 209t191 72q88 0 142 -31l19 25h89zM145 266q0 -89 23 -138l253 334q-39 24 -102 24q-96 0 -135 -53.5t-39 -166.5
zM492 266q0 92 -24 141l-252 -334q39 -24 103 -24q96 0 134.5 52.5t38.5 164.5z" />
    <glyph glyph-name="Scommaaccent" unicode="&#x218;" horiz-adv-x="683" 
d="M138 197q20 -147 208 -150q199 -1 199 132q0 43 -26 71.5t-67 43t-91 26t-100 25t-91 33.5t-66.5 59t-25.5 95q0 92 65.5 143.5t195.5 50.5q126 -1 186.5 -45t70.5 -124l-66 -17q-5 25 -14.5 44t-29.5 37.5t-57 28.5t-90 10q-102 1 -146 -34t-44 -92q0 -42 26 -70t67 -43
t91 -26.5t100 -25t91 -34t67 -59.5t26 -95q0 -100 -71 -150t-203 -48q-252 2 -271 200zM293 -241q17 39 30 94q6 22 9.5 45t3.5 35l1 12h64q-4 -48 -19 -96q-8 -25 -17.5 -47.5t-15.5 -32.5l-6 -10h-50z" />
    <glyph glyph-name="scommaaccent" unicode="&#x219;" horiz-adv-x="576" 
d="M123 151q21 -96 163 -99q157 -3 159 94q0 35 -27 56.5t-68.5 29t-90 18t-90 22.5t-70 44t-28.5 81q-1 71 55 111t164 39q174 -3 205 -118l-57 -29q-13 41 -46 62.5t-100 22.5q-82 1 -116 -25t-34 -67q0 -28 20.5 -45.5t53.5 -26.5t73 -15.5t80 -16.5t73 -25.5t53.5 -46.5
t20.5 -75q0 -155 -229 -154q-94 2 -151.5 37.5t-71.5 101.5zM239 -225q17 39 30 94q6 22 9.5 45t3.5 35l1 12h64q-4 -48 -19 -96q-8 -25 -17.5 -47.5t-15.5 -32.5l-6 -10h-50z" />
    <glyph glyph-name="uni021A" unicode="&#x21a;" horiz-adv-x="630" 
d="M592 708v-67h-241l-4 -641h-72l4 641h-241v67h554zM263 -132q5 22 8.5 45t4.5 35l1 11h63q-4 -47 -19 -96q-8 -25 -17.5 -47t-15.5 -32l-6 -10h-49q16 39 30 94z" />
    <glyph glyph-name="uni021B" unicode="&#x21b;" horiz-adv-x="369" 
d="M292 64h42v-66h-46q-47 0 -80 11t-51 28t-27.5 46.5t-12 55.5t-2.5 66v267h-71v63h71v158l70 14v-172h146v-63h-146v-264q0 -75 20.5 -109.5t86.5 -34.5zM173 -214q17 39 30 94q6 22 9.5 45t3.5 35l1 12h64q-4 -48 -19 -96q-8 -25 -18 -47.5t-16 -32.5l-5 -10h-50z" />
    <glyph glyph-name="uni0232" unicode="&#x232;" horiz-adv-x="658" 
d="M206 844h244v-57h-244v57zM541 708h85l-258 -473v-235h-71v235l-265 473h83l218 -407z" />
    <glyph glyph-name="uni0233" unicode="&#x233;" horiz-adv-x="560" 
d="M158 716h244v-53h-244v53zM457 535h75l-279 -758h-66l79 223h-28l-210 535h77l182 -478z" />
    <glyph glyph-name="uni0237" unicode="&#x237;" horiz-adv-x="283" 
d="M-12 -183v68q26 0 45.5 3.5t33 8t22 16.5t13 21t6.5 30t2.5 35t0.5 45v491h70v-491q0 -38 -1 -59t-4.5 -49.5t-11 -43t-21 -31.5t-34.5 -25t-51 -13.5t-70 -5.5z" />
    <glyph glyph-name="uni0259" unicode="&#x259;" horiz-adv-x="631" 
d="M314 546q131 0 187.5 -71t56.5 -207t-56.5 -208t-187.5 -72q-128 0 -184 69t-56 221h412q-2 106 -42 156.5t-130 49.5q-68 -1 -116 -22.5t-69 -48.5l-44 48q24 36 84.5 60.5t144.5 24.5zM315 50q80 0 120.5 40.5t48.5 124.5l-336 -1q10 -86 50.5 -125t116.5 -39z" />
    <glyph glyph-name="uni0272" unicode="&#x272;" horiz-adv-x="654" 
d="M381 543q95 0 139.5 -53.5t44.5 -178.5v-311h-70v315q0 84 -31 123t-107 39q-111 0 -176 -102v-318q0 -39 -1 -60t-4.5 -49.5t-11 -43t-21 -31.5t-34.5 -24.5t-51 -13t-70 -5.5v61q26 0 45.5 3.5t33 8t22 16.5t13 21.5t6.5 31.5t2.5 36.5t0.5 47.5v340l-10 139h61l12 -90
q65 98 207 98z" />
    <glyph glyph-name="circumflex" unicode="&#x2c6;" horiz-adv-x="411" 
d="M358 635h-70l-75 89l-76 -89h-70l111 138h68z" />
    <glyph glyph-name="caron" unicode="&#x2c7;" horiz-adv-x="412" 
d="M288 773h71l-112 -138h-68l-110 138h68l76 -87z" />
    <glyph glyph-name="breve" unicode="&#x2d8;" horiz-adv-x="402" 
d="M334 749q0 -39 -36 -77t-103 -38t-103 38t-36 77h62q0 -22 22.5 -44.5t54.5 -22.5t55 22.5t23 44.5h61z" />
    <glyph glyph-name="dotaccent" unicode="&#x2d9;" horiz-adv-x="246" 
d="M58 643v116h71v-116h-71z" />
    <glyph glyph-name="ring" unicode="&#x2da;" horiz-adv-x="352" 
d="M157 625q-42 0 -66.5 23.5t-24.5 62.5t24.5 62.5t66.5 23.5q43 0 67.5 -23.5t24.5 -62.5t-24.5 -62.5t-67.5 -23.5zM157 670q18 0 29 11t11 30t-11 29.5t-29 10.5t-28.5 -10.5t-10.5 -29.5t10.5 -30t28.5 -11z" />
    <glyph glyph-name="ogonek" unicode="&#x2db;" horiz-adv-x="342" 
d="M126 10l63 -7q-4 -2 -9.5 -5t-21 -13t-27 -21t-21 -27t-9.5 -31q0 -20 12 -30.5t30 -10.5q10 0 22.5 3.5t19.5 6.5l7 3v-46q-25 -18 -76 -18q-44 0 -65 21t-21 56q0 20 10 40t24 33.5t28 24t24 15.5z" />
    <glyph glyph-name="tilde" unicode="&#x2dc;" horiz-adv-x="415" 
d="M354 739q0 -105 -84 -105q-35 0 -64.5 25t-48.5 25q-39 0 -39 -48h-52q0 104 83 104q28 0 47 -12.5t34 -25t33 -12.5q39 0 39 49h52z" />
    <glyph glyph-name="hungarumlaut" unicode="&#x2dd;" horiz-adv-x="389" 
d="M63 636l69 139h76l-82 -139h-63zM205 636l82 139h76l-95 -139h-63z" />
    <glyph glyph-name="gravecomb" unicode="&#x300;" 
d="M-57 636h-59l-89 139h72z" />
    <glyph glyph-name="acutecomb" unicode="&#x301;" 
d="M-209 636l76 139h71l-89 -139h-58z" />
    <glyph glyph-name="uni0302" unicode="&#x302;" 
d="M-69 635h-70l-75 89l-76 -89h-70l111 138h68z" />
    <glyph glyph-name="tildecomb" unicode="&#x303;" 
d="M-66 739q0 -105 -84 -105q-35 0 -64.5 25t-48.5 25q-39 0 -39 -48h-52q0 104 83 104q28 0 47 -12.5t34 -25t33 -12.5q39 0 39 49h52z" />
    <glyph glyph-name="uni0304" unicode="&#x304;" 
d="M-306 716h244v-53h-244v53z" />
    <glyph glyph-name="uni0306" unicode="&#x306;" 
d="M-55 749q0 -39 -36 -77t-103 -38t-103 38t-36 77h62q0 -22 22.5 -44.5t54.5 -22.5t55 22.5t23 44.5h61z" />
    <glyph glyph-name="uni0307" unicode="&#x307;" 
d="M-128 643v116h71v-116h-71z" />
    <glyph glyph-name="uni0308" unicode="&#x308;" 
d="M-287 635v124h66v-124h-66zM-128 635v124h67v-124h-67z" />
    <glyph glyph-name="uni030A" unicode="&#x30a;" 
d="M-156 625q-42 0 -66.5 23.5t-24.5 62.5t24.5 62.5t66.5 23.5q43 0 67.5 -23.5t24.5 -62.5t-24.5 -62.5t-67.5 -23.5zM-156 670q18 0 29 11t11 30t-11 29.5t-29 10.5t-28.5 -10.5t-10.5 -29.5t10.5 -30t28.5 -11z" />
    <glyph glyph-name="uni030B" unicode="&#x30b;" 
d="M-357 636l69 139h76l-82 -139h-63zM-215 636l82 139h76l-95 -139h-63z" />
    <glyph glyph-name="uni030C" unicode="&#x30c;" 
d="M-140 773h71l-112 -138h-68l-110 138h68l76 -87z" />
    <glyph glyph-name="uni0312" unicode="&#x312;" 
d="M-56 789q-21 -44 -37 -112q-7 -29 -10.5 -54.5t-3.5 -36.5v-11h-64q0 43 18 107q9 31 20.5 57.5t18.5 38.5l8 11h50z" />
    <glyph glyph-name="dotbelowcomb" unicode="&#x323;" 
d="M-127 -181v107h68v-107h-68z" />
    <glyph glyph-name="uni0326" unicode="&#x326;" 
d="M-193 -224q17 39 30 94q6 22 9.5 45t3.5 35l1 12h64q-4 -48 -19 -96q-8 -25 -18 -47.5t-16 -32.5l-5 -10h-50z" />
    <glyph glyph-name="uni0327" unicode="&#x327;" 
d="M-137 -57q85 -7 85 -77q0 -48 -29.5 -66.5t-97.5 -18.5q-17 0 -32.5 1.5t-22.5 3.5l-8 2v45q18 -6 48 -6q41 0 57.5 9t16.5 36q0 46 -88 46h-6l39 85h66z" />
    <glyph glyph-name="uni0328" unicode="&#x328;" 
d="M-174 10l63 -7q-4 -2 -9.5 -5t-21 -13t-27 -21t-21 -27t-9.5 -31q0 -20 12 -30.5t30 -10.5q10 0 22.5 3.5t19.5 6.5l7 3v-46q-25 -18 -76 -18q-44 0 -65 21t-21 56q0 20 10 40t24 33.5t28 24t24 15.5z" />
    <glyph glyph-name="uni0335" unicode="&#x335;" 
d="M-330 304v55h281v-55h-281z" />
    <glyph glyph-name="uni0336" unicode="&#x336;" 
d="M-736 300v62h660v-62h-660z" />
    <glyph glyph-name="uni0337" unicode="&#x337;" 
d="M-313 215l-24 47l260 151l24 -47z" />
    <glyph glyph-name="uni0338" unicode="&#x338;" 
d="M-462 105l413 548h89l-413 -548h-89z" />
    <glyph glyph-name="pi" unicode="&#x3c0;" horiz-adv-x="696" 
d="M596 57h16v-57h-19q-44 0 -71.5 12.5t-40 39.5t-16 54t-3.5 72v303h-242v-481h-59v481h-90v62h540v-62h-91v-303q0 -60 14.5 -90.5t61.5 -30.5z" />
    <glyph glyph-name="Wgrave" unicode="&#x1e80;" horiz-adv-x="1027" 
d="M549 765h-64l-89 116h77zM915 708h78l-218 -708h-84l-176 630l-173 -630h-85l-223 708h82l184 -640l173 640h81l181 -641z" />
    <glyph glyph-name="wgrave" unicode="&#x1e81;" horiz-adv-x="852" 
d="M457 636h-59l-89 139h72zM749 535h75l-171 -535h-81l-147 462l-140 -462h-80l-178 535h76l141 -465l140 465h82l148 -466z" />
    <glyph glyph-name="Wacute" unicode="&#x1e82;" horiz-adv-x="1027" 
d="M483 765l76 115h77l-89 -115h-64zM915 708h78l-218 -708h-84l-176 630l-173 -630h-85l-223 708h82l184 -640l173 640h81l181 -641z" />
    <glyph glyph-name="wacute" unicode="&#x1e83;" horiz-adv-x="852" 
d="M398 636l76 139h71l-89 -139h-58zM749 535h75l-171 -535h-81l-147 462l-140 -462h-80l-178 535h76l141 -465l140 465h82l148 -466z" />
    <glyph glyph-name="Wdieresis" unicode="&#x1e84;" horiz-adv-x="1027" 
d="M399 765v124h69v-124h-69zM563 765v124h69v-124h-69zM915 708h78l-218 -708h-84l-176 630l-173 -630h-85l-223 708h82l184 -640l173 640h81l181 -641z" />
    <glyph glyph-name="wdieresis" unicode="&#x1e85;" horiz-adv-x="852" 
d="M315 635v124h66v-124h-66zM474 635v124h67v-124h-67zM749 535h75l-171 -535h-81l-147 462l-140 -462h-80l-178 535h76l141 -465l140 465h82l148 -466z" />
    <glyph glyph-name="uni1E9E" unicode="&#x1e9e;" horiz-adv-x="729" 
d="M431 451q121 -5 183 -63.5t62 -161.5q0 -102 -62 -164t-195 -62h-165v61h164q91 0 137 45t46 129q0 78 -51.5 121.5t-137.5 43.5q-20 0 -43 -2.5t-36 -5.5l-13 -2v51l239 205h-234q-149 -1 -149 -158v-488h-70v494q0 102 47 157.5t168 56.5h330v-62z" />
    <glyph glyph-name="uni1EA0" unicode="&#x1ea0;" horiz-adv-x="713" 
d="M603 0l-70 181h-354l-70 -181h-78l287 708h77l287 -708h-79zM205 249h302l-151 393zM322 -183v107h68v-107h-68z" />
    <glyph glyph-name="uni1EA1" unicode="&#x1ea1;" horiz-adv-x="633" 
d="M545 1h-64l-10 72q-72 -85 -205 -85q-194 0 -194 165q0 96 59.5 135t175.5 39q92 0 157 -9q-1 50 -6 78t-20.5 50t-44.5 30t-78 8q-19 0 -36 -2t-28.5 -4t-25 -8t-20 -8.5t-18 -11t-14.5 -11t-14.5 -13t-13.5 -12.5l-44 40q63 91 211 91q37 0 66.5 -4.5t51.5 -10.5
t38.5 -20t27.5 -24.5t18.5 -33t11.5 -36t6 -43.5t2 -45.5v-51.5v-16v-124zM278 51q76 0 127 33t59 71v102q-54 8 -140 8q-93 0 -136.5 -24t-43.5 -85q0 -105 134 -105zM277 -185v107h68v-107h-68z" />
    <glyph glyph-name="uni1EB8" unicode="&#x1eb8;" horiz-adv-x="624" 
d="M177 67h398v-67h-469v708h464v-67h-393v-240h341v-65h-341v-269zM306 -181v107h68v-107h-68z" />
    <glyph glyph-name="uni1EB9" unicode="&#x1eb9;" horiz-adv-x="626" 
d="M317 51q67 0 115.5 21.5t69.5 48.5l44 -48q-24 -36 -84.5 -60.5t-144.5 -24.5q-131 0 -187.5 71t-56.5 207t56.5 208t187.5 72q129 0 185 -70t56 -224h-413q2 -104 42.5 -152.5t129.5 -48.5zM317 485q-82 0 -122 -42t-48 -128h336q-10 90 -50 130t-116 40zM286 -184v107
h68v-107h-68z" />
    <glyph glyph-name="uni1EBC" unicode="&#x1ebc;" horiz-adv-x="624" 
d="M480 869q0 -105 -85 -105q-38 0 -63.5 24t-47.5 24q-39 0 -39 -48h-53q0 104 85 104q37 0 62.5 -23.5t47.5 -23.5q40 0 40 48h53zM177 67h398v-67h-469v708h464v-67h-393v-240h341v-65h-341v-269z" />
    <glyph glyph-name="uni1EBD" unicode="&#x1ebd;" horiz-adv-x="626" 
d="M462 739q0 -105 -84 -105q-35 0 -64.5 25t-48.5 25q-39 0 -39 -48h-52q0 104 83 104q28 0 47 -12.5t34 -25t33 -12.5q39 0 39 49h52zM317 51q67 0 115.5 21.5t69.5 48.5l44 -48q-24 -36 -84.5 -60.5t-144.5 -24.5q-131 0 -187.5 71t-56.5 207t56.5 208t187.5 72
q129 0 185 -70t56 -224h-413q2 -104 42.5 -152.5t129.5 -48.5zM317 485q-82 0 -122 -42t-48 -128h336q-10 90 -50 130t-116 40z" />
    <glyph glyph-name="uni1ECA" unicode="&#x1eca;" horiz-adv-x="283" 
d="M106 0v708h71v-708h-71zM108 -183v107h68v-107h-68z" />
    <glyph glyph-name="uni1ECB" unicode="&#x1ecb;" horiz-adv-x="274" 
d="M102 643v116h71v-116h-71zM102 0v535h70v-535h-70zM102 -181v107h68v-107h-68z" />
    <glyph glyph-name="uni1ECC" unicode="&#x1ecc;" horiz-adv-x="757" 
d="M378 -17q-165 0 -235 93t-70 277t70 278.5t235 94.5t235 -94.5t70 -278.5t-70 -277t-235 -93zM378 49q124 0 178 74.5t54 229.5q0 156 -54 231t-178 75t-178 -75t-54 -231q0 -155 54 -229.5t178 -74.5zM345 -186v107h68v-107h-68z" />
    <glyph glyph-name="uni1ECD" unicode="&#x1ecd;" horiz-adv-x="637" 
d="M319 -12q-136 0 -191 70t-55 208t55 209t191 72q135 1 190 -71t55 -210t-55 -208t-190 -70zM319 49q96 0 134.5 52.5t38.5 164.5q0 113 -38.5 166.5t-134.5 53.5t-135 -53.5t-39 -166.5q0 -112 39 -164.5t135 -52.5zM285 -186v107h68v-107h-68z" />
    <glyph glyph-name="uni1EE4" unicode="&#x1ee4;" horiz-adv-x="744" 
d="M371 -17q-70 0 -120.5 17.5t-81 47t-48 78.5t-23.5 102.5t-6 128.5v351h72v-346q0 -165 43.5 -238t163.5 -73q121 0 164.5 73t43.5 238v346h72v-351q0 -75 -6 -128t-23.5 -102.5t-48 -79t-81 -47t-121.5 -17.5zM338 -186v107h68v-107h-68z" />
    <glyph glyph-name="uni1EE5" unicode="&#x1ee5;" horiz-adv-x="644" 
d="M556 0h-61l-14 104q-8 -16 -22 -32.5t-38 -36t-63.5 -31.5t-87.5 -12q-95 0 -139.5 53t-44.5 177l1 313h69v-315q0 -82 31.5 -122t107.5 -40q38 0 70.5 12.5t54 33.5t34 38t21.5 35v358h70v-387zM287 -186v107h68v-107h-68z" />
    <glyph glyph-name="Ygrave" unicode="&#x1ef2;" horiz-adv-x="658" 
d="M361 765h-64l-89 116h77zM541 708h85l-258 -473v-235h-71v235l-265 473h83l218 -407z" />
    <glyph glyph-name="ygrave" unicode="&#x1ef3;" horiz-adv-x="560" 
d="M309 636h-59l-89 139h72zM457 535h75l-279 -758h-66l79 223h-28l-210 535h77l182 -478z" />
    <glyph glyph-name="uni1EF8" unicode="&#x1ef8;" horiz-adv-x="658" 
d="M472 869q0 -105 -85 -105q-38 0 -63.5 24t-47.5 24q-39 0 -39 -48h-53q0 104 85 104q37 0 62.5 -23.5t47.5 -23.5q40 0 40 48h53zM541 708h85l-258 -473v-235h-71v235l-265 473h83l218 -407z" />
    <glyph glyph-name="uni1EF9" unicode="&#x1ef9;" horiz-adv-x="560" 
d="M424 739q0 -105 -84 -105q-35 0 -64.5 25t-48.5 25q-39 0 -39 -48h-52q0 104 83 104q28 0 47 -12.5t34 -25t33 -12.5q39 0 39 49h52zM457 535h75l-279 -758h-66l79 223h-28l-210 535h77l182 -478z" />
    <glyph glyph-name="uni2009" unicode="&#x2009;" horiz-adv-x="155" 
 />
    <glyph glyph-name="endash" unicode="&#x2013;" horiz-adv-x="639" 
d="M84 293v54h471v-54h-471z" />
    <glyph glyph-name="emdash" unicode="&#x2014;" horiz-adv-x="995" 
d="M102 293v54h791v-54h-791z" />
    <glyph glyph-name="uni2016" unicode="&#x2016;" horiz-adv-x="436" 
d="M103 -180v1003h52v-1003h-52zM280 -180v1003h53v-1003h-53z" />
    <glyph glyph-name="quoteleft" unicode="&#x2018;" horiz-adv-x="240" 
d="M71 537q-1 38 18 109q9 33 21 61.5t20 40.5l8 12h52q-23 -47 -39 -119q-7 -32 -10.5 -58t-3.5 -36v-10h-66z" />
    <glyph glyph-name="quoteright" unicode="&#x2019;" horiz-adv-x="241" 
d="M50 537q23 48 39 119q7 32 10.5 58t3.5 36v10h67q0 -37 -19 -108q-9 -33 -21 -62t-20 -41l-8 -12h-52z" />
    <glyph glyph-name="quotesinglbase" unicode="&#x201a;" horiz-adv-x="256" 
d="M108 -99q23 47 39 119q7 32 10.5 58t3.5 36v10h67q0 -37 -19 -109q-9 -33 -21 -61.5t-20 -40.5l-8 -12h-52z" />
    <glyph glyph-name="quotedblleft" unicode="&#x201c;" horiz-adv-x="369" 
d="M71 537q-1 38 18 109q9 33 21 61.5t20 40.5l8 12h52q-23 -47 -39 -119q-7 -32 -10.5 -58t-3.5 -36v-10h-66zM200 537q-1 38 18 109q9 33 21 61.5t20 40.5l8 12h52q-23 -47 -38 -119q-7 -32 -10.5 -58t-3.5 -36v-10h-67z" />
    <glyph glyph-name="quotedblright" unicode="&#x201d;" horiz-adv-x="369" 
d="M50 537q23 48 38 119q7 32 10.5 58t3.5 36v10h67q1 -37 -18 -108q-9 -33 -21 -62t-20 -41l-8 -12h-52zM179 537q23 48 39 119q7 32 10.5 58t3.5 36l-1 10h67q1 -37 -18 -108q-9 -33 -21 -62t-20 -41l-8 -12h-52z" />
    <glyph glyph-name="quotedblbase" unicode="&#x201e;" horiz-adv-x="365" 
d="M50 -116q23 47 38 119q7 32 10.5 58t3.5 36v10h67q1 -37 -18 -109q-9 -33 -21 -61.5t-20 -40.5l-8 -12h-52zM175 -116q23 47 38 119q7 32 10.5 58t3.5 36v10h67q1 -37 -18 -109q-9 -33 -21 -61.5t-20 -40.5l-8 -12h-52z" />
    <glyph glyph-name="dagger" unicode="&#x2020;" horiz-adv-x="598" 
d="M498 567v-46h-173v-521h-52v521h-174v46h174v205h52v-205h173z" />
    <glyph glyph-name="daggerdbl" unicode="&#x2021;" horiz-adv-x="614" 
d="M498 521h-173v-273h173v-46h-173v-202h-52v202h-174v46h174v273h-174v46h174v205h52v-205h173v-46z" />
    <glyph glyph-name="bullet" unicode="&#x2022;" horiz-adv-x="495" 
d="M198 233v128h99v-128h-99z" />
    <glyph glyph-name="ellipsis" unicode="&#x2026;" horiz-adv-x="618" 
d="M113 0v126h73v-126h-73zM272 0v126h74v-126h-74zM432 0v126h73v-126h-73z" />
    <glyph glyph-name="perthousand" unicode="&#x2030;" horiz-adv-x="1178" 
d="M219 368q-164 0 -164 172q0 176 164 176q163 0 163 -176q0 -83 -38 -127.5t-125 -44.5zM131 0l479 702h70l-480 -702h-69zM219 417q57 0 82.5 31t25.5 92q0 126 -108 126q-109 0 -109 -126q0 -123 109 -123zM591 -14q-164 0 -164 172q0 176 164 176q163 0 163 -176
q0 -172 -163 -172zM953 -14q-164 0 -164 172q0 176 164 176q163 0 163 -176q0 -172 -163 -172zM591 35q57 0 82.5 31t25.5 92q0 127 -108 127q-109 0 -109 -127q0 -123 109 -123zM953 35q57 0 82.5 31t25.5 92q0 127 -108 127q-109 0 -109 -127q0 -123 109 -123z" />
    <glyph glyph-name="guilsinglleft" unicode="&#x2039;" horiz-adv-x="398" 
d="M302 430l-135 -166l135 -158h-82l-122 149v19l122 156h82z" />
    <glyph glyph-name="guilsinglright" unicode="&#x203a;" horiz-adv-x="398" 
d="M178 430l122 -156v-19l-122 -149h-81l134 158l-134 166h81z" />
    <glyph glyph-name="fraction" unicode="&#x2044;" horiz-adv-x="312" 
d="M-150 -40l551 826h67l-551 -826h-67z" />
    <glyph glyph-name="uni2070" unicode="&#x2070;" horiz-adv-x="548" 
d="M274 320q-109 0 -154.5 61.5t-45.5 203.5q0 141 46 203t154 62t154 -62t46 -203t-46 -203t-154 -62zM274 374q74 0 107 47.5t33 163.5t-33 163.5t-107 47.5t-107 -47.5t-33 -163.5t33 -163.5t107 -47.5z" />
    <glyph glyph-name="uni2074" unicode="&#x2074;" horiz-adv-x="484" 
d="M441 492v-54h-64v-110h-58v110h-273v54l241 351h90v-351h64zM115 492h204v311z" />
    <glyph glyph-name="uni2075" unicode="&#x2075;" horiz-adv-x="504" 
d="M271 667q85 0 129 -48.5t44 -126.5q0 -79 -46 -126t-142 -47q-88 0 -135 35t-55 87l57 13q7 -35 40.5 -59t92.5 -24q127 0 127 121q0 58 -34 91t-93 33q-41 0 -70.5 -12.5t-39.5 -25.5l-9 -12h-57l45 271h290v-53l-239 2l-27 -151q43 32 122 32z" />
    <glyph glyph-name="uni2076" unicode="&#x2076;" horiz-adv-x="533" 
d="M287 672q90 0 133 -49.5t43 -130.5q0 -79 -46.5 -126t-147.5 -47q-105 0 -150 57.5t-45 179.5q0 161 45 228.5t151 67.5q80 0 121 -35t50 -84l-56 -15q-7 34 -35 57t-80 23q-64 0 -95.5 -41t-38.5 -146q51 61 151 61zM270 372q130 0 130 122q0 124 -125 124
q-98 0 -140 -81q3 -89 35.5 -127t99.5 -38z" />
    <glyph glyph-name="uni2077" unicode="&#x2077;" horiz-adv-x="419" 
d="M124 328q0 70 20.5 143t49 126t57.5 96.5t49 66.5l21 22l-287 -1v59h354v-59q-8 -9 -21.5 -24.5t-48.5 -65t-61.5 -100t-48.5 -123.5t-22 -140h-62z" />
    <glyph glyph-name="uni2078" unicode="&#x2078;" horiz-adv-x="531" 
d="M73 469q0 65 32.5 99t63.5 35q-23 1 -51 29t-28 79q0 141 178 141q176 0 176 -141q0 -51 -27.5 -79t-51.5 -29q30 -1 63.5 -35t33.5 -99q0 -149 -194 -149q-195 0 -195 149zM150 705q0 -79 118 -79q116 0 116 79q0 99 -116 99q-118 0 -118 -99zM137 476q0 -103 131 -103
q130 0 130 103q0 99 -130 99q-68 0 -99.5 -24.5t-31.5 -74.5z" />
    <glyph glyph-name="uni2079" unicode="&#x2079;" horiz-adv-x="533" 
d="M266 852q106 0 151.5 -58.5t45.5 -191.5q0 -159 -44.5 -221t-152.5 -62q-87 0 -132 36.5t-53 86.5l57 10q7 -33 38 -56t90 -23q64 0 96 36.5t38 137.5q-51 -63 -149 -63q-177 0 -177 193q0 175 192 175zM261 539q99 0 141 81q-3 98 -35.5 138t-100.5 40q-130 0 -130 -123
q0 -136 125 -136z" />
    <glyph glyph-name="Euro" unicode="&#x20ac;" horiz-adv-x="676" 
d="M387 61q129 0 154 109l60 -13q-27 -154 -217 -154q-119 0 -177 58t-73 177h-90v54h85q-1 19 -1 58q0 31 1 46h-85v54h89q13 125 71 187t180 62q98 0 153 -43t67 -122l-60 -12q-24 119 -157 119q-83 0 -126.5 -46.5t-55.5 -144.5h233v-54h-238q-1 -15 -1 -46q0 -22 2 -58
h237v-54h-232q14 -90 57 -133.5t124 -43.5z" />
    <glyph glyph-name="uni20BD" unicode="&#x20bd;" horiz-adv-x="692" 
d="M359 324h-141v-83h192v-55h-192v-186h-72v186h-102v55h102v83h-102v59h102v328h213q144 0 210 -43t66 -151t-65.5 -150.5t-210.5 -42.5zM218 653v-271h148q35 0 62 3t53 11.5t42.5 23t27 39t10.5 58.5q0 42 -14.5 70t-43 42t-60.5 19t-77 5h-148z" />
    <glyph glyph-name="uni2116" unicode="&#x2116;" horiz-adv-x="1301" 
d="M966 251q-114 0 -161 59.5t-47 172.5t47 173t161 61q115 1 161.5 -59.5t46.5 -174.5q0 -113 -46.5 -172.5t-161.5 -59.5zM607 104l-3 604h67v-708h-72l-426 609l-2 -609h-65l4 708h72zM966 660q-76 0 -107.5 -44.5t-31.5 -132.5t32 -132t107 -44q77 0 108.5 43.5
t31.5 132.5q0 88 -32 132.5t-108 44.5zM753 180h426v-62h-426v62z" />
    <glyph glyph-name="uni2117" unicode="&#x2117;" horiz-adv-x="874" 
d="M436 726q101 0 174.5 -31t113.5 -86t58 -119.5t18 -141.5q0 -61 -10.5 -113.5t-37 -101.5t-67 -83t-104 -54.5t-145.5 -20.5q-100 0 -172.5 30.5t-113 84t-59 117.5t-18.5 141t18.5 141.5t59 119.5t113 86t172.5 31zM436 23q86 0 148.5 26t97 73t50 102.5t15.5 123.5
t-15.5 124t-50 104t-97 75t-148.5 27q-85 0 -147.5 -27t-96.5 -75t-49.5 -104t-15.5 -124q0 -53 9 -99t31.5 -88.5t57 -72.5t88.5 -47.5t123 -17.5zM460 552q79 0 115.5 -28.5t36.5 -105.5q0 -79 -36 -106.5t-117 -27.5h-108v-142h-50v410h159zM457 325q34 0 53.5 4.5t35 26
t15.5 62.5q0 57 -27 75t-78 18h-105v-186h106z" />
    <glyph glyph-name="uni2120" unicode="&#x2120;" horiz-adv-x="831" 
d="M118 637q0 -26 22 -40.5t54 -22t64 -17t54 -32t22 -59.5q0 -47 -33.5 -71.5t-98.5 -23.5q-123 2 -130 97l39 7q10 -69 90 -70q89 0 89 60q0 27 -22 42.5t-53.5 22.5t-63 16t-53.5 32t-22 61q0 43 31 67.5t94 24.5q117 -1 124 -86l-38 -7q-6 27 -23.5 42t-61.5 16
q-84 1 -84 -59zM746 725v-346h-41l3 299l-117 -299h-44l-114 302l3 -302h-40v346h60l114 -310l117 310h59z" />
    <glyph glyph-name="trademark" unicode="&#x2122;" horiz-adv-x="792" 
d="M316 725v-38h-112v-307h-44v307h-112v38h268zM698 725l-1 -346h-40l3 301l-117 -301h-44l-114 302l3 -302h-40v346h60l113 -309l117 309h60z" />
    <glyph glyph-name="oneeighth" unicode="&#x215b;" horiz-adv-x="1097" 
d="M127 -40l551 826h67l-551 -826h-67zM146 769h40v-517h-59v445l-100 -46v66zM639 141q0 65 32.5 99t63.5 35q-23 1 -51 29t-28 79q0 141 178 141q176 0 176 -141q0 -51 -27.5 -79t-51.5 -29q30 -1 63.5 -35t33.5 -99q0 -149 -194 -149q-195 0 -195 149zM716 377
q0 -79 118 -79q116 0 116 79q0 99 -116 99q-118 0 -118 -99zM703 148q0 -103 131 -103q130 0 130 103q0 99 -130 99q-68 0 -99.5 -24.5t-31.5 -74.5z" />
    <glyph glyph-name="threeeighths" unicode="&#x215c;" horiz-adv-x="1290" 
d="M320 -40l551 826h67l-551 -826h-67zM251 581q171 -13 171 -170q0 -76 -45.5 -122t-143.5 -46q-84 0 -128.5 36t-51.5 92l56 14q8 -38 39 -62t84 -24q127 0 127 116q0 55 -35.5 87t-99.5 32l-64 -5v46l166 132l-250 -1v55h335v-53zM832 141q0 65 32.5 99t63.5 35
q-23 1 -51 29t-28 79q0 141 178 141q176 0 176 -141q0 -51 -27.5 -79t-51.5 -29q30 -1 63.5 -35t33.5 -99q0 -149 -194 -149q-195 0 -195 149zM909 377q0 -79 118 -79q116 0 116 79q0 99 -116 99q-118 0 -118 -99zM896 148q0 -103 131 -103q130 0 130 103q0 99 -130 99
q-68 0 -99.5 -24.5t-31.5 -74.5z" />
    <glyph glyph-name="fiveeighths" unicode="&#x215d;" horiz-adv-x="1312" 
d="M342 -40l551 826h67l-551 -826h-67zM271 591q85 0 129 -48.5t44 -126.5q0 -79 -46 -126t-142 -47q-88 0 -135 35t-55 87l57 13q7 -35 40.5 -59t92.5 -24q127 0 127 121q0 58 -34 91t-93 33q-41 0 -70.5 -12.5t-39.5 -25.5l-9 -12h-57l45 271h290v-53l-239 2l-27 -151
q43 32 122 32zM854 141q0 65 32.5 99t63.5 35q-23 1 -51 29t-28 79q0 141 178 141q176 0 176 -141q0 -51 -27.5 -79t-51.5 -29q30 -1 63.5 -35t33.5 -99q0 -149 -194 -149q-195 0 -195 149zM931 377q0 -79 118 -79q116 0 116 79q0 99 -116 99q-118 0 -118 -99zM918 148
q0 -103 131 -103q130 0 130 103q0 99 -130 99q-68 0 -99.5 -24.5t-31.5 -74.5z" />
    <glyph glyph-name="seveneighths" unicode="&#x215e;" horiz-adv-x="1177" 
d="M207 -40l551 826h67l-551 -826h-67zM124 252q0 70 20.5 143t49 126t57.5 96.5t49 66.5l21 22l-287 -1v59h354v-59q-8 -9 -21.5 -24.5t-48.5 -65t-61.5 -100t-48.5 -123.5t-22 -140h-62zM719 141q0 65 32.5 99t63.5 35q-23 1 -51 29t-28 79q0 141 178 141q176 0 176 -141
q0 -51 -27.5 -79t-51.5 -29q30 -1 63.5 -35t33.5 -99q0 -149 -194 -149q-195 0 -195 149zM796 377q0 -79 118 -79q116 0 116 79q0 99 -116 99q-118 0 -118 -99zM783 148q0 -103 131 -103q130 0 130 103q0 99 -130 99q-68 0 -99.5 -24.5t-31.5 -74.5z" />
    <glyph glyph-name="arrowleft" unicode="&#x2190;" horiz-adv-x="712" 
d="M658 327v-70l-493 10l212 -175l-40 -43l-257 220v47l257 220l40 -43l-213 -175z" />
    <glyph glyph-name="arrowup" unicode="&#x2191;" horiz-adv-x="615" 
d="M551 326l-43 -39l-176 214l10 -496h-70l10 496l-176 -214l-42 39l220 257h46z" />
    <glyph glyph-name="arrowright" unicode="&#x2192;" horiz-adv-x="712" 
d="M374 534l257 -220v-47l-257 -220l-39 43l213 175l-495 -9v69l495 -9l-213 175z" />
    <glyph glyph-name="arrowdown" unicode="&#x2193;" horiz-adv-x="598" 
d="M500 295l42 -39l-219 -257h-47l-221 257l43 39l176 -214l-10 496h70l-9 -495z" />
    <glyph glyph-name="arrowboth" unicode="&#x2194;" horiz-adv-x="992" 
d="M657 507l255 -220v-48l-255 -219l-40 43l207 172l-656 -2l210 -172l-40 -43l-258 220v47l258 220l39 -42l-211 -174l661 1l-209 174z" />
    <glyph glyph-name="arrowupdn" unicode="&#x2195;" horiz-adv-x="616" 
d="M510 152l43 -39l-220 -254h-48l-220 254l44 40l171 -206l-1 646l-172 -210l-43 39l220 258h47l220 -258l-43 -39l-172 210l1 -649z" />
    <glyph glyph-name="uni2196" unicode="&#x2196;" horiz-adv-x="590" 
d="M532 115l-50 -50l-343 358l27 -276l-58 -2l-26 338l32 33l338 -26l-2 -58l-275 26z" />
    <glyph glyph-name="uni2197" unicode="&#x2197;" horiz-adv-x="590" 
d="M475 518l34 -33l-27 -338l-58 3l26 274l-343 -356l-49 49l356 343l-274 -26l-2 58z" />
    <glyph glyph-name="uni2198" unicode="&#x2198;" horiz-adv-x="590" 
d="M482 439l27 -337l-34 -34l-337 27l2 58l274 -26l-356 343l50 49l342 -356l-26 274z" />
    <glyph glyph-name="uni2199" unicode="&#x2199;" horiz-adv-x="590" 
d="M175 126l275 27l2 -58l-337 -26l-33 33l26 337l58 -2l-27 -275l344 356l49 -49z" />
    <glyph glyph-name="minus" unicode="&#x2212;" horiz-adv-x="478" 
d="M64 279v67h350v-67h-350z" />
    <glyph glyph-name="infinity" unicode="&#x221e;" horiz-adv-x="823" 
d="M765 304q0 -75 -40.5 -119.5t-124.5 -44.5h-1q-43 0 -80 19t-59 42t-49 61q-41 -58 -83 -90t-104 -32h-1q-84 0 -124.5 44.5t-40.5 119.5t40.5 119.5t124.5 44.5h1q62 0 104 -32t83 -90q27 38 49 61t59 42t80 19h1q84 0 124.5 -44.5t40.5 -119.5zM227 195q50 0 84 28
t71 81q-37 53 -71 81t-84 28q-57 0 -85 -29.5t-28 -79.5t28 -79.5t85 -29.5zM595 195q58 0 85.5 29t27.5 80t-27.5 80t-85.5 29q-49 0 -83 -28t-72 -81q38 -53 72 -81t83 -28z" />
    <glyph glyph-name="approxequal" unicode="&#x2248;" horiz-adv-x="585" 
d="M79 325q0 46 26 80.5t88 34.5q50 0 103.5 -27.5t90.5 -27.5q36 0 54 19.5t18 35.5h47q0 -46 -26 -80.5t-87 -34.5q-51 0 -104.5 27.5t-90.5 27.5q-36 0 -54 -19t-18 -36h-47zM79 173q0 46 26 80.5t88 34.5q50 0 103.5 -27.5t90.5 -27.5q36 0 54 19.5t18 35.5h47
q0 -46 -26 -80.5t-87 -34.5q-51 0 -104.5 27.5t-90.5 27.5q-36 0 -54 -19t-18 -36h-47z" />
    <glyph glyph-name="notequal" unicode="&#x2260;" horiz-adv-x="560" 
d="M479 344h-153l-46 -76h199v-66h-238l-52 -87h-61l52 87h-95v66h134l46 76h-180v67h220l49 82h61l-49 -82h113v-67z" />
    <glyph glyph-name="lessequal" unicode="&#x2264;" horiz-adv-x="592" 
d="M486 246v-64l-390 140v76l390 124v-63l-334 -100zM95 165h392v-67h-392v67z" />
    <glyph glyph-name="greaterequal" unicode="&#x2265;" horiz-adv-x="592" 
d="M496 398v-76l-391 -140v64l333 113l-333 100v63zM105 165h392v-67h-392v67z" />
    <glyph glyph-name="uni2661" unicode="&#x2661;" horiz-adv-x="778" 
d="M698 420q0 -60 -32.5 -124.5t-76 -111.5t-92 -88.5t-76 -60t-33.5 -21.5l-4 2q-164 109 -245 232q-59 90 -58 172q1 84 47.5 129t112.5 45q42 0 79.5 -17t49.5 -28.5t20 -21.5q0 1 5.5 7.5t17.5 16.5t28.5 19.5t42 16.5t53.5 7q66 0 113.5 -45t47.5 -129zM388 100
q4 2 25.5 17t57.5 46.5t69 67t57.5 82.5t24.5 90q0 58 -32.5 89.5t-75.5 31.5q-35 0 -65 -18.5t-43 -37.5l-13 -18h-6q-2 3 -5.5 8t-15.5 18t-25 22.5t-34 17.5t-43 8q-43 0 -75 -31.5t-33 -89.5q0 -25 7.5 -51t21 -49t31 -46t36.5 -43t38.5 -37.5t37 -31.5t31 -24t21.5 -15
z" />
    <glyph glyph-name="i.loclTRK" horiz-adv-x="274" 
d="M102 643v116h71v-116h-71zM102 0v535h70v-535h-70z" />
    <glyph glyph-name="a.sc" horiz-adv-x="611" 
d="M507 0l-56 146h-292l-56 -146h-74l240 591h74l240 -591h-76zM183 208h245l-123 321z" />
    <glyph glyph-name="aacute.sc" horiz-adv-x="611" 
d="M277 692l76 139h71l-89 -139h-58zM507 0l-56 146h-292l-56 -146h-74l240 591h74l240 -591h-76zM183 208h245l-123 321z" />
    <glyph glyph-name="abreve.sc" horiz-adv-x="611" 
d="M446 805q0 -39 -36 -77t-103 -38t-103 38t-36 77h62q0 -22 22.5 -44.5t54.5 -22.5t55 22.5t23 44.5h61zM507 0l-56 146h-292l-56 -146h-74l240 591h74l240 -591h-76zM183 208h245l-123 321z" />
    <glyph glyph-name="acircumflex.sc" horiz-adv-x="611" 
d="M452 691h-70l-75 89l-76 -89h-70l111 138h68zM507 0l-56 146h-292l-56 -146h-74l240 591h74l240 -591h-76zM183 208h245l-123 321z" />
    <glyph glyph-name="adieresis.sc" horiz-adv-x="611" 
d="M194 691v124h66v-124h-66zM353 691v124h67v-124h-67zM507 0l-56 146h-292l-56 -146h-74l240 591h74l240 -591h-76zM183 208h245l-123 321z" />
    <glyph glyph-name="uni1EA1.sc" horiz-adv-x="611" 
d="M507 0l-56 146h-292l-56 -146h-74l240 591h74l240 -591h-76zM183 208h245l-123 321zM271 -182v107h68v-107h-68z" />
    <glyph glyph-name="agrave.sc" horiz-adv-x="611" 
d="M336 692h-59l-89 139h72zM507 0l-56 146h-292l-56 -146h-74l240 591h74l240 -591h-76zM183 208h245l-123 321z" />
    <glyph glyph-name="amacron.sc" horiz-adv-x="611" 
d="M185 772h244v-53h-244v53zM507 0l-56 146h-292l-56 -146h-74l240 591h74l240 -591h-76zM183 208h245l-123 321z" />
    <glyph glyph-name="aogonek.sc" horiz-adv-x="611" 
d="M481 -97q0 -20 12 -30.5t30 -10.5q10 0 22.5 3t19.5 7l7 3v-46q-25 -18 -76 -18q-44 0 -65 21.5t-21 55.5q0 23 12.5 45t31.5 37.5t30.5 23.5t20.5 12l-54 140h-292l-56 -146h-74l240 591h74l240 -591h-14q-4 -2 -9.5 -5t-21 -13t-27 -21t-21 -27t-9.5 -31zM183 208h245
l-123 321z" />
    <glyph glyph-name="aring.sc" horiz-adv-x="611" 
d="M307 681q-42 0 -66.5 23.5t-24.5 62.5t24.5 62.5t66.5 23.5q43 0 67.5 -23.5t24.5 -62.5t-24.5 -62.5t-67.5 -23.5zM307 726q18 0 29 11t11 30t-11 29.5t-29 10.5t-28.5 -10.5t-10.5 -29.5t10.5 -30t28.5 -11zM507 0l-56 146h-292l-56 -146h-74l240 591h74l240 -591h-76z
M183 208h245l-123 321z" />
    <glyph glyph-name="aringacute.sc" horiz-adv-x="611" 
d="M285 893l76 139h71l-89 -139h-58zM307 681q-42 0 -66.5 23.5t-24.5 62.5t24.5 62.5t66.5 23.5q43 0 67.5 -23.5t24.5 -62.5t-24.5 -62.5t-67.5 -23.5zM307 726q18 0 29 11t11 30t-11 29.5t-29 10.5t-28.5 -10.5t-10.5 -29.5t10.5 -30t28.5 -11zM507 0l-56 146h-292
l-56 -146h-74l240 591h74l240 -591h-76zM183 208h245l-123 321z" />
    <glyph glyph-name="atilde.sc" horiz-adv-x="611" 
d="M451 795q0 -105 -84 -105q-35 0 -64.5 25t-48.5 25q-39 0 -39 -48h-52q0 104 83 104q28 0 47 -12.5t34 -25t33 -12.5q39 0 39 49h52zM507 0l-56 146h-292l-56 -146h-74l240 591h74l240 -591h-76zM183 208h245l-123 321z" />
    <glyph glyph-name="ae.sc" horiz-adv-x="845" 
d="M470 61h332v-61h-400v154h-211l-86 -154h-76l334 591h434v-61h-327v-194h283v-59h-283v-216zM223 212h179v323z" />
    <glyph glyph-name="aeacute.sc" horiz-adv-x="845" 
d="M390 692l76 139h71l-89 -139h-58zM470 61h332v-61h-400v154h-211l-86 -154h-76l334 591h434v-61h-327v-194h283v-59h-283v-216zM223 212h179v323z" />
    <glyph glyph-name="b.sc" horiz-adv-x="609" 
d="M445 309q104 -33 104 -147q0 -60 -17.5 -93t-73.5 -52t-163 -19h-205v595h206q135 0 185.5 -36.5t50.5 -111.5q0 -104 -87 -136zM301 538h-143v-200l171 -1q75 0 105.5 24.5t30.5 76.5q0 53 -37 76.5t-127 23.5zM301 53q106 0 143.5 24t37.5 89q0 115 -153 115h-171v-228
h143z" />
    <glyph glyph-name="ordfeminine.sc" horiz-adv-x="400" 
d="M343 303h-49l-5 37q-44 -46 -119 -46q-120 0 -120 102q0 58 37 82t106 24q43 0 91 -5q-2 51 -17.5 70.5t-65.5 19.5q-77 0 -90 -51l-44 9q4 35 34 61t98 26q29 0 51.5 -5t37 -11.5t24 -21t14.5 -25t7.5 -33.5t3 -36t0.5 -42v-73zM179 341q41 0 69 16.5t36 36.5v58
q-34 4 -78 4q-54 0 -78.5 -12.5t-24.5 -45.5q0 -57 76 -57z" />
    <glyph glyph-name="ordmasculine.sc" horiz-adv-x="394" 
d="M197 295q-83 0 -116.5 42.5t-33.5 126.5q0 83 33.5 125.5t116.5 42.5t116.5 -42t33.5 -126t-33.5 -126.5t-116.5 -42.5zM197 341q54 0 75.5 29.5t21.5 93.5q0 63 -21.5 93.5t-75.5 30.5q-53 0 -75 -30.5t-22 -93.5q0 -64 22 -93.5t75 -29.5z" />
    <glyph glyph-name="c.sc" horiz-adv-x="613" 
d="M549 164q-21 -179 -230 -179q-137 0 -196 78t-59 232t59 232.5t196 78.5q214 0 232 -188l-62 -17q-10 77 -49.5 109.5t-120.5 32.5q-99 0 -142.5 -61t-43.5 -187t43.5 -186.5t142.5 -60.5q80 0 119.5 29t50.5 104z" />
    <glyph glyph-name="cacute.sc" horiz-adv-x="613" 
d="M286 694l76 139h71l-89 -139h-58zM549 164q-21 -179 -230 -179q-137 0 -196 78t-59 232t59 232.5t196 78.5q214 0 232 -188l-62 -17q-10 77 -49.5 109.5t-120.5 32.5q-99 0 -142.5 -61t-43.5 -187t43.5 -186.5t142.5 -60.5q80 0 119.5 29t50.5 104z" />
    <glyph glyph-name="ccaron.sc" horiz-adv-x="613" 
d="M390 831h71l-112 -138h-68l-110 138h68l76 -87zM549 164q-21 -179 -230 -179q-137 0 -196 78t-59 232t59 232.5t196 78.5q214 0 232 -188l-62 -17q-10 77 -49.5 109.5t-120.5 32.5q-99 0 -142.5 -61t-43.5 -187t43.5 -186.5t142.5 -60.5q80 0 119.5 29t50.5 104z" />
    <glyph glyph-name="ccedilla.sc" horiz-adv-x="613" 
d="M319 48q80 0 119.5 29t50.5 104l60 -17q-19 -163 -194 -178l-23 -49q85 -7 85 -77q0 -48 -29.5 -66.5t-97.5 -18.5q-17 0 -32.5 1.5t-23.5 3.5l-7 2v45q18 -6 48 -6q41 0 57.5 9t16.5 36q0 46 -88 46h-6l34 74q-120 9 -172.5 86.5t-52.5 222.5q0 154 59 232.5t196 78.5
q214 0 232 -188l-62 -17q-10 77 -49.5 109.5t-120.5 32.5q-99 0 -142.5 -61t-43.5 -187t43.5 -186.5t142.5 -60.5z" />
    <glyph glyph-name="ccircumflex.sc" horiz-adv-x="613" 
d="M461 693h-70l-75 89l-76 -89h-70l111 138h68zM549 164q-21 -179 -230 -179q-137 0 -196 78t-59 232t59 232.5t196 78.5q214 0 232 -188l-62 -17q-10 77 -49.5 109.5t-120.5 32.5q-99 0 -142.5 -61t-43.5 -187t43.5 -186.5t142.5 -60.5q80 0 119.5 29t50.5 104z" />
    <glyph glyph-name="cdotaccent.sc" horiz-adv-x="613" 
d="M281 701v116h71v-116h-71zM549 164q-21 -179 -230 -179q-137 0 -196 78t-59 232t59 232.5t196 78.5q214 0 232 -188l-62 -17q-10 77 -49.5 109.5t-120.5 32.5q-99 0 -142.5 -61t-43.5 -187t43.5 -186.5t142.5 -60.5q80 0 119.5 29t50.5 104z" />
    <glyph glyph-name="d.sc" horiz-adv-x="626" 
d="M283 593q86 0 141.5 -18t85.5 -58t41 -91t11 -130t-11 -130.5t-41 -91.5t-85.5 -58t-141.5 -18h-193v595h193zM295 58q110 -1 153.5 53t43.5 185q0 130 -43.5 183.5t-153.5 53.5h-136v-475h136z" />
    <glyph glyph-name="eth.sc" horiz-adv-x="626" 
d="M283 593q86 0 141.5 -18t85.5 -58t41 -91t11 -130t-11 -130.5t-41 -91.5t-85.5 -58t-141.5 -18h-193v271h-79v55h79v269h193zM295 58q110 -1 153.5 53t43.5 185q0 130 -43.5 183.5t-153.5 53.5h-136v-209h119v-55h-119v-211h136z" />
    <glyph glyph-name="dcaron.sc" horiz-adv-x="626" 
d="M371 829h71l-112 -138h-68l-110 138h68l76 -87zM283 593q86 0 141.5 -18t85.5 -58t41 -91t11 -130t-11 -130.5t-41 -91.5t-85.5 -58t-141.5 -18h-193v595h193zM295 58q110 -1 153.5 53t43.5 185q0 130 -43.5 183.5t-153.5 53.5h-136v-475h136z" />
    <glyph glyph-name="dcroat.sc" horiz-adv-x="626" 
d="M283 593q86 0 141.5 -18t85.5 -58t41 -91t11 -130t-11 -130.5t-41 -91.5t-85.5 -58t-141.5 -18h-193v271h-79v55h79v269h193zM295 58q110 -1 153.5 53t43.5 185q0 130 -43.5 183.5t-153.5 53.5h-136v-209h119v-55h-119v-211h136z" />
    <glyph glyph-name="e.sc" horiz-adv-x="533" 
d="M158 61h332v-61h-400v591h395v-61h-327v-191h283v-65h-283v-213z" />
    <glyph glyph-name="eacute.sc" horiz-adv-x="533" 
d="M255 692l76 139h71l-89 -139h-58zM158 61h332v-61h-400v591h395v-61h-327v-191h283v-65h-283v-213z" />
    <glyph glyph-name="ebreve.sc" horiz-adv-x="533" 
d="M424 805q0 -39 -36 -77t-103 -38t-103 38t-36 77h62q0 -22 22.5 -44.5t54.5 -22.5t55 22.5t23 44.5h61zM158 61h332v-61h-400v591h395v-61h-327v-191h283v-65h-283v-213z" />
    <glyph glyph-name="ecaron.sc" horiz-adv-x="533" 
d="M359 829h71l-112 -138h-68l-110 138h68l76 -87zM158 61h332v-61h-400v591h395v-61h-327v-191h283v-65h-283v-213z" />
    <glyph glyph-name="ecircumflex.sc" horiz-adv-x="533" 
d="M430 691h-70l-75 89l-76 -89h-70l111 138h68zM158 61h332v-61h-400v591h395v-61h-327v-191h283v-65h-283v-213z" />
    <glyph glyph-name="edieresis.sc" horiz-adv-x="533" 
d="M172 691v124h66v-124h-66zM331 691v124h67v-124h-67zM158 61h332v-61h-400v591h395v-61h-327v-191h283v-65h-283v-213z" />
    <glyph glyph-name="edotaccent.sc" horiz-adv-x="533" 
d="M250 699v116h71v-116h-71zM158 61h332v-61h-400v591h395v-61h-327v-191h283v-65h-283v-213z" />
    <glyph glyph-name="uni1EB9.sc" horiz-adv-x="533" 
d="M158 61h332v-61h-400v591h395v-61h-327v-191h283v-65h-283v-213zM255 -181v107h68v-107h-68z" />
    <glyph glyph-name="egrave.sc" horiz-adv-x="533" 
d="M314 692h-59l-89 139h72zM158 61h332v-61h-400v591h395v-61h-327v-191h283v-65h-283v-213z" />
    <glyph glyph-name="emacron.sc" horiz-adv-x="533" 
d="M163 772h244v-53h-244v53zM158 61h332v-61h-400v591h395v-61h-327v-191h283v-65h-283v-213z" />
    <glyph glyph-name="eogonek.sc" horiz-adv-x="533" 
d="M444 -138q10 0 22.5 3t19.5 7l7 3v-46q-25 -18 -76 -18q-43 0 -64.5 21.5t-21.5 55.5q0 61 83 112h-324v591h395v-61h-327v-191h283v-65h-283v-213h332v-61q-4 -2 -9.5 -5t-21 -13t-27 -21t-21 -27t-9.5 -31q0 -20 12 -30.5t30 -10.5z" />
    <glyph glyph-name="uni1EBD.sc" horiz-adv-x="533" 
d="M429 795q0 -105 -84 -105q-35 0 -64.5 25t-48.5 25q-39 0 -39 -48h-52q0 104 83 104q28 0 47 -12.5t34 -25t33 -12.5q39 0 39 49h52zM158 61h332v-61h-400v591h395v-61h-327v-191h283v-65h-283v-213z" />
    <glyph glyph-name="uni0259.sc" horiz-adv-x="664" 
d="M332 606q139 0 198.5 -78t59.5 -233q0 -154 -59.5 -232t-198.5 -78q-140 0 -199.5 79t-59.5 238h447q-1 123 -44.5 183t-143.5 60q-73 0 -116 -30t-64 -92l-63 19q43 164 243 164zM332 49q90 0 134 47.5t52 145.5h-373q9 -99 53 -146t134 -47z" />
    <glyph glyph-name="f.sc" horiz-adv-x="509" 
d="M482 530h-324v-204h280v-65h-280v-261h-68v591h392v-61z" />
    <glyph glyph-name="g.sc" horiz-adv-x="616" 
d="M544 288v-219q0 -3 -8 -12t-26.5 -21t-43.5 -23.5t-64.5 -19.5t-84.5 -8q-136 0 -194.5 77.5t-58.5 231.5q0 155 58.5 233.5t194.5 78.5q211 0 229 -188l-66 -13q-1 61 -43.5 99.5t-119.5 38.5q-97 0 -140.5 -61.5t-43.5 -187.5q0 -127 44 -187.5t142 -60.5
q47 0 86.5 11.5t57.5 24t18 20.5v129h-131v57h194z" />
    <glyph glyph-name="gbreve.sc" horiz-adv-x="616" 
d="M455 807q0 -39 -36 -77t-103 -38t-103 38t-36 77h62q0 -22 22.5 -44.5t54.5 -22.5t55 22.5t23 44.5h61zM544 288v-219q0 -3 -8 -12t-26.5 -21t-43.5 -23.5t-64.5 -19.5t-84.5 -8q-136 0 -194.5 77.5t-58.5 231.5q0 155 58.5 233.5t194.5 78.5q211 0 229 -188l-66 -13
q-1 61 -43.5 99.5t-119.5 38.5q-97 0 -140.5 -61.5t-43.5 -187.5q0 -127 44 -187.5t142 -60.5q47 0 86.5 11.5t57.5 24t18 20.5v129h-131v57h194z" />
    <glyph glyph-name="gcaron.sc" horiz-adv-x="616" 
d="M390 831h71l-112 -138h-68l-110 138h68l76 -87zM544 288v-219q0 -3 -8 -12t-26.5 -21t-43.5 -23.5t-64.5 -19.5t-84.5 -8q-136 0 -194.5 77.5t-58.5 231.5q0 155 58.5 233.5t194.5 78.5q211 0 229 -188l-66 -13q-1 61 -43.5 99.5t-119.5 38.5q-97 0 -140.5 -61.5
t-43.5 -187.5q0 -127 44 -187.5t142 -60.5q47 0 86.5 11.5t57.5 24t18 20.5v129h-131v57h194z" />
    <glyph glyph-name="gcircumflex.sc" horiz-adv-x="616" 
d="M461 693h-70l-75 89l-76 -89h-70l111 138h68zM544 288v-219q0 -3 -8 -12t-26.5 -21t-43.5 -23.5t-64.5 -19.5t-84.5 -8q-136 0 -194.5 77.5t-58.5 231.5q0 155 58.5 233.5t194.5 78.5q211 0 229 -188l-66 -13q-1 61 -43.5 99.5t-119.5 38.5q-97 0 -140.5 -61.5
t-43.5 -187.5q0 -127 44 -187.5t142 -60.5q47 0 86.5 11.5t57.5 24t18 20.5v129h-131v57h194z" />
    <glyph glyph-name="gcommaaccent.sc" horiz-adv-x="616" 
d="M544 288v-219q0 -3 -8 -12t-26.5 -21t-43.5 -23.5t-64.5 -19.5t-84.5 -8q-136 0 -194.5 77.5t-58.5 231.5q0 155 58.5 233.5t194.5 78.5q211 0 229 -188l-66 -13q-1 61 -43.5 99.5t-119.5 38.5q-97 0 -140.5 -61.5t-43.5 -187.5q0 -127 44 -187.5t142 -60.5
q47 0 86.5 11.5t57.5 24t18 20.5v129h-131v57h194zM264 -241q17 39 30 94q6 22 9.5 45t4.5 35v12h64q-4 -48 -19 -96q-8 -25 -17.5 -47.5t-15.5 -32.5l-6 -10h-50z" />
    <glyph glyph-name="gdotaccent.sc" horiz-adv-x="616" 
d="M281 701v116h71v-116h-71zM544 288v-219q0 -3 -8 -12t-26.5 -21t-43.5 -23.5t-64.5 -19.5t-84.5 -8q-136 0 -194.5 77.5t-58.5 231.5q0 155 58.5 233.5t194.5 78.5q211 0 229 -188l-66 -13q-1 61 -43.5 99.5t-119.5 38.5q-97 0 -140.5 -61.5t-43.5 -187.5
q0 -127 44 -187.5t142 -60.5q47 0 86.5 11.5t57.5 24t18 20.5v129h-131v57h194z" />
    <glyph glyph-name="h.sc" horiz-adv-x="640" 
d="M483 591h68v-591h-68v277h-325v-277h-68v591h68v-252h325v252z" />
    <glyph glyph-name="hbar.sc" horiz-adv-x="640" 
d="M624 473v-62h-73v-411h-68v277h-325v-277h-68v411h-73v62h73v118h68v-118h325v118h68v-118h73zM483 339v72h-325v-72h325z" />
    <glyph glyph-name="hcircumflex.sc" horiz-adv-x="640" 
d="M466 691h-70l-75 89l-76 -89h-70l111 138h68zM483 591h68v-591h-68v277h-325v-277h-68v591h68v-252h325v252z" />
    <glyph glyph-name="i.sc" horiz-adv-x="247" 
d="M90 0v591h68v-591h-68z" />
    <glyph glyph-name="iacute.sc" horiz-adv-x="247" 
d="M96 692l76 139h71l-89 -139h-58zM90 0v591h68v-591h-68z" />
    <glyph glyph-name="ibreve.sc" horiz-adv-x="247" 
d="M265 805q0 -39 -36 -77t-103 -38t-103 38t-36 77h62q0 -22 22.5 -44.5t54.5 -22.5t55 22.5t23 44.5h61zM90 0v591h68v-591h-68z" />
    <glyph glyph-name="icircumflex.sc" horiz-adv-x="247" 
d="M271 691h-70l-75 89l-76 -89h-70l111 138h68zM90 0v591h68v-591h-68z" />
    <glyph glyph-name="idieresis.sc" horiz-adv-x="247" 
d="M13 691v124h66v-124h-66zM172 691v124h67v-124h-67zM90 0v591h68v-591h-68z" />
    <glyph glyph-name="i.sc.loclTRK" horiz-adv-x="247" 
d="M91 699v116h71v-116h-71zM90 0v591h68v-591h-68z" />
    <glyph glyph-name="uni1ECB.sc" horiz-adv-x="247" 
d="M90 0v591h68v-591h-68zM90 -183v107h68v-107h-68z" />
    <glyph glyph-name="igrave.sc" horiz-adv-x="247" 
d="M155 692h-59l-89 139h72zM90 0v591h68v-591h-68z" />
    <glyph glyph-name="ij.sc" horiz-adv-x="603" 
d="M90 0v591h68v-591h-68zM314 0h-46v60h46q87 0 114 35.5t27 134.5l1 361h67v-361q0 -69 -6.5 -108t-28.5 -69t-63 -41.5t-111 -11.5z" />
    <glyph glyph-name="imacron.sc" horiz-adv-x="247" 
d="M4 772h244v-53h-244v53zM90 0v591h68v-591h-68z" />
    <glyph glyph-name="iogonek.sc" horiz-adv-x="247" 
d="M111 -138q10 0 22.5 3t19.5 7l7 3v-46q-25 -18 -76 -18q-44 0 -65 21.5t-21 55.5q0 22 11 43t29 36.5t29.5 23.5t22.5 14v586h68v-591h-1q-4 -2 -9.5 -5t-21 -13t-27 -21t-21 -27t-9.5 -31q0 -20 12 -30.5t30 -10.5z" />
    <glyph glyph-name="itilde.sc" horiz-adv-x="247" 
d="M270 795q0 -105 -84 -105q-35 0 -64.5 25t-48.5 25q-39 0 -39 -48h-52q0 104 83 104q28 0 47 -12.5t34 -25t33 -12.5q39 0 39 49h52zM90 0v591h68v-591h-68z" />
    <glyph glyph-name="j.sc" horiz-adv-x="356" 
d="M67 0h-46v60h46q87 0 114 35.5t27 134.5l1 361h67v-361q0 -69 -6.5 -108t-28.5 -69t-63 -41.5t-111 -11.5z" />
    <glyph glyph-name="jcircumflex.sc" horiz-adv-x="356" 
d="M388 691h-70l-75 89l-76 -89h-70l111 138h68zM67 0h-46v60h46q87 0 114 35.5t27 134.5l1 361h67v-361q0 -69 -6.5 -108t-28.5 -69t-63 -41.5t-111 -11.5z" />
    <glyph glyph-name="k.sc" horiz-adv-x="586" 
d="M478 0l-185 294l-135 -153v-141h-68v591h68v-357l310 357h87l-216 -245l218 -346h-79z" />
    <glyph glyph-name="kcommaaccent.sc" horiz-adv-x="586" 
d="M478 0l-185 294l-135 -153v-141h-68v591h68v-357l310 357h87l-216 -245l218 -346h-79zM224 -224q17 39 30 94q6 22 9.5 45t4.5 35v12h64q-4 -48 -19 -96q-8 -25 -17.5 -47.5t-15.5 -32.5l-6 -10h-50z" />
    <glyph glyph-name="l.sc" horiz-adv-x="476" 
d="M158 64h287v-64h-355v591h68v-527z" />
    <glyph glyph-name="lacute.sc" horiz-adv-x="476" 
d="M102 692l76 139h71l-89 -139h-58zM158 64h287v-64h-355v591h68v-527z" />
    <glyph glyph-name="lcaron.sc" horiz-adv-x="476" 
d="M251 461l50 147h63l-68 -147h-45zM158 64h287v-64h-355v591h68v-527z" />
    <glyph glyph-name="lcommaaccent.sc" horiz-adv-x="476" 
d="M158 64h287v-64h-355v591h68v-527zM195 -221q17 39 30 94q6 22 9.5 45t3.5 35l1 12h64q-4 -48 -19 -96q-8 -25 -17.5 -47.5t-15.5 -32.5l-6 -10h-50z" />
    <glyph glyph-name="ldot.sc" horiz-adv-x="476" 
d="M178 64h287v-64h-355v591h68v-527zM266 245v123h74v-123h-74z" />
    <glyph glyph-name="lslash.sc" horiz-adv-x="476" 
d="M158 64h287v-64h-355v247l-81 -47l-24 47l105 61v283h68v-244l87 51l24 -47l-111 -64v-223z" />
    <glyph glyph-name="m.sc" horiz-adv-x="820" 
d="M731 591l-2 -591h-66l4 511l-228 -511h-66l-222 511l4 -511h-65v591h92l225 -527l227 527h97z" />
    <glyph glyph-name="n.sc" horiz-adv-x="662" 
d="M508 591h65v-591h-70l-350 507l1 -507h-64l3 591h72l347 -503z" />
    <glyph glyph-name="nacute.sc" horiz-adv-x="662" 
d="M304 692l76 139h71l-89 -139h-58zM508 591h65v-591h-70l-350 507l1 -507h-64l3 591h72l347 -503z" />
    <glyph glyph-name="ncaron.sc" horiz-adv-x="662" 
d="M408 829h71l-112 -138h-68l-110 138h68l76 -87zM508 591h65v-591h-70l-350 507l1 -507h-64l3 591h72l347 -503z" />
    <glyph glyph-name="ncommaaccent.sc" horiz-adv-x="662" 
d="M508 591h65v-591h-70l-350 507l1 -507h-64l3 591h72l347 -503zM277 -224q17 39 30 94q6 22 9.5 45t3.5 35l1 12h64q-4 -48 -19 -96q-8 -25 -17.5 -47.5t-15.5 -32.5l-6 -10h-50z" />
    <glyph glyph-name="eng.sc" horiz-adv-x="662" 
d="M509 591h64v-591q0 -95 -35 -140.5t-134 -45.5h-44v54h44q62 0 86 30.5t24 101.5h-1l-360 501l2 -501h-65l3 591h70l350 -488z" />
    <glyph glyph-name="uni0272.sc" horiz-adv-x="662" 
d="M507 591h66v-591h-71l-348 504l-1 -504q0 -99 -32.5 -142t-131.5 -43h-44v54h44q60 0 81 28t21 103l3 591h71l346 -498z" />
    <glyph glyph-name="ntilde.sc" horiz-adv-x="662" 
d="M478 795q0 -105 -84 -105q-35 0 -64.5 25t-48.5 25q-39 0 -39 -48h-52q0 104 83 104q28 0 47 -12.5t34 -25t33 -12.5q39 0 39 49h52zM508 591h65v-591h-70l-350 507l1 -507h-64l3 591h72l347 -503z" />
    <glyph glyph-name="o.sc" horiz-adv-x="645" 
d="M323 -15q-140 0 -199.5 77.5t-59.5 232.5t60 233t199 78t198.5 -78t59.5 -233q0 -154 -59.5 -232t-198.5 -78zM323 44q101 0 145 60.5t44 190.5t-44 191t-145 61q-102 0 -146 -61t-44 -191t44 -190.5t146 -60.5z" />
    <glyph glyph-name="oacute.sc" horiz-adv-x="645" 
d="M293 694l76 139h71l-89 -139h-58zM323 -15q-140 0 -199.5 77.5t-59.5 232.5t60 233t199 78t198.5 -78t59.5 -233q0 -154 -59.5 -232t-198.5 -78zM323 44q101 0 145 60.5t44 190.5t-44 191t-145 61q-102 0 -146 -61t-44 -191t44 -190.5t146 -60.5z" />
    <glyph glyph-name="obreve.sc" horiz-adv-x="645" 
d="M462 807q0 -39 -36 -77t-103 -38t-103 38t-36 77h62q0 -22 22.5 -44.5t54.5 -22.5t55 22.5t23 44.5h61zM323 -15q-140 0 -199.5 77.5t-59.5 232.5t60 233t199 78t198.5 -78t59.5 -233q0 -154 -59.5 -232t-198.5 -78zM323 44q101 0 145 60.5t44 190.5t-44 191t-145 61
q-102 0 -146 -61t-44 -191t44 -190.5t146 -60.5z" />
    <glyph glyph-name="ocircumflex.sc" horiz-adv-x="645" 
d="M468 693h-70l-75 89l-76 -89h-70l111 138h68zM323 -15q-140 0 -199.5 77.5t-59.5 232.5t60 233t199 78t198.5 -78t59.5 -233q0 -154 -59.5 -232t-198.5 -78zM323 44q101 0 145 60.5t44 190.5t-44 191t-145 61q-102 0 -146 -61t-44 -191t44 -190.5t146 -60.5z" />
    <glyph glyph-name="odieresis.sc" horiz-adv-x="645" 
d="M210 693v124h66v-124h-66zM369 693v124h67v-124h-67zM323 -15q-140 0 -199.5 77.5t-59.5 232.5t60 233t199 78t198.5 -78t59.5 -233q0 -154 -59.5 -232t-198.5 -78zM323 44q101 0 145 60.5t44 190.5t-44 191t-145 61q-102 0 -146 -61t-44 -191t44 -190.5t146 -60.5z" />
    <glyph glyph-name="uni1ECD.sc" horiz-adv-x="645" 
d="M323 -15q-140 0 -199.5 77.5t-59.5 232.5t60 233t199 78t198.5 -78t59.5 -233q0 -154 -59.5 -232t-198.5 -78zM323 44q101 0 145 60.5t44 190.5t-44 191t-145 61q-102 0 -146 -61t-44 -191t44 -190.5t146 -60.5zM289 -182v107h68v-107h-68z" />
    <glyph glyph-name="ograve.sc" horiz-adv-x="645" 
d="M352 694h-59l-89 139h72zM323 -15q-140 0 -199.5 77.5t-59.5 232.5t60 233t199 78t198.5 -78t59.5 -233q0 -154 -59.5 -232t-198.5 -78zM323 44q101 0 145 60.5t44 190.5t-44 191t-145 61q-102 0 -146 -61t-44 -191t44 -190.5t146 -60.5z" />
    <glyph glyph-name="ohungarumlaut.sc" horiz-adv-x="645" 
d="M204 694l69 139h76l-82 -139h-63zM346 694l82 139h76l-95 -139h-63zM323 -15q-140 0 -199.5 77.5t-59.5 232.5t60 233t199 78t198.5 -78t59.5 -233q0 -154 -59.5 -232t-198.5 -78zM323 44q101 0 145 60.5t44 190.5t-44 191t-145 61q-102 0 -146 -61t-44 -191t44 -190.5
t146 -60.5z" />
    <glyph glyph-name="omacron.sc" horiz-adv-x="645" 
d="M201 774h244v-53h-244v53zM323 -15q-140 0 -199.5 77.5t-59.5 232.5t60 233t199 78t198.5 -78t59.5 -233q0 -154 -59.5 -232t-198.5 -78zM323 44q101 0 145 60.5t44 190.5t-44 191t-145 61q-102 0 -146 -61t-44 -191t44 -190.5t146 -60.5z" />
    <glyph glyph-name="uni01EB.sc" horiz-adv-x="645" 
d="M438 3q-58 -38 -58 -79q0 -20 12 -30.5t30 -10.5q10 0 22.5 3.5t19.5 6.5l7 3v-46q-25 -18 -76 -18q-43 0 -64.5 21t-21.5 56q0 40 37 77q-7 -1 -23 -1q-140 0 -199.5 77.5t-59.5 232.5t60 233t199 78t198.5 -78t59.5 -233q0 -238 -143 -292zM133 295q0 -130 44 -190.5
t146 -60.5q101 0 145 60.5t44 190.5t-44 191t-145 61q-102 0 -146 -61t-44 -191z" />
    <glyph glyph-name="oslash.sc" horiz-adv-x="645" 
d="M600 600l-67 -89q48 -73 48 -216q0 -154 -59.5 -232t-198.5 -78q-97 0 -156 38l-30 -40h-89l68 90q-52 74 -52 222q0 155 60 233t199 78q99 0 161 -42l27 36h89zM133 295q0 -105 27 -162l284 378q-44 36 -121 36q-102 0 -146 -61t-44 -191zM512 295q0 100 -24 156
l-282 -376q43 -31 117 -31q101 0 145 60.5t44 190.5z" />
    <glyph glyph-name="oslashacute.sc" horiz-adv-x="645" 
d="M293 694l76 139h71l-89 -139h-58zM600 600l-67 -89q48 -73 48 -216q0 -154 -59.5 -232t-198.5 -78q-97 0 -156 38l-30 -40h-89l68 90q-52 74 -52 222q0 155 60 233t199 78q99 0 161 -42l27 36h89zM133 295q0 -105 27 -162l284 378q-44 36 -121 36q-102 0 -146 -61
t-44 -191zM512 295q0 100 -24 156l-282 -376q43 -31 117 -31q101 0 145 60.5t44 190.5z" />
    <glyph glyph-name="otilde.sc" horiz-adv-x="645" 
d="M467 797q0 -105 -84 -105q-35 0 -64.5 25t-48.5 25q-39 0 -39 -48h-52q0 104 83 104q28 0 47 -12.5t34 -25t33 -12.5q39 0 39 49h52zM323 -15q-140 0 -199.5 77.5t-59.5 232.5t60 233t199 78t198.5 -78t59.5 -233q0 -154 -59.5 -232t-198.5 -78zM323 44q101 0 145 60.5
t44 190.5t-44 191t-145 61q-102 0 -146 -61t-44 -191t44 -190.5t146 -60.5z" />
    <glyph glyph-name="oe.sc" horiz-adv-x="880" 
d="M505 61h332v-61h-515q-140 0 -199 73t-59 222t59 222.5t199 73.5h510v-61h-327v-194h283v-59h-283v-216zM322 57h115v477h-115q-101 0 -144.5 -59t-43.5 -180t43.5 -179.5t144.5 -58.5z" />
    <glyph glyph-name="p.sc" horiz-adv-x="600" 
d="M288 593q143 0 202.5 -41t59.5 -151t-59.5 -151.5t-202.5 -41.5h-130v-208h-68v593h198zM299 269q94 0 137.5 25.5t43.5 107.5q0 43 -12 70.5t-38 40.5t-55.5 17.5t-76.5 4.5h-140v-265z" />
    <glyph glyph-name="thorn.sc" horiz-adv-x="591" 
d="M310 490q123 0 177 -41t54 -152q0 -110 -54 -151t-179 -41h-149v-105h-69v591h70v-101h150zM313 165q79 0 119.5 26t40.5 107q0 80 -40.5 106t-120.5 26h-152l-1 -264z" />
    <glyph glyph-name="q.sc" horiz-adv-x="653" 
d="M600 -43l-51 -45l-100 96q-52 -23 -126 -23q-140 0 -199.5 77.5t-59.5 232.5t60 233t199 78t198.5 -78t59.5 -233q0 -181 -80 -254zM133 295q0 -130 44 -190.5t146 -60.5q101 0 145 60.5t44 190.5t-44 191t-145 61q-102 0 -146 -61t-44 -191z" />
    <glyph glyph-name="r.sc" horiz-adv-x="616" 
d="M559 0h-74l-128 229q-17 -1 -53 -1h-146v-228h-68v593h215q133 0 189.5 -38t56.5 -145q0 -79 -31 -119t-98 -54zM299 288q96 0 139 23t43 99q0 77 -43 100t-139 23h-141v-244z" />
    <glyph glyph-name="racute.sc" horiz-adv-x="616" 
d="M269 692l76 139h71l-89 -139h-58zM559 0h-74l-128 229q-17 -1 -53 -1h-146v-228h-68v593h215q133 0 189.5 -38t56.5 -145q0 -79 -31 -119t-98 -54zM299 288q96 0 139 23t43 99q0 77 -43 100t-139 23h-141v-244z" />
    <glyph glyph-name="rcaron.sc" horiz-adv-x="616" 
d="M373 829h71l-112 -138h-68l-110 138h68l76 -87zM559 0h-74l-128 229q-17 -1 -53 -1h-146v-228h-68v593h215q133 0 189.5 -38t56.5 -145q0 -79 -31 -119t-98 -54zM299 288q96 0 139 23t43 99q0 77 -43 100t-139 23h-141v-244z" />
    <glyph glyph-name="rcommaaccent.sc" horiz-adv-x="616" 
d="M559 0h-74l-128 229q-17 -1 -53 -1h-146v-228h-68v593h215q133 0 189.5 -38t56.5 -145q0 -79 -31 -119t-98 -54zM299 288q96 0 139 23t43 99q0 77 -43 100t-139 23h-141v-244zM239 -224q17 39 30 94q6 22 9.5 45t3.5 35l1 12h64q-4 -48 -19 -96q-8 -25 -17.5 -47.5
t-15.5 -32.5l-6 -10h-50z" />
    <glyph glyph-name="s.sc" horiz-adv-x="584" 
d="M125 165q17 -118 171 -121q163 -3 163 106q0 47 -40.5 73.5t-98 38.5t-115.5 27t-98 52.5t-40 100.5q1 78 56.5 122t166.5 43q108 -1 159.5 -38.5t60.5 -105.5l-63 -15q-9 44 -42 71t-115 28q-155 1 -155 -103q0 -46 40.5 -72t97.5 -38t114.5 -27t98 -53t40.5 -101
q0 -85 -60 -127.5t-173 -40.5q-211 3 -230 165z" />
    <glyph glyph-name="sacute.sc" horiz-adv-x="584" 
d="M261 694l76 139h71l-89 -139h-58zM125 165q17 -118 171 -121q163 -3 163 106q0 47 -40.5 73.5t-98 38.5t-115.5 27t-98 52.5t-40 100.5q1 78 56.5 122t166.5 43q108 -1 159.5 -38.5t60.5 -105.5l-63 -15q-9 44 -42 71t-115 28q-155 1 -155 -103q0 -46 40.5 -72t97.5 -38
t114.5 -27t98 -53t40.5 -101q0 -85 -60 -127.5t-173 -40.5q-211 3 -230 165z" />
    <glyph glyph-name="scaron.sc" horiz-adv-x="584" 
d="M365 831h71l-112 -138h-68l-110 138h68l76 -87zM125 165q17 -118 171 -121q163 -3 163 106q0 47 -40.5 73.5t-98 38.5t-115.5 27t-98 52.5t-40 100.5q1 78 56.5 122t166.5 43q108 -1 159.5 -38.5t60.5 -105.5l-63 -15q-9 44 -42 71t-115 28q-155 1 -155 -103
q0 -46 40.5 -72t97.5 -38t114.5 -27t98 -53t40.5 -101q0 -85 -60 -127.5t-173 -40.5q-211 3 -230 165z" />
    <glyph glyph-name="scedilla.sc" horiz-adv-x="584" 
d="M526 153q0 -77 -49 -119t-142 -48l-27 -57q85 -7 85 -77q0 -48 -29.5 -66.5t-97.5 -18.5q-17 0 -32.5 1.5t-23.5 3.5l-7 2v45q18 -6 48 -6q41 0 57.5 9t16.5 36q0 46 -88 46h-6l38 82q-189 13 -206 164l62 15q17 -118 171 -121q163 -3 163 106q0 47 -40.5 73.5t-98 38.5
t-115.5 27t-98 52.5t-40 100.5q1 78 56.5 122t166.5 43q108 -1 159.5 -38.5t60.5 -105.5l-63 -15q-9 44 -42 71t-115 28q-155 1 -155 -103q0 -46 40.5 -72t97.5 -38t114.5 -27t98 -53t40.5 -101z" />
    <glyph glyph-name="scircumflex.sc" horiz-adv-x="584" 
d="M436 693h-70l-75 89l-76 -89h-70l111 138h68zM125 165q17 -118 171 -121q163 -3 163 106q0 47 -40.5 73.5t-98 38.5t-115.5 27t-98 52.5t-40 100.5q1 78 56.5 122t166.5 43q108 -1 159.5 -38.5t60.5 -105.5l-63 -15q-9 44 -42 71t-115 28q-155 1 -155 -103
q0 -46 40.5 -72t97.5 -38t114.5 -27t98 -53t40.5 -101q0 -85 -60 -127.5t-173 -40.5q-211 3 -230 165z" />
    <glyph glyph-name="scommaaccent.sc" horiz-adv-x="584" 
d="M125 165q17 -118 171 -121q163 -3 163 106q0 47 -40.5 73.5t-98 38.5t-115.5 27t-98 52.5t-40 100.5q1 78 56.5 122t166.5 43q108 -1 159.5 -38.5t60.5 -105.5l-63 -15q-9 44 -42 71t-115 28q-155 1 -155 -103q0 -46 40.5 -72t97.5 -38t114.5 -27t98 -53t40.5 -101
q0 -85 -60 -127.5t-173 -40.5q-211 3 -230 165zM244 -238q17 39 30 94q6 22 9.5 45t4.5 35v12h64q-4 -48 -19 -96q-8 -25 -17.5 -47.5t-15.5 -32.5l-6 -10h-50z" />
    <glyph glyph-name="germandbls.sc" horiz-adv-x="636" 
d="M378 376q99 -6 148.5 -54t49.5 -133t-52 -137t-166 -52h-136v57h133q75 0 112.5 36.5t37.5 103.5q0 63 -42 98t-113 35q-16 0 -34.5 -2t-29.5 -4l-10 -2v46l191 166h-187q-123 0 -123 -128v-406h-67v410q0 86 40.5 133t145.5 48h279v-57z" />
    <glyph glyph-name="t.sc" horiz-adv-x="525" 
d="M498 591v-62h-201l-4 -529h-67l3 529h-202v62h471z" />
    <glyph glyph-name="tbar.sc" horiz-adv-x="525" 
d="M518 529h-201l-2 -223h106v-54h-106l-2 -252h-67l1 252h-102v54h103l1 223h-202v62h471v-62z" />
    <glyph glyph-name="tcaron.sc" horiz-adv-x="525" 
d="M337 829h71l-112 -138h-68l-110 138h68l76 -87zM498 591v-62h-201l-4 -529h-67l3 529h-202v62h471z" />
    <glyph glyph-name="uni0163.sc" horiz-adv-x="525" 
d="M293 0l-29 -59q85 -7 85 -77q0 -48 -29.5 -66.5t-97.5 -18.5q-17 0 -32.5 1.5t-23.5 3.5l-7 2v45q18 -6 48 -6q41 0 57.5 9t16.5 36q0 46 -88 46h-6l39 85l3 528h-202v62h471v-62h-201z" />
    <glyph glyph-name="uni021B.sc" horiz-adv-x="525" 
d="M518 591v-62h-201l-4 -529h-67l3 529h-202v62h471zM204 -225q17 39 30 94q5 22 8.5 45t4.5 34l1 12h64q-6 -48 -20 -96q-8 -25 -17.5 -47.5t-15.5 -32.5l-6 -9h-49z" />
    <glyph glyph-name="u.sc" horiz-adv-x="635" 
d="M317 -15q-75 0 -123 20.5t-72.5 64.5t-33 96t-8.5 131v294h68v-293q0 -131 35.5 -190t132.5 -59q99 0 134.5 58.5t35.5 190.5v293h69v-294q0 -63 -5 -107.5t-20 -85.5t-41.5 -65.5t-69 -39t-102.5 -14.5z" />
    <glyph glyph-name="uacute.sc" horiz-adv-x="635" 
d="M288 692l76 139h71l-89 -139h-58zM317 -15q-75 0 -123 20.5t-72.5 64.5t-33 96t-8.5 131v294h68v-293q0 -131 35.5 -190t132.5 -59q99 0 134.5 58.5t35.5 190.5v293h69v-294q0 -63 -5 -107.5t-20 -85.5t-41.5 -65.5t-69 -39t-102.5 -14.5z" />
    <glyph glyph-name="ubreve.sc" horiz-adv-x="635" 
d="M457 805q0 -39 -36 -77t-103 -38t-103 38t-36 77h62q0 -22 22.5 -44.5t54.5 -22.5t55 22.5t23 44.5h61zM317 -15q-75 0 -123 20.5t-72.5 64.5t-33 96t-8.5 131v294h68v-293q0 -131 35.5 -190t132.5 -59q99 0 134.5 58.5t35.5 190.5v293h69v-294q0 -63 -5 -107.5
t-20 -85.5t-41.5 -65.5t-69 -39t-102.5 -14.5z" />
    <glyph glyph-name="ucircumflex.sc" horiz-adv-x="635" 
d="M463 691h-70l-75 89l-76 -89h-70l111 138h68zM317 -15q-75 0 -123 20.5t-72.5 64.5t-33 96t-8.5 131v294h68v-293q0 -131 35.5 -190t132.5 -59q99 0 134.5 58.5t35.5 190.5v293h69v-294q0 -63 -5 -107.5t-20 -85.5t-41.5 -65.5t-69 -39t-102.5 -14.5z" />
    <glyph glyph-name="udieresis.sc" horiz-adv-x="635" 
d="M205 691v124h66v-124h-66zM364 691v124h67v-124h-67zM317 -15q-75 0 -123 20.5t-72.5 64.5t-33 96t-8.5 131v294h68v-293q0 -131 35.5 -190t132.5 -59q99 0 134.5 58.5t35.5 190.5v293h69v-294q0 -63 -5 -107.5t-20 -85.5t-41.5 -65.5t-69 -39t-102.5 -14.5z" />
    <glyph glyph-name="uni1EE5.sc" horiz-adv-x="635" 
d="M317 -15q-75 0 -123 20.5t-72.5 64.5t-33 96t-8.5 131v294h68v-293q0 -131 35.5 -190t132.5 -59q99 0 134.5 58.5t35.5 190.5v293h69v-294q0 -63 -5 -107.5t-20 -85.5t-41.5 -65.5t-69 -39t-102.5 -14.5zM283 -185v107h68v-107h-68z" />
    <glyph glyph-name="ugrave.sc" horiz-adv-x="635" 
d="M347 692h-59l-89 139h72zM317 -15q-75 0 -123 20.5t-72.5 64.5t-33 96t-8.5 131v294h68v-293q0 -131 35.5 -190t132.5 -59q99 0 134.5 58.5t35.5 190.5v293h69v-294q0 -63 -5 -107.5t-20 -85.5t-41.5 -65.5t-69 -39t-102.5 -14.5z" />
    <glyph glyph-name="uhungarumlaut.sc" horiz-adv-x="635" 
d="M199 692l69 139h76l-82 -139h-63zM341 692l82 139h76l-95 -139h-63zM317 -15q-75 0 -123 20.5t-72.5 64.5t-33 96t-8.5 131v294h68v-293q0 -131 35.5 -190t132.5 -59q99 0 134.5 58.5t35.5 190.5v293h69v-294q0 -63 -5 -107.5t-20 -85.5t-41.5 -65.5t-69 -39
t-102.5 -14.5z" />
    <glyph glyph-name="umacron.sc" horiz-adv-x="635" 
d="M196 772h244v-53h-244v53zM317 -15q-75 0 -123 20.5t-72.5 64.5t-33 96t-8.5 131v294h68v-293q0 -131 35.5 -190t132.5 -59q99 0 134.5 58.5t35.5 190.5v293h69v-294q0 -63 -5 -107.5t-20 -85.5t-41.5 -65.5t-69 -39t-102.5 -14.5z" />
    <glyph glyph-name="uogonek.sc" horiz-adv-x="635" 
d="M486 591h69v-294q0 -124 -26 -195.5t-100 -99.5q-59 -40 -59 -80q0 -20 12 -30.5t30 -10.5q10 0 22.5 3.5t19.5 6.5l7 3v-46q-25 -18 -76 -18q-43 0 -64.5 21t-21.5 56q0 41 39 78h-21q-75 0 -123 20.5t-72.5 64.5t-33 96t-8.5 131v294h68v-293q0 -131 35.5 -190
t132.5 -59q99 0 134.5 58.5t35.5 190.5v293z" />
    <glyph glyph-name="uring.sc" horiz-adv-x="635" 
d="M318 681q-42 0 -66.5 23.5t-24.5 62.5t24.5 62.5t66.5 23.5q43 0 67.5 -23.5t24.5 -62.5t-24.5 -62.5t-67.5 -23.5zM318 726q18 0 29 11t11 30t-11 29.5t-29 10.5t-28.5 -10.5t-10.5 -29.5t10.5 -30t28.5 -11zM317 -15q-75 0 -123 20.5t-72.5 64.5t-33 96t-8.5 131v294
h68v-293q0 -131 35.5 -190t132.5 -59q99 0 134.5 58.5t35.5 190.5v293h69v-294q0 -63 -5 -107.5t-20 -85.5t-41.5 -65.5t-69 -39t-102.5 -14.5z" />
    <glyph glyph-name="utilde.sc" horiz-adv-x="635" 
d="M462 795q0 -105 -84 -105q-35 0 -64.5 25t-48.5 25q-39 0 -39 -48h-52q0 104 83 104q28 0 47 -12.5t34 -25t33 -12.5q39 0 39 49h52zM317 -15q-75 0 -123 20.5t-72.5 64.5t-33 96t-8.5 131v294h68v-293q0 -131 35.5 -190t132.5 -59q99 0 134.5 58.5t35.5 190.5v293h69
v-294q0 -63 -5 -107.5t-20 -85.5t-41.5 -65.5t-69 -39t-102.5 -14.5z" />
    <glyph glyph-name="v.sc" horiz-adv-x="574" 
d="M478 591h74l-223 -591h-82l-225 591h76l191 -532z" />
    <glyph glyph-name="w.sc" horiz-adv-x="880" 
d="M773 591h75l-183 -591h-80l-144 524l-143 -524h-81l-185 591h77l150 -531l142 531h78l147 -528z" />
    <glyph glyph-name="wacute.sc" horiz-adv-x="880" 
d="M411 692l76 139h71l-89 -139h-58zM773 591h75l-183 -591h-80l-144 524l-143 -524h-81l-185 591h77l150 -531l142 531h78l147 -528z" />
    <glyph glyph-name="wcircumflex.sc" horiz-adv-x="880" 
d="M586 691h-70l-75 89l-76 -89h-70l111 138h68zM773 591h75l-183 -591h-80l-144 524l-143 -524h-81l-185 591h77l150 -531l142 531h78l147 -528z" />
    <glyph glyph-name="wdieresis.sc" horiz-adv-x="880" 
d="M328 691v124h66v-124h-66zM487 691v124h67v-124h-67zM773 591h75l-183 -591h-80l-144 524l-143 -524h-81l-185 591h77l150 -531l142 531h78l147 -528z" />
    <glyph glyph-name="wgrave.sc" horiz-adv-x="880" 
d="M470 692h-59l-89 139h72zM773 591h75l-183 -591h-80l-144 524l-143 -524h-81l-185 591h77l150 -531l142 531h78l147 -528z" />
    <glyph glyph-name="x.sc" horiz-adv-x="585" 
d="M553 591l-218 -294l214 -297h-78l-180 253l-181 -253h-80l217 296l-214 295h78l181 -251l180 251h81z" />
    <glyph glyph-name="y.sc" horiz-adv-x="565" 
d="M455 591h81l-217 -398v-193h-68v193l-222 398h79l177 -338z" />
    <glyph glyph-name="yacute.sc" horiz-adv-x="565" 
d="M252 692l76 139h71l-89 -139h-58zM455 591h81l-217 -398v-193h-68v193l-222 398h79l177 -338z" />
    <glyph glyph-name="ycircumflex.sc" horiz-adv-x="565" 
d="M427 691h-70l-75 89l-76 -89h-70l111 138h68zM455 591h81l-217 -398v-193h-68v193l-222 398h79l177 -338z" />
    <glyph glyph-name="ydieresis.sc" horiz-adv-x="565" 
d="M169 691v124h66v-124h-66zM328 691v124h67v-124h-67zM455 591h81l-217 -398v-193h-68v193l-222 398h79l177 -338z" />
    <glyph glyph-name="ygrave.sc" horiz-adv-x="565" 
d="M311 692h-59l-89 139h72zM455 591h81l-217 -398v-193h-68v193l-222 398h79l177 -338z" />
    <glyph glyph-name="uni0233.sc" horiz-adv-x="565" 
d="M160 772h244v-53h-244v53zM455 591h81l-217 -398v-193h-68v193l-222 398h79l177 -338z" />
    <glyph glyph-name="uni1EF9.sc" horiz-adv-x="565" 
d="M426 795q0 -105 -84 -105q-35 0 -64.5 25t-48.5 25q-39 0 -39 -48h-52q0 104 83 104q28 0 47 -12.5t34 -25t33 -12.5q39 0 39 49h52zM455 591h81l-217 -398v-193h-68v193l-222 398h79l177 -338z" />
    <glyph glyph-name="z.sc" horiz-adv-x="513" 
d="M115 62h361v-59h-440v59l357 468h-342v58h421v-58z" />
    <glyph glyph-name="zacute.sc" horiz-adv-x="513" 
d="M232 692l76 139h71l-89 -139h-58zM115 62h361v-59h-440v59l357 468h-342v58h421v-58z" />
    <glyph glyph-name="zcaron.sc" horiz-adv-x="513" 
d="M336 829h71l-112 -138h-68l-110 138h68l76 -87zM115 62h361v-59h-440v59l357 468h-342v58h421v-58z" />
    <glyph glyph-name="zdotaccent.sc" horiz-adv-x="513" 
d="M227 699v116h71v-116h-71zM115 62h361v-59h-440v59l357 468h-342v58h421v-58z" />
    <glyph glyph-name="zero.lf" horiz-adv-x="689" 
d="M344 -11q-146 0 -208.5 85.5t-62.5 276.5t62.5 276.5t208.5 85.5t209 -85.5t63 -276.5q0 -192 -63 -277t-209 -85zM344 55q106 0 153 66.5t47 229.5q0 162 -47 229.5t-153 67.5q-105 0 -152 -67.5t-47 -229.5t47 -229t152 -67z" />
    <glyph glyph-name="one.lf" horiz-adv-x="359" 
d="M181 706h47v-706h-70v619l-137 -61v77z" />
    <glyph glyph-name="two.lf" horiz-adv-x="578" 
d="M146 68l373 3v-66h-479v69q99 72 208 165q54 46 79.5 69.5t56 59t42 69.5t11.5 75q0 59 -40.5 97t-118.5 38q-68 0 -113.5 -38t-50.5 -96l-70 13q9 82 70.5 134.5t162.5 52.5q117 0 175 -56t58 -140q0 -30 -6 -58t-11.5 -47.5t-24 -46.5t-26.5 -39t-37.5 -41.5t-38.5 -38
t-47 -43.5q-49 -45 -173 -135z" />
    <glyph glyph-name="three.lf" horiz-adv-x="609" 
d="M300 449q120 -7 180.5 -64.5t60.5 -158.5q0 -110 -61 -174t-195 -64q-116 0 -177.5 51t-70.5 128l69 14q7 -56 52.5 -91.5t124.5 -35.5q183 0 183 177q0 76 -52.5 118.5t-138.5 42.5l-94 -7v55l242 192h-350v67h453v-67z" />
    <glyph glyph-name="four.lf" horiz-adv-x="599" 
d="M561 218v-63h-87v-155h-69v155h-379v63l342 486h106v-486h87zM105 218h300v431z" />
    <glyph glyph-name="five.lf" horiz-adv-x="635" 
d="M348 462q111 0 170.5 -66.5t59.5 -171.5q0 -107 -63 -171.5t-194 -64.5q-120 0 -184.5 48.5t-75.5 119.5l71 17q9 -52 57 -86t132 -34q90 0 137 44.5t47 126.5q0 83 -47.5 129.5t-127.5 46.5q-39 0 -72 -7t-51.5 -17.5t-31.5 -21t-17 -17.5l-5 -7l-69 1l63 364h391v-65
l-332 -3l-38 -211q62 46 180 46z" />
    <glyph glyph-name="six.lf" horiz-adv-x="667" 
d="M362 469q123 0 182.5 -66.5t59.5 -176.5q0 -109 -63 -173t-200 -65q-143 0 -205 78.5t-62 244.5q0 220 61.5 312t205.5 92q111 0 167.5 -51t65.5 -119l-65 -17q-9 52 -49 88t-119 36q-92 0 -137.5 -60t-54.5 -214q70 91 213 91zM341 52q188 0 188 176t-180 176
q-45 0 -82.5 -12.5t-60.5 -33t-36.5 -37.5t-22.5 -36q4 -124 51 -178.5t143 -54.5z" />
    <glyph glyph-name="seven.lf" horiz-adv-x="523" 
d="M144 0q0 71 15 144t39.5 133t54 116t58.5 98t53.5 73.5t39.5 47.5l15 16l-400 2v69h482v-71q-12 -12 -31 -33.5t-68 -90t-86.5 -138.5t-68.5 -171t-31 -195h-72z" />
    <glyph glyph-name="eight.lf" horiz-adv-x="658" 
d="M64 193q0 47 16.5 84.5t40.5 57.5t45 30t36 10q-9 0 -26.5 9t-38 25t-35 46.5t-14.5 67.5q0 89 57 140.5t184 51.5q240 0 240 -192q0 -69 -41.5 -108t-71.5 -40q14 0 35 -10t45 -30t40.5 -57.5t16.5 -84.5q0 -204 -264 -204q-265 0 -265 204zM160 517q0 -52 43.5 -83
t125.5 -31q81 0 125 31.5t44 82.5q0 140 -169 140t-169 -140zM141 199q0 -145 188 -145t188 145q0 67 -48.5 104.5t-139.5 37.5q-92 0 -140 -37.5t-48 -104.5z" />
    <glyph glyph-name="nine.lf" horiz-adv-x="671" 
d="M330 715q144 1 205.5 -79t61.5 -263q0 -215 -60.5 -300t-207.5 -85q-118 0 -179.5 49.5t-73.5 116.5l68 16q11 -49 56 -83.5t129 -34.5q93 0 137 53t55 200q-69 -92 -210 -92q-128 0 -186 70.5t-58 193.5q0 107 67.5 172.5t195.5 65.5zM322 279q46 0 83 13t60.5 34.5
t36.5 39t22 35.5q-4 137 -50.5 194t-143.5 57q-86 0 -137.5 -47t-51.5 -131q0 -94 46 -144.5t135 -50.5z" />
    <glyph glyph-name="zero.tf" horiz-adv-x="676" 
d="M355 -11q-146 0 -208.5 85.5t-62.5 276.5t62.5 276.5t208.5 85.5t209 -85.5t63 -276.5q0 -192 -63 -277t-209 -85zM355 55q106 0 153 66.5t47 229.5q0 162 -47 229.5t-153 67.5q-105 0 -152 -67.5t-47 -229.5t47 -229t152 -67z" />
    <glyph glyph-name="one.tf" horiz-adv-x="676" 
d="M398 57h128v-57h-328v57h130v562l-137 -61v77l160 71h47v-649z" />
    <glyph glyph-name="two.tf" horiz-adv-x="676" 
d="M206 68l373 3v-66h-479v69q99 72 208 165q54 46 79.5 69.5t56 59t42 69.5t11.5 75q0 59 -40.5 97t-118.5 38q-68 0 -113.5 -38t-50.5 -96l-70 13q9 82 70.5 134.5t162.5 52.5q117 0 175 -56t58 -140q0 -30 -6 -58t-11.5 -47.5t-24 -46.5t-26.5 -39t-37.5 -41.5t-38.5 -38
t-47 -43.5q-49 -45 -173 -135z" />
    <glyph glyph-name="three.tf" horiz-adv-x="676" 
d="M345 449q120 -7 180.5 -64.5t60.5 -158.5q0 -110 -61 -174t-195 -64q-116 0 -177.5 51t-70.5 128l69 14q7 -56 52.5 -91.5t124.5 -35.5q183 0 183 177q0 76 -52.5 118.5t-138.5 42.5l-94 -7v55l242 192h-350v67h453v-67z" />
    <glyph glyph-name="four.tf" horiz-adv-x="676" 
d="M587 218v-63h-87v-155h-69v155h-379v63l342 486h106v-486h87zM131 218h300v431z" />
    <glyph glyph-name="five.tf" horiz-adv-x="676" 
d="M367 462q111 0 170.5 -66.5t59.5 -171.5q0 -107 -63 -171.5t-194 -64.5q-120 0 -184.5 48.5t-75.5 119.5l71 17q9 -52 57 -86t132 -34q90 0 137 44.5t47 126.5q0 83 -47.5 129.5t-127.5 46.5q-39 0 -72 -7t-51.5 -17.5t-31.5 -21t-18 -17.5l-4 -7l-69 1l63 364h391v-65
l-332 -3l-38 -211q62 46 180 46z" />
    <glyph glyph-name="six.tf" horiz-adv-x="676" 
d="M380 469q123 0 182.5 -66.5t59.5 -176.5q0 -109 -63 -173t-200 -65q-143 0 -205 78.5t-62 244.5q0 220 61.5 312t205.5 92q111 0 167.5 -51t65.5 -119l-65 -17q-9 52 -49 88t-119 36q-92 0 -137.5 -60t-54.5 -214q70 91 213 91zM359 52q188 0 188 176t-180 176
q-45 0 -82.5 -12.5t-60.5 -33t-36.5 -37.5t-22.5 -36q4 -124 51 -178.5t143 -54.5z" />
    <glyph glyph-name="seven.tf" horiz-adv-x="676" 
d="M240 0q0 71 15 144t39.5 133t54 116t58.5 98t53.5 73.5t39.5 47.5l15 16l-400 2v69h482v-71q-12 -12 -31 -33.5t-68 -90t-86.5 -138.5t-68.5 -171t-31 -195h-72z" />
    <glyph glyph-name="eight.tf" horiz-adv-x="676" 
d="M84 193q0 47 16.5 84.5t40.5 57.5t45 30t36 10q-9 0 -26.5 9t-38 25t-35 46.5t-14.5 67.5q0 89 57 140.5t184 51.5q240 0 240 -192q0 -69 -41.5 -108t-71.5 -40q14 0 35 -10t45 -30t40.5 -57.5t16.5 -84.5q0 -204 -264 -204q-265 0 -265 204zM180 517q0 -52 43.5 -83
t125.5 -31q81 0 125 31.5t44 82.5q0 140 -169 140t-169 -140zM161 199q0 -145 188 -145t188 145q0 67 -48.5 104.5t-139.5 37.5q-92 0 -140 -37.5t-48 -104.5z" />
    <glyph glyph-name="nine.tf" horiz-adv-x="676" 
d="M348 715q144 1 205.5 -79t61.5 -263q0 -215 -60.5 -300t-207.5 -85q-118 0 -179.5 49.5t-73.5 116.5l68 16q11 -49 56 -83.5t129 -34.5q93 0 137 53t55 200q-69 -92 -210 -92q-128 0 -186 70.5t-58 193.5q0 107 67.5 172.5t195.5 65.5zM340 279q46 0 83 13t60.5 34.5
t36.5 39t22 35.5q-4 137 -50.5 194t-143.5 57q-86 0 -137.5 -47t-51.5 -131q0 -94 46 -144.5t135 -50.5z" />
    <glyph glyph-name="zero.subs" horiz-adv-x="548" 
d="M274 -201q-109 0 -154.5 61.5t-45.5 203.5q0 141 46 203t154 62t154 -62t46 -203t-46 -203t-154 -62zM274 -147q74 0 107 47.5t33 163.5t-33 163.5t-107 47.5t-107 -47.5t-33 -163.5t33 -163.5t107 -47.5z" />
    <glyph glyph-name="one.subs" horiz-adv-x="277" 
d="M146 324h40v-517h-59v445l-100 -46v66z" />
    <glyph glyph-name="two.subs" horiz-adv-x="430" 
d="M130 -136l256 3v-55h-346v53l148 127q40 34 57.5 50t40 43t30.5 52t8 57q0 42 -28.5 68t-83.5 26q-48 0 -79.5 -25.5t-38.5 -66.5l-55 15q8 59 53 95.5t120 36.5q88 0 130.5 -41t42.5 -105q0 -39 -8.5 -69.5t-31 -60.5t-40 -47.5t-56.5 -53.5q-38 -35 -119 -102z" />
    <glyph glyph-name="three.subs" horiz-adv-x="485" 
d="M251 136q171 -13 171 -170q0 -76 -45.5 -122t-143.5 -46q-84 0 -128.5 36t-51.5 92l56 14q8 -38 39 -62t84 -24q127 0 127 116q0 55 -35.5 87t-99.5 32l-64 -5v46l166 132l-250 -1v55h335v-53z" />
    <glyph glyph-name="four.subs" horiz-adv-x="484" 
d="M441 -29v-54h-64v-110h-58v110h-273v54l241 351h90v-351h64zM115 -29h204v311z" />
    <glyph glyph-name="five.subs" horiz-adv-x="504" 
d="M271 146q85 0 129 -48.5t44 -126.5q0 -79 -46 -126t-142 -47q-88 0 -135 35t-55 87l57 13q7 -35 40.5 -59t92.5 -24q127 0 127 121q0 58 -34 91t-93 33q-41 0 -70.5 -12.5t-39.5 -24.5l-9 -13h-57l45 271h290v-53l-239 2l-27 -151q43 32 122 32z" />
    <glyph glyph-name="six.subs" horiz-adv-x="533" 
d="M287 151q90 0 133 -49.5t43 -130.5q0 -79 -46.5 -126t-147.5 -47q-105 0 -150 57.5t-45 179.5q0 161 45 228.5t151 67.5q80 0 121 -35t50 -84l-56 -15q-7 34 -35 57t-80 23q-64 0 -95.5 -41t-38.5 -146q51 61 151 61zM270 -149q130 0 130 122q0 124 -125 124
q-98 0 -140 -81q3 -89 35.5 -127t99.5 -38z" />
    <glyph glyph-name="seven.subs" horiz-adv-x="419" 
d="M124 -193q0 70 20.5 143t49 126t57.5 96.5t49 65.5l21 23l-287 -1v59h354v-59q-8 -9 -21.5 -24.5t-48.5 -65t-61.5 -100t-48.5 -123.5t-22 -140h-62z" />
    <glyph glyph-name="eight.subs" horiz-adv-x="531" 
d="M73 -52q0 65 32.5 99t63.5 35q-23 1 -51 29t-28 79q0 141 178 141q176 0 176 -141q0 -51 -27.5 -79t-51.5 -29q30 -1 63.5 -35t33.5 -99q0 -149 -194 -149q-195 0 -195 149zM150 184q0 -79 118 -79q116 0 116 79q0 99 -116 99q-118 0 -118 -99zM137 -45q0 -103 131 -103
q130 0 130 103q0 99 -130 99q-68 0 -99.5 -24.5t-31.5 -74.5z" />
    <glyph glyph-name="nine.subs" horiz-adv-x="533" 
d="M266 331q106 0 151.5 -58.5t45.5 -191.5q0 -159 -44.5 -221t-152.5 -62q-87 0 -132 36.5t-53 86.5l57 10q7 -33 38 -56t90 -23q64 0 96 36.5t38 137.5q-51 -63 -149 -63q-177 0 -177 193q0 175 192 175zM261 18q99 0 141 81q-3 98 -35.5 138t-100.5 40q-130 0 -130 -123
q0 -136 125 -136z" />
    <glyph glyph-name="zero.dnom" horiz-adv-x="548" 
d="M274 -8q-109 0 -154.5 61.5t-45.5 203.5q0 141 46 203t154 62t154 -62t46 -203t-46 -203t-154 -62zM274 46q74 0 107 47.5t33 163.5t-33 163.5t-107 47.5t-107 -47.5t-33 -163.5t33 -163.5t107 -47.5z" />
    <glyph glyph-name="one.dnom" horiz-adv-x="277" 
d="M146 517h40v-517h-59v445l-100 -46v66z" />
    <glyph glyph-name="two.dnom" horiz-adv-x="430" 
d="M130 57l256 3v-55h-346v53l148 127q40 34 57.5 50t40 43t30.5 52t8 57q0 42 -28.5 68t-83.5 26q-48 0 -79.5 -25.5t-38.5 -66.5l-55 15q8 59 53 95.5t120 36.5q88 0 130.5 -41t42.5 -105q0 -39 -8.5 -69.5t-31 -60.5t-40 -47.5t-56.5 -53.5q-38 -35 -119 -102z" />
    <glyph glyph-name="three.dnom" horiz-adv-x="485" 
d="M251 329q171 -13 171 -170q0 -76 -45.5 -122t-143.5 -46q-84 0 -128.5 36t-51.5 92l56 14q8 -38 39 -62t84 -24q127 0 127 116q0 55 -35.5 87t-99.5 32l-64 -5v46l166 132l-250 -1v55h335v-53z" />
    <glyph glyph-name="four.dnom" horiz-adv-x="484" 
d="M441 164v-54h-64v-110h-58v110h-273v54l241 351h90v-351h64zM115 164h204v311z" />
    <glyph glyph-name="five.dnom" horiz-adv-x="504" 
d="M271 339q85 0 129 -48.5t44 -126.5q0 -79 -46 -126t-142 -47q-88 0 -135 35t-55 87l57 13q7 -35 40.5 -59t92.5 -24q127 0 127 121q0 58 -34 91t-93 33q-41 0 -70.5 -12.5t-39.5 -25.5l-9 -12h-57l45 271h290v-53l-239 2l-27 -151q43 32 122 32z" />
    <glyph glyph-name="six.dnom" horiz-adv-x="533" 
d="M287 344q90 0 133 -49.5t43 -130.5q0 -79 -46.5 -126t-147.5 -47q-105 0 -150 57.5t-45 179.5q0 161 45 228.5t151 67.5q80 0 121 -35t50 -84l-56 -15q-7 34 -35 57t-80 23q-64 0 -95.5 -41t-38.5 -146q51 61 151 61zM270 44q130 0 130 122q0 124 -125 124
q-98 0 -140 -81q3 -89 35.5 -127t99.5 -38z" />
    <glyph glyph-name="seven.dnom" horiz-adv-x="419" 
d="M124 0q0 70 20.5 143t49 126t57.5 96.5t49 66.5l21 22l-287 -1v59h354v-59q-8 -9 -21.5 -24.5t-48.5 -65t-61.5 -100t-48.5 -123.5t-22 -140h-62z" />
    <glyph glyph-name="eight.dnom" horiz-adv-x="531" 
d="M73 141q0 65 32.5 99t63.5 35q-23 1 -51 29t-28 79q0 141 178 141q176 0 176 -141q0 -51 -27.5 -79t-51.5 -29q30 -1 63.5 -35t33.5 -99q0 -149 -194 -149q-195 0 -195 149zM150 377q0 -79 118 -79q116 0 116 79q0 99 -116 99q-118 0 -118 -99zM137 148q0 -103 131 -103
q130 0 130 103q0 99 -130 99q-68 0 -99.5 -24.5t-31.5 -74.5z" />
    <glyph glyph-name="nine.dnom" horiz-adv-x="533" 
d="M266 524q106 0 151.5 -58.5t45.5 -191.5q0 -159 -44.5 -221t-152.5 -62q-87 0 -132 36.5t-53 86.5l57 10q7 -33 38 -56t90 -23q64 0 96 36.5t38 137.5q-51 -63 -149 -63q-177 0 -177 193q0 175 192 175zM261 211q99 0 141 81q-3 98 -35.5 138t-100.5 40q-130 0 -130 -123
q0 -136 125 -136z" />
    <glyph glyph-name="zero.numr" horiz-adv-x="548" 
d="M274 244q-109 0 -154.5 61.5t-45.5 203.5q0 141 46 203t154 62t154 -62t46 -203t-46 -203t-154 -62zM274 298q74 0 107 47.5t33 163.5t-33 163.5t-107 47.5t-107 -47.5t-33 -163.5t33 -163.5t107 -47.5z" />
    <glyph glyph-name="one.numr" horiz-adv-x="277" 
d="M146 769h40v-517h-59v445l-100 -46v66z" />
    <glyph glyph-name="two.numr" horiz-adv-x="430" 
d="M130 309l256 3v-55h-346v53l148 127q40 34 57.5 50t40 43t30.5 52t8 57q0 42 -28.5 68t-83.5 26q-48 0 -79.5 -25.5t-38.5 -66.5l-55 15q8 59 53 95.5t120 36.5q88 0 130.5 -41t42.5 -105q0 -39 -8.5 -69.5t-31 -60.5t-40 -47.5t-56.5 -53.5q-38 -35 -119 -102z" />
    <glyph glyph-name="three.numr" horiz-adv-x="485" 
d="M251 581q171 -13 171 -170q0 -76 -45.5 -122t-143.5 -46q-84 0 -128.5 36t-51.5 92l56 14q8 -38 39 -62t84 -24q127 0 127 116q0 55 -35.5 87t-99.5 32l-64 -5v46l166 132l-250 -1v55h335v-53z" />
    <glyph glyph-name="four.numr" horiz-adv-x="484" 
d="M441 416v-54h-64v-110h-58v110h-273v54l241 351h90v-351h64zM115 416h204v311z" />
    <glyph glyph-name="five.numr" horiz-adv-x="504" 
d="M271 591q85 0 129 -48.5t44 -126.5q0 -79 -46 -126t-142 -47q-88 0 -135 35t-55 87l57 13q7 -35 40.5 -59t92.5 -24q127 0 127 121q0 58 -34 91t-93 33q-41 0 -70.5 -12.5t-39.5 -25.5l-9 -12h-57l45 271h290v-53l-239 2l-27 -151q43 32 122 32z" />
    <glyph glyph-name="six.numr" horiz-adv-x="533" 
d="M287 596q90 0 133 -49.5t43 -130.5q0 -79 -46.5 -126t-147.5 -47q-105 0 -150 57.5t-45 179.5q0 161 45 228.5t151 67.5q80 0 121 -35t50 -84l-56 -15q-7 34 -35 57t-80 23q-64 0 -95.5 -41t-38.5 -146q51 61 151 61zM270 296q130 0 130 122q0 124 -125 124
q-98 0 -140 -81q3 -89 35.5 -127t99.5 -38z" />
    <glyph glyph-name="seven.numr" horiz-adv-x="419" 
d="M124 252q0 70 20.5 143t49 126t57.5 96.5t49 66.5l21 22l-287 -1v59h354v-59q-8 -9 -21.5 -24.5t-48.5 -65t-61.5 -100t-48.5 -123.5t-22 -140h-62z" />
    <glyph glyph-name="eight.numr" horiz-adv-x="531" 
d="M73 393q0 65 32.5 99t63.5 35q-23 1 -51 29t-28 79q0 141 178 141q176 0 176 -141q0 -51 -27.5 -79t-51.5 -29q30 -1 63.5 -35t33.5 -99q0 -149 -194 -149q-195 0 -195 149zM150 629q0 -79 118 -79q116 0 116 79q0 99 -116 99q-118 0 -118 -99zM137 400q0 -103 131 -103
q130 0 130 103q0 99 -130 99q-68 0 -99.5 -24.5t-31.5 -74.5z" />
    <glyph glyph-name="nine.numr" horiz-adv-x="533" 
d="M266 776q106 0 151.5 -58.5t45.5 -191.5q0 -159 -44.5 -221t-152.5 -62q-87 0 -132 36.5t-53 86.5l57 10q7 -33 38 -56t90 -23q64 0 96 36.5t38 137.5q-51 -63 -149 -63q-177 0 -177 193q0 175 192 175zM261 463q99 0 141 81q-3 98 -35.5 138t-100.5 40q-130 0 -130 -123
q0 -136 125 -136z" />
    <glyph glyph-name="zero.sc" horiz-adv-x="590" 
d="M295 -9q-124 0 -177.5 70.5t-53.5 230.5q0 161 53.5 232t177.5 71t177.5 -71t53.5 -232q0 -160 -53.5 -230.5t-177.5 -70.5zM295 52q85 0 123.5 54t38.5 186q0 133 -38.5 187.5t-123.5 54.5t-123.5 -54.5t-38.5 -187.5q0 -132 38.5 -186t123.5 -54z" />
    <glyph glyph-name="one.sc" horiz-adv-x="314" 
d="M158 589h44v-589h-65v509l-116 -49v69z" />
    <glyph glyph-name="two.sc" horiz-adv-x="499" 
d="M142 62l304 3v-61h-409v64q84 57 174 134q46 37 67 56t47 48t36 57t10 61q0 48 -33.5 78t-97.5 30q-54 0 -90 -30t-45 -76l-64 20q11 66 62.5 107.5t135.5 41.5q101 0 150.5 -47.5t49.5 -117.5q0 -35 -9.5 -66.5t-19.5 -52t-38.5 -51t-42 -43.5t-54.5 -49
q-47 -42 -133 -106z" />
    <glyph glyph-name="three.sc" horiz-adv-x="525" 
d="M264 374q201 -13 201 -185q0 -91 -52.5 -145t-166.5 -54q-97 0 -149 41t-61 104l64 12q9 -42 46 -69t99 -27q150 0 150 143q0 61 -44 95.5t-115 34.5l-79 -7v50l199 155l-292 -2v63h388v-60z" />
    <glyph glyph-name="four.sc" horiz-adv-x="518" 
d="M482 185v-59h-73v-126h-65v126h-319v59l285 402h99v-402h73zM98 185h246v356z" />
    <glyph glyph-name="five.sc" horiz-adv-x="546" 
d="M301 385q94 0 143.5 -55.5t49.5 -142.5q0 -89 -53 -143t-165 -54q-101 0 -155.5 39.5t-65.5 97.5l68 16q9 -40 47.5 -67t105.5 -27q74 0 112 36t38 103t-38.5 104t-103.5 37q-51 0 -87.5 -14.5t-47.5 -28.5l-11 -14l-65 1l53 307h335v-60l-278 -2l-31 -171q51 38 149 38z
" />
    <glyph glyph-name="six.sc" horiz-adv-x="572" 
d="M312 391q103 0 153.5 -56t50.5 -147t-53 -144.5t-171 -53.5q-121 -1 -174 65t-53 205q0 183 52 260t175 77q92 0 140.5 -40.5t59.5 -96.5l-64 -11q-9 38 -42 63.5t-93 25.5q-75 0 -113 -48.5t-45 -171.5q59 73 177 73zM292 49q154 0 154 141q0 142 -148 142
q-114 0 -164 -94q4 -100 42 -144.5t116 -44.5z" />
    <glyph glyph-name="seven.sc" horiz-adv-x="452" 
d="M125 0q0 80 23.5 163t57 144t67 110.5t57.5 74.5l23 26l-333 1v64h410v-67q-10 -10 -25.5 -28t-56.5 -74t-72 -114t-56.5 -140.5t-25.5 -159.5h-69z" />
    <glyph glyph-name="eight.sc" horiz-adv-x="566" 
d="M57 161q0 73 41 112t73 40q-23 1 -58.5 33.5t-35.5 89.5q0 161 205 161q207 0 207 -161q0 -58 -35 -90t-59 -33q11 0 28 -8.5t37 -25t34 -48t14 -70.5q0 -170 -226 -170q-225 0 -225 170zM145 430q0 -42 35.5 -67t101.5 -25q67 0 103 25.5t36 66.5q0 113 -139 113
q-137 0 -137 -113zM129 168q0 -117 153 -117q155 0 155 117q0 54 -40 84.5t-115 30.5q-74 0 -113.5 -31t-39.5 -84z" />
    <glyph glyph-name="nine.sc" horiz-adv-x="575" 
d="M284 597q123 0 174.5 -66.5t51.5 -218.5q0 -181 -51 -251.5t-177 -70.5q-102 0 -154.5 42t-61.5 100l65 11q8 -39 45 -67t105 -28q77 0 114.5 43.5t44.5 161.5q-58 -74 -175 -74q-206 0 -206 218q0 89 57.5 144.5t167.5 55.5zM276 238q49 0 86.5 19.5t53.5 39t26 40.5
q-4 110 -41.5 155.5t-117.5 45.5q-71 0 -112.5 -38t-41.5 -105q0 -76 37.5 -116.5t109.5 -40.5z" />
    <glyph glyph-name="exclamdown.case" horiz-adv-x="276" 
d="M103 599v109h70v-109h-70zM103 0l1 545h67l2 -545h-70z" />
    <glyph glyph-name="questiondown.case" horiz-adv-x="572" 
d="M343 708v-105h-70v105h70zM513 175q-15 -182 -203 -182q-107 0 -158.5 53t-51.5 147q0 52 17.5 88.5t42.5 57.5t50 40.5t43.5 52t19.5 78.5v39h70l-1 -39q0 -52 -17.5 -88t-42 -56t-49 -39t-42 -51t-17.5 -78q0 -143 135 -143q124 0 138 133z" />
    <glyph glyph-name="braceleft.case" horiz-adv-x="446" 
d="M394 762v-55q-88 0 -113 -22.5t-25 -88.5v-171q0 -19 -6 -34t-13.5 -22.5t-15.5 -13t-13 -7.5l-6 -1q2 0 5.5 -1.5t13 -7t16.5 -13.5t13 -23t6 -34v-173q0 -64 25 -86.5t113 -22.5v-54q-92 0 -135.5 15.5t-57 47t-13.5 98.5v173q0 32 -17 44t-73 12v50q56 0 73 11.5
t17 43.5v176q0 51 6.5 78.5t28.5 47.5t61.5 26.5t109.5 6.5z" />
    <glyph glyph-name="braceright.case" horiz-adv-x="446" 
d="M50 -68v54q88 0 113 23t25 89l1 171q0 30 13.5 49.5t26.5 23.5l13 5q-2 0 -5.5 1.5t-13 7t-16.5 13.5t-13 23t-6 34v173q0 64 -25 86t-113 22v55q92 0 135.5 -15.5t57 -47t13.5 -98.5v-173q0 -32 17 -44t73 -12v-51q-56 0 -73 -11.5t-17 -43.5v-175q0 -51 -6.5 -78.5
t-28.5 -47.5t-61.5 -26.5t-109.5 -6.5z" />
    <glyph glyph-name="bracketleft.case" horiz-adv-x="390" 
d="M338 708h-152v-714h152v-52h-215v818h215v-52z" />
    <glyph glyph-name="bracketright.case" horiz-adv-x="388" 
d="M267 760v-818h-215v52h152v714h-152v52h215z" />
    <glyph glyph-name="parenleft.case" horiz-adv-x="342" 
d="M208 760h72l-8 -16q-7 -15 -19 -49.5t-23 -80.5t-19.5 -118t-8.5 -151t8.5 -150t20.5 -115.5t24 -77.5t21 -47l8 -14h-74q-3 4 -8.5 13.5t-19.5 44.5t-24.5 77t-19.5 114.5t-9 154.5t8 155t19.5 118.5t23.5 79.5t20 48z" />
    <glyph glyph-name="parenright.case" horiz-adv-x="342" 
d="M134 760q3 -5 8.5 -15t19.5 -46.5t24.5 -80t19 -117.5t8.5 -156t-8.5 -154t-20.5 -116t-24 -76t-21 -45l-8 -13h-72l7 14q7 14 19.5 47.5t24 77.5t20 115t8.5 150t-8 151t-19.5 118t-23.5 80.5t-20 49.5l-8 16h74z" />
    <glyph glyph-name="guillemotleft.case" horiz-adv-x="548" 
d="M297 488l-135 -166l135 -159h-82l-122 150v18l122 157h82zM457 488l-135 -166l135 -159h-82l-122 150v18l122 157h82z" />
    <glyph glyph-name="guillemotright.case" horiz-adv-x="548" 
d="M295 331v-18l-122 -150h-81l134 159l-134 166h81zM333 488l122 -157v-18l-122 -150h-81l134 159l-134 166h81z" />
    <glyph glyph-name="guilsinglleft.case" horiz-adv-x="388" 
d="M297 488l-135 -166l135 -159h-82l-122 150v18l122 157h82z" />
    <glyph glyph-name="guilsinglright.case" horiz-adv-x="388" 
d="M173 488l122 -157v-18l-122 -150h-81l134 159l-134 166h81z" />
    <glyph glyph-name="asterisk.sc" horiz-adv-x="422" 
d="M81 558l15 46l92 -32l-2 92h50l-2 -92l91 32l16 -46l-92 -27l66 -75l-41 -34l-63 79l-63 -79l-41 34l66 75z" />
    <glyph glyph-name="backslash.sc" horiz-adv-x="474" 
d="M410 -61h-65l-284 728h65z" />
    <glyph glyph-name="braceleft.sc" horiz-adv-x="440" 
d="M390 680v-54q-61 0 -90.5 -11t-38.5 -32.5t-10 -67.5v-135q0 -30 -13.5 -49.5t-26.5 -24.5l-13 -5q2 0 5.5 -1.5t13 -7t16.5 -13t12.5 -22.5t5.5 -34v-138q0 -65 25 -87t114 -22v-54q-90 0 -132.5 15t-56 46.5t-13.5 98.5v139q0 32 -17 44t-73 12v50q56 0 73 11.5
t17 43.5v140q0 67 13.5 98t56 45.5t132.5 14.5z" />
    <glyph glyph-name="braceright.sc" horiz-adv-x="440" 
d="M50 -78v54q88 0 113 22.5t25 88.5l1 137q0 29 13.5 48.5t26.5 24.5l13 5q-2 0 -5.5 1.5t-13 7t-16.5 13.5t-13 23t-6 34v136q0 65 -25 87t-113 22v54q89 0 131.5 -15t56 -46.5t13.5 -98.5v-137q0 -32 17.5 -44t73.5 -12v-51q-56 0 -73.5 -11.5t-17.5 -43.5v-141
q0 -67 -13.5 -98t-55.5 -45.5t-132 -14.5z" />
    <glyph glyph-name="bracketleft.sc" horiz-adv-x="388" 
d="M334 618h-153v-642h153v-52h-211v746h211v-52z" />
    <glyph glyph-name="bracketright.sc" horiz-adv-x="388" 
d="M263 670v-746h-211v52h152v642h-152v52h211z" />
    <glyph glyph-name="uni2016.sc" horiz-adv-x="410" 
d="M90 -84v770h52v-770h-52zM267 -84v770h53v-770h-53z" />
    <glyph glyph-name="exclam.sc" horiz-adv-x="250" 
d="M91 164l-1 428h70l-2 -428h-67zM90 0v109h70v-109h-70z" />
    <glyph glyph-name="exclamdown.sc" horiz-adv-x="250" 
d="M90 483v109h70v-109h-70zM90 0l1 429h67l2 -429h-70z" />
    <glyph glyph-name="numbersign.sc" horiz-adv-x="671" 
d="M569 383h-101l-35 -166h94v-50h-105l-35 -167h-51l35 167h-161l-35 -167h-52l35 167h-89v50h100l35 166h-94v51h104l32 151h52l-32 -151h161l31 151h53l-32 -151h90v-51zM381 217l35 166h-160l-35 -166h160z" />
    <glyph glyph-name="parenleft.sc" horiz-adv-x="328" 
d="M208 659h65q-3 -5 -8 -15.5t-18.5 -47t-23.5 -77.5t-18 -107.5t-8 -137.5q0 -113 19.5 -207t39.5 -131l19 -38h-67q-3 4 -8.5 13t-19 42.5t-23.5 73t-18.5 106.5t-8.5 141t8 141t19.5 109.5t23 74.5t19.5 46z" />
    <glyph glyph-name="parenright.sc" horiz-adv-x="328" 
d="M127 659q3 -5 8.5 -14.5t19 -44.5t24 -76t19 -108.5t8.5 -141.5q0 -118 -21 -212t-41 -129l-21 -35h-66q3 5 8.5 14.5t19.5 44.5t24.5 74.5t19.5 105.5t9 137q0 113 -19.5 209t-38.5 136l-20 40h67z" />
    <glyph glyph-name="question.sc" horiz-adv-x="530" 
d="M59 473q9 63 56 103t131 40q95 0 144 -47t49 -115q0 -40 -16 -71.5t-39 -52.5t-46.5 -40t-40 -44t-17.5 -55v-37h-66l1 37q0 30 12 55t29 41.5t37 35t36.5 34.5t28 40t11.5 53q0 46 -33 76.5t-90 30.5q-52 0 -84.5 -26.5t-40.5 -70.5zM214 0v101h66v-101h-66z" />
    <glyph glyph-name="questiondown.sc" horiz-adv-x="535" 
d="M321 593v-101h-66v101h66zM477 130q-6 -68 -53 -110.5t-135 -42.5q-95 0 -144.5 46.5t-49.5 114.5q0 40 16 71.5t39.5 52.5t47 40.5t40 44.5t17.5 54v38h66l-1 -38q-1 -35 -17 -63t-38.5 -48t-45 -39t-38 -46.5t-15.5 -61.5q0 -46 33 -76.5t90 -30.5q54 0 87 28.5
t39 75.5z" />
    <glyph glyph-name="quotedbl.sc" horiz-adv-x="328" 
d="M76 473l-12 189h77l-12 -189h-53zM199 473l-11 189h77l-12 -189h-54z" />
    <glyph glyph-name="quotedblleft.sc" horiz-adv-x="369" 
d="M71 441q-1 38 18 109q9 33 21 61.5t20 40.5l8 12h52q-23 -47 -39 -119q-7 -32 -10.5 -58t-3.5 -36v-10h-66zM200 441q-1 38 18 109q9 33 21 61.5t20 40.5l8 12h52q-23 -47 -38 -119q-7 -32 -10.5 -58t-3.5 -36v-10h-67z" />
    <glyph glyph-name="quotedblright.sc" horiz-adv-x="369" 
d="M50 441q23 48 38 119q7 32 10.5 58t3.5 36v10h67q1 -37 -18 -108q-9 -33 -21 -62t-20 -41l-8 -12h-52zM179 441q23 48 39 119q7 32 10.5 58t3.5 36l-1 10h67q1 -37 -18 -108q-9 -33 -21 -62t-20 -41l-8 -12h-52z" />
    <glyph glyph-name="quoteleft.sc" horiz-adv-x="240" 
d="M71 441q-1 38 18 109q9 33 21 61.5t20 40.5l8 12h52q-23 -47 -39 -119q-7 -32 -10.5 -58t-3.5 -36v-10h-66z" />
    <glyph glyph-name="quoteright.sc" horiz-adv-x="240" 
d="M50 441q23 48 38 119q7 32 10.5 58t3.5 36v10h67q1 -37 -18 -108q-9 -33 -21 -62t-20 -41l-8 -12h-52z" />
    <glyph glyph-name="quotesingle.sc" horiz-adv-x="204" 
d="M76 473l-12 189h77l-12 -189h-53z" />
    <glyph glyph-name="slash.sc" horiz-adv-x="466" 
d="M64 -76l273 727h65l-273 -727h-65z" />
    <glyph glyph-name="paragraph.alt" horiz-adv-x="626" 
d="M523 763v-763h-53v712h-100v-712h-53v308q-145 2 -203 50t-58 177q0 133 61 180.5t216 47.5h190z" />
    <glyph glyph-name="registered.alt" horiz-adv-x="553" 
d="M276 743q111 0 160 -61.5t49 -159.5q0 -97 -48.5 -157t-160.5 -60q-111 0 -160 60t-49 157t49.5 159t159.5 62zM276 337q92 0 132 51.5t40 133.5q0 84 -40 136.5t-132 52.5t-132 -52.5t-40 -136.5q0 -82 40 -133.5t132 -51.5zM372 566q0 -60 -49 -70l46 -91h-35l-44 88
h-63v-88h-34v235h89q47 0 68.5 -16t21.5 -58zM280 521q19 0 29.5 2t19 12.5t8.5 30.5q0 29 -14.5 37.5t-42.5 8.5h-53v-91h53z" />
    <glyph glyph-name="at.case" horiz-adv-x="933" 
d="M859 344q0 -144 -33.5 -204t-110.5 -60h-1q-97 0 -116 111q-46 -70 -157 -70q-178 0 -178 222q0 225 178 225q95 0 153 -65l3 55h53v-300q0 -132 71 -132q41 0 61 46t20 172q0 366 -338 366q-89 0 -155 -27.5t-104 -78.5t-56 -115.5t-18 -144.5q0 -78 17 -140t55 -112.5
t104 -78t158 -27.5q116 0 184 32v-56q-79 -28 -185 -28t-183.5 31t-122 88t-65 129t-20.5 162q0 88 21 161t65 132.5t122 92.5t183 33q108 0 186 -31.5t123 -90t65.5 -132t20.5 -165.5zM450 173q107 0 143 80v187q-48 75 -143 75q-63 0 -94.5 -46t-31.5 -126
q0 -81 31.5 -125.5t94.5 -44.5z" />
    <glyph glyph-name="ampersand.sc" horiz-adv-x="663" 
d="M527 94l79 -79v-17h-63l-51 50q-64 -63 -196 -63q-213 0 -213 183q0 40 12.5 72.5t33.5 52t39 30.5t38 18q-46 55 -46 121q0 144 173 144q149 0 164 -125l-59 -14q-8 44 -32 66.5t-73 22.5q-111 0 -111 -98q0 -22 5 -40t22 -40.5t26.5 -33t43 -43.5t47.5 -47l121 -120
q23 57 25 157l58 -8q-3 -121 -43 -189zM307 33q101 0 149 52q-100 100 -152 154l-22.5 22.5l-24 24l-18.5 18.5q-38 -14 -67 -46.5t-29 -89.5q0 -135 164 -135z" />
    <glyph glyph-name="degree.sc" horiz-adv-x="368" 
d="M184 423q-103 0 -103 108q0 111 103 111t103 -111q0 -108 -103 -108zM184 463q58 0 58 68q0 71 -58 71t-58 -71q0 -68 58 -68z" />
    <glyph glyph-name="bar.sc" horiz-adv-x="232" 
d="M90 -84v770h52v-770h-52z" />
    <glyph glyph-name="brokenbar.sc" horiz-adv-x="232" 
d="M90 392v294h52v-294h-52zM142 251v-335h-52v335h52z" />
    <glyph glyph-name="cent.sc" horiz-adv-x="529" 
d="M299 113q86 9 103 83l63 -12q-18 -118 -166 -128v-73h-61v73q-94 9 -134 67t-40 165q0 106 40 165.5t134 68.5v73h61v-73q154 -11 168 -147l-64 -11q-13 91 -104 102v-353zM132 288q0 -81 25 -123.5t81 -51.5v353q-106 -18 -106 -178z" />
    <glyph glyph-name="dollar.sc" horiz-adv-x="532" 
d="M474 180q0 -70 -45.5 -107t-130.5 -42v-72h-61v74q-163 14 -174 152l55 9q14 -97 119 -108v202q-39 10 -63.5 18.5t-51.5 25t-40.5 43t-13.5 62.5q0 65 42.5 103.5t126.5 42.5v60h61v-61q153 -12 163 -136l-58 -10q-4 25 -11.5 41t-31 31.5t-62.5 19.5v-198q40 -9 66 -18
t54 -25.5t42 -43t14 -63.5zM127 438q0 -38 28 -58.5t82 -34.5v184q-110 -7 -110 -91zM298 84q116 7 116 94q0 40 -29.5 61t-86.5 35v-190z" />
    <glyph glyph-name="Euro.sc" horiz-adv-x="584" 
d="M336 55q52 0 85.5 23.5t41.5 67.5l56 -11q-19 -135 -186 -135q-102 0 -152.5 49.5t-62.5 149.5h-74v47h70q-1 15 -1 47q0 25 1 37h-70v49h73q12 105 61.5 157t154.5 52q87 0 134 -38t55 -108l-57 -9q-19 100 -129 100q-68 0 -103.5 -37.5t-46.5 -116.5h197v-49h-201
q-1 -12 -1 -37q0 -32 1 -47h201v-47h-196q11 -74 46.5 -109t102.5 -35z" />
    <glyph glyph-name="percent.sc" horiz-adv-x="720" 
d="M189 306q-140 0 -140 146q0 148 140 148t140 -148q0 -146 -140 -146zM116 0l405 589h66l-406 -589h-65zM189 351q90 0 90 101q0 104 -90 104q-89 0 -89 -104q0 -101 89 -101zM513 -13q-141 0 -141 146q0 148 141 148q139 0 139 -148q0 -146 -139 -146zM513 32
q89 0 89 101q0 104 -89 104q-90 0 -90 -104q0 -101 90 -101z" />
    <glyph glyph-name="perthousand.sc" horiz-adv-x="1018" 
d="M189 306q-140 0 -140 146q0 148 140 148t140 -148q0 -146 -140 -146zM116 0l405 589h66l-406 -589h-65zM189 351q90 0 90 101q0 104 -90 104q-89 0 -89 -104q0 -101 89 -101zM513 -13q-141 0 -141 146q0 148 141 148q139 0 139 -148q0 -146 -139 -146zM823 -13
q-141 0 -141 146q0 148 141 148q140 0 140 -148q0 -146 -140 -146zM513 32q89 0 89 101q0 104 -89 104q-90 0 -90 -104q0 -101 90 -101zM823 32q89 0 89 101q0 104 -89 104q-90 0 -90 -104q0 -101 90 -101z" />
    <glyph glyph-name="uni20BD.sc" horiz-adv-x="600" 
d="M311 269h-114v-68h161v-50h-161v-151h-68v151h-85v50h85v68h-85v55h85v272h182q126 0 182.5 -36t56.5 -128t-56 -127.5t-183 -35.5zM197 542v-219h120q79 0 120.5 22t41.5 87t-41.5 87.5t-119.5 22.5h-121z" />
    <glyph glyph-name="sterling.sc" horiz-adv-x="509" 
d="M210 168q0 -79 -57 -114l303 1v-58h-408v56l10 2.5t22.5 9t29 18t22.5 31t10 46.5q0 23 -4 57h-94v52h82q-4 13 -16 48.5t-17.5 61t-5.5 55.5q0 71 49.5 115.5t139.5 44.5q84 0 132 -40t56 -110l-64 -12q-7 48 -39.5 75.5t-82.5 27.5q-55 0 -88 -30t-33 -83
q0 -25 5.5 -48.5t17 -56t16.5 -48.5h142v-52h-131q3 -22 3 -49z" />
    <glyph glyph-name="yen.sc" horiz-adv-x="536" 
d="M507 593l-184 -293h75v-49h-95v-48h95v-49h-95v-154h-65v154h-99v49h99v48h-99v49h78l-188 293h77l164 -276l157 276h80z" />
    <glyph glyph-name="section.sups" horiz-adv-x="376" 
d="M270 493q23 -18 23 -50q0 -72 -107 -72q-98 0 -104 70l39 5q8 -43 65 -43q29 0 45.5 11t16.5 27q0 23 -25.5 34.5t-56 14.5t-56 20t-25.5 50q0 34 25 57q-23 16 -23 48q0 70 101 70q92 0 99 -65l-39 -6q-9 38 -60 38q-57 0 -57 -36q0 -18 17 -27.5t41 -13.5t48 -10
t41 -22.5t17 -44.5q0 -32 -25 -55zM129 560q0 -13 10.5 -22t23.5 -12t36.5 -7.5t35.5 -8.5q16 16 16 36q0 12 -6 20t-18 13t-23 8t-29 6.5t-28 6.5q-18 -18 -18 -40z" />
    <glyph glyph-name="dagger.sups" horiz-adv-x="356" 
d="M275 650v-45h-72v-233h-50v233h-72v45h72v82h50v-82h72z" />
    <glyph glyph-name="daggerdbl.sups" horiz-adv-x="356" 
d="M275 605h-72v-107h72v-45h-72v-81h-50v81h-72v45h72v107h-72v45h72v82h50v-82h72v-45z" />
    <glyph glyph-name="caroncomb.alt" 
d="M-190 617l50 147h63l-68 -147h-45z" />
    <glyph glyph-name="uni0308.case" 
d="M-287 765v124h69v-124h-69zM-123 765v124h69v-124h-69z" />
    <glyph glyph-name="uni0307.case" 
d="M-127 765v124h69v-124h-69z" />
    <glyph glyph-name="gravecomb.case" 
d="M-59 765h-64l-89 116h77z" />
    <glyph glyph-name="acutecomb.case" 
d="M-208 765l76 115h77l-89 -115h-64z" />
    <glyph glyph-name="uni030B.case" 
d="M-356 765l69 116h77l-82 -116h-64zM-215 765l83 116h77l-96 -116h-64z" />
    <glyph glyph-name="caroncomb.alt.case" 
d="M-197 765l53 136h66l-66 -136h-53z" />
    <glyph glyph-name="uni0302.case" 
d="M-69 765h-74l-73 70l-73 -70h-73l108 113h75z" />
    <glyph glyph-name="uni030C.case" 
d="M-129 878h75l-110 -113h-75l-108 113h72l73 -70z" />
    <glyph glyph-name="uni0306.case" 
d="M-58 866q0 -39 -35 -72t-103 -33t-103 33t-35 72h62q0 -21 22 -38.5t54 -17.5t54.5 17.5t22.5 38.5h61z" />
    <glyph glyph-name="uni030A.case" 
d="M-154 756q-43 0 -67.5 23.5t-24.5 63.5q0 39 25 63t67 24t67 -24t25 -63q0 -40 -24.5 -63.5t-67.5 -23.5zM-154 802q18 0 29 11t11 30t-11 29.5t-29 10.5t-28.5 -10.5t-10.5 -29.5t10.5 -30t28.5 -11z" />
    <glyph glyph-name="tildecomb.case" 
d="M-66 869q0 -105 -85 -105q-38 0 -63.5 24t-47.5 24q-39 0 -39 -48h-53q0 104 85 104q37 0 62.5 -23.5t47.5 -23.5q40 0 40 48h53z" />
    <glyph glyph-name="uni0304.case" 
d="M-306 844h244v-57h-244v57z" />
    <glyph glyph-name="uni0338.case" 
d="M-515 19l516 725h89l-516 -725h-89z" />
    <glyph glyph-name="uni0335.sc" horiz-adv-x="363" 
d="M48 304v55h267v-55h-267z" />
    <glyph glyph-name="uni0336.sc" horiz-adv-x="805" 
d="M95 300v62h607v-62h-607z" />
    <glyph glyph-name="uni0338.sc" horiz-adv-x="419" 
d="M-65 80l463 617h89l-463 -617h-89z" />
    <glyph glyph-name="bitcoin" horiz-adv-x="644" 
d="M567 222q0 -89 -36.5 -129.5t-150.5 -46.5v-95h-44v94h-63v-94h-44v94h-123v644h123v90h44v-90h63v90h44v-92q93 -7 131.5 -47t38.5 -112q0 -57 -22.5 -93.5t-82.5 -51.5q68 -17 95 -58t27 -103zM335 631h-164v-217l165 -1q86 0 117.5 25.5t31.5 83.5q0 56 -36 82.5
t-114 26.5zM335 103q98 0 132.5 26.5t34.5 97.5q0 63 -38.5 93.5t-127.5 30.5h-165v-247z" />
    <glyph glyph-name="bitcoin.sc" horiz-adv-x="545" 
d="M485 187q0 -75 -31 -109t-126 -40v-79h-41v78h-52v-78h-41v78h-104v541h104v75h41v-75h52v75h41v-77q78 -6 110.5 -40t32.5 -94q0 -48 -19 -78.5t-69 -43.5q57 -14 79.5 -47.5t22.5 -85.5zM286 524h-133v-176l134 -1q71 0 97 20.5t26 67.5q0 46 -29.5 67.5t-94.5 21.5z
M286 90q80 -1 109 21t29 80q0 52 -31.5 76.5t-105.5 24.5h-134v-201z" />
    </font>
</defs>
</svg>
