<svg xmlns="http://www.w3.org/2000/svg">
<defs>
<font id="TofinoProPersonal-Semibold" horiz-adv-x="0" >
  <font-face 
    font-family="Tofino Pro Personal Semibold"
    font-weight="450"
    font-stretch="normal"
    units-per-em="1000"
    panose-1="0 0 5 0 0 0 0 0 0 0"
    ascent="760"
    descent="-240"
    x-height="541"
    cap-height="717"
    bbox="-769 -283 1208 1160"
    underline-thickness="50"
    underline-position="-225"
    unicode-range="U+0020-2661"
  />
<missing-glyph horiz-adv-x="616" 
d="M501 521q13 -9 15 -30t-11 -32q-10 -7 -24 -7q-15 0 -46 9q60 -63 60 -152q0 -87 -58 -149t-140 -62q-81 0 -139 62t-58 149q0 94 63 155q-22 31 -8 64q13 31 53 51.5t89 20.5q50 0 91.5 -21.5t55.5 -54.5l1 -2q38 12 56 -1zM297 576q-41 0 -75.5 -16.5t-44.5 -40.5
q-9 -19 4 -39q51 40 112 41q0 12 3 20q9 21 25 25q21 5 63 -33l2 -2q8 3 15 3q3 0 9 -2q-17 20 -49 32t-64 12zM319 532q-3 -8 -1 -12q5 -9 43 -14q1 -1 3 -1q1 1 1 3l3 7q-33 30 -42 28q-4 -2 -7 -11zM402 484q11 0 13 9q2 6 -1 10q-3 5 -9 6q-1 1 -4 1q-10 0 -13 -9
q-1 -3 1 -9q4 -6 9 -7zM440 485q43 -13 50 -7q4 2 2 12q0 8 -4 12q-8 6 -45 -5q-1 -1 -4 -1q0 -7 -1 -10q1 -1 2 -1zM228 482q-16 -18 -5 -41q16 -34 79.5 -61t162.5 -22q-17 65 -66 103q-5 0 -8 1q-15 5 -22 18h-1l-10 2q-35 4 -49 14q-4 1 -12 1q-36 0 -69 -15zM202 431
q-7 14 -7 30q-54 -44 -67 -112q29 -1 61 10t52 27q-27 20 -39 45zM447 318q9 12 14 16h-24q-105 0 -175 39q-46 -44 -124 -48l8 -7q16 9 57 9q50 0 71 -10q23 -11 46 0q20 10 71 10q43 0 56 -9zM124 309q0 -77 51 -132.5t122 -55.5q72 0 123 55.5t51 132.5q0 3 -0.5 8.5
t-0.5 8.5q-7 -6 -16 -18v-1q3 -28 -7 -50t-32 -25q-16 -2 -32 -2q-35 0 -47 7q-21 12 -28 45q-1 2 -1 5q-3 10 -11 10q-6 0 -9 -10q-1 -1 -1 -5q-7 -33 -29 -45q-12 -7 -47 -7q-17 0 -31 2q-22 3 -32.5 25.5t-7.5 49.5v1l-15 14v-13zM252 247q17 10 22 37q3 13 -2 20l-2 2
h-1q-18 10 -66 10q-18 0 -30.5 -2t-17 -4.5t-4.5 -3.5q-2 -21 5 -40.5t24 -21.5q16 -2 30 -2q32 0 42 5zM383 242q15 0 31 2q17 2 24 22t5 40q-5 10 -52 10q-48 0 -66 -10q-1 0 -1 -1l-2 -1q-5 -7 -2 -20q3 -26 22 -37q10 -5 41 -5zM226 294q11 -6 11 -21q0 -10 -7 -17

<glyph glyph-name="f_f" unicode="ff" horiz-adv-x="703" 
d="M92 0v418h-74v103h74v48q0 192 187 192l78 -1v-112h-34q-51 0 -71.5 -24t-20.5 -76v-27h196v48q0 84 42.5 138t144.5 54l79 -1v-112h-35q-51 0 -71 -23.5t-20 -76.5v-27h123v-103h-123v-418h-140v418h-196v-418h-139z" />
    <glyph glyph-name="f_f_i" unicode="ffi" horiz-adv-x="966" 
d="M92 0v418h-74v103h74v48q0 192 187 192l78 -1v-112h-34q-51 0 -71.5 -24t-20.5 -76v-27h196v48q0 84 42.5 138t144.5 54l79 -1v-112h-35q-51 0 -71 -23.5t-20 -76.5v-27h119v-103h-119v-418h-140v418h-196v-418h-139zM760 628v129h141v-129h-141zM760 0v543h140v-543
h-140z" />
    <glyph glyph-name="f_f_l" unicode="ffl" horiz-adv-x="967" 
d="M92 0v418h-74v103h74v48q0 192 187 192l78 -1v-112h-34q-51 0 -71.5 -24t-20.5 -76v-27h196v48q0 84 42.5 138t144.5 54l79 -1v-112h-35q-51 0 -71 -23.5t-20 -76.5v-27h121v-103h-121v-418h-140v418h-196v-418h-139zM762 0v755h139v-755h-139z" />
    <glyph glyph-name=".notdef" horiz-adv-x="616" 
d="M501 521q13 -9 15 -30t-11 -32q-10 -7 -24 -7q-15 0 -46 9q60 -63 60 -152q0 -87 -58 -149t-140 -62q-81 0 -139 62t-58 149q0 94 63 155q-22 31 -8 64q13 31 53 51.5t89 20.5q50 0 91.5 -21.5t55.5 -54.5l1 -2q38 12 56 -1zM297 576q-41 0 -75.5 -16.5t-44.5 -40.5
q-9 -19 4 -39q51 40 112 41q0 12 3 20q9 21 25 25q21 5 63 -33l2 -2q8 3 15 3q3 0 9 -2q-17 20 -49 32t-64 12zM319 532q-3 -8 -1 -12q5 -9 43 -14q1 -1 3 -1q1 1 1 3l3 7q-33 30 -42 28q-4 -2 -7 -11zM402 484q11 0 13 9q2 6 -1 10q-3 5 -9 6q-1 1 -4 1q-10 0 -13 -9
q-1 -3 1 -9q4 -6 9 -7zM440 485q43 -13 50 -7q4 2 2 12q0 8 -4 12q-8 6 -45 -5q-1 -1 -4 -1q0 -7 -1 -10q1 -1 2 -1zM228 482q-16 -18 -5 -41q16 -34 79.5 -61t162.5 -22q-17 65 -66 103q-5 0 -8 1q-15 5 -22 18h-1l-10 2q-35 4 -49 14q-4 1 -12 1q-36 0 -69 -15zM202 431
q-7 14 -7 30q-54 -44 -67 -112q29 -1 61 10t52 27q-27 20 -39 45zM447 318q9 12 14 16h-24q-105 0 -175 39q-46 -44 -124 -48l8 -7q16 9 57 9q50 0 71 -10q23 -11 46 0q20 10 71 10q43 0 56 -9zM124 309q0 -77 51 -132.5t122 -55.5q72 0 123 55.5t51 132.5q0 3 -0.5 8.5
t-0.5 8.5q-7 -6 -16 -18v-1q3 -28 -7 -50t-32 -25q-16 -2 -32 -2q-35 0 -47 7q-21 12 -28 45q-1 2 -1 5q-3 10 -11 10q-6 0 -9 -10q-1 -1 -1 -5q-7 -33 -29 -45q-12 -7 -47 -7q-17 0 -31 2q-22 3 -32.5 25.5t-7.5 49.5v1l-15 14v-13zM252 247q17 10 22 37q3 13 -2 20l-2 2
h-1q-18 10 -66 10q-18 0 -30.5 -2t-17 -4.5t-4.5 -3.5q-2 -21 5 -40.5t24 -21.5q16 -2 30 -2q32 0 42 5zM383 242q15 0 31 2q17 2 24 22t5 40q-5 10 -52 10q-48 0 -66 -10q-1 0 -1 -1l-2 -1q-5 -7 -2 -20q3 -26 22 -37q10 -5 41 -5zM226 294q11 -6 11 -21q0 -10 -7 -17
t-17 -7t-17 7t-7 17q0 5 1 8l-11 9q-3 2 0 5q2 2 5 0l9 -8l3 4l-6 11q-1 1 -0.5 2.5t1.5 2.5q3 2 5 -2l6 -10l4 2l-2 12q0 4 4 4q2 0 4 -3l1 -12q1 0 3 -0.5t3 -0.5l3 13q2 3 5 3q4 -2 2 -5zM414 295q1 1 2.5 1t2.5 -1q2 -4 -1 -5l-10 -10q0 -1 0.5 -3t0.5 -4
q0 -10 -7.5 -17t-17.5 -7t-17 7t-7 17q0 14 12 21l-4 14q0 4 3 5q4 0 4 -3l3 -13q2 1 6 1l2 12q0 3 4 3q3 0 3 -4l-2 -12l5 -2l6 10q2 4 4 2q1 -1 2 -2.5t0 -2.5l-7 -11q3 -1 3 -4zM296 143q23 0 38.5 10.5t15.5 26.5q0 15 -16 25.5t-38 10.5t-38 -10.5t-16 -25.5
q0 -16 15.5 -26.5t38.5 -10.5z" />
    <glyph glyph-name=".null" 
 />
    <glyph glyph-name="nonmarkingreturn" horiz-adv-x="333" 
 />
    <glyph glyph-name="space" unicode=" " horiz-adv-x="204" 
 />
    <glyph glyph-name="exclam" unicode="!" horiz-adv-x="272" 
d="M75 183l-9 534h140l-8 -534h-123zM66 0v136h140v-136h-140z" />
    <glyph glyph-name="quotedbl" unicode="&#x22;" horiz-adv-x="402" 
d="M54 512l-20 243h148l-21 -243h-107zM241 512l-21 243h149l-21 -243h-107z" />
    <glyph glyph-name="numbersign" unicode="#" horiz-adv-x="767" 
d="M129 0l35 179h-93v102h114l31 158h-98v102h119l32 161h108l-32 -161h132l32 161h108l-32 -161h97v-102h-118l-31 -158h102v-102h-123l-35 -179h-108l35 179h-132l-35 -179h-108zM293 281h132l31 158h-132z" />
    <glyph glyph-name="dollar" unicode="$" horiz-adv-x="575" 
d="M235 -41v82q-195 23 -195 217h118q0 -116 135 -118q120 -2 120 81q0 28 -20.5 47.5t-53 30t-72 20t-78.5 22.5t-71.5 32t-52.5 54t-19 84q2 165 189 184v67h101v-67q101 -10 145 -62t44 -144h-119q0 48 -25.5 76.5t-95.5 29.5q-117 1 -117 -81q0 -32 27.5 -53t68.5 -30
t88.5 -23t88.5 -31t68.5 -55.5t27.5 -95.5q0 -169 -201 -187v-80h-101z" />
    <glyph glyph-name="percent" unicode="%" horiz-adv-x="867" 
d="M380 537q0 -90 -40.5 -135.5t-134.5 -45.5t-135 46t-41 135q0 90 41 137t135 47t134.5 -46.5t40.5 -137.5zM133 0l460 702h131l-460 -702h-131zM124 537q0 -52 19 -77t62 -25t61.5 25t18.5 77q0 53 -18.5 79t-61.5 26q-81 0 -81 -105zM825 161q0 -90 -40.5 -135.5
t-134.5 -45.5t-135 46t-41 135q0 91 41 138t135 47t134.5 -47t40.5 -138zM569 161q0 -52 19 -77t62 -25t61.5 25t18.5 77q0 105 -80 105q-81 0 -81 -105z" />
    <glyph glyph-name="ampersand" unicode="&#x26;" horiz-adv-x="736" 
d="M369 737q220 0 220 -208h-129q0 52 -21 79t-70 27q-95 0 -95 -91q0 -24 6.5 -45t27 -48t32 -40.5t50.5 -52.5t53 -54q1 -1 83 -86q21 69 21 173h118q0 -159 -56 -257l100 -100v-39h-125q-21 20 -51 51q-86 -65 -222 -65q-251 0 -251 226q0 147 132 207q-47 68 -47 141
q0 89 56.5 135.5t167.5 46.5zM322 266q-63 66 -67 70q-71 -45 -71 -129q0 -130 154 -130q78 0 125 40q-102 107 -141 149z" />
    <glyph glyph-name="quotesingle" unicode="'" horiz-adv-x="215" 
d="M54 512l-20 243h148l-21 -243h-107z" />
    <glyph glyph-name="parenleft" unicode="(" horiz-adv-x="353" 
d="M75 280q0 82 10.5 162t26 135t31 98t25.5 64l11 21h128q-4 -8 -11 -23t-25 -64t-32 -102t-25 -132.5t-11 -158.5t11.5 -157.5t27.5 -133.5t32 -98.5t28 -64.5l11 -22h-129q-4 7 -11.5 21t-26.5 61.5t-33 99t-26 132t-12 162.5z" />
    <glyph glyph-name="parenright" unicode=")" horiz-adv-x="353" 
d="M174 760l11 -22t25 -62t32 -100t25 -133t11 -163t-11 -161.5t-27 -134t-32.5 -97t-27.5 -63.5l-11 -20h-129q4 8 11.5 22.5t26.5 63t33 100.5t26 131.5t12 158.5t-10.5 157.5t-26 134.5t-31 100t-25.5 66l-11 22h129z" />
    <glyph glyph-name="asterisk" unicode="*" horiz-adv-x="444" 
d="M61 580l27 86l94 -39l-4 99h87l-4 -99l94 39l28 -86l-100 -25l74 -79l-76 -58l-59 86l-60 -86l-75 58l74 79z" />
    <glyph glyph-name="plus" unicode="+" horiz-adv-x="494" 
d="M35 372h158v162h107v-162h159v-101h-159v-161h-107v161h-158v101z" />
    <glyph glyph-name="comma" unicode="," horiz-adv-x="270" 
d="M27 -124q24 57 41 144q8 40 11.5 71t3.5 41v11h126q-1 -46 -26 -134q-12 -43 -26.5 -76t-23.5 -45l-9 -12h-97z" />
    <glyph glyph-name="hyphen" unicode="-" horiz-adv-x="406" 
d="M77 264v107h252v-107h-252z" />
    <glyph glyph-name="period" unicode="." horiz-adv-x="267" 
d="M63 0v143h142v-143h-142z" />
    <glyph glyph-name="slash" unicode="/" horiz-adv-x="502" 
d="M38 -40l310 840h125l-310 -840h-125z" />
    <glyph glyph-name="zero" unicode="0" horiz-adv-x="651" 
d="M608 354q0 -200 -67 -283t-215 -83q-149 0 -215.5 82.5t-66.5 283.5t66.5 284t215.5 83q148 0 215 -83t67 -284zM187 354q0 -140 33 -191.5t106 -51.5t105.5 51.5t32.5 191.5t-32.5 192t-105.5 52t-106 -52t-33 -192z" />
    <glyph glyph-name="one" unicode="1" horiz-adv-x="357" 
d="M131 0v560l-123 -41v117l177 75h84v-711h-138z" />
    <glyph glyph-name="two" unicode="2" horiz-adv-x="579" 
d="M26 3v119q90 59 182 134q45 36 59.5 48t46.5 42t43.5 47.5t22.5 44.5t11 54q0 44 -27.5 73t-82.5 29q-54 0 -84.5 -35.5t-30.5 -88.5h-141q0 115 61.5 182.5t192.5 67.5q137 0 196.5 -61t59.5 -155q0 -30 -7 -59t-14.5 -50t-28 -48.5t-31 -41t-40.5 -41.5t-39.5 -36
t-44.5 -38q-22 -19 -84 -67l289 8v-128h-509z" />
    <glyph glyph-name="three" unicode="3" horiz-adv-x="591" 
d="M361 443q99 -18 143 -72.5t44 -147.5q0 -50 -13.5 -90.5t-43.5 -74.5t-83.5 -53t-128.5 -19q-140 0 -201.5 65t-61.5 166h142q0 -47 30 -78t88 -31q122 0 122 126q0 61 -37 94.5t-110 33.5q-20 0 -40.5 -2t-30.5 -4l-11 -2v89l188 142l-312 -7v125h491v-114z" />
    <glyph glyph-name="four" unicode="4" horiz-adv-x="616" 
d="M379 0v129h-366v113l293 464h210v-464h80v-113h-80v-129h-137zM379 242v372l-218 -372h218z" />
    <glyph glyph-name="five" unicode="5" horiz-adv-x="611" 
d="M234 585l-26 -157q53 36 149 36q114 0 167.5 -67t53.5 -171q0 -107 -63 -173.5t-206 -66.5q-75 0 -130.5 18.5t-85.5 50t-44 66.5t-14 74h149q0 -35 32 -63.5t93 -28.5q63 0 93.5 32.5t30.5 90.5q0 62 -31 98t-87 36q-41 0 -72.5 -14t-40.5 -23.5t-14 -17.5l-134 2
l59 394h425v-119z" />
    <glyph glyph-name="six" unicode="6" horiz-adv-x="643" 
d="M604 227q0 -109 -64 -174.5t-213 -66.5q-154 0 -218 79t-64 250q0 225 63.5 315.5t218.5 90.5q70 0 122 -19t80 -50.5t40.5 -66t12.5 -72.5h-141q0 38 -27 67t-85 29q-62 0 -93.5 -42t-41.5 -155q66 53 170 53q124 0 182 -66t58 -172zM331 362q-91 0 -142 -76
q4 -98 37 -142.5t101 -44.5q128 0 128 133q0 130 -124 130z" />
    <glyph glyph-name="seven" unicode="7" horiz-adv-x="512" 
d="M123 0q0 88 24 180.5t57.5 161.5t67.5 125t58 85l24 30l-351 -3v124h503v-126q-10 -12 -26 -33t-56.5 -85.5t-72 -129.5t-57 -156t-25.5 -173h-146z" />
    <glyph glyph-name="eight" unicode="8" horiz-adv-x="636" 
d="M318 -12q-152 0 -216.5 54.5t-64.5 156.5q0 84 43.5 130.5t78.5 50.5q-27 4 -63 41.5t-36 103.5q0 196 258 196q139 0 198.5 -51.5t59.5 -144.5q0 -66 -36 -103.5t-63 -41.5q13 -1 31.5 -12t40 -31t36 -56.5t14.5 -81.5q0 -103 -64 -157t-217 -54zM318 623
q-115 0 -115 -111q0 -43 29 -68t86 -25t86 25t29 68q0 111 -115 111zM318 330q-64 0 -95 -30.5t-31 -84.5q0 -116 126 -116q127 0 127 116q0 54 -31.5 84.5t-95.5 30.5z" />
    <glyph glyph-name="nine" unicode="9" horiz-adv-x="645" 
d="M601 381q0 -224 -62.5 -309.5t-223.5 -85.5q-76 0 -131 19t-84 51t-42 66t-13 72h142q0 -37 31 -66t97 -29q62 0 93 37.5t42 143.5q-63 -54 -164 -54q-135 0 -190 66.5t-55 187.5q0 107 67 174t210 67q155 1 219 -79.5t64 -260.5zM313 330q93 0 142 79
q-3 108 -35.5 153.5t-101.5 45.5q-60 0 -94 -36t-34 -97q0 -145 123 -145z" />
    <glyph glyph-name="colon" unicode=":" horiz-adv-x="285" 
d="M72 387v142h142v-142h-142zM72 24v148h142v-148h-142z" />
    <glyph glyph-name="semicolon" unicode=";" horiz-adv-x="288" 
d="M71 363v143h142v-143h-142zM23 -124q24 57 41 144q8 40 11.5 71t3.5 41v11h127q-2 -46 -27 -134q-12 -43 -27 -76t-24 -45l-8 -12h-97z" />
    <glyph glyph-name="less" unicode="&#x3c;" horiz-adv-x="531" 
d="M462 135l-413 131v125l413 132v-111l-321 -84l321 -83v-110z" />
    <glyph glyph-name="equal" unicode="=" horiz-adv-x="541" 
d="M55 342v100h431v-100h-431zM55 174v100h431v-100h-431z" />
    <glyph glyph-name="greater" unicode="&#x3e;" horiz-adv-x="531" 
d="M69 134v111l321 83l-321 84v110l413 -132v-125z" />
    <glyph glyph-name="question" unicode="?" horiz-adv-x="570" 
d="M341 172h-140l1 29q0 50 17 87t41 59.5t48 43t41 49.5t17 68q0 105 -95 105q-98 0 -98 -127h-135q0 119 54 183.5t177 64.5q127 0 186 -58t59 -157q0 -43 -12 -76.5t-30.5 -53t-40 -40t-40.5 -38t-32.5 -46t-15.5 -64.5zM201 0v127h140v-127h-140z" />
    <glyph glyph-name="at" unicode="@" horiz-adv-x="879" 
d="M626 -110q-76 -28 -191 -28q-205 0 -299 112t-94 308q0 91 22 165t67.5 132.5t123 91t180.5 32.5q107 0 186 -31t125.5 -88.5t68.5 -132.5t22 -169q0 -141 -38 -202.5t-129 -61.5q-98 0 -129 84q-47 -52 -138 -52q-175 0 -175 228q0 230 175 230q75 0 128 -51l7 45h90
v-304q0 -108 58 -108q32 0 46.5 39t14.5 153q0 166 -73.5 252.5t-238.5 86.5q-157 0 -230 -89.5t-73 -249.5q0 -339 304 -339q125 0 190 32v-85zM424 138q76 0 103 52v175q-38 54 -103 54q-46 0 -69 -37t-23 -104q0 -140 92 -140z" />
    <glyph glyph-name="A" unicode="A" horiz-adv-x="695" 
d="M7 0l258 717h165l258 -717h-155l-45 140h-285l-44 -140h-152zM240 255h211l-105 330z" />
    <glyph glyph-name="B" unicode="B" horiz-adv-x="675" 
d="M70 719h258q163 0 225 -44t62 -142q0 -120 -96 -162q115 -41 115 -172q0 -58 -11 -92.5t-44 -61t-93.5 -37t-158.5 -10.5h-257v721zM212 611v-188h136q70 -1 99 21t29 72q0 52 -32.5 73.5t-113.5 21.5h-118zM212 317v-211h118q95 0 129.5 22t34.5 82q0 57 -34.5 82
t-111.5 25h-136z" />
    <glyph glyph-name="C" unicode="C" horiz-adv-x="673" 
d="M635 267q-2 -152 -72.5 -219t-213.5 -67q-160 0 -233.5 89t-73.5 288t73.5 289t233.5 90q144 0 215 -68t72 -219h-141q-4 87 -39.5 124t-106.5 37q-85 0 -123 -57.5t-38 -195.5q0 -137 38 -194.5t123 -57.5q70 0 106 36.5t40 124.5h140z" />
    <glyph glyph-name="D" unicode="D" horiz-adv-x="698" 
d="M70 719h230q112 0 182 -20.5t108.5 -68t52 -110t13.5 -162.5t-13.5 -162.5t-52 -110t-108.5 -67.5t-182 -20h-230v721zM214 594v-473h112q103 -1 143 50t40 187q0 135 -39.5 185.5t-143.5 50.5h-112z" />
    <glyph glyph-name="E" unicode="E" horiz-adv-x="583" 
d="M70 0v717h482v-121h-340v-172h290v-113h-290v-190h346v-121h-488z" />
    <glyph glyph-name="F" unicode="F" horiz-adv-x="552" 
d="M70 0v717h472v-121h-330v-193h280v-116h-280v-287h-142z" />
    <glyph glyph-name="G" unicode="G" horiz-adv-x="678" 
d="M627 91q0 -3 -9.5 -14.5t-31.5 -28t-52.5 -31.5t-80 -25.5t-105.5 -10.5q-161 -1 -233.5 88.5t-72.5 288.5t72.5 289t233.5 90q280 0 280 -265h-136q-1 67 -38.5 103t-105.5 36q-85 0 -122.5 -58t-37.5 -195q0 -141 39 -199t126 -58q63 0 103.5 20.5t40.5 39.5v101h-125
v102h255v-273z" />
    <glyph glyph-name="H" unicode="H" horiz-adv-x="705" 
d="M70 0v717h142v-285h281v285h142v-717h-142v303h-281v-303h-142z" />
    <glyph glyph-name="I" unicode="I" horiz-adv-x="282" 
d="M70 0v717h142v-717h-142z" />
    <glyph glyph-name="J" unicode="J" horiz-adv-x="402" 
d="M341 301q0 -52 -2.5 -87t-9 -69.5t-19 -56t-33 -40t-50.5 -28t-70.5 -15t-95.5 -5.5h-58v130h58q83 0 110 34.5t27 136.5v416h143v-416z" />
    <glyph glyph-name="K" unicode="K" horiz-adv-x="670" 
d="M70 0v717h142v-379l282 379h166l-231 -293l235 -424h-157l-168 310l-127 -161v-149h-142z" />
    <glyph glyph-name="L" unicode="L" horiz-adv-x="512" 
d="M70 0v717h142v-588h290v-129h-432z" />
    <glyph glyph-name="M" unicode="M" horiz-adv-x="945" 
d="M70 0v717h206l193 -591l193 591h213l-1 -717h-138l13 576l-209 -576h-146l-201 576l12 -576h-135z" />
    <glyph glyph-name="N" unicode="N" horiz-adv-x="739" 
d="M196 549l7 -549h-133l2 717h161l310 -540l-8 540h134v-717h-163z" />
    <glyph glyph-name="O" unicode="O" horiz-adv-x="703" 
d="M661 358q0 -199 -73.5 -288t-236.5 -89q-162 0 -235.5 89t-73.5 288t73.5 289t235.5 90t236 -90t74 -289zM188 358q0 -138 38 -195t125 -57t125.5 57t38.5 195t-38.5 195.5t-125.5 57.5t-125 -57.5t-38 -195.5z" />
    <glyph glyph-name="P" unicode="P" horiz-adv-x="671" 
d="M70 0v719h237q188 0 261 -52t73 -196t-73 -196.5t-262 -52.5h-94v-222h-142zM212 602v-260h115q89 0 128 24.5t39 105.5t-39 105.5t-128 24.5h-115z" />
    <glyph glyph-name="Q" unicode="Q" horiz-adv-x="710" 
d="M661 358q0 -220 -92 -308l104 -94l-96 -82l-114 120q-54 -13 -112 -13q-162 0 -235.5 89t-73.5 288t73.5 289t235.5 90t236 -90t74 -289zM188 358q0 -138 38 -195t125 -57t125.5 57t38.5 195t-38.5 195.5t-125.5 57.5t-125 -57.5t-38 -195.5z" />
    <glyph glyph-name="R" unicode="R" horiz-adv-x="687" 
d="M70 0v719h276q164 0 231.5 -50.5t67.5 -190.5q0 -94 -29 -145.5t-94 -73.5l128 -259h-153l-108 240q-15 -1 -47 -1h-130v-239h-142zM212 599v-240h119q91 0 129 22.5t38 97.5t-38 97.5t-129 22.5h-119z" />
    <glyph glyph-name="S" unicode="S" horiz-adv-x="650" 
d="M612 197q0 -107 -72.5 -162t-214.5 -54q-285 2 -285 253h139q0 -133 152 -135q137 -2 137 93q0 36 -31.5 60t-78.5 34.5t-101.5 26.5t-101.5 36t-78 64t-30 109q1 102 69 159t205 56q149 -1 213 -61t64 -179h-139q0 54 -29 86.5t-108 33.5q-133 1 -133 -91
q0 -31 23.5 -52.5t60.5 -33t82 -22t90.5 -25.5t82.5 -37t60.5 -62.5t23.5 -96.5z" />
    <glyph glyph-name="T" unicode="T" horiz-adv-x="576" 
d="M214 0l2 589h-209v128h562v-128h-211l-1 -589h-143z" />
    <glyph glyph-name="U" unicode="U" horiz-adv-x="687" 
d="M626 343q0 -97 -10.5 -158.5t-40 -110.5t-86 -71t-146.5 -22q-89 0 -146 22t-86.5 71t-40 110.5t-10.5 158.5v374h143v-363q0 -138 29 -190.5t111 -52.5t110.5 52.5t28.5 190.5v363h144v-374z" />
    <glyph glyph-name="V" unicode="V" horiz-adv-x="655" 
d="M2 717h160l167 -598l168 598h156l-234 -717h-182z" />
    <glyph glyph-name="W" unicode="W" horiz-adv-x="1033" 
d="M517 574l-127 -574h-179l-197 717h164l127 -592l128 592h171l127 -592l134 592h153l-201 -717h-178z" />
    <glyph glyph-name="X" unicode="X" horiz-adv-x="657" 
d="M324 265l-157 -265h-158l227 353l-227 364h157l162 -274l161 274h159l-233 -358l221 -359h-157z" />
    <glyph glyph-name="Y" unicode="Y" horiz-adv-x="636" 
d="M248 0v212l-241 505h160l151 -388l144 388h168l-241 -503v-214h-141z" />
    <glyph glyph-name="Z" unicode="Z" horiz-adv-x="576" 
d="M19 2v121l354 472h-338v120h514v-120l-357 -472h361v-121h-534z" />
    <glyph glyph-name="bracketleft" unicode="[" horiz-adv-x="417" 
d="M100 -198v958h287v-107h-163v-744h163v-107h-287z" />
    <glyph glyph-name="backslash" unicode="\" horiz-adv-x="511" 
d="M473 -40h-125l-310 840h125z" />
    <glyph glyph-name="bracketright" unicode="]" horiz-adv-x="417" 
d="M317 -198h-287v107h164v744h-164v107h287v-958z" />
    <glyph glyph-name="asciicircum" unicode="^" horiz-adv-x="455" 
d="M406 460h-99l-77 192l-77 -192h-98l130 287h90z" />
    <glyph glyph-name="underscore" unicode="_" horiz-adv-x="586" 
d="M81 0v102h424v-102h-424z" />
    <glyph glyph-name="grave" unicode="`" horiz-adv-x="424" 
d="M284 625h-124l-104 161h142z" />
    <glyph glyph-name="a" unicode="a" horiz-adv-x="609" 
d="M427 0l-12 49q-71 -64 -175 -64q-199 0 -199 170q0 180 224 180q77 0 139 -8q-1 74 -20.5 101t-84.5 27q-108 0 -108 -85h-125q0 184 226 184q51 0 90.5 -7.5t66 -18.5t45 -33t28.5 -41.5t15 -54t6 -60.5t1 -70v-123l11 -146h-128zM278 87q43 0 76 17t50 41v96
q-40 5 -96 5q-63 0 -93.5 -19t-30.5 -63q0 -77 94 -77z" />
    <glyph glyph-name="b" unicode="b" horiz-adv-x="621" 
d="M57 0l10 152v603h140v-260q61 59 160 59q212 0 212 -285q0 -139 -51.5 -209.5t-163.5 -70.5q-120 0 -174 74l-13 -63h-120zM325 441q-72 0 -118 -59v-221q42 -59 119 -59q113 0 113 168q0 171 -114 171z" />
    <glyph glyph-name="c" unicode="c" horiz-adv-x="587" 
d="M551 195q-5 -102 -62.5 -156t-186.5 -54q-140 0 -200 71.5t-60 214.5q0 142 60 214.5t200 72.5q130 0 187.5 -57t61.5 -168h-137q-4 116 -112 116q-64 0 -90.5 -42t-26.5 -136q0 -95 26.5 -136t90.5 -41q107 0 111 101h138z" />
    <glyph glyph-name="d" unicode="d" horiz-adv-x="618" 
d="M445 0l-14 63q-54 -74 -174 -74q-111 0 -163 70.5t-52 209.5q0 285 213 285q95 0 159 -59v260h140v-603l10 -152h-119zM295 102q73 0 119 58v222q-46 59 -118 59q-113 0 -113 -171q0 -168 112 -168z" />
    <glyph glyph-name="e" unicode="e" horiz-adv-x="600" 
d="M558 171q-2 -34 -14 -64t-38.5 -59t-78 -46t-123.5 -17q-140 0 -201 72t-61 214t61 214.5t201 72.5t198 -74.5t58 -245.5h-374q4 -80 31.5 -114.5t86.5 -34.5t86.5 25t28.5 57h139zM303 460q-54 0 -81.5 -30t-34.5 -99h229q-9 72 -36 100.5t-77 28.5z" />
    <glyph glyph-name="f" unicode="f" horiz-adv-x="367" 
d="M357 763v-115h-34q-51 0 -71.5 -24t-20.5 -76v-27h125v-103h-125v-418h-139v418h-74v103h74v48q0 195 187 195z" />
    <glyph glyph-name="g" unicode="g" horiz-adv-x="617" 
d="M554 -2v-3q0 -30 -0.5 -45.5t-5.5 -44.5t-14 -45.5t-27.5 -38.5t-45 -33.5t-67.5 -20t-94 -8.5q-71 0 -122 20t-72.5 48.5t-32.5 56.5t-11 48v20h143v-1q0 -12 2 -22t9.5 -29t30 -30.5t56.5 -11.5q39 0 62.5 9.5t33.5 31.5t12.5 42.5t2.5 57.5v45q-53 -55 -157 -55
q-111 0 -163 70.5t-52 209.5q0 285 213 285q112 0 175 -76l14 65h119l-9 -149v-396zM295 102q73 0 119 58v222q-46 59 -118 59q-113 0 -113 -171q0 -168 112 -168z" />
    <glyph glyph-name="h" unicode="h" horiz-adv-x="623" 
d="M66 0v755h140v-277q64 73 179 73q97 0 139 -56t41 -184v-311h-140v311q0 58 -21 86.5t-73 28.5q-80 0 -125 -77v-349h-140z" />
    <glyph glyph-name="i" unicode="i" horiz-adv-x="270" 
d="M65 628v138h140v-138h-140zM65 0v543h140v-543h-140z" />
    <glyph glyph-name="j" unicode="j" horiz-adv-x="277" 
d="M72 628v138h140v-138h-140zM212 70q0 -44 -1 -67.5t-6 -58t-14.5 -52.5t-28 -40t-45.5 -32.5t-67.5 -18t-93.5 -7.5v124q35 0 57 6.5t34 15.5t17.5 32t6.5 40.5t1 57.5v473h140v-473z" />
    <glyph glyph-name="k" unicode="k" horiz-adv-x="557" 
d="M66 0v755h135v-461l187 249h152l-171 -208l190 -335h-157l-119 230l-82 -99v-131h-135z" />
    <glyph glyph-name="l" unicode="l" horiz-adv-x="272" 
d="M66 0l1 755h139v-755h-140z" />
    <glyph glyph-name="m" unicode="m" horiz-adv-x="942" 
d="M67 0v398l-10 145h120l14 -71q61 79 176 79q113 0 152 -87q22 32 68 59.5t118 27.5q94 0 137 -56.5t42 -183.5v-311h-134v311q0 58 -20.5 86.5t-70.5 28.5q-72 0 -117 -68q1 -15 1 -47v-311h-128v311q0 58 -20.5 86.5t-69.5 28.5q-71 0 -118 -71v-355h-140z" />
    <glyph glyph-name="n" unicode="n" horiz-adv-x="622" 
d="M67 0v398l-10 145h120l16 -79q23 32 70 59.5t121 27.5q98 0 139 -57t41 -192v-302h-140v303q0 64 -21 93.5t-73 29.5q-77 0 -123 -74v-352h-140z" />
    <glyph glyph-name="o" unicode="o" horiz-adv-x="611" 
d="M569 271q0 -144 -60.5 -215t-203.5 -71q-142 0 -202.5 71.5t-60.5 214.5t60.5 215t202.5 72q143 1 203.5 -71.5t60.5 -215.5zM185 271q0 -95 27 -135.5t93 -40.5q67 0 94 40.5t27 135.5q0 94 -27 135.5t-94 41.5q-66 0 -93 -41.5t-27 -135.5z" />
    <glyph glyph-name="p" unicode="p" horiz-adv-x="621" 
d="M67 -240v634l-10 149h120l13 -65q65 76 176 76q213 0 213 -285q0 -139 -52 -209.5t-163 -70.5q-102 0 -157 55v-284h-140zM325 441q-72 0 -118 -59v-222q43 -58 119 -58q112 0 112 168q0 171 -113 171z" />
    <glyph glyph-name="q" unicode="q" horiz-adv-x="618" 
d="M414 -240v284q-53 -55 -157 -55q-111 0 -163 70.5t-52 209.5q0 285 213 285q112 0 174 -75l16 64h119l-10 -138v-645h-140zM295 102q73 0 119 58v222q-46 59 -118 59q-113 0 -113 -171q0 -168 112 -168z" />
    <glyph glyph-name="r" unicode="r" horiz-adv-x="405" 
d="M67 0v384l-10 159h121l17 -96q17 42 63 76t131 34v-126q-48 0 -84.5 -15.5t-56 -40.5t-28.5 -43t-13 -35v-297h-140z" />
    <glyph glyph-name="s" unicode="s" horiz-adv-x="564" 
d="M533 153q0 -83 -59 -126t-192 -42q-123 1 -187 52.5t-64 146.5h135q0 -47 30 -71.5t84 -24.5q111 -1 113 66q0 27 -25.5 43.5t-64.5 22t-84.5 16t-85 24t-66 48t-26.5 86.5q-1 79 58.5 122t182.5 42q237 -1 237 -186h-133q0 42 -23.5 64t-77.5 23q-106 1 -106 -66
q0 -25 26 -40t65.5 -20t85.5 -15.5t85.5 -25t65.5 -50t26 -89.5z" />
    <glyph glyph-name="t" unicode="t" horiz-adv-x="367" 
d="M350 -2h-50q-72 0 -117 16t-66 51.5t-27 73t-6 99.5v201h-70v104h70v151l140 22v-173h123v-104h-123v-196q0 -68 18 -96t69 -28h39v-121z" />
    <glyph glyph-name="u" unicode="u" horiz-adv-x="616" 
d="M442 0l-18 85q-13 -19 -32.5 -37.5t-62.5 -37t-95 -18.5q-98 0 -139.5 55.5t-41.5 184.5l1 311h139v-311q0 -58 21 -86.5t73 -28.5q80 0 124 81v345h140v-393l11 -150h-120z" />
    <glyph glyph-name="v" unicode="v" horiz-adv-x="568" 
d="M7 543h156l122 -438l121 438h154l-199 -543h-153z" />
    <glyph glyph-name="w" unicode="w" horiz-adv-x="862" 
d="M429 417l-97 -417h-163l-164 543h148l99 -431l100 431h156l106 -433l97 433h147l-160 -543h-167z" />
    <glyph glyph-name="x" unicode="x" horiz-adv-x="577" 
d="M284 176l-111 -176h-158l189 270l-194 273h165l119 -187l117 187h157l-193 -281l185 -262h-164z" />
    <glyph glyph-name="y" unicode="y" horiz-adv-x="571" 
d="M186 -230l69 230h-56l-192 543h154l126 -437l132 437h144l-250 -773h-127z" />
    <glyph glyph-name="z" unicode="z" horiz-adv-x="484" 
d="M22 2v112l273 316h-263v111h426v-110l-273 -317h273v-112h-436z" />
    <glyph glyph-name="braceleft" unicode="{" horiz-adv-x="448" 
d="M157 574q0 64 8 97.5t38.5 55.5t78 28t136.5 6v-102q-80 0 -103.5 -24t-23.5 -105l-1 -152q0 -25 -9 -45t-22.5 -31t-21.5 -15.5t-14 -6.5q7 -2 20 -8.5t30.5 -31t17.5 -57.5v-157q0 -78 23.5 -101t103.5 -23v-102q-88 0 -136.5 7t-78 30t-38 57.5t-8.5 98.5v184
q0 32 -16.5 44t-70.5 12v96q54 0 70.5 11.5t16.5 43.5v190z" />
    <glyph glyph-name="bar" unicode="|" horiz-adv-x="231" 
d="M66 -189v1009h99v-1009h-99z" />
    <glyph glyph-name="braceright" unicode="}" horiz-adv-x="448" 
d="M291 -12q0 -51 -6 -81.5t-20.5 -53.5t-45.5 -33.5t-74.5 -15t-114.5 -4.5v102q79 0 102.5 24t24.5 105l1 152q0 33 16.5 57t28 31t20.5 10q-3 1 -8 3.5t-16 10t-19.5 17.5t-15.5 28t-7 39v157q0 77 -24 100t-103 23v102q88 0 136.5 -7t78 -30t38 -57.5t8.5 -98.5v-184
q0 -32 16.5 -44t70.5 -12v-95q-54 0 -70.5 -11.5t-16.5 -43.5v-190z" />
    <glyph glyph-name="asciitilde" unicode="~" horiz-adv-x="561" 
d="M39 232q0 164 143 164q48 0 103 -27.5t90 -27.5q34 0 51.5 19t17.5 36h77q0 -164 -142 -164q-48 0 -103 27.5t-90 27.5q-34 0 -51.5 -19t-17.5 -36h-78z" />
    <glyph glyph-name="exclamdown" unicode="&#xa1;" horiz-adv-x="272" 
d="M66 407v136h140v-136h-140zM66 -174l9 534h123l8 -534h-140z" />
    <glyph glyph-name="cent" unicode="&#xa2;" horiz-adv-x="587" 
d="M250 -20v82q-112 13 -160 83.5t-48 199.5t48.5 200t159.5 84v81h99v-80q104 -10 151 -66t51 -156h-137q-4 115 -112 115q-64 0 -90.5 -42t-26.5 -136q0 -95 26.5 -135.5t90.5 -40.5q107 0 111 101h138q-5 -93 -52 -146t-150 -62v-82h-99z" />
    <glyph glyph-name="sterling" unicode="&#xa3;" horiz-adv-x="567" 
d="M264 243q0 -3 0.5 -8t0.5 -7q0 -84 -56 -125l319 6v-113h-503v104q4 1 12.5 4t24 11.5t28 20t22.5 31.5t10 44q0 22 -1 32h-107v90h85q-4 12 -21.5 51t-25 67t-7.5 64q0 87 61 140t185 53q132 0 189 -58.5t57 -170.5h-138q0 51 -28 80.5t-75 29.5q-48 0 -75 -28t-27 -75
q0 -25 8 -48.5t23 -54t22 -50.5h153v-90h-136z" />
    <glyph glyph-name="currency" unicode="&#xa4;" horiz-adv-x="684" 
d="M576 483q32 -63 32 -160q0 -95 -30 -155l64 -65l-78 -79l-63 63q-62 -35 -158 -35q-99 0 -159 34l-62 -62l-79 79l65 65q-30 60 -30 155q0 94 29 155l-65 66l79 78l62 -61q60 36 160 37q96 0 155 -34l63 63l79 -79zM218 323q0 -152 125 -152t125 152q0 156 -125 156
t-125 -156z" />
    <glyph glyph-name="yen" unicode="&#xa5;" horiz-adv-x="614" 
d="M239 0v156h-112v81h112v49h-112v81h84l-204 342h158l142 -294l135 294h166l-205 -342h83v-81h-111v-49h111v-81h-111v-156h-136z" />
    <glyph glyph-name="brokenbar" unicode="&#xa6;" horiz-adv-x="231" 
d="M66 395v425h99v-425h-99zM165 245v-425h-99v425h99z" />
    <glyph glyph-name="section" unicode="&#xa7;" horiz-adv-x="548" 
d="M517 383q0 -74 -56 -118q53 -40 53 -118q0 -82 -58 -124.5t-186 -42.5q-130 0 -184.5 45.5t-54.5 142.5h125q0 -100 112 -100t112 71q0 31 -25.5 50.5t-63.5 26t-83 17.5t-83 24.5t-63.5 48.5t-25.5 88q0 74 59 117q-56 40 -56 118q0 159 233 159q125 0 178.5 -43
t53.5 -132h-125q0 43 -23 65t-82 22q-102 0 -102 -70q0 -35 35.5 -52t86 -24.5t101.5 -19.5t86.5 -49t35.5 -102zM169 394q0 -16 8 -28.5t19 -19.5t32 -13.5t37 -9.5t44 -8t44 -8q30 26 30 67q0 15 -5 26.5t-16 20t-21.5 14.5t-30 11t-32 8t-37 7.5t-37.5 7.5
q-35 -29 -35 -75z" />
    <glyph glyph-name="dieresis" unicode="&#xa8;" horiz-adv-x="464" 
d="M62 624v142h130v-142h-130zM265 624v142h129v-142h-129z" />
    <glyph glyph-name="copyright" unicode="&#xa9;" horiz-adv-x="823" 
d="M781 348q0 -83 -19.5 -150t-61 -120.5t-115 -83t-174.5 -29.5q-100 0 -173 29.5t-115 83t-61.5 120.5t-19.5 150t19.5 150.5t61.5 122.5t115.5 85t172.5 30q101 0 174.5 -30t115 -85t61 -122.5t19.5 -150.5zM121 348q0 -314 290 -314q291 0 291 314q0 319 -291 319
q-80 0 -138.5 -25t-90.5 -70t-46.5 -100t-14.5 -124zM587 298q-1 -93 -44 -134t-129 -41q-97 0 -142 53.5t-45 173.5t45 173.5t142 53.5q86 0 129 -41t44 -133h-93q-1 51 -21.5 72.5t-58.5 21.5q-48 0 -69.5 -33t-21.5 -114t21.5 -114t69.5 -33q37 0 57.5 21.5t22.5 73.5h93
z" />
    <glyph glyph-name="ordfeminine" unicode="&#xaa;" horiz-adv-x="420" 
d="M295 362l-8 30q-49 -42 -119 -42q-140 0 -140 120q0 124 157 124q57 0 94 -5q-1 49 -14.5 68.5t-55.5 19.5q-73 0 -73 -58h-90q0 128 158 128q49 0 82.5 -10t51.5 -25t27.5 -43.5t11.5 -53t2 -67.5v-85l8 -101h-92zM194 424q53 0 85 36v66q-34 4 -64 4q-43 0 -64 -12.5
t-21 -42.5q0 -51 64 -51z" />
    <glyph glyph-name="guillemotleft" unicode="&#xab;" horiz-adv-x="655" 
d="M196 90l-117 165v25l117 172h152l-139 -186l139 -176h-152zM425 90l-117 165v25l117 172h152l-139 -186l139 -176h-152z" />
    <glyph glyph-name="registered" unicode="&#xae;" horiz-adv-x="823" 
d="M781 348q0 -83 -19.5 -150t-61 -120.5t-115 -83t-174.5 -29.5q-100 0 -173 29.5t-115 83t-61.5 120.5t-19.5 150t19.5 150.5t61.5 122.5t115.5 85t172.5 30q101 0 174.5 -30t115 -85t61 -122.5t19.5 -150.5zM121 348q0 -314 290 -314q291 0 291 314q0 319 -291 319
q-80 0 -138.5 -25t-90.5 -70t-46.5 -100t-14.5 -124zM249 137v427h173q92 0 131 -31t39 -114q0 -57 -17 -87t-56 -43l70 -152h-97l-58 140h-93v-140h-92zM341 489v-138h72q45 0 65 13t20 56t-20 56t-65 13h-72z" />
    <glyph glyph-name="macron" unicode="&#xaf;" horiz-adv-x="471" 
d="M60 739h294v-91h-294v91z" />
    <glyph glyph-name="degree" unicode="&#xb0;" horiz-adv-x="371" 
d="M311 600q0 -128 -125 -128q-126 0 -126 128q0 130 126 130q125 0 125 -130zM138 600q0 -61 48 -61q47 0 47 61q0 63 -47 63q-48 0 -48 -63z" />
    <glyph glyph-name="plusminus" unicode="&#xb1;" horiz-adv-x="534" 
d="M213 222v112h-154v100h154v111h107v-111h155v-100h-155v-112h-107zM59 86v100h416v-100h-416z" />
    <glyph glyph-name="uni00B2" unicode="&#xb2;" horiz-adv-x="441" 
d="M26 301v93q66 49 134 104q40 31 55 44t39.5 38t33.5 47t9 47q0 32 -19.5 52t-58.5 20t-61 -25.5t-22 -63.5h-114q0 88 46.5 139.5t148.5 51.5q107 0 152 -46t45 -118q0 -32 -10 -62.5t-19.5 -49t-36.5 -47t-38 -38.5t-46 -41q-9 -8 -32.5 -27t-29.5 -24l209 7v-101h-385z
" />
    <glyph glyph-name="uni00B3" unicode="&#xb3;" horiz-adv-x="467" 
d="M293 632q74 -15 105.5 -57t31.5 -112q0 -77 -48 -126.5t-158 -49.5q-107 0 -154 49.5t-47 128.5h115q0 -33 21 -55.5t63 -22.5q86 0 86 85q0 95 -107 95l-59 -6v72l133 100l-230 -7v101h375v-90z" />
    <glyph glyph-name="acute" unicode="&#xb4;" horiz-adv-x="424" 
d="M45 625l86 161h142l-105 -161h-123z" />
    <glyph glyph-name="paragraph" unicode="&#xb6;" horiz-adv-x="677" 
d="M325 0v274q-167 4 -230.5 53.5t-63.5 189.5t63 189.5t231 52.5v1h286v-760h-98v653h-89v-653h-99zM163 518q0 -79 35 -105.5t127 -28.5v268q-92 -2 -127 -28.5t-35 -105.5z" />
    <glyph glyph-name="periodcentered" unicode="&#xb7;" horiz-adv-x="284" 
d="M72 229v143h142v-143h-142z" />
    <glyph glyph-name="cedilla" unicode="&#xb8;" horiz-adv-x="438" 
d="M315 -149q0 -53 -36.5 -77.5t-127.5 -24.5q-27 0 -49.5 2.5t-31.5 4.5l-10 3v70q0 -1 5 -2.5t17.5 -3.5t29.5 -2q67 0 67 43q0 45 -85 45h-4l46 93h118l-32 -62q93 -8 93 -89z" />
    <glyph glyph-name="uni00B9" unicode="&#xb9;" horiz-adv-x="275" 
d="M99 298v412l-92 -40v105l136 57h68v-534h-112z" />
    <glyph glyph-name="ordmasculine" unicode="&#xba;" horiz-adv-x="419" 
d="M393 549q0 -100 -42 -149.5t-142 -49.5q-99 0 -141 49.5t-42 149.5t42 150.5t141 50.5q100 0 142 -50.5t42 -150.5zM128 549q0 -65 18.5 -92.5t62.5 -27.5q45 0 63.5 27.5t18.5 92.5t-18.5 93t-63.5 28q-44 0 -62.5 -28t-18.5 -93z" />
    <glyph glyph-name="guillemotright" unicode="&#xbb;" horiz-adv-x="655" 
d="M231 90h-153l138 176l-138 186h153l117 -172v-25zM459 90h-152l138 176l-138 186h152l117 -172v-25z" />
    <glyph glyph-name="onequarter" unicode="&#xbc;" horiz-adv-x="969" 
d="M122 -40l479 807h115l-478 -807h-116zM99 226v412l-92 -40v105l136 57h68v-534h-112zM784 0v94h-268v92l214 346h165v-346h60v-92h-60v-94h-111zM784 186v267l-152 -267h152z" />
    <glyph glyph-name="onehalf" unicode="&#xbd;" horiz-adv-x="998" 
d="M122 -40l479 807h115l-478 -807h-116zM99 226v412l-92 -40v105l136 57h68v-534h-112zM583 3v93q66 49 134 104q40 31 55 44t39.5 38t33.5 47t9 47q0 32 -19.5 52t-58.5 20t-61 -25.5t-22 -63.5h-114q0 88 46.5 139.5t148.5 51.5q107 0 152 -46t45 -118q0 -32 -10 -62.5
t-19.5 -49t-36.5 -47t-38 -38.5t-46 -41q-9 -8 -32.5 -27t-29.5 -24l209 7v-101h-385z" />
    <glyph glyph-name="threequarters" unicode="&#xbe;" horiz-adv-x="1140" 
d="M293 -40l479 807h115l-478 -807h-116zM293 560q74 -15 105.5 -57t31.5 -112q0 -77 -48 -126.5t-158 -49.5q-107 0 -154 49.5t-47 128.5h115q0 -33 21 -55.5t63 -22.5q86 0 86 85q0 95 -107 95l-59 -6v72l133 100l-230 -7v101h375v-90zM955 0v94h-268v92l214 346h165v-346
h60v-92h-60v-94h-111zM955 186v267l-152 -267h152z" />
    <glyph glyph-name="questiondown" unicode="&#xbf;" horiz-adv-x="559" 
d="M369 543v-127h-140v127h140zM229 371h140l-1 -29q0 -50 -17 -87t-41 -59t-47.5 -42.5t-40.5 -50t-17 -68.5q0 -105 94 -105q98 0 98 127h135q0 -119 -53.5 -183.5t-177.5 -64.5q-127 0 -186 58t-59 157q0 43 12 76.5t30.5 53t40 40t40.5 38t33 46t16 64.5z" />
    <glyph glyph-name="Agrave" unicode="&#xc0;" horiz-adv-x="695" 
d="M417 773h-146l-104 134h165zM7 0l258 717h165l258 -717h-155l-45 140h-285l-44 -140h-152zM240 255h211l-105 330z" />
    <glyph glyph-name="Aacute" unicode="&#xc1;" horiz-adv-x="695" 
d="M271 771l86 135h165l-105 -135h-146zM7 0l258 717h165l258 -717h-155l-45 140h-285l-44 -140h-152zM240 255h211l-105 330z" />
    <glyph glyph-name="Acircumflex" unicode="&#xc2;" horiz-adv-x="695" 
d="M536 771h-121l-67 67l-67 -67h-117l114 139h139zM7 0l258 717h165l258 -717h-155l-45 140h-285l-44 -140h-152zM240 255h211l-105 330z" />
    <glyph glyph-name="Atilde" unicode="&#xc3;" horiz-adv-x="695" 
d="M526 914q0 -67 -23 -106t-84 -39q-33 0 -55.5 11.5t-39.5 23t-37 11.5q-24 0 -34.5 -15t-10.5 -31h-75q0 68 23 107t84 39q42 0 76 -23t56 -23q24 0 34.5 15t10.5 30h75zM7 0l258 717h165l258 -717h-155l-45 140h-285l-44 -140h-152zM240 255h211l-105 330z" />
    <glyph glyph-name="Adieresis" unicode="&#xc4;" horiz-adv-x="695" 
d="M171 771v142h140v-142h-140zM383 771v142h141v-142h-141zM7 0l258 717h165l258 -717h-155l-45 140h-285l-44 -140h-152zM240 255h211l-105 330z" />
    <glyph glyph-name="Aring" unicode="&#xc5;" horiz-adv-x="695" 
d="M470 872q0 -53 -33 -83t-89 -30t-89.5 30t-33.5 83q0 54 33.5 84t89.5 30t89 -30t33 -84zM312 872q0 -16 10 -26t26 -10t25.5 10t9.5 26q0 17 -9.5 27t-25.5 10t-26 -10t-10 -27zM7 0l258 717h165l258 -717h-155l-45 140h-285l-44 -140h-152zM240 255h211l-105 330z" />
    <glyph glyph-name="AE" unicode="&#xc6;" horiz-adv-x="967" 
d="M7 0l358 717h571v-121h-340v-172h290v-113h-290v-190h346v-121h-489v154h-216l-73 -154h-157zM453 265v346l-164 -346h164z" />
    <glyph glyph-name="Ccedilla" unicode="&#xc7;" horiz-adv-x="673" 
d="M481 -154q0 -53 -36.5 -77.5t-127.5 -24.5q-27 0 -49.5 2.5t-31.5 5.5l-10 2v70q0 -1 5 -2.5t17.5 -3.5t29.5 -2q67 0 67 43q0 45 -85 45h-4l39 80q-132 14 -192.5 103t-60.5 271q0 199 73.5 289t233.5 90q144 0 215 -68t72 -219h-141q-4 87 -39.5 124t-106.5 37
q-85 0 -123 -57.5t-38 -195.5q0 -137 38 -194.5t123 -57.5q70 0 106 36.5t40 124.5h140q-2 -134 -57 -201.5t-164 -80.5l-26 -50q93 -8 93 -89z" />
    <glyph glyph-name="Egrave" unicode="&#xc8;" horiz-adv-x="583" 
d="M379 773h-146l-104 134h165zM70 0v717h482v-121h-340v-172h290v-113h-290v-190h346v-121h-488z" />
    <glyph glyph-name="Eacute" unicode="&#xc9;" horiz-adv-x="583" 
d="M233 771l86 135h165l-105 -135h-146zM70 0v717h482v-121h-340v-172h290v-113h-290v-190h346v-121h-488z" />
    <glyph glyph-name="Ecircumflex" unicode="&#xca;" horiz-adv-x="583" 
d="M498 771h-121l-67 67l-67 -67h-117l114 139h139zM70 0v717h482v-121h-340v-172h290v-113h-290v-190h346v-121h-488z" />
    <glyph glyph-name="Edieresis" unicode="&#xcb;" horiz-adv-x="583" 
d="M133 771v142h140v-142h-140zM345 771v142h141v-142h-141zM70 0v717h482v-121h-340v-172h290v-113h-290v-190h346v-121h-488z" />
    <glyph glyph-name="Igrave" unicode="&#xcc;" horiz-adv-x="282" 
d="M211 773h-146l-104 134h165zM70 0v717h142v-717h-142z" />
    <glyph glyph-name="Iacute" unicode="&#xcd;" horiz-adv-x="282" 
d="M65 771l86 135h165l-105 -135h-146zM70 0v717h142v-717h-142z" />
    <glyph glyph-name="Icircumflex" unicode="&#xce;" horiz-adv-x="282" 
d="M330 771h-121l-67 67l-67 -67h-117l114 139h139zM70 0v717h142v-717h-142z" />
    <glyph glyph-name="Idieresis" unicode="&#xcf;" horiz-adv-x="282" 
d="M-35 771v142h140v-142h-140zM177 771v142h141v-142h-141zM70 0v717h142v-717h-142z" />
    <glyph glyph-name="Eth" unicode="&#xd0;" horiz-adv-x="698" 
d="M70 319h-66v80h66v320h230q112 0 182 -20.5t108.5 -68t52 -110t13.5 -162.5t-13.5 -162.5t-52 -110t-108.5 -67.5t-182 -20h-230v321zM214 319v-198h112q103 -1 143 50t40 187q0 135 -39.5 185.5t-143.5 50.5h-112v-195h111v-80h-111z" />
    <glyph glyph-name="Ntilde" unicode="&#xd1;" horiz-adv-x="739" 
d="M548 914q0 -67 -23 -106t-84 -39q-42 0 -76.5 23t-55.5 23q-24 0 -34.5 -15t-10.5 -31h-75q0 68 23 107t84 39q42 0 76 -23t56 -23q24 0 34.5 15t10.5 30h75zM196 549l7 -549h-133l2 717h161l310 -540l-8 540h134v-717h-163z" />
    <glyph glyph-name="Ograve" unicode="&#xd2;" horiz-adv-x="703" 
d="M421 779h-146l-104 134h165zM661 358q0 -199 -73.5 -288t-236.5 -89q-162 0 -235.5 89t-73.5 288t73.5 289t235.5 90t236 -90t74 -289zM188 358q0 -138 38 -195t125 -57t125.5 57t38.5 195t-38.5 195.5t-125.5 57.5t-125 -57.5t-38 -195.5z" />
    <glyph glyph-name="Oacute" unicode="&#xd3;" horiz-adv-x="703" 
d="M275 777l86 135h165l-105 -135h-146zM661 358q0 -199 -73.5 -288t-236.5 -89q-162 0 -235.5 89t-73.5 288t73.5 289t235.5 90t236 -90t74 -289zM188 358q0 -138 38 -195t125 -57t125.5 57t38.5 195t-38.5 195.5t-125.5 57.5t-125 -57.5t-38 -195.5z" />
    <glyph glyph-name="Ocircumflex" unicode="&#xd4;" horiz-adv-x="703" 
d="M540 777h-121l-67 67l-67 -67h-117l114 139h139zM661 358q0 -199 -73.5 -288t-236.5 -89q-162 0 -235.5 89t-73.5 288t73.5 289t235.5 90t236 -90t74 -289zM188 358q0 -138 38 -195t125 -57t125.5 57t38.5 195t-38.5 195.5t-125.5 57.5t-125 -57.5t-38 -195.5z" />
    <glyph glyph-name="Otilde" unicode="&#xd5;" horiz-adv-x="703" 
d="M530 920q0 -67 -23 -106t-84 -39q-33 0 -55.5 11.5t-39.5 23t-37 11.5q-24 0 -34.5 -15t-10.5 -31h-75q0 68 23 107t84 39q42 0 76 -23t56 -23q24 0 34.5 15t10.5 30h75zM661 358q0 -199 -73.5 -288t-236.5 -89q-162 0 -235.5 89t-73.5 288t73.5 289t235.5 90t236 -90
t74 -289zM188 358q0 -138 38 -195t125 -57t125.5 57t38.5 195t-38.5 195.5t-125.5 57.5t-125 -57.5t-38 -195.5z" />
    <glyph glyph-name="Odieresis" unicode="&#xd6;" horiz-adv-x="703" 
d="M175 777v142h140v-142h-140zM387 777v142h141v-142h-141zM661 358q0 -199 -73.5 -288t-236.5 -89q-162 0 -235.5 89t-73.5 288t73.5 289t235.5 90t236 -90t74 -289zM188 358q0 -138 38 -195t125 -57t125.5 57t38.5 195t-38.5 195.5t-125.5 57.5t-125 -57.5t-38 -195.5z
" />
    <glyph glyph-name="multiply" unicode="&#xd7;" horiz-adv-x="499" 
d="M378 107l-129 133l-128 -132l-67 64l130 135l-130 136l67 64l128 -133l128 133l68 -64l-131 -135l132 -136z" />
    <glyph glyph-name="Oslash" unicode="&#xd8;" horiz-adv-x="703" 
d="M43 -10l63 92q-64 89 -64 276q0 199 73.5 289t235.5 90q108 0 175 -38l21 31h103l-60 -87q71 -92 71 -285q0 -199 -73.5 -288t-236.5 -89q-111 0 -182 42l-22 -33h-104zM188 358q0 -84 13 -136l247 362q-36 27 -97 27q-87 0 -125 -57.5t-38 -195.5zM515 358q0 91 -17 148
l-251 -368q36 -32 104 -32q87 0 125.5 57t38.5 195z" />
    <glyph glyph-name="Ugrave" unicode="&#xd9;" horiz-adv-x="687" 
d="M414 773h-146l-104 134h165zM626 343q0 -97 -10.5 -158.5t-40 -110.5t-86 -71t-146.5 -22q-89 0 -146 22t-86.5 71t-40 110.5t-10.5 158.5v374h143v-363q0 -138 29 -190.5t111 -52.5t110.5 52.5t28.5 190.5v363h144v-374z" />
    <glyph glyph-name="Uacute" unicode="&#xda;" horiz-adv-x="687" 
d="M268 771l86 135h165l-105 -135h-146zM626 343q0 -97 -10.5 -158.5t-40 -110.5t-86 -71t-146.5 -22q-89 0 -146 22t-86.5 71t-40 110.5t-10.5 158.5v374h143v-363q0 -138 29 -190.5t111 -52.5t110.5 52.5t28.5 190.5v363h144v-374z" />
    <glyph glyph-name="Ucircumflex" unicode="&#xdb;" horiz-adv-x="687" 
d="M533 771h-121l-67 67l-67 -67h-117l114 139h139zM626 343q0 -97 -10.5 -158.5t-40 -110.5t-86 -71t-146.5 -22q-89 0 -146 22t-86.5 71t-40 110.5t-10.5 158.5v374h143v-363q0 -138 29 -190.5t111 -52.5t110.5 52.5t28.5 190.5v363h144v-374z" />
    <glyph glyph-name="Udieresis" unicode="&#xdc;" horiz-adv-x="687" 
d="M168 771v142h140v-142h-140zM380 771v142h141v-142h-141zM626 343q0 -97 -10.5 -158.5t-40 -110.5t-86 -71t-146.5 -22q-89 0 -146 22t-86.5 71t-40 110.5t-10.5 158.5v374h143v-363q0 -138 29 -190.5t111 -52.5t110.5 52.5t28.5 190.5v363h144v-374z" />
    <glyph glyph-name="Yacute" unicode="&#xdd;" horiz-adv-x="636" 
d="M242 771l86 135h165l-105 -135h-146zM248 0v212l-241 505h160l151 -388l144 388h168l-241 -503v-214h-141z" />
    <glyph glyph-name="Thorn" unicode="&#xde;" horiz-adv-x="664" 
d="M70 0v717h144v-109h129q159 0 225 -52.5t66 -195.5t-65.5 -193.5t-229.5 -50.5h-126v-116h-143zM213 488v-254h123q79 0 116 24.5t37 102.5t-37 102.5t-116 24.5h-123z" />
    <glyph glyph-name="germandbls" unicode="&#xdf;" horiz-adv-x="614" 
d="M66 0v524q0 44 4.5 76t19.5 64t41 52.5t71 33t107 13.5q136 0 191.5 -51.5t55.5 -149.5q0 -42 -12 -75t-28 -51t-36 -30.5t-30.5 -16t-17.5 -4.5q12 -2 18.5 -2.5t33.5 -12t43 -28t31 -52.5t15 -83q0 -80 -25.5 -123t-93 -63.5t-196.5 -20.5v107q97 0 136 23.5t39 87.5
q0 36 -12 59t-37.5 34t-51 14.5t-66.5 4.5v107q66 0 106.5 25t40.5 79q0 57 -23.5 85.5t-80.5 28.5q-57 -1 -80 -29.5t-23 -84.5v-541h-140z" />
    <glyph glyph-name="agrave" unicode="&#xe0;" horiz-adv-x="609" 
d="M365 625h-124l-104 161h142zM427 0l-12 49q-71 -64 -175 -64q-199 0 -199 170q0 180 224 180q77 0 139 -8q-1 74 -20.5 101t-84.5 27q-108 0 -108 -85h-125q0 184 226 184q51 0 90.5 -7.5t66 -18.5t45 -33t28.5 -41.5t15 -54t6 -60.5t1 -70v-123l11 -146h-128zM278 87
q43 0 76 17t50 41v96q-40 5 -96 5q-63 0 -93.5 -19t-30.5 -63q0 -77 94 -77z" />
    <glyph glyph-name="aacute" unicode="&#xe1;" horiz-adv-x="609" 
d="M242 625l86 161h142l-105 -161h-123zM427 0l-12 49q-71 -64 -175 -64q-199 0 -199 170q0 180 224 180q77 0 139 -8q-1 74 -20.5 101t-84.5 27q-108 0 -108 -85h-125q0 184 226 184q51 0 90.5 -7.5t66 -18.5t45 -33t28.5 -41.5t15 -54t6 -60.5t1 -70v-123l11 -146h-128z
M278 87q43 0 76 17t50 41v96q-40 5 -96 5q-63 0 -93.5 -19t-30.5 -63q0 -77 94 -77z" />
    <glyph glyph-name="acircumflex" unicode="&#xe2;" horiz-adv-x="609" 
d="M489 624h-119l-68 75l-68 -75h-117l121 158h127zM427 0l-12 49q-71 -64 -175 -64q-199 0 -199 170q0 180 224 180q77 0 139 -8q-1 74 -20.5 101t-84.5 27q-108 0 -108 -85h-125q0 184 226 184q51 0 90.5 -7.5t66 -18.5t45 -33t28.5 -41.5t15 -54t6 -60.5t1 -70v-123
l11 -146h-128zM278 87q43 0 76 17t50 41v96q-40 5 -96 5q-63 0 -93.5 -19t-30.5 -63q0 -77 94 -77z" />
    <glyph glyph-name="atilde" unicode="&#xe3;" horiz-adv-x="609" 
d="M483 772q0 -68 -23 -107t-83 -39q-42 0 -78 24t-56 24q-24 0 -34.5 -16t-10.5 -31h-74q0 68 23 107t83 39q42 0 78 -24t56 -24q24 0 34.5 16t10.5 31h74zM427 0l-12 49q-71 -64 -175 -64q-199 0 -199 170q0 180 224 180q77 0 139 -8q-1 74 -20.5 101t-84.5 27
q-108 0 -108 -85h-125q0 184 226 184q51 0 90.5 -7.5t66 -18.5t45 -33t28.5 -41.5t15 -54t6 -60.5t1 -70v-123l11 -146h-128zM278 87q43 0 76 17t50 41v96q-40 5 -96 5q-63 0 -93.5 -19t-30.5 -63q0 -77 94 -77z" />
    <glyph glyph-name="adieresis" unicode="&#xe4;" horiz-adv-x="609" 
d="M138 624v142h130v-142h-130zM341 624v142h129v-142h-129zM427 0l-12 49q-71 -64 -175 -64q-199 0 -199 170q0 180 224 180q77 0 139 -8q-1 74 -20.5 101t-84.5 27q-108 0 -108 -85h-125q0 184 226 184q51 0 90.5 -7.5t66 -18.5t45 -33t28.5 -41.5t15 -54t6 -60.5t1 -70
v-123l11 -146h-128zM278 87q43 0 76 17t50 41v96q-40 5 -96 5q-63 0 -93.5 -19t-30.5 -63q0 -77 94 -77z" />
    <glyph glyph-name="aring" unicode="&#xe5;" horiz-adv-x="609" 
d="M423 720q0 -52 -31.5 -80.5t-86.5 -28.5t-86.5 28.5t-31.5 80.5t31.5 80.5t86.5 28.5t86.5 -28.5t31.5 -80.5zM269 720q0 -17 10 -27t26 -10t26 10t10 27q0 16 -10 26t-26 10t-26 -10t-10 -26zM427 0l-12 49q-71 -64 -175 -64q-199 0 -199 170q0 180 224 180q77 0 139 -8
q-1 74 -20.5 101t-84.5 27q-108 0 -108 -85h-125q0 184 226 184q51 0 90.5 -7.5t66 -18.5t45 -33t28.5 -41.5t15 -54t6 -60.5t1 -70v-123l11 -146h-128zM278 87q43 0 76 17t50 41v96q-40 5 -96 5q-63 0 -93.5 -19t-30.5 -63q0 -77 94 -77z" />
    <glyph glyph-name="ae" unicode="&#xe6;" horiz-adv-x="948" 
d="M906 171q-2 -34 -14 -64t-38.5 -59t-78 -46t-123.5 -17q-152 0 -214 88q-72 -86 -198 -86q-199 0 -199 168q0 97 58.5 136.5t165.5 39.5h128q1 18 7 48q-5 40 -29.5 58t-71.5 18q-108 0 -108 -85h-125q0 184 226 184q115 0 170 -57q64 61 190 61q140 0 198 -74.5
t58 -245.5h-374q4 -80 31.5 -114.5t86.5 -34.5t86.5 25t28.5 57h139zM651 460q-54 0 -81.5 -30t-34.5 -99h229q-9 72 -36 100.5t-77 28.5zM403 150q-10 40 -13 92h-82q-64 0 -94 -17.5t-30 -60.5q0 -77 94 -77q46 0 78.5 19t46.5 44z" />
    <glyph glyph-name="ccedilla" unicode="&#xe7;" horiz-adv-x="587" 
d="M433 -150q0 -53 -36.5 -77.5t-127.5 -24.5q-27 0 -49.5 2.5t-31.5 5.5l-10 2v70q0 -1 5 -2.5t17.5 -3.5t29.5 -2q67 0 67 43q0 45 -85 45h-4l39 80q-110 13 -157.5 83.5t-47.5 199.5q0 142 60 214.5t200 72.5q130 0 187.5 -57t61.5 -168h-137q-4 116 -112 116
q-64 0 -90.5 -42t-26.5 -136q0 -95 26.5 -136t90.5 -41q107 0 111 101h138q-4 -89 -47.5 -141t-137.5 -64l-26 -51q93 -8 93 -89z" />
    <glyph glyph-name="egrave" unicode="&#xe8;" horiz-adv-x="600" 
d="M368 625h-124l-104 161h142zM558 171q-2 -34 -14 -64t-38.5 -59t-78 -46t-123.5 -17q-140 0 -201 72t-61 214t61 214.5t201 72.5t198 -74.5t58 -245.5h-374q4 -80 31.5 -114.5t86.5 -34.5t86.5 25t28.5 57h139zM303 460q-54 0 -81.5 -30t-34.5 -99h229q-9 72 -36 100.5
t-77 28.5z" />
    <glyph glyph-name="eacute" unicode="&#xe9;" horiz-adv-x="600" 
d="M245 625l86 161h142l-105 -161h-123zM558 171q-2 -34 -14 -64t-38.5 -59t-78 -46t-123.5 -17q-140 0 -201 72t-61 214t61 214.5t201 72.5t198 -74.5t58 -245.5h-374q4 -80 31.5 -114.5t86.5 -34.5t86.5 25t28.5 57h139zM303 460q-54 0 -81.5 -30t-34.5 -99h229
q-9 72 -36 100.5t-77 28.5z" />
    <glyph glyph-name="ecircumflex" unicode="&#xea;" horiz-adv-x="600" 
d="M492 624h-119l-68 75l-68 -75h-117l121 158h127zM558 171q-2 -34 -14 -64t-38.5 -59t-78 -46t-123.5 -17q-140 0 -201 72t-61 214t61 214.5t201 72.5t198 -74.5t58 -245.5h-374q4 -80 31.5 -114.5t86.5 -34.5t86.5 25t28.5 57h139zM303 460q-54 0 -81.5 -30t-34.5 -99
h229q-9 72 -36 100.5t-77 28.5z" />
    <glyph glyph-name="edieresis" unicode="&#xeb;" horiz-adv-x="600" 
d="M141 624v142h130v-142h-130zM344 624v142h129v-142h-129zM558 171q-2 -34 -14 -64t-38.5 -59t-78 -46t-123.5 -17q-140 0 -201 72t-61 214t61 214.5t201 72.5t198 -74.5t58 -245.5h-374q4 -80 31.5 -114.5t86.5 -34.5t86.5 25t28.5 57h139zM303 460q-54 0 -81.5 -30
t-34.5 -99h229q-9 72 -36 100.5t-77 28.5z" />
    <glyph glyph-name="igrave" unicode="&#xec;" horiz-adv-x="270" 
d="M196 625h-124l-104 161h142zM65 0v543h140v-543h-140z" />
    <glyph glyph-name="iacute" unicode="&#xed;" horiz-adv-x="270" 
d="M78 625l86 161h131l-104 -161h-113zM65 0v543h140v-543h-140z" />
    <glyph glyph-name="icircumflex" unicode="&#xee;" horiz-adv-x="270" 
d="M320 624h-119l-68 75l-68 -75h-117l121 158h127zM65 0v543h140v-543h-140z" />
    <glyph glyph-name="idieresis" unicode="&#xef;" horiz-adv-x="270" 
d="M-31 624v142h130v-142h-130zM172 624v142h129v-142h-129zM65 0v543h140v-543h-140z" />
    <glyph glyph-name="eth" unicode="&#xf0;" horiz-adv-x="611" 
d="M421 665q144 -191 148 -394q0 -144 -60 -215t-204 -71q-143 0 -203 71t-60 215q0 136 60.5 206t202.5 70q23 0 47 -8q-22 39 -44 70l-81 -40l-41 58l79 39q-22 27 -44.5 50.5t-34.5 33.5l-12 10h164q15 -14 38 -40l76 37l43 -55zM426 263q0 57 -12 109q-12 30 -39 53.5
t-70 23.5q-66 0 -93 -41.5t-27 -136.5t27 -135.5t93 -40.5t92.5 39t28.5 129z" />
    <glyph glyph-name="ntilde" unicode="&#xf1;" horiz-adv-x="622" 
d="M495 772q0 -68 -23 -107t-83 -39q-42 0 -78 24t-56 24q-24 0 -34.5 -16t-10.5 -31h-74q0 68 23 107t83 39q42 0 78 -24t56 -24q24 0 34.5 16t10.5 31h74zM67 0v398l-10 145h120l16 -79q23 32 70 59.5t121 27.5q98 0 139 -57t41 -192v-302h-140v303q0 64 -21 93.5
t-73 29.5q-77 0 -123 -74v-352h-140z" />
    <glyph glyph-name="ograve" unicode="&#xf2;" horiz-adv-x="611" 
d="M366 621h-124l-104 161h142zM569 271q0 -144 -60.5 -215t-203.5 -71q-142 0 -202.5 71.5t-60.5 214.5t60.5 215t202.5 72q143 1 203.5 -71.5t60.5 -215.5zM185 271q0 -95 27 -135.5t93 -40.5q67 0 94 40.5t27 135.5q0 94 -27 135.5t-94 41.5q-66 0 -93 -41.5t-27 -135.5z
" />
    <glyph glyph-name="oacute" unicode="&#xf3;" horiz-adv-x="611" 
d="M243 621l86 161h142l-105 -161h-123zM569 271q0 -144 -60.5 -215t-203.5 -71q-142 0 -202.5 71.5t-60.5 214.5t60.5 215t202.5 72q143 1 203.5 -71.5t60.5 -215.5zM185 271q0 -95 27 -135.5t93 -40.5q67 0 94 40.5t27 135.5q0 94 -27 135.5t-94 41.5q-66 0 -93 -41.5
t-27 -135.5z" />
    <glyph glyph-name="ocircumflex" unicode="&#xf4;" horiz-adv-x="611" 
d="M490 620h-119l-68 75l-68 -75h-117l121 158h127zM569 271q0 -144 -60.5 -215t-203.5 -71q-142 0 -202.5 71.5t-60.5 214.5t60.5 215t202.5 72q143 1 203.5 -71.5t60.5 -215.5zM185 271q0 -95 27 -135.5t93 -40.5q67 0 94 40.5t27 135.5q0 94 -27 135.5t-94 41.5
q-66 0 -93 -41.5t-27 -135.5z" />
    <glyph glyph-name="otilde" unicode="&#xf5;" horiz-adv-x="611" 
d="M484 768q0 -68 -23 -107t-83 -39q-42 0 -78 24t-56 24q-24 0 -34.5 -16t-10.5 -31h-74q0 68 23 107t83 39q42 0 78 -24t56 -24q24 0 34.5 16t10.5 31h74zM569 271q0 -144 -60.5 -215t-203.5 -71q-142 0 -202.5 71.5t-60.5 214.5t60.5 215t202.5 72q143 1 203.5 -71.5
t60.5 -215.5zM185 271q0 -95 27 -135.5t93 -40.5q67 0 94 40.5t27 135.5q0 94 -27 135.5t-94 41.5q-66 0 -93 -41.5t-27 -135.5z" />
    <glyph glyph-name="odieresis" unicode="&#xf6;" horiz-adv-x="611" 
d="M139 620v142h130v-142h-130zM342 620v142h129v-142h-129zM569 271q0 -144 -60.5 -215t-203.5 -71q-142 0 -202.5 71.5t-60.5 214.5t60.5 215t202.5 72q143 1 203.5 -71.5t60.5 -215.5zM185 271q0 -95 27 -135.5t93 -40.5q67 0 94 40.5t27 135.5q0 94 -27 135.5t-94 41.5
q-66 0 -93 -41.5t-27 -135.5z" />
    <glyph glyph-name="divide" unicode="&#xf7;" horiz-adv-x="505" 
d="M188 422v133h129v-133h-129zM35 271v101h435v-101h-435zM188 88v133h129v-133h-129z" />
    <glyph glyph-name="oslash" unicode="&#xf8;" horiz-adv-x="611" 
d="M46 -12l53 71q-57 68 -57 212q0 143 60.5 215t202.5 72q90 0 145 -28l19 25h96l-54 -72q58 -69 58 -212q0 -144 -60.5 -215t-203.5 -71q-85 0 -145 27l-18 -24h-96zM185 271q0 -53 7 -87l184 246q-27 18 -71 18q-66 0 -93 -41.5t-27 -135.5zM426 271q0 55 -8 87
l-183 -246q24 -17 70 -17q67 0 94 40.5t27 135.5z" />
    <glyph glyph-name="ugrave" unicode="&#xf9;" horiz-adv-x="616" 
d="M367 625h-124l-104 161h142zM442 0l-18 85q-13 -19 -32.5 -37.5t-62.5 -37t-95 -18.5q-98 0 -139.5 55.5t-41.5 184.5l1 311h139v-311q0 -58 21 -86.5t73 -28.5q80 0 124 81v345h140v-393l11 -150h-120z" />
    <glyph glyph-name="uacute" unicode="&#xfa;" horiz-adv-x="616" 
d="M244 625l86 161h142l-105 -161h-123zM442 0l-18 85q-13 -19 -32.5 -37.5t-62.5 -37t-95 -18.5q-98 0 -139.5 55.5t-41.5 184.5l1 311h139v-311q0 -58 21 -86.5t73 -28.5q80 0 124 81v345h140v-393l11 -150h-120z" />
    <glyph glyph-name="ucircumflex" unicode="&#xfb;" horiz-adv-x="616" 
d="M491 624h-119l-68 75l-68 -75h-117l121 158h127zM442 0l-18 85q-13 -19 -32.5 -37.5t-62.5 -37t-95 -18.5q-98 0 -139.5 55.5t-41.5 184.5l1 311h139v-311q0 -58 21 -86.5t73 -28.5q80 0 124 81v345h140v-393l11 -150h-120z" />
    <glyph glyph-name="udieresis" unicode="&#xfc;" horiz-adv-x="616" 
d="M140 624v142h130v-142h-130zM343 624v142h129v-142h-129zM442 0l-18 85q-13 -19 -32.5 -37.5t-62.5 -37t-95 -18.5q-98 0 -139.5 55.5t-41.5 184.5l1 311h139v-311q0 -58 21 -86.5t73 -28.5q80 0 124 81v345h140v-393l11 -150h-120z" />
    <glyph glyph-name="yacute" unicode="&#xfd;" horiz-adv-x="571" 
d="M227 625l86 161h142l-105 -161h-123zM186 -230l69 230h-56l-192 543h154l126 -437l132 437h144l-250 -773h-127z" />
    <glyph glyph-name="thorn" unicode="&#xfe;" horiz-adv-x="622" 
d="M66 -240v995h140v-262q63 61 161 61q213 0 213 -285q0 -139 -52 -209.5t-163 -70.5q-104 0 -159 57v-286h-140zM326 441q-73 0 -120 -61v-216q43 -62 121 -62q112 0 112 168q0 171 -113 171z" />
    <glyph glyph-name="ydieresis" unicode="&#xff;" horiz-adv-x="571" 
d="M123 624v142h130v-142h-130zM326 624v142h129v-142h-129zM186 -230l69 230h-56l-192 543h154l126 -437l132 437h144l-250 -773h-127z" />
    <glyph glyph-name="Amacron" unicode="&#x100;" horiz-adv-x="695" 
d="M200 885h294v-101h-294v101zM7 0l258 717h165l258 -717h-155l-45 140h-285l-44 -140h-152zM240 255h211l-105 330z" />
    <glyph glyph-name="amacron" unicode="&#x101;" horiz-adv-x="609" 
d="M157 739h294v-91h-294v91zM427 0l-12 49q-71 -64 -175 -64q-199 0 -199 170q0 180 224 180q77 0 139 -8q-1 74 -20.5 101t-84.5 27q-108 0 -108 -85h-125q0 184 226 184q51 0 90.5 -7.5t66 -18.5t45 -33t28.5 -41.5t15 -54t6 -60.5t1 -70v-123l11 -146h-128zM278 87
q43 0 76 17t50 41v96q-40 5 -96 5q-63 0 -93.5 -19t-30.5 -63q0 -77 94 -77z" />
    <glyph glyph-name="Abreve" unicode="&#x102;" horiz-adv-x="695" 
d="M522 900q0 -54 -42.5 -95.5t-132.5 -41.5q-89 0 -131.5 42t-42.5 95h108q0 -19 19.5 -34t46.5 -15t47.5 15t20.5 34h107zM7 0l258 717h165l258 -717h-155l-45 140h-285l-44 -140h-152zM240 255h211l-105 330z" />
    <glyph glyph-name="abreve" unicode="&#x103;" horiz-adv-x="609" 
d="M483 768q0 -55 -43.5 -101t-135.5 -46q-91 0 -134.5 46t-43.5 101h111q0 -21 19 -40t48 -19t48.5 19t19.5 40h111zM427 0l-12 49q-71 -64 -175 -64q-199 0 -199 170q0 180 224 180q77 0 139 -8q-1 74 -20.5 101t-84.5 27q-108 0 -108 -85h-125q0 184 226 184
q51 0 90.5 -7.5t66 -18.5t45 -33t28.5 -41.5t15 -54t6 -60.5t1 -70v-123l11 -146h-128zM278 87q43 0 76 17t50 41v96q-40 5 -96 5q-63 0 -93.5 -19t-30.5 -63q0 -77 94 -77z" />
    <glyph glyph-name="Aogonek" unicode="&#x104;" horiz-adv-x="695" 
d="M447 -123q0 43 28 75t57 49l-44 139h-285l-44 -140h-152l258 717h165l258 -717h-43q-9 -5 -23 -15t-30.5 -32t-16.5 -44q0 -17 9.5 -26.5t26.5 -9.5q10 0 22 3.5t19 6.5l6 3v-73q-27 -24 -102 -24q-58 0 -83.5 25.5t-25.5 62.5zM240 255h211l-105 330z" />
    <glyph glyph-name="aogonek" unicode="&#x105;" horiz-adv-x="609" 
d="M334 -122q0 33 22.5 64.5t39.5 44t29 18.5l-10 44q-71 -64 -175 -64q-199 0 -199 170q0 180 224 180q77 0 139 -8q-1 74 -20.5 101t-84.5 27q-108 0 -108 -85h-125q0 184 226 184q51 0 90.5 -7.5t66 -18.5t45 -33t28.5 -41.5t15 -54t6 -60.5t1 -70v-123l11 -146h-25
q-11 -7 -23.5 -16.5t-28.5 -31t-16 -42.5q0 -16 10 -26t26 -10q10 0 22 3t18 7l7 3v-73q-27 -24 -102 -24q-58 0 -83.5 25.5t-25.5 62.5zM278 87q43 0 76 17t50 41v96q-40 5 -96 5q-63 0 -93.5 -19t-30.5 -63q0 -77 94 -77z" />
    <glyph glyph-name="Cacute" unicode="&#x106;" horiz-adv-x="673" 
d="M272 777l86 135h165l-105 -135h-146zM635 267q-2 -152 -72.5 -219t-213.5 -67q-160 0 -233.5 89t-73.5 288t73.5 289t233.5 90q144 0 215 -68t72 -219h-141q-4 87 -39.5 124t-106.5 37q-85 0 -123 -57.5t-38 -195.5q0 -137 38 -194.5t123 -57.5q70 0 106 36.5t40 124.5
h140z" />
    <glyph glyph-name="cacute" unicode="&#x107;" horiz-adv-x="587" 
d="M234 625l86 161h142l-105 -161h-123zM551 195q-5 -102 -62.5 -156t-186.5 -54q-140 0 -200 71.5t-60 214.5q0 142 60 214.5t200 72.5q130 0 187.5 -57t61.5 -168h-137q-4 116 -112 116q-64 0 -90.5 -42t-26.5 -136q0 -95 26.5 -136t90.5 -41q107 0 111 101h138z" />
    <glyph glyph-name="Ccircumflex" unicode="&#x108;" horiz-adv-x="673" 
d="M537 777h-121l-67 67l-67 -67h-117l114 139h139zM635 267q-2 -152 -72.5 -219t-213.5 -67q-160 0 -233.5 89t-73.5 288t73.5 289t233.5 90q144 0 215 -68t72 -219h-141q-4 87 -39.5 124t-106.5 37q-85 0 -123 -57.5t-38 -195.5q0 -137 38 -194.5t123 -57.5q70 0 106 36.5
t40 124.5h140z" />
    <glyph glyph-name="ccircumflex" unicode="&#x109;" horiz-adv-x="587" 
d="M481 624h-119l-68 75l-68 -75h-117l121 158h127zM551 195q-5 -102 -62.5 -156t-186.5 -54q-140 0 -200 71.5t-60 214.5q0 142 60 214.5t200 72.5q130 0 187.5 -57t61.5 -168h-137q-4 116 -112 116q-64 0 -90.5 -42t-26.5 -136q0 -95 26.5 -136t90.5 -41q107 0 111 101
h138z" />
    <glyph glyph-name="Cdotaccent" unicode="&#x10a;" horiz-adv-x="673" 
d="M278 777v142h140v-142h-140zM635 267q-2 -152 -72.5 -219t-213.5 -67q-160 0 -233.5 89t-73.5 288t73.5 289t233.5 90q144 0 215 -68t72 -219h-141q-4 87 -39.5 124t-106.5 37q-85 0 -123 -57.5t-38 -195.5q0 -137 38 -194.5t123 -57.5q70 0 106 36.5t40 124.5h140z" />
    <glyph glyph-name="cdotaccent" unicode="&#x10b;" horiz-adv-x="587" 
d="M226 628v138h140v-138h-140zM551 195q-5 -102 -62.5 -156t-186.5 -54q-140 0 -200 71.5t-60 214.5q0 142 60 214.5t200 72.5q130 0 187.5 -57t61.5 -168h-137q-4 116 -112 116q-64 0 -90.5 -42t-26.5 -136q0 -95 26.5 -136t90.5 -41q107 0 111 101h138z" />
    <glyph glyph-name="Ccaron" unicode="&#x10c;" horiz-adv-x="673" 
d="M537 916l-119 -139h-139l-114 139h117l66 -67l67 67h122zM635 267q-2 -152 -72.5 -219t-213.5 -67q-160 0 -233.5 89t-73.5 288t73.5 289t233.5 90q144 0 215 -68t72 -219h-141q-4 87 -39.5 124t-106.5 37q-85 0 -123 -57.5t-38 -195.5q0 -137 38 -194.5t123 -57.5
q70 0 106 36.5t40 124.5h140z" />
    <glyph glyph-name="ccaron" unicode="&#x10d;" horiz-adv-x="587" 
d="M481 782l-124 -158h-127l-119 158h114l68 -72l68 72h120zM551 195q-5 -102 -62.5 -156t-186.5 -54q-140 0 -200 71.5t-60 214.5q0 142 60 214.5t200 72.5q130 0 187.5 -57t61.5 -168h-137q-4 116 -112 116q-64 0 -90.5 -42t-26.5 -136q0 -95 26.5 -136t90.5 -41
q107 0 111 101h138z" />
    <glyph glyph-name="Dcaron" unicode="&#x10e;" horiz-adv-x="698" 
d="M518 910l-119 -139h-139l-114 139h117l66 -67l67 67h122zM70 719h230q112 0 182 -20.5t108.5 -68t52 -110t13.5 -162.5t-13.5 -162.5t-52 -110t-108.5 -67.5t-182 -20h-230v721zM214 594v-473h112q103 -1 143 50t40 187q0 135 -39.5 185.5t-143.5 50.5h-112z" />
    <glyph glyph-name="dcaron" unicode="&#x10f;" horiz-adv-x="618" 
d="M578 581l55 179h110l-85 -179h-80zM445 0l-14 63q-54 -74 -174 -74q-111 0 -163 70.5t-52 209.5q0 285 213 285q95 0 159 -59v260h140v-603l10 -152h-119zM295 102q73 0 119 58v222q-46 59 -118 59q-113 0 -113 -171q0 -168 112 -168z" />
    <glyph glyph-name="Dcroat" unicode="&#x110;" horiz-adv-x="698" 
d="M70 319h-66v80h66v320h230q112 0 182 -20.5t108.5 -68t52 -110t13.5 -162.5t-13.5 -162.5t-52 -110t-108.5 -67.5t-182 -20h-230v321zM214 319v-198h112q103 -1 143 50t40 187q0 135 -39.5 185.5t-143.5 50.5h-112v-195h111v-80h-111z" />
    <glyph glyph-name="dcroat" unicode="&#x111;" horiz-adv-x="618" 
d="M554 587v-435l10 -152h-119l-14 63q-54 -74 -174 -74q-111 0 -163 70.5t-52 209.5q0 285 213 285q95 0 159 -59v92h-120v80h120v88h140v-88h61v-80h-61zM295 102q73 0 119 58v222q-46 59 -118 59q-113 0 -113 -171q0 -168 112 -168z" />
    <glyph glyph-name="Emacron" unicode="&#x112;" horiz-adv-x="583" 
d="M162 885h294v-101h-294v101zM70 0v717h482v-121h-340v-172h290v-113h-290v-190h346v-121h-488z" />
    <glyph glyph-name="emacron" unicode="&#x113;" horiz-adv-x="600" 
d="M160 739h294v-91h-294v91zM558 171q-2 -34 -14 -64t-38.5 -59t-78 -46t-123.5 -17q-140 0 -201 72t-61 214t61 214.5t201 72.5t198 -74.5t58 -245.5h-374q4 -80 31.5 -114.5t86.5 -34.5t86.5 25t28.5 57h139zM303 460q-54 0 -81.5 -30t-34.5 -99h229q-9 72 -36 100.5
t-77 28.5z" />
    <glyph glyph-name="Ebreve" unicode="&#x114;" horiz-adv-x="583" 
d="M484 900q0 -54 -42.5 -95.5t-132.5 -41.5q-89 0 -131.5 42t-42.5 95h108q0 -19 19.5 -34t46.5 -15t47.5 15t20.5 34h107zM70 0v717h482v-121h-340v-172h290v-113h-290v-190h346v-121h-488z" />
    <glyph glyph-name="ebreve" unicode="&#x115;" horiz-adv-x="600" 
d="M486 768q0 -55 -43.5 -101t-135.5 -46q-91 0 -134.5 46t-43.5 101h111q0 -21 19 -40t48 -19t48.5 19t19.5 40h111zM558 171q-2 -34 -14 -64t-38.5 -59t-78 -46t-123.5 -17q-140 0 -201 72t-61 214t61 214.5t201 72.5t198 -74.5t58 -245.5h-374q4 -80 31.5 -114.5
t86.5 -34.5t86.5 25t28.5 57h139zM303 460q-54 0 -81.5 -30t-34.5 -99h229q-9 72 -36 100.5t-77 28.5z" />
    <glyph glyph-name="Edotaccent" unicode="&#x116;" horiz-adv-x="583" 
d="M239 771v142h140v-142h-140zM70 0v717h482v-121h-340v-172h290v-113h-290v-190h346v-121h-488z" />
    <glyph glyph-name="edotaccent" unicode="&#x117;" horiz-adv-x="600" 
d="M237 628v138h140v-138h-140zM558 171q-2 -34 -14 -64t-38.5 -59t-78 -46t-123.5 -17q-140 0 -201 72t-61 214t61 214.5t201 72.5t198 -74.5t58 -245.5h-374q4 -80 31.5 -114.5t86.5 -34.5t86.5 25t28.5 57h139zM303 460q-54 0 -81.5 -30t-34.5 -99h229q-9 72 -36 100.5
t-77 28.5z" />
    <glyph glyph-name="Eogonek" unicode="&#x118;" horiz-adv-x="583" 
d="M358 -124q0 43 28.5 75t57.5 49h-374v717h482v-121h-340v-172h290v-113h-290v-190h346v-121q-8 -4 -20 -12t-32 -32t-20 -48q0 -16 10 -26t26 -10q10 0 22 3t18 7l7 3v-73q-27 -24 -102 -24q-58 0 -83.5 25.5t-25.5 62.5z" />
    <glyph glyph-name="eogonek" unicode="&#x119;" horiz-adv-x="600" 
d="M419 171q-1 -32 -28.5 -57t-86.5 -25t-86.5 34.5t-31.5 114.5h374q0 171 -58 245.5t-198 74.5t-201 -72.5t-61 -214.5t61 -214t201 -72h9q-36 -38 -36 -83q0 -37 25.5 -62.5t83.5 -25.5q33 0 58.5 6t34.5 12l9 6v73q-24 -13 -47 -13q-17 0 -26.5 10t-9.5 26q0 45 59 84
q88 46 94 153h-139zM303 460q50 0 77 -28.5t36 -100.5h-229q7 69 34.5 99t81.5 30z" />
    <glyph glyph-name="Ecaron" unicode="&#x11a;" horiz-adv-x="583" 
d="M498 910l-119 -139h-139l-114 139h117l66 -67l67 67h122zM70 0v717h482v-121h-340v-172h290v-113h-290v-190h346v-121h-488z" />
    <glyph glyph-name="ecaron" unicode="&#x11b;" horiz-adv-x="600" 
d="M492 782l-124 -158h-127l-119 158h114l68 -72l68 72h120zM558 171q-2 -34 -14 -64t-38.5 -59t-78 -46t-123.5 -17q-140 0 -201 72t-61 214t61 214.5t201 72.5t198 -74.5t58 -245.5h-374q4 -80 31.5 -114.5t86.5 -34.5t86.5 25t28.5 57h139zM303 460q-54 0 -81.5 -30
t-34.5 -99h229q-9 72 -36 100.5t-77 28.5z" />
    <glyph glyph-name="Gcircumflex" unicode="&#x11c;" horiz-adv-x="678" 
d="M535 777h-121l-67 67l-67 -67h-117l114 139h139zM627 91q0 -3 -9.5 -14.5t-31.5 -28t-52.5 -31.5t-80 -25.5t-105.5 -10.5q-161 -1 -233.5 88.5t-72.5 288.5t72.5 289t233.5 90q280 0 280 -265h-136q-1 67 -38.5 103t-105.5 36q-85 0 -122.5 -58t-37.5 -195
q0 -141 39 -199t126 -58q63 0 103.5 20.5t40.5 39.5v101h-125v102h255v-273z" />
    <glyph glyph-name="gcircumflex" unicode="&#x11d;" horiz-adv-x="617" 
d="M492 624h-119l-68 75l-68 -75h-117l121 158h127zM554 -2v-3q0 -30 -0.5 -45.5t-5.5 -44.5t-14 -45.5t-27.5 -38.5t-45 -33.5t-67.5 -20t-94 -8.5q-71 0 -122 20t-72.5 48.5t-32.5 56.5t-11 48v20h143v-1q0 -12 2 -22t9.5 -29t30 -30.5t56.5 -11.5q39 0 62.5 9.5
t33.5 31.5t12.5 42.5t2.5 57.5v45q-53 -55 -157 -55q-111 0 -163 70.5t-52 209.5q0 285 213 285q112 0 175 -76l14 65h119l-9 -149v-396zM295 102q73 0 119 58v222q-46 59 -118 59q-113 0 -113 -171q0 -168 112 -168z" />
    <glyph glyph-name="Gbreve" unicode="&#x11e;" horiz-adv-x="678" 
d="M521 906q0 -54 -42.5 -95.5t-132.5 -41.5q-89 0 -131.5 42t-42.5 95h108q0 -19 19.5 -34t46.5 -15t47.5 15t20.5 34h107zM627 91q0 -3 -9.5 -14.5t-31.5 -28t-52.5 -31.5t-80 -25.5t-105.5 -10.5q-161 -1 -233.5 88.5t-72.5 288.5t72.5 289t233.5 90q280 0 280 -265h-136
q-1 67 -38.5 103t-105.5 36q-85 0 -122.5 -58t-37.5 -195q0 -141 39 -199t126 -58q63 0 103.5 20.5t40.5 39.5v101h-125v102h255v-273z" />
    <glyph glyph-name="gbreve" unicode="&#x11f;" horiz-adv-x="617" 
d="M486 768q0 -55 -43.5 -101t-135.5 -46q-91 0 -134.5 46t-43.5 101h111q0 -21 19 -40t48 -19t48.5 19t19.5 40h111zM554 -2v-3q0 -30 -0.5 -45.5t-5.5 -44.5t-14 -45.5t-27.5 -38.5t-45 -33.5t-67.5 -20t-94 -8.5q-71 0 -122 20t-72.5 48.5t-32.5 56.5t-11 48v20h143v-1
q0 -12 2 -22t9.5 -29t30 -30.5t56.5 -11.5q39 0 62.5 9.5t33.5 31.5t12.5 42.5t2.5 57.5v45q-53 -55 -157 -55q-111 0 -163 70.5t-52 209.5q0 285 213 285q112 0 175 -76l14 65h119l-9 -149v-396zM295 102q73 0 119 58v222q-46 59 -118 59q-113 0 -113 -171q0 -168 112 -168
z" />
    <glyph glyph-name="Gdotaccent" unicode="&#x120;" horiz-adv-x="678" 
d="M276 777v142h140v-142h-140zM627 91q0 -3 -9.5 -14.5t-31.5 -28t-52.5 -31.5t-80 -25.5t-105.5 -10.5q-161 -1 -233.5 88.5t-72.5 288.5t72.5 289t233.5 90q280 0 280 -265h-136q-1 67 -38.5 103t-105.5 36q-85 0 -122.5 -58t-37.5 -195q0 -141 39 -199t126 -58
q63 0 103.5 20.5t40.5 39.5v101h-125v102h255v-273z" />
    <glyph glyph-name="gdotaccent" unicode="&#x121;" horiz-adv-x="617" 
d="M237 628v138h140v-138h-140zM554 -2v-3q0 -30 -0.5 -45.5t-5.5 -44.5t-14 -45.5t-27.5 -38.5t-45 -33.5t-67.5 -20t-94 -8.5q-71 0 -122 20t-72.5 48.5t-32.5 56.5t-11 48v20h143v-1q0 -12 2 -22t9.5 -29t30 -30.5t56.5 -11.5q39 0 62.5 9.5t33.5 31.5t12.5 42.5
t2.5 57.5v45q-53 -55 -157 -55q-111 0 -163 70.5t-52 209.5q0 285 213 285q112 0 175 -76l14 65h119l-9 -149v-396zM295 102q73 0 119 58v222q-46 59 -118 59q-113 0 -113 -171q0 -168 112 -168z" />
    <glyph glyph-name="Gcommaaccent" unicode="&#x122;" horiz-adv-x="678" 
d="M627 91q0 -3 -9.5 -14.5t-31.5 -28t-52.5 -31.5t-80 -25.5t-105.5 -10.5q-161 -1 -233.5 88.5t-72.5 288.5t72.5 289t233.5 90q280 0 280 -265h-136q-1 67 -38.5 103t-105.5 36q-85 0 -122.5 -58t-37.5 -195q0 -141 39 -199t126 -58q63 0 103.5 20.5t40.5 39.5v101h-125
v102h255v-273zM266 -277q16 43 32 111q7 29 10.5 57t3.5 41l1 13h121q-6 -59 -27 -121q-12 -34 -24.5 -59.5t-18.5 -33.5l-7 -8h-91z" />
    <glyph glyph-name="gcommaaccent" unicode="&#x123;" horiz-adv-x="617" 
d="M409 825q-19 -46 -35 -122q-8 -33 -12 -62.5t-4 -42.5v-12h-121q4 56 27 128q12 37 25.5 65t20.5 37l8 9h91zM554 -2v-3q0 -30 -0.5 -45.5t-5.5 -44.5t-14 -45.5t-27.5 -38.5t-45 -33.5t-67.5 -20t-94 -8.5q-71 0 -122 20t-72.5 48.5t-32.5 56.5t-11 48v20h143v-1
q0 -12 2 -22t9.5 -29t30 -30.5t56.5 -11.5q39 0 62.5 9.5t33.5 31.5t12.5 42.5t2.5 57.5v45q-53 -55 -157 -55q-111 0 -163 70.5t-52 209.5q0 285 213 285q112 0 175 -76l14 65h119l-9 -149v-396zM295 102q73 0 119 58v222q-46 59 -118 59q-113 0 -113 -171q0 -168 112 -168
z" />
    <glyph glyph-name="Hcircumflex" unicode="&#x124;" horiz-adv-x="705" 
d="M539 771h-121l-67 67l-67 -67h-117l114 139h139zM70 0v717h142v-285h281v285h142v-717h-142v303h-281v-303h-142z" />
    <glyph glyph-name="hcircumflex" unicode="&#x125;" horiz-adv-x="623" 
d="M325 788h-121l-67 67l-67 -67h-117l114 139h139zM66 0v755h140v-277q64 73 179 73q97 0 139 -56t41 -184v-311h-140v311q0 58 -21 86.5t-73 28.5q-80 0 -125 -77v-349h-140z" />
    <glyph glyph-name="Hbar" unicode="&#x126;" horiz-adv-x="705" 
d="M635 535v-535h-142v303h-281v-303h-142v535h-64v78h64v104h142v-104h281v104h142v-104h59v-78h-59zM493 432v103h-281v-103h281z" />
    <glyph glyph-name="hbar" unicode="&#x127;" horiz-adv-x="623" 
d="M206 590v-112q64 73 179 73q97 0 138.5 -55.5t41.5 -184.5v-311h-140v311q0 58 -21 86.5t-73 28.5q-80 0 -125 -77v-349h-140v590h-68v80h68v85h140v-85h113v-80h-113z" />
    <glyph glyph-name="Itilde" unicode="&#x128;" horiz-adv-x="282" 
d="M320 914q0 -67 -23 -106t-84 -39q-33 0 -55.5 11.5t-39.5 23t-37 11.5q-24 0 -34.5 -15t-10.5 -31h-75q0 68 23 107t84 39q42 0 76 -23t56 -23q24 0 34.5 15t10.5 30h75zM70 0v717h142v-717h-142z" />
    <glyph glyph-name="itilde" unicode="&#x129;" horiz-adv-x="270" 
d="M314 772q0 -68 -23 -107t-83 -39q-42 0 -78 24t-56 24q-24 0 -34.5 -16t-10.5 -31h-74q0 68 23 107t83 39q42 0 78 -24t56 -24q24 0 34.5 16t10.5 31h74zM65 0v543h140v-543h-140z" />
    <glyph glyph-name="Imacron" unicode="&#x12a;" horiz-adv-x="282" 
d="M-6 885h294v-101h-294v101zM70 0v717h142v-717h-142z" />
    <glyph glyph-name="imacron" unicode="&#x12b;" horiz-adv-x="270" 
d="M-12 739h294v-91h-294v91zM65 0v543h140v-543h-140z" />
    <glyph glyph-name="Ibreve" unicode="&#x12c;" horiz-adv-x="282" 
d="M316 900q0 -54 -42.5 -95.5t-132.5 -41.5q-89 0 -131.5 42t-42.5 95h108q0 -19 19.5 -34t46.5 -15t47.5 15t20.5 34h107zM70 0v717h142v-717h-142z" />
    <glyph glyph-name="ibreve" unicode="&#x12d;" horiz-adv-x="270" 
d="M314 768q0 -55 -43.5 -101t-135.5 -46q-91 0 -134.5 46t-43.5 101h111q0 -21 19 -40t48 -19t48.5 19t19.5 40h111zM65 0v543h140v-543h-140z" />
    <glyph glyph-name="Iogonek" unicode="&#x12e;" horiz-adv-x="282" 
d="M-23 -123q0 22 9.5 43.5t23 36t27.5 26t23 17.5l10 5v712h142v-717h-37q-9 -5 -23 -15t-30.5 -32t-16.5 -44q0 -17 9.5 -26.5t26.5 -9.5q10 0 22 3.5t19 6.5l6 3v-73q-27 -24 -102 -24q-58 0 -83.5 25.5t-25.5 62.5z" />
    <glyph glyph-name="iogonek" unicode="&#x12f;" horiz-adv-x="270" 
d="M65 628v138h140v-138h-140zM-24 -122q0 32 20 61.5t37 43t32 21.5v539h140v-543h-33q-11 -7 -23.5 -16.5t-28.5 -31t-16 -42.5q0 -16 10 -26t26 -10q10 0 22 3t18 7l7 3v-73q-27 -24 -102 -24q-58 0 -83.5 25.5t-25.5 62.5z" />
    <glyph glyph-name="Idotaccent" unicode="&#x130;" horiz-adv-x="282" 
d="M71 771v142h140v-142h-140zM70 0v717h142v-717h-142z" />
    <glyph glyph-name="dotlessi" unicode="&#x131;" horiz-adv-x="270" 
d="M65 0v543h140v-543h-140z" />
    <glyph glyph-name="IJ" unicode="&#x132;" horiz-adv-x="684" 
d="M70 0v717h142v-717h-142zM623 301q0 -52 -2.5 -87t-9 -69.5t-19 -56t-33 -40t-50.5 -28t-70.5 -15t-95.5 -5.5h-58v130h58q83 0 110 34.5t27 136.5v416h143v-416z" />
    <glyph glyph-name="ij" unicode="&#x133;" horiz-adv-x="558" 
d="M65 628v138h140v-138h-140zM353 628v138h140v-138h-140zM65 0v543h140v-543h-140zM493 70q0 -44 -1 -67.5t-6 -58t-14.5 -52.5t-28 -40t-45.5 -32.5t-67.5 -18t-93.5 -7.5v124q35 0 57 6.5t34 15.5t17.5 32t6.5 40.5t1 57.5v473h140v-473z" />
    <glyph glyph-name="Jcircumflex" unicode="&#x134;" horiz-adv-x="402" 
d="M457 771h-121l-67 67l-67 -67h-117l114 139h139zM341 301q0 -52 -2.5 -87t-9 -69.5t-19 -56t-33 -40t-50.5 -28t-70.5 -15t-95.5 -5.5h-58v130h58q83 0 110 34.5t27 136.5v416h143v-416z" />
    <glyph glyph-name="jcircumflex" unicode="&#x135;" horiz-adv-x="277" 
d="M327 624h-119l-68 75l-68 -75h-117l121 158h127zM212 70q0 -44 -1 -67.5t-6 -58t-14.5 -52.5t-28 -40t-45.5 -32.5t-67.5 -18t-93.5 -7.5v124q35 0 57 6.5t34 15.5t17.5 32t6.5 40.5t1 57.5v473h140v-473z" />
    <glyph glyph-name="Kcommaaccent" unicode="&#x136;" horiz-adv-x="670" 
d="M70 0v717h142v-379l282 379h166l-231 -293l235 -424h-157l-168 310l-127 -161v-149h-142zM249 -266q16 43 32 111q7 29 10.5 57t4.5 41v13h121q-6 -59 -27 -121q-12 -34 -24.5 -59.5t-19.5 -33.5l-6 -8h-91z" />
    <glyph glyph-name="kcommaaccent" unicode="&#x137;" horiz-adv-x="557" 
d="M66 0v755h135v-461l187 249h152l-171 -208l190 -335h-157l-119 230l-82 -99v-131h-135zM202 -266q16 43 32 111q7 29 10.5 57t3.5 41l1 13h121q-6 -59 -27 -121q-12 -34 -24.5 -59.5t-18.5 -33.5l-7 -8h-91z" />
    <glyph glyph-name="kgreenlandic" unicode="&#x138;" horiz-adv-x="557" 
d="M66 0v543h135v-249l187 249h152l-171 -208l190 -335h-157l-119 230l-82 -99v-131h-135z" />
    <glyph glyph-name="Lacute" unicode="&#x139;" horiz-adv-x="512" 
d="M71 771l86 135h165l-105 -135h-146zM70 0v717h142v-588h290v-129h-432z" />
    <glyph glyph-name="lacute" unicode="&#x13a;" horiz-adv-x="272" 
d="M59 809l86 135h165l-105 -135h-146zM66 0l1 755h139v-755h-140z" />
    <glyph glyph-name="Lcommaaccent" unicode="&#x13b;" horiz-adv-x="512" 
d="M70 0v717h142v-588h290v-129h-432zM178 -266q16 43 32 111q7 29 10.5 57t3.5 41l1 13h121q-6 -59 -27 -121q-12 -34 -24.5 -59.5t-18.5 -33.5l-7 -8h-91z" />
    <glyph glyph-name="lcommaaccent" unicode="&#x13c;" horiz-adv-x="272" 
d="M66 0l1 755h139v-755h-140zM31 -266q16 43 32 111q7 29 10.5 57t4.5 41v13h121q-6 -59 -27 -121q-12 -34 -24.5 -59.5t-19.5 -33.5l-6 -8h-91z" />
    <glyph glyph-name="Lcaron" unicode="&#x13d;" horiz-adv-x="512" 
d="M281 579l61 186h116l-80 -186h-97zM70 0v717h142v-588h290v-129h-432z" />
    <glyph glyph-name="lcaron" unicode="&#x13e;" horiz-adv-x="272" 
d="M236 581l55 179h110l-85 -179h-80zM66 0l1 755h139v-755h-140z" />
    <glyph glyph-name="Ldot" unicode="&#x13f;" horiz-adv-x="507" 
d="M70 0v717h147v-584h276v-133h-423zM296 305v142h141v-142h-141z" />
    <glyph glyph-name="ldot" unicode="&#x140;" horiz-adv-x="380" 
d="M75 0v760h140v-760h-140zM250 301v143h140v-143h-140z" />
    <glyph glyph-name="Lslash" unicode="&#x141;" horiz-adv-x="512" 
d="M212 370v-241h290v-129h-432v295l-74 -39l-39 82l113 59v320h142v-245l80 42l40 -81z" />
    <glyph glyph-name="lslash" unicode="&#x142;" horiz-adv-x="272" 
d="M66 0v290l-73 -38l-39 82l112 59l1 362h139v-289l83 44l40 -81l-123 -65v-364h-140z" />
    <glyph glyph-name="Nacute" unicode="&#x143;" horiz-adv-x="739" 
d="M293 771l86 135h165l-105 -135h-146zM196 549l7 -549h-133l2 717h161l310 -540l-8 540h134v-717h-163z" />
    <glyph glyph-name="nacute" unicode="&#x144;" horiz-adv-x="622" 
d="M254 625l86 161h142l-105 -161h-123zM67 0v398l-10 145h120l16 -79q23 32 70 59.5t121 27.5q98 0 139 -57t41 -192v-302h-140v303q0 64 -21 93.5t-73 29.5q-77 0 -123 -74v-352h-140z" />
    <glyph glyph-name="Ncommaaccent" unicode="&#x145;" horiz-adv-x="739" 
d="M196 549l7 -549h-133l2 717h161l310 -540l-8 540h134v-717h-163zM283 -266q16 43 32 111q7 29 10.5 57t4.5 41v13h121q-6 -59 -27 -121q-12 -34 -24.5 -59.5t-19.5 -33.5l-6 -8h-91z" />
    <glyph glyph-name="ncommaaccent" unicode="&#x146;" horiz-adv-x="622" 
d="M67 0v398l-10 145h120l16 -79q23 32 70 59.5t121 27.5q98 0 139 -57t41 -192v-302h-140v303q0 64 -21 93.5t-73 29.5q-77 0 -123 -74v-352h-140zM217 -266q16 43 32 111q7 29 10.5 57t4.5 41v13h121q-6 -59 -27 -121q-12 -34 -24.5 -59.5t-19.5 -33.5l-6 -8h-91z" />
    <glyph glyph-name="Ncaron" unicode="&#x147;" horiz-adv-x="739" 
d="M558 910l-119 -139h-139l-114 139h117l66 -67l67 67h122zM196 549l7 -549h-133l2 717h161l310 -540l-8 540h134v-717h-163z" />
    <glyph glyph-name="ncaron" unicode="&#x148;" horiz-adv-x="622" 
d="M501 782l-124 -158h-127l-119 158h114l68 -72l68 72h120zM67 0v398l-10 145h120l16 -79q23 32 70 59.5t121 27.5q98 0 139 -57t41 -192v-302h-140v303q0 64 -21 93.5t-73 29.5q-77 0 -123 -74v-352h-140z" />
    <glyph glyph-name="Eng" unicode="&#x14a;" horiz-adv-x="739" 
d="M669 717v-717q0 -52 -9.5 -90.5t-34.5 -71.5t-74 -50t-121 -17h-53v108h53q62 0 89.5 28t27.5 93h-1l-350 530l7 -530h-133l2 717h150l321 -496l-7 496h133z" />
    <glyph glyph-name="eng" unicode="&#x14b;" horiz-adv-x="622" 
d="M65 0v398l-8 145h117l17 -82q13 19 32.5 36.5t63.5 35.5t97 18q98 0 139 -57t41 -192v-225q0 -37 -0.5 -59t-3.5 -52.5t-10 -48t-19 -39t-31 -33.5t-45.5 -23.5t-63 -16t-83.5 -4.5v125q25 0 43 3.5t30.5 7.5t20.5 16t12.5 20t6.5 29t2.5 33t0.5 42v226q0 64 -21 93.5
t-73 29.5q-79 0 -125 -78v-348h-140z" />
    <glyph glyph-name="Omacron" unicode="&#x14c;" horiz-adv-x="703" 
d="M204 891h294v-101h-294v101zM661 358q0 -199 -73.5 -288t-236.5 -89q-162 0 -235.5 89t-73.5 288t73.5 289t235.5 90t236 -90t74 -289zM188 358q0 -138 38 -195t125 -57t125.5 57t38.5 195t-38.5 195.5t-125.5 57.5t-125 -57.5t-38 -195.5z" />
    <glyph glyph-name="omacron" unicode="&#x14d;" horiz-adv-x="611" 
d="M158 735h294v-91h-294v91zM569 271q0 -144 -60.5 -215t-203.5 -71q-142 0 -202.5 71.5t-60.5 214.5t60.5 215t202.5 72q143 1 203.5 -71.5t60.5 -215.5zM185 271q0 -95 27 -135.5t93 -40.5q67 0 94 40.5t27 135.5q0 94 -27 135.5t-94 41.5q-66 0 -93 -41.5t-27 -135.5z
" />
    <glyph glyph-name="Obreve" unicode="&#x14e;" horiz-adv-x="703" 
d="M526 906q0 -54 -42.5 -95.5t-132.5 -41.5q-89 0 -131.5 42t-42.5 95h108q0 -19 19.5 -34t46.5 -15t47.5 15t20.5 34h107zM661 358q0 -199 -73.5 -288t-236.5 -89q-162 0 -235.5 89t-73.5 288t73.5 289t235.5 90t236 -90t74 -289zM188 358q0 -138 38 -195t125 -57
t125.5 57t38.5 195t-38.5 195.5t-125.5 57.5t-125 -57.5t-38 -195.5z" />
    <glyph glyph-name="obreve" unicode="&#x14f;" horiz-adv-x="611" 
d="M484 764q0 -55 -43.5 -101t-135.5 -46q-91 0 -134.5 46t-43.5 101h111q0 -21 19 -40t48 -19t48.5 19t19.5 40h111zM569 271q0 -144 -60.5 -215t-203.5 -71q-142 0 -202.5 71.5t-60.5 214.5t60.5 215t202.5 72q143 1 203.5 -71.5t60.5 -215.5zM185 271q0 -95 27 -135.5
t93 -40.5q67 0 94 40.5t27 135.5q0 94 -27 135.5t-94 41.5q-66 0 -93 -41.5t-27 -135.5z" />
    <glyph glyph-name="Ohungarumlaut" unicode="&#x150;" horiz-adv-x="703" 
d="M177 779l82 134h143l-101 -134h-124zM365 779l103 134h143l-121 -134h-125zM661 358q0 -199 -73.5 -288t-236.5 -89q-162 0 -235.5 89t-73.5 288t73.5 289t235.5 90t236 -90t74 -289zM188 358q0 -138 38 -195t125 -57t125.5 57t38.5 195t-38.5 195.5t-125.5 57.5
t-125 -57.5t-38 -195.5z" />
    <glyph glyph-name="ohungarumlaut" unicode="&#x151;" horiz-adv-x="611" 
d="M128 621l82 161h143l-102 -161h-123zM316 621l102 161h143l-121 -161h-124zM569 271q0 -144 -60.5 -215t-203.5 -71q-142 0 -202.5 71.5t-60.5 214.5t60.5 215t202.5 72q143 1 203.5 -71.5t60.5 -215.5zM185 271q0 -95 27 -135.5t93 -40.5q67 0 94 40.5t27 135.5
q0 94 -27 135.5t-94 41.5q-66 0 -93 -41.5t-27 -135.5z" />
    <glyph glyph-name="OE" unicode="&#x152;" horiz-adv-x="962" 
d="M350 0q-164 0 -236 83t-72 275t72.5 275.5t235.5 83.5h581v-121h-340v-172h290v-113h-290v-190h346v-121h-587zM188 358q0 -132 38.5 -188.5t125.5 -56.5h97v491h-97q-87 0 -125.5 -57t-38.5 -189z" />
    <glyph glyph-name="oe" unicode="&#x153;" horiz-adv-x="985" 
d="M943 171q-2 -34 -14 -64t-38.5 -59t-78 -46t-123.5 -17q-139 0 -191 77q-51 -77 -193 -77t-202.5 71.5t-60.5 214.5t60.5 215t202.5 72q143 0 193 -78q52 78 191 78t197.5 -74.5t58.5 -245.5h-374q4 -80 31 -114.5t86 -34.5t86.5 25t29.5 57h139zM688 460q-55 0 -82 -30
t-34 -99h229q-9 72 -36 100.5t-77 28.5zM185 271q0 -96 26.5 -136t93.5 -40q68 0 94.5 40t26.5 136t-27 136.5t-94 40.5t-93.5 -40.5t-26.5 -136.5z" />
    <glyph glyph-name="Racute" unicode="&#x154;" horiz-adv-x="687" 
d="M252 771l86 135h165l-105 -135h-146zM70 0v719h276q164 0 231.5 -50.5t67.5 -190.5q0 -94 -29 -145.5t-94 -73.5l128 -259h-153l-108 240q-15 -1 -47 -1h-130v-239h-142zM212 599v-240h119q91 0 129 22.5t38 97.5t-38 97.5t-129 22.5h-119z" />
    <glyph glyph-name="racute" unicode="&#x155;" horiz-adv-x="405" 
d="M150 625l86 161h142l-105 -161h-123zM67 0v384l-10 159h121l17 -96q17 42 63 76t131 34v-126q-48 0 -84.5 -15.5t-56 -40.5t-28.5 -43t-13 -35v-297h-140z" />
    <glyph glyph-name="Rcommaaccent" unicode="&#x156;" horiz-adv-x="687" 
d="M70 0v719h276q164 0 231.5 -50.5t67.5 -190.5q0 -94 -29 -145.5t-94 -73.5l128 -259h-153l-108 240q-15 -1 -47 -1h-130v-239h-142zM212 599v-240h119q91 0 129 22.5t38 97.5t-38 97.5t-129 22.5h-119zM240 -266q16 43 32 111q7 29 10.5 57t3.5 41l1 13h121
q-6 -59 -27 -121q-12 -34 -24.5 -59.5t-18.5 -33.5l-7 -8h-91z" />
    <glyph glyph-name="rcommaaccent" unicode="&#x157;" horiz-adv-x="405" 
d="M67 0v384l-10 159h121l17 -96q17 42 63 76t131 34v-126q-48 0 -84.5 -15.5t-56 -40.5t-28.5 -43t-13 -35v-297h-140zM28 -266q16 43 32 111q7 29 10.5 57t3.5 41l1 13h121q-6 -59 -27 -121q-12 -34 -24.5 -59.5t-18.5 -33.5l-7 -8h-91z" />
    <glyph glyph-name="Rcaron" unicode="&#x158;" horiz-adv-x="687" 
d="M517 910l-119 -139h-139l-114 139h117l66 -67l67 67h122zM70 0v719h276q164 0 231.5 -50.5t67.5 -190.5q0 -94 -29 -145.5t-94 -73.5l128 -259h-153l-108 240q-15 -1 -47 -1h-130v-239h-142zM212 599v-240h119q91 0 129 22.5t38 97.5t-38 97.5t-129 22.5h-119z" />
    <glyph glyph-name="rcaron" unicode="&#x159;" horiz-adv-x="405" 
d="M397 782l-124 -158h-127l-119 158h114l68 -72l68 72h120zM67 0v384l-10 159h121l17 -96q17 42 63 76t131 34v-126q-48 0 -84.5 -15.5t-56 -40.5t-28.5 -43t-13 -35v-297h-140z" />
    <glyph glyph-name="Sacute" unicode="&#x15a;" horiz-adv-x="650" 
d="M248 777l86 135h165l-105 -135h-146zM612 197q0 -107 -72.5 -162t-214.5 -54q-285 2 -285 253h139q0 -133 152 -135q137 -2 137 93q0 36 -31.5 60t-78.5 34.5t-101.5 26.5t-101.5 36t-78 64t-30 109q1 102 69 159t205 56q149 -1 213 -61t64 -179h-139q0 54 -29 86.5
t-108 33.5q-133 1 -133 -91q0 -31 23.5 -52.5t60.5 -33t82 -22t90.5 -25.5t82.5 -37t60.5 -62.5t23.5 -96.5z" />
    <glyph glyph-name="sacute" unicode="&#x15b;" horiz-adv-x="564" 
d="M221 625l86 161h142l-105 -161h-123zM533 153q0 -83 -59 -126t-192 -42q-123 1 -187 52.5t-64 146.5h135q0 -47 30 -71.5t84 -24.5q111 -1 113 66q0 27 -25.5 43.5t-64.5 22t-84.5 16t-85 24t-66 48t-26.5 86.5q-1 79 58.5 122t182.5 42q237 -1 237 -186h-133
q0 42 -23.5 64t-77.5 23q-106 1 -106 -66q0 -25 26 -40t65.5 -20t85.5 -15.5t85.5 -25t65.5 -50t26 -89.5z" />
    <glyph glyph-name="Scircumflex" unicode="&#x15c;" horiz-adv-x="650" 
d="M513 777h-121l-67 67l-67 -67h-117l114 139h139zM612 197q0 -107 -72.5 -162t-214.5 -54q-285 2 -285 253h139q0 -133 152 -135q137 -2 137 93q0 36 -31.5 60t-78.5 34.5t-101.5 26.5t-101.5 36t-78 64t-30 109q1 102 69 159t205 56q149 -1 213 -61t64 -179h-139
q0 54 -29 86.5t-108 33.5q-133 1 -133 -91q0 -31 23.5 -52.5t60.5 -33t82 -22t90.5 -25.5t82.5 -37t60.5 -62.5t23.5 -96.5z" />
    <glyph glyph-name="scircumflex" unicode="&#x15d;" horiz-adv-x="564" 
d="M468 624h-119l-68 75l-68 -75h-117l121 158h127zM533 153q0 -83 -59 -126t-192 -42q-123 1 -187 52.5t-64 146.5h135q0 -47 30 -71.5t84 -24.5q111 -1 113 66q0 27 -25.5 43.5t-64.5 22t-84.5 16t-85 24t-66 48t-26.5 86.5q-1 79 58.5 122t182.5 42q237 -1 237 -186h-133
q0 42 -23.5 64t-77.5 23q-106 1 -106 -66q0 -25 26 -40t65.5 -20t85.5 -15.5t85.5 -25t65.5 -50t26 -89.5z" />
    <glyph glyph-name="Scedilla" unicode="&#x15e;" horiz-adv-x="650" 
d="M455 -163q0 -53 -36.5 -77.5t-127.5 -24.5q-27 0 -49.5 2.5t-31.5 4.5l-10 3v70q0 -1 5 -2.5t17.5 -3.5t29.5 -2q67 0 67 43q0 45 -85 45h-4l43 89q-233 23 -233 250h139q0 -133 152 -135q137 -2 137 93q0 36 -31.5 60t-78.5 34.5t-101.5 26.5t-101.5 36t-78 64t-30 109
q1 102 69 159t205 56q149 -1 213 -61t64 -179h-139q0 54 -29 86.5t-108 33.5q-133 1 -133 -91q0 -31 23.5 -52.5t60.5 -33t82 -22t90.5 -25.5t82.5 -37t60.5 -62.5t23.5 -96.5q0 -189 -220 -213l-30 -58q93 -8 93 -89z" />
    <glyph glyph-name="scedilla" unicode="&#x15f;" horiz-adv-x="564" 
d="M413 -148q0 -53 -36.5 -77.5t-127.5 -24.5q-27 0 -49.5 2.5t-31.5 5.5l-10 2v70q0 -1 5 -2.5t17.5 -3.5t29.5 -2q67 0 67 43q0 45 -85 45h-4l38 78q-96 11 -145.5 61.5t-49.5 134.5h135q0 -47 30 -71.5t84 -24.5q111 -1 113 66q0 27 -25.5 43.5t-64.5 22t-84.5 16t-85 24
t-66 48t-26.5 86.5q-1 79 58.5 122t182.5 42q237 -1 237 -186h-133q0 42 -23.5 64t-77.5 23q-106 1 -106 -66q0 -25 26 -40t65.5 -20t85.5 -15.5t85.5 -25t65.5 -50t26 -89.5q0 -148 -189 -165l-24 -47q93 -8 93 -89z" />
    <glyph glyph-name="Scaron" unicode="&#x160;" horiz-adv-x="650" 
d="M513 916l-119 -139h-139l-114 139h117l66 -67l67 67h122zM612 197q0 -107 -72.5 -162t-214.5 -54q-285 2 -285 253h139q0 -133 152 -135q137 -2 137 93q0 36 -31.5 60t-78.5 34.5t-101.5 26.5t-101.5 36t-78 64t-30 109q1 102 69 159t205 56q149 -1 213 -61t64 -179h-139
q0 54 -29 86.5t-108 33.5q-133 1 -133 -91q0 -31 23.5 -52.5t60.5 -33t82 -22t90.5 -25.5t82.5 -37t60.5 -62.5t23.5 -96.5z" />
    <glyph glyph-name="scaron" unicode="&#x161;" horiz-adv-x="564" 
d="M468 782l-124 -158h-127l-119 158h114l68 -72l68 72h120zM533 153q0 -83 -59 -126t-192 -42q-123 1 -187 52.5t-64 146.5h135q0 -47 30 -71.5t84 -24.5q111 -1 113 66q0 27 -25.5 43.5t-64.5 22t-84.5 16t-85 24t-66 48t-26.5 86.5q-1 79 58.5 122t182.5 42
q237 -1 237 -186h-133q0 42 -23.5 64t-77.5 23q-106 1 -106 -66q0 -25 26 -40t65.5 -20t85.5 -15.5t85.5 -25t65.5 -50t26 -89.5z" />
    <glyph glyph-name="uni0162" unicode="&#x162;" horiz-adv-x="576" 
d="M394 -150q0 -53 -36.5 -77.5t-127.5 -24.5q-27 0 -49.5 2.5t-32.5 5.5l-9 2v70q0 -1 5 -2.5t17.5 -3.5t29.5 -2q67 0 67 43q0 45 -85 45h-4l45 92l2 589h-209v128h562v-128h-211l-1 -589h-25l-31 -61q93 -8 93 -89z" />
    <glyph glyph-name="uni0163" unicode="&#x163;" horiz-adv-x="367" 
d="M363 -135q0 -53 -36.5 -77.5t-127.5 -24.5q-27 0 -49.5 2.5t-31.5 4.5l-10 3v70q0 -1 5 -2.5t17.5 -3.5t29.5 -2q67 0 67 43q0 45 -85 45h-4l45 92q-61 23 -80 75.5t-19 147.5v201h-70v104h70v151l140 22v-173h123v-104h-123v-196q0 -68 18 -96t69 -28h39v-121h-58
l-22 -44q93 -8 93 -89z" />
    <glyph glyph-name="Tcaron" unicode="&#x164;" horiz-adv-x="576" 
d="M477 910l-119 -139h-139l-114 139h117l66 -67l67 67h122zM214 0l2 589h-209v128h562v-128h-211l-1 -589h-143z" />
    <glyph glyph-name="tcaron" unicode="&#x165;" horiz-adv-x="367" 
d="M263 593l55 179h110l-85 -179h-80zM350 -2h-50q-72 0 -117 16t-66 51.5t-27 73t-6 99.5v201h-70v104h70v151l140 22v-173h123v-104h-123v-196q0 -68 18 -96t69 -28h39v-121z" />
    <glyph glyph-name="Tbar" unicode="&#x166;" horiz-adv-x="576" 
d="M214 0l1 281h-90v80h90l1 228h-209v128h562v-128h-211l-1 -228h89v-80h-89v-281h-143z" />
    <glyph glyph-name="tbar" unicode="&#x167;" horiz-adv-x="367" 
d="M224 245v-2q0 -68 18 -96t69 -28h39v-121h-50q-72 0 -117 16t-66 51.5t-27 73t-6 99.5v7h-64v80h64v114h-70v104h70v151l140 22v-173h123v-104h-123v-114h117v-80h-117z" />
    <glyph glyph-name="Utilde" unicode="&#x168;" horiz-adv-x="687" 
d="M523 914q0 -67 -23 -106t-84 -39q-42 0 -76 23t-56 23q-24 0 -34.5 -15t-10.5 -31h-75q0 68 23 107t84 39q33 0 55.5 -11.5t39.5 -23t37 -11.5q24 0 34.5 15t10.5 30h75zM626 343q0 -97 -10.5 -158.5t-40 -110.5t-86 -71t-146.5 -22q-89 0 -146 22t-86.5 71t-40 110.5
t-10.5 158.5v374h143v-363q0 -138 29 -190.5t111 -52.5t110.5 52.5t28.5 190.5v363h144v-374z" />
    <glyph glyph-name="utilde" unicode="&#x169;" horiz-adv-x="616" 
d="M485 772q0 -68 -23 -107t-83 -39q-42 0 -78 24t-56 24q-24 0 -34.5 -16t-10.5 -31h-74q0 68 23 107t83 39q42 0 78 -24t56 -24q24 0 34.5 16t10.5 31h74zM442 0l-18 85q-13 -19 -32.5 -37.5t-62.5 -37t-95 -18.5q-98 0 -139.5 55.5t-41.5 184.5l1 311h139v-311
q0 -58 21 -86.5t73 -28.5q80 0 124 81v345h140v-393l11 -150h-120z" />
    <glyph glyph-name="Umacron" unicode="&#x16a;" horiz-adv-x="687" 
d="M197 885h294v-101h-294v101zM626 343q0 -97 -10.5 -158.5t-40 -110.5t-86 -71t-146.5 -22q-89 0 -146 22t-86.5 71t-40 110.5t-10.5 158.5v374h143v-363q0 -138 29 -190.5t111 -52.5t110.5 52.5t28.5 190.5v363h144v-374z" />
    <glyph glyph-name="umacron" unicode="&#x16b;" horiz-adv-x="616" 
d="M159 739h294v-91h-294v91zM442 0l-18 85q-13 -19 -32.5 -37.5t-62.5 -37t-95 -18.5q-98 0 -139.5 55.5t-41.5 184.5l1 311h139v-311q0 -58 21 -86.5t73 -28.5q80 0 124 81v345h140v-393l11 -150h-120z" />
    <glyph glyph-name="Ubreve" unicode="&#x16c;" horiz-adv-x="687" 
d="M519 900q0 -54 -42.5 -95.5t-132.5 -41.5q-89 0 -131.5 42t-42.5 95h108q0 -19 19.5 -34t46.5 -15t47.5 15t20.5 34h107zM626 343q0 -97 -10.5 -158.5t-40 -110.5t-86 -71t-146.5 -22q-89 0 -146 22t-86.5 71t-40 110.5t-10.5 158.5v374h143v-363q0 -138 29 -190.5
t111 -52.5t110.5 52.5t28.5 190.5v363h144v-374z" />
    <glyph glyph-name="ubreve" unicode="&#x16d;" horiz-adv-x="616" 
d="M485 768q0 -55 -43.5 -101t-135.5 -46q-91 0 -134.5 46t-43.5 101h111q0 -21 19 -40t48 -19t48.5 19t19.5 40h111zM442 0l-18 85q-13 -19 -32.5 -37.5t-62.5 -37t-95 -18.5q-98 0 -139.5 55.5t-41.5 184.5l1 311h139v-311q0 -58 21 -86.5t73 -28.5q80 0 124 81v345h140
v-393l11 -150h-120z" />
    <glyph glyph-name="Uring" unicode="&#x16e;" horiz-adv-x="687" 
d="M467 872q0 -53 -33 -83t-89 -30t-89.5 30t-33.5 83q0 54 33.5 84t89.5 30t89 -30t33 -84zM309 872q0 -16 10 -26t26 -10t25.5 10t9.5 26q0 17 -9.5 27t-25.5 10t-26 -10t-10 -27zM626 343q0 -97 -10.5 -158.5t-40 -110.5t-86 -71t-146.5 -22q-89 0 -146 22t-86.5 71
t-40 110.5t-10.5 158.5v374h143v-363q0 -138 29 -190.5t111 -52.5t110.5 52.5t28.5 190.5v363h144v-374z" />
    <glyph glyph-name="uring" unicode="&#x16f;" horiz-adv-x="616" 
d="M425 720q0 -52 -31.5 -80.5t-86.5 -28.5t-86.5 28.5t-31.5 80.5t31.5 80.5t86.5 28.5t86.5 -28.5t31.5 -80.5zM271 720q0 -17 10 -27t26 -10t26 10t10 27q0 16 -10 26t-26 10t-26 -10t-10 -26zM442 0l-18 85q-13 -19 -32.5 -37.5t-62.5 -37t-95 -18.5q-98 0 -139.5 55.5
t-41.5 184.5l1 311h139v-311q0 -58 21 -86.5t73 -28.5q80 0 124 81v345h140v-393l11 -150h-120z" />
    <glyph glyph-name="Uhungarumlaut" unicode="&#x170;" horiz-adv-x="687" 
d="M170 773l82 134h143l-101 -134h-124zM358 773l103 134h143l-121 -134h-125zM626 343q0 -97 -10.5 -158.5t-40 -110.5t-86 -71t-146.5 -22q-89 0 -146 22t-86.5 71t-40 110.5t-10.5 158.5v374h143v-363q0 -138 29 -190.5t111 -52.5t110.5 52.5t28.5 190.5v363h144v-374z
" />
    <glyph glyph-name="uhungarumlaut" unicode="&#x171;" horiz-adv-x="616" 
d="M129 625l82 161h143l-102 -161h-123zM317 625l102 161h143l-121 -161h-124zM442 0l-18 85q-13 -19 -32.5 -37.5t-62.5 -37t-95 -18.5q-98 0 -139.5 55.5t-41.5 184.5l1 311h139v-311q0 -58 21 -86.5t73 -28.5q80 0 124 81v345h140v-393l11 -150h-120z" />
    <glyph glyph-name="Uogonek" unicode="&#x172;" horiz-adv-x="687" 
d="M334 -95q0 41 30 76h-21q-89 0 -146 22t-86.5 71t-40 110.5t-10.5 158.5v374h143v-363q0 -138 29 -190.5t111 -52.5t110.5 52.5t28.5 190.5v363h144v-374q0 -137 -24 -215.5t-92 -114.5q-48 -34 -48 -76q0 -17 10 -26.5t26 -9.5q10 0 22 3.5t18 6.5l7 3v-73
q-27 -24 -102 -24q-58 0 -83.5 25.5t-25.5 62.5z" />
    <glyph glyph-name="uogonek" unicode="&#x173;" horiz-adv-x="616" 
d="M356 -119q0 42 28.5 74.5t56.5 48.5l-17 81q-13 -19 -32.5 -37.5t-62.5 -37t-95 -18.5q-98 0 -139.5 55.5t-41.5 184.5l1 311h139v-311q0 -58 21 -86.5t73 -28.5q80 0 124 81v345h140v-393l11 -150h-15q-63 -38 -63 -87q0 -17 10 -26.5t26 -9.5q10 0 22 3.5t18 6.5l7 3
v-73q-27 -24 -102 -24q-58 0 -83.5 25.5t-25.5 62.5z" />
    <glyph glyph-name="Wcircumflex" unicode="&#x174;" horiz-adv-x="1033" 
d="M709 771h-121l-67 67l-67 -67h-117l114 139h139zM517 574l-127 -574h-179l-197 717h164l127 -592l128 592h171l127 -592l134 592h153l-201 -717h-178z" />
    <glyph glyph-name="wcircumflex" unicode="&#x175;" horiz-adv-x="862" 
d="M617 624h-119l-68 75l-68 -75h-117l121 158h127zM429 417l-97 -417h-163l-164 543h148l99 -431l100 431h156l106 -433l97 433h147l-160 -543h-167z" />
    <glyph glyph-name="Ycircumflex" unicode="&#x176;" horiz-adv-x="636" 
d="M507 771h-121l-67 67l-67 -67h-117l114 139h139zM248 0v212l-241 505h160l151 -388l144 388h168l-241 -503v-214h-141z" />
    <glyph glyph-name="ycircumflex" unicode="&#x177;" horiz-adv-x="571" 
d="M474 624h-119l-68 75l-68 -75h-117l121 158h127zM186 -230l69 230h-56l-192 543h154l126 -437l132 437h144l-250 -773h-127z" />
    <glyph glyph-name="Ydieresis" unicode="&#x178;" horiz-adv-x="636" 
d="M142 771v142h140v-142h-140zM354 771v142h141v-142h-141zM248 0v212l-241 505h160l151 -388l144 388h168l-241 -503v-214h-141z" />
    <glyph glyph-name="Zacute" unicode="&#x179;" horiz-adv-x="576" 
d="M215 771l86 135h165l-105 -135h-146zM19 2v121l354 472h-338v120h514v-120l-357 -472h361v-121h-534z" />
    <glyph glyph-name="zacute" unicode="&#x17a;" horiz-adv-x="484" 
d="M183 625l86 161h142l-105 -161h-123zM22 2v112l273 316h-263v111h426v-110l-273 -317h273v-112h-436z" />
    <glyph glyph-name="Zdotaccent" unicode="&#x17b;" horiz-adv-x="576" 
d="M221 771v142h140v-142h-140zM19 2v121l354 472h-338v120h514v-120l-357 -472h361v-121h-534z" />
    <glyph glyph-name="zdotaccent" unicode="&#x17c;" horiz-adv-x="484" 
d="M175 628v138h140v-138h-140zM22 2v112l273 316h-263v111h426v-110l-273 -317h273v-112h-436z" />
    <glyph glyph-name="Zcaron" unicode="&#x17d;" horiz-adv-x="576" 
d="M480 910l-119 -139h-139l-114 139h117l66 -67l67 67h122zM19 2v121l354 472h-338v120h514v-120l-357 -472h361v-121h-534z" />
    <glyph glyph-name="zcaron" unicode="&#x17e;" horiz-adv-x="484" 
d="M430 782l-124 -158h-127l-119 158h114l68 -72l68 72h120zM22 2v112l273 316h-263v111h426v-110l-273 -317h273v-112h-436z" />
    <glyph glyph-name="uni018F" unicode="&#x18f;" horiz-adv-x="701" 
d="M659 358q0 -199 -73 -288t-236 -89t-235.5 94.5t-72.5 307.5h470q-3 122 -41 175.5t-121 53.5q-132 0 -155 -130h-146q16 133 89 194t212 61q163 0 236 -89.5t73 -289.5zM350 107q73 0 110.5 41t47.5 135h-315q10 -95 47.5 -135.5t109.5 -40.5z" />
    <glyph glyph-name="uni019D" unicode="&#x19d;" horiz-adv-x="738" 
d="M194 550l3 -550q0 -54 -8.5 -92.5t-32.5 -71t-71.5 -49t-118.5 -16.5h-52v109h52q59 0 81.5 26.5t22.5 93.5l2 717h161l309 -539l-8 539h134v-717h-162z" />
    <glyph glyph-name="Gcaron" unicode="&#x1e6;" horiz-adv-x="678" 
d="M535 916l-119 -139h-139l-114 139h117l66 -67l67 67h122zM627 91q0 -3 -9.5 -14.5t-31.5 -28t-52.5 -31.5t-80 -25.5t-105.5 -10.5q-161 -1 -233.5 88.5t-72.5 288.5t72.5 289t233.5 90q280 0 280 -265h-136q-1 67 -38.5 103t-105.5 36q-85 0 -122.5 -58t-37.5 -195
q0 -141 39 -199t126 -58q63 0 103.5 20.5t40.5 39.5v101h-125v102h255v-273z" />
    <glyph glyph-name="gcaron" unicode="&#x1e7;" horiz-adv-x="617" 
d="M492 782l-124 -158h-127l-119 158h114l68 -72l68 72h120zM554 -2v-3q0 -30 -0.5 -45.5t-5.5 -44.5t-14 -45.5t-27.5 -38.5t-45 -33.5t-67.5 -20t-94 -8.5q-71 0 -122 20t-72.5 48.5t-32.5 56.5t-11 48v20h143v-1q0 -12 2 -22t9.5 -29t30 -30.5t56.5 -11.5q39 0 62.5 9.5
t33.5 31.5t12.5 42.5t2.5 57.5v45q-53 -55 -157 -55q-111 0 -163 70.5t-52 209.5q0 285 213 285q112 0 175 -76l14 65h119l-9 -149v-396zM295 102q73 0 119 58v222q-46 59 -118 59q-113 0 -113 -171q0 -168 112 -168z" />
    <glyph glyph-name="uni01EA" unicode="&#x1ea;" horiz-adv-x="703" 
d="M347 -91q0 39 27 73q-8 -1 -23 -1q-162 0 -235.5 89t-73.5 288t73.5 289t235.5 90t236 -90t74 -289q0 -267 -139 -342q-47 -36 -47 -75q0 -17 9.5 -26.5t26.5 -9.5q10 0 22 3.5t19 6.5l6 3v-73q-27 -24 -102 -24q-58 0 -83.5 25.5t-25.5 62.5zM188 358q0 -138 38 -195
t125 -57t125.5 57t38.5 195t-38.5 195.5t-125.5 57.5t-125 -57.5t-38 -195.5z" />
    <glyph glyph-name="uni01EB" unicode="&#x1eb;" horiz-adv-x="611" 
d="M267 -101q0 47 39 86h-1q-142 0 -202.5 71.5t-60.5 214.5t60.5 215t202.5 72q143 1 203.5 -71.5t60.5 -215.5q0 -200 -118 -258q-56 -37 -56 -82q0 -17 9.5 -26.5t26.5 -9.5q10 0 22 3.5t19 6.5l6 3v-73q-27 -24 -102 -24q-58 0 -83.5 25.5t-25.5 62.5zM185 271
q0 -95 27 -135.5t93 -40.5q67 0 94 40.5t27 135.5q0 94 -27 135.5t-94 41.5q-66 0 -93 -41.5t-27 -135.5z" />
    <glyph glyph-name="Aringacute" unicode="&#x1fa;" horiz-adv-x="695" 
d="M271 1025l86 135h165l-105 -135h-146zM470 872q0 -53 -33 -83t-89 -30t-89.5 30t-33.5 83q0 54 33.5 84t89.5 30t89 -30t33 -84zM312 872q0 -16 10 -26t26 -10t25.5 10t9.5 26q0 17 -9.5 27t-25.5 10t-26 -10t-10 -27zM7 0l258 717h165l258 -717h-155l-45 140h-285
l-44 -140h-152zM240 255h211l-105 330z" />
    <glyph glyph-name="aringacute" unicode="&#x1fb;" horiz-adv-x="609" 
d="M247 862l86 161h142l-105 -161h-123zM423 720q0 -52 -31.5 -80.5t-86.5 -28.5t-86.5 28.5t-31.5 80.5t31.5 80.5t86.5 28.5t86.5 -28.5t31.5 -80.5zM269 720q0 -17 10 -27t26 -10t26 10t10 27q0 16 -10 26t-26 10t-26 -10t-10 -26zM427 0l-12 49q-71 -64 -175 -64
q-199 0 -199 170q0 180 224 180q77 0 139 -8q-1 74 -20.5 101t-84.5 27q-108 0 -108 -85h-125q0 184 226 184q51 0 90.5 -7.5t66 -18.5t45 -33t28.5 -41.5t15 -54t6 -60.5t1 -70v-123l11 -146h-128zM278 87q43 0 76 17t50 41v96q-40 5 -96 5q-63 0 -93.5 -19t-30.5 -63
q0 -77 94 -77z" />
    <glyph glyph-name="AEacute" unicode="&#x1fc;" horiz-adv-x="967" 
d="M385 771l86 135h165l-105 -135h-146zM7 0l358 717h571v-121h-340v-172h290v-113h-290v-190h346v-121h-489v154h-216l-73 -154h-157zM453 265v346l-164 -346h164z" />
    <glyph glyph-name="aeacute" unicode="&#x1fd;" horiz-adv-x="948" 
d="M433 625l86 161h142l-105 -161h-123zM906 171q-2 -34 -14 -64t-38.5 -59t-78 -46t-123.5 -17q-152 0 -214 88q-72 -86 -198 -86q-199 0 -199 168q0 97 58.5 136.5t165.5 39.5h128q1 18 7 48q-5 40 -29.5 58t-71.5 18q-108 0 -108 -85h-125q0 184 226 184q115 0 170 -57
q64 61 190 61q140 0 198 -74.5t58 -245.5h-374q4 -80 31.5 -114.5t86.5 -34.5t86.5 25t28.5 57h139zM651 460q-54 0 -81.5 -30t-34.5 -99h229q-9 72 -36 100.5t-77 28.5zM403 150q-10 40 -13 92h-82q-64 0 -94 -17.5t-30 -60.5q0 -77 94 -77q46 0 78.5 19t46.5 44z" />
    <glyph glyph-name="Oslashacute" unicode="&#x1fe;" horiz-adv-x="703" 
d="M271 772l86 135h165l-105 -135h-146zM43 -10l63 92q-64 89 -64 276q0 199 73.5 289t235.5 90q108 0 175 -38l21 31h103l-60 -87q71 -92 71 -285q0 -199 -73.5 -288t-236.5 -89q-111 0 -182 42l-22 -33h-104zM188 358q0 -84 13 -136l247 362q-36 27 -97 27
q-87 0 -125 -57.5t-38 -195.5zM515 358q0 91 -17 148l-251 -368q36 -32 104 -32q87 0 125.5 57t38.5 195z" />
    <glyph glyph-name="oslashacute" unicode="&#x1ff;" horiz-adv-x="611" 
d="M243 621l86 161h142l-105 -161h-123zM46 -12l53 71q-57 68 -57 212q0 143 60.5 215t202.5 72q90 0 145 -28l19 25h96l-54 -72q58 -69 58 -212q0 -144 -60.5 -215t-203.5 -71q-85 0 -145 27l-18 -24h-96zM185 271q0 -53 7 -87l184 246q-27 18 -71 18q-66 0 -93 -41.5
t-27 -135.5zM426 271q0 55 -8 87l-183 -246q24 -17 70 -17q67 0 94 40.5t27 135.5z" />
    <glyph glyph-name="Scommaaccent" unicode="&#x218;" horiz-adv-x="650" 
d="M612 197q0 -107 -72.5 -162t-214.5 -54q-285 2 -285 253h139q0 -133 152 -135q137 -2 137 93q0 36 -31.5 60t-78.5 34.5t-101.5 26.5t-101.5 36t-78 64t-30 109q1 102 69 159t205 56q149 -1 213 -61t64 -179h-139q0 54 -29 86.5t-108 33.5q-133 1 -133 -91
q0 -31 23.5 -52.5t60.5 -33t82 -22t90.5 -25.5t82.5 -37t60.5 -62.5t23.5 -96.5zM246 -280q16 43 32 111q7 29 10.5 57t3.5 41l1 13h121q-6 -59 -27 -121q-12 -34 -24.5 -59.5t-18.5 -33.5l-7 -8h-91z" />
    <glyph glyph-name="scommaaccent" unicode="&#x219;" horiz-adv-x="564" 
d="M533 153q0 -83 -59 -126t-192 -42q-123 1 -187 52.5t-64 146.5h135q0 -47 30 -71.5t84 -24.5q111 -1 113 66q0 27 -25.5 43.5t-64.5 22t-84.5 16t-85 24t-66 48t-26.5 86.5q-1 79 58.5 122t182.5 42q237 -1 237 -186h-133q0 42 -23.5 64t-77.5 23q-106 1 -106 -66
q0 -25 26 -40t65.5 -20t85.5 -15.5t85.5 -25t65.5 -50t26 -89.5zM204 -265q16 43 32 111q7 29 10.5 57t3.5 41l1 13h121q-6 -59 -27 -121q-12 -34 -24.5 -59.5t-18.5 -33.5l-7 -8h-91z" />
    <glyph glyph-name="uni021A" unicode="&#x21a;" horiz-adv-x="576" 
d="M212 0l1 585h-201v132h552v-132h-203l-2 -585h-147zM173 -268q16 44 31 112q7 29 10.5 56.5t3.5 41.5l1 13h121q-6 -59 -27 -122q-11 -34 -23.5 -59t-19.5 -34l-6 -8h-91z" />
    <glyph glyph-name="uni021B" unicode="&#x21b;" horiz-adv-x="367" 
d="M350 -2h-50q-72 0 -117 16t-66 51.5t-27 73t-6 99.5v201h-70v104h70v151l140 22v-173h123v-104h-123v-196q0 -68 18 -96t69 -28h39v-121zM154 -252q16 43 32 111q7 29 10.5 57t3.5 41l1 13h121q-6 -59 -27 -121q-12 -34 -24.5 -59.5t-18.5 -33.5l-7 -8h-91z" />
    <glyph glyph-name="uni0232" unicode="&#x232;" horiz-adv-x="636" 
d="M171 885h294v-101h-294v101zM248 0v212l-241 505h160l151 -388l144 388h168l-241 -503v-214h-141z" />
    <glyph glyph-name="uni0233" unicode="&#x233;" horiz-adv-x="571" 
d="M142 739h294v-91h-294v91zM186 -230l69 230h-56l-192 543h154l126 -437l132 437h144l-250 -773h-127z" />
    <glyph glyph-name="uni0237" unicode="&#x237;" horiz-adv-x="277" 
d="M212 70q0 -44 -1 -67.5t-6 -58t-14.5 -52.5t-28 -40t-45.5 -32.5t-67.5 -18t-93.5 -7.5v124q35 0 57 6.5t34 15.5t17.5 32t6.5 40.5t1 57.5v473h140v-473z" />
    <glyph glyph-name="uni0259" unicode="&#x259;" horiz-adv-x="603" 
d="M561 272q0 -142 -61 -214.5t-201 -72.5q-139 0 -197.5 73.5t-58.5 239.5h374q-3 84 -30.5 120t-87.5 36t-87 -25t-28 -57h-139q2 34 14 64t38.5 59t78 46t123.5 17q140 0 201 -72t61 -214zM300 83q53 0 80.5 29t34.5 94l-228 -1q9 -68 36 -95t77 -27z" />
    <glyph glyph-name="uni0272" unicode="&#x272;" horiz-adv-x="626" 
d="M212 77q0 -44 -1 -67.5t-6 -58t-14.5 -52.5t-28 -40t-45.5 -32.5t-67.5 -18t-93.5 -7.5v120q25 0 43 3.5t30.5 7.5t20.5 16t12.5 21t6.5 29.5t2.5 34.5t0.5 44v321l-10 145h119l16 -79q23 32 70 59.5t121 27.5q98 0 139 -57t41 -192v-302h-139v303q0 64 -21.5 93.5
t-73.5 29.5q-75 0 -122 -72v-277z" />
    <glyph glyph-name="circumflex" unicode="&#x2c6;" horiz-adv-x="484" 
d="M445 624h-119l-68 75l-68 -75h-117l121 158h127z" />
    <glyph glyph-name="caron" unicode="&#x2c7;" horiz-adv-x="485" 
d="M446 782l-124 -158h-127l-119 158h114l68 -72l68 72h120z" />
    <glyph glyph-name="breve" unicode="&#x2d8;" horiz-adv-x="480" 
d="M401 768q0 -55 -43.5 -101t-135.5 -46q-91 0 -134.5 46t-43.5 101h111q0 -21 19 -40t48 -19t48.5 19t19.5 40h111z" />
    <glyph glyph-name="dotaccent" unicode="&#x2d9;" horiz-adv-x="391" 
d="M52 628v138h140v-138h-140z" />
    <glyph glyph-name="ring" unicode="&#x2da;" horiz-adv-x="453" 
d="M298 720q0 -52 -31.5 -80.5t-86.5 -28.5t-86.5 28.5t-31.5 80.5t31.5 80.5t86.5 28.5t86.5 -28.5t31.5 -80.5zM144 720q0 -17 10 -27t26 -10t26 10t10 27q0 16 -10 26t-26 10t-26 -10t-10 -26z" />
    <glyph glyph-name="ogonek" unicode="&#x2db;" horiz-adv-x="445" 
d="M42 -118q0 22 9.5 43.5t23 36t27.5 26t24 16.5l9 6l107 -4q-8 -4 -20 -12t-32 -32t-20 -48q0 -16 10 -26t26 -10q10 0 22 3t18 7l7 3v-73q-27 -24 -102 -24q-58 0 -83.5 25.5t-25.5 62.5z" />
    <glyph glyph-name="tilde" unicode="&#x2dc;" horiz-adv-x="487" 
d="M428 772q0 -68 -23 -107t-83 -39q-42 0 -78 24t-56 24q-24 0 -34.5 -16t-10.5 -31h-74q0 68 23 107t83 39q42 0 78 -24t56 -24q24 0 34.5 16t10.5 31h74z" />
    <glyph glyph-name="hungarumlaut" unicode="&#x2dd;" horiz-adv-x="470" 
d="M58 625l82 161h143l-102 -161h-123zM246 625l102 161h143l-121 -161h-124z" />
    <glyph glyph-name="gravecomb" unicode="&#x300;" 
d="M-45 625h-124l-104 161h142z" />
    <glyph glyph-name="acutecomb" unicode="&#x301;" 
d="M-284 625l86 161h142l-105 -161h-123z" />
    <glyph glyph-name="uni0302" unicode="&#x302;" 
d="M-76 624h-119l-68 75l-68 -75h-117l121 158h127z" />
    <glyph glyph-name="tildecomb" unicode="&#x303;" 
d="M-69 772q0 -68 -23 -107t-83 -39q-42 0 -78 24t-56 24q-24 0 -34.5 -16t-10.5 -31h-74q0 68 23 107t83 39q42 0 78 -24t56 -24q24 0 34.5 16t10.5 31h74z" />
    <glyph glyph-name="uni0304" unicode="&#x304;" 
d="M-354 739h294v-91h-294v91z" />
    <glyph glyph-name="uni0306" unicode="&#x306;" 
d="M-44 768q0 -55 -43.5 -101t-135.5 -46q-91 0 -134.5 46t-43.5 101h111q0 -21 19 -40t48 -19t48.5 19t19.5 40h111z" />
    <glyph glyph-name="uni0307" unicode="&#x307;" 
d="M-192 628v138h140v-138h-140z" />
    <glyph glyph-name="uni0308" unicode="&#x308;" 
d="M-394 624v142h130v-142h-130zM-191 624v142h129v-142h-129z" />
    <glyph glyph-name="uni030A" unicode="&#x30a;" 
d="M-57 720q0 -52 -31.5 -80.5t-86.5 -28.5t-86.5 28.5t-31.5 80.5t31.5 80.5t86.5 28.5t86.5 -28.5t31.5 -80.5zM-211 720q0 -17 10 -27t26 -10t26 10t10 27q0 16 -10 26t-26 10t-26 -10t-10 -26z" />
    <glyph glyph-name="uni030B" unicode="&#x30b;" 
d="M-486 625l82 161h143l-102 -161h-123zM-298 625l102 161h143l-121 -161h-124z" />
    <glyph glyph-name="uni030C" unicode="&#x30c;" 
d="M-76 782l-124 -158h-127l-119 158h114l68 -72l68 72h120z" />
    <glyph glyph-name="uni0312" unicode="&#x312;" 
d="M-46 825q-19 -46 -35 -122q-8 -33 -12 -62.5t-4 -42.5v-12h-121q4 56 27 128q12 37 25.5 65t21.5 37l7 9h91z" />
    <glyph glyph-name="dotbelowcomb" unicode="&#x323;" 
d="M-192 -191v133h140v-133h-140z" />
    <glyph glyph-name="uni0326" unicode="&#x326;" 
d="M-226 -266q16 43 32 111q7 29 10.5 57t3.5 41l1 13h121q-6 -59 -27 -121q-12 -34 -24.5 -59.5t-18.5 -33.5l-7 -8h-91z" />
    <glyph glyph-name="uni0327" unicode="&#x327;" 
d="M-54 -149q0 -53 -36.5 -77.5t-127.5 -24.5q-27 0 -49.5 2.5t-32.5 4.5l-9 3v70q0 -1 5 -2.5t17.5 -3.5t29.5 -2q67 0 67 43q0 45 -85 45h-4l46 93h118l-32 -62q93 -8 93 -89z" />
    <glyph glyph-name="uni0328" unicode="&#x328;" 
d="M-296 -118q0 22 9.5 43.5t23 36t27.5 26t24 16.5l9 6l107 -4q-8 -4 -20 -12t-32 -32t-20 -48q0 -16 10 -26t26 -10q10 0 22 3t18 7l7 3v-73q-27 -24 -102 -24q-58 0 -83.5 25.5t-25.5 62.5z" />
    <glyph glyph-name="uni0335" unicode="&#x335;" 
d="M-366 307v80h321v-80h-321z" />
    <glyph glyph-name="uni0336" unicode="&#x336;" 
d="M-769 308v78h688v-78h-688z" />
    <glyph glyph-name="uni0337" unicode="&#x337;" 
d="M-378 194l-39 82l335 176l40 -81z" />
    <glyph glyph-name="uni0338" unicode="&#x338;" 
d="M-482 97l423 567h96l-423 -567h-96z" />
    <glyph glyph-name="pi" unicode="&#x3c0;" horiz-adv-x="665" 
d="M519 460v-250q0 -56 10 -81t45 -25h22v-104h-27q-55 0 -88.5 13t-49.5 43t-20.5 63.5t-4.5 90.5v250h-161v-460h-113v460h-82v101h551v-101h-82z" />
    <glyph glyph-name="Wgrave" unicode="&#x1e80;" horiz-adv-x="1033" 
d="M590 773h-146l-104 134h165zM517 574l-127 -574h-179l-197 717h164l127 -592l128 592h171l127 -592l134 592h153l-201 -717h-178z" />
    <glyph glyph-name="wgrave" unicode="&#x1e81;" horiz-adv-x="862" 
d="M493 625h-124l-104 161h142zM429 417l-97 -417h-163l-164 543h148l99 -431l100 431h156l106 -433l97 433h147l-160 -543h-167z" />
    <glyph glyph-name="Wacute" unicode="&#x1e82;" horiz-adv-x="1033" 
d="M444 771l86 135h165l-105 -135h-146zM517 574l-127 -574h-179l-197 717h164l127 -592l128 592h171l127 -592l134 592h153l-201 -717h-178z" />
    <glyph glyph-name="wacute" unicode="&#x1e83;" horiz-adv-x="862" 
d="M370 625l86 161h142l-105 -161h-123zM429 417l-97 -417h-163l-164 543h148l99 -431l100 431h156l106 -433l97 433h147l-160 -543h-167z" />
    <glyph glyph-name="Wdieresis" unicode="&#x1e84;" horiz-adv-x="1033" 
d="M344 771v142h140v-142h-140zM556 771v142h141v-142h-141zM517 574l-127 -574h-179l-197 717h164l127 -592l128 592h171l127 -592l134 592h153l-201 -717h-178z" />
    <glyph glyph-name="wdieresis" unicode="&#x1e85;" horiz-adv-x="862" 
d="M266 624v142h130v-142h-130zM469 624v142h129v-142h-129zM429 417l-97 -417h-163l-164 543h148l99 -431l100 431h156l106 -433l97 433h147l-160 -543h-167z" />
    <glyph glyph-name="uni1E9E" unicode="&#x1e9e;" horiz-adv-x="703" 
d="M675 223q0 -45 -13.5 -82.5t-43 -70t-83.5 -51t-128 -18.5h-136v118h132q123 0 123 126q0 59 -35.5 91t-102.5 32q-21 0 -41 -2.5t-30 -5.5l-10 -2v93l180 157h-163q-61 -1 -87.5 -34t-26.5 -97v-477h-140v478q0 56 8.5 94t32.5 73.5t74.5 53.5t127.5 18h336v-109
l-167 -155q102 -18 147.5 -74t45.5 -156z" />
    <glyph glyph-name="uni1EA0" unicode="&#x1ea0;" horiz-adv-x="695" 
d="M7 0l258 717h165l258 -717h-155l-45 140h-285l-44 -140h-152zM240 255h211l-105 330zM276 -191v133h140v-133h-140z" />
    <glyph glyph-name="uni1EA1" unicode="&#x1ea1;" horiz-adv-x="609" 
d="M427 0l-12 49q-71 -64 -175 -64q-199 0 -199 170q0 180 224 180q77 0 139 -8q-1 74 -20.5 101t-84.5 27q-108 0 -108 -85h-125q0 184 226 184q51 0 90.5 -7.5t66 -18.5t45 -33t28.5 -41.5t15 -54t6 -60.5t1 -70v-123l11 -146h-128zM278 87q43 0 76 17t50 41v96
q-40 5 -96 5q-63 0 -93.5 -19t-30.5 -63q0 -77 94 -77zM231 -201v133h140v-133h-140z" />
    <glyph glyph-name="uni1EB8" unicode="&#x1eb8;" horiz-adv-x="583" 
d="M70 0v717h482v-121h-340v-172h290v-113h-290v-190h346v-121h-488zM245 -191v133h140v-133h-140z" />
    <glyph glyph-name="uni1EB9" unicode="&#x1eb9;" horiz-adv-x="600" 
d="M558 171q-2 -34 -14 -64t-38.5 -59t-78 -46t-123.5 -17q-140 0 -201 72t-61 214t61 214.5t201 72.5t198 -74.5t58 -245.5h-374q4 -80 31.5 -114.5t86.5 -34.5t86.5 25t28.5 57h139zM303 460q-54 0 -81.5 -30t-34.5 -99h229q-9 72 -36 100.5t-77 28.5zM238 -199v133h140
v-133h-140z" />
    <glyph glyph-name="uni1EBC" unicode="&#x1ebc;" horiz-adv-x="583" 
d="M488 914q0 -67 -23 -106t-84 -39q-33 0 -55.5 11.5t-39.5 23t-37 11.5q-24 0 -34.5 -15t-10.5 -31h-75q0 68 23 107t84 39q42 0 76 -23t56 -23q24 0 34.5 15t10.5 30h75zM70 0v717h482v-121h-340v-172h290v-113h-290v-190h346v-121h-488z" />
    <glyph glyph-name="uni1EBD" unicode="&#x1ebd;" horiz-adv-x="600" 
d="M486 772q0 -68 -23 -107t-83 -39q-42 0 -78 24t-56 24q-24 0 -34.5 -16t-10.5 -31h-74q0 68 23 107t83 39q42 0 78 -24t56 -24q24 0 34.5 16t10.5 31h74zM558 171q-2 -34 -14 -64t-38.5 -59t-78 -46t-123.5 -17q-140 0 -201 72t-61 214t61 214.5t201 72.5t198 -74.5
t58 -245.5h-374q4 -80 31.5 -114.5t86.5 -34.5t86.5 25t28.5 57h139zM303 460q-54 0 -81.5 -30t-34.5 -99h229q-9 72 -36 100.5t-77 28.5z" />
    <glyph glyph-name="uni1ECA" unicode="&#x1eca;" horiz-adv-x="282" 
d="M70 0v717h142v-717h-142zM71 -196v133h140v-133h-140z" />
    <glyph glyph-name="uni1ECB" unicode="&#x1ecb;" horiz-adv-x="270" 
d="M65 628v138h140v-138h-140zM65 0v543h140v-543h-140zM65 -191v133h140v-133h-140z" />
    <glyph glyph-name="uni1ECC" unicode="&#x1ecc;" horiz-adv-x="703" 
d="M661 358q0 -199 -73.5 -288t-236.5 -89q-162 0 -235.5 89t-73.5 288t73.5 289t235.5 90t236 -90t74 -289zM188 358q0 -138 38 -195t125 -57t125.5 57t38.5 195t-38.5 195.5t-125.5 57.5t-125 -57.5t-38 -195.5zM282 -202v133h140v-133h-140z" />
    <glyph glyph-name="uni1ECD" unicode="&#x1ecd;" horiz-adv-x="611" 
d="M569 271q0 -144 -60.5 -215t-203.5 -71q-142 0 -202.5 71.5t-60.5 214.5t60.5 215t202.5 72q143 1 203.5 -71.5t60.5 -215.5zM185 271q0 -95 27 -135.5t93 -40.5q67 0 94 40.5t27 135.5q0 94 -27 135.5t-94 41.5q-66 0 -93 -41.5t-27 -135.5zM235 -202v133h140v-133h-140
z" />
    <glyph glyph-name="uni1EE4" unicode="&#x1ee4;" horiz-adv-x="687" 
d="M626 343q0 -97 -10.5 -158.5t-40 -110.5t-86 -71t-146.5 -22q-89 0 -146 22t-86.5 71t-40 110.5t-10.5 158.5v374h143v-363q0 -138 29 -190.5t111 -52.5t110.5 52.5t28.5 190.5v363h144v-374zM274 -202v133h140v-133h-140z" />
    <glyph glyph-name="uni1EE5" unicode="&#x1ee5;" horiz-adv-x="616" 
d="M442 0l-18 85q-13 -19 -32.5 -37.5t-62.5 -37t-95 -18.5q-98 0 -139.5 55.5t-41.5 184.5l1 311h139v-311q0 -58 21 -86.5t73 -28.5q80 0 124 81v345h140v-393l11 -150h-120zM236 -202v133h140v-133h-140z" />
    <glyph glyph-name="Ygrave" unicode="&#x1ef2;" horiz-adv-x="636" 
d="M388 773h-146l-104 134h165zM248 0v212l-241 505h160l151 -388l144 388h168l-241 -503v-214h-141z" />
    <glyph glyph-name="ygrave" unicode="&#x1ef3;" horiz-adv-x="571" 
d="M350 625h-124l-104 161h142zM186 -230l69 230h-56l-192 543h154l126 -437l132 437h144l-250 -773h-127z" />
    <glyph glyph-name="uni1EF8" unicode="&#x1ef8;" horiz-adv-x="636" 
d="M497 914q0 -67 -23 -106t-84 -39q-42 0 -76 23t-56 23q-24 0 -34.5 -15t-10.5 -31h-75q0 68 23 107t84 39q33 0 55.5 -11.5t39.5 -23t37 -11.5q24 0 34.5 15t10.5 30h75zM248 0v212l-241 505h160l151 -388l144 388h168l-241 -503v-214h-141z" />
    <glyph glyph-name="uni1EF9" unicode="&#x1ef9;" horiz-adv-x="571" 
d="M468 772q0 -68 -23 -107t-83 -39q-42 0 -78 24t-56 24q-24 0 -34.5 -16t-10.5 -31h-74q0 68 23 107t83 39q42 0 78 -24t56 -24q24 0 34.5 16t10.5 31h74zM186 -230l69 230h-56l-192 543h154l126 -437l132 437h144l-250 -773h-127z" />
    <glyph glyph-name="uni2009" unicode="&#x2009;" horiz-adv-x="64" 
 />
    <glyph glyph-name="endash" unicode="&#x2013;" horiz-adv-x="608" 
d="M67 269v102h475v-102h-475z" />
    <glyph glyph-name="emdash" unicode="&#x2014;" horiz-adv-x="954" 
d="M81 269v102h792v-102h-792z" />
    <glyph glyph-name="uni2016" unicode="&#x2016;" horiz-adv-x="432" 
d="M66 -180v1000h99v-1000h-99zM268 -180v1000h98v-1000h-98z" />
    <glyph glyph-name="quoteleft" unicode="&#x2018;" horiz-adv-x="249" 
d="M50 493q2 46 26 134q12 43 27 76t24 45l9 12h96q-23 -57 -40 -144q-8 -40 -11.5 -71t-3.5 -41v-11h-127z" />
    <glyph glyph-name="quoteright" unicode="&#x2019;" horiz-adv-x="249" 
d="M30 493q23 58 40 144q8 40 11.5 71t3.5 42v10h127q-2 -46 -26 -134q-12 -43 -27 -76t-24 -45l-9 -12h-96z" />
    <glyph glyph-name="quotesinglbase" unicode="&#x201a;" horiz-adv-x="271" 
d="M36 -124q24 57 41 144q8 40 11.5 71t3.5 41v11h126q-1 -46 -26 -134q-12 -43 -27 -76t-23 -45l-9 -12h-97z" />
    <glyph glyph-name="quotedblleft" unicode="&#x201c;" horiz-adv-x="426" 
d="M50 493q2 46 26 134q12 43 27 76t24 45l9 12h96q-23 -57 -40 -144q-8 -40 -11.5 -71t-3.5 -41v-11h-127zM227 493q2 46 26 134q12 43 27 76t24 45l9 12h97q-24 -57 -41 -144q-8 -40 -11.5 -71t-3.5 -41v-11h-127z" />
    <glyph glyph-name="quotedblright" unicode="&#x201d;" horiz-adv-x="426" 
d="M30 493q24 58 40 144q8 40 12 71t4 42v10h126q-2 -46 -26 -134q-12 -43 -27 -76t-24 -45l-9 -12h-96zM207 493q24 58 41 144q8 40 11.5 71t3.5 42v10h127q-2 -46 -27 -134q-12 -43 -26.5 -76t-23.5 -45l-9 -12h-97z" />
    <glyph glyph-name="quotedblbase" unicode="&#x201e;" horiz-adv-x="437" 
d="M30 -134q24 57 40 144q8 40 12 71t4 41v11h126q-2 -46 -26 -134q-12 -43 -27 -76t-24 -45l-9 -12h-96zM205 -134q24 57 40 144q8 40 12 71t4 41v11h126q-2 -46 -26 -134q-12 -43 -27 -76t-24 -45l-9 -12h-96z" />
    <glyph glyph-name="dagger" unicode="&#x2020;" horiz-adv-x="552" 
d="M75 593h152v189h98v-189h152v-85h-152v-508h-98v508h-152v85z" />
    <glyph glyph-name="daggerdbl" unicode="&#x2021;" horiz-adv-x="590" 
d="M75 593h152v189h98v-189h152v-85h-152v-234h152v-85h-152v-189h-98v189h-152v85h152v234h-152v85z" />
    <glyph glyph-name="bullet" unicode="&#x2022;" horiz-adv-x="495" 
d="M161 208v183h173v-183h-173z" />
    <glyph glyph-name="ellipsis" unicode="&#x2026;" horiz-adv-x="741" 
d="M80 0v148h142v-148h-142zM299 0v148h142v-148h-142zM518 0v148h142v-148h-142z" />
    <glyph glyph-name="perthousand" unicode="&#x2030;" horiz-adv-x="1241" 
d="M380 537q0 -90 -40.5 -135.5t-134.5 -45.5t-135 46t-41 135q0 90 41 137t135 47t134.5 -46.5t40.5 -137.5zM133 0l460 702h131l-460 -702h-131zM124 537q0 -52 19 -77t62 -25t61.5 25t18.5 77q0 53 -18.5 79t-61.5 26q-81 0 -81 -105zM825 161q0 -90 -40.5 -135.5
t-134.5 -45.5t-135 46t-41 135q0 91 41 138t135 47t134.5 -47t40.5 -138zM1208 161q0 -90 -40.5 -135.5t-134.5 -45.5t-135 46t-41 135q0 91 41 138t135 47t134.5 -47t40.5 -138zM569 161q0 -52 19 -77t62 -25t61.5 25t18.5 77q0 105 -80 105q-81 0 -81 -105zM952 161
q0 -52 19 -77t62 -25t61.5 25t18.5 77q0 53 -18.5 79t-61.5 26q-81 0 -81 -105z" />
    <glyph glyph-name="guilsinglleft" unicode="&#x2039;" horiz-adv-x="426" 
d="M196 90l-117 165v25l117 172h152l-139 -186l139 -176h-152z" />
    <glyph glyph-name="guilsinglright" unicode="&#x203a;" horiz-adv-x="427" 
d="M231 90h-153l138 176l-138 186h153l117 -172v-25z" />
    <glyph glyph-name="fraction" unicode="&#x2044;" horiz-adv-x="282" 
d="M-153 -40l479 807h115l-478 -807h-116z" />
    <glyph glyph-name="uni2070" unicode="&#x2070;" horiz-adv-x="525" 
d="M480 564q0 -152 -51.5 -214t-166.5 -62t-166.5 61.5t-51.5 214.5t51.5 215t166.5 62t166.5 -62.5t51.5 -214.5zM160 564q0 -102 24 -139.5t78 -37.5t78 37.5t24 139.5q0 103 -24 140.5t-78 37.5t-78 -37.5t-24 -140.5z" />
    <glyph glyph-name="uni2074" unicode="&#x2074;" horiz-adv-x="477" 
d="M292 298v94h-268v92l214 346h165v-346h60v-92h-60v-94h-111zM292 484v267l-152 -267h152z" />
    <glyph glyph-name="uni2075" unicode="&#x2075;" horiz-adv-x="481" 
d="M192 735l-18 -112q39 26 107 26q89 0 129.5 -51t40.5 -129q0 -81 -48 -131.5t-157 -50.5q-110 0 -159.5 47t-49.5 113h120q0 -24 22.5 -45t66.5 -21q87 0 87 88q0 45 -22 70.5t-64 25.5q-28 0 -50 -10t-28.5 -17.5t-9.5 -12.5l-109 1l46 301h325v-96z" />
    <glyph glyph-name="uni2076" unicode="&#x2076;" horiz-adv-x="507" 
d="M471 469q0 -81 -49 -131t-163 -51q-118 0 -166.5 60t-48.5 189q0 169 49 237.5t167 68.5q103 0 149 -47.5t46 -112.5h-114q0 27 -19.5 47.5t-60.5 20.5q-44 0 -67.5 -30t-30.5 -109q49 38 126 38q94 0 138 -50t44 -130zM263 566q-64 0 -102 -53q3 -71 27 -102.5t72 -31.5
q90 0 90 94q0 93 -87 93z" />
    <glyph glyph-name="uni2077" unicode="&#x2077;" horiz-adv-x="402" 
d="M100 298q0 66 17.5 134.5t43 120t51 93t42.5 63.5l18 22l-261 -4v102h383v-102q-7 -9 -19 -24.5t-42 -64t-53 -97t-42 -116t-19 -127.5h-119z" />
    <glyph glyph-name="uni2078" unicode="&#x2078;" horiz-adv-x="504" 
d="M256 288q-117 0 -165.5 40.5t-48.5 118.5q0 64 31 100t58 37q-20 2 -46 30.5t-26 78.5q0 149 197 149q107 0 152 -39t45 -110q0 -50 -26 -78.5t-47 -30.5q27 -2 59 -38t32 -99q0 -78 -49 -118.5t-166 -40.5zM256 762q-81 0 -81 -80q0 -66 81 -66t81 66q0 41 -19.5 60.5
t-61.5 19.5zM256 544q-90 0 -90 -83q0 -84 90 -84t90 84q0 83 -90 83z" />
    <glyph glyph-name="uni2079" unicode="&#x2079;" horiz-adv-x="506" 
d="M471 585q0 -170 -47.5 -234t-170.5 -64q-58 0 -100.5 14.5t-64 39t-31.5 50.5t-10 55h115q0 -27 22 -47t69 -20q44 0 67 26t30 101q-47 -38 -120 -38q-103 0 -144.5 50t-41.5 141q0 82 49 132.5t163 50.5q118 0 166.5 -60.5t48.5 -196.5zM252 552q64 0 102 53
q-2 78 -25 111t-73 33q-91 0 -91 -94q0 -103 87 -103z" />
    <glyph glyph-name="Euro" unicode="&#x20ac;" horiz-adv-x="633" 
d="M232 230q12 -68 43.5 -99.5t89.5 -31.5q48 0 77 22.5t31 64.5h120q-9 -199 -234 -199q-130 0 -192 58.5t-78 184.5h-75v79h69v75h-69v79h74q15 130 77 191t194 61q231 0 237 -212h-121q-2 46 -31 73t-79 27q-59 0 -91 -34t-43 -106h219v-79h-226v-75h226v-79h-218z" />
    <glyph glyph-name="uni20BD" unicode="&#x20bd;" horiz-adv-x="672" 
d="M100 0v142h-86v91h86v70h-86v101l86 -1v312h224q178 0 248 -43.5t70 -164.5t-69.5 -162.5t-248.5 -41.5h-82v-70h171v-91h-171v-142h-142zM242 613v-210h100q77 0 115 21t38 84t-38 84t-115 21h-100z" />
    <glyph glyph-name="uni2116" unicode="&#x2116;" horiz-adv-x="1283" 
d="M1186 483q0 -120 -50 -180t-173 -60q-122 0 -171.5 60t-49.5 180t49.5 181t171.5 61t172.5 -61t50.5 -181zM70 0l2 717h147l319 -519l-2 519h122v-717h-148l-319 519v-519h-121zM866 483q0 -79 21.5 -113t76.5 -34q54 0 76 34t22 113t-22 113.5t-77 34.5
q-54 0 -75.5 -34.5t-21.5 -113.5zM745 67v111h438v-111h-438z" />
    <glyph glyph-name="uni2117" unicode="&#x2117;" horiz-adv-x="823" 
d="M781 348q0 -83 -19.5 -150t-61 -120.5t-115 -83t-174.5 -29.5q-100 0 -173 29.5t-115 83t-61.5 120.5t-19.5 150t19.5 150.5t61.5 122.5t115.5 85t172.5 30q101 0 174.5 -30t115 -85t61 -122.5t19.5 -150.5zM121 348q0 -314 290 -314q291 0 291 314q0 319 -291 319
q-80 0 -138.5 -25t-90.5 -70t-46.5 -100t-14.5 -124zM263 137v427h172q92 0 131.5 -33t39.5 -119q0 -89 -38.5 -119.5t-134.5 -30.5h-79v-125h-91zM354 489v-154h72q45 0 65.5 14.5t20.5 62.5t-20.5 62.5t-65.5 14.5h-72z" />
    <glyph glyph-name="uni2120" unicode="&#x2120;" horiz-adv-x="835" 
d="M333 474q0 -105 -140 -105q-74 1 -106 29t-32 91h72q0 -33 16 -47t48 -15q64 0 64 44q0 22 -20 34t-49 18t-58 15t-49 33.5t-20 65.5q0 99 133 98q74 0 103.5 -27t29.5 -83h-71q0 52 -59 52q-60 1 -60 -43q0 -20 20.5 -31.5t49.5 -18t58 -16t49.5 -33t20.5 -61.5z
M382 378v349h109l82 -286l82 286h111l-1 -349h-70l6 277l-91 -277h-77l-88 282l7 -282h-70z" />
    <glyph glyph-name="trademark" unicode="&#x2122;" horiz-adv-x="799" 
d="M137 379v281h-95v67h266v-67h-95v-281h-76zM340 378v349h109l82 -285l82 285h111l-1 -349h-70l6 277l-91 -277h-77l-88 282l7 -282h-70z" />
    <glyph glyph-name="oneeighth" unicode="&#x215b;" horiz-adv-x="1047" 
d="M122 -40l479 807h115l-478 -807h-116zM99 226v412l-92 -40v105l136 57h68v-534h-112zM799 -10q-117 0 -165.5 40.5t-48.5 118.5q0 64 31 100t58 37q-20 2 -46 30.5t-26 78.5q0 149 197 149q107 0 152 -39t45 -110q0 -50 -26 -78.5t-47 -30.5q27 -2 59 -38t32 -99
q0 -78 -49 -118.5t-166 -40.5zM799 464q-81 0 -81 -80q0 -66 81 -66t81 66q0 41 -19.5 60.5t-61.5 19.5zM799 246q-90 0 -90 -83q0 -84 90 -84t90 84q0 83 -90 83z" />
    <glyph glyph-name="threeeighths" unicode="&#x215c;" horiz-adv-x="1218" 
d="M293 -40l479 807h115l-478 -807h-116zM293 560q74 -15 105.5 -57t31.5 -112q0 -77 -48 -126.5t-158 -49.5q-107 0 -154 49.5t-47 128.5h115q0 -33 21 -55.5t63 -22.5q86 0 86 85q0 95 -107 95l-59 -6v72l133 100l-230 -7v101h375v-90zM970 -10q-117 0 -165.5 40.5
t-48.5 118.5q0 64 31 100t58 37q-20 2 -46 30.5t-26 78.5q0 149 197 149q107 0 152 -39t45 -110q0 -50 -26 -78.5t-47 -30.5q27 -2 59 -38t32 -99q0 -78 -49 -118.5t-166 -40.5zM970 464q-81 0 -81 -80q0 -66 81 -66t81 66q0 41 -19.5 60.5t-61.5 19.5zM970 246
q-90 0 -90 -83q0 -84 90 -84t90 84q0 83 -90 83z" />
    <glyph glyph-name="fiveeighths" unicode="&#x215d;" horiz-adv-x="1238" 
d="M313 -40l479 807h115l-478 -807h-116zM192 663l-18 -112q39 26 107 26q89 0 129.5 -51t40.5 -129q0 -81 -48 -131.5t-157 -50.5q-110 0 -159.5 47t-49.5 113h120q0 -24 22.5 -45t66.5 -21q87 0 87 88q0 45 -22 70.5t-64 25.5q-28 0 -50 -10t-28.5 -17.5t-9.5 -12.5
l-109 1l46 301h325v-96zM990 -10q-117 0 -165.5 40.5t-48.5 118.5q0 64 31 100t58 37q-20 2 -46 30.5t-26 78.5q0 149 197 149q107 0 152 -39t45 -110q0 -50 -26 -78.5t-47 -30.5q27 -2 59 -38t32 -99q0 -78 -49 -118.5t-166 -40.5zM990 464q-81 0 -81 -80q0 -66 81 -66
t81 66q0 41 -19.5 60.5t-61.5 19.5zM990 246q-90 0 -90 -83q0 -84 90 -84t90 84q0 83 -90 83z" />
    <glyph glyph-name="seveneighths" unicode="&#x215e;" horiz-adv-x="1109" 
d="M184 -40l479 807h115l-478 -807h-116zM100 226q0 66 17.5 134.5t43 120t51 93t42.5 63.5l18 22l-261 -4v102h383v-102q-7 -9 -19 -24.5t-42 -64t-53 -97t-42 -116t-19 -127.5h-119zM861 -10q-117 0 -165.5 40.5t-48.5 118.5q0 64 31 100t58 37q-20 2 -46 30.5t-26 78.5
q0 149 197 149q107 0 152 -39t45 -110q0 -50 -26 -78.5t-47 -30.5q27 -2 59 -38t32 -99q0 -78 -49 -118.5t-166 -40.5zM861 464q-81 0 -81 -80q0 -66 81 -66t81 66q0 41 -19.5 60.5t-61.5 19.5zM861 246q-90 0 -90 -83q0 -84 90 -84t90 84q0 83 -90 83z" />
    <glyph glyph-name="arrowleft" unicode="&#x2190;" horiz-adv-x="697" 
d="M656 214l-426 18l175 -140l-74 -83l-275 231v88l275 232l74 -84l-176 -141l427 19v-140z" />
    <glyph glyph-name="arrowup" unicode="&#x2191;" horiz-adv-x="618" 
d="M239 -8l18 426l-140 -175l-83 74l231 275h88l232 -275l-84 -74l-141 175l19 -426h-140z" />
    <glyph glyph-name="arrowright" unicode="&#x2192;" horiz-adv-x="697" 
d="M41 353l426 -19l-176 141l74 83l275 -231v-88l-275 -232l-74 84l176 140l-426 -18v140z" />
    <glyph glyph-name="arrowdown" unicode="&#x2193;" horiz-adv-x="609" 
d="M375 579l-19 -426l141 175l83 -74l-231 -275h-88l-232 275l84 74l140 -176l-18 427h140z" />
    <glyph glyph-name="arrowboth" unicode="&#x2194;" horiz-adv-x="965" 
d="M635 554l274 -231v-89l-274 -231l-74 84l169 135l-497 -2l173 -137l-74 -84l-276 232v88l276 231l73 -83l-175 -141l507 2l-176 143z" />
    <glyph glyph-name="arrowupdn" unicode="&#x2195;" horiz-adv-x="622" 
d="M357 -166h-88l-232 274l84 74l135 -169l-1 518l-138 -173l-83 74l231 276h88l232 -276l-84 -73l-136 170l1 -520l139 172l83 -73z" />
    <glyph glyph-name="uni2196" unicode="&#x2196;" horiz-adv-x="587" 
d="M457 30l-289 315l25 -224l-111 -7l-31 359l62 62l359 -31l-7 -111l-224 24l315 -288z" />
    <glyph glyph-name="uni2197" unicode="&#x2197;" horiz-adv-x="588" 
d="M32 130l314 287l-223 -24l-7 111l358 31l63 -62l-31 -359l-111 7l24 224l-288 -314z" />
    <glyph glyph-name="uni2198" unicode="&#x2198;" horiz-adv-x="588" 
d="M131 545l288 -315l-24 224l111 6l31 -358l-63 -62l-358 31l7 111l223 -26l-314 289z" />
    <glyph glyph-name="uni2199" unicode="&#x2199;" horiz-adv-x="588" 
d="M556 445l-316 -289l225 26l7 -111l-359 -31l-62 62l31 358l111 -6l-25 -224l289 314z" />
    <glyph glyph-name="minus" unicode="&#x2212;" horiz-adv-x="460" 
d="M34 271v101h392v-101h-392z" />
    <glyph glyph-name="infinity" unicode="&#x221e;" horiz-adv-x="818" 
d="M219 123q-184 0 -184 181t185 181q61 -1 103.5 -32t84.5 -86q42 55 85.5 86t104.5 32q93 0 139 -47t46 -134t-46 -134t-138 -47q-61 0 -105 31t-86 87q-41 -56 -84.5 -87t-104.5 -31zM131 304q0 -94 92 -94q41 0 73 24t66 70q-35 46 -66 69.5t-72 24.5q-93 0 -93 -94z
M687 304q0 43 -23 68t-69 26q-42 0 -74 -24.5t-67 -69.5q35 -46 66.5 -70t73.5 -24q46 0 69.5 25t23.5 69z" />
    <glyph glyph-name="approxequal" unicode="&#x2248;" horiz-adv-x="591" 
d="M55 335q0 165 142 165q48 0 103 -27.5t90 -27.5q34 0 51.5 19t17.5 36h78q0 -165 -143 -165q-48 0 -103 27.5t-90 27.5q-34 0 -51.5 -19t-17.5 -36h-77zM55 139q0 164 142 164q48 0 103 -27.5t90 -27.5q34 0 51.5 19t17.5 36h78q0 -164 -143 -164q-48 0 -103 27.5
t-90 27.5q-34 0 -51.5 -19t-17.5 -36h-77z" />
    <glyph glyph-name="notequal" unicode="&#x2260;" horiz-adv-x="544" 
d="M91 90l49 86h-81v100h138l39 67h-177v100h234l46 80h89l-46 -80h106v-100h-163l-39 -67h202v-100h-259l-49 -86h-89z" />
    <glyph glyph-name="lessequal" unicode="&#x2264;" horiz-adv-x="553" 
d="M479 188l-413 136v124l413 126v-109l-322 -80l322 -88v-109zM64 71v100h415v-100h-415z" />
    <glyph glyph-name="greaterequal" unicode="&#x2265;" horiz-adv-x="553" 
d="M74 188v109l320 88l-320 80v109l413 -126v-124zM74 71v100h415v-100h-415z" />
    <glyph glyph-name="uni2661" unicode="&#x2661;" horiz-adv-x="773" 
d="M540 618q72 0 122.5 -51t50.5 -137q0 -49 -18 -100t-47 -93.5t-63.5 -82.5t-69.5 -70t-64 -52.5t-47 -34.5l-18 -12l-18 12q-17 12 -46.5 34.5t-64 52.5t-69.5 70t-63.5 82.5t-46.5 93.5t-18 100q1 87 51 137.5t122 50.5q90 0 154 -73q0 3 16 19.5t54 35t83 18.5z
M386 141l1 1q17 12 36 28t56 52t60.5 79.5t23.5 83.5q0 46 -23 70.5t-56 24.5q-17 0 -33 -6.5t-26.5 -15t-18.5 -17.5t-12 -15l-3 -7h-8q-4 7 -11 17t-31.5 27t-51.5 17q-33 0 -56 -24.5t-23 -70.5q0 -20 5.5 -41t16 -40t23.5 -37.5t27.5 -34t29.5 -30t28 -25.5t23.5 -19
t16.5 -12z" />
    <glyph glyph-name="i.loclTRK" horiz-adv-x="270" 
d="M65 628v138h140v-138h-140zM65 0v543h140v-543h-140z" />
    <glyph glyph-name="a.sc" horiz-adv-x="596" 
d="M5 0l218 593h155l213 -593h-146l-33 109h-231l-33 -109h-143zM213 212h169l-84 281z" />
    <glyph glyph-name="aacute.sc" horiz-adv-x="596" 
d="M238 675l86 161h142l-105 -161h-123zM5 0l218 593h155l213 -593h-146l-33 109h-231l-33 -109h-143zM213 212h169l-84 281z" />
    <glyph glyph-name="abreve.sc" horiz-adv-x="596" 
d="M479 818q0 -55 -43.5 -101t-135.5 -46q-91 0 -134.5 46t-43.5 101h111q0 -21 19 -40t48 -19t48.5 19t19.5 40h111zM5 0l218 593h155l213 -593h-146l-33 109h-231l-33 -109h-143zM213 212h169l-84 281z" />
    <glyph glyph-name="acircumflex.sc" horiz-adv-x="596" 
d="M485 674h-119l-68 75l-68 -75h-117l121 158h127zM5 0l218 593h155l213 -593h-146l-33 109h-231l-33 -109h-143zM213 212h169l-84 281z" />
    <glyph glyph-name="adieresis.sc" horiz-adv-x="596" 
d="M134 674v142h130v-142h-130zM337 674v142h129v-142h-129zM5 0l218 593h155l213 -593h-146l-33 109h-231l-33 -109h-143zM213 212h169l-84 281z" />
    <glyph glyph-name="uni1EA1.sc" horiz-adv-x="596" 
d="M5 0l218 593h155l213 -593h-146l-33 109h-231l-33 -109h-143zM213 212h169l-84 281zM227 -191v133h140v-133h-140z" />
    <glyph glyph-name="agrave.sc" horiz-adv-x="596" 
d="M361 675h-124l-104 161h142zM5 0l218 593h155l213 -593h-146l-33 109h-231l-33 -109h-143zM213 212h169l-84 281z" />
    <glyph glyph-name="amacron.sc" horiz-adv-x="596" 
d="M153 789h294v-91h-294v91zM5 0l218 593h155l213 -593h-146l-33 109h-231l-33 -109h-143zM213 212h169l-84 281z" />
    <glyph glyph-name="aogonek.sc" horiz-adv-x="596" 
d="M355 -123q0 32 20 61.5t37 43t32 21.5l-32 106h-231l-33 -109h-143l218 593h155l213 -593h-38q-9 -5 -23 -15t-30.5 -32t-16.5 -44q0 -17 9.5 -26.5t26.5 -9.5q10 0 22 3.5t19 6.5l6 3v-73q-27 -24 -102 -24q-58 0 -83.5 25.5t-25.5 62.5zM213 212h169l-84 281z" />
    <glyph glyph-name="aring.sc" horiz-adv-x="596" 
d="M419 770q0 -52 -31.5 -80.5t-86.5 -28.5t-86.5 28.5t-31.5 80.5t31.5 80.5t86.5 28.5t86.5 -28.5t31.5 -80.5zM265 770q0 -17 10 -27t26 -10t26 10t10 27q0 16 -10 26t-26 10t-26 -10t-10 -26zM5 0l218 593h155l213 -593h-146l-33 109h-231l-33 -109h-143zM213 212h169
l-84 281z" />
    <glyph glyph-name="aringacute.sc" horiz-adv-x="596" 
d="M243 912l86 161h142l-105 -161h-123zM419 770q0 -52 -31.5 -80.5t-86.5 -28.5t-86.5 28.5t-31.5 80.5t31.5 80.5t86.5 28.5t86.5 -28.5t31.5 -80.5zM265 770q0 -17 10 -27t26 -10t26 10t10 27q0 16 -10 26t-26 10t-26 -10t-10 -26zM5 0l218 593h155l213 -593h-146
l-33 109h-231l-33 -109h-143zM213 212h169l-84 281z" />
    <glyph glyph-name="atilde.sc" horiz-adv-x="596" 
d="M479 822q0 -68 -23 -107t-83 -39q-42 0 -78 24t-56 24q-24 0 -34.5 -16t-10.5 -31h-74q0 68 23 107t83 39q42 0 78 -24t56 -24q24 0 34.5 16t10.5 31h74zM5 0l218 593h155l213 -593h-146l-33 109h-231l-33 -109h-143zM213 212h169l-84 281z" />
    <glyph glyph-name="ae.sc" horiz-adv-x="828" 
d="M5 0l298 593h499v-108h-281v-135h238v-96h-238v-146h286v-108h-420v118h-179l-55 -118h-148zM387 221v275l-130 -275h130z" />
    <glyph glyph-name="aeacute.sc" horiz-adv-x="828" 
d="M329 675l86 161h142l-105 -161h-123zM5 0l298 593h499v-108h-281v-135h238v-96h-238v-146h286v-108h-420v118h-179l-55 -118h-148zM387 221v275l-130 -275h130z" />
    <glyph glyph-name="b.sc" horiz-adv-x="570" 
d="M56 594h222q142 0 195 -35.5t53 -118.5q0 -99 -79 -135q95 -33 95 -139q0 -65 -19 -98.5t-76.5 -51t-169.5 -17.5h-221v595zM190 500v-154h103q56 0 79 17.5t23 59.5q0 43 -25.5 60t-89.5 17h-90zM190 263v-171h90q75 0 102.5 17.5t27.5 66.5q0 47 -27.5 67t-89.5 20
h-103z" />
    <glyph glyph-name="ordfeminine.sc" horiz-adv-x="392" 
d="M272 286l-7 27q-47 -38 -110 -38q-130 0 -130 112q0 117 145 117q47 0 87 -4q-1 41 -13 58t-49 17q-64 0 -64 -50h-89q0 120 148 120q47 0 78.5 -9.5t48.5 -23t26 -40.5t11 -49.5t2 -62.5v-79l7 -95h-91zM182 348q48 0 75 33v56q-45 3 -57 3q-74 0 -74 -47q0 -45 56 -45z
" />
    <glyph glyph-name="ordmasculine.sc" horiz-adv-x="392" 
d="M369 461q0 -93 -39.5 -139.5t-133.5 -46.5q-93 0 -132.5 46.5t-39.5 139.5t39.5 139.5t132.5 46.5q94 0 133.5 -46.5t39.5 -139.5zM125 461q0 -58 16 -82.5t55 -24.5t55 24.5t16 82.5t-16 83t-55 25t-55 -25t-16 -83z" />
    <glyph glyph-name="c.sc" horiz-adv-x="573" 
d="M544 224q-2 -129 -63 -185t-184 -56q-137 0 -200 73t-63 240t63 240t200 73q123 0 184.5 -56t61.5 -183h-131q-4 67 -32 94.5t-83 27.5q-66 0 -96 -44t-30 -152q0 -109 29.5 -152t96.5 -43q55 0 82.5 27.5t31.5 95.5h133z" />
    <glyph glyph-name="cacute.sc" horiz-adv-x="573" 
d="M235 680l86 161h142l-105 -161h-123zM544 224q-2 -129 -63 -185t-184 -56q-137 0 -200 73t-63 240t63 240t200 73q123 0 184.5 -56t61.5 -183h-131q-4 67 -32 94.5t-83 27.5q-66 0 -96 -44t-30 -152q0 -109 29.5 -152t96.5 -43q55 0 82.5 27.5t31.5 95.5h133z" />
    <glyph glyph-name="ccaron.sc" horiz-adv-x="573" 
d="M482 837l-124 -158h-127l-119 158h114l68 -72l68 72h120zM544 224q-2 -129 -63 -185t-184 -56q-137 0 -200 73t-63 240t63 240t200 73q123 0 184.5 -56t61.5 -183h-131q-4 67 -32 94.5t-83 27.5q-66 0 -96 -44t-30 -152q0 -109 29.5 -152t96.5 -43q55 0 82.5 27.5
t31.5 95.5h133z" />
    <glyph glyph-name="ccedilla.sc" horiz-adv-x="573" 
d="M427 -152q0 -53 -36.5 -77.5t-127.5 -24.5q-27 0 -49.5 2.5t-31.5 5.5l-10 2v70q0 -1 5 -2.5t17.5 -3.5t29.5 -2q67 0 67 43q0 45 -85 45h-4l39 80q-107 13 -157 87t-50 223q0 167 63 240t200 73q123 0 184.5 -56t61.5 -183h-131q-4 67 -32 94.5t-83 27.5q-66 0 -96 -44
t-30 -152q0 -109 29.5 -152t96.5 -43q55 0 82.5 27.5t31.5 95.5h133q-2 -112 -47.5 -168.5t-136.5 -68.5l-26 -50q93 -8 93 -89z" />
    <glyph glyph-name="ccircumflex.sc" horiz-adv-x="573" 
d="M482 679h-119l-68 75l-68 -75h-117l121 158h127zM544 224q-2 -129 -63 -185t-184 -56q-137 0 -200 73t-63 240t63 240t200 73q123 0 184.5 -56t61.5 -183h-131q-4 67 -32 94.5t-83 27.5q-66 0 -96 -44t-30 -152q0 -109 29.5 -152t96.5 -43q55 0 82.5 27.5t31.5 95.5h133z
" />
    <glyph glyph-name="cdotaccent.sc" horiz-adv-x="573" 
d="M227 683v138h140v-138h-140zM544 224q-2 -129 -63 -185t-184 -56q-137 0 -200 73t-63 240t63 240t200 73q123 0 184.5 -56t61.5 -183h-131q-4 67 -32 94.5t-83 27.5q-66 0 -96 -44t-30 -152q0 -109 29.5 -152t96.5 -43q55 0 82.5 27.5t31.5 95.5h133z" />
    <glyph glyph-name="d.sc" horiz-adv-x="591" 
d="M56 594h196q96 0 156.5 -16.5t93 -56t44 -91t11.5 -134.5q0 -66 -7 -111t-26 -83t-53.5 -59t-88 -32.5t-130.5 -11.5h-196v595zM192 482v-373h86q79 0 110 39.5t31 147.5t-31 147t-110 39h-86z" />
    <glyph glyph-name="eth.sc" horiz-adv-x="591" 
d="M56 257h-64v80h64v257h196q96 0 156.5 -16.5t93 -56t44 -91t11.5 -134.5q0 -66 -7 -111t-26 -83t-53.5 -59t-88 -32.5t-130.5 -11.5h-196v258zM192 257v-148h86q79 0 110 39.5t31 147.5t-31 147t-110 39h-86v-145h88v-80h-88z" />
    <glyph glyph-name="dcaron.sc" horiz-adv-x="591" 
d="M465 832l-124 -158h-127l-119 158h114l68 -72l68 72h120zM56 594h196q96 0 156.5 -16.5t93 -56t44 -91t11.5 -134.5q0 -66 -7 -111t-26 -83t-53.5 -59t-88 -32.5t-130.5 -11.5h-196v595zM192 482v-373h86q79 0 110 39.5t31 147.5t-31 147t-110 39h-86z" />
    <glyph glyph-name="dcroat.sc" horiz-adv-x="591" 
d="M56 257h-64v80h64v257h196q96 0 156.5 -16.5t93 -56t44 -91t11.5 -134.5q0 -66 -7 -111t-26 -83t-53.5 -59t-88 -32.5t-130.5 -11.5h-196v258zM192 257v-148h86q79 0 110 39.5t31 147.5t-31 147t-110 39h-86v-145h88v-80h-88z" />
    <glyph glyph-name="e.sc" horiz-adv-x="497" 
d="M56 0v593h415v-108h-281v-132h238v-101h-238v-144h286v-108h-420z" />
    <glyph glyph-name="eacute.sc" horiz-adv-x="497" 
d="M199 675l86 161h142l-105 -161h-123zM56 0v593h415v-108h-281v-132h238v-101h-238v-144h286v-108h-420z" />
    <glyph glyph-name="ebreve.sc" horiz-adv-x="497" 
d="M440 818q0 -55 -43.5 -101t-135.5 -46q-91 0 -134.5 46t-43.5 101h111q0 -21 19 -40t48 -19t48.5 19t19.5 40h111zM56 0v593h415v-108h-281v-132h238v-101h-238v-144h286v-108h-420z" />
    <glyph glyph-name="ecaron.sc" horiz-adv-x="497" 
d="M446 832l-124 -158h-127l-119 158h114l68 -72l68 72h120zM56 0v593h415v-108h-281v-132h238v-101h-238v-144h286v-108h-420z" />
    <glyph glyph-name="ecircumflex.sc" horiz-adv-x="497" 
d="M446 674h-119l-68 75l-68 -75h-117l121 158h127zM56 0v593h415v-108h-281v-132h238v-101h-238v-144h286v-108h-420z" />
    <glyph glyph-name="edieresis.sc" horiz-adv-x="497" 
d="M95 674v142h130v-142h-130zM298 674v142h129v-142h-129zM56 0v593h415v-108h-281v-132h238v-101h-238v-144h286v-108h-420z" />
    <glyph glyph-name="edotaccent.sc" horiz-adv-x="497" 
d="M191 678v138h140v-138h-140zM56 0v593h415v-108h-281v-132h238v-101h-238v-144h286v-108h-420z" />
    <glyph glyph-name="uni1EB9.sc" horiz-adv-x="497" 
d="M56 0v593h415v-108h-281v-132h238v-101h-238v-144h286v-108h-420zM198 -191v133h140v-133h-140z" />
    <glyph glyph-name="egrave.sc" horiz-adv-x="497" 
d="M322 675h-124l-104 161h142zM56 0v593h415v-108h-281v-132h238v-101h-238v-144h286v-108h-420z" />
    <glyph glyph-name="emacron.sc" horiz-adv-x="497" 
d="M114 789h294v-91h-294v91zM56 0v593h415v-108h-281v-132h238v-101h-238v-144h286v-108h-420z" />
    <glyph glyph-name="eogonek.sc" horiz-adv-x="497" 
d="M276 -124q0 43 28.5 75t57.5 49h-306v593h415v-108h-281v-132h238v-101h-238v-144h286v-108q-8 -4 -20 -12t-32 -32t-20 -48q0 -16 10 -26t26 -10q10 0 22 3t18 7l7 3v-73q-27 -24 -102 -24q-58 0 -83.5 25.5t-25.5 62.5z" />
    <glyph glyph-name="uni1EBD.sc" horiz-adv-x="497" 
d="M440 822q0 -68 -23 -107t-83 -39q-42 0 -78 24t-56 24q-24 0 -34.5 -16t-10.5 -31h-74q0 68 23 107t83 39q42 0 78 -24t56 -24q24 0 34.5 16t10.5 31h74zM56 0v593h415v-108h-281v-132h238v-101h-238v-144h286v-108h-420z" />
    <glyph glyph-name="f.sc" horiz-adv-x="469" 
d="M56 0v593h405v-108h-271v-151h228v-103h-228v-231h-134z" />
    <glyph glyph-name="g.sc" horiz-adv-x="577" 
d="M536 77q0 -3 -8 -12t-27 -23t-45 -27t-68.5 -22.5t-91.5 -9.5q-137 0 -199.5 73t-62.5 240t62.5 240t199.5 73q123 0 182 -55.5t59 -168.5h-128q-3 107 -113 107q-66 0 -95.5 -44t-29.5 -152q0 -112 30.5 -156t98.5 -44q52 0 83.5 15.5t30.5 31.5v77h-96v80h218v-223z
" />
    <glyph glyph-name="gbreve.sc" horiz-adv-x="577" 
d="M473 823q0 -55 -43.5 -101t-135.5 -46q-91 0 -134.5 46t-43.5 101h111q0 -21 19 -40t48 -19t48.5 19t19.5 40h111zM536 77q0 -3 -8 -12t-27 -23t-45 -27t-68.5 -22.5t-91.5 -9.5q-137 0 -199.5 73t-62.5 240t62.5 240t199.5 73q123 0 182 -55.5t59 -168.5h-128
q-3 107 -113 107q-66 0 -95.5 -44t-29.5 -152q0 -112 30.5 -156t98.5 -44q52 0 83.5 15.5t30.5 31.5v77h-96v80h218v-223z" />
    <glyph glyph-name="gcaron.sc" horiz-adv-x="577" 
d="M479 837l-124 -158h-127l-119 158h114l68 -72l68 72h120zM536 77q0 -3 -8 -12t-27 -23t-45 -27t-68.5 -22.5t-91.5 -9.5q-137 0 -199.5 73t-62.5 240t62.5 240t199.5 73q123 0 182 -55.5t59 -168.5h-128q-3 107 -113 107q-66 0 -95.5 -44t-29.5 -152q0 -112 30.5 -156
t98.5 -44q52 0 83.5 15.5t30.5 31.5v77h-96v80h218v-223z" />
    <glyph glyph-name="gcircumflex.sc" horiz-adv-x="577" 
d="M479 679h-119l-68 75l-68 -75h-117l121 158h127zM536 77q0 -3 -8 -12t-27 -23t-45 -27t-68.5 -22.5t-91.5 -9.5q-137 0 -199.5 73t-62.5 240t62.5 240t199.5 73q123 0 182 -55.5t59 -168.5h-128q-3 107 -113 107q-66 0 -95.5 -44t-29.5 -152q0 -112 30.5 -156t98.5 -44
q52 0 83.5 15.5t30.5 31.5v77h-96v80h218v-223z" />
    <glyph glyph-name="gcommaaccent.sc" horiz-adv-x="577" 
d="M536 77q0 -3 -8 -12t-27 -23t-45 -27t-68.5 -22.5t-91.5 -9.5q-137 0 -199.5 73t-62.5 240t62.5 240t199.5 73q123 0 182 -55.5t59 -168.5h-128q-3 107 -113 107q-66 0 -95.5 -44t-29.5 -152q0 -112 30.5 -156t98.5 -44q52 0 83.5 15.5t30.5 31.5v77h-96v80h218v-223z
M214 -283q16 43 32 111q7 29 10.5 57t3.5 41l1 13h121q-6 -59 -27 -121q-12 -34 -24.5 -59.5t-18.5 -33.5l-7 -8h-91z" />
    <glyph glyph-name="gdotaccent.sc" horiz-adv-x="577" 
d="M224 683v138h140v-138h-140zM536 77q0 -3 -8 -12t-27 -23t-45 -27t-68.5 -22.5t-91.5 -9.5q-137 0 -199.5 73t-62.5 240t62.5 240t199.5 73q123 0 182 -55.5t59 -168.5h-128q-3 107 -113 107q-66 0 -95.5 -44t-29.5 -152q0 -112 30.5 -156t98.5 -44q52 0 83.5 15.5
t30.5 31.5v77h-96v80h218v-223z" />
    <glyph glyph-name="h.sc" horiz-adv-x="598" 
d="M56 0v593h134v-234h218v234h134v-593h-134v246h-218v-246h-134z" />
    <glyph glyph-name="hbar.sc" horiz-adv-x="598" 
d="M542 421v-421h-134v246h-218v-246h-134v421h-71v78h71v94h134v-94h218v94h134v-94h69v-78h-69zM408 359v62h-218v-62h218z" />
    <glyph glyph-name="hcircumflex.sc" horiz-adv-x="598" 
d="M484 674h-119l-68 75l-68 -75h-117l121 158h127zM56 0v593h134v-234h218v234h134v-593h-134v246h-218v-246h-134z" />
    <glyph glyph-name="i.sc" horiz-adv-x="246" 
d="M56 0v593h134v-593h-134z" />
    <glyph glyph-name="iacute.sc" horiz-adv-x="246" 
d="M64 675l86 161h142l-105 -161h-123zM56 0v593h134v-593h-134z" />
    <glyph glyph-name="ibreve.sc" horiz-adv-x="246" 
d="M305 818q0 -55 -43.5 -101t-135.5 -46q-91 0 -134.5 46t-43.5 101h111q0 -21 19 -40t48 -19t48.5 19t19.5 40h111zM56 0v593h134v-593h-134z" />
    <glyph glyph-name="icircumflex.sc" horiz-adv-x="246" 
d="M311 674h-119l-68 75l-68 -75h-117l121 158h127zM56 0v593h134v-593h-134z" />
    <glyph glyph-name="idieresis.sc" horiz-adv-x="246" 
d="M-40 674v142h130v-142h-130zM163 674v142h129v-142h-129zM56 0v593h134v-593h-134z" />
    <glyph glyph-name="i.sc.loclTRK" horiz-adv-x="246" 
d="M56 678v138h140v-138h-140zM56 0v593h134v-593h-134z" />
    <glyph glyph-name="uni1ECB.sc" horiz-adv-x="246" 
d="M56 0v593h134v-593h-134zM52 -196v133h140v-133h-140z" />
    <glyph glyph-name="igrave.sc" horiz-adv-x="246" 
d="M187 675h-124l-104 161h142zM56 0v593h134v-593h-134z" />
    <glyph glyph-name="ij.sc" horiz-adv-x="594" 
d="M56 0v593h134v-593h-134zM545 256q0 -52 -2.5 -85.5t-11.5 -65t-25 -49t-43.5 -31.5t-67 -19.5t-95.5 -5.5h-51v117h51q66 0 88 27.5t22 111.5l1 337h134v-337z" />
    <glyph glyph-name="imacron.sc" horiz-adv-x="246" 
d="M-21 789h294v-91h-294v91zM56 0v593h134v-593h-134z" />
    <glyph glyph-name="iogonek.sc" horiz-adv-x="246" 
d="M-36 -123q0 34 23 65.5t41.5 44.5t27.5 17v589h134v-593h-28q-9 -5 -23 -15t-30.5 -32t-16.5 -44q0 -17 10 -26.5t26 -9.5q10 0 22 3.5t18 6.5l7 3v-73q-27 -24 -102 -24q-58 0 -83.5 25.5t-25.5 62.5z" />
    <glyph glyph-name="itilde.sc" horiz-adv-x="246" 
d="M305 822q0 -68 -23 -107t-83 -39q-42 0 -78 24t-56 24q-24 0 -34.5 -16t-10.5 -31h-74q0 68 23 107t83 39q42 0 78 -24t56 -24q24 0 34.5 16t10.5 31h74zM56 0v593h134v-593h-134z" />
    <glyph glyph-name="j.sc" horiz-adv-x="348" 
d="M299 256q0 -52 -2.5 -85.5t-11.5 -65t-25 -49t-43.5 -31.5t-67 -19.5t-95.5 -5.5h-51v117h51q66 0 88 27.5t22 111.5l1 337h134v-337z" />
    <glyph glyph-name="jcircumflex.sc" horiz-adv-x="348" 
d="M418 674h-119l-68 75l-68 -75h-117l121 158h127zM299 256q0 -52 -2.5 -85.5t-11.5 -65t-25 -49t-43.5 -31.5t-67 -19.5t-95.5 -5.5h-51v117h51q66 0 88 27.5t22 111.5l1 337h134v-337z" />
    <glyph glyph-name="k.sc" horiz-adv-x="576" 
d="M56 0v593h134v-301l223 301h154l-191 -241l195 -352h-147l-134 245l-100 -127v-118h-134z" />
    <glyph glyph-name="kcommaaccent.sc" horiz-adv-x="576" 
d="M56 0v593h134v-301l223 301h154l-191 -241l195 -352h-147l-134 245l-100 -127v-118h-134zM193 -266q16 43 32 111q7 29 10.5 57t4.5 41v13h121q-6 -59 -27 -121q-12 -34 -24.5 -59.5t-19.5 -33.5l-6 -8h-91z" />
    <glyph glyph-name="l.sc" horiz-adv-x="435" 
d="M56 0v593h134v-472h237v-121h-371z" />
    <glyph glyph-name="lacute.sc" horiz-adv-x="435" 
d="M66 675l86 161h142l-105 -161h-123zM56 0v593h134v-472h237v-121h-371z" />
    <glyph glyph-name="lcaron.sc" horiz-adv-x="435" 
d="M245 458l55 179h110l-85 -179h-80zM56 0v593h134v-472h237v-121h-371z" />
    <glyph glyph-name="lcommaaccent.sc" horiz-adv-x="435" 
d="M56 0v593h134v-472h237v-121h-371zM138 -272q16 43 32 111q7 29 10.5 57t3.5 41l1 13h121q-6 -59 -27 -121q-12 -34 -24.5 -59.5t-18.5 -33.5l-7 -8h-91z" />
    <glyph glyph-name="ldot.sc" horiz-adv-x="435" 
d="M56 0v593h134v-472h237v-121h-371zM254 242v143h142v-143h-142z" />
    <glyph glyph-name="lslash.sc" horiz-adv-x="435" 
d="M190 294v-173h237v-121h-371v223l-79 -41l-39 82l118 62v267h134v-197l83 44l40 -81z" />
    <glyph glyph-name="m.sc" horiz-adv-x="808" 
d="M56 0v593h190l156 -476l154 476h196l-1 -593h-129l11 460l-164 -460h-139l-158 461l11 -461h-127z" />
    <glyph glyph-name="n.sc" horiz-adv-x="628" 
d="M173 443l7 -443h-124l2 593h151l246 -439l-8 439h125v-593h-147z" />
    <glyph glyph-name="nacute.sc" horiz-adv-x="628" 
d="M252 675l86 161h142l-105 -161h-123zM173 443l7 -443h-124l2 593h151l246 -439l-8 439h125v-593h-147z" />
    <glyph glyph-name="ncaron.sc" horiz-adv-x="628" 
d="M499 832l-124 -158h-127l-119 158h114l68 -72l68 72h120zM173 443l7 -443h-124l2 593h151l246 -439l-8 439h125v-593h-147z" />
    <glyph glyph-name="ncommaaccent.sc" horiz-adv-x="628" 
d="M173 443l7 -443h-124l2 593h151l246 -439l-8 439h125v-593h-147zM230 -266q16 43 32 111q7 29 10.5 57t3.5 41l1 13h121q-6 -59 -27 -121q-12 -34 -24.5 -59.5t-18.5 -33.5l-7 -8h-91z" />
    <glyph glyph-name="eng.sc" horiz-adv-x="628" 
d="M572 593v-593q0 -42 -8.5 -73.5t-30 -60t-65 -43t-107.5 -14.5h-45v102h45q51 0 74 20.5t23 68.5h-1l-283 419l7 -419h-125l2 593h141l255 -387l-6 387h124z" />
    <glyph glyph-name="uni0272.sc" horiz-adv-x="628" 
d="M174 437l3 -437q1 -91 -42.5 -140.5t-163.5 -49.5h-44v101h44q49 0 67.5 20t18.5 69l1 593h153l243 -427l-8 427h126v-593h-153z" />
    <glyph glyph-name="ntilde.sc" horiz-adv-x="628" 
d="M493 822q0 -68 -23 -107t-83 -39q-42 0 -78 24t-56 24q-24 0 -34.5 -16t-10.5 -31h-74q0 68 23 107t83 39q42 0 78 -24t56 -24q24 0 34.5 16t10.5 31h74zM173 443l7 -443h-124l2 593h151l246 -439l-8 439h125v-593h-147z" />
    <glyph glyph-name="o.sc" horiz-adv-x="597" 
d="M563 296q0 -167 -63.5 -240t-201.5 -73q-137 0 -200.5 73t-63.5 240t63.5 240t200.5 73q138 0 201.5 -73t63.5 -240zM171 296q0 -113 30 -157.5t97 -44.5q68 0 98 44.5t30 157.5t-30 157.5t-98 44.5q-67 0 -97 -44.5t-30 -157.5z" />
    <glyph glyph-name="oacute.sc" horiz-adv-x="597" 
d="M237 680l86 161h142l-105 -161h-123zM563 296q0 -167 -63.5 -240t-201.5 -73q-137 0 -200.5 73t-63.5 240t63.5 240t200.5 73q138 0 201.5 -73t63.5 -240zM171 296q0 -113 30 -157.5t97 -44.5q68 0 98 44.5t30 157.5t-30 157.5t-98 44.5q-67 0 -97 -44.5t-30 -157.5z" />
    <glyph glyph-name="obreve.sc" horiz-adv-x="597" 
d="M478 823q0 -55 -43.5 -101t-135.5 -46q-91 0 -134.5 46t-43.5 101h111q0 -21 19 -40t48 -19t48.5 19t19.5 40h111zM563 296q0 -167 -63.5 -240t-201.5 -73q-137 0 -200.5 73t-63.5 240t63.5 240t200.5 73q138 0 201.5 -73t63.5 -240zM171 296q0 -113 30 -157.5t97 -44.5
q68 0 98 44.5t30 157.5t-30 157.5t-98 44.5q-67 0 -97 -44.5t-30 -157.5z" />
    <glyph glyph-name="ocircumflex.sc" horiz-adv-x="597" 
d="M484 679h-119l-68 75l-68 -75h-117l121 158h127zM563 296q0 -167 -63.5 -240t-201.5 -73q-137 0 -200.5 73t-63.5 240t63.5 240t200.5 73q138 0 201.5 -73t63.5 -240zM171 296q0 -113 30 -157.5t97 -44.5q68 0 98 44.5t30 157.5t-30 157.5t-98 44.5q-67 0 -97 -44.5
t-30 -157.5z" />
    <glyph glyph-name="odieresis.sc" horiz-adv-x="597" 
d="M133 679v142h130v-142h-130zM336 679v142h129v-142h-129zM563 296q0 -167 -63.5 -240t-201.5 -73q-137 0 -200.5 73t-63.5 240t63.5 240t200.5 73q138 0 201.5 -73t63.5 -240zM171 296q0 -113 30 -157.5t97 -44.5q68 0 98 44.5t30 157.5t-30 157.5t-98 44.5
q-67 0 -97 -44.5t-30 -157.5z" />
    <glyph glyph-name="uni1ECD.sc" horiz-adv-x="597" 
d="M563 296q0 -167 -63.5 -240t-201.5 -73q-137 0 -200.5 73t-63.5 240t63.5 240t200.5 73q138 0 201.5 -73t63.5 -240zM171 296q0 -113 30 -157.5t97 -44.5q68 0 98 44.5t30 157.5t-30 157.5t-98 44.5q-67 0 -97 -44.5t-30 -157.5zM229 -200v133h140v-133h-140z" />
    <glyph glyph-name="ograve.sc" horiz-adv-x="597" 
d="M360 680h-124l-104 161h142zM563 296q0 -167 -63.5 -240t-201.5 -73q-137 0 -200.5 73t-63.5 240t63.5 240t200.5 73q138 0 201.5 -73t63.5 -240zM171 296q0 -113 30 -157.5t97 -44.5q68 0 98 44.5t30 157.5t-30 157.5t-98 44.5q-67 0 -97 -44.5t-30 -157.5z" />
    <glyph glyph-name="ohungarumlaut.sc" horiz-adv-x="597" 
d="M122 680l82 161h143l-102 -161h-123zM310 680l102 161h143l-121 -161h-124zM563 296q0 -167 -63.5 -240t-201.5 -73q-137 0 -200.5 73t-63.5 240t63.5 240t200.5 73q138 0 201.5 -73t63.5 -240zM171 296q0 -113 30 -157.5t97 -44.5q68 0 98 44.5t30 157.5t-30 157.5
t-98 44.5q-67 0 -97 -44.5t-30 -157.5z" />
    <glyph glyph-name="omacron.sc" horiz-adv-x="597" 
d="M152 794h294v-91h-294v91zM563 296q0 -167 -63.5 -240t-201.5 -73q-137 0 -200.5 73t-63.5 240t63.5 240t200.5 73q138 0 201.5 -73t63.5 -240zM171 296q0 -113 30 -157.5t97 -44.5q68 0 98 44.5t30 157.5t-30 157.5t-98 44.5q-67 0 -97 -44.5t-30 -157.5z" />
    <glyph glyph-name="uni01EB.sc" horiz-adv-x="597" 
d="M266 -96q0 42 32 79q-137 0 -200.5 73t-63.5 240t63.5 240t200.5 73q138 0 201.5 -73t63.5 -240q0 -226 -124 -287q-45 -34 -45 -73q0 -16 10 -26t26 -10q10 0 22 3t18 7l7 3v-73q-27 -24 -102 -24q-58 0 -83.5 25.5t-25.5 62.5zM171 296q0 -113 30 -157.5t97 -44.5
q68 0 98 44.5t30 157.5t-30 157.5t-98 44.5q-67 0 -97 -44.5t-30 -157.5z" />
    <glyph glyph-name="oslash.sc" horiz-adv-x="597" 
d="M19 -18l66 89q-51 75 -51 225q0 167 63.5 240t200.5 73q101 0 161 -38l25 34h96l-66 -88q49 -74 49 -221q0 -167 -63.5 -240t-201.5 -73q-97 0 -157 35l-27 -36h-95zM171 296q0 -64 8 -100l204 273q-29 29 -85 29q-67 0 -97 -44.5t-30 -157.5zM426 296q0 48 -7 94
l-202 -271q28 -25 81 -25q68 0 98 44.5t30 157.5z" />
    <glyph glyph-name="oslashacute.sc" horiz-adv-x="597" 
d="M237 680l86 161h142l-105 -161h-123zM19 -18l66 89q-51 75 -51 225q0 167 63.5 240t200.5 73q101 0 161 -38l25 34h96l-66 -88q49 -74 49 -221q0 -167 -63.5 -240t-201.5 -73q-97 0 -157 35l-27 -36h-95zM171 296q0 -64 8 -100l204 273q-29 29 -85 29q-67 0 -97 -44.5
t-30 -157.5zM426 296q0 48 -7 94l-202 -271q28 -25 81 -25q68 0 98 44.5t30 157.5z" />
    <glyph glyph-name="otilde.sc" horiz-adv-x="597" 
d="M478 827q0 -68 -23 -107t-83 -39q-42 0 -78 24t-56 24q-24 0 -34.5 -16t-10.5 -31h-74q0 68 23 107t83 39q42 0 78 -24t56 -24q24 0 34.5 16t10.5 31h74zM563 296q0 -167 -63.5 -240t-201.5 -73q-137 0 -200.5 73t-63.5 240t63.5 240t200.5 73q138 0 201.5 -73t63.5 -240
zM171 296q0 -113 30 -157.5t97 -44.5q68 0 98 44.5t30 157.5t-30 157.5t-98 44.5q-67 0 -97 -44.5t-30 -157.5z" />
    <glyph glyph-name="oe.sc" horiz-adv-x="815" 
d="M297 0q-140 0 -201.5 67t-61.5 229t62 229.5t201 67.5h491v-108h-280v-135h238v-96h-238v-146h286v-108h-497zM171 296q0 -104 30 -147t98 -43h74v381h-74q-68 0 -98 -43t-30 -148z" />
    <glyph glyph-name="p.sc" horiz-adv-x="574" 
d="M56 0v594h202q165 0 228 -44t63 -165q0 -122 -63 -166t-228 -44h-68v-175h-134zM190 489v-206h88q71 0 102 19t31 84t-31 84t-103 19h-87z" />
    <glyph glyph-name="thorn.sc" horiz-adv-x="569" 
d="M56 0v593h136v-86h100q139 0 195.5 -44t56.5 -165t-56.5 -163.5t-199.5 -42.5h-97v-92h-135zM191 399v-200h93q65 -1 94 18t29 82q0 62 -29 81t-95 19h-92z" />
    <glyph glyph-name="q.sc" horiz-adv-x="603" 
d="M563 296q0 -181 -77 -254l86 -76l-90 -76l-96 102q-40 -9 -88 -9q-137 0 -200.5 73t-63.5 240t63.5 240t200.5 73q138 0 201.5 -73t63.5 -240zM171 296q0 -113 30 -157.5t97 -44.5q68 0 98 44.5t30 157.5t-30 157.5t-98 44.5q-67 0 -97 -44.5t-30 -157.5z" />
    <glyph glyph-name="r.sc" horiz-adv-x="586" 
d="M56 0v594h240q142 0 199.5 -43t57.5 -162q0 -77 -23 -120t-75 -62l101 -207h-143l-83 188h-140v-188h-134zM190 486v-191h92q72 0 102.5 17.5t30.5 77.5q0 61 -30.5 78.5t-102.5 17.5h-92z" />
    <glyph glyph-name="racute.sc" horiz-adv-x="586" 
d="M216 675l86 161h142l-105 -161h-123zM56 0v594h240q142 0 199.5 -43t57.5 -162q0 -77 -23 -120t-75 -62l101 -207h-143l-83 188h-140v-188h-134zM190 486v-191h92q72 0 102.5 17.5t30.5 77.5q0 61 -30.5 78.5t-102.5 17.5h-92z" />
    <glyph glyph-name="rcaron.sc" horiz-adv-x="586" 
d="M463 832l-124 -158h-127l-119 158h114l68 -72l68 72h120zM56 0v594h240q142 0 199.5 -43t57.5 -162q0 -77 -23 -120t-75 -62l101 -207h-143l-83 188h-140v-188h-134zM190 486v-191h92q72 0 102.5 17.5t30.5 77.5q0 61 -30.5 78.5t-102.5 17.5h-92z" />
    <glyph glyph-name="rcommaaccent.sc" horiz-adv-x="586" 
d="M56 0v594h240q142 0 199.5 -43t57.5 -162q0 -77 -23 -120t-75 -62l101 -207h-143l-83 188h-140v-188h-134zM190 486v-191h92q72 0 102.5 17.5t30.5 77.5q0 61 -30.5 78.5t-102.5 17.5h-92zM193 -266q16 43 32 111q7 29 10.5 57t4.5 41v13h121q-6 -59 -27 -121
q-12 -34 -24.5 -59.5t-19.5 -33.5l-6 -8h-91z" />
    <glyph glyph-name="s.sc" horiz-adv-x="555" 
d="M524 167q0 -185 -247 -184q-245 2 -245 205h128q0 -101 121 -103q113 -1 113 75q0 33 -37 52.5t-89.5 30.5t-105 27t-89.5 55.5t-36 102.5q1 86 59.5 134.5t177.5 47.5q127 -1 182.5 -50.5t55.5 -145.5h-128q0 42 -23 66.5t-87 25.5q-107 1 -107 -73q0 -28 26.5 -46.5
t66 -26.5t86 -21t86 -29t66 -53t26.5 -90z" />
    <glyph glyph-name="sacute.sc" horiz-adv-x="555" 
d="M214 680l86 161h142l-105 -161h-123zM524 167q0 -185 -247 -184q-245 2 -245 205h128q0 -101 121 -103q113 -1 113 75q0 33 -37 52.5t-89.5 30.5t-105 27t-89.5 55.5t-36 102.5q1 86 59.5 134.5t177.5 47.5q127 -1 182.5 -50.5t55.5 -145.5h-128q0 42 -23 66.5t-87 25.5
q-107 1 -107 -73q0 -28 26.5 -46.5t66 -26.5t86 -21t86 -29t66 -53t26.5 -90z" />
    <glyph glyph-name="scaron.sc" horiz-adv-x="555" 
d="M461 837l-124 -158h-127l-119 158h114l68 -72l68 72h120zM524 167q0 -185 -247 -184q-245 2 -245 205h128q0 -101 121 -103q113 -1 113 75q0 33 -37 52.5t-89.5 30.5t-105 27t-89.5 55.5t-36 102.5q1 86 59.5 134.5t177.5 47.5q127 -1 182.5 -50.5t55.5 -145.5h-128
q0 42 -23 66.5t-87 25.5q-107 1 -107 -73q0 -28 26.5 -46.5t66 -26.5t86 -21t86 -29t66 -53t26.5 -90z" />
    <glyph glyph-name="scedilla.sc" horiz-adv-x="555" 
d="M407 -160q0 -53 -36.5 -77.5t-127.5 -24.5q-27 0 -49.5 2.5t-31.5 5.5l-10 2v70q0 -1 5 -2.5t17.5 -3.5t29.5 -2q67 0 67 43q0 45 -85 45h-4l43 88q-193 21 -193 202h128q0 -101 121 -103q113 -1 113 75q0 33 -37 52.5t-89.5 30.5t-105 27t-89.5 55.5t-36 102.5
q1 86 59.5 134.5t177.5 47.5q127 -1 182.5 -50.5t55.5 -145.5h-128q0 42 -23 66.5t-87 25.5q-107 1 -107 -73q0 -28 26.5 -46.5t66 -26.5t86 -21t86 -29t66 -53t26.5 -90q0 -157 -180 -180l-30 -58q93 -8 93 -89z" />
    <glyph glyph-name="scircumflex.sc" horiz-adv-x="555" 
d="M461 679h-119l-68 75l-68 -75h-117l121 158h127zM524 167q0 -185 -247 -184q-245 2 -245 205h128q0 -101 121 -103q113 -1 113 75q0 33 -37 52.5t-89.5 30.5t-105 27t-89.5 55.5t-36 102.5q1 86 59.5 134.5t177.5 47.5q127 -1 182.5 -50.5t55.5 -145.5h-128
q0 42 -23 66.5t-87 25.5q-107 1 -107 -73q0 -28 26.5 -46.5t66 -26.5t86 -21t86 -29t66 -53t26.5 -90z" />
    <glyph glyph-name="scommaaccent.sc" horiz-adv-x="555" 
d="M524 167q0 -185 -247 -184q-245 2 -245 205h128q0 -101 121 -103q113 -1 113 75q0 33 -37 52.5t-89.5 30.5t-105 27t-89.5 55.5t-36 102.5q1 86 59.5 134.5t177.5 47.5q127 -1 182.5 -50.5t55.5 -145.5h-128q0 42 -23 66.5t-87 25.5q-107 1 -107 -73q0 -28 26.5 -46.5
t66 -26.5t86 -21t86 -29t66 -53t26.5 -90zM198 -277q16 43 32 111q7 29 10.5 57t3.5 41l1 13h121q-6 -59 -27 -121q-12 -34 -24.5 -59.5t-18.5 -33.5l-7 -8h-91z" />
    <glyph glyph-name="germandbls.sc" horiz-adv-x="606" 
d="M578 183q0 -77 -54 -129.5t-177 -52.5h-105v110h94q102 0 102 93q0 44 -27.5 69t-81.5 25q-14 0 -28.5 -2t-22.5 -4l-7 -2v84l134 122h-126q-91 -1 -91 -102v-394h-132v389q0 48 7 80t27.5 62.5t65 46t113.5 15.5h287v-97l-130 -122q80 -15 116 -61.5t36 -129.5z" />
    <glyph glyph-name="uni0259.sc" horiz-adv-x="611" 
d="M569 296q0 -167 -62.5 -240t-200.5 -73q-139 0 -201.5 77.5t-62.5 255.5h390q-2 95 -32 136t-94 41q-104 0 -121 -98h-138q13 112 76 163t183 51q138 0 200.5 -73t62.5 -240zM306 102q56 0 85 30.5t37 101.5h-244q8 -74 36.5 -103t85.5 -29z" />
    <glyph glyph-name="t.sc" horiz-adv-x="492" 
d="M177 0l1 473h-172v120h480v-120h-174l-1 -473h-134z" />
    <glyph glyph-name="tbar.sc" horiz-adv-x="492" 
d="M177 0v221h-92v80h92l1 172h-172v120h480v-120h-174l-1 -172h92v-80h-92v-221h-134z" />
    <glyph glyph-name="tcaron.sc" horiz-adv-x="492" 
d="M431 832l-124 -158h-127l-119 158h114l68 -72l68 72h120zM177 0l1 473h-172v120h480v-120h-174l-1 -473h-134z" />
    <glyph glyph-name="uni0163.sc" horiz-adv-x="492" 
d="M356 -150q0 -53 -36.5 -77.5t-127.5 -24.5q-27 0 -49.5 2.5t-32.5 5.5l-9 2v70q0 -1 5 -2.5t17.5 -3.5t29.5 -2q67 0 67 43q0 45 -85 45h-4l46 93l1 472h-172v120h480v-120h-174l-1 -473h-17l-31 -61q93 -8 93 -89z" />
    <glyph glyph-name="uni021B.sc" horiz-adv-x="492" 
d="M177 0l1 473h-172v120h480v-120h-174l-1 -473h-134zM138 -267q15 43 31 112q7 29 11 56.5t4 40.5l1 13h120q-6 -59 -26 -121q-12 -34 -24.5 -59.5t-18.5 -33.5l-7 -8h-91z" />
    <glyph glyph-name="u.sc" horiz-adv-x="586" 
d="M537 281q0 -80 -9 -131t-34.5 -91.5t-74.5 -58t-126 -17.5t-125.5 17.5t-74.5 58t-35 91.5t-9 131v312h135v-323q0 -89 22.5 -126.5t85.5 -37.5q65 0 87.5 37.5t22.5 126.5v323h135v-312z" />
    <glyph glyph-name="uacute.sc" horiz-adv-x="586" 
d="M231 675l86 161h142l-105 -161h-123zM537 281q0 -80 -9 -131t-34.5 -91.5t-74.5 -58t-126 -17.5t-125.5 17.5t-74.5 58t-35 91.5t-9 131v312h135v-323q0 -89 22.5 -126.5t85.5 -37.5q65 0 87.5 37.5t22.5 126.5v323h135v-312z" />
    <glyph glyph-name="ubreve.sc" horiz-adv-x="586" 
d="M472 818q0 -55 -43.5 -101t-135.5 -46q-91 0 -134.5 46t-43.5 101h111q0 -21 19 -40t48 -19t48.5 19t19.5 40h111zM537 281q0 -80 -9 -131t-34.5 -91.5t-74.5 -58t-126 -17.5t-125.5 17.5t-74.5 58t-35 91.5t-9 131v312h135v-323q0 -89 22.5 -126.5t85.5 -37.5
q65 0 87.5 37.5t22.5 126.5v323h135v-312z" />
    <glyph glyph-name="ucircumflex.sc" horiz-adv-x="586" 
d="M478 674h-119l-68 75l-68 -75h-117l121 158h127zM537 281q0 -80 -9 -131t-34.5 -91.5t-74.5 -58t-126 -17.5t-125.5 17.5t-74.5 58t-35 91.5t-9 131v312h135v-323q0 -89 22.5 -126.5t85.5 -37.5q65 0 87.5 37.5t22.5 126.5v323h135v-312z" />
    <glyph glyph-name="udieresis.sc" horiz-adv-x="586" 
d="M127 674v142h130v-142h-130zM330 674v142h129v-142h-129zM537 281q0 -80 -9 -131t-34.5 -91.5t-74.5 -58t-126 -17.5t-125.5 17.5t-74.5 58t-35 91.5t-9 131v312h135v-323q0 -89 22.5 -126.5t85.5 -37.5q65 0 87.5 37.5t22.5 126.5v323h135v-312z" />
    <glyph glyph-name="uni1EE5.sc" horiz-adv-x="586" 
d="M537 281q0 -80 -9 -131t-34.5 -91.5t-74.5 -58t-126 -17.5t-125.5 17.5t-74.5 58t-35 91.5t-9 131v312h135v-323q0 -89 22.5 -126.5t85.5 -37.5q65 0 87.5 37.5t22.5 126.5v323h135v-312zM223 -201v133h140v-133h-140z" />
    <glyph glyph-name="ugrave.sc" horiz-adv-x="586" 
d="M354 675h-124l-104 161h142zM537 281q0 -80 -9 -131t-34.5 -91.5t-74.5 -58t-126 -17.5t-125.5 17.5t-74.5 58t-35 91.5t-9 131v312h135v-323q0 -89 22.5 -126.5t85.5 -37.5q65 0 87.5 37.5t22.5 126.5v323h135v-312z" />
    <glyph glyph-name="uhungarumlaut.sc" horiz-adv-x="586" 
d="M116 675l82 161h143l-102 -161h-123zM304 675l102 161h143l-121 -161h-124zM537 281q0 -80 -9 -131t-34.5 -91.5t-74.5 -58t-126 -17.5t-125.5 17.5t-74.5 58t-35 91.5t-9 131v312h135v-323q0 -89 22.5 -126.5t85.5 -37.5q65 0 87.5 37.5t22.5 126.5v323h135v-312z" />
    <glyph glyph-name="umacron.sc" horiz-adv-x="586" 
d="M146 789h294v-91h-294v91zM537 281q0 -80 -9 -131t-34.5 -91.5t-74.5 -58t-126 -17.5t-125.5 17.5t-74.5 58t-35 91.5t-9 131v312h135v-323q0 -89 22.5 -126.5t85.5 -37.5q65 0 87.5 37.5t22.5 126.5v323h135v-312z" />
    <glyph glyph-name="uogonek.sc" horiz-adv-x="586" 
d="M259 -100q0 45 36 83h-2q-77 0 -125.5 17.5t-74.5 58t-35 91.5t-9 131v312h135v-323q0 -89 22.5 -126.5t85.5 -37.5q65 0 87.5 37.5t22.5 126.5v323h135v-312q0 -114 -21 -178.5t-80 -93.5q-49 -37 -49 -77q0 -16 9.5 -26t26.5 -10q10 0 22 3t19 7l6 3v-73
q-27 -24 -102 -24q-58 0 -83.5 25.5t-25.5 62.5z" />
    <glyph glyph-name="uring.sc" horiz-adv-x="586" 
d="M412 770q0 -52 -31.5 -80.5t-86.5 -28.5t-86.5 28.5t-31.5 80.5t31.5 80.5t86.5 28.5t86.5 -28.5t31.5 -80.5zM258 770q0 -17 10 -27t26 -10t26 10t10 27q0 16 -10 26t-26 10t-26 -10t-10 -26zM537 281q0 -80 -9 -131t-34.5 -91.5t-74.5 -58t-126 -17.5t-125.5 17.5
t-74.5 58t-35 91.5t-9 131v312h135v-323q0 -89 22.5 -126.5t85.5 -37.5q65 0 87.5 37.5t22.5 126.5v323h135v-312z" />
    <glyph glyph-name="utilde.sc" horiz-adv-x="586" 
d="M472 822q0 -68 -23 -107t-83 -39q-42 0 -78 24t-56 24q-24 0 -34.5 -16t-10.5 -31h-74q0 68 23 107t83 39q42 0 78 -24t56 -24q24 0 34.5 16t10.5 31h74zM537 281q0 -80 -9 -131t-34.5 -91.5t-74.5 -58t-126 -17.5t-125.5 17.5t-74.5 58t-35 91.5t-9 131v312h135v-323
q0 -89 22.5 -126.5t85.5 -37.5q65 0 87.5 37.5t22.5 126.5v323h135v-312z" />
    <glyph glyph-name="v.sc" horiz-adv-x="563" 
d="M2 593h150l131 -481l131 481h147l-197 -593h-164z" />
    <glyph glyph-name="w.sc" horiz-adv-x="888" 
d="M444 465l-104 -465h-165l-163 593h154l98 -476l101 476h162l99 -477l105 477h145l-169 -593h-164z" />
    <glyph glyph-name="wacute.sc" horiz-adv-x="888" 
d="M385 675l86 161h142l-105 -161h-123zM444 465l-104 -465h-165l-163 593h154l98 -476l101 476h162l99 -477l105 477h145l-169 -593h-164z" />
    <glyph glyph-name="wcircumflex.sc" horiz-adv-x="888" 
d="M632 674h-119l-68 75l-68 -75h-117l121 158h127zM444 465l-104 -465h-165l-163 593h154l98 -476l101 476h162l99 -477l105 477h145l-169 -593h-164z" />
    <glyph glyph-name="wdieresis.sc" horiz-adv-x="888" 
d="M281 674v142h130v-142h-130zM484 674v142h129v-142h-129zM444 465l-104 -465h-165l-163 593h154l98 -476l101 476h162l99 -477l105 477h145l-169 -593h-164z" />
    <glyph glyph-name="wgrave.sc" horiz-adv-x="888" 
d="M508 675h-124l-104 161h142zM444 465l-104 -465h-165l-163 593h154l98 -476l101 476h162l99 -477l105 477h145l-169 -593h-164z" />
    <glyph glyph-name="x.sc" horiz-adv-x="563" 
d="M277 210l-122 -210h-149l188 290l-187 303h147l127 -217l126 217h149l-193 -296l182 -297h-148z" />
    <glyph glyph-name="y.sc" horiz-adv-x="547" 
d="M206 0v169l-201 424h151l117 -322l111 322h158l-203 -424v-169h-133z" />
    <glyph glyph-name="yacute.sc" horiz-adv-x="547" 
d="M210 675l86 161h142l-105 -161h-123zM206 0v169l-201 424h151l117 -322l111 322h158l-203 -424v-169h-133z" />
    <glyph glyph-name="ycircumflex.sc" horiz-adv-x="547" 
d="M457 674h-119l-68 75l-68 -75h-117l121 158h127zM206 0v169l-201 424h151l117 -322l111 322h158l-203 -424v-169h-133z" />
    <glyph glyph-name="ydieresis.sc" horiz-adv-x="547" 
d="M106 674v142h130v-142h-130zM309 674v142h129v-142h-129zM206 0v169l-201 424h151l117 -322l111 322h158l-203 -424v-169h-133z" />
    <glyph glyph-name="ygrave.sc" horiz-adv-x="547" 
d="M333 675h-124l-104 161h142zM206 0v169l-201 424h151l117 -322l111 322h158l-203 -424v-169h-133z" />
    <glyph glyph-name="uni0233.sc" horiz-adv-x="547" 
d="M125 789h294v-91h-294v91zM206 0v169l-201 424h151l117 -322l111 322h158l-203 -424v-169h-133z" />
    <glyph glyph-name="uni1EF9.sc" horiz-adv-x="547" 
d="M451 822q0 -68 -23 -107t-83 -39q-42 0 -78 24t-56 24q-24 0 -34.5 -16t-10.5 -31h-74q0 68 23 107t83 39q42 0 78 -24t56 -24q24 0 34.5 16t10.5 31h74zM206 0v169l-201 424h151l117 -322l111 322h158l-203 -424v-169h-133z" />
    <glyph glyph-name="z.sc" horiz-adv-x="494" 
d="M16 1v114l295 363h-283v113h444v-113l-300 -363h303v-114h-459z" />
    <glyph glyph-name="zacute.sc" horiz-adv-x="494" 
d="M187 675l86 161h142l-105 -161h-123zM16 1v114l295 363h-283v113h444v-113l-300 -363h303v-114h-459z" />
    <glyph glyph-name="zcaron.sc" horiz-adv-x="494" 
d="M434 832l-124 -158h-127l-119 158h114l68 -72l68 72h120zM16 1v114l295 363h-283v113h444v-113l-300 -363h303v-114h-459z" />
    <glyph glyph-name="zdotaccent.sc" horiz-adv-x="494" 
d="M179 678v138h140v-138h-140zM16 1v114l295 363h-283v113h444v-113l-300 -363h303v-114h-459z" />
    <glyph glyph-name="zero.osf" horiz-adv-x="620" 
d="M578 281q0 -151 -61 -223.5t-207 -72.5t-207 72.5t-61 223.5q0 150 61 223.5t207 73.5q146 1 207 -72.5t61 -224.5zM185 281q0 -102 27.5 -144t97.5 -42t97.5 42t27.5 144t-27.5 144.5t-97.5 42.5t-97.5 -42.5t-27.5 -144.5z" />
    <glyph glyph-name="one.osf" horiz-adv-x="391" 
d="M27 0v103h106v317l-96 -30v118l146 58h84v-463h105v-103h-345z" />
    <glyph glyph-name="two.osf" horiz-adv-x="545" 
d="M32 0v103q79 46 156 101q11 8 38.5 27t38 27t31 24t29 26t19.5 24.5t15 28.5t4 29q0 78 -99 78q-50 0 -76.5 -26.5t-26.5 -69.5h-130q0 204 232 204q234 0 234 -176q0 -32 -10 -61.5t-22 -50.5t-39 -48t-44.5 -42t-55.5 -46q-25 -20 -62 -46l232 6v-112h-464z" />
    <glyph glyph-name="three.osf" horiz-adv-x="569" 
d="M349 306q97 -18 140 -72.5t43 -147.5q0 -105 -61 -171t-199 -66q-134 0 -194.5 65t-60.5 166h138q0 -47 29 -78t85 -31q117 0 117 126q0 61 -36.5 94.5t-106.5 33.5q-20 0 -40.5 -2t-30.5 -4l-11 -2v89l183 143l-298 -7v125h473v-114z" />
    <glyph glyph-name="four.osf" horiz-adv-x="608" 
d="M375 -156v156h-357v110l293 457h197v-457h80v-110h-80v-156h-133zM375 110v366l-218 -366h218z" />
    <glyph glyph-name="five.osf" horiz-adv-x="590" 
d="M227 450l-26 -163q55 37 145 37q110 0 162.5 -67.5t52.5 -170.5q0 -107 -62 -173.5t-201 -66.5q-72 0 -125.5 18.5t-83 49.5t-43 66.5t-13.5 74.5h144q0 -35 31.5 -63.5t89.5 -28.5q59 0 89 32.5t30 90.5q0 62 -30 98t-83 36q-39 0 -69.5 -14t-39 -23.5t-13.5 -17.5
l-131 1l60 400h411v-119z" />
    <glyph glyph-name="six.osf" horiz-adv-x="623" 
d="M588 227q0 -108 -63.5 -174t-207.5 -67q-144 0 -208 80t-64 249q0 223 63 314.5t209 91.5q68 0 118.5 -19t78 -50.5t40.5 -66.5t13 -72h-136q0 38 -27 67t-85 29q-60 0 -91 -42.5t-40 -154.5q64 53 166 53q120 0 177 -66t57 -172zM321 362q-89 0 -137 -75
q4 -99 36 -143.5t97 -44.5q128 0 128 133q0 130 -124 130z" />
    <glyph glyph-name="seven.osf" horiz-adv-x="493" 
d="M115 -153q0 94 24 190t57.5 166t67.5 127t58 86l24 29l-343 -2v124h486v-126q-10 -12 -26 -33t-56.5 -86.5t-72 -132t-57 -161t-25.5 -181.5h-137z" />
    <glyph glyph-name="eight.osf" horiz-adv-x="627" 
d="M314 -12q-149 0 -213 54.5t-64 156.5q0 84 43.5 130.5t78.5 50.5q-27 4 -63 41.5t-36 103.5q0 196 254 196q253 0 253 -196q0 -66 -36 -103.5t-63 -41.5q13 -1 31.5 -12t40 -31t36 -56.5t14.5 -81.5q0 -102 -63.5 -156.5t-212.5 -54.5zM314 623q-111 0 -111 -111
q0 -43 28.5 -68t82.5 -25t82 25t28 68q0 111 -110 111zM314 330q-61 0 -91.5 -30.5t-30.5 -84.5q0 -116 122 -116t122 116q0 53 -31 84t-91 31z" />
    <glyph glyph-name="nine.osf" horiz-adv-x="627" 
d="M581 237q0 -226 -62 -312.5t-214 -86.5q-71 0 -124 19t-81.5 51t-41.5 66.5t-13 71.5h136q0 -37 31 -66t93 -29q61 0 92 39t40 147q-62 -55 -161 -55q-128 0 -181.5 67t-53.5 187q0 106 66 173.5t201 68.5q146 0 209.5 -81t63.5 -260zM303 186q90 0 138 78
q-3 108 -35 154t-98 46q-57 0 -90 -36t-33 -97q0 -71 30.5 -108t87.5 -37z" />
    <glyph glyph-name="zero.tf" horiz-adv-x="680" 
d="M619 354q0 -200 -67 -283t-215 -83q-149 0 -215.5 82.5t-66.5 283.5t66.5 284t215.5 83q148 0 215 -83t67 -284zM198 354q0 -140 33 -191.5t106 -51.5t105.5 51.5t32.5 191.5t-32.5 192t-105.5 52t-106 -52t-33 -192z" />
    <glyph glyph-name="one.tf" horiz-adv-x="681" 
d="M164 0v110h122v450l-123 -41v117l177 75h84v-601h118v-110h-378z" />
    <glyph glyph-name="two.tf" horiz-adv-x="681" 
d="M70 3v119q90 59 182 134q45 36 59.5 48t46.5 42t43.5 47.5t22.5 44.5t11 54q0 44 -27.5 73t-82.5 29q-54 0 -84.5 -35.5t-30.5 -88.5h-141q0 115 61.5 182.5t192.5 67.5q137 0 196.5 -61t59.5 -155q0 -30 -7 -59t-14.5 -50t-28 -48.5t-31 -41t-40.5 -41.5t-39.5 -36
t-44.5 -38q-22 -19 -84 -67l289 8v-128h-509z" />
    <glyph glyph-name="three.tf" horiz-adv-x="681" 
d="M399 443q99 -18 143 -72.5t44 -147.5q0 -50 -13.5 -90.5t-43.5 -74.5t-83.5 -53t-128.5 -19q-140 0 -201.5 65t-61.5 166h142q0 -47 30 -78t88 -31q122 0 122 126q0 61 -37 94.5t-110 33.5q-20 0 -40.5 -2t-30.5 -4l-11 -2v89l188 142l-312 -7v125h491v-114z" />
    <glyph glyph-name="four.tf" horiz-adv-x="680" 
d="M394 0v129h-366v113l293 464h210v-464h80v-113h-80v-129h-137zM394 242v372l-218 -372h218z" />
    <glyph glyph-name="five.tf" horiz-adv-x="680" 
d="M255 585l-26 -157q53 36 149 36q114 0 167.5 -67t53.5 -171q0 -107 -63 -173.5t-206 -66.5q-75 0 -130.5 18.5t-85.5 50t-44 66.5t-14 74h149q0 -35 32 -63.5t93 -28.5q63 0 93.5 32.5t30.5 90.5q0 62 -31 98t-87 36q-41 0 -72.5 -14t-40.5 -23.5t-14 -17.5l-134 2
l59 394h425v-119z" />
    <glyph glyph-name="six.tf" horiz-adv-x="681" 
d="M619 227q0 -109 -64 -174.5t-213 -66.5q-154 0 -218 79t-64 250q0 225 63.5 315.5t218.5 90.5q70 0 122 -19t80 -50.5t40.5 -66t12.5 -72.5h-141q0 38 -27 67t-85 29q-62 0 -93.5 -42t-41.5 -155q66 53 170 53q124 0 182 -66t58 -172zM346 362q-91 0 -142 -76
q4 -98 37 -142.5t101 -44.5q128 0 128 133q0 130 -124 130z" />
    <glyph glyph-name="seven.tf" horiz-adv-x="680" 
d="M207 0q0 88 24 180.5t57.5 161.5t67.5 125t58 85l24 30l-351 -3v124h503v-126q-10 -12 -26 -33t-56.5 -85.5t-72 -129.5t-57 -156t-25.5 -173h-146z" />
    <glyph glyph-name="eight.tf" horiz-adv-x="680" 
d="M335 -12q-152 0 -216.5 54.5t-64.5 156.5q0 84 43.5 130.5t78.5 50.5q-27 4 -63 41.5t-36 103.5q0 196 258 196q139 0 198.5 -51.5t59.5 -144.5q0 -66 -36 -103.5t-63 -41.5q13 -1 31.5 -12t40 -31t36 -56.5t14.5 -81.5q0 -103 -64 -157t-217 -54zM335 623
q-115 0 -115 -111q0 -43 29 -68t86 -25t86 25t29 68q0 111 -115 111zM335 330q-64 0 -95 -30.5t-31 -84.5q0 -116 126 -116q127 0 127 116q0 54 -31.5 84.5t-95.5 30.5z" />
    <glyph glyph-name="nine.tf" horiz-adv-x="681" 
d="M616 381q0 -224 -62.5 -309.5t-223.5 -85.5q-76 0 -131 19t-84 51t-42 66t-13 72h142q0 -37 31 -66t97 -29q62 0 93 37.5t42 143.5q-63 -54 -164 -54q-135 0 -190 66.5t-55 187.5q0 107 67 174t210 67q155 1 219 -79.5t64 -260.5zM328 330q93 0 142 79
q-3 108 -35.5 153.5t-101.5 45.5q-60 0 -94 -36t-34 -97q0 -145 123 -145z" />
    <glyph glyph-name="zero.subs" horiz-adv-x="525" 
d="M480 67q0 -152 -51.5 -214t-166.5 -62t-166.5 61.5t-51.5 214.5t51.5 215t166.5 62t166.5 -62.5t51.5 -214.5zM160 67q0 -102 24 -139.5t78 -37.5t78 37.5t24 139.5q0 103 -24 140.5t-78 37.5t-78 -37.5t-24 -140.5z" />
    <glyph glyph-name="one.subs" horiz-adv-x="275" 
d="M99 -199v412l-92 -40v105l136 57h68v-534h-112z" />
    <glyph glyph-name="two.subs" horiz-adv-x="441" 
d="M26 -196v93q66 49 134 104q40 31 55 44t39.5 38t33.5 47t9 47q0 32 -19.5 52t-58.5 20t-61 -25.5t-22 -63.5h-114q0 88 46.5 139.5t148.5 51.5q107 0 152 -46t45 -118q0 -32 -10 -62.5t-19.5 -49t-36.5 -47t-38 -38.5t-46 -41l-62 -50l209 6v-101h-385z" />
    <glyph glyph-name="three.subs" horiz-adv-x="467" 
d="M293 135q74 -15 105.5 -57t31.5 -112q0 -77 -48 -126.5t-158 -49.5q-107 0 -154 49.5t-47 128.5h115q0 -33 21 -55.5t63 -22.5q86 0 86 85q0 95 -107 95l-59 -6v72l133 100l-230 -7v101h375v-90z" />
    <glyph glyph-name="four.subs" horiz-adv-x="477" 
d="M292 -199v94h-268v92l214 346h165v-346h60v-92h-60v-94h-111zM292 -13v267l-152 -267h152z" />
    <glyph glyph-name="five.subs" horiz-adv-x="481" 
d="M192 238l-18 -112q39 26 107 26q89 0 129.5 -51t40.5 -129q0 -81 -48 -131.5t-157 -50.5q-110 0 -159.5 47t-49.5 113h120q0 -24 22.5 -45t66.5 -21q87 0 87 88q0 45 -22 70.5t-64 25.5q-28 0 -50 -10t-28.5 -17.5t-9.5 -12.5l-109 1l46 301h325v-96z" />
    <glyph glyph-name="six.subs" horiz-adv-x="507" 
d="M471 -28q0 -81 -49 -131t-163 -51q-118 0 -166.5 60t-48.5 189q0 169 49 237.5t167 68.5q103 0 149 -47.5t46 -112.5h-114q0 27 -19.5 47.5t-60.5 20.5q-44 0 -67.5 -30t-30.5 -109q49 38 126 38q94 0 138 -50t44 -130zM263 69q-64 0 -102 -53q3 -71 27 -102.5t72 -31.5
q90 0 90 94q0 93 -87 93z" />
    <glyph glyph-name="seven.subs" horiz-adv-x="402" 
d="M100 -199q0 66 17.5 134.5t43 120t51 93t42.5 63.5l18 22l-261 -4v102h383v-102q-7 -9 -19 -24.5t-42 -64t-53 -97t-42 -116t-19 -127.5h-119z" />
    <glyph glyph-name="eight.subs" horiz-adv-x="504" 
d="M256 -209q-117 0 -165.5 40.5t-48.5 118.5q0 64 31 100t58 37q-20 2 -46 30.5t-26 78.5q0 149 197 149q107 0 152 -39t45 -110q0 -50 -26 -78.5t-47 -30.5q27 -2 59 -38t32 -99q0 -78 -49 -118.5t-166 -40.5zM256 265q-81 0 -81 -80q0 -66 81 -66t81 66q0 41 -19.5 60.5
t-61.5 19.5zM256 47q-90 0 -90 -83q0 -84 90 -84t90 84q0 83 -90 83z" />
    <glyph glyph-name="nine.subs" horiz-adv-x="506" 
d="M471 88q0 -170 -47.5 -234t-170.5 -64q-58 0 -100.5 14.5t-64 39t-31.5 50.5t-10 55h115q0 -27 22 -47t69 -20q44 0 67 26.5t30 100.5q-49 -38 -120 -38q-103 0 -144.5 50t-41.5 141q0 82 49 132.5t163 50.5q118 0 166.5 -60.5t48.5 -196.5zM252 55q64 0 102 53
q-2 78 -25 111t-73 33q-91 0 -91 -94q0 -103 87 -103z" />
    <glyph glyph-name="zero.dnom" horiz-adv-x="525" 
d="M480 266q0 -152 -51.5 -214t-166.5 -62t-166.5 61.5t-51.5 214.5t51.5 215t166.5 62t166.5 -62.5t51.5 -214.5zM160 266q0 -102 24 -139.5t78 -37.5t78 37.5t24 139.5q0 103 -24 140.5t-78 37.5t-78 -37.5t-24 -140.5z" />
    <glyph glyph-name="one.dnom" horiz-adv-x="275" 
d="M99 0v412l-92 -40v105l136 57h68v-534h-112z" />
    <glyph glyph-name="two.dnom" horiz-adv-x="441" 
d="M26 3v93q66 49 134 104q40 31 55 44t39.5 38t33.5 47t9 47q0 32 -19.5 52t-58.5 20t-61 -25.5t-22 -63.5h-114q0 88 46.5 139.5t148.5 51.5q107 0 152 -46t45 -118q0 -32 -10 -62.5t-19.5 -49t-36.5 -47t-38 -38.5t-46 -41q-9 -8 -32.5 -27t-29.5 -24l209 7v-101h-385z
" />
    <glyph glyph-name="three.dnom" horiz-adv-x="467" 
d="M293 334q74 -15 105.5 -57t31.5 -112q0 -77 -48 -126.5t-158 -49.5q-107 0 -154 49.5t-47 128.5h115q0 -33 21 -55.5t63 -22.5q86 0 86 85q0 95 -107 95l-59 -6v72l133 100l-230 -7v101h375v-90z" />
    <glyph glyph-name="four.dnom" horiz-adv-x="477" 
d="M292 0v94h-268v92l214 346h165v-346h60v-92h-60v-94h-111zM292 186v267l-152 -267h152z" />
    <glyph glyph-name="five.dnom" horiz-adv-x="481" 
d="M192 437l-18 -112q39 26 107 26q89 0 129.5 -51t40.5 -129q0 -81 -48 -131.5t-157 -50.5q-110 0 -159.5 47t-49.5 113h120q0 -24 22.5 -45t66.5 -21q87 0 87 88q0 45 -22 70.5t-64 25.5q-28 0 -50 -10t-28.5 -17.5t-9.5 -12.5l-109 1l46 301h325v-96z" />
    <glyph glyph-name="six.dnom" horiz-adv-x="507" 
d="M471 171q0 -81 -49 -131t-163 -51q-118 0 -166.5 60t-48.5 189q0 169 49 237.5t167 68.5q103 0 149 -47.5t46 -112.5h-114q0 27 -19.5 47.5t-60.5 20.5q-44 0 -67.5 -30t-30.5 -109q49 38 126 38q94 0 138 -50t44 -130zM263 268q-64 0 -102 -53q3 -71 27 -102.5t72 -31.5
q90 0 90 94q0 93 -87 93z" />
    <glyph glyph-name="seven.dnom" horiz-adv-x="402" 
d="M100 0q0 66 17.5 134.5t43 120t51 93t42.5 63.5l18 22l-261 -4v102h383v-102q-7 -9 -19 -24.5t-42 -64t-53 -97t-42 -116t-19 -127.5h-119z" />
    <glyph glyph-name="eight.dnom" horiz-adv-x="504" 
d="M256 -10q-117 0 -165.5 40.5t-48.5 118.5q0 64 31 100t58 37q-20 2 -46 30.5t-26 78.5q0 149 197 149q107 0 152 -39t45 -110q0 -50 -26 -78.5t-47 -30.5q27 -2 59 -38t32 -99q0 -78 -49 -118.5t-166 -40.5zM256 464q-81 0 -81 -80q0 -66 81 -66t81 66q0 41 -19.5 60.5
t-61.5 19.5zM256 246q-90 0 -90 -83q0 -84 90 -84t90 84q0 83 -90 83z" />
    <glyph glyph-name="nine.dnom" horiz-adv-x="506" 
d="M471 287q0 -170 -47.5 -234t-170.5 -64q-58 0 -100.5 14.5t-64 39t-31.5 50.5t-10 55h115q0 -27 22 -47t69 -20q44 0 67 26t30 101q-47 -38 -120 -38q-103 0 -144.5 50t-41.5 141q0 82 49 132.5t163 50.5q118 0 166.5 -60.5t48.5 -196.5zM252 254q64 0 102 53
q-2 78 -25 111t-73 33q-91 0 -91 -94q0 -103 87 -103z" />
    <glyph glyph-name="zero.numr" horiz-adv-x="525" 
d="M480 492q0 -152 -51.5 -214t-166.5 -62t-166.5 61.5t-51.5 214.5t51.5 215t166.5 62t166.5 -62.5t51.5 -214.5zM160 492q0 -102 24 -139.5t78 -37.5t78 37.5t24 139.5q0 103 -24 140.5t-78 37.5t-78 -37.5t-24 -140.5z" />
    <glyph glyph-name="one.numr" horiz-adv-x="275" 
d="M99 226v412l-92 -40v105l136 57h68v-534h-112z" />
    <glyph glyph-name="two.numr" horiz-adv-x="441" 
d="M26 229v93q66 49 134 104q40 31 55 44t39.5 38t33.5 47t9 47q0 32 -19.5 52t-58.5 20t-61 -25.5t-22 -63.5h-114q0 88 46.5 139.5t148.5 51.5q107 0 152 -46t45 -118q0 -32 -10 -62.5t-19.5 -49t-36.5 -47t-38 -38.5t-46 -41q-9 -8 -32.5 -27t-29.5 -24l209 7v-101h-385z
" />
    <glyph glyph-name="three.numr" horiz-adv-x="467" 
d="M293 560q74 -15 105.5 -57t31.5 -112q0 -77 -48 -126.5t-158 -49.5q-107 0 -154 49.5t-47 128.5h115q0 -33 21 -55.5t63 -22.5q86 0 86 85q0 95 -107 95l-59 -6v72l133 100l-230 -7v101h375v-90z" />
    <glyph glyph-name="four.numr" horiz-adv-x="477" 
d="M292 226v94h-268v92l214 346h165v-346h60v-92h-60v-94h-111zM292 412v267l-152 -267h152z" />
    <glyph glyph-name="five.numr" horiz-adv-x="481" 
d="M192 663l-18 -112q39 26 107 26q89 0 129.5 -51t40.5 -129q0 -81 -48 -131.5t-157 -50.5q-110 0 -159.5 47t-49.5 113h120q0 -24 22.5 -45t66.5 -21q87 0 87 88q0 45 -22 70.5t-64 25.5q-28 0 -50 -10t-28.5 -17.5t-9.5 -12.5l-109 1l46 301h325v-96z" />
    <glyph glyph-name="six.numr" horiz-adv-x="507" 
d="M471 397q0 -81 -49 -131t-163 -51q-118 0 -166.5 60t-48.5 189q0 169 49 237.5t167 68.5q103 0 149 -47.5t46 -112.5h-114q0 27 -19.5 47.5t-60.5 20.5q-44 0 -67.5 -30t-30.5 -109q49 38 126 38q94 0 138 -50t44 -130zM263 494q-64 0 -102 -53q3 -71 27 -102.5t72 -31.5
q90 0 90 94q0 93 -87 93z" />
    <glyph glyph-name="seven.numr" horiz-adv-x="402" 
d="M100 226q0 66 17.5 134.5t43 120t51 93t42.5 63.5l18 22l-261 -4v102h383v-102q-7 -9 -19 -24.5t-42 -64t-53 -97t-42 -116t-19 -127.5h-119z" />
    <glyph glyph-name="eight.numr" horiz-adv-x="504" 
d="M256 216q-117 0 -165.5 40.5t-48.5 118.5q0 64 31 100t58 37q-20 2 -46 30.5t-26 78.5q0 149 197 149q107 0 152 -39t45 -110q0 -50 -26 -78.5t-47 -30.5q27 -2 59 -38t32 -99q0 -78 -49 -118.5t-166 -40.5zM256 690q-81 0 -81 -80q0 -66 81 -66t81 66q0 41 -19.5 60.5
t-61.5 19.5zM256 472q-90 0 -90 -83q0 -84 90 -84t90 84q0 83 -90 83z" />
    <glyph glyph-name="nine.numr" horiz-adv-x="506" 
d="M471 513q0 -170 -47.5 -234t-170.5 -64q-58 0 -100.5 14.5t-64 39t-31.5 50.5t-10 55h115q0 -27 22 -47t69 -20q44 0 67 26t30 101q-47 -38 -120 -38q-103 0 -144.5 50t-41.5 141q0 82 49 132.5t163 50.5q118 0 166.5 -60.5t48.5 -196.5zM252 480q64 0 102 53
q-2 78 -25 111t-73 33q-91 0 -91 -94q0 -103 87 -103z" />
    <glyph glyph-name="zero.sc" horiz-adv-x="555" 
d="M520 292q0 -167 -57.5 -234.5t-184.5 -67.5q-128 0 -185.5 67.5t-57.5 234.5q0 168 57.5 235.5t185.5 67.5q127 0 184.5 -67.5t57.5 -235.5zM170 292q0 -109 25.5 -148t82.5 -39q56 0 81.5 39.5t25.5 147.5q0 109 -25.5 149t-81.5 40q-57 0 -82.5 -40t-25.5 -149z" />
    <glyph glyph-name="one.sc" horiz-adv-x="310" 
d="M110 0v447l-102 -30v107l154 63h77v-587h-129z" />
    <glyph glyph-name="two.sc" horiz-adv-x="500" 
d="M23 2v110q75 45 150 103q6 5 24.5 18.5t25 18.5t22 17t21.5 18t18 17t17 18t13 18t11 19.5t5.5 19t2.5 21.5q0 34 -22 55.5t-68 21.5q-44 0 -68.5 -28t-24.5 -69h-129q0 99 52.5 156.5t167.5 57.5q120 0 171.5 -51.5t51.5 -130.5q0 -29 -5.5 -55t-21.5 -51t-26.5 -41
t-38 -41.5t-37.5 -34.5t-43 -36q-32 -25 -55 -42l225 7v-116h-439z" />
    <glyph glyph-name="three.sc" horiz-adv-x="508" 
d="M322 364q81 -17 115.5 -61t34.5 -120q0 -86 -53.5 -140.5t-177.5 -54.5q-122 0 -175 55t-53 142h130q0 -35 23.5 -59t71.5 -24q99 0 99 96t-123 96q-17 0 -34.5 -1.5t-25.5 -2.5l-9 -2v78l155 109l-263 -12v117h425v-97z" />
    <glyph glyph-name="four.sc" horiz-adv-x="525" 
d="M313 0v100h-301v105l240 377h190v-377h66v-105h-66v-100h-129zM313 205v291l-171 -291h171z" />
    <glyph glyph-name="five.sc" horiz-adv-x="523" 
d="M207 475l-20 -120q46 29 122 29q97 0 142 -56.5t45 -140.5q0 -88 -54 -143.5t-178 -55.5q-125 0 -180.5 52t-55.5 124h141q0 -25 24.5 -48t70.5 -23q102 0 102 97q0 48 -24.5 75t-69.5 27q-35 0 -60.5 -11.5t-33.5 -22.5l-9 -12l-126 1l50 332h369v-107z" />
    <glyph glyph-name="six.sc" horiz-adv-x="550" 
d="M518 187q0 -88 -55 -143.5t-184 -55.5q-133 -1 -188 65t-55 208q0 186 55 260.5t189 74.5q117 0 169 -52.5t52 -123.5h-130q0 31 -21.5 53t-67.5 22q-49 0 -74.5 -32.5t-32.5 -119.5q51 39 139 39q105 0 154.5 -54.5t49.5 -140.5zM283 292q-72 0 -111 -57q4 -76 30 -111
t78 -35q103 0 103 103q0 100 -100 100z" />
    <glyph glyph-name="seven.sc" horiz-adv-x="441" 
d="M104 0q0 71 19.5 145t47.5 129.5t56 100.5t47 69l20 24l-291 -3v115h433v-117q-8 -9 -21 -26.5t-46.5 -70t-59 -104.5t-46.5 -125t-21 -137h-138z" />
    <glyph glyph-name="eight.sc" horiz-adv-x="546" 
d="M273 -10q-133 0 -187.5 44.5t-54.5 130.5q0 67 34.5 106t63.5 44q-22 4 -50.5 34.5t-28.5 83.5q0 163 223 163t223 -163q0 -53 -29 -83.5t-52 -34.5q30 -5 65 -44t35 -106q0 -86 -55 -130.5t-187 -44.5zM273 505q-93 0 -93 -84q0 -33 23.5 -52t69.5 -19t69.5 19t23.5 52
q0 84 -93 84zM273 270q-51 0 -76 -24.5t-25 -64.5q0 -88 101 -88q102 0 102 88q0 40 -25.5 64.5t-76.5 24.5z" />
    <glyph glyph-name="nine.sc" horiz-adv-x="551" 
d="M516 316q0 -187 -53.5 -257.5t-193.5 -70.5q-66 0 -114 16t-72.5 42.5t-35.5 55.5t-11 61h131q0 -30 24.5 -52t74.5 -22t75.5 29.5t34.5 110.5q-55 -40 -134 -40q-115 0 -162 54.5t-47 152.5q0 87 57 143t182 57q134 0 189 -66t55 -214zM268 280q71 0 111 60
q-3 81 -28.5 117t-79.5 36q-50 0 -76.5 -28t-26.5 -76q0 -109 100 -109z" />
    <glyph glyph-name="exclamdown.case" horiz-adv-x="272" 
d="M66 581v136h140v-136h-140zM66 0l9 535h123l8 -535h-140z" />
    <glyph glyph-name="questiondown.case" horiz-adv-x="587" 
d="M385 717v-127h-140v127h140zM245 545h140v-29q0 -50 -17 -87t-41 -59t-48 -42.5t-41 -50t-17 -68.5q0 -105 94 -105q99 0 99 127h135q0 -118 -54 -182.5t-178 -64.5q-128 0 -186.5 57.5t-58.5 156.5q0 51 17 88t41.5 59.5t49 44t43.5 53t21 73.5z" />
    <glyph glyph-name="braceleft.case" horiz-adv-x="453" 
d="M157 574q0 64 8 97.5t38.5 55.5t78 28t136.5 6v-102q-79 0 -102.5 -20t-24.5 -82l-1 -113q-1 -25 -10 -45t-22.5 -31t-21.5 -15.5t-13 -6.5q3 -1 9 -3.5t16.5 -10t19.5 -17.5t16 -28t7 -39v-119q0 -58 24 -77t103 -19v-102q-88 0 -136.5 7t-78 30t-38 57.5t-8.5 98.5v119
q0 32 -16.5 44t-70.5 12v95q54 0 70.5 11.5t16.5 43.5v125z" />
    <glyph glyph-name="braceright.case" horiz-adv-x="453" 
d="M291 118q0 -64 -8 -97.5t-38.5 -55.5t-78 -28t-136.5 -6v102q78 0 102 20t25 82l1 114q0 32 16.5 56t28 31t20.5 10q-3 1 -8 3.5t-16 10.5t-19.5 18t-15.5 27.5t-7 38.5v119q0 57 -24.5 76.5t-102.5 19.5v102q88 0 136.5 -7t78 -30t38 -57.5t8.5 -98.5v-118
q0 -32 16.5 -44t70.5 -12v-96q-54 0 -70.5 -11.5t-16.5 -43.5v-125z" />
    <glyph glyph-name="bracketleft.case" horiz-adv-x="412" 
d="M100 -55v815h277v-96h-153v-622h153v-97h-277z" />
    <glyph glyph-name="bracketright.case" horiz-adv-x="407" 
d="M312 -55h-277v97h153v622h-153v96h277v-815z" />
    <glyph glyph-name="parenleft.case" horiz-adv-x="369" 
d="M99 344q0 82 8 155.5t20 119t24 79t20 48.5l8 14h144l-7 -16q-8 -15 -20 -49.5t-23.5 -81t-19.5 -118.5t-8 -151q0 -126 21.5 -227t42.5 -139l21 -39h-146q-3 5 -9 14t-20.5 44t-26 77.5t-20.5 115t-9 154.5z" />
    <glyph glyph-name="parenright.case" horiz-adv-x="369" 
d="M190 760q3 -5 8.5 -15t19.5 -47t24.5 -80.5t19 -117.5t8.5 -156t-9 -154t-21 -116t-24.5 -76.5t-21.5 -45.5l-9 -13h-145l8 15q8 14 21 47t25 77.5t21 115.5t9 150t-8 151t-20 118.5t-24 81t-20 49.5l-8 16h146z" />
    <glyph glyph-name="guillemotleft.case" horiz-adv-x="631" 
d="M184 144l-117 166v24l117 173h152l-139 -186l139 -177h-152zM413 144l-117 166v24l117 173h152l-139 -186l139 -177h-152z" />
    <glyph glyph-name="guillemotright.case" horiz-adv-x="631" 
d="M219 144h-153l138 177l-138 186h153l117 -173v-24zM447 144h-152l138 177l-138 186h152l117 -173v-24z" />
    <glyph glyph-name="guilsinglleft.case" horiz-adv-x="402" 
d="M184 144l-117 166v24l117 173h152l-139 -186l139 -177h-152z" />
    <glyph glyph-name="guilsinglright.case" horiz-adv-x="403" 
d="M219 144h-153l138 177l-138 186h153l117 -173v-24z" />
    <glyph glyph-name="asterisk.sc" horiz-adv-x="444" 
d="M61 513l27 86l94 -38l-4 99h87l-4 -99l94 38l28 -86l-100 -24l74 -79l-76 -58l-59 86l-60 -86l-75 58l74 79z" />
    <glyph glyph-name="backslash.sc" horiz-adv-x="455" 
d="M421 -51h-125l-262 704h125z" />
    <glyph glyph-name="braceleft.sc" horiz-adv-x="437" 
d="M157 495q0 63 8 97t37 56t74.5 28t130.5 6v-102q-79 0 -102.5 -20t-24.5 -82l-1 -91q0 -25 -9 -45t-22.5 -30.5t-21.5 -15t-13 -6.5q7 -2 20 -9t30 -31.5t17 -57.5v-96q0 -58 24 -77t103 -19v-102q-84 0 -130.5 7t-74.5 29.5t-36.5 57t-8.5 98.5v96q0 32 -16.5 44
t-70.5 12v96q54 0 70.5 11.5t16.5 43.5v102z" />
    <glyph glyph-name="braceright.sc" horiz-adv-x="437" 
d="M280 85q0 -63 -8 -97t-37 -56t-74.5 -28t-130.5 -6v102q78 0 102 20t25 81l1 91q0 33 16.5 57t28 31t20.5 10q-3 1 -8 3.5t-16 10t-19.5 17.5t-15.5 28t-7 39v96q0 57 -24.5 76.5t-102.5 19.5v102q84 0 130.5 -7t74.5 -30t36.5 -57.5t8.5 -98.5v-96q0 -32 16.5 -44
t70.5 -12v-95q-54 0 -70.5 -11.5t-16.5 -43.5v-102z" />
    <glyph glyph-name="bracketleft.sc" horiz-adv-x="407" 
d="M100 -93v769h266v-96h-153v-576h153v-97h-266z" />
    <glyph glyph-name="bracketright.sc" horiz-adv-x="407" 
d="M301 -93h-266v97h153v576h-153v96h266v-769z" />
    <glyph glyph-name="uni2016.sc" horiz-adv-x="432" 
d="M66 -68v736h99v-736h-99zM268 -68v736h98v-736h-98z" />
    <glyph glyph-name="exclam.sc" horiz-adv-x="272" 
d="M75 183l-9 412h140l-8 -412h-123zM66 0v136h140v-136h-140z" />
    <glyph glyph-name="exclamdown.sc" horiz-adv-x="272" 
d="M66 460v135h140v-135h-140zM66 0l9 413h123l8 -413h-140z" />
    <glyph glyph-name="numbersign.sc" horiz-adv-x="664" 
d="M109 0l29 142h-77v95h96l24 119h-80v95h100l26 128h93l-27 -128h119l27 128h93l-27 -128h81v-95h-100l-25 -119h85v-95h-104l-29 -142h-93l29 142h-119l-29 -142h-92zM249 237h119l25 119h-119z" />
    <glyph glyph-name="parenleft.sc" horiz-adv-x="336" 
d="M99 274q0 77 8 146.5t20 113.5t24 77t20 47l8 14h128q-3 -5 -8.5 -16t-19 -48t-23.5 -79.5t-18.5 -111.5t-8.5 -143t8.5 -141t21 -110t25 -75t20.5 -46l9 -15h-130q-3 5 -9 14t-20.5 43t-25.5 74.5t-20 109.5t-9 146z" />
    <glyph glyph-name="parenright.sc" horiz-adv-x="336" 
d="M174 672q3 -5 8.5 -15t19 -46t24 -78t19 -112t8.5 -147t-9 -145t-21.5 -110.5t-25 -74t-21.5 -44.5l-9 -13h-128l9 15t20.5 45.5t26 76.5t20.5 108.5t9 141.5t-8 142.5t-20 113t-24 78t-20 48.5l-8 16h130z" />
    <glyph glyph-name="question.sc" horiz-adv-x="517" 
d="M312 158h-131v26q0 36 15 65.5t36.5 49.5t43 39t36.5 43t16 52q1 30 -20.5 52.5t-61.5 22.5q-42 0 -64.5 -26t-22.5 -70h-124q0 94 49.5 150.5t159.5 56.5q113 0 167.5 -50t54.5 -126q0 -39 -15 -70t-37 -52t-44 -40t-38.5 -43.5t-18.5 -53.5zM181 0v116h131v-116h-131z
" />
    <glyph glyph-name="questiondown.sc" horiz-adv-x="529" 
d="M348 596v-116h-131v116h131zM217 438h131v-26q0 -36 -15.5 -66t-37 -50t-43.5 -38.5t-37 -42.5t-15 -52q0 -31 21.5 -53t61.5 -22q42 0 64.5 26t22.5 70h124q0 -94 -49.5 -150.5t-159.5 -56.5q-113 0 -167.5 49.5t-54.5 126.5q0 39 15 70t37 52t44 40t38.5 43.5
t18.5 53.5z" />
    <glyph glyph-name="quotedbl.sc" horiz-adv-x="402" 
d="M54 418l-20 243h148l-21 -243h-107zM241 418l-21 243h149l-21 -243h-107z" />
    <glyph glyph-name="quotedblleft.sc" horiz-adv-x="426" 
d="M50 399q2 45 26 133q12 43 27 76t24 45l9 12h96q-23 -57 -40 -144q-8 -40 -11.5 -70.5t-3.5 -40.5v-11h-127zM227 399q2 45 26 133q12 43 27 76t24 45l9 12h97q-24 -57 -41 -144q-8 -40 -11.5 -70.5t-3.5 -40.5v-11h-127z" />
    <glyph glyph-name="quotedblright.sc" horiz-adv-x="426" 
d="M30 399q24 57 40 144q8 40 12 70.5t4 40.5v11h126q-2 -45 -26 -133q-12 -43 -27 -76t-24 -45l-9 -12h-96zM207 399q24 57 41 144q8 40 11.5 70.5t3.5 40.5v11h127q-2 -45 -27 -133q-12 -43 -26.5 -76t-23.5 -45l-9 -12h-97z" />
    <glyph glyph-name="quoteleft.sc" horiz-adv-x="249" 
d="M50 399q2 45 26 133q12 43 27 76t24 45l9 12h96q-23 -57 -40 -144q-8 -40 -11.5 -70.5t-3.5 -40.5v-11h-127z" />
    <glyph glyph-name="quoteright.sc" horiz-adv-x="248" 
d="M30 399q24 57 40 144q8 40 12 70.5t4 40.5v11h126q-2 -45 -26 -133q-12 -43 -27 -76t-24 -45l-9 -12h-96z" />
    <glyph glyph-name="quotesingle.sc" horiz-adv-x="215" 
d="M54 418l-20 243h148l-21 -243h-107z" />
    <glyph glyph-name="slash.sc" horiz-adv-x="450" 
d="M34 -59l257 704h124l-256 -704h-125z" />
    <glyph glyph-name="paragraph.alt" horiz-adv-x="676" 
d="M324 0v274q-167 4 -230 53.5t-63 189.5t65.5 189.5t242.5 53.5h271v-760h-99v665h-89v-665h-98z" />
    <glyph glyph-name="registered.alt" horiz-adv-x="505" 
d="M467 530q0 -100 -51 -160t-163 -60t-163.5 60t-51.5 160q0 101 51.5 162.5t163.5 61.5t163 -61.5t51 -162.5zM91 530q0 -174 162 -174q161 0 161 174q0 179 -161 179q-162 0 -162 -179zM162 415v235h95q52 0 74 -17.5t22 -63.5q0 -59 -39 -72l37 -82h-56l-31 75h-48v-75
h-54zM216 606v-73h36q24 0 35 6.5t11 29.5t-11 30t-35 7h-36z" />
    <glyph glyph-name="at.case" horiz-adv-x="879" 
d="M687 161q31 0 45.5 39t14.5 153q0 166 -73.5 252.5t-238.5 86.5q-157 0 -230 -89.5t-73 -249.5q0 -339 304 -339q125 0 190 32v-85q-76 -28 -191 -28q-205 0 -299 112t-94 308q0 91 22 165t67.5 132.5t123 91t180.5 32.5q107 0 186 -31t125.5 -88.5t68.5 -132.5t22 -169
q0 -141 -38 -203t-129 -62q-98 0 -129 85q-47 -52 -138 -52q-175 0 -175 228q0 230 175 230q75 0 128 -51l7 45h90v-304q0 -108 59 -108zM424 209q76 0 103 52v175q-38 54 -103 54q-46 0 -69 -37t-23 -104q0 -140 92 -140z" />
    <glyph glyph-name="section.sups" horiz-adv-x="351" 
d="M291 557q0 -29 -24 -55q23 -19 23 -54q0 -81 -117 -81q-62 0 -88 22.5t-25 67.5h67q0 -42 45 -42q46 0 46 28q0 19 -24.5 29t-53.5 13.5t-53.5 22.5t-24.5 54q0 31 24 55q-23 20 -23 54q0 77 111 77q60 0 85.5 -21t25.5 -63h-67q0 37 -43 37q-40 0 -40 -29
q0 -18 24.5 -26t53.5 -11t53.5 -22t24.5 -56zM134 562q0 -5 2 -9.5t6.5 -7.5t9 -5.5t12.5 -4.5t13.5 -3t15.5 -3t16 -3q10 12 10 27q0 5 -1 8.5t-4 7t-6 5.5t-8 4.5t-9 4t-11 3t-11 2.5t-12.5 2.5t-12.5 2.5q-10 -13 -10 -31z" />
    <glyph glyph-name="dagger.sups" horiz-adv-x="332" 
d="M60 667h66v78h80v-78h66v-67h-66v-226h-80v226h-66v67z" />
    <glyph glyph-name="daggerdbl.sups" horiz-adv-x="332" 
d="M60 667h66v78h80v-78h66v-67h-66v-81h66v-68h-66v-77h-80v77h-66v68h66v81h-66v67z" />
    <glyph glyph-name="ampersand.sc" horiz-adv-x="627" 
d="M315 609q193 0 193 -177h-119q0 42 -17 63t-57 21q-77 0 -77 -70q0 -19 6 -36t23 -38.5t29 -34.5t43 -43t45 -44l58 -58q18 55 18 137h111q0 -128 -49 -214l86 -82v-38h-117q-19 17 -42 40q-73 -52 -187 -52q-213 0 -213 189q0 118 108 170q-38 55 -38 114q0 153 196 153
zM272 214l-17.5 17.5l-20.5 20.5l-17 17q-52 -36 -52 -96q0 -100 123 -100q58 0 95 28z" />
    <glyph glyph-name="degree.sc" horiz-adv-x="371" 
d="M311 515q0 -128 -125 -128q-126 0 -126 128q0 129 126 129q125 0 125 -129zM138 515q0 -61 48 -61q47 0 47 61q0 63 -47 63q-48 0 -48 -63z" />
    <glyph glyph-name="bar.sc" horiz-adv-x="231" 
d="M66 -68v736h99v-736h-99z" />
    <glyph glyph-name="brokenbar.sc" horiz-adv-x="231" 
d="M66 384v284h99v-284h-99zM165 256v-324h-99v324h99z" />
    <glyph glyph-name="cent.sc" horiz-adv-x="507" 
d="M213 -17v68q-96 12 -137.5 71t-41.5 167q0 107 41.5 166.5t137.5 71.5v66h91v-65q91 -9 131 -57t43 -133h-130q-3 91 -87 91q-50 0 -71 -32.5t-21 -107.5q0 -76 20.5 -107.5t71.5 -31.5q84 0 87 79h130q-5 -80 -45 -124.5t-129 -53.5v-68h-91z" />
    <glyph glyph-name="dollar.sc" horiz-adv-x="493" 
d="M199 -32v66q-167 20 -167 176h111q0 -90 109 -92q94 -2 94 65q0 31 -32 48.5t-77.5 28t-91 24.5t-77.5 49t-31 91q2 140 162 157v56h92v-57q85 -9 123 -51t38 -116h-113q0 38 -20 60t-75 23q-92 1 -92 -65q0 -26 23 -43t57.5 -24t74.5 -19t74.5 -26.5t57.5 -47t23 -79.5
q0 -144 -171 -159v-65h-92z" />
    <glyph glyph-name="Euro.sc" horiz-adv-x="547" 
d="M212 190q10 -54 35 -78.5t72 -24.5q37 0 60.5 17.5t24.5 50.5h112q-8 -170 -203 -170q-114 0 -168 49.5t-68 155.5h-63v71h58v57h-58v72h63q13 109 67 160t169 51q200 0 205 -180h-112q-2 36 -25 57.5t-62 21.5q-47 0 -72.5 -26.5t-35.5 -83.5h186v-72h-192v-57h192v-71
h-185z" />
    <glyph glyph-name="percent.sc" horiz-adv-x="757" 
d="M330 448q0 -76 -35 -114.5t-118 -38.5q-82 0 -117.5 38.5t-35.5 114.5q0 77 35.5 116.5t117.5 39.5q83 0 118 -39.5t35 -116.5zM118 0l392 587h123l-393 -587h-122zM112 448q0 -42 15.5 -61t49.5 -19q35 0 50 19t15 61q0 43 -15 63.5t-50 20.5q-65 0 -65 -84zM724 135
q0 -76 -35 -114.5t-117 -38.5q-83 0 -118.5 38.5t-35.5 114.5q0 78 35.5 117t118.5 39q82 0 117 -39t35 -117zM507 135q0 -41 15 -60.5t50 -19.5t49.5 19.5t14.5 60.5q0 84 -64 84q-65 0 -65 -84z" />
    <glyph glyph-name="perthousand.sc" horiz-adv-x="1084" 
d="M330 448q0 -76 -35 -114.5t-118 -38.5q-82 0 -117.5 38.5t-35.5 114.5q0 77 35.5 116.5t117.5 39.5q83 0 118 -39.5t35 -116.5zM118 0l392 587h123l-393 -587h-122zM112 448q0 -42 15.5 -61t49.5 -19q35 0 50 19t15 61q0 43 -15 63.5t-50 20.5q-65 0 -65 -84zM724 135
q0 -76 -35 -114.5t-117 -38.5q-83 0 -118.5 38.5t-35.5 114.5q0 78 35.5 117t118.5 39q82 0 117 -39t35 -117zM1058 135q0 -76 -35 -114.5t-118 -38.5q-82 0 -117.5 38.5t-35.5 114.5q0 77 35.5 116.5t117.5 39.5q83 0 118 -39t35 -117zM507 135q0 -41 15 -60.5t50 -19.5
t49.5 19.5t14.5 60.5q0 84 -64 84q-65 0 -65 -84zM840 135q0 -80 65 -80q35 0 49.5 19t14.5 61t-14.5 63t-49.5 21q-65 0 -65 -84z" />
    <glyph glyph-name="uni20BD.sc" horiz-adv-x="586" 
d="M85 0v110h-71v84h71v54h-71v95l71 -1v256h196q158 0 219 -36.5t61 -139.5t-60.5 -138.5t-219.5 -35.5h-62v-54h144v-84h-144v-110h-134zM219 504v-162h78q64 0 94.5 16t30.5 65t-30.5 65t-94.5 16h-78z" />
    <glyph glyph-name="sterling.sc" horiz-adv-x="496" 
d="M241 203v-6q0 -67 -44 -101l265 6v-105h-438v96q4 1 10.5 3.5t20 9.5t24 16t19 25t8.5 34q0 3 -0.5 11t-0.5 11h-91v78h72q-5 12 -15.5 33.5t-16.5 34.5t-11 35t-5 45q0 72 53 117.5t163 45.5q118 0 167 -50t49 -147h-128q0 42 -21.5 65.5t-61.5 23.5t-61.5 -21
t-21.5 -59q0 -20 7.5 -38.5t21 -43t20.5 -41.5h129v-78h-113z" />
    <glyph glyph-name="yen.sc" horiz-adv-x="535" 
d="M203 0v123h-96v74h96v38h-96v74h70l-172 284h149l112 -236l106 236h158l-174 -284h69v-74h-94v-38h94v-74h-94v-123h-128z" />
    <glyph glyph-name="caroncomb.alt" 
d="M-263 581l55 179h110l-85 -179h-80z" />
    <glyph glyph-name="uni0308.case" 
d="M-393 771v142h140v-142h-140zM-181 771v142h141v-142h-141z" />
    <glyph glyph-name="uni0307.case" 
d="M-192 771v142h140v-142h-140z" />
    <glyph glyph-name="gravecomb.case" 
d="M-45 773h-146l-104 134h165z" />
    <glyph glyph-name="acutecomb.case" 
d="M-285 771l86 135h165l-105 -135h-146z" />
    <glyph glyph-name="uni030B.case" 
d="M-478 773l82 134h143l-101 -134h-124zM-290 773l103 134h143l-121 -134h-125z" />
    <glyph glyph-name="caroncomb.alt.case" 
d="M-280 771l61 186h116l-80 -186h-97z" />
    <glyph glyph-name="uni0302.case" 
d="M-76 771h-121l-67 67l-67 -67h-117l114 139h139z" />
    <glyph glyph-name="uni030C.case" 
d="M-39 910l-119 -139h-139l-114 139h117l66 -67l67 67h122z" />
    <glyph glyph-name="uni0306.case" 
d="M-49 900q0 -54 -42.5 -95.5t-132.5 -41.5q-89 0 -131.5 42t-42.5 95h108q0 -19 19.5 -34t46.5 -15t47.5 15t20.5 34h107z" />
    <glyph glyph-name="uni030A.case" 
d="M-51 872q0 -53 -33 -83t-89 -30t-89.5 30t-33.5 83q0 54 33.5 84t89.5 30t89 -30t33 -84zM-209 872q0 -16 10 -26t26 -10t25.5 10t9.5 26q0 17 -9.5 27t-25.5 10t-26 -10t-10 -27z" />
    <glyph glyph-name="tildecomb.case" 
d="M-69 914q0 -67 -23 -106t-84 -39q-42 0 -76 23t-56 23q-24 0 -34.5 -15t-10.5 -31h-75q0 68 23 107t84 39q33 0 55.5 -11.5t39.5 -23t37 -11.5q24 0 34.5 15t10.5 30h75z" />
    <glyph glyph-name="uni0304.case" 
d="M-354 885h294v-101h-294v101z" />
    <glyph glyph-name="uni0338.case" 
d="M-529 12l504 740h103l-503 -740h-104z" />
    <glyph glyph-name="uni0335.sc" horiz-adv-x="369" 
d="M41 307v80h288v-80h-288z" />
    <glyph glyph-name="uni0336.sc" horiz-adv-x="846" 
d="M108 308v78h626v-78h-626z" />
    <glyph glyph-name="uni0338.sc" horiz-adv-x="443" 
d="M-58 77l465 623h96l-466 -623h-95z" />
    <glyph glyph-name="bitcoin" horiz-adv-x="604" 
d="M187 -47v91h-117v648h117v86h79v-86h50v86h80v-92q83 -12 117 -50.5t34 -110.5q0 -112 -91 -146q59 -18 83 -57t24 -97q0 -88 -33.5 -128t-133.5 -50v-94h-80v91h-50v-91h-79zM198 592v-165h109q66 0 90.5 18.5t24.5 63.5t-27 64t-88 19h-109zM198 330v-187h109
q75 0 102.5 19t27.5 73q0 51 -30 73t-100 22h-109z" />
    <glyph glyph-name="bitcoin.sc" horiz-adv-x="514" 
d="M156 -39v75h-100v543h100v71h73v-71h41v71h74v-76q70 -10 99 -43t29 -93q0 -92 -76 -122q90 -28 90 -127q0 -74 -28.5 -107.5t-113.5 -42.5v-78h-74v75h-41v-75h-73zM177 489v-131h84q53 0 73 14t20 51q0 36 -21.5 51t-71.5 15h-84zM177 273v-147h84q61 -1 83.5 14
t22.5 58q0 41 -24 58t-82 17h-84z" />
    </font>
</defs>
</svg>
