<?xml version="1.0" encoding="UTF-8"?>
<svg width="55px" height="56px" viewBox="0 0 55 56" version="1.1" xmlns="http://www.w3.org/2000/svg" xmlns:xlink="http://www.w3.org/1999/xlink">
    <!-- Generator: Sketch 49.3 (51167) - http://www.bohemiancoding.com/sketch -->
    <title>unselected_Calendar view</title>
    <desc>Created with Sketch.</desc>
    <defs></defs>
    <g id="Page-1" stroke="none" stroke-width="1" fill="none" fill-rule="evenodd">
        <g id="Upcoming-Events-Search-2" transform="translate(-1322.000000, -983.000000)" fill="#000000" fill-rule="nonzero">
            <g id="View-as" transform="translate(1093.000000, 983.000000)">
                <g id="unselected_Calendar-view" transform="translate(229.000000, 0.000000)">
                    <path d="M12.8148974,25.7297297 L14.6845324,25.7297297 C15.6869169,25.7297297 16.5,24.8347389 16.5,23.7313772 L16.5,21.6734005 C16.5,20.5700388 15.6869169,19.6756757 14.6845324,19.6756757 L12.8148974,19.6756757 C11.812513,19.6756757 11,20.5700388 11,21.6734005 L11,23.7313772 C11.0005702,24.8347389 11.812513,25.7297297 12.8148974,25.7297297 Z" id="Shape"></path>
                    <path d="M26.5647092,25.7297297 L28.4352908,25.7297297 C29.4375713,25.7297297 30.25,24.8347389 30.25,23.7313772 L30.25,21.6734005 C30.25,20.5700388 29.4375713,19.6756757 28.4352908,19.6756757 L26.5647092,19.6756757 C25.5624287,19.6756757 24.75,20.5700388 24.75,21.6734005 L24.75,23.7313772 C24.7505701,24.8347389 25.5629989,25.7297297 26.5647092,25.7297297 Z" id="Shape"></path>
                    <path d="M40.3154676,25.7297297 L42.1851026,25.7297297 C43.187487,25.7297297 44,24.8347389 44,23.7313772 L44,21.6734005 C44,20.5700388 43.187487,19.6756757 42.1851026,19.6756757 L40.3154676,19.6756757 C39.3130831,19.6756757 38.5,20.5700388 38.5,21.6734005 L38.5,23.7313772 C38.5005702,24.8347389 39.3136533,25.7297297 40.3154676,25.7297297 Z" id="Shape"></path>
                    <path d="M12.8148974,37.8378378 L14.6845324,37.8378378 C15.6869169,37.8378378 16.5,36.9429398 16.5,35.8396925 L16.5,33.7813016 C16.5,32.6780542 15.6869169,31.7837838 14.6845324,31.7837838 L12.8148974,31.7837838 C11.812513,31.7837838 11,32.6780542 11,33.7813016 L11,35.8396925 C11.0005702,36.9429398 11.812513,37.8378378 12.8148974,37.8378378 Z" id="Shape"></path>
                    <path d="M26.5647092,37.8378378 L28.4352908,37.8378378 C29.4375713,37.8378378 30.25,36.9429398 30.25,35.8396925 L30.25,33.7813016 C30.25,32.6780542 29.4375713,31.7837838 28.4352908,31.7837838 L26.5647092,31.7837838 C25.5624287,31.7837838 24.75,32.6780542 24.75,33.7813016 L24.75,35.8396925 C24.7505701,36.9429398 25.5629989,37.8378378 26.5647092,37.8378378 Z" id="Shape"></path>
                    <path d="M40.3154676,37.8378378 L42.1851026,37.8378378 C43.187487,37.8378378 44,36.9429398 44,35.8396925 L44,33.7813016 C44,32.6780542 43.187487,31.7837838 42.1851026,31.7837838 L40.3154676,31.7837838 C39.3130831,31.7837838 38.5,32.6780542 38.5,33.7813016 L38.5,35.8396925 C38.5005702,36.9429398 39.3136533,37.8378378 40.3154676,37.8378378 Z" id="Shape"></path>
                    <path d="M12.8148974,48.4324324 L14.6845324,48.4324324 C15.6869169,48.4324324 16.5,47.5375344 16.5,46.4342871 L16.5,44.3752686 C16.5,43.2720213 15.6869169,42.3783784 14.6845324,42.3783784 L12.8148974,42.3783784 C11.812513,42.3783784 11,43.2720213 11,44.3752686 L11,46.4342871 C11.0005702,47.5375344 11.812513,48.4324324 12.8148974,48.4324324 Z" id="Shape"></path>
                    <path d="M26.5647092,48.4324324 L28.4352908,48.4324324 C29.4375713,48.4324324 30.25,47.5375344 30.25,46.4342871 L30.25,44.3752686 C30.25,43.2720213 29.4375713,42.3783784 28.4352908,42.3783784 L26.5647092,42.3783784 C25.5624287,42.3783784 24.75,43.2720213 24.75,44.3752686 L24.75,46.4342871 C24.7505701,47.5375344 25.5629989,48.4324324 26.5647092,48.4324324 Z" id="Shape"></path>
                    <path d="M48.1323333,0 L6.86766667,0 C3.08122222,0 0,3.35228595 0,7.47331671 L0,48.5266833 C0,52.647714 3.08122222,56 6.86766667,56 L48.1317222,56 C51.9187778,56 55,52.647714 55,48.5266833 L55,7.47331671 C55,3.35228595 51.9187778,0 48.1323333,0 Z M53.0542222,48.5266833 C53.0542222,51.4799667 50.8468889,53.8832918 48.1317222,53.8832918 L6.86766667,53.8832918 C4.15372222,53.8832918 1.94516667,51.4806318 1.94516667,48.5266833 L1.94516667,13.3413134 L53.0542222,13.3413134 L53.0542222,48.5266833 Z M53.0542222,11.2246052 L1.94577778,11.2246052 L1.94577778,7.4726517 C1.94577778,4.51870324 4.15372222,2.11537822 6.86827778,2.11537822 L48.1323333,2.11537822 C50.8468889,2.11537822 53.0548333,4.51803824 53.0548333,7.4726517 L53.0548333,11.2246052 L53.0542222,11.2246052 Z" id="Shape"></path>
                </g>
            </g>
        </g>
    </g>
</svg>