<?xml version="1.0" encoding="UTF-8"?>
<svg width="49px" height="43px" viewBox="0 0 49 43" version="1.1" xmlns="http://www.w3.org/2000/svg" xmlns:xlink="http://www.w3.org/1999/xlink">
    <!-- Generator: Sketch 49.3 (51167) - http://www.bohemiancoding.com/sketch -->
    <title>unselected_List view</title>
    <desc>Created with Sketch.</desc>
    <defs></defs>
    <g id="Page-1" stroke="none" stroke-width="1" fill="none" fill-rule="evenodd">
        <g id="Calendar---Monthly,-Date-Selected" transform="translate(-1250.000000, -934.000000)" fill="#000000" fill-rule="nonzero">
            <g id="View-as" transform="translate(1093.000000, 927.000000)">
                <g id="unselected_List-view" transform="translate(155.000000, 0.000000)">
                    <g id="36" transform="translate(2.750000, 7.248933)">
                        <path d="M47.2387695,1.56920078 L11.4135742,1.56920078 C10.9237305,1.56920078 10.5273438,1.91986815 10.5273438,2.35380117 C10.5273438,2.78725839 10.9237305,3.13840156 11.4135742,3.13840156 L47.2387695,3.13840156 C47.7286133,3.13840156 48.125,2.78725839 48.125,2.35380117 C48.125,1.91986815 47.7286133,1.56920078 47.2387695,1.56920078 Z" id="Shape"></path>
                        <path d="M47.2387695,37.6608187 L11.4135742,37.6608187 C10.9237305,37.6608187 10.5273438,38.0118554 10.5273438,38.4456569 C10.5273438,38.8794584 10.9237305,39.2300195 11.4135742,39.2300195 L47.2387695,39.2300195 C47.7286133,39.2300195 48.125,38.8794584 48.125,38.4456569 C48.125,38.0118554 47.7286133,37.6608187 47.2387695,37.6608187 Z" id="Shape"></path>
                        <path d="M47.2387695,20.3996101 L11.4135742,20.3996101 C10.9237305,20.3996101 10.5273438,20.751016 10.5273438,21.1842105 C10.5273438,21.617405 10.9237305,21.9688109 11.4135742,21.9688109 L47.2387695,21.9688109 C47.7286133,21.9688109 48.125,21.617405 48.125,21.1842105 C48.125,20.751016 47.7286133,20.3996101 47.2387695,20.3996101 Z" id="Shape"></path>
                        <ellipse id="Oval" cx="2.25585938" cy="2.35380117" rx="2.25585938" ry="2.35380117"></ellipse>
                        <ellipse id="Oval" cx="2.25585938" cy="21.1842105" rx="2.25585938" ry="2.35380117"></ellipse>
                        <ellipse id="Oval" cx="2.25585938" cy="40.0146199" rx="2.25585938" ry="2.35380117"></ellipse>
                    </g>
                </g>
            </g>
        </g>
    </g>
</svg>