<?xml version="1.0" encoding="utf-8"?>
<!-- Generator: Adobe Illustrator 16.0.4, SVG Export Plug-In . SVG Version: 6.00 Build 0)  -->
<!DOCTYPE svg PUBLIC "-//W3C//DTD SVG 1.1//EN" "http://www.w3.org/Graphics/SVG/1.1/DTD/svg11.dtd">
<svg version="1.1" id="Layer_1" xmlns="http://www.w3.org/2000/svg" xmlns:xlink="http://www.w3.org/1999/xlink" x="0px" y="0px"
	 width="392px" height="70px" viewBox="0 0 392 70" enable-background="new 0 0 392 70" xml:space="preserve">
<g>
	<g>
		<g>
			<path fill="#FFFFFF" d="M63.798,0.926h3.969v34.297h-3.969V0.926z"/>
			<path fill="#FFFFFF" d="M84.181,7.344h-0.098c0,0.049,0.098,3.969,0.098,8.231v19.647h-3.969V0.926h4.018l20.088,27.634h0.098
				c0-0.05-0.098-4.067-0.098-8.036V0.926h4.018v34.297h-4.067L84.181,7.344z"/>
			<path fill="#FFFFFF" d="M143.616,19.202h-18.913v16.021h-3.969V0.926h3.969v14.453h18.913V0.926h4.018v34.297h-4.018V19.202z"/>
			<path fill="#FFFFFF" d="M165.472,26.11l-3.822,9.113h-4.263l14.601-34.297h4.361l14.601,34.297h-4.263l-3.821-9.113H165.472z
				 M177.574,13.518c-1.323-3.136-3.332-7.986-3.381-8.035h-0.098c-0.049,0.049-2.058,4.899-3.332,7.986l-3.773,9.015h14.356
				L177.574,13.518z"/>
			<path fill="#FFFFFF" d="M217.998,16.899c3.234,0.539,7.791,2.939,7.791,8.77c0,5.782-4.164,9.555-11.71,9.555h-13.278V0.926
				h12.348c6.271,0,10.24,3.625,10.24,8.427c0,4.508-2.891,6.811-5.391,7.398V16.899z M212.756,15.625
				c3.822,0,6.615-1.96,6.615-5.684c0-3.381-2.598-5.585-7.007-5.585h-7.595v11.269H212.756z M213.883,31.793
				c4.605,0,7.742-2.106,7.742-6.32c0-4.312-3.627-6.713-7.84-6.713h-9.016v13.033H213.883z"/>
			<path fill="#FFFFFF" d="M236.227,0.926h3.969v34.297h-3.969V0.926z"/>
			<path fill="#FFFFFF" d="M266.458,4.65v30.573h-4.018V4.65h-11.759V0.926h27.584V4.65H266.458z"/>
			<path fill="#FFFFFF" d="M288.754,0.926h23.077V4.65h-19.108v10.779h14.895v3.724h-14.895V31.5h19.207v3.724h-23.176V0.926z"/>
			<path fill="#FFFFFF" d="M327.022,7.344h-0.098c0,0.049,0.098,3.969,0.098,8.231v19.647h-3.969V0.926h4.019L347.16,28.56h0.098
				c0-0.05-0.098-4.067-0.098-8.036V0.926h4.018v34.297h-4.066L327.022,7.344z"/>
			<path fill="#FFFFFF" d="M377.393,4.65v30.573h-4.018V4.65h-11.758V0.926h27.584V4.65H377.393z"/>
			<path fill="#FFFFFF" d="M78.186,63.309c-1.512,3.695-5.012,5.879-9.156,5.879c-5.712,0-10.08-4.031-10.08-10.221
				c0-6.158,4.34-10.135,10.08-10.135c4.536,0,7.672,2.463,8.904,5.348l-2.212,0.615c-0.728-1.344-2.66-3.807-6.748-3.807
				c-4.536,0-7.728,3.08-7.728,8.008c0,4.955,3.36,8.008,7.672,8.008c3.192,0,5.824-1.652,7.056-4.283L78.186,63.309z"/>
			<path fill="#FFFFFF" d="M87.286,63.615l-2.184,5.209h-2.436l8.344-19.6h2.492l8.344,19.6H99.41l-2.184-5.209H87.286z
				 M94.202,56.42c-0.756-1.793-1.904-4.564-1.932-4.592h-0.056c-0.028,0.027-1.176,2.799-1.904,4.564l-2.156,5.15h8.204
				L94.202,56.42z"/>
			<path fill="#FFFFFF" d="M123.35,60.004c0-3.023,0.084-7.057,0.084-7.084h-0.056c-0.028,0.027-0.784,1.596-2.548,4.732
				l-3.584,6.355h-1.372l-3.556-6.271c-1.82-3.221-2.548-4.789-2.576-4.816h-0.056c0,0.027,0.056,4.061,0.056,7.084v8.82h-2.268
				v-19.6h2.408l6.664,11.928h0.056l6.692-11.928h2.352v19.6h-2.296V60.004z"/>
			<path fill="#FFFFFF" d="M138.665,49.225c4.564,0,7.308,2.1,7.308,6.104c0,3.893-2.744,6.076-7.308,6.076h-3.668v7.42h-2.268
				v-19.6H138.665z M138.721,59.389c3.276,0,4.956-1.43,4.956-4.033c0-2.771-1.848-4.031-4.956-4.031h-3.724v8.064H138.721z"/>
			<path fill="#FFFFFF" d="M151.657,49.225h2.268v19.6h-2.268V49.225z"/>
			<path fill="#FFFFFF" d="M163.304,52.893h-0.056c0,0.027,0.056,2.268,0.056,4.703v11.229h-2.268v-19.6h2.296l11.48,15.791h0.056
				c0-0.027-0.056-2.324-0.056-4.592V49.225h2.296v19.6h-2.324L163.304,52.893z"/>
			<path fill="#FFFFFF" d="M200.432,68.824c0-2.24,0.028-2.576,0.028-2.828h-0.056c-0.952,1.092-3.389,3.191-7.252,3.191
				c-5.572,0-10.052-4.031-10.052-10.191c0-6.188,4.368-10.164,10.136-10.164c4.481,0,7.672,2.436,8.905,5.348l-2.24,0.615
				c-0.645-1.203-2.492-3.807-6.72-3.807c-4.536,0-7.784,3.08-7.784,7.979c0,4.984,3.416,8.037,7.896,8.037
				c3.696,0,6.272-2.045,7.056-3.5v-2.801h-5.824v-2.127h7.953v10.248H200.432z"/>
			<path fill="#FFFFFF" d="M219.92,63.084c0.225,2.799,2.548,4.061,5.544,4.061c2.856,0,4.592-1.148,4.592-3.5
				c0-3.221-3.248-3.389-5.685-3.92c-2.659-0.617-6.075-1.568-6.075-5.545c0-3.416,2.521-5.348,6.636-5.348
				c3.641,0,6.328,1.512,7.168,4.871l-2.184,0.588c-0.532-2.154-2.129-3.416-5.012-3.416c-2.856,0-4.285,1.232-4.285,3.221
				c0,2.604,2.465,3.164,5.265,3.725c2.912,0.559,6.496,1.484,6.496,5.795c0,3.697-2.576,5.572-6.944,5.572
				c-3.304,0-7.084-1.092-7.699-5.516L219.92,63.084z"/>
			<path fill="#FFFFFF" d="M253.744,60.648c0,5.543-2.772,8.539-7.84,8.539c-5.097,0-7.841-2.996-7.841-8.539V49.225h2.324v11.424
				c0,4.256,1.735,6.355,5.517,6.355c3.807,0,5.571-2.1,5.571-6.355V49.225h2.269V60.648z"/>
			<path fill="#FFFFFF" d="M266.539,49.225c4.564,0,7.309,2.1,7.309,6.104c0,3.893-2.744,6.076-7.309,6.076h-3.668v7.42h-2.268
				v-19.6H266.539z M266.596,59.389c3.275,0,4.955-1.43,4.955-4.033c0-2.771-1.848-4.031-4.955-4.031h-3.725v8.064H266.596z"/>
			<path fill="#FFFFFF" d="M285.467,49.225c4.564,0,7.309,2.1,7.309,6.104c0,3.893-2.744,6.076-7.309,6.076h-3.668v7.42h-2.268
				v-19.6H285.467z M285.523,59.389c3.275,0,4.955-1.43,4.955-4.033c0-2.771-1.848-4.031-4.955-4.031h-3.725v8.064H285.523z"/>
			<path fill="#FFFFFF" d="M298.459,49.225h2.268v17.471h10.332v2.129h-12.6V49.225z"/>
			<path fill="#FFFFFF" d="M321.588,68.824h-2.297v-8.512l-7.56-11.088h2.632l4.396,6.439c1.008,1.455,1.707,2.52,1.735,2.547h0.056
				c0.028-0.027,0.672-1.062,1.681-2.49l4.452-6.496h2.492l-7.588,11.088V68.824z"/>
			<path fill="#FFFFFF" d="M362.551,63.309c-1.512,3.695-5.012,5.879-9.155,5.879c-5.712,0-10.08-4.031-10.08-10.221
				c0-6.158,4.34-10.135,10.08-10.135c4.536,0,7.672,2.463,8.903,5.348l-2.211,0.615c-0.729-1.344-2.66-3.807-6.748-3.807
				c-4.537,0-7.729,3.08-7.729,8.008c0,4.955,3.359,8.008,7.672,8.008c3.192,0,5.824-1.652,7.057-4.283L362.551,63.309z"/>
			<path fill="#FFFFFF" d="M375.516,52.836c4.647,0,8.231,3.416,8.231,8.176c0,4.703-3.584,8.148-8.231,8.148
				c-4.648,0-8.232-3.445-8.232-8.148C367.283,56.252,370.867,52.836,375.516,52.836z M375.516,67.145
				c3.416,0,6.02-2.521,6.02-6.133c0-3.668-2.604-6.16-6.02-6.16s-6.021,2.492-6.021,6.16
				C369.495,64.623,372.1,67.145,375.516,67.145z"/>
			<path fill="#FFFFFF" d="M388.508,67.676c0-0.783,0.531-1.4,1.512-1.4s1.512,0.617,1.512,1.4s-0.531,1.428-1.512,1.428
				C389.012,69.104,388.508,68.459,388.508,67.676z"/>
		</g>
	</g>
	<g>
		<polygon fill="#248A83" points="23.513,0.838 1.719,23.109 5.116,26.581 23.521,7.774 41.926,26.581 45.323,23.109 23.503,0.812 
					"/>
		<polygon fill="#248A83" points="23.513,16.989 1.719,39.26 5.116,42.73 23.521,23.923 41.926,42.73 45.323,39.26 23.503,16.961 		
			"/>
		<polygon fill="#248A83" points="23.513,33.138 1.719,55.408 5.116,58.881 23.521,40.072 41.926,58.881 45.323,55.408 
			23.503,33.112 		"/>
		<rect x="21.099" y="6.106" fill-rule="evenodd" clip-rule="evenodd" fill="#248A83" width="4.845" height="62.984"/>
	</g>
</g>
</svg>
