<?xml version="1.0" encoding="utf-8"?>
<!-- Generator: Adobe Illustrator 16.0.4, SVG Export Plug-In . SVG Version: 6.00 Build 0)  -->
<!DOCTYPE svg PUBLIC "-//W3C//DTD SVG 1.1//EN" "http://www.w3.org/Graphics/SVG/1.1/DTD/svg11.dtd">
<svg version="1.1" id="Layer_1" xmlns="http://www.w3.org/2000/svg" xmlns:xlink="http://www.w3.org/1999/xlink" x="0px" y="0px"
	 width="275px" height="275px" viewBox="0 0 275 275" enable-background="new 0 0 275 275" xml:space="preserve">
<filter id="dropshadow" height="120%">
	<feGaussianBlur in="SourceAlpha" stdDeviation="2"/> <!-- stdDeviation is how much to blur -->
	<feOffset dx="1" dy="1" result="offsetblur"/> <!-- how much to offset -->
	<feMerge>
		<feMergeNode/> <!-- this contains the offset blurred image -->
		<feMergeNode in="SourceGraphic"/> <!-- this contains the element that the filter is applied to -->
	</feMerge>
</filter>
<g>
	<g id="Circle_8_" style="filter:url(#dropshadow)">
		<g>
			<path fill-rule="evenodd" clip-rule="evenodd" fill="#FFFFFF" d="M137.5,4.5c-73.454,0-133,59.546-133,133
				c0,73.455,59.546,133,133,133s133-59.545,133-133C270.5,64.046,210.954,4.5,137.5,4.5z M229.424,229.424
				C204.87,253.979,172.225,267.5,137.5,267.5s-67.37-13.521-91.924-38.076C21.022,204.871,7.5,172.225,7.5,137.5
				s13.522-67.37,38.076-91.924S102.775,7.5,137.5,7.5s67.37,13.522,91.924,38.076S267.5,102.775,267.5,137.5
				S253.978,204.871,229.424,229.424z"/>
		</g>
	</g>
	<g style="filter:url(#dropshadow)">
		<g>
			<path fill="#FFFFFF" d="M59.142,66.452l13.103,11.631l-1.501,1.691L57.64,68.143L59.142,66.452z"/>
			<path fill="#FFFFFF" d="M76.896,73.021L65.872,59.404l1.919-1.554l9.941,3.356c2.302,0.778,4.251,1.575,6.027,2.445l0.024-0.053
				c-1.634-1.688-3.016-3.311-4.733-5.433l-4.613-5.697l1.657-1.341l11.025,13.617l-1.778,1.439l-9.918-3.409
				c-2.176-0.747-4.345-1.566-6.226-2.484l-0.044,0.069c1.491,1.636,2.857,3.239,4.689,5.502l4.711,5.818L76.896,73.021z"/>
			<path fill="#FFFFFF" d="M87.021,44.433l3.24,6.58l7.605-3.746l-3.24-6.579l2.053-1.011l7.744,15.725l-2.053,1.011L98.74,49.04
				l-7.606,3.746l3.631,7.373l-2.03,1l-7.744-15.725L87.021,44.433z"/>
			<path fill="#FFFFFF" d="M112.142,47.159l-0.461,5.785l-2.273,0.555l1.628-18.432l2.652-0.647l9.963,15.603l-2.348,0.573
				l-3.125-4.91L112.142,47.159z M117.304,44.08l-2.863-4.492c-0.65-1.019-1.149-1.967-1.642-2.891l-0.05,0.012
				c-0.006,1.072-0.031,2.175-0.106,3.291l-0.465,5.332L117.304,44.08z"/>
			<path fill="#FFFFFF" d="M128.328,32.235c0.979-0.245,2.533-0.461,4.118-0.521c2.261-0.086,3.731,0.248,4.856,1.09
				c0.936,0.641,1.521,1.66,1.573,3.037c0.064,1.689-0.996,3.213-2.815,3.959l0.002,0.052c1.679,0.353,3.681,1.655,3.779,4.254
				c0.058,1.507-0.496,2.673-1.347,3.564c-1.179,1.164-3.134,1.759-5.993,1.868c-1.559,0.06-2.758,0.001-3.516-0.074L128.328,32.235
				z M130.863,39.321l2.053-0.078c2.391-0.091,3.747-1.392,3.682-3.082c-0.078-2.053-1.668-2.799-3.956-2.711
				c-1.039,0.04-1.634,0.141-1.995,0.232L130.863,39.321z M131.183,47.714c0.445,0.061,1.095,0.062,1.901,0.031
				c2.338-0.089,4.463-1.029,4.365-3.576c-0.091-2.391-2.182-3.3-4.65-3.206l-1.871,0.072L131.183,47.714z"/>
			<path fill="#FFFFFF" d="M150.21,32.481l-1.903,17.422l-2.248-0.246l1.902-17.422L150.21,32.481z"/>
			<path fill="#FFFFFF" d="M162.324,36.64l-5.162-1.33l0.48-1.863l12.563,3.236l-0.48,1.863l-5.187-1.335l-3.891,15.106
				l-2.216-0.571L162.324,36.64z"/>
			<path fill="#FFFFFF" d="M181.995,51.767l-6.188-2.846l-2.64,5.74l6.897,3.172l-0.793,1.724l-8.953-4.118l7.323-15.92l8.598,3.955
				l-0.793,1.724l-6.543-3.009l-2.314,5.031l6.188,2.846L181.995,51.767z"/>
			<path fill="#FFFFFF" d="M184.243,62.35l10.347-14.141l1.993,1.458l-0.703,10.47c-0.164,2.425-0.436,4.513-0.823,6.452l0.058,0.01
				c1.214-2.011,2.431-3.762,4.042-5.965l4.329-5.917l1.721,1.259l-10.347,14.141l-1.846-1.351l0.76-10.46
				c0.165-2.295,0.402-4.602,0.81-6.655l-0.078-0.025c-1.199,1.86-2.401,3.59-4.12,5.94l-4.421,6.042L184.243,62.35z"/>
			<path fill="#FFFFFF" d="M213.509,66.737l-3.588-3.941l1.423-1.295l8.733,9.594l-1.423,1.295l-3.605-3.96L203.514,78.93
				l-1.54-1.692L213.509,66.737z"/>
		</g>
	</g>
	<g style="filter:url(#dropshadow)">
		<g>
			<path fill="#FFFFFF" d="M52.377,192.711c-2.262,0.304-4.341-0.808-5.522-2.86c-1.628-2.829-0.875-6.143,2.19-7.906
				c3.051-1.755,6.258-0.738,7.894,2.104c1.292,2.247,0.966,4.503-0.112,5.936l-0.936-0.92c0.458-0.744,1.128-2.403-0.037-4.429
				c-1.293-2.247-3.729-2.95-6.169-1.546c-2.455,1.413-3.009,3.947-1.78,6.083c0.91,1.581,2.478,2.414,4.133,2.274L52.377,192.711z"
				/>
			<path fill="#FFFFFF" d="M56.595,198.82l-3.101,0.893l-0.872-1.085l11.714-3.302l0.892,1.109l-5.739,10.732l-0.873-1.085
				l1.537-2.837L56.595,198.82z M62.275,199.323c0.527-0.979,1.35-2.481,1.353-2.504l-0.02-0.025
				c-0.022-0.002-1.667,0.479-2.713,0.786l-3.066,0.885l2.938,3.653L62.275,199.323z"/>
			<path fill="#FFFFFF" d="M73.693,213.836c1.16-1.28,2.743-2.955,2.753-2.967l-0.024-0.021c-0.022,0.001-0.944,0.375-2.894,1.026
				l-3.956,1.316l-0.581-0.526l0.9-4.021c0.465-2.062,0.758-3.005,0.757-3.027l-0.023-0.021c-0.011,0.012-1.534,1.74-2.694,3.021
				l-3.384,3.735l-0.96-0.87l7.52-8.3l1.02,0.924l-1.754,7.607l0.023,0.021l7.41-2.483l0.996,0.902l-7.52,8.3l-0.972-0.881
				L73.693,213.836z"/>
			<path fill="#FFFFFF" d="M85.695,215.048c2.167,1.452,2.8,3.322,1.526,5.223c-1.239,1.848-3.236,2.011-5.403,0.559l-1.741-1.168
				l-2.362,3.522l-1.076-0.722l6.238-9.304L85.695,215.048z M82.487,219.89c1.555,1.043,2.807,0.899,3.635-0.337
				c0.882-1.315,0.406-2.502-1.069-3.491l-1.768-1.185l-2.566,3.827L82.487,219.89z"/>
			<path fill="#FFFFFF" d="M93.045,219.492l1.143,0.611l-5.276,9.88l-1.143-0.61L93.045,219.492z"/>
			<path fill="#FFFFFF" d="M99.246,224.929l-0.029-0.012c-0.006,0.015-0.449,1.216-0.962,2.509l-2.368,5.959l-1.204-0.478
				l4.133-10.404l1.219,0.484l2.763,10.804l0.03,0.012c0.006-0.015,0.46-1.245,0.938-2.449l2.362-5.944l1.218,0.483l-4.133,10.403
				l-1.234-0.489L99.246,224.929z"/>
			<path fill="#FFFFFF" d="M118.75,240.354c0.278-1.249,0.336-1.433,0.367-1.573l-0.031-0.007c-0.667,0.49-2.286,1.358-4.439,0.878
				c-3.106-0.692-5.103-3.496-4.338-6.931c0.769-3.449,3.698-5.123,6.914-4.407c2.498,0.557,3.974,2.312,4.299,4.088l-1.326,0.065
				c-0.209-0.751-0.916-2.433-3.273-2.958c-2.529-0.563-4.722,0.75-5.331,3.481c-0.619,2.779,0.906,4.904,3.403,5.461
				c2.061,0.46,3.75-0.359,4.369-1.074l0.348-1.561l-3.247-0.724l0.265-1.187l4.433,0.988l-1.273,5.713L118.75,240.354z"/>
			<path fill="#FFFFFF" d="M134.637,238.717c0.154,1.598,1.493,2.295,3.205,2.268c1.631-0.026,2.611-0.698,2.59-2.042
				c-0.03-1.839-1.887-1.904-3.283-2.186c-1.524-0.327-3.484-0.839-3.521-3.11c-0.032-1.95,1.39-3.077,3.74-3.115
				c2.079-0.034,3.629,0.805,4.14,2.716l-1.242,0.356c-0.324-1.227-1.247-1.932-2.894-1.905c-1.631,0.026-2.436,0.743-2.418,1.879
				c0.025,1.487,1.438,1.784,3.041,2.078c1.669,0.293,3.725,0.787,3.764,3.25c0.035,2.111-1.419,3.206-3.914,3.247
				c-1.887,0.03-4.056-0.559-4.448-3.079L134.637,238.717z"/>
			<path fill="#FFFFFF" d="M155.743,235.711c0.436,3.139-0.899,5.053-3.769,5.45c-2.886,0.4-4.674-1.081-5.109-4.22l-0.896-6.469
				l1.316-0.183l0.896,6.469c0.334,2.41,1.481,3.463,3.622,3.166c2.155-0.299,2.989-1.626,2.655-4.036l-0.896-6.469l1.284-0.178
				L155.743,235.711z"/>
			<path fill="#FFFFFF" d="M162.949,227.238c2.51-0.709,4.345,0.02,4.966,2.221c0.604,2.141-0.564,3.768-3.074,4.477l-2.017,0.569
				l1.152,4.08l-1.247,0.353l-3.045-10.777L162.949,227.238z M164.559,232.818c1.801-0.509,2.503-1.556,2.099-2.987
				c-0.431-1.524-1.643-1.93-3.352-1.447l-2.048,0.578l1.253,4.435L164.559,232.818z"/>
			<path fill="#FFFFFF" d="M174.153,223.274c2.398-1.024,4.311-0.537,5.21,1.566c0.874,2.045-0.077,3.808-2.475,4.833l-1.928,0.823
				l1.666,3.897l-1.191,0.51l-4.4-10.297L174.153,223.274z M176.465,228.602c1.722-0.735,2.283-1.862,1.698-3.23
				c-0.622-1.456-1.876-1.703-3.509-1.006l-1.956,0.836l1.811,4.236L176.465,228.602z"/>
			<path fill="#FFFFFF" d="M181.842,219.62l1.117-0.656l5.057,8.607l5.09-2.989l0.615,1.048l-6.207,3.646L181.842,219.62z"/>
			<path fill="#FFFFFF" d="M200.573,220.76l-1.05,0.787l-2.918-3.892l-7.257-2.479l1.203-0.902l4.217,1.438
				c0.96,0.32,1.646,0.567,1.668,0.57l0.025-0.02c0.003-0.022-0.058-0.717-0.086-1.715l-0.191-4.496l1.14-0.854l0.331,7.671
				L200.573,220.76z"/>
			<path fill="#FFFFFF" d="M218.201,198.981c1.047,2.027,0.699,4.358-0.836,6.161c-2.117,2.483-5.489,2.89-8.18,0.596
				c-2.679-2.282-2.8-5.643-0.673-8.14c1.681-1.972,3.915-2.423,5.625-1.89l-0.552,1.19c-0.854-0.182-2.642-0.255-4.156,1.523
				c-1.681,1.972-1.524,4.502,0.619,6.328c2.155,1.836,4.728,1.506,6.325-0.369c1.183-1.388,1.439-3.145,0.752-4.656
				L218.201,198.981z"/>
			<path fill="#FFFFFF" d="M218.451,187.836c1.406-2.254,4.146-2.959,6.455-1.52c2.282,1.423,2.868,4.202,1.463,6.457
				c-1.406,2.254-4.16,2.951-6.442,1.528C217.618,192.861,217.046,190.091,218.451,187.836z M225.391,192.163
				c1.033-1.656,0.599-3.682-1.153-4.774c-1.778-1.109-3.775-0.6-4.808,1.057c-1.033,1.657-0.612,3.674,1.166,4.783
				C222.348,194.321,224.357,193.82,225.391,192.163z"/>
			<path fill="#FFFFFF" d="M230.385,183.875c-0.402-0.197-0.585-0.625-0.339-1.128c0.246-0.504,0.696-0.622,1.099-0.425
				s0.6,0.632,0.354,1.135C231.244,183.975,230.787,184.071,230.385,183.875z"/>
		</g>
	</g>
	<g id="Tent_2_" style="filter:url(#dropshadow)">
		<g>
			<path fill-rule="evenodd" clip-rule="evenodd" fill="#FFFFFF" d="M174.138,151.064c-0.773-0.4-1.725-0.088-2.119,0.697
				l-0.607,1.21l-32.746-38.909c-0.023-0.027-0.051-0.047-0.074-0.072c-0.035-0.035-0.062-0.074-0.101-0.106
				c-0.01-0.008-0.021-0.014-0.032-0.022c-0.041-0.033-0.085-0.061-0.129-0.09c-0.043-0.029-0.086-0.061-0.132-0.085
				c-0.044-0.023-0.089-0.039-0.135-0.059c-0.05-0.021-0.099-0.043-0.15-0.059c-0.044-0.014-0.089-0.02-0.134-0.029
				c-0.055-0.011-0.107-0.023-0.163-0.029c-0.046-0.004-0.092-0.002-0.138-0.002c-0.055,0-0.108-0.003-0.163,0.003
				c-0.048,0.005-0.093,0.017-0.141,0.025c-0.052,0.01-0.104,0.019-0.155,0.033c-0.047,0.014-0.09,0.034-0.135,0.053
				c-0.051,0.021-0.102,0.039-0.148,0.064c-0.045,0.023-0.085,0.054-0.127,0.081c-0.045,0.029-0.091,0.059-0.133,0.094
				c-0.011,0.008-0.021,0.014-0.031,0.021c-0.039,0.032-0.066,0.071-0.101,0.105c-0.024,0.025-0.052,0.046-0.075,0.073
				l-32.68,38.909l-0.607-1.21c-0.395-0.785-1.344-1.097-2.119-0.697s-1.084,1.361-0.689,2.147l3.723,7.408
				c0.279,0.553,0.832,0.872,1.406,0.872c0.24,0,0.484-0.056,0.713-0.174c0.771-0.401,1.078-1.362,0.685-2.148l-1.602-3.197
				l8.13-9.574v14.761h13.961l8.702-23.277l-0.015,23.277h25.859v-14.762l8.166,9.575l-1.607,3.197
				c-0.395,0.786-0.086,1.747,0.689,2.147c0.229,0.119,0.474,0.175,0.715,0.175c0.573,0,1.127-0.319,1.405-0.872l3.724-7.408
				C175.222,152.426,174.913,151.464,174.138,151.064z M127.317,151.846c-0.6-1.929-1.623-3.926-3.355-5.489l9.165-10.099
				L127.317,151.846z M158.584,142.78v15.185h-19.542v-28.784c0.004-0.07-0.006-0.137-0.013-0.206
				c-0.007-0.091-0.021-0.18-0.042-0.266c-0.018-0.066-0.033-0.13-0.059-0.194c-0.047-0.117-0.106-0.227-0.178-0.328
				c-0.033-0.049-0.07-0.092-0.11-0.137c-0.091-0.104-0.19-0.198-0.306-0.274c-0.012-0.008-0.02-0.021-0.031-0.028
				c-0.023-0.015-0.051-0.018-0.074-0.03c-0.125-0.07-0.258-0.127-0.4-0.161c-0.016-0.004-0.031-0.011-0.048-0.015
				c-0.103-0.021-0.206-0.032-0.314-0.032c-0.057,0-0.109,0.012-0.164,0.017c-0.022,0.003-0.044,0.004-0.067,0.008
				c-0.169,0.025-0.327,0.077-0.475,0.152c-0.006,0.003-0.011,0.006-0.016,0.009c-0.18,0.095-0.338,0.222-0.469,0.376
				l-15.819,17.429c-0.319,0.353-0.467,0.833-0.399,1.307c0.066,0.476,0.341,0.895,0.746,1.143
				c4.112,2.513,4.215,8.436,4.165,10.017h-8.606v-15.312l21.105-25.092l21.226,25.22H158.584z"/>
		</g>
	</g>
	<g id="Trees_1_" style="filter:url(#dropshadow)">
		<g>
			<path fill-rule="evenodd" clip-rule="evenodd" fill="#FFFFFF" d="M223.896,142.316l2.104-2.148l-12-12.263v-5.701l9.896,10.113
				l2.104-2.149l-13.511-13.807l0.006,0.017L199,130.167l2.104,2.149L211,122.204v5.701l-12,12.263l2.104,2.148L211,132.204v5.701
				l-12,12.263l2.104,2.148L211,142.204v16.435h3v-16.435l9.896,10.112l2.104-2.148l-12-12.263v-5.701L223.896,142.316z
				 M73.896,132.317L76,130.167l-13.511-13.807l0.006,0.017L49,130.167l2.104,2.149L61,122.204v5.701l-12,12.263l2.104,2.148
				L61,132.204v5.701l-12,12.263l2.104,2.148L61,142.204v16.435h3v-16.435l9.896,10.112L76,150.168l-12-12.263v-5.701l9.896,10.112
				L76,140.168l-12-12.263v-5.701L73.896,132.317z"/>
		</g>
	</g>
</g>
</svg>
