<svg xmlns="http://www.w3.org/2000/svg" viewBox="0 0 273.3 345"><defs><style>.cls-1{fill:#fff;stroke:#fff;stroke-miterlimit:10;}.cls-2{fill:#40b2c3;}.cls-3{fill:#72cb7e;}</style></defs><title>p4logoAsset 5</title><g id="Layer_2" data-name="Layer 2"><g id="Layer_3" data-name="Layer 3"><path class="cls-1" d="M42.32,198l-38.55-4.2c-2.61,12.1-4.19,24.46-2.69,36C9.37,293.31,73.72,343.94,136.32,344c61.51.05,128-46.85,135.61-112.2a109.8,109.8,0,0,0-2.62-41.57l-138-5.86Z"/><path class="cls-2" d="M227.74,256l-2.11,0c-26.33,0-41.87-11.11-54.42-20.08-11.45-8.18-19.69-14.08-36.63-14-13.05.12-21.94,6.17-33.19,13.84-13.19,9-29.61,20.17-54,20.17h0c-19.25,0-31-14.62-46.23-26.25,5,60,68.24,115.26,136.24,115.26,69,0,130.61-49.21,134.61-113.2C258.33,243.77,249.42,255.51,227.74,256Z"/><path class="cls-3" d="M3.77,193.79C19,206.44,35.28,219,47.33,219h0c12.71,0,21.5-6,32.64-13.58,13.22-9,29.66-20.21,54.25-20.42,29.27-.29,45.79,11.54,59.05,21,11.22,8,18.63,13.34,33.6,13,10.64-.24,19.08-7.46,33.07-20.2,2.92-2.66,6-6,9.35-8.81,0,0-65-190-87-190S112.61,165.06,107,165,76.32,70,62.32,70,3.77,193.79,3.77,193.79C4.2,194.15,3.34,193.44,3.77,193.79Z"/></g></g></svg>